<?xml version="1.0" encoding="UTF-8"?>
<svg id="Layer_2" data-name="Layer 2" xmlns="http://www.w3.org/2000/svg" viewBox="0 0 62.34 58.25">
  <defs>
    <style>
      .cls-1 {
        fill: #fff;
      }

      .cls-2 {
        fill: #1c1042;
      }
    </style>
  </defs>
  <g id="Layer_1-2" data-name="Layer 1">
    <g>
      <path class="cls-1" d="M62.33,9.01c0-.33,0-.77-.07-1.22-.59-4.44-4.44-7.78-9.01-7.78-5.27.02-10.54.03-15.81.03h-11.72c-2.85,0-5.7,0-8.55,0-.94,0-1.77.1-2.54.3-3.74,1-6.37,4.58-6.38,8.7-.02,7.94-.08,16.03-.15,23.85l-.05,6.15h-1.29c-.84,0-1.67,0-2.55-.01-1.65,0-2.9.62-3.72,1.83-.32.47-.49,1.02-.49,1.59v6.03c0,.38.08.75.22,1.1,1.06,5.12,5.32,8.67,10.49,8.69h0c9.92,0,19.84,0,29.77,0,1.05,0,2.23,0,3.46-.3,4.97-1.22,8.18-5.41,8.18-10.68,0-8.66,0-17.33,0-25.99h6.1c2.5,0,4.07-1.57,4.09-4.13,0-2.71,0-5.43,0-8.13"/>
      <path class="cls-2" d="M57.63,16.11c0,.11,0,.22-.02.38h-8.27c0-.13-.03-.24-.03-.34,0-2.35-.02-4.7,0-7.05.02-2.18,1.64-4.09,3.61-4.3,2.25-.24,4.12,1.1,4.62,3.36.07.29.09.6.09.9v7.05ZM47.49,8.32c-.04.38-.05.76-.05,1.13v37.86c-.01,3.05-1.98,5.51-4.86,6.1-3.29.68-6.76-2.08-6.89-5.52-.05-1.53-.02-3.07-.03-4.6,0-1.14-.29-1.44-1.41-1.44H12.76c-.01-.19-.03-.34-.03-.49.08-10.76.16-21.52.23-32.28,0-1.43.42-2.64,1.56-3.51.6-.47,1.27-.75,2.04-.78.25-.01.51-.03.77-.03h31.82c-.9,1.13-1.5,2.24-1.66,3.56M35.92,53.49c-8.39,0-16.78,0-25.17,0-3.13-.01-5.51-1.99-5.97-5.17-.21-1.46-.03-2.98-.03-4.52h29.05c0,1.03-.05,2.03.02,3.02.07,1.07.17,2.15.43,3.18.33,1.34,1.15,2.43,2.2,3.44-.23.02-.38.05-.53.05M59.49,9c0-.29,0-.57-.05-.85-.4-3.02-3.06-5.34-6.19-5.32-12.03.05-24.06,0-36.08.03-.61,0-1.23.05-1.81.2-2.36.63-4.27,2.95-4.28,5.97-.02,10.66-.13,21.33-.21,32v.82h-.68c-1.99,0-3.98.02-5.98,0-.56,0-1.04.09-1.38.59v6.03c.03.06.09.12.1.19.67,3.96,3.89,6.75,7.79,6.76,9.92,0,19.84,0,29.77,0,.93,0,1.89,0,2.79-.22,3.68-.9,6.02-4.02,6.02-7.93,0-9.36,0-18.72,0-28.08v-.74h8.93c.93,0,1.25-.34,1.26-1.3,0-2.71,0-5.42,0-8.13"/>
      <path class="cls-2" d="M35.68,21.48c-.21,1.3-.95,2.35-2.04,3.12-1.23.86-2.46,1.72-3.68,2.6-.28.2-.46.18-.72-.01-1.21-.87-2.43-1.7-3.63-2.58-1.43-1.04-2.19-2.47-2.21-4.28-.02-1.86,0-3.71,0-5.57-.01-.33.1-.5.39-.64,1.84-.92,3.66-1.86,5.5-2.76.18-.09.47-.11.64-.02,1.86.92,3.7,1.87,5.55,2.79.3.15.38.35.37.66-.01,1.01,0,2.01,0,3.01.02,0,.04,0,.06,0-.06,1.22-.02,2.46-.22,3.67M37.01,12.78c-2.26-1.14-4.52-2.28-6.78-3.43-.41-.21-.79-.23-1.21-.02-2.29,1.17-4.58,2.32-6.88,3.48-.42.21-.62.54-.62,1.03.02,1.18.01,2.35.01,3.53,0,.98-.02,1.97,0,2.95.05,2.45,1.06,4.41,2.99,5.84,1.44,1.06,2.92,2.04,4.37,3.09.51.36.95.36,1.46-.01,1.45-1.04,2.94-2.02,4.37-3.09,1.91-1.41,2.93-3.36,2.97-5.79.04-2.14,0-4.28.02-6.42,0-.57-.21-.92-.7-1.16"/>
      <path class="cls-2" d="M41.32,33.89c-.21.07-.44.09-.65.09-7.1.01-14.19.01-21.29.01-.8,0-1.23-.3-1.28-.87-.05-.58.31-1.02.91-1.04.88-.02,1.77-.01,2.65-.01h19.13c.69,0,1.02.24,1.12.76.1.49-.13.92-.59,1.06"/>
      <path class="cls-2" d="M41.95,37.38c0,.65-.45.95-1.42.95h-21.13c-.18,0-.37.02-.55-.03-.43-.1-.72-.36-.75-.85-.03-.51.21-.84.67-.97.22-.07.47-.07.71-.07h21.07c.94,0,1.4.32,1.4.97"/>
      <path class="cls-2" d="M28.73,19.87c.92-.94,1.8-1.85,2.68-2.76.14-.15.29-.29.45-.41.41-.29.82-.22,1.15.12.33.35.36.77.09,1.19-.09.14-.21.27-.32.39-1.05,1.09-2.11,2.17-3.17,3.26-.68.7-1.11.7-1.78.02-.51-.52-1.02-1.04-1.52-1.58-.46-.49-.49-1.06-.1-1.46.4-.41.92-.38,1.42.11.36.35.7.72,1.09,1.12"/>
    </g>
  </g>
</svg>