<?xml version="1.0" encoding="UTF-8"?>
<svg id="Layer_2" data-name="Layer 2" xmlns="http://www.w3.org/2000/svg" viewBox="0 0 64.55 59.17">
  <defs>
    <style>
      .cls-1 {
        fill: #fff;
      }

      .cls-2 {
        fill: #1c1042;
      }
    </style>
  </defs>
  <g id="Layer_1-2" data-name="Layer 1">
    <g>
      <path class="cls-1" d="M34.49,35.27s.01,0,.03,0h.08s-.12,0-.12,0ZM62.4,23.65c-.09-.1-.19-.2-.3-.29-1.49-1.26-3.13-2.07-4.82-2.36l-.35-.96c3.86-3.52,4.96-9.39,2.33-14.18-2.04-3.62-5.9-5.86-10.07-5.86-1.94,0-3.87.5-5.58,1.44-1.95,1.09-3.52,2.71-4.53,4.63l-2.26-.25c-1.37-2.94-4.35-4.96-7.68-4.96-.44,0-.88.03-1.29.1-4.19.63-7.23,4.17-7.23,8.4,0,.69.09,1.38.26,2.07l-4.73,4.64c-1.45-.65-3.03-.99-4.62-.99C5.17,15.09,0,20.26,0,26.62c0,5.49,3.85,10.09,8.99,11.25l1.04,6.22c-1.09.91-1.95,2.09-2.48,3.45-.83,2.13-.79,4.45.13,6.52,1.36,3.1,4.42,5.11,7.81,5.11,1.18,0,2.33-.24,3.36-.7,3.15-1.32,5.12-4.43,5.17-7.77l2.43-1.27c2.36,1.84,5.3,2.86,8.35,2.86,3.36,0,6.59-1.23,9.13-3.49,2.83-2.58,4.46-6.23,4.46-10.01,0-.23,0-.46-.02-.69l3.08-1.59c1.35.86,2.94,1.34,4.57,1.34h0c2.08,0,4.09-.77,5.66-2.15,1.72-1.52,2.73-3.6,2.87-5.87.14-2.27-.62-4.46-2.14-6.17"/>
      <path class="cls-2" d="M58.97,32.19h-6.39v-1.24c0-.27.14-.48.35-.61.48-.35,1.03-.62,1.57-.76.41-.15.89-.21,1.3-.21s.89.06,1.31.21c.55.13,1.02.4,1.51.76.21.13.34.4.34.61v1.24ZM50.25,29.44c0,.41.07.83.21,1.24l-6.32,3.29c-.76-1.51-1.93-2.74-3.29-3.71l5.62-10.52c.89.35,1.85.49,2.82.49.55,0,1.1-.07,1.65-.14l1.79,4.81c-1.65.96-2.55,2.68-2.47,4.54M40.49,44.29h-11.88v-2.27c0-.49.21-.89.62-1.17.89-.62,1.85-1.1,2.89-1.44.82-.21,1.65-.34,2.46-.34s1.65.14,2.47.34c1.03.27,2.06.76,2.88,1.44.35.28.62.76.62,1.17l-.07,2.27ZM37.54,35.28c0,1.66-1.37,2.96-3.01,2.96s-2.96-1.31-2.96-2.96,1.3-2.95,2.96-2.95h.06c1.65,0,2.95,1.31,2.95,2.95M25.87,32.74l-6.32-3.3c.28-.89.41-1.78.41-2.74,0-1.79-.55-3.51-1.58-4.95l7.69-7.5c2.61,1.58,6.05.83,7.62-1.78.21-.34.34-.69.48-1.04l6.39.69c.14,2.46,1.38,4.81,3.37,6.32l-5.63,10.52c-4.46-1.79-9.61-.21-12.43,3.78M19.14,46.76c-.89-.89-2.12-1.44-3.37-1.58l-1.71-10.3c1.65-.55,3.09-1.58,4.11-2.96l6.39,3.36c-1.03,2.76-.82,5.85.55,8.46l-5.97,3.02ZM13.65,48.69c0-.89.68-1.58,1.57-1.58s1.58.69,1.58,1.58-.68,1.57-1.58,1.57c-.82.07-1.51-.68-1.57-1.57M18.46,53.49h-6.39v-1.23c0-.28.15-.49.35-.62.48-.34,1.02-.62,1.57-.75.41-.14.89-.21,1.31-.21s.89.07,1.3.21c.55.13,1.03.41,1.51.75.21.14.34.42.34.62v1.23ZM6.58,31.09v-1.86c0-.34.21-.76.48-.96.69-.48,1.51-.89,2.34-1.1.61-.21,1.31-.27,1.99-.27s1.38.13,1.99.27c.83.21,1.65.62,2.34,1.17.27.21.48.62.48.96v1.85l-9.61-.06ZM11.38,21.4c1.31,0,2.4,1.1,2.4,2.4s-1.1,2.4-2.4,2.4-2.4-1.1-2.4-2.4c.07-1.3,1.1-2.4,2.4-2.4M26.15,10.4c.48-.35,1.03-.56,1.57-.69.41-.13.89-.21,1.3-.21s.89.07,1.3.21c.55.14,1.04.41,1.51.76.21.14.34.41.34.62v1.23h-6.32v-1.31h-.07c0-.27.15-.48.35-.61M29.03,5.87c.89,0,1.58.68,1.58,1.57s-.69,1.58-1.58,1.58-1.57-.69-1.57-1.58c0-.82.68-1.57,1.57-1.57M44.35,14.11c0-.34.21-.76.48-.96.68-.48,1.51-.89,2.34-1.1.61-.21,1.3-.28,1.99-.28s1.37.15,1.99.28c.83.21,1.65.62,2.34,1.17.27.21.48.61.48.96v1.85h-9.61v-1.93ZM49.22,6.27c1.3,0,2.4,1.11,2.4,2.41s-1.11,2.4-2.4,2.4-2.41-1.1-2.41-2.4,1.03-2.41,2.41-2.41M55.81,25.86c.89,0,1.58.68,1.58,1.58s-.69,1.57-1.58,1.57-1.57-.68-1.57-1.57.68-1.58,1.57-1.58M60.2,25.6c-1.31-1.11-2.81-1.79-4.39-1.79h-.62l-1.78-4.81c4.12-2.33,5.56-7.56,3.29-11.68-2.33-4.12-7.55-5.57-11.67-3.3-1.99,1.11-3.5,3.02-4.05,5.23l-6.39-.69c-.48-3.02-3.29-5.15-6.32-4.67-2.74.41-4.73,2.75-4.73,5.5,0,.96.27,1.93.76,2.82l-7.69,7.56c-1.44-1.1-3.23-1.72-5.08-1.72-4.73,0-8.58,3.85-8.58,8.6s3.85,8.59,8.58,8.59l1.72,10.3c-2.82,1.24-4.12,4.55-2.88,7.36,1.23,2.82,4.53,4.12,7.34,2.88,2.61-1.1,3.91-3.99,3.16-6.73l6.05-3.16c3.91,4.33,10.64,4.67,15.04.76,2.19-2,3.5-4.89,3.5-7.84,0-.76-.07-1.59-.28-2.34l6.66-3.44c2.06,2.34,5.57,2.55,7.9.49,2.33-2.06,2.54-5.57.48-7.9"/>
    </g>
  </g>
</svg>