<?xml version="1.0" encoding="UTF-8"?>
<svg id="Layer_2" data-name="Layer 2" xmlns="http://www.w3.org/2000/svg" viewBox="0 0 62.36 62.38">
  <defs>
    <style>
      .cls-1 {
        fill: #fff;
      }

      .cls-2 {
        fill: #1c1042;
      }
    </style>
  </defs>
  <g id="Layer_1-2" data-name="Layer 1">
    <g>
      <path class="cls-1" d="M31.18,62.38h0C13.96,62.38,0,48.42,0,31.2v-.02C0,13.96,13.96,0,31.18,0s31.18,13.96,31.18,31.18v.02c0,17.22-13.96,31.18-31.18,31.18"/>
      <path class="cls-2" d="M27.33,4.7l-.21-1.52c.48-.07.97-.14,1.45-.18.95-.09,1.92-.15,2.88-.15h.15v1.53h-.15c-.91,0-1.82.04-2.74.14-.46.04-.92.1-1.39.18h.01ZM37.24,5.02c-1.39-.31-2.81-.51-4.22-.59l.08-1.53c1.49.08,2.99.29,4.45.62l-.3,1.5ZM21.82,6.14l-.49-1.45c1.4-.53,2.86-.95,4.33-1.26l.28,1.51c-1.4.28-2.77.68-4.11,1.19M42.65,6.85c-1.3-.6-2.65-1.1-4.02-1.48l.37-1.48c1.45.4,2.88.93,4.23,1.56l-.59,1.4h0ZM16.71,8.73l-.77-1.31c1.27-.82,2.61-1.55,3.99-2.15l.56,1.41c-1.31.58-2.58,1.27-3.79,2.05M47.58,9.81c-1.15-.88-2.37-1.66-3.64-2.32l.66-1.37c1.34.71,2.62,1.53,3.84,2.45l-.85,1.24h-.01ZM12.22,12.37l-1-1.11c1.08-1.09,2.25-2.09,3.48-2.98l.84,1.27c-1.17.84-2.27,1.79-3.3,2.82h-.01ZM51.79,13.8c-.94-1.11-1.97-2.14-3.08-3.08l.92-1.19c1.17.99,2.26,2.09,3.26,3.25l-1.09,1.01h0ZM8.57,16.92l-1.22-.85c.84-1.3,1.77-2.53,2.81-3.68l1.07,1.04c-.97,1.09-1.87,2.26-2.65,3.49M55.06,18.66c-.67-1.3-1.47-2.54-2.35-3.72l1.15-.95c.94,1.24,1.77,2.55,2.49,3.94l-1.28.74h-.01ZM5.95,22.19l-1.37-.55c.53-1.46,1.2-2.89,1.97-4.24l1.26.78c-.72,1.29-1.35,2.64-1.86,4.01M57.18,24.16c-.37-1.42-.88-2.84-1.48-4.18l1.32-.65c.64,1.42,1.18,2.91,1.57,4.42l-1.41.41ZM4.54,27.95l-1.45-.21c.2-1.55.53-3.1,1-4.61l1.39.46c-.43,1.41-.75,2.88-.94,4.35h0ZM58.05,30.03c-.02-.51-.05-1.01-.1-1.52-.09-.97-.23-1.95-.42-2.9l1.43-.32c.2,1.01.36,2.05.45,3.07.05.54.08,1.08.1,1.61l-1.46.05ZM2.98,34.03c-.08-.88-.12-1.76-.12-2.64,0-.7.03-1.39.08-2.09l1.46.12c-.05.65-.07,1.32-.07,1.96,0,.82.04,1.67.11,2.49l-1.46.15h0ZM59.03,36.25l-1.43-.3c.27-1.46.43-2.95.46-4.43l1.46.03c-.03,1.57-.19,3.16-.48,4.7h-.01ZM4.21,40.1c-.48-1.49-.83-3.03-1.07-4.59l1.45-.23c.21,1.47.55,2.93,1.01,4.33l-1.39.49h0ZM57.19,42.24l-1.33-.63c.58-1.36,1.07-2.77,1.42-4.2l1.42.39c-.37,1.52-.88,3.02-1.5,4.45h0ZM6.77,45.78c-.79-1.34-1.48-2.76-2.04-4.21l1.36-.57c.52,1.37,1.18,2.71,1.92,3.97l-1.24.81ZM54.13,47.64l-1.17-.93c.85-1.19,1.63-2.46,2.28-3.77l1.3.71c-.69,1.38-1.5,2.72-2.41,3.98h0ZM10.49,50.71c-1.06-1.12-2.03-2.33-2.89-3.62l1.2-.89c.81,1.21,1.73,2.36,2.74,3.42l-1.04,1.08h-.01ZM50.02,52.21l-.94-1.16c1.08-.97,2.09-2.04,3-3.17l1.12.99c-.96,1.19-2.03,2.32-3.17,3.35h0ZM15.14,54.67c-1.26-.86-2.46-1.83-3.56-2.87l.98-1.14c1.05.99,2.18,1.91,3.38,2.72l-.79,1.29ZM45.09,55.77l-.7-1.35c1.25-.72,2.45-1.54,3.57-2.44l.89,1.21c-1.18.95-2.44,1.82-3.76,2.58M20.47,57.51c-1.4-.56-2.77-1.24-4.05-2.03l.72-1.33c1.23.74,2.52,1.38,3.85,1.92l-.52,1.43ZM39.57,58.19l-.42-1.47c1.36-.43,2.7-.97,3.97-1.61l.63,1.38c-1.35.68-2.75,1.26-4.18,1.71h0ZM26.25,59.14c-1.48-.25-2.95-.62-4.36-1.1l.45-1.46c1.35.45,2.75.81,4.14,1.05l-.23,1.51ZM33.79,59.38l-.23-1.52c1.49-.15,2.88-.4,4.22-.75l.35,1.49c-1.42.37-2.88.63-4.34.78M30.92,59.53c-1.06,0-2.13-.06-3.19-.18l.16-1.52c1.41.16,2.84.21,4.26.14l.06,1.53c-.43.02-.86.03-1.3.03"/>
      <path class="cls-2" d="M31.13,9.07c-.74,0-1.48.04-2.24.12-6.09.61-11.53,3.65-15.32,8.52-3.54,4.55-5.21,10.23-4.68,15.98,1.13,12.28,11.94,21.25,24.1,20.04,6.09-.61,11.53-3.65,15.32-8.52,3.54-4.56,5.21-10.23,4.68-15.98-1.06-11.52-10.64-20.14-21.86-20.14h0ZM30.75,56.9c-12.7,0-23.55-9.82-24.75-22.92-.6-6.56,1.29-13.04,5.33-18.23,4.28-5.51,10.42-8.92,17.28-9.62,13.76-1.4,25.97,8.83,27.26,22.79.6,6.56-1.29,13.04-5.33,18.23-4.29,5.51-10.43,8.93-17.29,9.62-.84.08-1.68.13-2.51.13h0Z"/>
      <path class="cls-2" d="M19.55,23.42c-.07.09-.09.21-.07.32.02.12.09.22.2.3l.45-.67c-.12-.09-.23-.12-.33-.11-.1.01-.19.06-.25.16M19.22,23.21c.17-.25.38-.39.63-.41.25-.02.54.09.84.36l-.75,1.12c.12.09.24.14.35.11.11-.01.21-.07.28-.18.05-.07.07-.15.07-.22s-.04-.16-.1-.24l.37-.38c.11.18.16.35.16.54s-.07.38-.19.55c-.2.29-.43.44-.71.44-.22,0-.43-.08-.65-.26-.26-.21-.41-.44-.46-.7-.05-.26,0-.5.15-.73"/>
      <path class="cls-2" d="M20.9,21.02c.18-.18.35-.28.5-.31.15-.03.29,0,.43.1l-.29.4c-.06-.04-.13-.06-.19-.05-.06.01-.14.05-.21.13-.09.09-.15.17-.17.24-.01.05,0,.09.03.12.03.03.06.04.09.03.06,0,.2-.08.43-.22.23-.13.42-.21.55-.22.14,0,.26.05.36.17.12.12.17.29.14.48-.02.19-.14.39-.34.59-.18.17-.37.28-.55.31-.17.03-.34,0-.5-.12l.31-.41c.08.06.16.09.24.08.08,0,.17-.05.25-.14.09-.09.15-.17.17-.26.01-.06,0-.11-.04-.15-.03-.03-.06-.05-.09-.05s-.09.02-.17.07c-.35.21-.59.33-.72.35-.18.03-.32-.03-.44-.16-.11-.12-.16-.27-.14-.45.02-.17.13-.36.32-.54h0Z"/>
      <path class="cls-2" d="M22.39,18.6l.48.64.36-.22.29.38-.36.22.54.73c.11.15.18.23.21.25.02.02.06.03.1.03s.07,0,.11-.03c.05-.03.11-.09.18-.17l.33.35c-.08.12-.2.23-.36.33-.1.06-.19.1-.29.11-.1.02-.18.01-.25,0-.07-.02-.15-.08-.22-.14-.05-.04-.15-.15-.26-.33l-.59-.78-.24.15-.29-.38.24-.15-.27-.36.33-.6-.02-.02Z"/>
      <path class="cls-2" d="M25.26,19.24c-.04.06-.12.14-.23.25-.11.11-.17.19-.19.25-.03.08-.04.17,0,.25.03.08.07.13.14.17.06.03.13.02.2-.02.08-.05.14-.13.18-.24.03-.08.04-.16.03-.25,0-.06-.03-.15-.08-.28l-.04-.12h0ZM24.59,18.25c.18-.12.34-.18.46-.18s.2.04.27.11c.07.07.15.22.24.47l.23.66c.07.19.12.32.17.4.04.08.1.16.18.24l-.42.26s-.06-.08-.1-.14c-.02-.02-.04-.05-.04-.06-.03.14-.09.26-.16.35-.06.09-.15.18-.24.24-.17.11-.32.13-.46.07-.14-.06-.24-.18-.3-.36-.04-.12-.06-.24-.05-.37,0-.12.04-.24.1-.33.06-.09.16-.21.29-.34.18-.18.3-.31.36-.4l-.02-.06c-.04-.11-.09-.18-.14-.19-.05-.02-.14,0-.26.07-.08.05-.12.11-.16.16-.03.07-.03.15-.03.27l-.41.15c-.03-.24,0-.43.06-.6.07-.17.21-.32.42-.45v.02Z"/>
      <path class="cls-2" d="M27.42,17.59c-.13.03-.23.11-.29.25-.06.13-.06.3,0,.53.05.22.13.38.22.47.13.12.28.17.43.13.12-.03.21-.11.27-.25.06-.13.06-.31,0-.55-.06-.25-.15-.41-.25-.5-.12-.09-.23-.11-.37-.08h-.01ZM26.13,16.64l.55-.15.25,1.08c.12-.25.3-.4.53-.46.25-.07.49-.02.7.12.21.15.36.4.44.76.09.37.07.68-.05.93-.12.24-.3.4-.54.46-.12.03-.24.03-.37,0-.13-.03-.25-.1-.36-.2l.07.32-.51.13-.71-2.99h-.01Z"/>
      <polygon class="cls-2" points="29.17 16.03 29.84 15.97 30.18 19.07 29.51 19.12 29.17 16.03"/>
      <path class="cls-2" d="M30.69,19.12h.51v-2.28h-.51v2.28ZM30.69,16.53h.51v-.56h-.51v.56Z"/>
      <path class="cls-2" d="M32.87,17.05c.28.04.49.11.62.22.13.11.2.25.23.43l-.53.02c0-.08-.04-.14-.1-.19-.05-.05-.15-.08-.26-.1-.15-.02-.25,0-.33.02-.04.02-.07.05-.07.1,0,.04,0,.07.04.1.04.04.21.11.49.21s.48.21.59.31c.1.11.14.25.12.41-.03.18-.13.33-.3.44-.18.11-.43.14-.75.1-.28-.04-.5-.12-.65-.25-.15-.13-.24-.29-.26-.49h.57c0,.1.04.18.12.24.06.06.16.1.29.12.15.02.25,0,.34-.03.05-.03.08-.07.09-.13,0-.04,0-.07-.02-.1-.02-.03-.08-.06-.18-.09-.43-.15-.7-.27-.81-.37-.15-.13-.21-.29-.19-.48.02-.17.11-.31.27-.41.16-.1.39-.13.69-.09h0Z"/>
      <path class="cls-2" d="M35.07,16.51l.45.19-.31,1.1c.21-.15.42-.18.61-.09.11.05.19.11.26.19.07.08.12.17.13.27.02.09.03.2.02.29,0,.1-.05.24-.1.43l-.35,1.27-.45-.19.31-1.15c.06-.23.09-.38.09-.45s-.02-.13-.05-.18c-.04-.06-.08-.09-.15-.13-.07-.03-.15-.03-.23-.02-.07.02-.14.07-.19.15-.05.08-.11.22-.15.39l-.3,1.09-.45-.19.82-2.99h.03Z"/>
      <path class="cls-2" d="M38.11,19.11c-.1-.06-.2-.07-.32-.04-.11.03-.2.11-.27.24l.7.4c.08-.13.1-.25.08-.36-.02-.11-.08-.19-.18-.24h-.01ZM38.3,18.74c.26.15.42.36.47.6.05.26-.03.56-.25.89l-1.17-.67c-.08.14-.1.26-.08.38.03.12.09.21.2.27.07.04.14.06.22.05.07-.01.15-.05.22-.12l.42.34c-.16.13-.34.2-.51.22-.18,0-.37-.04-.56-.15-.31-.18-.48-.41-.5-.69-.02-.22.04-.46.18-.68.17-.29.39-.46.63-.53.25-.07.49-.04.72.09h0Z"/>
      <path class="cls-2" d="M40.31,20.79c-.09-.08-.21-.13-.35-.11-.13.02-.26.11-.4.27-.14.17-.23.31-.25.43-.03.17,0,.31.13.41.09.09.2.12.35.1.13-.02.27-.12.42-.28.16-.18.24-.34.24-.48s-.04-.26-.13-.35h0ZM41.42,20.23l.4.38-1.9,2.18-.38-.35.2-.23c-.14.03-.28.03-.4,0-.12-.03-.22-.1-.31-.17-.17-.16-.26-.38-.25-.64,0-.27.12-.52.35-.79.23-.27.47-.42.71-.44.24-.02.46.05.64.22.17.16.25.37.24.64l.68-.79.02-.02Z"/>
      <path class="cls-2" d="M14.55,25.36c.64-1.69,1.52-3.3,2.66-4.77,2.98-3.81,7.26-6.18,12.03-6.66.58-.06,1.16-.08,1.74-.08,6.56,0,12.4,3.75,15.34,9.39l1.05-.07c-3.29-6.72-10.42-11.03-18.24-10.24-5.03.51-9.53,3-12.69,7.02-1.31,1.67-2.29,3.52-2.98,5.48l1.05-.07h.02Z"/>
      <path class="cls-2" d="M46.83,38.08c-.62,1.52-1.46,2.96-2.49,4.29-2.97,3.78-7.23,6.14-11.98,6.62-7.05.7-13.52-2.97-16.79-8.82l-1.08.07c3.1,5.91,9.24,9.84,16.13,9.84.61,0,1.22-.03,1.83-.09,5.01-.5,9.49-2.98,12.64-6.98,1.21-1.53,2.13-3.22,2.8-5l-1.06.07h0Z"/>
      <path class="cls-2" d="M26.86,40.65l.79.46-2.57,5.83-.97-.56,1.85-4.19c-.53.18-1.06.21-1.63.11l.44-1.01c.3.05.65.03,1.06-.06.42-.09.75-.28,1.03-.58h0Z"/>
      <path class="cls-2" d="M29.71,42.76c-.21-.02-.39.05-.54.23-.15.17-.25.47-.29.89-.04.43.02.75.15.97.13.21.31.33.54.35.22.02.41-.05.57-.24.16-.18.27-.45.29-.83.03-.41-.03-.74-.18-.98-.15-.25-.33-.38-.56-.4h0ZM29.85,41.71c.6.07,1.08.38,1.42.93.34.56.47,1.44.37,2.63-.09,1.21-.37,2.07-.81,2.57-.45.49-.99.72-1.64.65-.47-.04-.83-.22-1.09-.53s-.42-.74-.45-1.3l1.11-.02c0,.26.07.45.16.58.1.13.25.2.44.23.24.02.45-.07.63-.3.18-.23.33-.72.44-1.47-.31.34-.68.49-1.11.45-.47-.04-.86-.29-1.16-.73-.3-.44-.44-.98-.38-1.63.06-.68.27-1.2.67-1.58.39-.38.86-.54,1.42-.48h-.01Z"/>
      <path class="cls-2" d="M33.32,42.29c-.21.07-.36.22-.45.43-.09.23-.08.54.03.95.11.42.26.7.47.84.2.15.41.18.63.12.21-.07.37-.22.47-.45.1-.24.1-.53,0-.9-.11-.4-.27-.68-.5-.85-.22-.16-.45-.22-.66-.15h.01ZM33.11,41.26c.59-.19,1.15-.09,1.67.29.52.39.92,1.16,1.23,2.31.31,1.18.33,2.1.08,2.75-.26.65-.71,1.07-1.35,1.27-.46.15-.87.13-1.22-.05-.35-.18-.64-.52-.86-1.03l1.05-.48c.09.24.2.39.35.48.15.09.3.1.49.03.23-.07.4-.26.5-.54.1-.29.08-.81-.07-1.56-.18.45-.5.75-.91.88-.46.15-.91.07-1.35-.21-.44-.28-.74-.75-.91-1.37-.18-.66-.14-1.24.12-1.75.24-.51.64-.85,1.19-1.03h0Z"/>
      <path class="cls-2" d="M36.61,40.9c-.18.15-.28.34-.29.57,0,.24.11.53.36.86.26.34.5.53.74.58.25.05.47,0,.66-.15.18-.15.29-.35.3-.6,0-.25-.09-.53-.31-.82-.25-.32-.5-.52-.78-.57-.28-.06-.51-.02-.69.13M36.03,40.04c.51-.41,1.08-.54,1.72-.39.63.15,1.31.69,2.01,1.62.71.95,1.06,1.77,1.04,2.47-.02.7-.32,1.26-.86,1.7-.4.32-.8.47-1.2.44-.41-.02-.81-.22-1.19-.59l.86-.86c.17.18.34.28.51.3.16.02.33-.03.49-.16.2-.16.3-.39.3-.69s-.2-.76-.62-1.39c-.02.49-.21.88-.58,1.17-.4.32-.86.43-1.39.35-.53-.08-.98-.38-1.36-.89-.4-.53-.56-1.07-.5-1.64.06-.56.33-1.04.8-1.41l-.02-.02Z"/>
      <path class="cls-2" d="M24.05,35.5l-.38-4.92c-.48-.21-.95-.29-1.42-.25-.73.06-1.3.36-1.7.9-.4.54-.56,1.23-.49,2.08.06.8.3,1.4.7,1.8.25.24.5.39.76.47.26.07.72.07,1.38.02l1.14-.09h0ZM23.25,25.02l1.48-.12.9,11.79-3.14.26c-1.1.09-2-.2-2.72-.87-.71-.67-1.11-1.61-1.21-2.84-.09-1.14.19-2.11.81-2.91.62-.8,1.48-1.23,2.55-1.33.49-.04,1.04.02,1.64.2l-.32-4.18Z"/>
      <path class="cls-2" d="M27.02,35.95l-.14-1.61c.46.26.93.46,1.4.61.47.15.86.21,1.18.18.32-.02.59-.12.81-.29.22-.17.32-.36.3-.57-.02-.22-.1-.39-.27-.53-.17-.13-.5-.32-1.02-.55-1.04-.46-1.73-.87-2.07-1.23-.34-.35-.53-.75-.56-1.21-.05-.58.15-1.07.58-1.47.44-.4,1.02-.63,1.76-.69.76-.06,1.56.09,2.41.44l.12,1.48c-.96-.46-1.74-.67-2.32-.63-.3.02-.54.1-.71.24-.18.14-.25.31-.24.51.01.17.11.33.29.48.18.15.49.31.93.5l.57.26c1.36.61,2.08,1.35,2.15,2.22.05.61-.16,1.15-.62,1.58-.47.43-1.09.68-1.88.74-.47.04-.89.02-1.25-.05-.37-.07-.84-.21-1.42-.42h0Z"/>
      <polygon class="cls-2" points="42.23 27.65 43.84 27.52 41.1 35.48 40.63 35.52 37.96 30.42 36.17 35.87 35.69 35.91 31.7 28.49 33.3 28.36 35.66 32.79 37.22 28.04 38.33 27.95 40.62 32.39 42.23 27.64 42.23 27.65"/>
    </g>
  </g>
</svg>