<?xml version="1.0" encoding="UTF-8"?>
<svg id="Layer_2" data-name="Layer 2" xmlns="http://www.w3.org/2000/svg" viewBox="0 0 68.85 52">
  <defs>
    <style>
      .cls-1 {
        fill: #fff;
      }

      .cls-2 {
        fill: #1c1042;
      }
    </style>
  </defs>
  <g id="Layer_1-2" data-name="Layer 1">
    <g>
      <path class="cls-1" d="M57.71.13l-8.11,5.85c-1.01.65-1.75,1.76-2.06,3.06-.06.27-.09.54-.11.81-.84.24-1.67.37-2.52.37-1.9,0-3.76-.58-5.72-1.19-1-.31-2.04-.63-3.13-.89l-.23-.06-.2-.06-.26-.03c-.17-.02-.35-.03-.53-.03-1.51,0-2.94.67-4.03,1.87l-.15-.02c-1.48-.23-2.97-.08-4.4.07-1.95.2-3.82.39-5.62-.33-.03-.18-.04-.36-.08-.54-.3-1.26-1-2.34-1.95-3L10.75,0,0,22.01l7.56,5.72c.71.57,1.55.87,2.42.87h0c.41,0,.82-.07,1.21-.2l3.19,4.38c-1.64,2.35-1.45,5.8.49,7.96l.1.11c.93.94,2.1,1.46,3.28,1.46.13,0,.27-.02.4-.03.26.6.6,1.17,1.04,1.66l.11.11c.95.96,2.15,1.49,3.36,1.49.04,0,.08,0,.12,0,.25.64.6,1.23,1.07,1.73l.09.09c1.1,1.11,2.22,1.41,3.13,1.41.17,0,.34-.01.49-.03.22-.01.44-.07.66-.13.08.11.15.22.24.32.8.94,1.93,1.45,3.2,1.45h.32l.32-.08c.12-.03.22-.08.34-.12l.55.51.37.3c1,.67,2.01,1.01,2.99,1.01.18,0,.37-.01.55-.04,2.19-.24,4-1.86,4.83-4.05,1.48-.66,2.65-1.98,3.28-3.63,1.45-.64,2.6-1.93,3.24-3.53,2.72-.74,4.65-3.65,4.52-6.93,0-.11-.02-.21-.02-.32l3.64-5.18c.45.18.93.28,1.43.28.86,0,1.69-.28,2.4-.82l7.95-5.73L57.71.13Z"/>
      <path class="cls-2" d="M32.14,46.92c-.35,0-.77-.09-1.05-.43-.56-.6-.63-1.71-.14-2.4l2.72-3.86c.49-.69,1.39-.77,1.95-.17.56.6.63,1.71.14,2.4l-2.72,3.86c-.21.34-.56.51-.91.6"/>
      <path class="cls-2" d="M27.8,45.28c-.5.09-.93-.09-1.36-.52-.72-.78-.79-2.17-.14-3.03l3.29-4.59c.64-.87,1.79-.95,2.51-.17.71.78.79,2.17.14,3.03l-3.29,4.59c-.29.43-.72.69-1.15.69"/>
      <path class="cls-2" d="M23.37,42.06c-.57.09-1.14-.17-1.57-.6-.85-.95-1-2.58-.21-3.62l3.27-4.56c.78-1.03,2.13-1.21,2.99-.26.85.95,1,2.58.22,3.61l-3.28,4.56c-.36.52-.93.86-1.42.86"/>
      <path class="cls-2" d="M18.45,38.84c-.53.08-1.07-.16-1.47-.57-.8-.89-.93-2.43-.2-3.4l3.54-4.86c.73-.97,2-1.14,2.8-.24.8.89.93,2.43.2,3.4l-3.54,4.86c-.4.49-.87.73-1.33.81"/>
      <path class="cls-2" d="M4.02,20.9l5.25,3.98c.61.51,1.5.25,1.84-.59l6.34-13.04c.41-.76.2-1.86-.48-2.29l-5.18-3.98-7.78,15.92Z"/>
      <path class="cls-2" d="M49.63,31.56l-11.48-11.64-.78-.84-4.92,6.66c-.71,1.01-1.71,1.6-2.85,1.69h-.36c-1.07,0-2.07-.42-2.78-1.26-1.78-1.86-1.92-5.06-.43-7.17l4.2-5.74c-3.28-.51-7.48,1.52-11.83-1.01l-6.2,12.15,4.85,6.67,1.85-2.53c.64-.93,1.64-1.43,2.71-1.43.85,0,1.71.34,2.35,1.01.78.76,1.14,1.86,1.21,3.04.36-.17.78-.25,1.21-.25.86,0,1.71.34,2.35,1.01.78.84,1.21,1.94,1.21,3.12.28-.08.64-.17.93-.17.79,0,1.5.34,2.14.93.64.67,1,1.6,1.07,2.61.21-.08.5-.17.78-.17.71,0,1.36.25,1.85.84.57.59.93,1.43,1,2.28.07.93-.21,1.77-.71,2.45l-2.42,3.29,1,.93c.5.34,1.07.59,1.71.51,1.57-.17,2.71-1.77,2.56-3.63v-.08c.22.08.5.08.71.08,1.57-.17,2.71-1.77,2.57-3.63v-.08c.21.08.5.08.71.08,1.57-.17,2.71-1.77,2.57-3.63,0-.17-.07-.34-.07-.51.43.25.93.42,1.5.34,1.57-.17,2.71-1.77,2.57-3.63.07-.93-.29-1.69-.78-2.28"/>
      <path class="cls-2" d="M64.75,20.9l-5.51,3.98c-.64.51-1.58.25-1.93-.59l-6.66-13.04c-.43-.76-.22-1.86.5-2.29l5.51-3.98,8.09,15.92Z"/>
      <path class="cls-2" d="M49.99,12.56c-5.76,2.57-9.92.08-14.56-1.03-.07,0-.35-.08-.35-.08-.83-.09-1.73.26-2.36,1.11l-5.48,7.72c-1.04,1.46-.9,3.6.28,4.8.62.6,1.32.94,2.08.86.69-.09,1.39-.43,1.87-1.2l5.69-8.06,12.97,13.81c.35.43.49.6.76,1.11l4.99-7.12-5.9-11.92Z"/>
    </g>
  </g>
</svg>