<?xml version="1.0" encoding="UTF-8"?>
<svg id="Layer_2" data-name="Layer 2" xmlns="http://www.w3.org/2000/svg" viewBox="0 0 62.34 59.99">
  <defs>
    <style>
      .cls-1 {
        fill: #fff;
      }

      .cls-2 {
        fill: #1c1042;
      }
    </style>
  </defs>
  <g id="Layer_1-2" data-name="Layer 1">
    <g>
      <path class="cls-1" d="M50.61,26.87c6.61-.9,11.72-6.55,11.72-13.36,0-7.45-6.09-13.51-13.58-13.51-2.95,0-5.68.95-7.91,2.55V0h-22.28v18.43h-8.79v19.4H0v22.16h59.4v-22.16h-8.79v-10.96Z"/>
      <path class="cls-2" d="M33.33,23.42h2.89v2.87h-2.89v-2.87ZM31.17,37.76h16.61v-11.56c-3.49-.39-6.67-2.17-8.82-4.93h-7.79v16.49Z"/>
      <path class="cls-2" d="M26.45,7.85h-2.89v-2.87h2.89v2.87ZM35.84,13.59c0-2.53.75-5.01,2.17-7.12v-3.64h-16.61v16.49h15.82c-.9-1.78-1.37-3.74-1.37-5.74"/>
      <path class="cls-2" d="M17.66,26.28h-2.89v-2.87h2.89v2.87ZM29.21,21.26H12.6v16.49h16.61v-16.49Z"/>
      <path class="cls-2" d="M40.94,57.15h15.63v-16.49h-15.63v16.49ZM43.07,42.82h2.84v2.87h-2.84v-2.87Z"/>
      <path class="cls-2" d="M21.4,57.15h16.61v-16.49h-16.61v16.49ZM23.56,42.82h2.89v2.87h-2.89v-2.87Z"/>
      <path class="cls-2" d="M2.83,57.15h16.61v-16.49H2.83v16.49ZM5,42.82h2.89v2.87h-2.89v-2.87Z"/>
      <path class="cls-2" d="M46.61,18.57l-5.06-5.02,1.52-1.51,3.54,3.51,7.12-7.07,1.52,1.51-8.64,8.58ZM48.75,2.83c-5.94,0-10.75,4.78-10.75,10.67s4.81,10.67,10.75,10.67,10.75-4.78,10.75-10.67-4.81-10.67-10.75-10.67"/>
    </g>
  </g>
</svg>