<?xml version="1.0" encoding="UTF-8"?>
<svg id="Layer_2" xmlns="http://www.w3.org/2000/svg" version="1.1" viewBox="0 0 62.4 62.4">
  <!-- Generator: Adobe Illustrator 30.2.1, SVG Export Plug-In . SVG Version: 2.1.1 Build 1)  -->
  <defs>
    <style>
      .st0 {
        fill: #1c0f42;
      }

      .st1 {
        fill: #fff;
      }
    </style>
  </defs>
  <path class="st1" d="M9.9,9.3c-.4.3-.8.7-1.1,1.2v-1.2h1.1Z"/>
  <path class="st1" d="M35.9,38.3v9.5c0,3-1.1,5.7-3,7.8H8.8v-27.6c1.7-1,3.7-1.5,5.8-1.5h9.5c6.5,0,11.8,5.3,11.8,11.8Z"/>
  <path class="st1" d="M50.1,14.6v9.5c0,1.3-1.1,2.4-2.4,2.4s-2.4-1.1-2.4-2.4v-3.8l-5.4,5.4c-.9.9-2.4.9-3.3,0-.9-.9-.9-2.4,0-3.3l5.4-5.4h-3.8c-1.3,0-2.4-1.1-2.4-2.4s1.1-2.4,2.4-2.4h9.5c.3,0,.6,0,.9.2.3.1.5.3.8.5.2.2.4.5.5.8.1.3.2.6.2.9Z"/>
  <path class="st1" d="M56.1,9.3v46.3h-15c.4-.4,1-.7,1.7-.7h5c3.9,0,7.1-3.2,7.1-7.1V14.6c0-2.1-.9-4-2.4-5.3h3.6Z"/>
  <g>
    <path class="st1" d="M50,13.7c-.1-.3-.3-.5-.5-.8-.2-.2-.5-.4-.8-.5-.3-.1-.6-.2-.9-.2h-9.5c-1.3,0-2.4,1.1-2.4,2.4s1.1,2.4,2.4,2.4h3.8l-5.4,5.4c-.9.9-.9,2.4,0,3.3.9.9,2.4.9,3.3,0l5.4-5.4v3.8c0,1.3,1.1,2.4,2.4,2.4s2.4-1.1,2.4-2.4v-9.5c0-.3,0-.6-.2-.9ZM47.8,2.7H14.6c-6.5,0-11.9,5.3-11.9,11.8v5c0,1.3,1,2.4,2.4,2.4s2.4-1.1,2.4-2.4v-5c0-1.5.5-3,1.4-4.1.3-.4.7-.8,1.1-1.2,1.3-1.1,2.9-1.8,4.7-1.8h33.2c1.8,0,3.4.7,4.7,1.8,1.5,1.3,2.4,3.2,2.4,5.3v33.2c0,3.9-3.2,7.1-7.1,7.1h-5c-.7,0-1.2.3-1.7.7-.4.4-.7,1-.7,1.7,0,1.3,1.1,2.4,2.4,2.4h5c6.5,0,11.8-5.3,11.8-11.8V14.6c0-6.5-5.3-11.8-11.8-11.8Z"/>
    <path class="st1" d="M47.8,0H14.6C6.5,0,0,6.6,0,14.6v5c0,2.8,2.3,5.1,5.1,5.1s2.8-.6,3.7-1.6v1.9C3.6,27.1,0,32.3,0,38.3v9.5c0,8,6.5,14.6,14.6,14.6h9.5c5.2,0,9.7-2.7,12.3-6.8h1.6c-.2.5-.3,1.1-.3,1.7,0,2.8,2.3,5.1,5.1,5.1h5c8,0,14.6-6.5,14.6-14.6V14.6C62.4,6.6,55.8,0,47.8,0ZM35.9,47.8c0,3-1.1,5.7-3,7.8-2.2,2.5-5.4,4-8.9,4h-9.5c-6.5,0-11.9-5.3-11.9-11.8v-9.5c0-4.4,2.5-8.3,6.1-10.3,1.7-1,3.7-1.5,5.8-1.5h9.5c6.5,0,11.8,5.3,11.8,11.8v9.5ZM36.6,25.7c-.9-.9-.9-2.4,0-3.3l5.4-5.4h-3.8c-1.3,0-2.4-1.1-2.4-2.4s1.1-2.4,2.4-2.4h9.5c.3,0,.6,0,.9.2.3.1.5.3.8.5.2.2.4.5.5.8.1.3.2.6.2.9v9.5c0,1.3-1.1,2.4-2.4,2.4s-2.4-1.1-2.4-2.4v-3.8l-5.4,5.4c-.9.9-2.4.9-3.3,0ZM59.6,47.8c0,6.5-5.3,11.8-11.8,11.8h-5c-1.3,0-2.4-1-2.4-2.4s.3-1.2.7-1.7c.4-.4,1-.7,1.7-.7h5c3.9,0,7.1-3.2,7.1-7.1V14.6c0-2.1-.9-4-2.4-5.3-1.3-1.1-2.9-1.8-4.7-1.8H14.6c-1.8,0-3.4.7-4.7,1.8-.4.3-.8.7-1.1,1.2-.9,1.2-1.4,2.6-1.4,4.1v5c0,1.3-1.1,2.4-2.4,2.4s-2.4-1.1-2.4-2.4v-5c0-6.5,5.3-11.8,11.9-11.8h33.2c6.5,0,11.8,5.3,11.8,11.8v33.2Z"/>
    <path class="st1" d="M35.9,38.3v9.5c0,3-1.1,5.7-3,7.8-2.2,2.5-5.4,4-8.9,4h-9.5c-6.5,0-11.9-5.3-11.9-11.8v-9.5c0-4.4,2.5-8.3,6.1-10.3,1.7-1,3.7-1.5,5.8-1.5h9.5c6.5,0,11.8,5.3,11.8,11.8Z"/>
    <path class="st0" d="M24.1,26.5h-9.5c-2.1,0-4.1.5-5.8,1.5-3.6,2-6.1,5.9-6.1,10.3v9.5c0,6.5,5.3,11.8,11.9,11.8h9.5c3.5,0,6.7-1.6,8.9-4,1.8-2.1,3-4.8,3-7.8v-9.5c0-6.5-5.3-11.8-11.8-11.8ZM7.5,38.3c0-1.5.5-3,1.4-4.1,1.3-1.8,3.4-3,5.8-3h9.5c3.9,0,7.1,3.2,7.1,7.1v9.5c0,3.9-3.2,7.1-7.1,7.1h-9.5c-2.4,0-4.5-1.2-5.8-3-.9-1.2-1.4-2.6-1.4-4.1v-9.5ZM47.8,2.7H14.6c-6.5,0-11.9,5.3-11.9,11.8v5c0,1.3,1,2.4,2.4,2.4s2.4-1.1,2.4-2.4v-5c0-1.5.5-3,1.4-4.1.3-.4.7-.8,1.1-1.2,1.3-1.1,2.9-1.8,4.7-1.8h33.2c1.8,0,3.4.7,4.7,1.8,1.5,1.3,2.4,3.2,2.4,5.3v33.2c0,3.9-3.2,7.1-7.1,7.1h-5c-.7,0-1.2.3-1.7.7-.4.4-.7,1-.7,1.7,0,1.3,1.1,2.4,2.4,2.4h5c6.5,0,11.8-5.3,11.8-11.8V14.6c0-6.5-5.3-11.8-11.8-11.8ZM50,13.7c-.1-.3-.3-.5-.5-.8-.2-.2-.5-.4-.8-.5-.3-.1-.6-.2-.9-.2h-9.5c-1.3,0-2.4,1.1-2.4,2.4s1.1,2.4,2.4,2.4h3.8l-5.4,5.4c-.9.9-.9,2.4,0,3.3.9.9,2.4.9,3.3,0l5.4-5.4v3.8c0,1.3,1.1,2.4,2.4,2.4s2.4-1.1,2.4-2.4v-9.5c0-.3,0-.6-.2-.9Z"/>
  </g>
</svg>