<?xml version="1.0" encoding="UTF-8"?>
<svg id="Layer_2" xmlns="http://www.w3.org/2000/svg" version="1.1" viewBox="0 0 150 150">
  <!-- Generator: Adobe Illustrator 30.2.1, SVG Export Plug-In . SVG Version: 2.1.1 Build 1)  -->
  <defs>
    <style>
      .st0 {
        fill: #fff;
        fill-rule: evenodd;
      }

      .st1 {
        fill: #e3097e;
      }
    </style>
  </defs>
  <g id="Layer_1-2">
    <g>
      <path class="st0" d="M142.3,42c-7-14.4-18.4-26.1-32.5-33.5C73.1-10.6,27.8,3.5,8.6,40.2.2,56.2-2.2,74.8,2.1,92.3l1.8-.4C-.3,74.8,2,56.7,10.2,41,29,5.3,73.2-8.6,109,10.2c35.8,18.8,49.6,63,30.9,98.8-15.3,29.2-48.3,44.6-80.5,37.5l-.2,1.8c33,7.1,66.7-8.6,82.4-38.5,10.8-20.6,11.4-44.9,1.7-66"/>
      <path class="st1" d="M75.8,20v10c24.5.4,44.2,20.4,44.2,45s-20.2,45-45,45-45-20.2-45-45,9.2-31.3,22.7-39v-11.2c-19.2,8.6-32.7,27.9-32.7,50.2s24.7,55,55,55,55-24.7,55-55-24.2-54.6-54.2-55Z"/>
    </g>
  </g>
</svg>