<?xml version="1.0" encoding="UTF-8"?>
<svg id="Layer_2" data-name="Layer 2" xmlns="http://www.w3.org/2000/svg" viewBox="0 0 77.83 77">
  <defs>
    <style>
      .cls-1 {
        fill: #fff;
      }

      .cls-2 {
        fill: #e3097e;
      }
    </style>
  </defs>
  <g id="Layer_1-2" data-name="Layer 1">
    <g>
      <path class="cls-1" d="M73.85,21.57c-3.62-7.37-9.54-13.39-16.88-17.18C37.93-5.45,14.43,1.82,4.44,20.64.08,28.86-1.12,38.37,1.07,47.4l.92-.21c-2.14-8.81-.97-18.1,3.29-26.13C15.02,2.7,37.96-4.39,56.54,5.21c18.56,9.64,25.73,32.34,16.02,50.72-7.96,14.99-25.06,22.88-41.79,19.27l-.12.93c17.12,3.65,34.6-4.43,42.74-19.77,5.59-10.55,5.91-23.07.88-33.9"/>
      <path class="cls-2" d="M58.98,17.93h0c-5.64-5.33-13.24-8.2-21.08-7.98l.14,5.01c6.46-.18,12.73,2.19,17.38,6.58,9.56,9.04,9.83,23.95.62,33.32-9.24,9.35-24.47,9.62-34.04.6-9.56-9.04-9.83-23.95-.62-33.32,1.29-1.31,2.74-2.47,4.3-3.45l-2.44-4.43c-1.81,1.1-3.5,2.4-5.02,3.87-.18.17-.36.35-.53.52s-.35.36-.51.54c-10.67,11.44-10.12,29.11,1.27,39.88,11.41,10.74,29.46,10.64,40.75-.21.18-.17.36-.35.53-.52.17-.17.35-.36.52-.54,10.68-11.43,10.12-29.11-1.26-39.88"/>
    </g>
  </g>
</svg>