<?xml version="1.0" encoding="UTF-8"?>
<svg id="Layer_2" data-name="Layer 2" xmlns="http://www.w3.org/2000/svg" viewBox="0 0 78.24 77">
  <defs>
    <style>
      .cls-1 {
        fill: #fff;
      }

      .cls-2 {
        fill: #e3097e;
      }
    </style>
  </defs>
  <g id="Layer_1-2" data-name="Layer 1">
    <g>
      <path class="cls-1" d="M74.25,21.57c-3.64-7.37-9.59-13.39-16.97-17.18C38.13-5.45,14.5,1.82,4.46,20.64.08,28.86-1.13,38.37,1.07,47.4l.92-.21c-2.15-8.81-.98-18.1,3.31-26.13C15.1,2.7,38.16-4.39,56.84,5.21c18.66,9.64,25.87,32.34,16.11,50.72-8,14.99-25.2,22.87-42.01,19.26l-.12.93c17.21,3.65,34.79-4.43,42.97-19.77,5.61-10.55,5.94-23.07.89-33.9"/>
      <path class="cls-2" d="M58.98,17.93c-5.64-5.33-13.24-8.21-21.07-7.98h0s.14,5.02.14,5.02c6.46-.18,12.72,2.19,17.37,6.58,9.55,9.04,9.83,23.94.61,33.31-9.24,9.35-24.46,9.62-34.04.6-9.55-9.04-9.83-23.94-.62-33.32,2.44-2.48,5.4-4.38,8.66-5.61l-2.11-4.59c-3.62,1.4-6.93,3.5-9.72,6.19-.18.17-.36.35-.53.52-.17.18-.34.36-.51.54-10.67,11.43-10.11,29.11,1.27,39.87,11.4,10.74,29.47,10.65,40.76-.21.18-.17.35-.35.53-.53.17-.18.35-.36.51-.54,10.68-11.44,10.11-29.11-1.27-39.87"/>
    </g>
  </g>
</svg>