<?xml version="1.0" encoding="UTF-8"?>
<svg id="Layer_2" data-name="Layer 2" xmlns="http://www.w3.org/2000/svg" viewBox="0 0 78.24 77">
  <defs>
    <style>
      .cls-1 {
        fill: #fff;
      }

      .cls-2 {
        fill: #e3097e;
      }
    </style>
  </defs>
  <g id="Layer_1-2" data-name="Layer 1">
    <g>
      <path class="cls-2" d="M37.9,9.95l.14,5.01c6.46-.18,12.73,2.19,17.37,6.58,9.55,9.04,9.83,23.94.61,33.31-9.24,9.35-24.46,9.62-34.04.6-9.55-9.04-9.83-23.94-.61-33.31,3.04-3.09,6.89-5.31,11.13-6.4l-1.32-4.85c-4.9,1.26-9.37,3.76-12.98,7.24-.18.17-.36.35-.53.52-.17.18-.35.36-.52.54-10.67,11.43-10.11,29.11,1.27,39.87,11.4,10.74,29.47,10.65,40.76-.21.18-.17.35-.35.53-.52.18-.18.35-.36.52-.54,10.67-11.44,10.11-29.11-1.27-39.87-5.64-5.33-13.24-8.21-21.07-7.98"/>
      <path class="cls-1" d="M74.25,21.57c-3.64-7.37-9.59-13.39-16.97-17.18C38.13-5.45,14.5,1.82,4.46,20.64.08,28.86-1.13,38.37,1.07,47.4l.92-.21c-2.15-8.81-.98-18.1,3.31-26.13C15.1,2.7,38.16-4.39,56.84,5.21c18.66,9.64,25.87,32.34,16.11,50.72-8,14.99-25.2,22.87-42.01,19.26l-.12.93c17.21,3.65,34.79-4.43,42.97-19.77,5.61-10.55,5.94-23.07.89-33.9"/>
    </g>
  </g>
</svg>