<?xml version="1.0" encoding="UTF-8"?>
<svg id="Layer_2" data-name="Layer 2" xmlns="http://www.w3.org/2000/svg" viewBox="0 0 102.42 112.5">
  <defs>
    <style>
      .cls-1 {
        fill: #1c0f41;
      }

      .cls-2 {
        fill: #fff;
      }

      .cls-3 {
        fill: #e3097e;
      }

      .cls-4 {
        fill: #493e5a;
      }
    </style>
  </defs>
  <g id="Layer_1-2" data-name="Layer 1">
    <g>
      <path class="cls-3" d="M102.42,61.44H0v-31.45l.25-.14L51.98,0l.25.15,50.19,29.85v31.45ZM1,60.44h100.42v-29.88L51.97,1.16,1,30.57v29.87Z"/>
      <polygon class="cls-1" points="7.25 35.05 7.25 86.51 51.88 112.5 95.17 86.51 95.17 35.05 51.88 9.32 7.25 35.05"/>
      <polygon class="cls-4" points="51.88 9.32 95.17 35.05 7.25 86.52 7.25 35.05 51.88 9.32"/>
      <g>
        <path class="cls-2" d="M44.61,74.98c-1.15-3.54-2.29-7.08-3.48-10.73.49.15.84.27,1.2.36.58.15,1.03-.06,1.18-.54.14-.47-.15-.88-.71-1.09-.71-.27-1.42-.56-2.1-.89-.19-.09-.35-.33-.43-.53-.24-.64-.44-1.31-.67-2.02,1.5-.4,1.49-1.59,1.42-2.86,2.44.95,4.82,1,7.27,0-.04,1.24-.1,2.46,1.43,2.85-.24.75-.45,1.46-.7,2.16-.06.16-.21.32-.36.39-.67.31-1.35.62-2.05.88-.61.23-.92.6-.79,1.08.14.52.6.71,1.27.53.34-.09.67-.19,1.11-.32-1.17,3.62-2.32,7.16-3.46,10.7-.04,0-.09.02-.13.02M43.83,83.48h-12.24v-.62c0-4.47,0-8.94,0-13.42,0-.19,0-.38-.01-.56-.05-.45-.3-.72-.76-.75-.46-.03-.76.2-.86.63-.05.21-.04.45-.04.67,0,4.47,0,8.94,0,13.42v.68c-.67,0-1.3,0-1.92,0-.78,0-1.57,0-2.35,0-.56,0-.77-.22-.78-.78,0-.39,0-.79,0-1.18,0-3.8.05-7.6-.01-11.4-.06-3.33,2.14-5.86,4.54-6.66,1.85-.61,3.65-1.4,5.59-2.15-.11.57-.2,1.05-.3,1.53-.18.84-.37,1.68-.53,2.52-.17.9.13,1.52.93,1.96.8.44,1.6.87,2.43,1.31-.18.62-.34,1.22-.53,1.8-.29.88-.08,1.59.62,2.21,1.97,1.74,3.93,3.51,5.88,5.28.16.15.35.38.35.58.03,1.63.02,3.25.02,4.93M38.07,67.07c-.64-.35-1.27-.71-1.93-1.02-.31-.15-.38-.34-.31-.66.32-1.46.62-2.92.96-4.38.05-.2.27-.4.46-.53.21-.14.48-.2.8-.32,1.61,4.98,3.21,9.91,4.84,14.96-.21-.17-.34-.25-.45-.36-1.21-1.08-2.42-2.17-3.64-3.25-.23-.2-.3-.37-.19-.67.17-.47.29-.96.43-1.45.31-1.1.03-1.79-.97-2.33M43.84,55.7c-3.41-.38-6.19-3.29-6.3-6.78-.04-1.53.62-2.7,1.97-3.46,2.02-1.14,3.84-2.52,5.3-4.34.96-1.19,1.67-2.51,2.15-4.09,1.07,2.18,2.44,3.96,3.94,5.66.44.5.81,1.25.83,1.89.07,1.88.16,3.8-.16,5.64-.58,3.3-3.85,5.9-7.73,5.47M30.49,55.27c-1.56-1.72-1.53-4.06.04-5.79.72-.79,1.07-1.69,1.03-2.75-.04-1.18.42-2.11,1.38-2.78,1.09-.77,1.62-1.82,1.58-3.16-.05-1.71.09-3.39.74-5.01,1.67-4.14,5.98-6.8,10.29-6.33,4.65.5,8.37,3.92,9.1,8.43.15.95.19,1.94.18,2.9,0,1.34.48,2.39,1.58,3.16.95.67,1.43,1.6,1.39,2.78-.04,1.08.33,2,1.06,2.8,1.54,1.69,1.56,4.04.02,5.74-.76.84-1.15,1.77-1.08,2.9.05.78-.2,1.48-.71,2.07-.11.12-.4.2-.55.14-2.06-.77-4.11-1.58-6.16-2.37-.28-.11-.43-.26-.39-.57.03-.22,0-.45,0-.81-.17-.61.16-1.08.71-1.59,1.62-1.48,2.59-3.35,2.72-5.55.1-1.68.07-3.36.01-5.04-.04-1.16-.54-2.18-1.34-3.01-1.63-1.68-2.91-3.59-3.9-5.71-.35-.74-.82-1.02-1.49-.94-.66.07-1.08.51-1.25,1.31-.57,2.6-2.14,4.53-4.15,6.15-.71.57-1.46,1.11-2.26,1.54-2.65,1.4-3.67,3.83-2.95,6.92.44,1.88,1.4,3.46,2.89,4.68.3.25.39.49.39.85,0,1.61,0,1.6-1.48,2.18-1.65.64-3.3,1.27-4.94,1.94-.37.15-.57.07-.78-.23-.41-.59-.65-1.22-.6-1.94.07-1.13-.31-2.06-1.07-2.9M53.25,66.03c-.7.35-1.39.72-2.07,1.1-.85.47-1.15,1.18-.9,2.12.15.56.33,1.11.47,1.67.04.15.01.39-.08.48-1.35,1.23-2.71,2.45-4.08,3.67-.03-.02-.05-.05-.08-.07,1.6-4.93,3.19-9.86,4.8-14.83.35.13.67.23.97.38.12.06.24.23.27.37.34,1.51.66,3.03.99,4.54.06.28,0,.44-.28.57M65.86,79.8h.33c0-.86-.01-1.72-.02-2.57,0-.69-.79-1.08-1.28-.65-.22.19-.36.57-.36.87-.03,1.74-.02,3.48-.01,5.22,0,.44-.1.84-.6.85-1.47.03-2.94.01-4.46.01v-.71c0-4.47,0-8.94,0-13.42,0-.26-.01-.53-.09-.77-.13-.38-.45-.54-.85-.49-.4.04-.65.28-.71.67-.03.2-.02.41-.02.62,0,4.47,0,8.94,0,13.42v.65h-12.24c0-1.68-.01-3.33.02-4.97,0-.18.18-.39.34-.53,1.93-1.74,3.85-3.49,5.8-5.2.77-.67,1.03-1.42.69-2.39-.2-.56-.33-1.13-.5-1.71.85-.46,1.66-.88,2.46-1.32.76-.43,1.05-1.06.9-1.93-.09-.5-.21-.99-.31-1.48-.17-.83-.35-1.67-.54-2.59,2.07.8,4.04,1.54,5.99,2.33,2.3.93,3.67,2.7,4.01,5.12.2,1.41.09,2.87.12,4.31.01.65.32,1.03.85,1.02.5,0,.82-.38.83-.99,0-1.2.02-2.4,0-3.59-.09-3.33-2.18-6.27-5.27-7.47-.78-.3-1.56-.61-2.37-.93.59-.89,1-1.82.93-2.87-.05-.81.22-1.42.76-2.02,1.95-2.2,1.97-5.53.04-7.69-.56-.63-.81-1.29-.79-2.13.03-1.36-.45-2.63-1.54-3.4-.19-.13-.35-.27-.5-.41h-1.69v-1.65c.28,0,.54,0,.8,0-.06-.37-.06-.77-.01-1.21,0-.06,0-.11,0-.17-.11-5.16-3.09-9.38-7.91-11.14-.97-.35-2.02-.5-3.03-.74h-2.13c-.11.03-.21.08-.32.1-4.56.69-7.67,3.24-9.47,7.45-.76,1.78-.87,3.66-.82,5.56.02.71-.21,1.28-.8,1.69-1.5,1.04-2.18,2.48-2.18,4.31,0,.48-.2,1.08-.52,1.41-2.2,2.31-2.23,5.98.03,8.33.28.29.5.79.49,1.19-.01,1.22.22,2.34.98,3.38-.68.27-1.31.55-1.96.76-3.46,1.11-5.8,4.47-5.73,8.36.08,4,.05,8.01,0,12.01-.02,1.42.44,2.42,1.81,2.93h39.43c.95-.39,1.73-1,1.76-2.09.02-.53.03-1.05.03-1.58h-.32v-1.74Z"/>
        <path class="cls-2" d="M80.63,43.79c0-.24,0-.48-.05-.71-.27-1.29-1.33-2.09-2.78-2.09-2.21,0-4.42,0-6.63,0-.51.11-.82.58-.73,1,.07.32.36.59.73.65,3.3.08,5.62,0,6.63,0,1.06,0,1.28.22,1.28,1.3,0,11.45,0,22.9,0,34.35,0,1.05-.48,1.58-1.49,1.53-1.53-.08-3.07-.02-11.4-.02h-.33v1.74h.32c8.42,0,10.05,0,11.68,0,1.72,0,2.77-1.05,2.77-2.78,0-11.65,0-23.31,0-34.96"/>
        <path class="cls-2" d="M55.72,42.64h11.1c.47-.04.82-.46.78-.89-.03-.39-.36-.72-.78-.75-1.29-.01-2.35,0-10.3,0-.26,0-.53,0-.8,0v1.65Z"/>
        <path class="cls-2" d="M72.01,48.44c.55.01,1.1,0,1.65,0s1.14,0,1.7,0c.59-.01.93-.33.93-.85,0-.52-.33-.87-.92-.88-1.14-.02-2.27-.02-3.41,0-.58.01-.9.39-.87.91.02.51.34.8.91.81"/>
        <path class="cls-2" d="M71.1,54.56c.03.51.34.8.91.81.55.01,1.1,0,1.65,0s1.14.01,1.7,0c.59-.01.93-.33.93-.85,0-.5-.32-.86-.86-.87-1.15-.03-2.31-.03-3.46,0-.58.01-.9.39-.87.91"/>
        <path class="cls-2" d="M72.02,62.3c.55.01,1.1,0,1.65,0s1.14,0,1.7,0c.59-.01.93-.33.93-.86,0-.5-.32-.86-.87-.87-1.15-.02-2.31-.02-3.46,0-.55,0-.87.35-.87.86,0,.53.33.85.92.86"/>
        <path class="cls-2" d="M71.97,69.13c.57.02,1.13,0,1.7,0,.57,0,1.14.01,1.7,0,.59-.01.93-.33.92-.85,0-.5-.32-.84-.87-.85-1.15-.02-2.31-.02-3.46,0-.56,0-.87.35-.87.85,0,.51.32.83.87.85"/>
        <path class="cls-2" d="M65.86,62.3c.29.02.59,0,.88,0,.31,0,.62.02.93,0,.51-.03.83-.37.82-.85-.01-.48-.26-.83-.75-.86-.66-.04-1.32-.04-1.97,0-.49.03-.73.38-.74.86,0,.48.32.81.83.84"/>
        <path class="cls-2" d="M65.79,55.36c.33.03.66,0,.99,0h0c.33,0,.66.02.99-.01.44-.05.69-.34.72-.77.03-.42-.13-.83-.57-.87-.76-.07-1.53-.06-2.29,0-.45.04-.63.42-.6.85.03.46.29.75.76.79"/>
        <path class="cls-2" d="M67.71,46.73c-.62-.04-1.25-.04-1.87,0-.51.03-.8.39-.79.88.01.49.32.81.83.84.27.02.55,0,.82,0,.31,0,.62.01.93,0,.52-.03.83-.34.85-.82.02-.47-.28-.86-.78-.89"/>
      </g>
    </g>
  </g>
</svg>