<?xml version="1.0" encoding="UTF-8"?>
<svg id="Layer_2" data-name="Layer 2" xmlns="http://www.w3.org/2000/svg" viewBox="0 0 102.42 112.5">
  <defs>
    <style>
      .cls-1 {
        fill: #1c0f41;
      }

      .cls-2 {
        fill: #fff;
      }

      .cls-3 {
        fill: #e3097e;
      }

      .cls-4 {
        fill: #493e5a;
      }
    </style>
  </defs>
  <g id="Layer_1-2" data-name="Layer 1">
    <g>
      <path class="cls-3" d="M50.44,112.5l-.25-.15L0,82.5v-31.45h102.42v31.45l-.25.14-51.73,29.85ZM1,81.93l49.45,29.41,50.97-29.41v-29.87H1v29.88Z"/>
      <polygon class="cls-1" points="50.55 0 7.25 25.98 7.25 77.45 50.55 103.18 95.17 77.45 95.17 25.98 50.55 0"/>
      <polygon class="cls-4" points="50.55 103.18 7.25 77.45 95.17 25.98 95.17 77.45 50.55 103.18"/>
      <path class="cls-2" d="M69.84,32.46c.1-.02.14-.02.16-.04,1.26-1.25,2.52-2.5,3.77-3.76.09-.1.17-.27.15-.4-.18-1.31-.37-2.61-.57-3.92-.09.02-.14.01-.16.04-1.26,1.25-2.52,2.5-3.76,3.77-.11.11-.16.34-.13.51.17,1.26.35,2.52.54,3.81M79.52,30.37c-1.38-.2-2.6-.35-3.81-.55-.35-.06-.57.02-.81.26-1.11,1.13-2.23,2.24-3.35,3.37-.11.11-.21.25-.36.42,1.38.2,2.67.4,3.96.57.13.02.31-.04.41-.13,1.29-1.27,2.57-2.55,3.96-3.94M68.09,34.83c-1.4,1.18-2.92,2.45-4.44,3.73-2.88,2.42-5.76,4.85-8.64,7.27-.62.52-.99,1.13-.9,1.95.09.87.58,1.48,1.4,1.74.95.3,1.73-.03,2.36-.79,3.62-4.32,7.25-8.63,10.88-12.95.09-.11.17-.24.26-.35l-.19.12c-.23-.23-.45-.45-.73-.73M62.92,36.82c1.45-1.22,3.02-2.54,4.6-3.87.62-.52.57-1.79-.09-2.27-3.05-2.25-6.42-3.84-10.13-4.61-1.58-.33-3.19-.48-4.87-.73v.72c0,2.2.02,4.4-.01,6.6,0,.51.15.65.64.68,1.76.1,3.49.45,5.11,1.15,1.58.69,3.1,1.52,4.75,2.33M66.77,40.95c2.24,3.08,3.44,6.53,3.67,10.29h7.82c-.05-.74-.07-1.44-.15-2.12-.57-4.63-2.2-8.84-4.91-12.64-.54-.75-1.25-.61-1.93-.75-.08-.01-.2.1-.27.18-1.41,1.67-2.81,3.34-4.23,5.03M53.21,45.02c-3.17-.82-6.57.71-8.16,3.62-1.6,2.92-1,6.68,1.42,8.92,2.55,2.36,6.25,2.68,9.13.79,2.57-1.69,3.97-5.22,3.07-7.79-.04,0-.08,0-.11.02-1.31.96-2.7,1.12-4.2.44-.13-.06-.41.03-.53.14-.51.47-.99.98-1.48,1.46-.53.52-1.07.58-1.46.17-.38-.4-.33-.91.17-1.42.49-.5.99-.97,1.46-1.48.12-.13.23-.4.17-.52-.72-1.54-.51-2.96.5-4.34M24.87,53.11c.24,14.48,12.81,25.8,25.75,25.73v-7.74c-4.85-.31-9.04-2.13-12.46-5.56-3.42-3.43-5.22-7.62-5.53-12.43h-7.77ZM52.46,78.93c7.13-.35,13.22-2.97,18.19-8.05,4.81-4.92,7.3-10.87,7.62-17.76-.16-.02-.23-.04-.31-.04-2.36,0-4.71,0-7.07-.01-.45,0-.49.23-.51.57-.17,2.76-.96,5.35-2.32,7.75-.48.86-1.06,1.66-1.63,2.46-.34.47-.87.54-1.27.24-.39-.28-.47-.78-.2-1.24.11-.18.24-.35.36-.52,3.6-5.1,4.28-10.6,2.13-16.43-.45-1.22-1.17-2.35-1.81-3.61-1.86,2.21-3.61,4.28-5.32,6.36-.12.15-.09.5-.02.73,1,3.51.31,6.67-2.25,9.25-2.58,2.6-5.76,3.39-9.27,2.31-4.59-1.41-7.27-6.15-6.21-10.77,1.09-4.74,5.59-7.8,10.39-7.07.69.1,1.44.47,2.03.3.65-.19,1.15-.88,1.71-1.35,1.54-1.29,3.07-2.58,4.62-3.89-.13-.09-.21-.17-.31-.23-6-3.73-12.08-3.86-18.25-.44-.66.36-1.22.89-1.88,1.24-.27.14-.74.14-1.01,0-.22-.11-.4-.55-.37-.81.03-.27.3-.57.54-.76,2.97-2.28,6.32-3.58,10.07-3.83.38-.02.53-.14.53-.55-.02-2.32,0-4.64-.01-6.95,0-.11-.03-.22-.06-.4-7.91.43-14.47,3.58-19.58,9.62-3.94,4.66-5.95,10.09-6.2,16.2h7.79c.03-.23.07-.42.08-.61.14-2.12.61-4.17,1.54-6.08.67-1.36,1.51-2.64,2.32-3.92.33-.52.88-.6,1.3-.29.42.31.48.82.14,1.34-.14.21-.3.41-.43.61-3.88,5.82-4.28,11.93-1.01,18.07,3.65,6.88,11.33,10.2,18.91,8.48,2.41-.55,4.57-1.62,6.53-3.1.53-.4,1.07-.33,1.38.1.31.43.19.95-.33,1.35-2.1,1.6-4.41,2.77-6.99,3.35-1.18.26-2.38.42-3.6.64v7.75ZM73.74,21.39h.58c.61.41.59,1.07.69,1.69.18,1.21.35,2.43.53,3.64.1,0,.15,0,.17-.01.32-.31.63-.62.95-.93.49-.46,1-.51,1.39-.14.4.38.35.92-.13,1.43-.32.34-.66.67-1.07,1.08,1.54.23,2.95.45,4.36.64.46.06.88.16,1.06.66.18.51-.12.84-.44,1.16-1.61,1.61-3.22,3.22-4.83,4.83-.45.45-.84,1.02-1.68.88.19.31.3.51.42.7,3.03,4.8,4.46,10.07,4.35,15.72-.13,6.47-2.15,12.31-6.29,17.29-6.82,8.21-15.63,11.7-26.21,10.41-6.25-.76-11.62-3.53-16.1-7.96-4.29-4.25-7-9.36-8.04-15.33-.19-1.1-.3-2.21-.45-3.31v-3.36c.03-.17.08-.33.1-.5.2-1.33.31-2.69.6-4,2.6-12.05,12.96-21.19,25.22-22.24,6.38-.55,12.34.82,17.79,4.25.2.13.41.25.49.3.3-.47.49-.93.82-1.27,1.66-1.7,3.34-3.37,5.03-5.04.22-.22.47-.39.71-.58"/>
    </g>
  </g>
</svg>