<?xml version="1.0" encoding="UTF-8"?>
<svg id="Layer_2" data-name="Layer 2" xmlns="http://www.w3.org/2000/svg" viewBox="0 0 174.21 43.61">
  <defs>
    <style>
      .cls-1 {
        fill: #fcd8c0;
      }

      .cls-2 {
        fill: #feca29;
      }

      .cls-3 {
        fill: #f8bb95;
      }

      .cls-4 {
        fill: #fbccaf;
      }

      .cls-5 {
        fill: #ed6b2f;
      }

      .cls-6 {
        fill: #ed6d30;
      }

      .cls-7 {
        fill: #f6ac80;
      }

      .cls-8 {
        fill: #ed6c30;
      }

      .cls-9 {
        fill: #f7b48c;
      }

      .cls-10 {
        fill: #f39460;
      }

      .cls-11 {
        fill: #facaac;
      }

      .cls-12 {
        fill: #f9c19f;
      }

      .cls-13 {
        fill: #ffde89;
      }
    </style>
  </defs>
  <g id="Layer_1-2" data-name="Layer 1">
    <g>
      <path class="cls-8" d="M42.83,30.55c-.05.06-.1.1-.12.14-.77,1.37-1.99,2.13-3.48,2.49-1.26.31-2.51.26-3.75-.09-1.14-.32-2-1.01-2.53-2.09-.05-.11-.11-.21-.18-.36-.13.08-.24.14-.34.21-.62.45-1.23.92-1.87,1.36-.68.47-1.38.89-2.21,1.04-3.65.66-6.36-1.63-6.76-4.71-.1-.8-.03-1.57.23-2.33.24-.71.67-1.24,1.32-1.64,1.23-.76,2.59-1.23,3.94-1.72,1.75-.64,3.51-1.23,5.27-1.85.11-.04.22-.08.36-.13.09-1.41.21-2.82-.21-4.21-.6-2.03-2.26-3.09-4.36-2.78-.49.07-.98.17-1.46.29-.48.11-.48.13-.52.6-.04.48-.06.96-.12,1.43-.14,1.29-.28,2.58-.44,3.87-.09.75-.26.81-.85.36-1.33-1.01-2.42-2.21-3.07-3.78-.03-.06-.04-.13-.07-.19.03-.05.05-.1.09-.13,2.17-1.67,4.48-3.07,7.09-3.95,1.47-.49,2.98-.63,4.5-.28,2.63.62,4.19,2.32,4.84,4.89.15.59.21,1.22.21,1.83,0,2.29-.07,4.58-.07,6.88,0,.89.11,1.77.18,2.66.04.52.32.89.83,1.07.5.17.9-.03,1.25-.37.37-.35.6-.78.79-1.24.41-1.01.63-2.07.71-3.14.1-1.4.17-2.8.18-4.2.03-4.6.03-9.21.03-13.81,0-1.32-.05-2.63-.05-3.95,0-1.2-.1-1.1,1.02-1.52,1.45-.56,2.96-.96,4.5-1.19.1-.01.2-.01.36-.02-.05,4.66-.11,9.31-.16,14.02.17-.08.29-.13.4-.19.74-.39,1.48-.78,2.23-1.16,1.64-.85,3.34-.92,5.08-.42,3.88,1.1,6.22,3.65,6.96,7.6.49,2.62.21,5.2-.99,7.6-1.55,3.09-4.12,4.91-7.45,5.68-.69.16-1.42.23-2.13.25-1.3.03-2.6,0-3.9-.04-.96-.03-1.89-.27-2.78-.65-1.04-.45-1.9-1.14-2.52-2.13ZM47.94,14.92c0,.19,0,.39,0,.6,0,4.76,0,9.51-.01,14.27,0,.55.18.94.6,1.22.31.21.65.39,1.01.47,1.55.35,2.95-.05,4.19-1.01,1.3-1,2.05-2.36,2.5-3.91.52-1.78.61-3.6.39-5.44-.16-1.3-.52-2.54-1.14-3.7-1.5-2.77-4.76-3.89-7.52-2.5ZM32.7,21.92c-.08,0-.11-.02-.14,0-1.33.5-2.63,1.07-3.83,1.83-.52.33-.92.78-1.09,1.38-.35,1.22-.36,2.44.15,3.62.68,1.58,2.35,2.2,3.94,1.51.62-.27.93-.68.92-1.38-.01-1.27.04-2.53.05-3.8.01-1.04,0-2.09,0-3.15Z"/>
      <path class="cls-8" d="M123.71,11.15v1.36c1.5.02,2.99,0,4.56.02-.17.35-.29.65-.46.91-.07.1-.25.16-.39.18-1.23.22-2.46.43-3.72.64-.01.15-.03.3-.03.45-.03,4.33-.05,8.66-.07,12.99,0,.27,0,.55.02.82.07,1.3.98,1.95,2.09,2.05,1.08.09,2.06-.21,2.97-.79.17-.11.34-.21.54-.33.18.4.12.71-.05,1.02-.54,1.02-1.34,1.78-2.38,2.25-2.14.97-4.3.92-6.39-.11-1.49-.73-2.32-1.99-2.43-3.67-.06-.87-.1-1.74-.1-2.61-.01-3.88,0-7.77,0-11.65,0-.21-.02-.42.02-.61.09-.45-.11-.74-.44-1.01-.77-.61-1.6-.81-2.54-.49-.83.28-1.51.78-2.18,1.38.13.15.25.29.37.43,2.32,2.64,2.39,6.52.16,9.12-1.19,1.39-2.74,2.19-4.52,2.55-2.56.51-5.04.25-7.37-.98-.04-.02-.1-.03-.14-.05-.86,1.02-.84,2.23.06,3.19.16.17.35.32.54.48.33.27.7.36,1.14.33,3.04-.2,6.09-.22,9.13,0,.58.04,1.16.1,1.74.12,1.62.07,2.73.94,3.47,2.29.96,1.75.88,3.54,0,5.31-.72,1.46-1.79,2.63-3.06,3.61-2.14,1.65-4.54,2.74-7.21,3.13-2.27.33-4.51.14-6.66-.69-.79-.3-1.5-.74-2.09-1.36-.5-.52-.82-1.13-.93-1.85-.17-1.11.39-1.91,1.18-2.58.96-.82,1.96-1.61,2.94-2.41.14-.12.28-.24.48-.4-.19-.09-.31-.16-.45-.22-1.11-.48-2.13-1.08-2.98-1.95-1.74-1.79-1.73-4.19.06-5.94.38-.37.82-.67,1.25-.98.25-.18.52-.33.79-.5-.04-.05-.06-.1-.09-.12-2.35-1.66-3.4-5.68-1.36-8.72,1.18-1.76,2.83-2.85,4.85-3.39,2.02-.54,4.06-.64,6.06.05.7.24,1.36.62,2.08.96.04-.06.13-.18.22-.29.57-.68,1.11-1.39,1.72-2.03.32-.34.74-.61,1.16-.83.98-.51,1.92-.39,2.77.32.17.14.33.29.52.47.1-.19.17-.36.26-.51.55-1.02,1.09-2.05,1.64-3.07.26-.49.67-.81,1.21-.97.66-.19,1.31-.38,1.97-.57.06-.02.13,0,.27,0-.05,1.6-.09,3.19-.14,4.77,0,.17,0,.34,0,.51ZM107.48,34.32v.07c-1,.03-1.99.08-2.98.08-.84,0-1.34.42-1.63,1.16-.35.88-.33,1.78-.05,2.66.54,1.68,1.74,2.7,3.37,3.25,1.29.44,2.62.43,3.96.27.66-.08,1.31-.25,1.91-.55,1.65-.81,2.62-2.84,2.17-4.62-.29-1.16-1.11-1.81-2.25-1.95-1.49-.18-2.99-.25-4.49-.36ZM109.46,19.16c.02-1.22-.22-2.81-.62-4.01-.2-.6-.46-1.18-.87-1.67-.61-.72-1.46-.89-2.31-.48-.45.21-.79.55-1.03.97-.2.35-.38.73-.52,1.11-.38,1.06-.51,2.16-.54,3.27-.05,1.6.11,3.18.64,4.7.22.63.51,1.23.98,1.73.9.94,2.18.88,2.99-.13.37-.46.6-.99.77-1.55.38-1.24.52-2.51.53-3.93Z"/>
      <path class="cls-5" d="M5.31,31.6c-1.63.9-3.3,1.48-5.17,1.71,0-.25,0-.41,0-.58,0-4.38,0-8.76-.02-13.14C.1,14.21.05,8.84.02,3.46c0-.43,0-.85-.02-1.28-.02-.41.19-.64.55-.76.74-.26,1.48-.54,2.23-.75C3.72.42,4.68.23,5.63.02c.1-.02.2-.01.35-.02-.04,4.66-.08,9.31-.12,14.04.2-.11.32-.19.45-.25.74-.39,1.48-.78,2.23-1.16,1.61-.82,3.28-.85,4.99-.4,3.88,1.01,6.59,4.12,7.08,8.09.27,2.21.1,4.38-.77,6.45-1.38,3.29-3.9,5.29-7.29,6.25-.84.24-1.71.37-2.58.35-.42,0-.85-.1-1.26-.21-1.21-.34-2.33-.89-3.4-1.56ZM5.89,31.03c1.97.86,3.84.82,5.6-.46,1.25-.91,2.04-2.16,2.51-3.6.77-2.38.83-4.8.26-7.23-.3-1.3-.84-2.49-1.72-3.51-1.52-1.76-4.32-2.53-6.64-1.31v16.11Z"/>
      <path class="cls-5" d="M165.33,27.59c.04-3.01.07-6.02.11-9.03,0-.72-.15-1.39-.53-2.01-.6-.99-1.49-1.53-2.65-1.61-1.48-.11-2.74.43-3.91,1.28-.22.16-.23.35-.23.58,0,1.66-.01,3.32,0,4.98.02,2.48.06,4.96.1,7.44,0,.44.07.89.07,1.33,0,.31.14.5.37.68.53.4,1.04.83,1.56,1.26.09.07.17.16.25.23-.08.25-.27.2-.43.2-1.76-.04-3.52-.1-5.28-.1-1.62,0-3.25.07-4.87.12-.13,0-.26,0-.39,0-.01-.04-.03-.08-.04-.11.12-.1.24-.21.37-.29.64-.43,1.26-.88,1.93-1.27.37-.21.48-.5.49-.88.04-1.11.1-2.22.11-3.33.02-3.75.02-7.49.03-11.24,0-.15,0-.3,0-.46-.68-.42-1.33-.82-1.99-1.23.07-.32.34-.4.57-.48.84-.29,1.68-.59,2.54-.8,1.21-.3,2.43-.54,3.65-.8.29-.06.6-.06.96-.09-.03.5-.06.94-.09,1.38,0,.07,0,.14,0,.21-.03.51-.06,1.03-.1,1.54,0,.07,0,.14,0,.21,0,.04,0,.07,0,.11.05.02.09.04.14.05,1.08-.84,2.16-1.69,3.37-2.33.69-.37,1.4-.77,2.15-.94,2.17-.51,4.19-.18,5.85,1.43.89.86,1.33,1.99,1.52,3.19.14.82.21,1.66.22,2.5.02,3.56.02,7.11,0,10.67,0,.62.25,1.01.72,1.32.61.41,1.23.8,1.85,1.2.14.09.26.19.48.35-.21.06-.31.11-.41.11-.62,0-1.23,0-1.85-.03-2.43-.12-4.85-.14-7.28,0-.48.03-.96,0-1.51,0,.09-.13.14-.25.23-.33.44-.41.87-.82,1.34-1.2.28-.23.46-.49.45-.86,0-.19.03-.37.04-.56,0-.07,0-.14,0-.21.03-.58.06-1.16.09-1.75,0-.14,0-.27.01-.41Z"/>
      <path class="cls-5" d="M88.7,25.33c.03-2.24.05-4.48.08-6.71,0-.64-.11-1.26-.41-1.83-.59-1.14-1.53-1.76-2.81-1.85-1.48-.1-2.74.44-3.9,1.3-.18.13-.2.3-.2.49,0,1.71,0,3.42,0,5.13.01,2.12.03,4.24.06,6.36,0,.58.05,1.16.08,1.74,0,.07,0,.14,0,.21-.05.5.09.91.49,1.25.42.36.78.79,1.17,1.19,0,.08,0,.16,0,.24-.16.02-.33.06-.49.05-2.39-.15-4.79-.13-7.18-.01-.56.03-1.11,0-1.74,0,.11-.16.19-.28.28-.39.35-.4.69-.81,1.05-1.19.24-.25.36-.52.36-.87.04-1.61.12-3.21.14-4.82.03-3.27.02-6.54.04-9.81,0-.34-.09-.58-.34-.8-.32-.28-.62-.59-.91-.88.1-.33.35-.44.58-.52,1.11-.38,2.23-.77,3.35-1.11.7-.21,1.43-.34,2.15-.49.25-.05.51-.06.76-.08.16.22.04.45.07.66,0,.07,0,.14,0,.21-.03.44-.06.89-.09,1.33,0,.07,0,.14,0,.21-.02.36-.05.71-.08,1.17.19-.12.3-.2.42-.28.98-.68,1.93-1.41,2.96-2.03.71-.43,1.49-.78,2.27-1.04,2.2-.71,4.96.13,6.26,1.85.69.91,1.05,1.96,1.2,3.07.11.78.16,1.57.17,2.35.02,3.54.02,7.08,0,10.62,0,.62.14,1.09.67,1.44.41.27.78.62,1.16.93.12.1.23.22.44.43-.25.04-.37.07-.5.07-1.21-.03-2.43-.1-3.64-.1-1.38,0-2.77.05-4.15.08-.48,0-.96,0-1.5,0,.07-.12.11-.24.18-.33.36-.44.73-.86,1.08-1.31.12-.15.22-.35.24-.54.06-.59.08-1.19.12-1.79v-.31c.04-.89.07-1.78.1-2.67,0-.21,0-.41.01-.62Z"/>
      <path class="cls-8" d="M128.56,22.66c.1-3.63,1.64-6.52,4.55-8.65,2.16-1.59,4.62-2.23,7.3-2.04,2.44.17,4.64.97,6.5,2.58,1.97,1.71,3.09,3.88,3.42,6.46.24,1.9.06,3.76-.61,5.55-1.13,3.04-3.23,5.13-6.3,6.17-3.22,1.09-6.42.93-9.45-.65-3.16-1.64-4.91-4.31-5.34-7.84-.04-.36-.05-.71-.08-1.07.12-.17.12-.34,0-.51ZM144.55,19.24c-.1-.92-.16-1.84-.31-2.75-.14-.88-.43-1.73-1-2.44-.71-.89-1.64-1.24-2.77-1.07-.92.14-1.63.67-2.26,1.32-.58.61-1.05,1.31-1.44,2.05-1.69,3.18-2.3,6.59-2.13,10.16.05,1.08.22,2.14.58,3.17.26.71.59,1.39,1.15,1.92.74.71,1.61,1.02,2.63.81.71-.15,1.27-.56,1.76-1.08.65-.69,1.14-1.49,1.54-2.35,1.43-3.08,2.13-6.33,2.24-9.74Z"/>
      <path class="cls-5" d="M65.17,29.23c.04-4.65.08-9.3.12-13.95,0-.31-.09-.5-.36-.66-.61-.38-1.19-.79-1.89-1.26,2.66-.75,5.26-1.22,7.98-1.49v.59c0,3.08-.02,6.16,0,9.24.02,2.63.07,5.27.12,7.9.02,1.14.03,1.14.78,2,.27.31.55.61.81.93.08.09.12.22.24.43-1.62-.05-3.14-.13-4.65-.13-1.52,0-3.04.07-4.64.12.07-.16.1-.29.17-.39.29-.42.58-.85.9-1.25.28-.35.43-.73.39-1.18-.01-.19,0-.38.01-.56,0-.1,0-.21,0-.31Z"/>
      <path class="cls-2" d="M52.84,41.03c1.82-1.48,3.93-2.38,6.14-3.07,2.07-.65,4.17-1.2,6.32-1.5,1.26-.18,2.54-.27,3.82-.37.92-.07,1.84-.14,2.76-.14,1.02,0,2.05.08,3.07.13,1.03.05,2.04.16,3.04.44.77.22,1.25.78,1.54,1.47.26.6-.19,1.29-.82,1.53-.65.25-1.31.32-2.01.32-.55,0-1.04-.2-1.54-.36-.71-.23-1.43-.32-2.16-.39-1.67-.18-3.34-.18-5.01-.08-3.12.17-6.15.8-9.11,1.8-1,.34-2.02.63-3.01.99-.77.28-1.5.65-2.25.98-.16.07-.31.18-.46-.05.1-.09.21-.19.31-.29-.01-.02-.02-.04-.03-.06-.15.03-.3.07-.45.1,0-.02-.02-.04-.03-.07.33-.2.65-.4.98-.61-.27-.06-.5.03-.74.12-.14.05-.29.13-.39-.07.04-.05.08-.1.12-.16-.07,0-.14.01-.21.02.04-.23.09-.46.13-.69Z"/>
      <path class="cls-6" d="M67.81,7.95c-.72-.48-1.26-1.11-1.78-1.77-.19-.24-.34-.51-.53-.75-.23-.3-.21-.6-.02-.9.64-1.05,1.46-1.94,2.45-2.66.35-.25.62-.24.98.03.56.41,1,.94,1.39,1.5.19.26.34.55.52.82.18.27.18.56.01.82-.7,1.09-1.58,2.02-2.64,2.76-.11.08-.25.11-.38.17Z"/>
      <path class="cls-13" d="M52.84,41.03c-.04.23-.09.46-.13.69-.11.09-.22.19-.33.28l.05.06c.13-.07.25-.13.38-.2-.09.28-.28.41-.57.4h0c-.1-.14-.39-.13-.23-.54.2-.16.52-.43.84-.7Z"/>
      <path class="cls-4" d="M88.7,25.33c0,.21,0,.41-.01.62-.12-.21-.12-.41.01-.62Z"/>
      <path class="cls-7" d="M123.71,11.15c0-.17,0-.34,0-.51,0,.17,0,.34,0,.51Z"/>
      <path class="cls-10" d="M128.56,22.66c.12.17.12.34,0,.51,0-.17,0-.34,0-.51Z"/>
      <path class="cls-3" d="M165.33,27.59c0,.14,0,.27-.01.41,0-.14,0-.27.01-.41Z"/>
      <path class="cls-4" d="M88.6,28.61v.31c0-.1,0-.21,0-.31Z"/>
      <path class="cls-12" d="M65.17,29.23c0,.1,0,.21,0,.31,0-.1,0-.21,0-.31Z"/>
      <path class="cls-12" d="M81.29,14.34c0-.07,0-.14,0-.21,0,.07,0,.14,0,.21Z"/>
      <path class="cls-11" d="M157.92,15.26v-.21c0,.07,0,.14,0,.21Z"/>
      <path class="cls-9" d="M158.02,13.52c0-.07,0-.14,0-.21,0,.07,0,.14,0,.21Z"/>
      <path class="cls-3" d="M165.22,29.74c0,.07,0,.14,0,.21,0-.07,0-.14,0-.21Z"/>
      <path class="cls-1" d="M81.61,30.15c0-.07,0-.14,0-.21,0,.07,0,.14,0,.21Z"/>
      <path class="cls-3" d="M83.28,32.84c0-.08,0-.16,0-.24.17.08.19.16,0,.24Z"/>
      <path class="cls-12" d="M81.4,12.8c0-.07,0-.14,0-.21,0,.07,0,.14,0,.21Z"/>
      <path class="cls-13" d="M51.61,42.06c-.03.06-.07.11-.1.17-.02-.02-.04-.04-.05-.05l.16-.11h0Z"/>
      <path class="cls-13" d="M51.61,42.07l.11-.1s.02.04.03.06c-.05,0-.1.02-.14.02,0,0,0,0,0,0Z"/>
      <path class="cls-11" d="M158.06,15.42s-.09-.04-.14-.05c.05.02.09.04.14.05Z"/>
      <path class="cls-13" d="M52.23,42.27l-.04.05s0-.03,0-.03c.01,0,.03-.01.04-.02h0Z"/>
    </g>
  </g>
</svg>