<?xml version="1.0" encoding="UTF-8"?>
<svg id="Layer_2" data-name="Layer 2" xmlns="http://www.w3.org/2000/svg" viewBox="0 0 137.61 70.02">
  <defs>
    <style>
      .cls-1 {
        fill: #4c97b6;
      }

      .cls-2 {
        fill: #84b6cd;
      }

      .cls-3 {
        fill: #e63748;
      }

      .cls-4 {
        fill: #2b8daf;
      }
    </style>
  </defs>
  <g id="Layer_1-2" data-name="Layer 1">
    <g>
      <g>
        <path class="cls-4" d="M15.24,55.91c-5.2-5.28-8.41-12.52-8.41-20.51,0-11.04,6.13-20.65,15.18-25.62l-5.9-4.15C6.41,11.87,0,22.7,0,35.01c0,11.03,5.15,20.87,13.18,27.29l2.06-6.39Z"/>
        <path class="cls-1" d="M36.08,6.17c12.02,0,22.36,7.25,26.85,17.61l3.76-4.68C60.86,7.77,48.98,0,35.27,0c-5.81,0-11.28,1.4-16.12,3.87l6.18,4.34c3.33-1.31,6.95-2.05,10.75-2.05Z"/>
        <path class="cls-2" d="M64.17,27.23c.75,2.6,1.17,5.33,1.17,8.17,0,16.14-13.1,29.23-29.26,29.23-6.93,0-13.29-2.41-18.3-6.43l-1.94,6.02c5.57,3.66,12.25,5.8,19.43,5.8,19.48,0,35.27-15.68,35.27-35.01,0-4.49-.86-8.77-2.41-12.71l-3.96,4.93Z"/>
      </g>
      <path class="cls-3" d="M38.62,41.64c.78,8.47,13.19,13.7,20.62,5.57l-3.53-3.65c-4.75,3.79-9.56,2.14-10.88-1.92h16.32c3.34-17.37-24.54-20.19-22.53,0ZM44.78,37.25c.23-5.53,9.82-6.23,9.97,0h-9.97Z"/>
      <path class="cls-4" d="M87.02,20.64h-12.42v29.66l6.69-.07v-8.28h5.73c15.32.14,15.11-21.25,0-21.32h0ZM87.38,36.38h-6.15l.08-10.06h6.07c5.64,0,5.64,10.06,0,10.06Z"/>
      <path class="cls-4" d="M100.17,27.53h6.25v3.08c1.69-2.02,4.03-3.15,6.98-3.44v5.89c-4.07-.34-6.25,1.76-6.88,5.89v11.42h-6.43l.09-22.83h0Z"/>
      <path class="cls-4" d="M125.52,27.06c-6.68,0-12.1,5.32-12.1,11.89s5.42,11.89,12.1,11.89,12.1-5.32,12.1-11.89-5.42-11.89-12.1-11.89ZM125.59,45.31c-3.19,0-5.78-2.88-5.78-6.45s2.59-6.45,5.78-6.45,5.78,2.88,5.78,6.45-2.59,6.45-5.78,6.45Z"/>
      <path class="cls-3" d="M31.78,34.85c7.38-2.4,4.91-14.54-4.77-14.36h-13.48v29.88l13.48-.07c12.49,1.11,13.64-13.77,4.77-15.44h0ZM20.1,25.95c1.87,0,3.75-.03,5.61-.02,4.82,0,4.8,6.91-.01,6.9h-5.61v-6.88h0ZM27.2,44.87h-6.97v-7.07l6.97-.09c5.04,0,5.04,7.16,0,7.16Z"/>
    </g>
  </g>
</svg>