<?xml version="1.0" encoding="UTF-8"?>
<svg id="Layer_2" data-name="Layer 2" xmlns="http://www.w3.org/2000/svg" viewBox="0 0 174.09 70.79">
  <defs>
    <style>
      .cls-1 {
        fill: #010101;
      }

      .cls-2 {
        fill: #772b82;
      }
    </style>
  </defs>
  <g id="Layer_1-2" data-name="Layer 1">
    <g>
      <path class="cls-1" d="M27.07,70.18c-9.42-5.09-18.19-12.47-22.96-22.24C-1.32,36.81-1.24,23.83,3.57,12.46c.54-1.27,1.11-2,2.51-1.96,5.79.14,10.92-2.38,12.5-8.24.2-.75.38-1.23.53-1.44.4-.54.99-.81,1.78-.82C26.16,0,31.42,0,36.69.05c1.33.01,1.92.56,2.21,1.8,1.48,6.22,6.6,8.71,12.64,8.64,1.11-.01,1.9.51,2.35,1.58,5.73,13.51,4.99,29.05-3.59,41.22-5.22,7.39-12.16,12.74-20.21,17.12-1.18.64-1.82.42-3.01-.23ZM13.4,22.19c1.61-.07,3.26,0,4.81-.04,1.11-.03,2.21-.02,3.32.01,1.37.05,1.81.87,2.12,2.11.28,1.1.46,2.22.55,3.36.37,4.78,0,9.66-.62,14.4,0,.04.01.07.05.08,3.43.92,6.87.92,10.31,0,.03,0,.06-.04.05-.08-.43-3.44-.69-6.87-.76-10.3-.04-2.07.09-4.13.41-6.18.18-1.15.53-2.98,1.8-3.34.19-.05.75-.08,1.67-.09,2.35,0,4.74.08,7.08.03.05,0,.09.04.09.09,0,0,0,0,0,.01-.16,1.71-1.5,3.17-2.98,3.9-.96.47-2.21.68-3.33.79-1.25.13-2.37.57-3.36,1.33-.26.2-.4.38-.41.54-.09,1.07-.08,2.69.01,4.85.12,2.67.33,5.34.63,8,.13,1.19-.6,2.22-1.45,2.99-.89.8-2.12,1.21-2.88,2.01-1.36,1.42-1.25,3.81,0,5.2,1.59,1.77,4.18,2.47,6.54,2.39.06,0,.11-.02.15-.05,1.27-.91,3.05-1.82,3.96-2.81,2.17-2.36,1-5.63,1.47-8.6.16-.99.4-2,.74-3.02,1.59-4.85,3.19-9.7,4.8-14.55.77-2.31.89-4.05-1.32-5.5-2.59-1.71-5.19-3.41-7.79-5.11-1.61-1.06-3.51-1.81-5.44-1.52-.26.04-.79.2-1.59.48-2.28.81-4.56.77-6.84-.13-1.88-.74-4.08-.39-5.76.62-1.5.91-4.48,2.85-8.94,5.83-1.86,1.24-1.85,3.02-1.2,4.99,1.67,5.05,3.34,10.1,5,15.16.48,1.47.73,2.69.75,3.66.05,3.15-.68,6.61,2.52,8.63.95.59,1.87,1.22,2.78,1.87.05.03.1.05.16.05,2.44.11,5.06-.64,6.68-2.58,1.31-1.56,1.07-3.87-.31-5.2-.56-.53-1.49-.96-2.1-1.36-1.02-.69-2.25-2.12-2.08-3.46.54-4.32.78-8.58.7-12.77,0-.6-1.74-1.42-2.23-1.6-1.36-.5-2.99-.42-4.27-.87-1.69-.6-3.48-2.22-3.59-4.18,0-.05.02-.08.07-.08ZM23.58,58.28c.85,1.31,2.96,1.49,4.34,1.46,1.8-.04,4.01.3,5.54-.93.83-.67,1.59-2.14,2.26-3.14.04-.05.02-.09-.04-.09-2.17-.29-3.89-.99-5.86-1.93-.44-.21-1.31-.36-1.66-.19-2.17,1.05-3.96,1.83-6.28,2.12-.06,0-.07.04-.04.09.59.87,1.17,1.74,1.74,2.61Z"/>
      <path class="cls-2" d="M78.04,22.4c3.35.93,4.61,4.16,3.7,7.35-.93,3.27-4.39,4.48-7.6,4.56-1.55.04-4.33.04-8.34,0-.05,0-.07-.02-.07-.07V11.74c0-.05.03-.08.08-.08,2.67-.02,5.33-.01,7.99,0,3.82.03,7.78,1.71,7.32,6.31-.2,2.03-1.23,3.46-3.09,4.28-.04.02-.05.06-.04.1,0,.02.03.03.05.04ZM71.08,15.77v4.96s.04.06.07.06h2.22c1.52,0,2.75-1.09,2.75-2.41v-.27c0-1.33-1.24-2.4-2.76-2.4,0,0,0,0,0,0h-2.22s-.06.03-.06.06h0ZM71.08,24.53l.02,5.67s.02.04.04.04h2.49c1.68-.01,3.03-1.22,3.03-2.71h0v-.38c0-1.48-1.37-2.68-3.05-2.68h-2.49s-.04.03-.04.05h0Z"/>
      <path class="cls-2" d="M92.31,26.93v7.32s-.04.09-.09.09h-5.48c-.06,0-.09-.03-.09-.09V11.74s.04-.08.08-.08h0c2.54-.01,5.09-.02,7.66-.01,5.06,0,8.9,2.71,8.47,8.15-.37,4.54-3.83,6.8-8.11,6.97-.79.03-1.57.06-2.36.08-.05,0-.08.03-.08.08ZM92.24,15.95v6.51s0,.04.03.04h1.9c1.77,0,3.21-1.32,3.21-2.95v-.66c0-1.64-1.43-2.97-3.2-2.97,0,0,0,0,0,0h-1.9s-.04.01-.04.03Z"/>
      <path class="cls-2" d="M112.82,26.92v7.33c0,.05-.03.08-.08.08h-5.52c-.07,0-.1-.04-.1-.11V11.74s.03-.08.08-.08c2.53-.01,5.07-.01,7.62.01,3.84.03,7.65,1.48,8.4,5.68.43,2.43,0,5.23-1.82,7.03-2.25,2.23-5.49,2.47-8.49,2.46-.05,0-.08.03-.08.08ZM112.71,15.98v6.44s.05.09.1.09h1.8c1.8,0,3.25-1.33,3.25-2.97h0v-.7c0-1.63-1.46-2.95-3.26-2.95h-1.8s-.09.04-.09.09h0Z"/>
      <path class="cls-2" d="M104.67,57.34l4.44-11.71s.03-.04.05-.03l1.34.03s.05.03.05.06c0,0,0,.01,0,.02l-5.31,13.6s-.03.04-.05.03h-1.18s-.04-.02-.05-.04l-5.28-13.45s0-.06.03-.07c0,0,0,0,0,0l1.28-.29s.05,0,.06.03l4.51,11.83s.04.04.07.03c.02,0,.03-.02.03-.03Z"/>
      <path class="cls-2" d="M136.35,51.53c-1.51-1.17-1.54-3.61-.32-4.89,1.47-1.54,4.14-1.41,5.99-.52.05.02.07.06.06.12l-.19,1.25c-.01.07-.05.09-.11.05-1.16-.76-3.3-1.28-4.47-.32-1.31,1.07-.85,2.84.54,3.6,1.98,1.08,4.91,1.8,4.96,4.6.08,4.44-4.89,4.58-7.78,3.18-.05-.02-.07-.06-.06-.11l.17-1.26s.04-.07.08-.06c0,0,.02,0,.03.01,1.7,1.05,5.77,1.89,6.15-1.11.17-1.31-.59-2.15-1.71-2.72-1.11-.56-2.35-1.02-3.35-1.8Z"/>
      <path class="cls-2" d="M168.62,52.26l3.99-6.64s.03-.03.05-.03l1.39.04s.05.03.05.06c0,0,0,.02,0,.03l-4.84,7.87s0,.02,0,.03v5.58s-.02.05-.05.05h-1.31s-.05-.02-.05-.05h0l.05-5.51s0-.02,0-.03l-4.8-7.81s0-.06.02-.08c0,0,.01,0,.02,0l1.26-.28s.05,0,.06.02l4.1,6.77s.05.03.08.02c0,0,.01-.01.02-.02Z"/>
      <path class="cls-2" d="M69.02,59.2c-2.02-.58-3.22-2.58-3.27-4.6-.03-1.35-.04-4.31,0-8.87,0-.06.03-.09.08-.09l1.17-.04s.08.03.08.07c.1,1.09,0,2.38.02,3.24.02,1.56.03,3.12.04,4.68,0,2.63.99,4.81,4.03,4.57,2.35-.18,3.42-1.81,3.42-4.06,0-2.79,0-5.58,0-8.37,0-.05.03-.08.08-.08l1.26-.03s.07.02.07.07c-.08,2.78.07,5.36-.02,7.99-.04,1.31-.19,2.27-.45,2.89-1.07,2.59-3.97,3.36-6.5,2.63Z"/>
      <path class="cls-2" d="M88.57,56.51v-10.85s.03-.06.06-.06h1.18s.06.03.06.06v13.53s-.03.06-.06.06h-1s-.04,0-.05-.02l-7.78-11.22s-.05-.03-.08-.01c-.02.01-.02.03-.02.05v11.15s-.03.06-.06.06h-1.18s-.06-.03-.06-.06v-13.52s.03-.06.06-.06h1.2s.04.01.05.03l7.57,10.9s.05.03.08.01c.02-.01.02-.03.02-.05Z"/>
      <rect class="cls-2" x="94.39" y="45.62" width="1.37" height="13.63" rx=".06" ry=".06"/>
      <path class="cls-2" d="M114.53,52.81v5.13s.02.05.05.05h5.8s.05.03.05.06v1.14s-.02.05-.05.05h-7.22s-.05-.02-.05-.05h0v-13.51s.02-.05.05-.05h0l7.01-.03s.05.02.05.05v1.19s-.02.05-.05.05h-5.59s-.05.03-.05.06h0v4.49s.01.05.04.05h0l4.42.03s.05.02.05.04l.15,1.13s-.02.06-.05.06c0,0,0,0,0,0h-4.57s-.05.02-.05.05h0Z"/>
      <rect class="cls-2" x="146.81" y="45.61" width="1.39" height="13.63" rx=".04" ry=".04"/>
      <path class="cls-2" d="M155.57,46.9l-4.29-.05s-.05-.02-.05-.05h0v-1.1s.02-.05.05-.05h0l9.93-.03s.05.02.05.05l.18,1.18s-.02.06-.05.06c0,0,0,0,0,0h-4.33s-.05,0-.05.04h0v12.26s-.02.05-.05.05h-1.28s-.05-.02-.05-.05h0v-12.24s-.02-.05-.05-.05Z"/>
      <path class="cls-2" d="M125.22,53.34v5.82c0,.06-.03.08-.08.08h-1.23c-.07,0-.1-.03-.1-.1v-13.41c0-.05.03-.08.08-.08,1.96-.02,3.25-.02,3.87,0,4.89.11,5.35,6.54.79,7.36-.03,0-.05.03-.05.07,0,0,0,.02,0,.02l4.24,5.91s.01.06-.01.07c0,0-.01,0-.02,0l-1.3.28s-.07,0-.09-.03l-4.32-6.03s-.07-.05-.11-.05h-1.59c-.06,0-.08.03-.08.08ZM125.26,46.92v5.03s.03.04.05.04h2.27c1.48,0,2.68-1.09,2.67-2.41v-.32c0-1.33-1.2-2.4-2.68-2.4h-2.27s-.04.02-.04.05Z"/>
    </g>
  </g>
</svg>