<?xml version="1.0" encoding="UTF-8"?>
<svg id="Layer_2" data-name="Layer 2" xmlns="http://www.w3.org/2000/svg" viewBox="0 0 75.17 75.41">
  <defs>
    <style>
      .cls-1 {
        fill: #fff;
      }

      .cls-2 {
        fill: #000100;
      }
    </style>
  </defs>
  <g id="Layer_1-2" data-name="Layer 1">
    <g>
      <path class="cls-1" d="M50.77,50.97c-5.38,5.41-13.45,7.1-20.4,4.3-7.59-3.06-11.88-10.68-11.64-18.2.27-8.32,6.07-15.97,14.32-17.91,9.78-2.3,17.22,4.78,17.73,5.27,2.94-3.01,5.87-6.01,8.81-9.02-1.19-1.09-13.19-11.72-28.69-8.29C16.7,10.28,5.31,23.94,6.38,39.85c1.05,15.61,13.7,27.47,27.72,29.03,13.91,1.55,23.9-7.61,25.48-9.1-2.94-2.94-5.87-5.87-8.81-8.81Z"/>
      <path class="cls-2" d="M37.58,0C16.83,0,0,16.88,0,37.71s16.83,37.71,37.58,37.71,37.58-16.88,37.58-37.71S58.34,0,37.58,0ZM34.1,68.89c-14.02-1.57-26.67-13.42-27.72-29.03-1.07-15.92,10.32-29.58,24.51-32.72,15.5-3.43,27.49,7.19,28.69,8.29-2.94,3.01-5.87,6.01-8.81,9.02-.5-.49-7.95-7.57-17.73-5.27-8.25,1.94-14.05,9.59-14.32,17.91-.24,7.52,4.06,15.14,11.64,18.2,6.95,2.8,15.02,1.11,20.4-4.3,2.94,2.94,5.87,5.87,8.81,8.81-1.57,1.49-11.57,10.65-25.48,9.1ZM65.26,30.14v-.83h1.96s0,6.43,0,6.43l.68.17v.76h-1.86v-.57l-.19-.05c-.15.16-.46.44-.93.58-.6.18-1.24.07-1.61-.16-1.26-.78-1.35-4.01.21-4.8.92-.47,2.06.09,2.34.24v-1.53l-.59-.24ZM59.9,41.36v-.43c.09-.01.43-.07.69-.37.33-.39.25-.86.24-.92h.49l.05,1.29h1.32v.43h-1.35v3.34c.04.12.1.19.15.24.26.26.8.23,1.34-.06.08.16.16.33.25.49-.72.44-1.52.46-2,.07-.1-.09-.27-.25-.37-.56v-3.53h-.8ZM52.6,41.36c-.34-.18-.83.27-.95.37-.13.12-.22.23-.28.32v2.99l1.01.03v.5h-2.27v-.45l.59-.18v-3.5l-.69-.31.12-.35h1.09c.04.2.09.4.13.6.09-.13.33-.42.73-.59.59-.24,1.12-.06,1.25-.01v1.39h-.46c.05-.36-.05-.69-.26-.8ZM51.75,36.67v-4.15h-1.53v3.03l.88.26v.87h-2.97v-.92l.63-.2v-3.03h-.73v-1.03h.75v-.74c.04-.22.16-.61.46-.94.53-.57,1.26-.6,1.74-.61.49-.02,1.54-.06,2.01.65.22.33.23.69.21.91-.46.05-.92.09-1.38.14,0-.03-.12-.49-.55-.65-.36-.13-.78,0-1.02.33v.92h3.09v4.06l.61.33v.79h-2.2ZM46.85,44.73c.61.46,1.52.46,2.23-.05l.37.52c-.09.06-1.43.91-2.64.34-1.46-.7-1.83-3.06-.79-4.18.66-.7,2.03-1.07,2.85-.4.55.45.63,1.16.65,1.4v1.02c-1.11,0-2.08,0-3.2-.01,0,.12-.1.89.52,1.36ZM36.29,41.48c-.53-.33-1.42-.12-2.09.61v2.75l.68.31v.42h-2.05v-.45l.59-.24v-3.49l-.59-.24.11-.39h1.07c.03.2.07.4.1.6.88-.8,2.01-.96,2.69-.48.37.26.54.66.62.93v3.04l.66.24v.47h-1.97v-.47l.64-.21v-2.81c-.14-.38-.36-.54-.46-.61ZM26.13,39.25v-.42h2.23v.46l-.77.2v4.34c.02.16.1.55.43.88.43.43.99.44,1.19.45.16,0,.68,0,1.17-.37.46-.35.61-.8.66-.96v-4.34l-.77-.17v-.49h2.19v.46l-.71.2v4.48c-.06.22-.26.82-.84,1.27-.63.5-1.32.51-1.65.51-.37,0-1.33,0-1.9-.73-.31-.39-.38-.82-.39-1.05v-4.48l-.83-.24ZM28.41,31.1c-.73.6-.77,1.49-.79,1.91-.02.42-.08,1.67.85,2.27.91.59,2.01.09,2.1.05v-1.02h1.18v1.97c-1.76.91-3.77.69-4.92-.47-1.05-1.06-1.03-2.55-1.02-2.83.01-.38.11-1.73,1.14-2.67,1.17-1.08,3.11-1.23,4.8-.31v1.89h-1.18v-1.14c-.11-.03-1.26-.36-2.16.37ZM32.37,36.67v-1.02h.57v-2.95l-.57-.35v-.79h1.73c.08.25.17.5.25.75.05-.11.27-.56.8-.79.64-.28,1.22,0,1.31.04v1.81h-1.22c.03-.31-.03-.58-.17-.63-.16-.06-.46.17-.66.63v2.28h1.14v1.02h-3.19ZM37.25,36.43c-.48-.43-.65-1.25-.35-1.83.24-.47.73-.65,1.14-.8.68-.25,1.29-.21,1.61-.16v-.53c0-.35-.23-.64-.51-.69-.34-.06-.74.24-.75.69l-1.49-.12c.11-.73.46-1.09.61-1.22,1-.89,3-.44,3.45.54.1.22.11.43.1.58v2.69l.61.24v.85h-1.83v-.59c-.78.85-1.97.92-2.6.35ZM39.97,39.07c0,.31-.25.56-.56.56s-.56-.25-.56-.56.25-.56.56-.56.56.25.56.56ZM38.37,45.1h.6l.24-.18v-3.46l-.63-.24v-.45h1.26v4.14l.13.16h.68v.5h-2.28v-.47ZM40.38,41.13l.2-.35h1.76v.41l-.66.16,1.4,3.55,1.32-3.55-.66-.2.12-.37h1.65v.46l-.46.12-1.59,4.22h-.88l-1.61-4.23-.59-.21ZM42.04,32.34l.07-.75h1.67v.54c1.25-.82,2.54-.81,3.05-.21.09.11.3.4.28.98v2.75l.6.2v.81h-2.12v-3.43c-.03-.26-.15-.39-.2-.43-.35-.32-1.09-.12-1.23.24-.03.07-.03.15-.03.2,0,.81,0,1.62.01,2.42l.58.17v.84h-2.67v-.79l.67-.22v-2.91l-.67-.41ZM53.5,44.18h.64c0,.19,0,.68,0,.68,0,0,1.03.37,1.43.28.48-.11.91-.63.82-1.01-.17-.76-2.22-.41-2.69-1.49-.21-.48,0-1.03.21-1.34.52-.72,1.79-.93,3.03-.29v1.14c-.2,0-.6.01-.6.01,0,0,.06-.39,0-.79,0-.02,0-.02,0-.03,0,0,0,0,0,0,0-.02-1.46-.34-1.81.39-.1.2-.13.52.03.76.28.43.86.18,1.69.64.29.16.65.36.79.76.19.52-.08,1.15-.48,1.49-.47.4-1.06.36-1.7.32-.58-.04-1.04-.18-1.34-.3-.01-.43-.03-.8,0-1.22ZM54.75,35.84c-.87-1.03-.77-2.59,0-3.54.18-.22.9-1.03,2.02-.95,1.31.09,1.93,1.32,1.96,1.37l.05,1.7c-.98,0-1.96.02-2.94.03.07.44.28.66.37.74.47.43,1.36.41,2.12-.13l.45,1.06c-1.28,1.03-3.1.85-4.04-.27ZM59,39.07c0,.31-.25.56-.56.56s-.56-.25-.56-.56.25-.56.56-.56.56.25.56.56ZM57.4,45.1h.6l.24-.18v-3.46l-.63-.24v-.45h1.26v4.14l.13.16h.68v.5h-2.28v-.47ZM59.32,36.67v-.77l.6-.24v-5.22l-.6-.26v-.99h2.1v6.47l.52.26v.75h-2.62ZM63.43,41.29l-.51-.12.15-.44h1.76v.43s-.59.13-.63.13l1.27,3.32,1.35-3.27-.66-.25.21-.36h1.65v.47l-.46.1-2.46,5.56.12.29h.74v.38h-2.22v-.38h.54l.27-.19.58-1.54-1.69-4.13Z"/>
      <path class="cls-2" d="M47.62,41.38c-.74-.04-1.29.58-1.3,1.36h2.58c0-.73-.59-1.33-1.28-1.36Z"/>
      <path class="cls-2" d="M64.71,32.64c-.65.21-.78.98-.81,1.1-.11.64.15,1.55.81,1.71.51.13.98-.26,1.06-.33v-2.28c-.07-.05-.54-.36-1.06-.2Z"/>
      <path class="cls-2" d="M56.5,32.53c-.37.05-.71.46-.67.95h1.57c.03-.59-.47-1.01-.9-.95Z"/>
      <path class="cls-2" d="M39.08,35.64c.33-.06.55-.25.63-.34v-.85c-.07,0-.18.01-.32.03-.46.05-.69.07-.83.17-.24.16-.42.54-.29.79.17.31.73.22.8.21Z"/>
      <path class="cls-1" d="M31.74,31.87v-1.89c-1.69-.91-3.63-.76-4.8.31-1.03.95-1.13,2.3-1.14,2.67,0,.28-.03,1.77,1.02,2.83,1.15,1.16,3.15,1.38,4.92.47v-1.97h-1.18v1.02c-.09.04-1.19.54-2.1-.05-.93-.6-.87-1.85-.85-2.27.02-.42.06-1.31.79-1.91.89-.73,2.04-.4,2.16-.37v1.14h1.18Z"/>
      <path class="cls-1" d="M35.56,35.65h-1.14v-2.28c.19-.46.5-.69.66-.63.14.05.2.32.17.63h1.22v-1.81c-.09-.04-.67-.32-1.31-.04-.53.23-.75.67-.8.79-.08-.25-.17-.5-.25-.75h-1.73v.79l.57.35v2.95h-.57v1.02h3.19v-1.02Z"/>
      <path class="cls-1" d="M39.85,36.08v.59h1.83v-.85l-.61-.24v-2.69c0-.15,0-.36-.1-.58-.46-.98-2.45-1.43-3.45-.54-.15.13-.5.49-.61,1.22l1.49.12c.01-.45.4-.75.75-.69.28.05.52.34.51.69v.53c-.32-.05-.93-.09-1.61.16-.41.15-.89.33-1.14.8-.3.58-.13,1.4.35,1.83.63.57,1.82.5,2.6-.35ZM38.56,34.64c.14-.1.37-.12.83-.17.13-.01.24-.02.32-.03v.85c-.09.09-.3.29-.63.34-.07.01-.63.1-.8-.21-.13-.25.05-.63.29-.79Z"/>
      <path class="cls-1" d="M42.04,35.88v.79h2.67v-.84l-.58-.17c0-.81,0-1.62-.01-2.42,0-.05,0-.12.03-.2.15-.36.88-.55,1.23-.24.05.04.17.17.2.43v3.43h2.12v-.81l-.6-.2v-2.75c.03-.58-.18-.87-.28-.98-.52-.6-1.81-.61-3.05.21v-.54h-1.67l-.07.75.67.41v2.91l-.67.22Z"/>
      <path class="cls-1" d="M53.95,35.88l-.61-.33v-4.06h-3.09v-.92c.25-.33.67-.46,1.02-.33.43.16.54.62.55.65.46-.05.92-.09,1.38-.14.01-.21,0-.58-.21-.91-.47-.71-1.52-.67-2.01-.65-.48.02-1.21.05-1.74.61-.31.33-.42.71-.46.94v.74h-.75v1.03h.73v3.03l-.63.2v.92h2.97v-.87l-.88-.26v-3.03h1.53v4.15h2.2v-.79Z"/>
      <path class="cls-1" d="M58.35,35.05c-.77.54-1.65.56-2.12.13-.09-.08-.3-.3-.37-.74.98,0,1.96-.02,2.94-.03l-.05-1.7c-.03-.06-.65-1.28-1.96-1.37-1.12-.08-1.84.73-2.02.95-.77.95-.87,2.51,0,3.54.94,1.12,2.76,1.3,4.04.27l-.45-1.06ZM56.5,32.53c.43-.06.93.36.9.95h-1.57c-.04-.5.3-.9.67-.95Z"/>
      <polygon class="cls-1" points="61.94 35.92 61.41 35.66 61.41 29.19 59.32 29.19 59.32 30.18 59.92 30.44 59.92 35.66 59.32 35.9 59.32 36.67 61.94 36.67 61.94 35.92"/>
      <path class="cls-1" d="M63.51,31.67c-1.55.79-1.46,4.02-.21,4.8.38.23,1.01.34,1.61.16.47-.14.78-.42.93-.58l.19.05v.57h1.86v-.76l-.68-.17v-6.43h-1.96v.83l.59.24v1.53c-.28-.15-1.42-.71-2.34-.24ZM65.77,35.12c-.08.07-.55.46-1.06.33-.66-.16-.92-1.07-.81-1.71.02-.13.15-.89.81-1.1.52-.17,1,.15,1.06.2v2.28Z"/>
      <path class="cls-1" d="M27.35,45.02c.58.73,1.53.73,1.9.73.33,0,1.02,0,1.65-.51.58-.45.78-1.05.84-1.27v-4.48l.71-.2v-.46h-2.19v.49l.77.17v4.34c-.04.15-.2.61-.66.96-.49.37-1.01.37-1.17.37-.2,0-.76-.01-1.19-.45-.33-.33-.41-.72-.43-.88v-4.34l.77-.2v-.46h-2.23v.42l.83.24v4.48c.02.23.08.66.39,1.05Z"/>
      <path class="cls-1" d="M36.11,45.1v.47h1.97v-.47l-.66-.24v-3.04c-.08-.27-.24-.67-.62-.93-.68-.48-1.81-.32-2.69.48-.03-.2-.07-.4-.1-.6h-1.07l-.11.39.59.24v3.49l-.59.24v.45h2.05v-.42l-.68-.31v-2.75c.68-.72,1.56-.94,2.09-.61.1.06.32.23.46.61v2.81l-.64.21Z"/>
      <path class="cls-1" d="M39.4,38.51c-.31,0-.56.25-.56.56s.25.56.56.56.56-.25.56-.56-.25-.56-.56-.56Z"/>
      <polygon class="cls-1" points="40.65 45.07 39.97 45.07 39.83 44.92 39.83 40.77 38.58 40.77 38.58 41.22 39.2 41.46 39.2 44.92 38.97 45.1 38.37 45.1 38.37 45.57 40.65 45.57 40.65 45.07"/>
      <path class="cls-1" d="M57.88,39.07c0,.31.25.56.56.56s.56-.25.56-.56-.25-.56-.56-.56-.56.25-.56.56Z"/>
      <polygon class="cls-1" points="59.68 45.07 59 45.07 58.87 44.92 58.87 40.77 57.61 40.77 57.61 41.22 58.24 41.46 58.24 44.92 58.01 45.1 57.4 45.1 57.4 45.57 59.68 45.57 59.68 45.07"/>
      <polygon class="cls-1" points="42.59 45.57 43.47 45.57 45.05 41.35 45.51 41.23 45.51 40.77 43.86 40.77 43.74 41.14 44.4 41.34 43.07 44.89 41.68 41.34 42.34 41.18 42.34 40.77 40.58 40.77 40.38 41.13 40.97 41.34 42.59 45.57"/>
      <path class="cls-1" d="M49.52,43.38v-1.02c-.02-.23-.09-.95-.65-1.4-.83-.67-2.19-.3-2.85.4-1.05,1.12-.67,3.48.79,4.18,1.21.58,2.55-.28,2.64-.34l-.37-.52c-.71.51-1.62.52-2.23.05-.62-.48-.52-1.24-.52-1.36,1.11,0,2.08,0,3.2.01ZM47.62,41.38c.7.03,1.28.63,1.28,1.36h-2.58c0-.78.55-1.4,1.3-1.36Z"/>
      <path class="cls-1" d="M53.33,42.16v-1.39c-.13-.05-.66-.23-1.25.01-.41.17-.64.46-.73.59-.04-.2-.09-.4-.13-.6h-1.09l-.12.35.69.31v3.5l-.59.18v.45h2.27v-.5l-1.01-.03v-2.99c.06-.09.15-.2.28-.32.12-.11.62-.55.95-.37.21.11.31.44.26.8h.46Z"/>
      <path class="cls-1" d="M54.83,45.71c.64.04,1.24.08,1.7-.32.4-.34.67-.98.48-1.49-.14-.4-.51-.6-.79-.76-.84-.46-1.42-.21-1.69-.64-.16-.24-.12-.56-.03-.76.35-.73,1.8-.41,1.81-.39,0,0,0,0,0,0,0,0,0,.01,0,.03.06.4,0,.79,0,.79,0,0,.4,0,.6-.01v-1.14c-1.23-.65-2.51-.44-3.03.29-.22.3-.42.85-.21,1.34.47,1.08,2.52.73,2.69,1.49.09.39-.34.91-.82,1.01-.4.09-1.43-.28-1.43-.28,0,0,0-.49,0-.68h-.64c-.03.42-.01.79,0,1.22.3.12.76.27,1.34.3Z"/>
      <path class="cls-1" d="M61.07,45.45c.48.39,1.27.37,2-.07-.08-.16-.16-.33-.25-.49-.54.29-1.07.32-1.34.06-.05-.05-.11-.13-.15-.24v-3.34h1.35v-.43h-1.32l-.05-1.29h-.49c.01.06.09.53-.24.92-.26.3-.6.36-.69.37v.43h.8v3.53c.1.31.27.47.37.56Z"/>
      <path class="cls-1" d="M64.27,47.15h-.54v.38h2.22v-.38h-.74l-.12-.29,2.46-5.56.46-.1v-.47h-1.65l-.21.36.66.25-1.35,3.27-1.27-3.32s.63-.13.63-.13v-.43h-1.76l-.15.44.51.12,1.69,4.13-.58,1.54-.27.19Z"/>
    </g>
  </g>
</svg>