<?xml version="1.0" encoding="UTF-8"?>
<svg id="Layer_2" data-name="Layer 2" xmlns="http://www.w3.org/2000/svg" viewBox="0 0 179.88 39.33">
  <defs>
    <style>
      .cls-1 {
        fill: #404783;
      }

      .cls-2 {
        fill: #293778;
      }

      .cls-3 {
        fill: #283777;
      }

      .cls-4 {
        fill: #62a832;
      }

      .cls-5 {
        fill: #e4117e;
      }

      .cls-6 {
        fill: #e2e1ed;
      }

      .cls-7 {
        fill: #1b9dd9;
      }
    </style>
  </defs>
  <g id="Layer_1-2" data-name="Layer 1">
    <g>
      <path class="cls-3" d="M40.64,2.46c.2-.01.41-.04.63-.04,4.98,0,9.96-.05,14.95.03,1.67.03,3.37.26,5,.64,4.23,1,7.18,3.58,8.54,7.73,1.74,5.28,1.96,10.66.14,15.95-1.76,5.11-5.56,8.02-10.92,8.29-6.06.3-12.13.14-18.2.18-.02,0-.05-.03-.13-.07V2.46ZM47.68,29.51c2.88,0,5.77.08,8.65-.01,3.91-.12,5.94-1.68,6.67-5.1.75-3.5.76-7.04.11-10.55-.73-3.95-2.76-5.58-6.86-5.68-2.83-.07-5.66-.02-8.49-.01-.07,0-.15.05-.26.09,0,1.85,0,3.7,0,5.54,0,5.2.02,10.4.03,15.6l.15.13Z"/>
      <path class="cls-3" d="M96.34,35.24c-6.04,0-11.94.07-17.85-.03-2.77-.05-5.15-1.1-6.19-3.94-.84-2.28-.75-4.61.19-6.85.96-2.29,2.97-3.17,5.23-3.51,1.42-.22,2.87-.28,4.31-.3,2.53-.05,5.05-.01,7.57-.01.47-2.08-.44-3.66-2.43-4.11-.97-.22-1.99-.31-2.99-.32-3.29-.04-6.59-.01-9.88-.01h-.91v-4.91c.1-.03.2-.09.3-.09,4.82.03,9.63-.02,14.45.14,1.39.05,2.84.52,4.13,1.11,2.46,1.12,3.6,3.3,3.92,5.9.14,1.18.14,2.39.15,3.58.02,4.16,0,8.33,0,12.49v.87ZM89.75,25.48c-.2-.02-.35-.04-.51-.04-2.48,0-4.95,0-7.43.01-.57,0-1.14.07-1.69.2-1.09.25-1.65.96-1.73,2.08-.12,1.8.55,2.59,2.38,2.62,2.83.05,5.66.02,8.49.03.15,0,.31-.03.49-.04v-4.85Z"/>
      <path class="cls-3" d="M178.6,11.2v4.98c-.32,0-.61,0-.9,0-3.65,0-7.3,0-10.94.02-.81,0-1.63.1-2.42.29-.93.22-1.3.82-1.32,1.81-.02,1.05.34,1.67,1.25,1.95.59.18,1.23.26,1.84.27,2.15.04,4.3,0,6.45.05.83.02,1.69.15,2.49.37,2.8.75,4.41,2.67,4.75,5.66.2,1.73,0,3.43-.78,5.01-1.12,2.26-2.95,3.59-5.49,3.62-5.44.07-10.89.02-16.34.02-.08,0-.16-.02-.29-.04v-5h.9c4.11,0,8.22,0,12.33,0,.54,0,1.09-.04,1.62-.14,1.36-.26,1.92-.94,1.9-2.22-.01-1.22-.67-1.99-1.97-2.19-.75-.11-1.52-.12-2.28-.14-2.64-.07-5.28,0-7.91-.23-3.06-.25-4.52-1.68-4.89-4.71-.18-1.43-.13-2.95.14-4.37.53-2.82,2.51-4.28,5.24-4.77.99-.18,2-.27,3-.27,4.36-.03,8.71-.01,13.07-.01.16,0,.32.03.54.05Z"/>
      <path class="cls-3" d="M154.86,35.23c-3.81-.04-7.62.08-11.42-.16-5.58-.36-9.28-4.15-9.62-9.75-.12-1.96-.06-3.99.3-5.91.86-4.53,3.95-7.37,8.53-7.98,1.85-.24,3.74-.24,5.61-.28,2.23-.04,4.46-.01,6.74-.01v5.03c-.26,0-.55,0-.83,0-3.18.04-6.37,0-9.55.14-2.68.11-3.88,1.54-3.83,4.24.06.04.11.08.17.13h14.06v5.06h-14.18c-.25,2.6.82,4.06,3.34,4.31,1.81.18,3.64.13,5.46.15,1.77.02,3.53,0,5.37,0v4.9c-.05.04-.11.09-.16.13Z"/>
      <path class="cls-2" d="M95.79,11.14h2.1c1.39,0,2.78.05,4.16-.02.68-.03.93.24,1.16.82,2.07,5.37,4.17,10.73,6.32,16.24.17-.36.29-.6.39-.85,2.13-5.14,4.27-10.28,6.38-15.43.22-.55.48-.79,1.11-.77,1.98.05,3.97.02,6.04.02-.13.34-.22.62-.34.88-3.32,7.5-6.66,14.99-9.96,22.49-.26.59-.57.78-1.21.76-1.8-.05-3.59-.03-5.39,0-.43,0-.67-.1-.86-.53-3.22-7.66-6.46-15.31-9.69-22.96-.07-.17-.12-.34-.22-.63Z"/>
      <path class="cls-7" d="M13.85,35.2v-5.79c3.15-.04,6.02-.75,8.16-3.21,2.12-2.43,2.52-5.39,2.43-8.51h5.22v17.51h-15.82Z"/>
      <path class="cls-3" d="M31.63,20.77h-1.28v-3.63h-5.99c-.69-3.99-2.82-6.73-6.73-7.9V2.38h14v18.39Z"/>
      <path class="cls-3" d="M131.65,35.23h-6.42V11.2h6.56c.02.18.06.36.06.55,0,7.65,0,15.3,0,22.95,0,.13-.02.27-.04.4l-.16.13Z"/>
      <path class="cls-5" d="M8.17,0h8.84v9.06h-8.84V0Z"/>
      <path class="cls-4" d="M.27,29.67c-.75-2.2.29-3.4,2.21-4.19.84-.35,1.61-1.21,2.42-1.23.77-.01,1.56.77,2.33,1.23.79.47,1.85.8,2.26,1.51.39.67.12,1.74.11,2.64,0,.95.26,2.06-.15,2.79-.39.7-1.48,1.02-2.28,1.48-.77.45-1.55,1.21-2.34,1.22-.75.01-1.47-.85-2.26-1.19-1.92-.83-3.13-2-2.3-4.27Z"/>
      <path class="cls-3" d="M9.55,26.23c-1.19-.7-2.3-1.33-3.37-2.01-.18-.11-.35-.42-.35-.63-.02-6.09-.02-12.18-.02-18.33h1.76v4.36h1.98v16.61Z"/>
      <path class="cls-2" d="M13.25,29.42v6.33h3.41c-.1.34-.15.58-.24.79-.05.12-.19.19-.28.29-.79.79-1.45,1.89-2.4,2.28-.98.4-2.25.14-3.39.11-.34-.01-.73-.17-.98-.4-.7-.64-1.37-1.32-2-2.04-.22-.26-.34-.64-.42-.99-.18-.83.14-1.4.96-1.68,1.84-.63,2.63-1.88,2.22-3.83-.05-.26,0-.53,0-.85h3.13Z"/>
      <path class="cls-3" d="M125.22,8.39V2.46h6.58v5.93h-6.58Z"/>
      <path class="cls-6" d="M140.97,20.69c-.06-.04-.11-.08-.17-.13.06.04.11.08.17.13Z"/>
      <path class="cls-1" d="M131.65,35.23l.16-.13-.16.13Z"/>
      <path class="cls-1" d="M154.86,35.23c.05-.04.11-.09.16-.13-.05.04-.11.09-.16.13Z"/>
      <path class="cls-6" d="M47.53,29.38s.1.09.15.13c-.05-.04-.1-.09-.15-.13Z"/>
    </g>
  </g>
</svg>