<?xml version="1.0" encoding="UTF-8"?>
<svg id="Layer_2" data-name="Layer 2" xmlns="http://www.w3.org/2000/svg" viewBox="0 0 178.46 68.92">
  <defs>
    <style>
      .cls-1 {
        fill: #295ca8;
      }

      .cls-1, .cls-2 {
        fill-rule: evenodd;
      }

      .cls-2 {
        fill: #231f20;
      }
    </style>
  </defs>
  <g id="Layer_1-2" data-name="Layer 1">
    <g id="layer1">
      <g id="g143">
        <g id="g145">
          <g id="g151">
            <g id="g153">
              <path id="path159" class="cls-2" d="M157.98,21.49v6.39c0,.71.12.95.59.95.83.12,1.66.12,3.08.12,2.13,0,4.97-1.18,4.97-4.97s-2.6-7.45-7.22-7.45c-.95,0-1.06.24-1.18.71-.24.35-.24,1.3-.24,4.26ZM153.84,34.14v-10.41c0-2.37-.24-3.9-.24-5.09-.12-.83-.35-1.18-.47-1.42-.47-.47-1.89-.71-3.19-.83-.83-.12-.83-.71,0-.83.95-.12,6.27-.83,10.41-.83,9.82-.24,10.29,5.56,10.29,7.45,0,2.72-1.54,4.85-2.72,5.56l-1.3.83c-.35.24-.47.35-.24.95,2.25,4.73,5.44,8.87,7.69,10.65,2.13,1.77,3.9,2.25,4.14,2.37s.35.47.12.47c-.24.12-1.42.35-2.72.35-2.48,0-4.97-.83-6.39-2.13-2.48-2.37-4.14-5.44-6.15-9.23-.59-1.3-1.06-1.42-1.77-1.3-.95.12-2.01.24-3.08.24-.35,0-.35.12-.35,1.42v2.72c0,2.13.12,2.84.24,3.67.35,2.13.83,2.72,3.79,3.55.71.24.71.83-.12.83-1.77,0-3.67-.24-5.56-.24-2.01,0-4.02.24-5.8.24-.71,0-.83-.71-.12-.83,2.48-.71,3.08-1.18,3.31-3.08.12-.95.24-2.6.24-5.09"/>
              <path id="path161" class="cls-2" d="M128.89,32.49v-7.1c0-3.9,0-5.2-.24-6.86-.24-1.66-1.66-2.48-3.31-2.84-.71-.24-.71-.95.12-.95,2.13,0,3.67.24,5.68.24h6.74c3.43,0,5.68-.12,6.27-.24.35-.24.59-.24.71-.24s.35.12.24.47c-.35,1.54-.47,4.02-.35,5.68.12.83-.83.95-.95.24-.24-1.42-1.3-2.96-2.48-3.19-1.3-.35-2.48-.47-4.85-.47h-1.66c-1.42,0-1.54.12-1.66,1.18-.12.59-.12,2.37-.12,4.38v3.55c0,.83,0,.71,1.42.83h1.42c3.67,0,5.2-.24,5.8-.35.83-.24,1.3-.83,1.54-1.18s.71-.24.59.24c-.12,1.06-.35,2.72-.35,6.62,0,.47-.71.59-.83.12-.12-.35-.24-.95-.71-1.66-.71-1.06-2.25-1.54-5.68-1.54h-2.01c-.95,0-1.18.12-1.18.83v3.08c0,4.61.12,6.27.59,6.98.47.71,1.89.83,4.49.83,1.54,0,3.19-.12,4.14-.24.95-.12,1.77-.59,2.48-1.3.47-.71.95-1.66,1.18-2.48.24-.47.83-.47.83.12,0,.71-.24,3.19-.71,5.09-.24.83-.59.95-2.37.95l-13.6-.24c-1.89,0-3.67.24-6.03.24-.71,0-.71-.83-.24-.83,2.25-.47,4.26-.83,4.73-2.72.24-.71.35-2.13.35-7.22"/>
              <path id="path163" class="cls-2" d="M103.93,15.1h9.11l4.73-.12c1.18-.12,2.48-.47,3.31-1.06.35-.24.83-.12.71.35-.71,1.77-.71,3.55-.83,5.91-.12.59-.71.71-.95.12-.47-1.18-.95-2.37-2.6-2.72-1.06-.24-2.6-.47-5.68-.47-.83,0-.95.24-.95.71-.12.59-.24,2.96-.24,7.22v6.27c0,4.38,0,6.03.24,7.69.35,2.13,1.42,2.48,4.02,3.31.71.24.59.83-.24.83-2.25,0-3.9-.24-6.51-.24-2.01,0-3.43.24-6.15.24-.83,0-.83-.71-.12-.83,2.25-.71,4.14-.95,4.38-2.72.12-.95.35-2.96.35-7.92v-6.51c0-4.73-.12-6.15-.12-6.74,0-1.06-.12-1.3-.95-1.3-1.3,0-5.56-.12-7.1.71-.95.59-1.66,1.89-1.89,2.72-.24.71-.95.47-.95-.24,0-.59.35-3.19.35-6.03,0-.83.47-.83.83-.47s.95.59,1.66.83c.59.36,1.89.47,5.56.47"/>
              <path id="path165" class="cls-2" d="M75.3,32.49v-7.1c0-3.9,0-5.2-.24-6.86-.24-1.66-1.66-2.48-3.31-2.84-.71-.24-.71-.95.12-.95,2.13,0,3.67.24,5.68.24h6.74c3.43,0,5.68-.12,6.27-.24.35-.24.59-.24.71-.24s.35.12.24.47c-.35,1.54-.47,4.02-.35,5.68.12.83-.83.95-.95.24-.24-1.42-1.3-2.96-2.48-3.19-1.3-.35-2.48-.47-4.85-.47h-1.66c-1.42,0-1.54.12-1.66,1.18-.12.59-.12,2.37-.12,4.38v3.55c0,.83,0,.71,1.42.83h1.42c3.67,0,5.2-.24,5.8-.35.83-.24,1.3-.83,1.54-1.18s.71-.24.59.24c-.12,1.06-.35,2.72-.35,6.62,0,.47-.71.59-.83.12-.12-.35-.24-.95-.71-1.66-.71-1.06-2.25-1.54-5.68-1.54h-2.01c-.95,0-1.18.12-1.18.83v3.08c0,4.61.12,6.27.59,6.98.47.71,1.89.83,4.49.83,1.54,0,3.19-.12,4.14-.24.95-.12,1.77-.59,2.48-1.3.47-.71.95-1.66,1.18-2.48.24-.47.83-.47.83.12,0,.71-.24,3.19-.71,5.09-.24.83-.59.95-2.37.95l-13.6-.24c-1.89,0-3.67.24-6.03.24-.71,0-.71-.83-.24-.83,2.25-.47,4.26-.83,4.73-2.72.12-.71.35-2.13.35-7.22"/>
              <path id="path167" class="cls-2" d="M11.67,32.49v-7.1c0-3.9,0-5.2-.24-6.86-.24-1.66-1.66-2.48-3.31-2.84-.71-.24-.71-.95.12-.95,2.13,0,3.67.24,5.68.24h6.62c3.43,0,5.68-.12,6.27-.24.35-.24.59-.24.71-.24s.35.12.24.47c-.35,1.54-.47,4.02-.35,5.68.12.83-.83.95-.95.24-.24-1.42-1.3-2.96-2.48-3.19-1.3-.35-2.48-.47-4.85-.47h-1.66c-1.42,0-1.54.12-1.66,1.18-.12.59-.12,2.37-.12,4.38v3.55c0,.83,0,.71,1.42.83h1.42c3.67,0,5.2-.24,5.8-.35.83-.24,1.3-.83,1.54-1.18.24-.35.71-.24.59.24-.12,1.06-.35,2.72-.35,6.62,0,.47-.71.59-.83.12-.12-.35-.24-.95-.71-1.66-.71-1.06-2.25-1.54-5.68-1.54h-2.01c-.95,0-1.18.12-1.18.83v3.08c0,4.61.12,6.27.59,6.98.47.71,1.89.83,4.49.83,1.54,0,3.19-.12,4.14-.24.95-.12,1.77-.59,2.48-1.3.47-.71.95-1.66,1.18-2.48.24-.47.83-.47.83.12,0,.71-.24,3.19-.71,5.09-.24.83-.59.95-2.37.95l-13.6-.24c-1.89,0-3.67.24-6.03.24-.71,0-.71-.83-.24-.83,2.25-.47,4.26-.83,4.73-2.72.24-.71.47-2.13.47-7.22"/>
              <path id="path169" class="cls-1" d="M15.92.31c10.65.35,18.69,6.15,27.44,17.03,2.48,3.08,4.97,6.51,7.22,9.82.35.35.47.35,1.18-.47,1.77-2.37,3.55-4.85,4.97-7.33,1.18-2.37.59-2.84-2.25-3.9-.95-.24-.83-1.06.12-1.06,2.96,0,4.73.24,6.62.24,2.01,0,3.9-.24,6.03-.24.95,0,.95.83.12,1.06-4.26,1.54-4.73,1.89-7.81,5.32-2.84,3.19-4.73,5.56-6.86,8.16-.35.47-.35.71.12,1.18,4.49,6.39,8.4,12.18,13.25,18.1,8.99,11,17.51,17.51,26.97,17.51,6.51,0,9.23-2.01,11-4.26,1.06-1.42,1.42-2.72,1.89-3.9.24-.59.59-.47.95-.12.35.35.35.83.24,1.54-2.6,7.1-9.46,9.94-16.44,9.94-12.42,0-21.65-8.99-27.91-16.32-3.31-4.02-5.44-7.22-7.57-10.17l-5.68-8.28c-.35-.47-.47-.59-.83-.12-1.42,1.89-4.73,6.39-6.86,9.94-2.01,3.43-1.06,3.67,1.66,4.73.95.35.95,1.06-.12,1.06-2.01,0-4.14-.24-6.27-.24-2.01,0-3.67.24-5.56.24-.95,0-.95-.71-.12-1.06,4.38-1.54,4.73-2.13,9.46-7.92l6.27-8.04c.71-.83.71-.95.35-1.54-3.9-5.56-8.99-12.66-13.25-17.03C26.69,6.35,19.59,2.8,12.14,2.8,5.28,2.8,2.68,6.82,2.09,10.96c-.12.95-.83,1.06-1.3.71-.59-.35-1.06-1.3-.59-2.6.47-1.3,1.77-3.19,3.9-4.85C7.17,1.73,10.48.31,15.92.31"/>
              <path id="path171" class="cls-2" d="M165.55,5.4v-2.01c0-.95,0-1.42-.12-1.77-.12-.71-.47-.95-1.06-1.06-.12,0-.12-.24,0-.24h4.14c.47,0,1.06,0,1.3-.12q.12,0,.12.12c-.12.47-.12,1.18-.12,1.66,0,.24-.24.24-.24,0,0-.35-.24-.83-.71-.95-.35-.12-.71-.12-1.42-.12h-.59c-.24,0-.24.12-.35.24v2.48q0,.24.35.24h.47c.95,0,1.42,0,1.54-.12.24,0,.35-.12.47-.24.12-.12.24-.12.24,0,0,.35-.12.83-.12,1.89,0,.12-.24.12-.24,0s-.12-.35-.24-.59c-.24-.35-.71-.47-1.66-.47h-.12q-.47,0-.47.24v.59c0,1.3,0,1.66.12,2.01s.47.59,1.18.83c.12,0,.12.24-.12.24h-3.43c-.24,0-.24-.24,0-.24.47-.12.83-.35.95-.71.12-.12.12-.47.12-1.89ZM156.8,8.12c1.89,0,2.48-1.54,2.48-3.31,0-2.13-.95-3.9-3.08-3.9-1.89,0-2.48,1.89-2.48,3.43,0,1.89.95,3.79,3.08,3.79ZM156.8.2c2.37,0,3.79,1.77,3.79,4.02,0,1.3-.35,2.25-1.06,2.96-.83.83-2.01,1.42-3.31,1.42-2.25,0-3.9-1.66-3.9-4.14,0-1.18.35-2.37,1.42-3.19.83-.59,2.01-1.06,3.08-1.06ZM139.65,5.28v.95c0,.71,0,1.18.12,1.3.12.35.35.47.95.71.12,0,.12.24,0,.24h-3.43c-.24,0-.24-.24,0-.24.35-.12.83-.24,1.06-.47.12-.12.24-.47.24-1.3v-.95c0-.35,0-.59-.24-.83-.47-.95-.95-1.77-1.54-2.72s-.71-1.18-1.3-1.3c-.24,0-.24-.24,0-.24h2.84c.24,0,.24.24,0,.24-.71.24-.83.24-.47.95.35.59.83,1.66,1.42,2.48q.12.12.24,0c.35-.59,1.06-1.66,1.3-2.37.24-.59.12-.71-.47-.95-.12,0-.12-.24.12-.24h2.48c.24,0,.24.24,0,.24-.83.35-.95.47-1.54,1.18-.71.83-1.42,2.01-1.66,2.6,0,.24-.12.47-.12.71ZM126.64.43h3.9c.35,0,.71-.12.95-.35.12-.12.24,0,.24.12-.24.47-.24.95-.24,1.66,0,.12-.24.24-.24,0-.12-.35-.24-.71-.71-.83-.35-.12-.71-.12-1.66-.12q-.24,0-.24.24c0,.12-.12.83-.12,2.01v3.9c.12.59.35.71,1.18.95.24,0,.12.24-.12.24h-3.67c-.24,0-.24-.24,0-.24.71-.24,1.18-.24,1.18-.83,0-.24.12-.83.12-2.25V1.14q0-.35-.24-.35c-.35,0-1.54,0-2.01.24-.24.12-.47.59-.59.83,0,.24-.24.12-.24,0s.12-.95.12-1.66c0-.24.12-.24.24-.12.12.12.24.12.47.24.24.12.59.12,1.66.12ZM118,5.28v-1.66c0-1.18,0-1.89-.12-2.25-.12-.47-.47-.59-.95-.71-.12,0-.12-.24.12-.24h2.96c.24,0,.24.24,0,.24-.35.12-.71.24-.83.71s-.12,1.18-.12,2.25v1.66c0,1.18,0,1.77.12,2.25s.47.59.95.71c.12,0,.12.24,0,.24h-3.08c-.24,0-.24-.24,0-.24.35,0,.83-.24.83-.59.12-.59.12-1.18.12-2.37ZM110.91.2c.71,0,1.06.24,1.3.35.24.12.24.35.24.35v1.06c0,.24-.24.24-.24,0,0-.12-.12-.35-.35-.71-.35-.35-.71-.59-1.3-.59s-1.06.47-1.06,1.18c0,1.06.71,1.42,1.54,1.66,1.06.35,2.01.83,2.01,2.13,0,1.06-.71,1.77-1.18,2.13-.59.47-1.18.59-1.89.59-.59,0-1.06-.12-1.42-.35s-.59-.47-.59-.71c0-.12,0-.35.12-.47.12-.12.24-.59.35-.71,0-.12.24-.12.24,0s0,.24.12.59c.24.47,1.06.95,1.77.95.83,0,1.42-.47,1.42-1.42s-.71-1.42-1.77-1.77c-1.3-.47-1.89-1.06-1.89-2.01,0-.47.12-1.06.71-1.66.35-.12,1.06-.59,1.89-.59ZM98.72,2.33v1.77q0,.24.12.24h.83c.59,0,1.42-.35,1.42-1.42,0-1.18-.71-2.13-2.01-2.13-.24,0-.35,0-.35.24v1.3ZM97.54,5.87v-2.96c0-.71,0-1.18-.12-1.42,0-.24-.12-.35-.12-.35-.12-.12-.59-.24-.95-.24-.24,0-.24-.24,0-.24s1.77-.24,2.96-.24c2.84-.12,2.96,1.54,2.96,2.13,0,.83-.47,1.42-.83,1.54l-.35.24c-.12,0-.12.12,0,.24.59,1.3,1.54,2.48,2.25,3.08.59.47,1.06.59,1.18.71.12,0,.12.12,0,.12s-.35.12-.83.12c-.71,0-1.42-.24-1.89-.59-.71-.71-1.18-1.54-1.77-2.6-.12-.35-.35-.35-.47-.35h-.83q-.12,0-.12.35v1.89c.12.59.24.83,1.06.95.24,0,.24.24,0,.24h-3.19c-.24,0-.24-.24,0-.24.71-.24.83-.35.95-.83,0-.35.12-.83.12-1.54ZM87.37,5.4v-2.01c0-1.18,0-1.54-.12-2.01s-.47-.71-.95-.83c-.24,0-.24-.24,0-.24h3.55c.95,0,1.66,0,1.77-.12.12,0,.12-.12.24-.12,0,0,.12,0,.12.12-.12.47-.12,1.18-.12,1.66,0,.24-.24.24-.24,0-.12-.35-.35-.83-.71-.95s-.71-.12-1.42-.12h-.47c-.35,0-.47,0-.47.35v2.37q0,.24.35.24h.35c1.06,0,1.42,0,1.66-.12s.35-.24.47-.35c0-.12.24,0,.12.12,0,.35-.12.83-.12,1.89,0,.12-.24.12-.24,0s-.12-.24-.24-.47c-.24-.35-.71-.47-1.66-.47h-.59c-.24,0-.35,0-.35.24v.83c0,1.3,0,1.77.12,2.01s.59.24,1.3.24c.47,0,.95,0,1.18-.12.24,0,.47-.12.71-.35.12-.24.24-.47.35-.71,0-.12.24-.12.24,0,0,.24-.12.95-.24,1.42,0,.24-.12.24-.71.24h-5.68c-.24,0-.24-.24,0-.24.59-.12,1.18-.24,1.3-.83.47.24.47-.12.47-1.66ZM80.51,3.03l-1.54,3.55c-.35.71-.47,1.18-.59,1.42-.24.59-.47.71-.59.71s-.12-.12-.24-.24l-.83-2.37-1.42-3.79c-.47-1.18-.59-1.42-1.06-1.66l-.35-.12c-.12-.12-.24-.24,0-.24h3.08c.24,0,.24.24,0,.24l-.47.24c-.47.24-.35.59-.12,1.3.59,1.54,1.18,3.08,1.66,4.38q.12.24.35,0c.59-1.18,1.54-3.67,1.77-4.49s.12-1.06-.47-1.3l-.24-.12c-.12,0-.12-.24,0-.24h2.84c.24,0,.24.12,0,.24l-.35.24c-.35.24-.71.71-1.42,2.25ZM67.73,5.28v-1.66c0-1.18,0-1.89-.12-2.25-.12-.47-.47-.59-.95-.71-.12,0-.12-.24.12-.24h2.96c.24,0,.24.24,0,.24-.35.12-.71.24-.83.71-.12.47-.12,1.18-.12,2.25v1.66c0,1.18,0,1.77.12,2.25s.47.59.95.71c.12,0,.12.24,0,.24h-3.08c-.24,0-.24-.24,0-.24.35,0,.83-.24.83-.59.12-.59.12-1.18.12-2.37ZM61.58,4.45v3.67c0,.35-.12.35-.24.35s-.35-.12-.47-.24c-.24-.24-.35-.35-.47-.47l-4.61-5.56s-.12,0-.12.12v2.84c0,2.25.35,2.48.71,2.6l.59.24c.12,0,.12.24-.12.24h-2.84c-.24,0-.24-.12-.12-.24l.35-.12c.35-.12.59-.35.71-.59.12-.35.12-1.54.12-2.96v-2.01c0-.83-.12-.95-.24-1.18-.24-.35-.71-.59-1.18-.71-.12,0-.12-.24,0-.24.47,0,.95.12,1.42.12h.47c.24,0,.35,0,.35.12,0,.24.12.47.47.83.47.71,2.13,2.6,4.26,4.97q.12.12.12,0v-1.89c0-1.18,0-1.77-.12-2.48-.12-.83-.35-1.06-1.18-1.3-.24,0-.12-.24,0-.24h2.96c.24,0,.24.12,0,.24-.47.24-.83.35-.95,1.06.24.59.12,1.66.12,2.84ZM42.54,5.64v-3.08c0-1.06,0-1.18-.12-1.42s-.47-.35-.83-.47c-.12,0-.12-.24,0-.24h3.08c.24,0,.24.24,0,.24-.35.12-.59.24-.71.35-.24.35-.35,1.3-.35,2.6v1.42c0,1.06.24,1.77.71,2.13.35.35.95.71,1.77.71.47,0,1.06,0,1.54-.47s.71-1.3.71-3.08v-1.42c0-.83-.12-1.3-.24-1.54-.12-.35-.47-.47-1.06-.71-.12,0-.12-.24,0-.24h2.84c.24,0,.24.24,0,.24-.35.12-.59.24-.71.59-.12.24-.12.59-.24,1.42l-.12,2.25c-.12,2.25-1.42,3.79-3.67,3.79-1.06,0-1.89-.35-2.37-.95-.12-.47-.24-1.06-.24-2.13"/>
            </g>
          </g>
        </g>
      </g>
    </g>
  </g>
</svg>