<?xml version="1.0" encoding="UTF-8"?>
<svg id="Layer_2" data-name="Layer 2" xmlns="http://www.w3.org/2000/svg" viewBox="0 0 179.58 31.48">
  <defs>
    <style>
      .cls-1 {
        fill: #cd1640;
      }

      .cls-2 {
        fill: #3d2b57;
      }
    </style>
  </defs>
  <g id="Layer_1-2" data-name="Layer 1">
    <g>
      <g>
        <rect class="cls-1" x="6.32" y="21.42" width="2.8" height=".76"/>
        <rect class="cls-1" y="21.42" width="2.96" height=".76"/>
        <path class="cls-1" d="M0,0v.64c1,0,1.97,0,2.96,0v21.54h3.37v-10.79h3.44c.37.05.65.18.86.3,1.01.61,1.06,2,1.1,3.61h.64V6.19h-.64c.06,1.96.01,3.51-1.1,4.04-.21.1-.48.18-.83.18h-3.47V.64c1.57,0,3.13,0,4.73,0,.54,0,1.08.13,1.55.38.52.28,1.13.7,1.68,1.37,1.22,1.47,1.36,3.08,1.38,3.62h.64V0H0Z"/>
      </g>
      <g>
        <circle class="cls-1" cx="20.75" cy="2.23" r="2.04"/>
        <polygon class="cls-1" points="22.49 21.42 22.49 10.11 22.49 9.88 22.49 9.12 17.3 9.12 17.3 10.11 19.38 10.11 19.38 21.42 17.3 21.42 17.3 22.18 19.38 22.18 22.49 22.18 24.49 22.18 24.49 21.42 22.49 21.42"/>
      </g>
      <path class="cls-1" d="M33.43,19.49c-.25,1.08-1.18,1.78-2.08,1.7-.92-.08-1.43-.94-1.48-1.02v-10.18h3.37v-.87h-3.33V3.9h-.53c-.16.66-.56,1.89-1.59,3.1-1.07,1.26-2.28,1.86-2.91,2.12v.87h2.01v10.18c.14.4.47,1.12,1.17,1.7,1.11.91,3,1.35,4.43.38,1.34-.91,1.49-2.52,1.51-2.76h-.57Z"/>
      <path class="cls-1" d="M38.08,17.85l.2-6.36c1.07-2.1,4.48-2.71,5.52-.83-.46.34-.79.91-.79,1.58,0,1.06.75,1.92,1.67,1.92s1.67-.86,1.67-1.92c0-.57-.22-1.06-.56-1.41h0c-1.93-2.62-5.91-3.23-9.39,0-2.55,3.24-2.42,6.67,0,9.95,3.23,3.48,9.94,2.02,9.94-2.83l-.81-.1c-.4,4.95-8.48,5.25-7.47,0Z"/>
      <path class="cls-1" d="M61.34,21.42v-8.65c0-3.65-4.84-5.81-9.03-2.09V0h-5.22v.72h2.04v20.71h-1.93v.76h7.04v-.76h-1.93v-8.42c1.67-3.89,5.35-4.64,5.85-.24v8.65h-1.93v.76h7.04v-.76h-1.93Z"/>
      <g>
        <polygon class="cls-2" points="71.2 .84 74.01 .84 74.01 .17 64.87 .17 64.87 .84 67.68 .84 67.68 21.64 71.2 21.64 71.2 .84"/>
        <path class="cls-2" d="M81.34,15.43c.02.38.12,2.89-1.82,4.71-1.23,1.15-2.63,1.42-3.2,1.49h-11.45v.67h16.72v-.67c.11-2.07.22-4.14.33-6.21h-.58Z"/>
      </g>
      <path class="cls-2" d="M87.56,19.68l-.11-4.92,8.73.06c-.21-3.17-2.64-5.68-5.55-5.96-3.48-.33-6.22,2.85-6.66,5.96-.49,3.42,1.8,6.78,4.81,7.62.21.06,3.48.91,5.64-1.29,1.17-1.2,1.4-2.67,1.46-3.26h-.81c-1.29,4.4-5.96,5.53-7.51,1.78ZM87.39,12.2c0-3.5,5.25-3.5,5.25,0v2.07h-5.25v-2.07Z"/>
      <path class="cls-2" d="M109.81,21.08c-.16.51-.65.77-1.02.64-.25-.08-.44-.34-.49-.64h-.09v-9.82h0c-.26-.47-.93-1.53-2.22-2.07-.79-.33-1.45-.32-2.3-.3-.97.02-2.37.04-3.68.96-.69.48-1.12,1.04-1.36,1.41h.03c-.27.28-.44.67-.44,1.09,0,.87.71,1.58,1.58,1.58s1.58-.71,1.58-1.58c0-.48-.23-.9-.56-1.19.36-.93,1.25-1.56,2.25-1.54,1.01.02,1.9.68,2.22,1.64v3.76c-1.09-.1-2.83-.08-4.66.76-1.23.56-2.61,1.19-3.03,2.65-.4,1.37.21,2.97,1.25,3.75,1.59,1.18,4.54.68,6.43-1.78v.68c.05.09.87,1.5,2.54,1.59,1.59.08,2.53-1.11,2.61-1.21-.21-.13-.43-.25-.64-.38ZM105.31,19.15c-.45,1.2-1.57,1.94-2.7,1.84-.95-.08-1.93-.77-2.11-1.69-.24-1.27,1.19-2.28,1.7-2.65,1.24-.88,2.57-.92,3.1-.9v3.4Z"/>
      <path class="cls-2" d="M120.83,9.08c-1.33-.46-3.29.59-4.32,2.84v-2.61h-5.15v.91h2.12v11.43h-2.12v.7h7.27v-.7h-2.12v-5.19c.04-.58.14-1.47.42-2.54.36-1.36,1.19-3.68,1.85-3.6.08.01.19.06.3.23-.02,1.29,1.06,2.14,1.89,2.01.71-.12,1.37-.96,1.29-2.01-.52-1.12-1.24-1.41-1.44-1.48Z"/>
      <path class="cls-2" d="M136.87,21.63v-9.7h.03c-.17-.44-.83-1.98-2.44-2.7-1.92-.85-4.42-.18-6.07,1.76v-1.56h-5.07v.72h2.01v11.48h-2.01v.72h7.17v-.72h-2.1v-8.6c.05-.13.09-.24.16-.38.72-1.37,2.43-3.2,3.82-2.74.92.3,1.31,1.47,1.46,2.01h-.03v9.7h-2.05v.72h7.17v-.72h-2.05Z"/>
      <g>
        <circle class="cls-2" cx="143.71" cy="2.4" r="2.04"/>
        <polygon class="cls-2" points="145.45 21.59 145.45 10.27 145.45 10.05 145.45 9.29 140.26 9.29 140.26 10.27 142.35 10.27 142.35 21.59 140.26 21.59 140.26 22.35 142.35 22.35 145.45 22.35 147.46 22.35 147.46 21.59 145.45 21.59"/>
      </g>
      <path class="cls-2" d="M162.35,21.63v-9.7h.03c-.17-.44-.83-1.98-2.44-2.7-1.92-.85-4.42-.18-6.07,1.76v-1.56h-5.07v.72h2.01v11.48h-2.01v.72h7.17v-.72h-2.1v-8.6c.05-.13.09-.24.16-.38.72-1.37,2.43-3.2,3.82-2.74.92.3,1.31,1.47,1.46,2.01h-.03v9.7h-2.05v.72h7.17v-.72h-2.05Z"/>
      <path class="cls-2" d="M177.33,11.58c.03.05.35.53.95.58.57.04.94-.33.99-.38.1-.18.35-.65.3-1.29-.04-.43-.2-.75-.3-.93-.33-.31-.66-.43-.86-.48-.89-.22-1.91.24-2.62,1.16,0,0,0,0,.01.01-.98-.86-2.34-1.39-3.83-1.39-3.01,0-5.44,2.14-5.44,4.78,0,1.59.89,2.99,2.25,3.86-2.34.96-3.45,3.2-2.91,4.84.37,1.11,1.4,1.7,2.03,1.98h0c-.11.05-1.98.87-2.21,2.66-.21,1.67,1.16,2.84,1.63,3.24,1.6,1.37,3.62,1.28,4.83,1.23,1.23-.05,2.97-.13,4.52-1.38,1.57-1.27,3.02-3.83,2.1-6.11-.56-1.38-1.75-2.09-2.29-2.37h-8.06c-.93-.27-1.09-.68-1.12-.81-.13-.47.33-1.03,1.26-2.12.31-.36.57-.65.77-.85,0-.01-.02-.02-.03-.03.79.4,1.7.64,2.68.64,3.01,0,5.44-2.14,5.44-4.78,0-1.27-.57-2.41-1.49-3.27.14.14.28.29.42.43,0-.27.17-.5.4-.59.27-.1.52.04.55.06-.06.17-.14.47-.09.83.02.19.07.35.12.47ZM176.47,24.52c.71.39.99.83,1.1,1.17.51,1.53-1.42,3.74-3.5,4.47-2.05.71-5.23.32-6.06-1.78-.69-1.75.67-3.64.83-3.85h7.63ZM174.17,16.15c-.29,1.03-1.25,1.72-2.28,1.66-.95-.05-1.79-.72-2.06-1.66v-4.75c.17-1.15,1.19-1.98,2.3-1.92,1.02.06,1.89.86,2.04,1.92v4.75Z"/>
    </g>
  </g>
</svg>