<?xml version="1.0" encoding="UTF-8"?>
<svg id="Layer_2" data-name="Layer 2" xmlns="http://www.w3.org/2000/svg" viewBox="0 0 50.84 51.32">
  <defs>
    <style>
      .cls-1 {
        fill: #e3097e;
      }
    </style>
  </defs>
  <g id="Layer_1-2" data-name="Layer 1">
    <g>
      <path class="cls-1" d="M10.54,14.03v2.61h3.63c-.29,1.55-1.66,2.68-3.63,2.68-2.2,0-4-1.86-4-4.06s1.8-4.06,4-4.06c1,0,1.88.34,2.58,1.01l1.94-1.93c-1.17-1.1-2.69-1.76-4.52-1.76-3.73,0-6.75,3.01-6.75,6.74s3.02,6.74,6.75,6.74,6.49-2.74,6.49-6.59c0-.47-.04-.94-.12-1.38h-6.37Z"/>
      <path class="cls-1" d="M38.43,17.5c2.68,0,4.85-2.23,4.85-4.97s-2.18-4.97-4.85-4.97-4.85,2.23-4.85,4.97,2.18,4.97,4.85,4.97M38.43,9.1c1.85,0,3.34,1.54,3.34,3.42s-1.5,3.42-3.34,3.42-3.34-1.54-3.34-3.42,1.5-3.42,3.34-3.42"/>
      <path class="cls-1" d="M50.83,12.54v-.17c-.09-6.81-5.69-12.37-12.47-12.37-4,0-7.58,1.94-9.87,4.92v-.04H8.21C3.68,4.88,0,8.58,0,13.12v29.95c0,4.54,3.68,8.25,8.21,8.25h29.82c4.52,0,8.21-3.69,8.21-8.25v-19.34c2.39-3.51,4.6-6.88,4.6-11.19h0ZM44.54,44.59l-5.07-5.09c.16-.21.29-.45.31-.74.5-5.41,2.68-9.37,4.92-12.79v17.09c0,.52-.07,1.04-.18,1.52h.01ZM31.52,25.28c2.09,3.12,4.21,6.65,5.08,11.34l-8.18-8.22,3.11-3.12ZM38.35,1.81c5.98,0,10.8,4.7,10.96,10.67-.08,3.86-2.14,6.89-4.53,10.39-2.66,3.92-5.68,8.35-6.42,14.89-.74-6.55-3.76-10.97-6.42-14.9-2.38-3.5-4.44-6.53-4.53-10.35.16-6.01,4.98-10.71,10.96-10.71h0ZM1.51,13.12c0-3.7,3.01-6.73,6.7-6.73h19.29c-1,1.77-1.59,3.81-1.62,5.98v.17c0,2.42.7,4.53,1.73,6.55L1.8,45.01c-.18-.61-.29-1.27-.29-1.95V13.12ZM2.45,46.49l25.92-26.03c.7,1.19,1.49,2.35,2.29,3.54L5.54,49.24c-1.3-.57-2.37-1.53-3.09-2.75M8.21,49.79c-.34,0-.67-.03-1-.08l16.17-16.24,16.09,16.16c-.47.1-.95.16-1.45.16H8.21ZM41.04,49.07l-16.6-16.67,2.91-2.92,9.68,9.72c.15.36.43.66.79.8l6.14,6.17c-.64,1.25-1.67,2.27-2.92,2.91h0Z"/>
    </g>
  </g>
</svg>