<?xml version="1.0" standalone="no"?><!DOCTYPE svg PUBLIC "-//W3C//DTD SVG 1.1//EN" "http://www.w3.org/Graphics/SVG/1.1/DTD/svg11.dtd"><svg xmlns="http://www.w3.org/2000/svg" version="1.1" width="54px" height="73.8px" viewBox="0 -12 54 73.8" style="top:-12px">  <desc>81</desc>  <defs/>  <g id="Polygon107416">    <path d="M 13.4 15.9 C 15.5 15.9 17.3 14 17.3 11.4 C 17.3 9.1 16 6.9 13.5 6.9 C 10.8 6.9 9.6 9.3 9.6 11.4 C 9.6 14 11.5 15.9 13.4 15.9 Z M 13.4 30 C 16.1 30 18.1 28 18.1 25.1 C 18.1 22.3 16 20.3 13.4 20.3 C 10.8 20.3 8.7 22.3 8.7 25.1 C 8.7 28.1 10.8 30 13.4 30 Z M 24.3 10.9 C 24.3 13.8 23.3 16 20.3 17.9 C 23.5 19.7 25.2 22.6 25.2 25.8 C 25.2 29.6 22.4 34.9 13.4 34.9 C 4.5 34.9 1.6 29.7 1.6 25.8 C 1.6 22.7 3.2 19.7 6.5 17.9 C 3.6 15.9 2.6 13.8 2.6 10.9 C 2.6 6.9 5.8 1.8 13.4 1.8 C 21.1 1.8 24.3 6.7 24.3 10.9 Z M 46 1.8 L 46 34.5 L 38.5 34.5 L 38.5 12.4 L 33.8 16.1 L 29.7 11.1 L 41.1 1.8 L 46 1.8 Z " stroke="none" fill="#fff"/>  </g></svg>