<?xml version="1.0" standalone="no"?><!DOCTYPE svg PUBLIC "-//W3C//DTD SVG 1.1//EN" "http://www.w3.org/Graphics/SVG/1.1/DTD/svg11.dtd"><svg xmlns="http://www.w3.org/2000/svg" version="1.1" width="40px" height="59.6px" viewBox="0 -11 40 59.6" style="top:-11px">  <desc>85</desc>  <defs/>  <g id="Polygon145458">    <path d="M 5.8 12.3 C 4.5 11.8 3.6 11 3 10.1 C 2.4 9.1 2.1 8.1 2.1 7 C 2.1 5.1 2.8 3.5 4.1 2.2 C 5.5 1 7.4 0.3 9.8 0.3 C 12.3 0.3 14.2 1 15.5 2.2 C 16.9 3.5 17.6 5.1 17.6 7 C 17.6 8.2 17.3 9.2 16.6 10.2 C 16 11.1 15.2 11.8 14 12.3 C 15.5 12.9 16.5 13.7 17.3 14.8 C 18 15.9 18.4 17.2 18.4 18.6 C 18.4 21 17.6 22.9 16.1 24.4 C 14.6 25.9 12.6 26.7 10.1 26.7 C 7.7 26.7 5.8 26.1 4.2 24.8 C 2.4 23.4 1.5 21.4 1.5 18.8 C 1.5 17.4 1.8 16.2 2.5 15 C 3.2 13.8 4.3 12.9 5.8 12.3 Z M 6.8 7.3 C 6.8 8.3 7.1 9.1 7.6 9.6 C 8.2 10.2 8.9 10.5 9.8 10.5 C 10.8 10.5 11.5 10.2 12.1 9.6 C 12.7 9.1 12.9 8.3 12.9 7.3 C 12.9 6.4 12.7 5.6 12.1 5.1 C 11.5 4.5 10.8 4.3 9.9 4.3 C 8.9 4.3 8.2 4.5 7.6 5.1 C 7.1 5.7 6.8 6.4 6.8 7.3 Z M 6.3 18.4 C 6.3 19.7 6.7 20.8 7.4 21.6 C 8.1 22.3 8.9 22.7 10 22.7 C 11 22.7 11.8 22.3 12.5 21.6 C 13.2 20.9 13.5 19.8 13.5 18.4 C 13.5 17.2 13.2 16.2 12.5 15.5 C 11.8 14.8 11 14.4 9.9 14.4 C 8.7 14.4 7.8 14.8 7.2 15.7 C 6.6 16.5 6.3 17.4 6.3 18.4 Z M 21.6 19.6 C 21.6 19.6 26.5 19.1 26.5 19.1 C 26.7 20.2 27.1 21.1 27.8 21.7 C 28.5 22.4 29.3 22.7 30.2 22.7 C 31.2 22.7 32.1 22.3 32.8 21.4 C 33.5 20.6 33.9 19.3 33.9 17.6 C 33.9 16.1 33.5 14.9 32.8 14.1 C 32.1 13.3 31.2 12.9 30 12.9 C 28.6 12.9 27.4 13.5 26.2 14.8 C 26.23 14.78 22.2 14.2 22.2 14.2 L 24.7 0.8 L 37.8 0.8 L 37.8 5.4 L 28.5 5.4 C 28.5 5.4 27.72 9.79 27.7 9.8 C 28.8 9.2 29.9 9 31.1 9 C 33.3 9 35.1 9.8 36.7 11.4 C 38.2 12.9 39 15 39 17.6 C 39 19.7 38.3 21.6 37.1 23.2 C 35.4 25.5 33.1 26.6 30.1 26.6 C 27.7 26.6 25.8 26 24.3 24.7 C 22.8 23.5 21.9 21.7 21.6 19.6 Z " stroke="none" fill="#fff"/>  </g></svg>