<?xml version="1.0" standalone="no"?><!DOCTYPE svg PUBLIC "-//W3C//DTD SVG 1.1//EN" "http://www.w3.org/Graphics/SVG/1.1/DTD/svg11.dtd"><svg xmlns="http://www.w3.org/2000/svg" version="1.1" width="87px" height="31.9px" viewBox="0 -1 87 31.9" style="top:-1px">  <desc>Reliability</desc>  <defs/>  <g id="Polygon140283">    <path d="M 14.5 18.6 L 14.5 8.6 C 14.5 8.6 18.93 8.57 18.9 8.6 C 19.8 8.6 20.5 8.7 21 8.8 C 21.4 9 21.8 9.3 22.1 9.8 C 22.4 10.3 22.5 10.8 22.5 11.3 C 22.5 12 22.3 12.6 21.8 13.1 C 21.3 13.6 20.6 13.9 19.7 14 C 20 14.2 20.3 14.4 20.5 14.5 C 20.9 14.9 21.2 15.3 21.6 15.9 C 21.57 15.86 23.3 18.6 23.3 18.6 L 21.6 18.6 C 21.6 18.6 20.32 16.51 20.3 16.5 C 19.9 15.9 19.6 15.4 19.4 15.1 C 19.1 14.8 18.9 14.6 18.7 14.5 C 18.5 14.3 18.3 14.2 18.1 14.2 C 17.9 14.2 17.7 14.1 17.3 14.1 C 17.35 14.14 15.8 14.1 15.8 14.1 L 15.8 18.6 L 14.5 18.6 Z M 15.8 13 C 15.8 13 18.66 12.99 18.7 13 C 19.3 13 19.7 12.9 20.1 12.8 C 20.4 12.7 20.7 12.5 20.9 12.2 C 21 11.9 21.1 11.6 21.1 11.3 C 21.1 10.8 21 10.4 20.6 10.1 C 20.3 9.8 19.7 9.7 19 9.7 C 18.98 9.68 15.8 9.7 15.8 9.7 L 15.8 13 Z M 29.4 16.3 C 29.4 16.3 30.7 16.4 30.7 16.4 C 30.5 17.2 30.1 17.7 29.5 18.1 C 29 18.6 28.3 18.8 27.5 18.8 C 26.4 18.8 25.6 18.4 24.9 17.8 C 24.3 17.1 24 16.2 24 15 C 24 13.8 24.3 12.9 25 12.2 C 25.6 11.5 26.4 11.2 27.4 11.2 C 28.4 11.2 29.2 11.5 29.8 12.2 C 30.4 12.8 30.7 13.8 30.7 14.9 C 30.7 15 30.7 15.1 30.7 15.3 C 30.7 15.3 25.3 15.3 25.3 15.3 C 25.3 16.1 25.6 16.7 26 17.1 C 26.4 17.5 26.9 17.7 27.5 17.7 C 27.9 17.7 28.3 17.6 28.6 17.4 C 28.9 17.2 29.2 16.8 29.4 16.3 Z M 25.3 14.3 C 25.3 14.3 29.4 14.3 29.4 14.3 C 29.3 13.7 29.2 13.2 28.9 12.9 C 28.5 12.4 28 12.2 27.4 12.2 C 26.8 12.2 26.4 12.4 26 12.7 C 25.6 13.1 25.4 13.6 25.3 14.3 Z M 32.2 18.6 L 32.2 8.6 L 33.4 8.6 L 33.4 18.6 L 32.2 18.6 Z M 35.3 10 L 35.3 8.6 L 36.6 8.6 L 36.6 10 L 35.3 10 Z M 35.3 18.6 L 35.3 11.3 L 36.6 11.3 L 36.6 18.6 L 35.3 18.6 Z M 43.4 18.6 C 43.3 18.3 43.2 18 43.2 17.7 C 42.7 18.1 42.3 18.4 41.8 18.5 C 41.4 18.7 41 18.8 40.5 18.8 C 39.7 18.8 39.1 18.6 38.7 18.2 C 38.2 17.8 38 17.3 38 16.7 C 38 16.3 38.1 16 38.3 15.7 C 38.4 15.4 38.6 15.2 38.9 15 C 39.1 14.8 39.4 14.7 39.8 14.6 C 40 14.5 40.4 14.5 40.9 14.4 C 41.9 14.3 42.6 14.1 43.1 14 C 43.1 13.8 43.1 13.7 43.1 13.7 C 43.1 13.2 43 12.8 42.7 12.6 C 42.4 12.3 41.9 12.2 41.3 12.2 C 40.7 12.2 40.3 12.3 40 12.5 C 39.8 12.7 39.6 13.1 39.4 13.6 C 39.4 13.6 38.2 13.4 38.2 13.4 C 38.3 12.9 38.5 12.5 38.8 12.2 C 39 11.8 39.4 11.6 39.8 11.4 C 40.3 11.3 40.9 11.2 41.5 11.2 C 42.1 11.2 42.6 11.2 43 11.4 C 43.4 11.5 43.7 11.7 43.9 11.9 C 44 12.2 44.2 12.4 44.2 12.8 C 44.3 13 44.3 13.4 44.3 13.9 C 44.3 13.9 44.3 15.6 44.3 15.6 C 44.3 16.7 44.3 17.4 44.4 17.7 C 44.4 18 44.5 18.3 44.7 18.6 C 44.69 18.59 43.4 18.6 43.4 18.6 C 43.4 18.6 43.41 18.59 43.4 18.6 Z M 43.1 14.9 C 42.6 15.1 41.9 15.3 41 15.4 C 40.5 15.5 40.2 15.6 40 15.7 C 39.8 15.8 39.6 15.9 39.5 16.1 C 39.4 16.2 39.3 16.4 39.3 16.6 C 39.3 17 39.4 17.2 39.7 17.5 C 39.9 17.7 40.3 17.8 40.8 17.8 C 41.3 17.8 41.7 17.7 42 17.5 C 42.4 17.3 42.7 17 42.9 16.6 C 43 16.4 43.1 15.9 43.1 15.4 C 43.1 15.4 43.1 14.9 43.1 14.9 Z M 47.3 18.6 L 46.2 18.6 L 46.2 8.6 L 47.4 8.6 C 47.4 8.6 47.43 12.15 47.4 12.1 C 48 11.5 48.6 11.2 49.4 11.2 C 49.9 11.2 50.3 11.3 50.7 11.4 C 51.1 11.6 51.4 11.9 51.7 12.2 C 51.9 12.5 52.1 12.9 52.3 13.4 C 52.4 13.8 52.5 14.3 52.5 14.9 C 52.5 16.1 52.2 17.1 51.6 17.7 C 51 18.4 50.2 18.8 49.4 18.8 C 48.5 18.8 47.8 18.4 47.3 17.7 C 47.35 17.68 47.3 18.6 47.3 18.6 Z M 47.3 14.9 C 47.3 15.8 47.5 16.4 47.7 16.8 C 48.1 17.4 48.6 17.7 49.3 17.7 C 49.8 17.7 50.3 17.5 50.7 17 C 51 16.6 51.2 15.9 51.2 15 C 51.2 14 51.1 13.3 50.7 12.9 C 50.3 12.4 49.8 12.2 49.3 12.2 C 48.8 12.2 48.3 12.4 47.9 12.9 C 47.5 13.3 47.3 14 47.3 14.9 Z M 54 10 L 54 8.6 L 55.2 8.6 L 55.2 10 L 54 10 Z M 54 18.6 L 54 11.3 L 55.2 11.3 L 55.2 18.6 L 54 18.6 Z M 57.1 18.6 L 57.1 8.6 L 58.3 8.6 L 58.3 18.6 L 57.1 18.6 Z M 60.2 10 L 60.2 8.6 L 61.5 8.6 L 61.5 10 L 60.2 10 Z M 60.2 18.6 L 60.2 11.3 L 61.5 11.3 L 61.5 18.6 L 60.2 18.6 Z M 65.5 17.5 C 65.6 17.5 65.8 17.5 66 17.5 C 66 17.5 66.2 18.6 66.2 18.6 C 65.8 18.7 65.5 18.7 65.3 18.7 C 64.8 18.7 64.5 18.6 64.2 18.5 C 64 18.3 63.8 18.1 63.7 17.9 C 63.6 17.7 63.6 17.2 63.6 16.5 C 63.55 16.47 63.6 12.3 63.6 12.3 L 62.7 12.3 L 62.7 11.3 L 63.6 11.3 L 63.6 9.5 L 64.8 8.8 L 64.8 11.3 L 66 11.3 L 66 12.3 L 64.8 12.3 C 64.8 12.3 64.78 16.53 64.8 16.5 C 64.8 16.9 64.8 17.1 64.8 17.2 C 64.9 17.3 65 17.4 65.1 17.5 C 65.2 17.5 65.3 17.5 65.5 17.5 C 65.5 17.5 65.5 17.5 65.5 17.5 Z M 68 21.5 C 67.7 21.5 67.5 21.5 67.2 21.4 C 67.2 21.4 67 20.2 67 20.2 C 67.3 20.3 67.5 20.3 67.7 20.3 C 68 20.3 68.2 20.3 68.4 20.2 C 68.6 20.1 68.7 20 68.8 19.8 C 68.9 19.7 69 19.4 69.2 18.9 C 69.2 18.8 69.2 18.7 69.3 18.6 C 69.28 18.61 66.5 11.3 66.5 11.3 L 67.8 11.3 C 67.8 11.3 69.36 15.54 69.4 15.5 C 69.6 16.1 69.7 16.6 69.9 17.2 C 70 16.7 70.2 16.1 70.4 15.6 C 70.39 15.56 71.9 11.3 71.9 11.3 L 73.2 11.3 C 73.2 11.3 70.41 18.72 70.4 18.7 C 70.1 19.5 69.9 20.1 69.7 20.4 C 69.5 20.8 69.3 21.1 69 21.3 C 68.7 21.4 68.3 21.5 68 21.5 C 68 21.5 68 21.5 68 21.5 Z " stroke="none" fill="#fff"/>  </g></svg>