<?xml version="1.0" standalone="no"?><!DOCTYPE svg PUBLIC "-//W3C//DTD SVG 1.1//EN" "http://www.w3.org/Graphics/SVG/1.1/DTD/svg11.dtd"><svg xmlns="http://www.w3.org/2000/svg" version="1.1" width="215.1px" height="57.9px" viewBox="0 -5 215.1 57.9" style="top:-5px">  <desc>L3 HR Support L5 People Professional L7 Senior People Professional</desc>  <defs/>  <g id="Polygon125571">    <path d="M 1.1 43.8 L 1.1 33.9 L 3.1 33.9 L 3.1 42.1 L 8.1 42.1 L 8.1 43.8 L 1.1 43.8 Z M 9.1 35.7 L 9.1 33.9 L 15.7 33.9 C 15.7 33.9 15.72 35.3 15.7 35.3 C 15.2 35.8 14.6 36.6 14.1 37.6 C 13.5 38.6 13.1 39.7 12.8 40.8 C 12.5 41.9 12.3 42.9 12.3 43.8 C 12.3 43.8 10.5 43.8 10.5 43.8 C 10.5 42.4 10.8 41 11.4 39.6 C 11.9 38.1 12.6 36.8 13.5 35.7 C 13.51 35.69 9.1 35.7 9.1 35.7 Z M 20.9 40.6 C 20.9 40.6 22.1 40.5 22.1 40.5 C 22.2 41 22.3 41.4 22.5 41.7 C 22.7 42 23.1 42.3 23.5 42.5 C 24 42.7 24.5 42.8 25.1 42.8 C 25.6 42.8 26 42.7 26.4 42.5 C 26.8 42.4 27.1 42.2 27.3 41.9 C 27.5 41.7 27.6 41.4 27.6 41.1 C 27.6 40.8 27.5 40.5 27.3 40.2 C 27.1 40 26.8 39.8 26.4 39.7 C 26.1 39.6 25.5 39.4 24.6 39.2 C 23.7 38.9 23 38.7 22.7 38.5 C 22.2 38.3 21.8 38 21.6 37.6 C 21.4 37.2 21.2 36.8 21.2 36.4 C 21.2 35.9 21.4 35.4 21.7 34.9 C 22 34.5 22.4 34.2 22.9 33.9 C 23.5 33.7 24.1 33.6 24.8 33.6 C 25.5 33.6 26.2 33.7 26.7 34 C 27.3 34.2 27.7 34.6 28 35 C 28.3 35.5 28.5 36 28.5 36.6 C 28.5 36.6 27.3 36.7 27.3 36.7 C 27.2 36.1 27 35.6 26.6 35.3 C 26.2 34.9 25.6 34.8 24.8 34.8 C 24 34.8 23.4 34.9 23.1 35.2 C 22.7 35.5 22.5 35.9 22.5 36.3 C 22.5 36.6 22.6 36.9 22.9 37.2 C 23.2 37.4 23.8 37.6 24.9 37.9 C 26 38.1 26.7 38.3 27.1 38.5 C 27.7 38.8 28.1 39.1 28.4 39.5 C 28.7 39.9 28.8 40.4 28.8 41 C 28.8 41.5 28.7 42 28.4 42.5 C 28.1 42.9 27.6 43.3 27.1 43.6 C 26.5 43.8 25.8 44 25.1 44 C 24.2 44 23.5 43.8 22.8 43.6 C 22.2 43.3 21.8 42.9 21.4 42.4 C 21.1 41.8 20.9 41.2 20.9 40.6 Z M 35.5 41.5 C 35.5 41.5 36.7 41.6 36.7 41.6 C 36.5 42.4 36.2 42.9 35.6 43.3 C 35.1 43.8 34.4 44 33.5 44 C 32.5 44 31.6 43.6 31 43 C 30.4 42.3 30.1 41.4 30.1 40.2 C 30.1 39 30.4 38.1 31 37.4 C 31.7 36.7 32.5 36.4 33.5 36.4 C 34.4 36.4 35.2 36.7 35.8 37.4 C 36.5 38 36.8 39 36.8 40.1 C 36.8 40.2 36.8 40.3 36.8 40.5 C 36.8 40.5 31.3 40.5 31.3 40.5 C 31.4 41.3 31.6 41.9 32 42.3 C 32.4 42.7 32.9 42.9 33.5 42.9 C 34 42.9 34.4 42.8 34.7 42.6 C 35 42.4 35.3 42 35.5 41.5 Z M 31.4 39.5 C 31.4 39.5 35.5 39.5 35.5 39.5 C 35.4 38.9 35.3 38.4 35 38.1 C 34.6 37.6 34.1 37.4 33.5 37.4 C 32.9 37.4 32.4 37.6 32.1 37.9 C 31.7 38.3 31.5 38.8 31.4 39.5 Z M 38.3 43.8 L 38.3 36.5 L 39.4 36.5 C 39.4 36.5 39.38 37.56 39.4 37.6 C 39.9 36.8 40.7 36.4 41.7 36.4 C 42.1 36.4 42.5 36.4 42.9 36.6 C 43.3 36.8 43.5 37 43.7 37.2 C 43.9 37.5 44 37.8 44.1 38.1 C 44.2 38.4 44.2 38.8 44.2 39.3 C 44.17 39.33 44.2 43.8 44.2 43.8 L 42.9 43.8 C 42.9 43.8 42.94 39.38 42.9 39.4 C 42.9 38.9 42.9 38.5 42.8 38.3 C 42.7 38 42.5 37.8 42.3 37.7 C 42 37.5 41.8 37.4 41.4 37.4 C 40.9 37.4 40.5 37.6 40.1 37.9 C 39.7 38.3 39.5 38.9 39.5 39.8 C 39.5 39.83 39.5 43.8 39.5 43.8 L 38.3 43.8 Z M 46.1 35.2 L 46.1 33.8 L 47.3 33.8 L 47.3 35.2 L 46.1 35.2 Z M 46.1 43.8 L 46.1 36.5 L 47.3 36.5 L 47.3 43.8 L 46.1 43.8 Z M 48.7 40.2 C 48.7 38.8 49.1 37.8 49.8 37.2 C 50.5 36.6 51.2 36.4 52.1 36.4 C 53.1 36.4 53.9 36.7 54.6 37.3 C 55.2 38 55.5 38.9 55.5 40.1 C 55.5 41 55.4 41.7 55.1 42.3 C 54.8 42.8 54.4 43.2 53.9 43.5 C 53.3 43.8 52.8 44 52.1 44 C 51.1 44 50.3 43.6 49.7 43 C 49 42.3 48.7 41.4 48.7 40.2 Z M 50 40.2 C 50 41.1 50.2 41.8 50.6 42.3 C 51 42.7 51.5 42.9 52.1 42.9 C 52.7 42.9 53.2 42.7 53.6 42.2 C 54 41.8 54.3 41.1 54.3 40.1 C 54.3 39.2 54 38.5 53.6 38.1 C 53.2 37.6 52.7 37.4 52.1 37.4 C 51.5 37.4 51 37.6 50.6 38.1 C 50.2 38.5 50 39.2 50 40.2 Z M 56.9 43.8 L 56.9 36.5 L 58.1 36.5 C 58.1 36.5 58.05 37.63 58.1 37.6 C 58.3 37.1 58.6 36.8 58.8 36.6 C 59.1 36.5 59.3 36.4 59.6 36.4 C 60 36.4 60.5 36.5 60.9 36.8 C 60.9 36.8 60.5 37.9 60.5 37.9 C 60.2 37.7 59.9 37.6 59.6 37.6 C 59.3 37.6 59.1 37.7 58.8 37.9 C 58.6 38 58.5 38.3 58.4 38.6 C 58.2 39 58.2 39.5 58.2 40 C 58.17 39.99 58.2 43.8 58.2 43.8 L 56.9 43.8 Z M 65.7 43.8 L 65.7 33.8 C 65.7 33.8 69.45 33.77 69.4 33.8 C 70.1 33.8 70.6 33.8 71 33.9 C 71.5 33.9 71.9 34.1 72.2 34.3 C 72.5 34.6 72.8 34.9 73 35.3 C 73.2 35.7 73.3 36.2 73.3 36.7 C 73.3 37.5 73 38.2 72.5 38.8 C 72 39.4 71 39.7 69.6 39.7 C 69.56 39.72 67 39.7 67 39.7 L 67 43.8 L 65.7 43.8 Z M 67 38.5 C 67 38.5 69.58 38.54 69.6 38.5 C 70.4 38.5 71 38.4 71.4 38.1 C 71.8 37.7 71.9 37.3 71.9 36.7 C 71.9 36.3 71.8 35.9 71.6 35.6 C 71.4 35.3 71.1 35.1 70.8 35 C 70.6 35 70.2 35 69.6 35 C 69.56 34.95 67 35 67 35 L 67 38.5 Z M 79.8 41.5 C 79.8 41.5 81.1 41.6 81.1 41.6 C 80.9 42.4 80.5 42.9 80 43.3 C 79.4 43.8 78.7 44 77.9 44 C 76.8 44 76 43.6 75.4 43 C 74.7 42.3 74.4 41.4 74.4 40.2 C 74.4 39 74.8 38.1 75.4 37.4 C 76 36.7 76.8 36.4 77.8 36.4 C 78.8 36.4 79.6 36.7 80.2 37.4 C 80.8 38 81.1 39 81.1 40.1 C 81.1 40.2 81.1 40.3 81.1 40.5 C 81.1 40.5 75.7 40.5 75.7 40.5 C 75.8 41.3 76 41.9 76.4 42.3 C 76.8 42.7 77.3 42.9 77.9 42.9 C 78.4 42.9 78.7 42.8 79.1 42.6 C 79.4 42.4 79.6 42 79.8 41.5 Z M 75.8 39.5 C 75.8 39.5 79.8 39.5 79.8 39.5 C 79.8 38.9 79.6 38.4 79.4 38.1 C 79 37.6 78.5 37.4 77.8 37.4 C 77.3 37.4 76.8 37.6 76.4 37.9 C 76 38.3 75.8 38.8 75.8 39.5 Z M 82.2 40.2 C 82.2 38.8 82.5 37.8 83.3 37.2 C 83.9 36.6 84.7 36.4 85.6 36.4 C 86.6 36.4 87.4 36.7 88 37.3 C 88.7 38 89 38.9 89 40.1 C 89 41 88.8 41.7 88.6 42.3 C 88.3 42.8 87.9 43.2 87.3 43.5 C 86.8 43.8 86.2 44 85.6 44 C 84.6 44 83.7 43.6 83.1 43 C 82.5 42.3 82.2 41.4 82.2 40.2 Z M 83.4 40.2 C 83.4 41.1 83.6 41.8 84 42.3 C 84.5 42.7 85 42.9 85.6 42.9 C 86.2 42.9 86.7 42.7 87.1 42.2 C 87.5 41.8 87.7 41.1 87.7 40.1 C 87.7 39.2 87.5 38.5 87.1 38.1 C 86.7 37.6 86.2 37.4 85.6 37.4 C 85 37.4 84.5 37.6 84 38.1 C 83.6 38.5 83.4 39.2 83.4 40.2 Z M 90.4 46.6 L 90.4 36.5 L 91.5 36.5 C 91.5 36.5 91.54 37.48 91.5 37.5 C 91.8 37.1 92.1 36.8 92.4 36.6 C 92.8 36.5 93.2 36.4 93.6 36.4 C 94.3 36.4 94.8 36.5 95.3 36.8 C 95.8 37.2 96.1 37.6 96.4 38.2 C 96.6 38.8 96.7 39.4 96.7 40.1 C 96.7 40.9 96.6 41.5 96.3 42.1 C 96.1 42.7 95.7 43.2 95.2 43.5 C 94.7 43.8 94.1 44 93.6 44 C 93.1 44 92.8 43.9 92.5 43.7 C 92.1 43.5 91.9 43.3 91.6 43 C 91.65 43.04 91.6 46.6 91.6 46.6 L 90.4 46.6 Z M 91.5 40.2 C 91.5 41.1 91.7 41.8 92.1 42.3 C 92.5 42.7 92.9 42.9 93.5 42.9 C 94 42.9 94.5 42.7 94.9 42.3 C 95.3 41.8 95.5 41.1 95.5 40.1 C 95.5 39.2 95.3 38.5 94.9 38 C 94.5 37.6 94.1 37.3 93.5 37.3 C 93 37.3 92.5 37.6 92.1 38.1 C 91.7 38.6 91.5 39.3 91.5 40.2 Z M 98.2 43.8 L 98.2 33.8 L 99.4 33.8 L 99.4 43.8 L 98.2 43.8 Z M 106.3 41.5 C 106.3 41.5 107.6 41.6 107.6 41.6 C 107.4 42.4 107 42.9 106.4 43.3 C 105.9 43.8 105.2 44 104.4 44 C 103.3 44 102.5 43.6 101.8 43 C 101.2 42.3 100.9 41.4 100.9 40.2 C 100.9 39 101.2 38.1 101.8 37.4 C 102.5 36.7 103.3 36.4 104.3 36.4 C 105.3 36.4 106.1 36.7 106.7 37.4 C 107.3 38 107.6 39 107.6 40.1 C 107.6 40.2 107.6 40.3 107.6 40.5 C 107.6 40.5 102.2 40.5 102.2 40.5 C 102.2 41.3 102.4 41.9 102.9 42.3 C 103.3 42.7 103.8 42.9 104.4 42.9 C 104.8 42.9 105.2 42.8 105.5 42.6 C 105.8 42.4 106.1 42 106.3 41.5 Z M 102.2 39.5 C 102.2 39.5 106.3 39.5 106.3 39.5 C 106.2 38.9 106.1 38.4 105.8 38.1 C 105.4 37.6 104.9 37.4 104.3 37.4 C 103.7 37.4 103.3 37.6 102.9 37.9 C 102.5 38.3 102.3 38.8 102.2 39.5 Z M 113.1 43.8 L 113.1 33.8 C 113.1 33.8 116.93 33.77 116.9 33.8 C 117.6 33.8 118.1 33.8 118.5 33.9 C 118.9 33.9 119.4 34.1 119.7 34.3 C 120 34.6 120.3 34.9 120.5 35.3 C 120.7 35.7 120.8 36.2 120.8 36.7 C 120.8 37.5 120.5 38.2 120 38.8 C 119.4 39.4 118.5 39.7 117 39.7 C 117.04 39.72 114.5 39.7 114.5 39.7 L 114.5 43.8 L 113.1 43.8 Z M 114.5 38.5 C 114.5 38.5 117.07 38.54 117.1 38.5 C 117.9 38.5 118.5 38.4 118.9 38.1 C 119.3 37.7 119.4 37.3 119.4 36.7 C 119.4 36.3 119.3 35.9 119.1 35.6 C 118.9 35.3 118.6 35.1 118.3 35 C 118.1 35 117.6 35 117 35 C 117.04 34.95 114.5 35 114.5 35 L 114.5 38.5 Z M 122.3 43.8 L 122.3 36.5 L 123.4 36.5 C 123.4 36.5 123.42 37.63 123.4 37.6 C 123.7 37.1 124 36.8 124.2 36.6 C 124.4 36.5 124.7 36.4 125 36.4 C 125.4 36.4 125.8 36.5 126.3 36.8 C 126.3 36.8 125.8 37.9 125.8 37.9 C 125.5 37.7 125.2 37.6 124.9 37.6 C 124.7 37.6 124.4 37.7 124.2 37.9 C 124 38 123.8 38.3 123.8 38.6 C 123.6 39 123.5 39.5 123.5 40 C 123.55 39.99 123.5 43.8 123.5 43.8 L 122.3 43.8 Z M 126.5 40.2 C 126.5 38.8 126.9 37.8 127.7 37.2 C 128.3 36.6 129 36.4 129.9 36.4 C 130.9 36.4 131.8 36.7 132.4 37.3 C 133 38 133.3 38.9 133.3 40.1 C 133.3 41 133.2 41.7 132.9 42.3 C 132.6 42.8 132.2 43.2 131.7 43.5 C 131.2 43.8 130.6 44 129.9 44 C 128.9 44 128.1 43.6 127.5 43 C 126.8 42.3 126.5 41.4 126.5 40.2 Z M 127.8 40.2 C 127.8 41.1 128 41.8 128.4 42.3 C 128.8 42.7 129.3 42.9 129.9 42.9 C 130.5 42.9 131.1 42.7 131.5 42.2 C 131.9 41.8 132.1 41.1 132.1 40.1 C 132.1 39.2 131.9 38.5 131.5 38.1 C 131.1 37.6 130.5 37.4 129.9 37.4 C 129.3 37.4 128.8 37.6 128.4 38.1 C 128 38.5 127.8 39.2 127.8 40.2 Z M 135.1 43.8 L 135.1 37.5 L 134 37.5 L 134 36.5 L 135.1 36.5 C 135.1 36.5 135.07 35.76 135.1 35.8 C 135.1 35.3 135.1 34.9 135.2 34.7 C 135.3 34.4 135.5 34.1 135.8 33.9 C 136.1 33.7 136.5 33.6 137.1 33.6 C 137.4 33.6 137.8 33.6 138.2 33.7 C 138.2 33.7 138 34.8 138 34.8 C 137.8 34.8 137.5 34.7 137.3 34.7 C 136.9 34.7 136.7 34.8 136.5 35 C 136.4 35.1 136.3 35.4 136.3 35.9 C 136.29 35.86 136.3 36.5 136.3 36.5 L 137.7 36.5 L 137.7 37.5 L 136.3 37.5 L 136.3 43.8 L 135.1 43.8 Z M 143.6 41.5 C 143.6 41.5 144.9 41.6 144.9 41.6 C 144.7 42.4 144.3 42.9 143.8 43.3 C 143.3 43.8 142.6 44 141.7 44 C 140.7 44 139.8 43.6 139.2 43 C 138.6 42.3 138.3 41.4 138.3 40.2 C 138.3 39 138.6 38.1 139.2 37.4 C 139.8 36.7 140.6 36.4 141.6 36.4 C 142.6 36.4 143.4 36.7 144 37.4 C 144.6 38 144.9 39 144.9 40.1 C 144.9 40.2 144.9 40.3 144.9 40.5 C 144.9 40.5 139.5 40.5 139.5 40.5 C 139.6 41.3 139.8 41.9 140.2 42.3 C 140.6 42.7 141.1 42.9 141.7 42.9 C 142.2 42.9 142.6 42.8 142.9 42.6 C 143.2 42.4 143.4 42 143.6 41.5 Z M 139.6 39.5 C 139.6 39.5 143.7 39.5 143.7 39.5 C 143.6 38.9 143.4 38.4 143.2 38.1 C 142.8 37.6 142.3 37.4 141.7 37.4 C 141.1 37.4 140.6 37.6 140.2 37.9 C 139.9 38.3 139.6 38.8 139.6 39.5 Z M 146 41.6 C 146 41.6 147.2 41.4 147.2 41.4 C 147.2 41.9 147.4 42.3 147.7 42.6 C 148.1 42.8 148.5 42.9 149.1 42.9 C 149.6 42.9 150 42.8 150.3 42.6 C 150.6 42.4 150.7 42.1 150.7 41.8 C 150.7 41.5 150.6 41.3 150.4 41.1 C 150.2 41 149.8 40.9 149.1 40.7 C 148.2 40.5 147.6 40.3 147.2 40.1 C 146.9 40 146.6 39.7 146.4 39.4 C 146.3 39.1 146.2 38.8 146.2 38.5 C 146.2 38.1 146.2 37.8 146.4 37.6 C 146.5 37.3 146.7 37.1 147 36.9 C 147.2 36.7 147.4 36.6 147.8 36.5 C 148.1 36.4 148.5 36.4 148.8 36.4 C 149.4 36.4 149.9 36.5 150.3 36.6 C 150.8 36.8 151.1 37 151.3 37.3 C 151.5 37.6 151.6 37.9 151.7 38.4 C 151.7 38.4 150.5 38.6 150.5 38.6 C 150.5 38.2 150.3 37.9 150 37.7 C 149.8 37.5 149.4 37.4 148.9 37.4 C 148.4 37.4 148 37.5 147.7 37.7 C 147.5 37.8 147.4 38.1 147.4 38.3 C 147.4 38.5 147.4 38.6 147.5 38.7 C 147.6 38.9 147.8 39 148 39.1 C 148.1 39.1 148.5 39.2 149.1 39.4 C 149.9 39.6 150.5 39.8 150.9 40 C 151.2 40.1 151.5 40.3 151.7 40.6 C 151.9 40.9 152 41.2 152 41.7 C 152 42.1 151.9 42.5 151.6 42.8 C 151.4 43.2 151 43.5 150.6 43.7 C 150.1 43.9 149.6 44 149.1 44 C 148.1 44 147.4 43.8 146.9 43.4 C 146.4 43 146.1 42.4 146 41.6 Z M 153 41.6 C 153 41.6 154.2 41.4 154.2 41.4 C 154.2 41.9 154.4 42.3 154.7 42.6 C 155.1 42.8 155.5 42.9 156.1 42.9 C 156.6 42.9 157 42.8 157.3 42.6 C 157.6 42.4 157.7 42.1 157.7 41.8 C 157.7 41.5 157.6 41.3 157.4 41.1 C 157.2 41 156.8 40.9 156.1 40.7 C 155.2 40.5 154.6 40.3 154.2 40.1 C 153.9 40 153.6 39.7 153.4 39.4 C 153.3 39.1 153.2 38.8 153.2 38.5 C 153.2 38.1 153.2 37.8 153.4 37.6 C 153.5 37.3 153.7 37.1 154 36.9 C 154.2 36.7 154.4 36.6 154.8 36.5 C 155.1 36.4 155.5 36.4 155.8 36.4 C 156.4 36.4 156.9 36.5 157.3 36.6 C 157.8 36.8 158.1 37 158.3 37.3 C 158.5 37.6 158.6 37.9 158.7 38.4 C 158.7 38.4 157.5 38.6 157.5 38.6 C 157.5 38.2 157.3 37.9 157 37.7 C 156.8 37.5 156.4 37.4 155.9 37.4 C 155.4 37.4 155 37.5 154.7 37.7 C 154.5 37.8 154.4 38.1 154.4 38.3 C 154.4 38.5 154.4 38.6 154.5 38.7 C 154.6 38.9 154.8 39 155 39.1 C 155.1 39.1 155.5 39.2 156.1 39.4 C 156.9 39.6 157.5 39.8 157.9 40 C 158.2 40.1 158.5 40.3 158.7 40.6 C 158.9 40.9 159 41.2 159 41.7 C 159 42.1 158.9 42.5 158.6 42.8 C 158.4 43.2 158 43.5 157.6 43.7 C 157.1 43.9 156.6 44 156.1 44 C 155.1 44 154.4 43.8 153.9 43.4 C 153.4 43 153.1 42.4 153 41.6 Z M 160.5 35.2 L 160.5 33.8 L 161.7 33.8 L 161.7 35.2 L 160.5 35.2 Z M 160.5 43.8 L 160.5 36.5 L 161.7 36.5 L 161.7 43.8 L 160.5 43.8 Z M 163.1 40.2 C 163.1 38.8 163.5 37.8 164.2 37.2 C 164.9 36.6 165.6 36.4 166.5 36.4 C 167.5 36.4 168.3 36.7 169 37.3 C 169.6 38 169.9 38.9 169.9 40.1 C 169.9 41 169.8 41.7 169.5 42.3 C 169.2 42.8 168.8 43.2 168.3 43.5 C 167.7 43.8 167.1 44 166.5 44 C 165.5 44 164.7 43.6 164 43 C 163.4 42.3 163.1 41.4 163.1 40.2 Z M 164.4 40.2 C 164.4 41.1 164.6 41.8 165 42.3 C 165.4 42.7 165.9 42.9 166.5 42.9 C 167.1 42.9 167.6 42.7 168 42.2 C 168.4 41.8 168.6 41.1 168.6 40.1 C 168.6 39.2 168.4 38.5 168 38.1 C 167.6 37.6 167.1 37.4 166.5 37.4 C 165.9 37.4 165.4 37.6 165 38.1 C 164.6 38.5 164.4 39.2 164.4 40.2 Z M 171.3 43.8 L 171.3 36.5 L 172.5 36.5 C 172.5 36.5 172.46 37.56 172.5 37.6 C 173 36.8 173.8 36.4 174.8 36.4 C 175.2 36.4 175.6 36.4 176 36.6 C 176.3 36.8 176.6 37 176.8 37.2 C 177 37.5 177.1 37.8 177.2 38.1 C 177.2 38.4 177.2 38.8 177.2 39.3 C 177.25 39.33 177.2 43.8 177.2 43.8 L 176 43.8 C 176 43.8 176.02 39.38 176 39.4 C 176 38.9 176 38.5 175.9 38.3 C 175.8 38 175.6 37.8 175.4 37.7 C 175.1 37.5 174.8 37.4 174.5 37.4 C 174 37.4 173.5 37.6 173.2 37.9 C 172.8 38.3 172.6 38.9 172.6 39.8 C 172.58 39.83 172.6 43.8 172.6 43.8 L 171.3 43.8 Z M 184.1 43.8 C 184 43.5 183.9 43.2 183.9 42.9 C 183.4 43.3 183 43.6 182.6 43.7 C 182.1 43.9 181.7 44 181.2 44 C 180.4 44 179.8 43.8 179.4 43.4 C 178.9 43 178.7 42.5 178.7 41.9 C 178.7 41.5 178.8 41.2 179 40.9 C 179.1 40.6 179.3 40.4 179.6 40.2 C 179.9 40 180.2 39.9 180.5 39.8 C 180.7 39.7 181.1 39.7 181.6 39.6 C 182.6 39.5 183.3 39.3 183.8 39.2 C 183.8 39 183.8 38.9 183.8 38.9 C 183.8 38.4 183.7 38 183.4 37.8 C 183.1 37.5 182.6 37.4 182 37.4 C 181.4 37.4 181 37.5 180.7 37.7 C 180.5 37.9 180.3 38.3 180.1 38.8 C 180.1 38.8 178.9 38.6 178.9 38.6 C 179 38.1 179.2 37.7 179.5 37.4 C 179.7 37 180.1 36.8 180.6 36.6 C 181 36.5 181.6 36.4 182.2 36.4 C 182.8 36.4 183.3 36.4 183.7 36.6 C 184.1 36.7 184.4 36.9 184.6 37.1 C 184.8 37.4 184.9 37.6 185 38 C 185 38.2 185 38.6 185 39.1 C 185 39.1 185 40.8 185 40.8 C 185 41.9 185 42.6 185.1 42.9 C 185.1 43.2 185.2 43.5 185.4 43.8 C 185.4 43.79 184.1 43.8 184.1 43.8 C 184.1 43.8 184.12 43.79 184.1 43.8 Z M 183.8 40.1 C 183.3 40.3 182.7 40.5 181.8 40.6 C 181.3 40.7 180.9 40.8 180.7 40.9 C 180.5 41 180.3 41.1 180.2 41.3 C 180.1 41.4 180 41.6 180 41.8 C 180 42.2 180.2 42.4 180.4 42.7 C 180.7 42.9 181 43 181.5 43 C 182 43 182.4 42.9 182.8 42.7 C 183.1 42.5 183.4 42.2 183.6 41.8 C 183.7 41.6 183.8 41.1 183.8 40.6 C 183.8 40.6 183.8 40.1 183.8 40.1 Z M 186.9 43.8 L 186.9 33.8 L 188.1 33.8 L 188.1 43.8 L 186.9 43.8 Z " stroke="none" fill="#010102"/>  </g>  <g id="Polygon125570">    <path d="M 1.1 27 L 1.1 17.1 L 3.1 17.1 L 3.1 25.3 L 8.1 25.3 L 8.1 27 L 1.1 27 Z M 9.2 24.4 C 9.2 24.4 11.1 24.2 11.1 24.2 C 11.1 24.7 11.3 25 11.6 25.2 C 11.8 25.5 12.2 25.6 12.5 25.6 C 12.9 25.6 13.2 25.5 13.5 25.1 C 13.8 24.8 13.9 24.3 13.9 23.7 C 13.9 23 13.8 22.6 13.5 22.3 C 13.2 22 12.9 21.8 12.4 21.8 C 11.9 21.8 11.4 22.1 11 22.5 C 10.96 22.55 9.4 22.3 9.4 22.3 L 10.4 17.1 L 15.5 17.1 L 15.5 18.9 L 11.8 18.9 C 11.8 18.9 11.55 20.61 11.5 20.6 C 12 20.4 12.4 20.3 12.9 20.3 C 13.7 20.3 14.4 20.6 15 21.2 C 15.6 21.8 15.9 22.6 15.9 23.6 C 15.9 24.5 15.7 25.2 15.2 25.8 C 14.5 26.7 13.6 27.2 12.5 27.2 C 11.6 27.2 10.8 26.9 10.2 26.4 C 9.6 25.9 9.3 25.3 9.2 24.4 Z M 21.3 27 L 21.3 17 C 21.3 17 25.09 16.97 25.1 17 C 25.8 17 26.3 17 26.6 17.1 C 27.1 17.1 27.5 17.3 27.8 17.5 C 28.2 17.8 28.4 18.1 28.7 18.5 C 28.9 18.9 29 19.4 29 19.9 C 29 20.7 28.7 21.4 28.1 22 C 27.6 22.6 26.6 22.9 25.2 22.9 C 25.2 22.92 22.6 22.9 22.6 22.9 L 22.6 27 L 21.3 27 Z M 22.6 21.7 C 22.6 21.7 25.22 21.74 25.2 21.7 C 26.1 21.7 26.7 21.6 27 21.3 C 27.4 20.9 27.6 20.5 27.6 19.9 C 27.6 19.5 27.5 19.1 27.3 18.8 C 27.1 18.5 26.8 18.3 26.4 18.2 C 26.2 18.2 25.8 18.2 25.2 18.2 C 25.2 18.15 22.6 18.2 22.6 18.2 L 22.6 21.7 Z M 35.5 24.7 C 35.5 24.7 36.7 24.8 36.7 24.8 C 36.5 25.6 36.2 26.1 35.6 26.5 C 35.1 27 34.4 27.2 33.5 27.2 C 32.5 27.2 31.6 26.8 31 26.2 C 30.4 25.5 30.1 24.6 30.1 23.4 C 30.1 22.2 30.4 21.3 31 20.6 C 31.7 19.9 32.5 19.6 33.5 19.6 C 34.4 19.6 35.2 19.9 35.8 20.6 C 36.5 21.2 36.8 22.2 36.8 23.3 C 36.8 23.4 36.8 23.5 36.8 23.7 C 36.8 23.7 31.3 23.7 31.3 23.7 C 31.4 24.5 31.6 25.1 32 25.5 C 32.4 25.9 32.9 26.1 33.5 26.1 C 34 26.1 34.4 26 34.7 25.8 C 35 25.6 35.3 25.2 35.5 24.7 Z M 31.4 22.7 C 31.4 22.7 35.5 22.7 35.5 22.7 C 35.4 22.1 35.3 21.6 35 21.3 C 34.6 20.8 34.1 20.6 33.5 20.6 C 32.9 20.6 32.4 20.8 32.1 21.1 C 31.7 21.5 31.5 22 31.4 22.7 Z M 37.8 23.4 C 37.8 22 38.2 21 38.9 20.4 C 39.6 19.8 40.3 19.6 41.2 19.6 C 42.2 19.6 43 19.9 43.7 20.5 C 44.3 21.2 44.6 22.1 44.6 23.3 C 44.6 24.2 44.5 24.9 44.2 25.5 C 43.9 26 43.5 26.4 43 26.7 C 42.4 27 41.9 27.2 41.2 27.2 C 40.2 27.2 39.4 26.8 38.8 26.2 C 38.1 25.5 37.8 24.6 37.8 23.4 Z M 39.1 23.4 C 39.1 24.3 39.3 25 39.7 25.5 C 40.1 25.9 40.6 26.1 41.2 26.1 C 41.8 26.1 42.3 25.9 42.7 25.4 C 43.2 25 43.4 24.3 43.4 23.3 C 43.4 22.4 43.1 21.7 42.7 21.3 C 42.3 20.8 41.8 20.6 41.2 20.6 C 40.6 20.6 40.1 20.8 39.7 21.3 C 39.3 21.7 39.1 22.4 39.1 23.4 Z M 46.1 29.8 L 46.1 19.7 L 47.2 19.7 C 47.2 19.7 47.18 20.68 47.2 20.7 C 47.4 20.3 47.7 20 48.1 19.8 C 48.4 19.7 48.8 19.6 49.3 19.6 C 49.9 19.6 50.5 19.7 50.9 20 C 51.4 20.4 51.8 20.8 52 21.4 C 52.2 22 52.4 22.6 52.4 23.3 C 52.4 24.1 52.2 24.7 52 25.3 C 51.7 25.9 51.3 26.4 50.8 26.7 C 50.3 27 49.8 27.2 49.2 27.2 C 48.8 27.2 48.4 27.1 48.1 26.9 C 47.8 26.7 47.5 26.5 47.3 26.2 C 47.29 26.24 47.3 29.8 47.3 29.8 L 46.1 29.8 Z M 47.2 23.4 C 47.2 24.3 47.4 25 47.7 25.5 C 48.1 25.9 48.6 26.1 49.1 26.1 C 49.7 26.1 50.1 25.9 50.5 25.5 C 50.9 25 51.1 24.3 51.1 23.3 C 51.1 22.4 50.9 21.7 50.5 21.2 C 50.2 20.8 49.7 20.5 49.2 20.5 C 48.6 20.5 48.2 20.8 47.8 21.3 C 47.4 21.8 47.2 22.5 47.2 23.4 Z M 53.8 27 L 53.8 17 L 55 17 L 55 27 L 53.8 27 Z M 61.9 24.7 C 61.9 24.7 63.2 24.8 63.2 24.8 C 63 25.6 62.6 26.1 62.1 26.5 C 61.5 27 60.8 27.2 60 27.2 C 58.9 27.2 58.1 26.8 57.5 26.2 C 56.9 25.5 56.5 24.6 56.5 23.4 C 56.5 22.2 56.9 21.3 57.5 20.6 C 58.1 19.9 58.9 19.6 59.9 19.6 C 60.9 19.6 61.7 19.9 62.3 20.6 C 62.9 21.2 63.2 22.2 63.2 23.3 C 63.2 23.4 63.2 23.5 63.2 23.7 C 63.2 23.7 57.8 23.7 57.8 23.7 C 57.9 24.5 58.1 25.1 58.5 25.5 C 58.9 25.9 59.4 26.1 60 26.1 C 60.5 26.1 60.8 26 61.2 25.8 C 61.5 25.6 61.7 25.2 61.9 24.7 Z M 57.9 22.7 C 57.9 22.7 61.9 22.7 61.9 22.7 C 61.9 22.1 61.7 21.6 61.5 21.3 C 61.1 20.8 60.6 20.6 60 20.6 C 59.4 20.6 58.9 20.8 58.5 21.1 C 58.1 21.5 57.9 22 57.9 22.7 Z M 68.8 27 L 68.8 17 C 68.8 17 72.57 16.97 72.6 17 C 73.2 17 73.7 17 74.1 17.1 C 74.6 17.1 75 17.3 75.3 17.5 C 75.7 17.8 75.9 18.1 76.1 18.5 C 76.3 18.9 76.4 19.4 76.4 19.9 C 76.4 20.7 76.2 21.4 75.6 22 C 75.1 22.6 74.1 22.9 72.7 22.9 C 72.69 22.92 70.1 22.9 70.1 22.9 L 70.1 27 L 68.8 27 Z M 70.1 21.7 C 70.1 21.7 72.71 21.74 72.7 21.7 C 73.6 21.7 74.2 21.6 74.5 21.3 C 74.9 20.9 75.1 20.5 75.1 19.9 C 75.1 19.5 75 19.1 74.8 18.8 C 74.5 18.5 74.3 18.3 73.9 18.2 C 73.7 18.2 73.3 18.2 72.7 18.2 C 72.68 18.15 70.1 18.2 70.1 18.2 L 70.1 21.7 Z M 78 27 L 78 19.7 L 79.1 19.7 C 79.1 19.7 79.06 20.83 79.1 20.8 C 79.3 20.3 79.6 20 79.8 19.8 C 80.1 19.7 80.3 19.6 80.6 19.6 C 81.1 19.6 81.5 19.7 81.9 20 C 81.9 20 81.5 21.1 81.5 21.1 C 81.2 20.9 80.9 20.8 80.6 20.8 C 80.3 20.8 80.1 20.9 79.9 21.1 C 79.6 21.2 79.5 21.5 79.4 21.8 C 79.3 22.2 79.2 22.7 79.2 23.2 C 79.19 23.19 79.2 27 79.2 27 L 78 27 Z M 82.2 23.4 C 82.2 22 82.5 21 83.3 20.4 C 83.9 19.8 84.7 19.6 85.6 19.6 C 86.6 19.6 87.4 19.9 88 20.5 C 88.7 21.2 89 22.1 89 23.3 C 89 24.2 88.8 24.9 88.6 25.5 C 88.3 26 87.9 26.4 87.3 26.7 C 86.8 27 86.2 27.2 85.6 27.2 C 84.6 27.2 83.7 26.8 83.1 26.2 C 82.5 25.5 82.2 24.6 82.2 23.4 Z M 83.4 23.4 C 83.4 24.3 83.6 25 84 25.5 C 84.5 25.9 85 26.1 85.6 26.1 C 86.2 26.1 86.7 25.9 87.1 25.4 C 87.5 25 87.7 24.3 87.7 23.3 C 87.7 22.4 87.5 21.7 87.1 21.3 C 86.7 20.8 86.2 20.6 85.6 20.6 C 85 20.6 84.5 20.8 84 21.3 C 83.6 21.7 83.4 22.4 83.4 23.4 Z M 90.7 27 L 90.7 20.7 L 89.6 20.7 L 89.6 19.7 L 90.7 19.7 C 90.7 19.7 90.71 18.96 90.7 19 C 90.7 18.5 90.8 18.1 90.8 17.9 C 91 17.6 91.2 17.3 91.5 17.1 C 91.8 16.9 92.2 16.8 92.7 16.8 C 93.1 16.8 93.5 16.8 93.9 16.9 C 93.9 16.9 93.7 18 93.7 18 C 93.4 18 93.2 17.9 93 17.9 C 92.6 17.9 92.3 18 92.2 18.2 C 92 18.3 91.9 18.6 91.9 19.1 C 91.94 19.06 91.9 19.7 91.9 19.7 L 93.4 19.7 L 93.4 20.7 L 91.9 20.7 L 91.9 27 L 90.7 27 Z M 99.3 24.7 C 99.3 24.7 100.5 24.8 100.5 24.8 C 100.3 25.6 100 26.1 99.4 26.5 C 98.9 27 98.2 27.2 97.4 27.2 C 96.3 27.2 95.5 26.8 94.8 26.2 C 94.2 25.5 93.9 24.6 93.9 23.4 C 93.9 22.2 94.2 21.3 94.8 20.6 C 95.5 19.9 96.3 19.6 97.3 19.6 C 98.3 19.6 99.1 19.9 99.7 20.6 C 100.3 21.2 100.6 22.2 100.6 23.3 C 100.6 23.4 100.6 23.5 100.6 23.7 C 100.6 23.7 95.2 23.7 95.2 23.7 C 95.2 24.5 95.4 25.1 95.8 25.5 C 96.3 25.9 96.8 26.1 97.4 26.1 C 97.8 26.1 98.2 26 98.5 25.8 C 98.8 25.6 99.1 25.2 99.3 24.7 Z M 95.2 22.7 C 95.2 22.7 99.3 22.7 99.3 22.7 C 99.2 22.1 99.1 21.6 98.8 21.3 C 98.4 20.8 97.9 20.6 97.3 20.6 C 96.7 20.6 96.3 20.8 95.9 21.1 C 95.5 21.5 95.3 22 95.2 22.7 Z M 101.6 24.8 C 101.6 24.8 102.8 24.6 102.8 24.6 C 102.9 25.1 103.1 25.5 103.4 25.8 C 103.7 26 104.1 26.1 104.7 26.1 C 105.3 26.1 105.7 26 106 25.8 C 106.2 25.6 106.4 25.3 106.4 25 C 106.4 24.7 106.2 24.5 106 24.3 C 105.8 24.2 105.4 24.1 104.7 23.9 C 103.8 23.7 103.2 23.5 102.9 23.3 C 102.5 23.2 102.3 22.9 102.1 22.6 C 101.9 22.3 101.8 22 101.8 21.7 C 101.8 21.3 101.9 21 102 20.8 C 102.2 20.5 102.4 20.3 102.6 20.1 C 102.8 19.9 103.1 19.8 103.4 19.7 C 103.7 19.6 104.1 19.6 104.5 19.6 C 105.1 19.6 105.6 19.7 106 19.8 C 106.4 20 106.7 20.2 106.9 20.5 C 107.1 20.8 107.3 21.1 107.4 21.6 C 107.4 21.6 106.2 21.8 106.2 21.8 C 106.1 21.4 105.9 21.1 105.7 20.9 C 105.4 20.7 105 20.6 104.6 20.6 C 104 20.6 103.6 20.7 103.4 20.9 C 103.1 21 103 21.3 103 21.5 C 103 21.7 103 21.8 103.1 21.9 C 103.2 22.1 103.4 22.2 103.6 22.3 C 103.7 22.3 104.1 22.4 104.7 22.6 C 105.6 22.8 106.2 23 106.5 23.2 C 106.9 23.3 107.1 23.5 107.3 23.8 C 107.5 24.1 107.6 24.4 107.6 24.9 C 107.6 25.3 107.5 25.7 107.3 26 C 107 26.4 106.7 26.7 106.2 26.9 C 105.8 27.1 105.3 27.2 104.7 27.2 C 103.8 27.2 103 27 102.5 26.6 C 102.1 26.2 101.7 25.6 101.6 24.8 Z M 108.6 24.8 C 108.6 24.8 109.8 24.6 109.8 24.6 C 109.9 25.1 110.1 25.5 110.4 25.8 C 110.7 26 111.1 26.1 111.7 26.1 C 112.3 26.1 112.7 26 113 25.8 C 113.2 25.6 113.4 25.3 113.4 25 C 113.4 24.7 113.2 24.5 113 24.3 C 112.8 24.2 112.4 24.1 111.7 23.9 C 110.8 23.7 110.2 23.5 109.9 23.3 C 109.5 23.2 109.3 22.9 109.1 22.6 C 108.9 22.3 108.8 22 108.8 21.7 C 108.8 21.3 108.9 21 109 20.8 C 109.2 20.5 109.4 20.3 109.6 20.1 C 109.8 19.9 110.1 19.8 110.4 19.7 C 110.7 19.6 111.1 19.6 111.5 19.6 C 112.1 19.6 112.6 19.7 113 19.8 C 113.4 20 113.7 20.2 113.9 20.5 C 114.1 20.8 114.3 21.1 114.4 21.6 C 114.4 21.6 113.2 21.8 113.2 21.8 C 113.1 21.4 112.9 21.1 112.7 20.9 C 112.4 20.7 112 20.6 111.6 20.6 C 111 20.6 110.6 20.7 110.4 20.9 C 110.1 21 110 21.3 110 21.5 C 110 21.7 110 21.8 110.1 21.9 C 110.2 22.1 110.4 22.2 110.6 22.3 C 110.7 22.3 111.1 22.4 111.7 22.6 C 112.6 22.8 113.2 23 113.5 23.2 C 113.9 23.3 114.1 23.5 114.3 23.8 C 114.5 24.1 114.6 24.4 114.6 24.9 C 114.6 25.3 114.5 25.7 114.3 26 C 114 26.4 113.7 26.7 113.2 26.9 C 112.8 27.1 112.3 27.2 111.7 27.2 C 110.8 27.2 110 27 109.5 26.6 C 109.1 26.2 108.7 25.6 108.6 24.8 Z M 116.1 18.4 L 116.1 17 L 117.3 17 L 117.3 18.4 L 116.1 18.4 Z M 116.1 27 L 116.1 19.7 L 117.3 19.7 L 117.3 27 L 116.1 27 Z M 118.7 23.4 C 118.7 22 119.1 21 119.9 20.4 C 120.5 19.8 121.3 19.6 122.2 19.6 C 123.1 19.6 124 19.9 124.6 20.5 C 125.2 21.2 125.5 22.1 125.5 23.3 C 125.5 24.2 125.4 24.9 125.1 25.5 C 124.8 26 124.4 26.4 123.9 26.7 C 123.4 27 122.8 27.2 122.2 27.2 C 121.1 27.2 120.3 26.8 119.7 26.2 C 119.1 25.5 118.7 24.6 118.7 23.4 Z M 120 23.4 C 120 24.3 120.2 25 120.6 25.5 C 121 25.9 121.5 26.1 122.2 26.1 C 122.8 26.1 123.3 25.9 123.7 25.4 C 124.1 25 124.3 24.3 124.3 23.3 C 124.3 22.4 124.1 21.7 123.7 21.3 C 123.3 20.8 122.8 20.6 122.2 20.6 C 121.5 20.6 121 20.8 120.6 21.3 C 120.2 21.7 120 22.4 120 23.4 Z M 127 27 L 127 19.7 L 128.1 19.7 C 128.1 19.7 128.1 20.76 128.1 20.8 C 128.6 20 129.4 19.6 130.4 19.6 C 130.8 19.6 131.2 19.6 131.6 19.8 C 132 20 132.3 20.2 132.4 20.4 C 132.6 20.7 132.7 21 132.8 21.3 C 132.9 21.6 132.9 22 132.9 22.5 C 132.89 22.53 132.9 27 132.9 27 L 131.7 27 C 131.7 27 131.66 22.58 131.7 22.6 C 131.7 22.1 131.6 21.7 131.5 21.5 C 131.4 21.2 131.3 21 131 20.9 C 130.8 20.7 130.5 20.6 130.1 20.6 C 129.6 20.6 129.2 20.8 128.8 21.1 C 128.4 21.5 128.2 22.1 128.2 23 C 128.22 23.03 128.2 27 128.2 27 L 127 27 Z M 139.8 27 C 139.6 26.7 139.6 26.4 139.5 26.1 C 139.1 26.5 138.6 26.8 138.2 26.9 C 137.8 27.1 137.3 27.2 136.8 27.2 C 136 27.2 135.4 27 135 26.6 C 134.6 26.2 134.4 25.7 134.4 25.1 C 134.4 24.7 134.4 24.4 134.6 24.1 C 134.8 23.8 135 23.6 135.2 23.4 C 135.5 23.2 135.8 23.1 136.1 23 C 136.4 22.9 136.7 22.9 137.2 22.8 C 138.2 22.7 138.9 22.5 139.4 22.4 C 139.4 22.2 139.4 22.1 139.4 22.1 C 139.4 21.6 139.3 21.2 139.1 21 C 138.8 20.7 138.3 20.6 137.7 20.6 C 137.1 20.6 136.7 20.7 136.4 20.9 C 136.1 21.1 135.9 21.5 135.8 22 C 135.8 22 134.6 21.8 134.6 21.8 C 134.7 21.3 134.9 20.9 135.1 20.6 C 135.4 20.2 135.7 20 136.2 19.8 C 136.7 19.7 137.2 19.6 137.8 19.6 C 138.5 19.6 139 19.6 139.4 19.8 C 139.7 19.9 140 20.1 140.2 20.3 C 140.4 20.6 140.5 20.8 140.6 21.2 C 140.6 21.4 140.7 21.8 140.7 22.3 C 140.7 22.3 140.7 24 140.7 24 C 140.7 25.1 140.7 25.8 140.7 26.1 C 140.8 26.4 140.9 26.7 141 27 C 141.05 26.99 139.8 27 139.8 27 C 139.8 27 139.76 26.99 139.8 27 Z M 139.4 23.3 C 139 23.5 138.3 23.7 137.4 23.8 C 136.9 23.9 136.5 24 136.3 24.1 C 136.1 24.2 136 24.3 135.8 24.5 C 135.7 24.6 135.7 24.8 135.7 25 C 135.7 25.4 135.8 25.6 136 25.9 C 136.3 26.1 136.7 26.2 137.1 26.2 C 137.6 26.2 138 26.1 138.4 25.9 C 138.8 25.7 139 25.4 139.2 25 C 139.3 24.8 139.4 24.3 139.4 23.8 C 139.4 23.8 139.4 23.3 139.4 23.3 Z M 142.5 27 L 142.5 17 L 143.8 17 L 143.8 27 L 142.5 27 Z " stroke="none" fill="#010102"/>  </g>  <g id="Polygon125569">    <path d="M 1.1 10.2 L 1.1 0.3 L 3.1 0.3 L 3.1 8.5 L 8.1 8.5 L 8.1 10.2 L 1.1 10.2 Z M 9.1 7.5 C 9.1 7.5 10.9 7.3 10.9 7.3 C 11 7.8 11.2 8.1 11.4 8.4 C 11.7 8.6 12 8.8 12.4 8.8 C 12.8 8.8 13.1 8.6 13.4 8.3 C 13.6 8 13.8 7.6 13.8 7.1 C 13.8 6.6 13.6 6.2 13.4 6 C 13.1 5.7 12.8 5.5 12.4 5.5 C 12.2 5.5 11.9 5.6 11.5 5.7 C 11.5 5.7 11.8 4.1 11.8 4.1 C 12.3 4.1 12.7 4 12.9 3.8 C 13.2 3.5 13.4 3.2 13.4 2.8 C 13.4 2.5 13.3 2.2 13.1 2 C 12.9 1.8 12.6 1.7 12.3 1.7 C 11.9 1.7 11.6 1.8 11.4 2.1 C 11.2 2.3 11 2.6 11 3 C 11 3 9.2 2.7 9.2 2.7 C 9.3 2.1 9.5 1.7 9.8 1.3 C 10 0.9 10.4 0.6 10.8 0.4 C 11.3 0.2 11.8 0.1 12.3 0.1 C 13.3 0.1 14 0.4 14.6 1 C 15.1 1.5 15.3 2.1 15.3 2.7 C 15.3 3.6 14.8 4.3 13.8 4.8 C 14.4 4.9 14.9 5.2 15.2 5.6 C 15.6 6.1 15.7 6.6 15.7 7.2 C 15.7 8.1 15.4 8.8 14.8 9.4 C 14.1 10.1 13.3 10.4 12.4 10.4 C 11.5 10.4 10.7 10.1 10.1 9.6 C 9.5 9.1 9.2 8.4 9.1 7.5 Z M 21.3 10.2 L 21.3 0.2 L 22.7 0.2 L 22.7 4.3 L 27.9 4.3 L 27.9 0.2 L 29.2 0.2 L 29.2 10.2 L 27.9 10.2 L 27.9 5.5 L 22.7 5.5 L 22.7 10.2 L 21.3 10.2 Z M 31.4 10.2 L 31.4 0.2 C 31.4 0.2 35.88 0.17 35.9 0.2 C 36.8 0.2 37.5 0.3 37.9 0.4 C 38.4 0.6 38.8 0.9 39 1.4 C 39.3 1.9 39.5 2.4 39.5 2.9 C 39.5 3.6 39.2 4.2 38.8 4.7 C 38.3 5.2 37.6 5.5 36.6 5.6 C 37 5.8 37.2 6 37.4 6.1 C 37.8 6.5 38.2 6.9 38.5 7.5 C 38.53 7.46 40.3 10.2 40.3 10.2 L 38.6 10.2 C 38.6 10.2 37.28 8.11 37.3 8.1 C 36.9 7.5 36.6 7 36.3 6.7 C 36.1 6.4 35.8 6.2 35.6 6.1 C 35.4 5.9 35.2 5.8 35 5.8 C 34.9 5.8 34.6 5.7 34.3 5.7 C 34.3 5.74 32.8 5.7 32.8 5.7 L 32.8 10.2 L 31.4 10.2 Z M 32.8 4.6 C 32.8 4.6 35.62 4.59 35.6 4.6 C 36.2 4.6 36.7 4.5 37 4.4 C 37.4 4.3 37.6 4.1 37.8 3.8 C 38 3.5 38.1 3.2 38.1 2.9 C 38.1 2.4 37.9 2 37.6 1.7 C 37.2 1.4 36.7 1.3 35.9 1.3 C 35.94 1.28 32.8 1.3 32.8 1.3 L 32.8 4.6 Z M 45 7 C 45 7 46.2 6.9 46.2 6.9 C 46.3 7.4 46.4 7.8 46.6 8.1 C 46.8 8.4 47.2 8.7 47.6 8.9 C 48.1 9.1 48.6 9.2 49.2 9.2 C 49.7 9.2 50.1 9.1 50.5 8.9 C 50.9 8.8 51.2 8.6 51.4 8.3 C 51.6 8.1 51.7 7.8 51.7 7.5 C 51.7 7.2 51.6 6.9 51.4 6.6 C 51.2 6.4 50.9 6.2 50.5 6.1 C 50.2 6 49.6 5.8 48.7 5.6 C 47.8 5.3 47.1 5.1 46.8 4.9 C 46.3 4.7 45.9 4.4 45.7 4 C 45.5 3.6 45.3 3.2 45.3 2.8 C 45.3 2.3 45.5 1.8 45.8 1.3 C 46.1 0.9 46.5 0.6 47 0.3 C 47.6 0.1 48.2 0 48.9 0 C 49.6 0 50.3 0.1 50.8 0.4 C 51.4 0.6 51.8 1 52.2 1.4 C 52.5 1.9 52.6 2.4 52.6 3 C 52.6 3 51.4 3.1 51.4 3.1 C 51.3 2.5 51.1 2 50.7 1.7 C 50.3 1.3 49.7 1.2 48.9 1.2 C 48.1 1.2 47.5 1.3 47.2 1.6 C 46.8 1.9 46.6 2.3 46.6 2.7 C 46.6 3 46.8 3.3 47 3.6 C 47.3 3.8 47.9 4 49 4.3 C 50.1 4.5 50.8 4.7 51.2 4.9 C 51.8 5.2 52.2 5.5 52.5 5.9 C 52.8 6.3 52.9 6.8 52.9 7.4 C 52.9 7.9 52.8 8.4 52.5 8.9 C 52.2 9.3 51.7 9.7 51.2 10 C 50.6 10.2 50 10.4 49.2 10.4 C 48.3 10.4 47.6 10.2 47 10 C 46.3 9.7 45.9 9.3 45.5 8.8 C 45.2 8.2 45 7.6 45 7 Z M 59.4 10.2 C 59.4 10.2 59.36 9.13 59.4 9.1 C 58.8 9.9 58 10.4 57.1 10.4 C 56.6 10.4 56.2 10.3 55.9 10.1 C 55.5 9.9 55.2 9.7 55 9.5 C 54.8 9.2 54.7 8.9 54.6 8.6 C 54.6 8.3 54.6 8 54.6 7.4 C 54.57 7.43 54.6 2.9 54.6 2.9 L 55.8 2.9 C 55.8 2.9 55.8 6.96 55.8 7 C 55.8 7.6 55.8 8 55.9 8.3 C 56 8.6 56.1 8.8 56.4 9 C 56.6 9.2 56.9 9.3 57.3 9.3 C 57.7 9.3 58 9.2 58.3 9 C 58.7 8.8 58.9 8.6 59 8.2 C 59.2 7.9 59.2 7.4 59.2 6.8 C 59.23 6.82 59.2 2.9 59.2 2.9 L 60.5 2.9 L 60.5 10.2 L 59.4 10.2 Z M 62.4 13 L 62.4 2.9 L 63.5 2.9 C 63.5 2.9 63.51 3.88 63.5 3.9 C 63.8 3.5 64.1 3.2 64.4 3 C 64.7 2.9 65.1 2.8 65.6 2.8 C 66.2 2.8 66.8 2.9 67.3 3.2 C 67.7 3.6 68.1 4 68.3 4.6 C 68.6 5.2 68.7 5.8 68.7 6.5 C 68.7 7.3 68.6 7.9 68.3 8.5 C 68 9.1 67.6 9.6 67.1 9.9 C 66.6 10.2 66.1 10.4 65.5 10.4 C 65.1 10.4 64.7 10.3 64.4 10.1 C 64.1 9.9 63.8 9.7 63.6 9.4 C 63.62 9.44 63.6 13 63.6 13 L 62.4 13 Z M 63.5 6.6 C 63.5 7.5 63.7 8.2 64.1 8.7 C 64.4 9.1 64.9 9.3 65.4 9.3 C 66 9.3 66.5 9.1 66.8 8.7 C 67.2 8.2 67.4 7.5 67.4 6.5 C 67.4 5.6 67.2 4.9 66.9 4.4 C 66.5 4 66 3.7 65.5 3.7 C 65 3.7 64.5 4 64.1 4.5 C 63.7 5 63.5 5.7 63.5 6.6 Z M 70.2 13 L 70.2 2.9 L 71.3 2.9 C 71.3 2.9 71.29 3.88 71.3 3.9 C 71.6 3.5 71.9 3.2 72.2 3 C 72.5 2.9 72.9 2.8 73.4 2.8 C 74 2.8 74.6 2.9 75 3.2 C 75.5 3.6 75.9 4 76.1 4.6 C 76.4 5.2 76.5 5.8 76.5 6.5 C 76.5 7.3 76.3 7.9 76.1 8.5 C 75.8 9.1 75.4 9.6 74.9 9.9 C 74.4 10.2 73.9 10.4 73.3 10.4 C 72.9 10.4 72.5 10.3 72.2 10.1 C 71.9 9.9 71.6 9.7 71.4 9.4 C 71.4 9.44 71.4 13 71.4 13 L 70.2 13 Z M 71.3 6.6 C 71.3 7.5 71.5 8.2 71.9 8.7 C 72.2 9.1 72.7 9.3 73.2 9.3 C 73.8 9.3 74.2 9.1 74.6 8.7 C 75 8.2 75.2 7.5 75.2 6.5 C 75.2 5.6 75 4.9 74.6 4.4 C 74.3 4 73.8 3.7 73.3 3.7 C 72.8 3.7 72.3 4 71.9 4.5 C 71.5 5 71.3 5.7 71.3 6.6 Z M 77.5 6.6 C 77.5 5.2 77.9 4.2 78.6 3.6 C 79.2 3 80 2.8 80.9 2.8 C 81.9 2.8 82.7 3.1 83.4 3.7 C 84 4.4 84.3 5.3 84.3 6.5 C 84.3 7.4 84.2 8.1 83.9 8.7 C 83.6 9.2 83.2 9.6 82.7 9.9 C 82.1 10.2 81.5 10.4 80.9 10.4 C 79.9 10.4 79.1 10 78.4 9.4 C 77.8 8.7 77.5 7.8 77.5 6.6 Z M 78.8 6.6 C 78.8 7.5 79 8.2 79.4 8.7 C 79.8 9.1 80.3 9.3 80.9 9.3 C 81.5 9.3 82 9.1 82.4 8.6 C 82.8 8.2 83 7.5 83 6.5 C 83 5.6 82.8 4.9 82.4 4.5 C 82 4 81.5 3.8 80.9 3.8 C 80.3 3.8 79.8 4 79.4 4.5 C 79 4.9 78.8 5.6 78.8 6.6 Z M 85.7 10.2 L 85.7 2.9 L 86.8 2.9 C 86.8 2.9 86.84 4.03 86.8 4 C 87.1 3.5 87.4 3.2 87.6 3 C 87.9 2.9 88.1 2.8 88.4 2.8 C 88.8 2.8 89.2 2.9 89.7 3.2 C 89.7 3.2 89.3 4.3 89.3 4.3 C 88.9 4.1 88.6 4 88.3 4 C 88.1 4 87.8 4.1 87.6 4.3 C 87.4 4.4 87.3 4.7 87.2 5 C 87 5.4 87 5.9 87 6.4 C 86.96 6.39 87 10.2 87 10.2 L 85.7 10.2 Z M 92.6 9.1 C 92.7 9.1 92.9 9.1 93.1 9.1 C 93.1 9.1 93.3 10.2 93.3 10.2 C 92.9 10.3 92.6 10.3 92.3 10.3 C 91.9 10.3 91.5 10.2 91.3 10.1 C 91.1 9.9 90.9 9.7 90.8 9.5 C 90.7 9.3 90.6 8.8 90.6 8.1 C 90.63 8.07 90.6 3.9 90.6 3.9 L 89.7 3.9 L 89.7 2.9 L 90.6 2.9 L 90.6 1.1 L 91.9 0.4 L 91.9 2.9 L 93.1 2.9 L 93.1 3.9 L 91.9 3.9 C 91.9 3.9 91.85 8.13 91.9 8.1 C 91.9 8.5 91.9 8.7 91.9 8.8 C 92 8.9 92 9 92.1 9.1 C 92.2 9.1 92.4 9.1 92.6 9.1 C 92.6 9.1 92.6 9.1 92.6 9.1 Z " stroke="none" fill="#010102"/>  </g></svg>