<?xml version="1.0" standalone="no"?><!DOCTYPE svg PUBLIC "-//W3C//DTD SVG 1.1//EN" "http://www.w3.org/Graphics/SVG/1.1/DTD/svg11.dtd"><svg xmlns="http://www.w3.org/2000/svg" version="1.1" width="136.2px" height="23.9px" viewBox="0 -5 136.2 23.9" style="top:-5px">  <desc>Response Times</desc>  <defs/>  <g id="Polygon143957">    <path d="M 1.1 10.2 L 1.1 0.2 C 1.1 0.2 5.54 0.17 5.5 0.2 C 6.4 0.2 7.1 0.3 7.6 0.4 C 8 0.6 8.4 0.9 8.7 1.4 C 9 1.9 9.1 2.4 9.1 2.9 C 9.1 3.6 8.9 4.2 8.4 4.7 C 8 5.2 7.3 5.5 6.3 5.6 C 6.6 5.8 6.9 6 7.1 6.1 C 7.5 6.5 7.8 6.9 8.2 7.5 C 8.19 7.46 9.9 10.2 9.9 10.2 L 8.3 10.2 C 8.3 10.2 6.94 8.11 6.9 8.1 C 6.6 7.5 6.2 7 6 6.7 C 5.7 6.4 5.5 6.2 5.3 6.1 C 5.1 5.9 4.9 5.8 4.7 5.8 C 4.6 5.8 4.3 5.7 4 5.7 C 3.96 5.74 2.4 5.7 2.4 5.7 L 2.4 10.2 L 1.1 10.2 Z M 2.4 4.6 C 2.4 4.6 5.28 4.59 5.3 4.6 C 5.9 4.6 6.4 4.5 6.7 4.4 C 7 4.3 7.3 4.1 7.5 3.8 C 7.7 3.5 7.7 3.2 7.7 2.9 C 7.7 2.4 7.6 2 7.2 1.7 C 6.9 1.4 6.3 1.3 5.6 1.3 C 5.6 1.28 2.4 1.3 2.4 1.3 L 2.4 4.6 Z M 16 7.9 C 16 7.9 17.3 8 17.3 8 C 17.1 8.8 16.7 9.3 16.2 9.7 C 15.6 10.2 14.9 10.4 14.1 10.4 C 13 10.4 12.2 10 11.6 9.4 C 10.9 8.7 10.6 7.8 10.6 6.6 C 10.6 5.4 10.9 4.5 11.6 3.8 C 12.2 3.1 13 2.8 14 2.8 C 15 2.8 15.8 3.1 16.4 3.8 C 17 4.4 17.3 5.4 17.3 6.5 C 17.3 6.6 17.3 6.7 17.3 6.9 C 17.3 6.9 11.9 6.9 11.9 6.9 C 11.9 7.7 12.2 8.3 12.6 8.7 C 13 9.1 13.5 9.3 14.1 9.3 C 14.5 9.3 14.9 9.2 15.2 9 C 15.6 8.8 15.8 8.4 16 7.9 Z M 12 5.9 C 12 5.9 16 5.9 16 5.9 C 16 5.3 15.8 4.8 15.6 4.5 C 15.2 4 14.7 3.8 14 3.8 C 13.5 3.8 13 4 12.6 4.3 C 12.2 4.7 12 5.2 12 5.9 Z M 18.3 8 C 18.3 8 19.5 7.8 19.5 7.8 C 19.6 8.3 19.8 8.7 20.1 9 C 20.4 9.2 20.9 9.3 21.4 9.3 C 22 9.3 22.4 9.2 22.7 9 C 23 8.8 23.1 8.5 23.1 8.2 C 23.1 7.9 23 7.7 22.7 7.5 C 22.6 7.4 22.1 7.3 21.5 7.1 C 20.6 6.9 19.9 6.7 19.6 6.5 C 19.2 6.4 19 6.1 18.8 5.8 C 18.6 5.5 18.5 5.2 18.5 4.9 C 18.5 4.5 18.6 4.2 18.8 4 C 18.9 3.7 19.1 3.5 19.4 3.3 C 19.6 3.1 19.8 3 20.1 2.9 C 20.5 2.8 20.8 2.8 21.2 2.8 C 21.8 2.8 22.3 2.9 22.7 3 C 23.1 3.2 23.5 3.4 23.7 3.7 C 23.9 4 24 4.3 24.1 4.8 C 24.1 4.8 22.9 5 22.9 5 C 22.8 4.6 22.7 4.3 22.4 4.1 C 22.1 3.9 21.8 3.8 21.3 3.8 C 20.7 3.8 20.3 3.9 20.1 4.1 C 19.8 4.2 19.7 4.5 19.7 4.7 C 19.7 4.9 19.8 5 19.9 5.1 C 20 5.3 20.1 5.4 20.3 5.5 C 20.5 5.5 20.8 5.6 21.4 5.8 C 22.3 6 22.9 6.2 23.3 6.4 C 23.6 6.5 23.9 6.7 24.1 7 C 24.3 7.3 24.4 7.6 24.4 8.1 C 24.4 8.5 24.2 8.9 24 9.2 C 23.8 9.6 23.4 9.9 23 10.1 C 22.5 10.3 22 10.4 21.4 10.4 C 20.5 10.4 19.8 10.2 19.3 9.8 C 18.8 9.4 18.5 8.8 18.3 8 Z M 25.8 13 L 25.8 2.9 L 26.9 2.9 C 26.9 2.9 26.94 3.88 26.9 3.9 C 27.2 3.5 27.5 3.2 27.8 3 C 28.2 2.9 28.6 2.8 29 2.8 C 29.7 2.8 30.2 2.9 30.7 3.2 C 31.2 3.6 31.5 4 31.8 4.6 C 32 5.2 32.1 5.8 32.1 6.5 C 32.1 7.3 32 7.9 31.7 8.5 C 31.5 9.1 31.1 9.6 30.6 9.9 C 30.1 10.2 29.5 10.4 29 10.4 C 28.5 10.4 28.2 10.3 27.9 10.1 C 27.5 9.9 27.3 9.7 27 9.4 C 27.05 9.44 27 13 27 13 L 25.8 13 Z M 26.9 6.6 C 26.9 7.5 27.1 8.2 27.5 8.7 C 27.9 9.1 28.3 9.3 28.9 9.3 C 29.4 9.3 29.9 9.1 30.3 8.7 C 30.7 8.2 30.9 7.5 30.9 6.5 C 30.9 5.6 30.7 4.9 30.3 4.4 C 29.9 4 29.5 3.7 28.9 3.7 C 28.4 3.7 27.9 4 27.5 4.5 C 27.1 5 26.9 5.7 26.9 6.6 Z M 33.1 6.6 C 33.1 5.2 33.5 4.2 34.3 3.6 C 34.9 3 35.7 2.8 36.6 2.8 C 37.5 2.8 38.4 3.1 39 3.7 C 39.6 4.4 39.9 5.3 39.9 6.5 C 39.9 7.4 39.8 8.1 39.5 8.7 C 39.2 9.2 38.8 9.6 38.3 9.9 C 37.8 10.2 37.2 10.4 36.6 10.4 C 35.5 10.4 34.7 10 34.1 9.4 C 33.5 8.7 33.1 7.8 33.1 6.6 Z M 34.4 6.6 C 34.4 7.5 34.6 8.2 35 8.7 C 35.4 9.1 35.9 9.3 36.6 9.3 C 37.2 9.3 37.7 9.1 38.1 8.6 C 38.5 8.2 38.7 7.5 38.7 6.5 C 38.7 5.6 38.5 4.9 38.1 4.5 C 37.7 4 37.2 3.8 36.6 3.8 C 35.9 3.8 35.4 4 35 4.5 C 34.6 4.9 34.4 5.6 34.4 6.6 Z M 41.4 10.2 L 41.4 2.9 L 42.5 2.9 C 42.5 2.9 42.5 3.96 42.5 4 C 43 3.2 43.8 2.8 44.8 2.8 C 45.2 2.8 45.6 2.8 46 3 C 46.4 3.2 46.7 3.4 46.8 3.6 C 47 3.9 47.1 4.2 47.2 4.5 C 47.3 4.8 47.3 5.2 47.3 5.7 C 47.29 5.73 47.3 10.2 47.3 10.2 L 46.1 10.2 C 46.1 10.2 46.06 5.78 46.1 5.8 C 46.1 5.3 46 4.9 45.9 4.7 C 45.8 4.4 45.7 4.2 45.4 4.1 C 45.2 3.9 44.9 3.8 44.5 3.8 C 44 3.8 43.6 4 43.2 4.3 C 42.8 4.7 42.6 5.3 42.6 6.2 C 42.62 6.23 42.6 10.2 42.6 10.2 L 41.4 10.2 Z M 48.7 8 C 48.7 8 49.9 7.8 49.9 7.8 C 50 8.3 50.2 8.7 50.5 9 C 50.8 9.2 51.2 9.3 51.8 9.3 C 52.3 9.3 52.8 9.2 53 9 C 53.3 8.8 53.5 8.5 53.5 8.2 C 53.5 7.9 53.3 7.7 53.1 7.5 C 52.9 7.4 52.5 7.3 51.8 7.1 C 50.9 6.9 50.3 6.7 50 6.5 C 49.6 6.4 49.3 6.1 49.2 5.8 C 49 5.5 48.9 5.2 48.9 4.9 C 48.9 4.5 49 4.2 49.1 4 C 49.3 3.7 49.5 3.5 49.7 3.3 C 49.9 3.1 50.2 3 50.5 2.9 C 50.8 2.8 51.2 2.8 51.6 2.8 C 52.1 2.8 52.6 2.9 53.1 3 C 53.5 3.2 53.8 3.4 54 3.7 C 54.2 4 54.4 4.3 54.4 4.8 C 54.4 4.8 53.2 5 53.2 5 C 53.2 4.6 53 4.3 52.8 4.1 C 52.5 3.9 52.1 3.8 51.7 3.8 C 51.1 3.8 50.7 3.9 50.4 4.1 C 50.2 4.2 50.1 4.5 50.1 4.7 C 50.1 4.9 50.1 5 50.2 5.1 C 50.3 5.3 50.5 5.4 50.7 5.5 C 50.8 5.5 51.2 5.6 51.8 5.8 C 52.7 6 53.3 6.2 53.6 6.4 C 54 6.5 54.2 6.7 54.4 7 C 54.6 7.3 54.7 7.6 54.7 8.1 C 54.7 8.5 54.6 8.9 54.4 9.2 C 54.1 9.6 53.8 9.9 53.3 10.1 C 52.9 10.3 52.4 10.4 51.8 10.4 C 50.8 10.4 50.1 10.2 49.6 9.8 C 49.1 9.4 48.8 8.8 48.7 8 Z M 61.1 7.9 C 61.1 7.9 62.4 8 62.4 8 C 62.2 8.8 61.8 9.3 61.3 9.7 C 60.8 10.2 60.1 10.4 59.2 10.4 C 58.2 10.4 57.3 10 56.7 9.4 C 56.1 8.7 55.8 7.8 55.8 6.6 C 55.8 5.4 56.1 4.5 56.7 3.8 C 57.3 3.1 58.2 2.8 59.2 2.8 C 60.1 2.8 60.9 3.1 61.5 3.8 C 62.2 4.4 62.5 5.4 62.5 6.5 C 62.5 6.6 62.5 6.7 62.5 6.9 C 62.5 6.9 57 6.9 57 6.9 C 57.1 7.7 57.3 8.3 57.7 8.7 C 58.1 9.1 58.6 9.3 59.2 9.3 C 59.7 9.3 60.1 9.2 60.4 9 C 60.7 8.8 61 8.4 61.1 7.9 Z M 57.1 5.9 C 57.1 5.9 61.2 5.9 61.2 5.9 C 61.1 5.3 61 4.8 60.7 4.5 C 60.3 4 59.8 3.8 59.2 3.8 C 58.6 3.8 58.1 4 57.7 4.3 C 57.4 4.7 57.1 5.2 57.1 5.9 Z M 70.3 10.2 L 70.3 1.4 L 67 1.4 L 67 0.2 L 74.9 0.2 L 74.9 1.4 L 71.6 1.4 L 71.6 10.2 L 70.3 10.2 Z M 75.6 1.6 L 75.6 0.2 L 76.9 0.2 L 76.9 1.6 L 75.6 1.6 Z M 75.6 10.2 L 75.6 2.9 L 76.9 2.9 L 76.9 10.2 L 75.6 10.2 Z M 78.7 10.2 L 78.7 2.9 L 79.8 2.9 C 79.8 2.9 79.84 3.95 79.8 4 C 80.1 3.6 80.4 3.3 80.8 3.1 C 81.1 2.9 81.6 2.8 82 2.8 C 82.6 2.8 83 2.9 83.4 3.1 C 83.7 3.3 84 3.6 84.1 4 C 84.7 3.2 85.4 2.8 86.3 2.8 C 87.1 2.8 87.6 3 88 3.4 C 88.4 3.8 88.6 4.4 88.6 5.2 C 88.58 5.21 88.6 10.2 88.6 10.2 L 87.4 10.2 C 87.4 10.2 87.36 5.62 87.4 5.6 C 87.4 5.1 87.3 4.8 87.2 4.6 C 87.2 4.3 87 4.2 86.8 4 C 86.6 3.9 86.3 3.8 86.1 3.8 C 85.6 3.8 85.1 4 84.8 4.3 C 84.5 4.7 84.3 5.2 84.3 6 C 84.29 5.97 84.3 10.2 84.3 10.2 L 83.1 10.2 C 83.1 10.2 83.06 5.48 83.1 5.5 C 83.1 4.9 83 4.5 82.8 4.2 C 82.6 4 82.2 3.8 81.8 3.8 C 81.4 3.8 81.1 3.9 80.8 4.1 C 80.5 4.3 80.3 4.6 80.2 4.9 C 80 5.3 80 5.8 80 6.4 C 79.97 6.43 80 10.2 80 10.2 L 78.7 10.2 Z M 95.4 7.9 C 95.4 7.9 96.6 8 96.6 8 C 96.4 8.8 96.1 9.3 95.5 9.7 C 95 10.2 94.3 10.4 93.5 10.4 C 92.4 10.4 91.6 10 90.9 9.4 C 90.3 8.7 90 7.8 90 6.6 C 90 5.4 90.3 4.5 90.9 3.8 C 91.6 3.1 92.4 2.8 93.4 2.8 C 94.4 2.8 95.1 3.1 95.8 3.8 C 96.4 4.4 96.7 5.4 96.7 6.5 C 96.7 6.6 96.7 6.7 96.7 6.9 C 96.7 6.9 91.3 6.9 91.3 6.9 C 91.3 7.7 91.5 8.3 91.9 8.7 C 92.3 9.1 92.9 9.3 93.5 9.3 C 93.9 9.3 94.3 9.2 94.6 9 C 94.9 8.8 95.2 8.4 95.4 7.9 Z M 91.3 5.9 C 91.3 5.9 95.4 5.9 95.4 5.9 C 95.3 5.3 95.2 4.8 94.9 4.5 C 94.5 4 94 3.8 93.4 3.8 C 92.8 3.8 92.4 4 92 4.3 C 91.6 4.7 91.4 5.2 91.3 5.9 Z M 97.7 8 C 97.7 8 98.9 7.8 98.9 7.8 C 99 8.3 99.2 8.7 99.5 9 C 99.8 9.2 100.2 9.3 100.8 9.3 C 101.4 9.3 101.8 9.2 102.1 9 C 102.3 8.8 102.5 8.5 102.5 8.2 C 102.5 7.9 102.3 7.7 102.1 7.5 C 101.9 7.4 101.5 7.3 100.8 7.1 C 99.9 6.9 99.3 6.7 99 6.5 C 98.6 6.4 98.4 6.1 98.2 5.8 C 98 5.5 97.9 5.2 97.9 4.9 C 97.9 4.5 98 4.2 98.1 4 C 98.3 3.7 98.5 3.5 98.7 3.3 C 98.9 3.1 99.2 3 99.5 2.9 C 99.8 2.8 100.2 2.8 100.6 2.8 C 101.1 2.8 101.6 2.9 102.1 3 C 102.5 3.2 102.8 3.4 103 3.7 C 103.2 4 103.4 4.3 103.5 4.8 C 103.5 4.8 102.3 5 102.3 5 C 102.2 4.6 102 4.3 101.8 4.1 C 101.5 3.9 101.1 3.8 100.7 3.8 C 100.1 3.8 99.7 3.9 99.5 4.1 C 99.2 4.2 99.1 4.5 99.1 4.7 C 99.1 4.9 99.1 5 99.2 5.1 C 99.3 5.3 99.5 5.4 99.7 5.5 C 99.8 5.5 100.2 5.6 100.8 5.8 C 101.7 6 102.3 6.2 102.6 6.4 C 103 6.5 103.2 6.7 103.4 7 C 103.6 7.3 103.7 7.6 103.7 8.1 C 103.7 8.5 103.6 8.9 103.4 9.2 C 103.1 9.6 102.8 9.9 102.3 10.1 C 101.9 10.3 101.4 10.4 100.8 10.4 C 99.9 10.4 99.1 10.2 98.6 9.8 C 98.2 9.4 97.8 8.8 97.7 8 Z " stroke="none" fill="#ffffff"/>  </g></svg>