<?xml version="1.0" standalone="no"?><!DOCTYPE svg PUBLIC "-//W3C//DTD SVG 1.1//EN" "http://www.w3.org/Graphics/SVG/1.1/DTD/svg11.dtd"><svg xmlns="http://www.w3.org/2000/svg" version="1.1" width="297.3px" height="94.6px" viewBox="0 -12 297.3 94.6" style="top:-12px">  <desc>NPS Net Promoter Score</desc>  <defs/>  <g id="Polygon140092">    <path d="M 3.9 48 L 17.4 63.8 L 17.4 48 L 19.4 48 L 19.4 67.1 L 17.6 67.1 L 4.2 51.4 L 4.2 67.1 L 2.2 67.1 L 2.2 48 L 3.9 48 Z M 34.2 48 L 34.2 49.9 L 25.8 49.9 L 25.8 56.6 L 33.9 56.6 L 33.9 58.5 L 25.8 58.5 L 25.8 65.2 L 34.4 65.2 L 34.4 67.1 L 23.7 67.1 L 23.7 48 L 34.2 48 Z M 51.7 48 L 51.7 49.9 L 44.9 49.9 L 44.9 67.1 L 42.8 67.1 L 42.8 49.9 L 36 49.9 L 36 48 L 51.7 48 Z M 67.1 48 C 70.9 48 73.3 50 73.3 53.3 C 73.3 56.9 70.9 58.5 66.8 58.5 C 66.77 58.54 63.8 58.5 63.8 58.5 L 63.8 67.1 L 61.7 67.1 L 61.7 48 C 61.7 48 67.13 48.04 67.1 48 Z M 63.8 56.7 C 63.8 56.7 66.71 56.69 66.7 56.7 C 69.9 56.7 71.1 55.4 71.1 53.2 C 71.1 51.1 69.8 49.9 66.7 49.9 C 66.71 49.89 63.8 49.9 63.8 49.9 L 63.8 56.7 Z M 76.2 48 C 76.2 48 81.25 48.04 81.2 48 C 85.1 48 87.1 50.2 87.1 53.2 C 87.1 55.5 85.8 57.2 83.5 57.9 C 84.7 58.5 85.2 59 86.8 61.4 C 86.82 61.42 90.5 67.1 90.5 67.1 L 88 67.1 C 88 67.1 84.66 61.87 84.7 61.9 C 82.9 59.1 81.7 58.5 80.1 58.5 C 80.1 58.45 78.3 58.5 78.3 58.5 L 78.3 67.1 L 76.2 67.1 L 76.2 48 Z M 80.3 56.6 C 82.9 56.6 84.9 56 84.9 53.2 C 84.9 50.8 83.4 49.9 81 49.9 C 80.97 49.89 78.3 49.9 78.3 49.9 L 78.3 56.6 C 78.3 56.6 80.29 56.61 80.3 56.6 Z M 111.9 57.5 C 111.9 62.8 108 67.4 101.7 67.4 C 95.7 67.4 91.8 62.9 91.8 57.7 C 91.8 52.4 95.6 47.8 101.8 47.8 C 107.9 47.8 111.9 52.2 111.9 57.5 Z M 93.9 57.6 C 93.9 62.1 97.4 65.4 101.7 65.4 C 107.4 65.4 109.7 61 109.7 57.6 C 109.7 53.7 106.9 49.8 101.9 49.8 C 96.7 49.8 93.9 53.7 93.9 57.6 Z M 115.3 48 L 117.3 48 L 124.1 56.4 L 130.8 48 L 132.8 48 L 132.8 67.1 L 130.7 67.1 L 130.7 51.4 L 130.6 51.4 L 124.3 59.3 L 123.9 59.3 L 117.5 51.4 L 117.4 51.4 L 117.4 67.1 L 115.3 67.1 L 115.3 48 Z M 156.4 57.5 C 156.4 62.8 152.5 67.4 146.2 67.4 C 140.2 67.4 136.3 62.9 136.3 57.7 C 136.3 52.4 140.1 47.8 146.3 47.8 C 152.4 47.8 156.4 52.2 156.4 57.5 Z M 138.4 57.6 C 138.4 62.1 141.9 65.4 146.2 65.4 C 151.9 65.4 154.2 61 154.2 57.6 C 154.2 53.7 151.4 49.8 146.4 49.8 C 141.2 49.8 138.4 53.7 138.4 57.6 Z M 173.8 48 L 173.8 49.9 L 167 49.9 L 167 67.1 L 164.9 67.1 L 164.9 49.9 L 158.1 49.9 L 158.1 48 L 173.8 48 Z M 186.8 48 L 186.8 49.9 L 178.5 49.9 L 178.5 56.6 L 186.5 56.6 L 186.5 58.5 L 178.5 58.5 L 178.5 65.2 L 187 65.2 L 187 67.1 L 176.4 67.1 L 176.4 48 L 186.8 48 Z M 190.4 48 C 190.4 48 195.43 48.04 195.4 48 C 199.3 48 201.3 50.2 201.3 53.2 C 201.3 55.5 200 57.2 197.6 57.9 C 198.9 58.5 199.4 59 201 61.4 C 201 61.42 204.7 67.1 204.7 67.1 L 202.2 67.1 C 202.2 67.1 198.84 61.87 198.8 61.9 C 197.1 59.1 195.9 58.5 194.3 58.5 C 194.28 58.45 192.5 58.5 192.5 58.5 L 192.5 67.1 L 190.4 67.1 L 190.4 48 Z M 194.5 56.6 C 197.1 56.6 199.1 56 199.1 53.2 C 199.1 50.8 197.6 49.9 195.1 49.9 C 195.15 49.89 192.5 49.9 192.5 49.9 L 192.5 56.6 C 192.5 56.6 194.48 56.61 194.5 56.6 Z M 223.1 49 C 223.1 49 223.1 51.4 223.1 51.4 C 221.7 50.3 220.3 49.7 218.7 49.7 C 216.7 49.7 215.4 50.8 215.4 52.5 C 215.4 53.7 215.7 54.8 218.9 56.4 C 222.8 58.5 223.8 59.8 223.8 62.4 C 223.8 65.3 221.6 67.4 218.3 67.4 C 216.5 67.4 214.8 66.8 213.4 65.7 C 213.4 65.7 213.4 63.1 213.4 63.1 C 214.8 64.6 216.5 65.5 218.3 65.5 C 220.3 65.5 221.7 64.3 221.7 62.5 C 221.7 60.8 221.1 59.9 217.4 57.9 C 214.4 56.4 213.3 55 213.3 52.5 C 213.3 49.8 215.6 47.8 218.8 47.8 C 220.3 47.8 221.8 48.2 223.1 49 Z M 242.8 49.3 C 242.8 49.3 242.8 51.6 242.8 51.6 C 240.8 50.4 238.6 49.7 236.4 49.7 C 231.5 49.7 228.4 53.4 228.4 57.6 C 228.4 61.9 231.5 65.4 236.3 65.4 C 238.7 65.4 240.9 64.8 243 63.5 C 243 63.5 243 65.8 243 65.8 C 240.8 66.9 238.6 67.4 236.3 67.4 C 229.7 67.4 226.2 62.4 226.2 57.7 C 226.2 52 230.6 47.8 236.3 47.8 C 238.5 47.8 240.7 48.3 242.8 49.3 Z M 265.6 57.5 C 265.6 62.8 261.6 67.4 255.3 67.4 C 249.4 67.4 245.4 62.9 245.4 57.7 C 245.4 52.4 249.2 47.8 255.4 47.8 C 261.5 47.8 265.6 52.2 265.6 57.5 Z M 247.6 57.6 C 247.6 62.1 251.1 65.4 255.4 65.4 C 261 65.4 263.4 61 263.4 57.6 C 263.4 53.7 260.5 49.8 255.5 49.8 C 250.3 49.8 247.6 53.7 247.6 57.6 Z M 269 48 C 269 48 274.01 48.04 274 48 C 277.8 48 279.8 50.2 279.8 53.2 C 279.8 55.5 278.5 57.2 276.2 57.9 C 277.5 58.5 278 59 279.6 61.4 C 279.59 61.42 283.3 67.1 283.3 67.1 L 280.8 67.1 C 280.8 67.1 277.43 61.87 277.4 61.9 C 275.7 59.1 274.5 58.5 272.9 58.5 C 272.87 58.45 271.1 58.5 271.1 58.5 L 271.1 67.1 L 269 67.1 L 269 48 Z M 273.1 56.6 C 275.7 56.6 277.7 56 277.7 53.2 C 277.7 50.8 276.2 49.9 273.7 49.9 C 273.73 49.89 271.1 49.9 271.1 49.9 L 271.1 56.6 C 271.1 56.6 273.06 56.61 273.1 56.6 Z M 295.8 48 L 295.8 49.9 L 287.5 49.9 L 287.5 56.6 L 295.5 56.6 L 295.5 58.5 L 287.5 58.5 L 287.5 65.2 L 296 65.2 L 296 67.1 L 285.4 67.1 L 285.4 48 L 295.8 48 Z " stroke="none" fill="#fff"/>  </g>  <g id="Polygon140091">    <path d="M 111.9 2.2 L 129.5 21.7 L 129.5 2.2 L 137.3 2.2 L 137.3 33.5 L 130.3 33.5 L 112.7 14 L 112.7 33.5 L 104.9 33.5 L 104.9 2.2 L 111.9 2.2 Z M 157.3 2.2 C 164.4 2.2 168.8 5.7 168.8 11.7 C 168.8 16.9 165.3 21.2 157.6 21.2 C 157.63 21.21 151.9 21.2 151.9 21.2 L 151.9 33.5 L 144 33.5 L 144 2.2 C 144 2.2 157.27 2.16 157.3 2.2 Z M 151.9 15.8 C 151.9 15.8 155.89 15.82 155.9 15.8 C 159.4 15.8 160.7 14.3 160.7 11.7 C 160.7 8.8 159.2 7.5 155.6 7.5 C 155.56 7.54 151.9 7.5 151.9 7.5 L 151.9 15.8 Z M 192.4 4.2 C 192.4 4.2 192.4 10.9 192.4 10.9 C 189.5 8.6 186.5 7.5 183.7 7.5 C 181.2 7.5 180 8.6 180 10.2 C 180 11.7 180.9 12.6 184.7 14.6 C 189.9 17.3 193.7 19.5 193.7 24.8 C 193.7 30.3 189.2 33.9 182.7 33.9 C 179.3 33.9 175.7 32.9 172.5 31.3 C 172.5 31.3 172.5 24.2 172.5 24.2 C 175.9 26.9 178.9 28 181.7 28 C 184.5 28 185.8 26.6 185.8 25.2 C 185.8 23.6 185.2 22.6 180.1 20.1 C 176.7 18.4 172.3 15.9 172.3 10.4 C 172.3 5.6 176 1.7 182.9 1.7 C 186.5 1.7 190 2.8 192.4 4.2 Z " stroke="none" fill="#fff"/>  </g></svg>