<?xml version="1.0" standalone="no"?><!DOCTYPE svg PUBLIC "-//W3C//DTD SVG 1.1//EN" "http://www.w3.org/Graphics/SVG/1.1/DTD/svg11.dtd"><svg xmlns="http://www.w3.org/2000/svg" version="1.1" width="280.3px" height="23.9px" viewBox="0 -5 280.3 23.9" style="top:-5px">  <desc>L7 Research Scientist</desc>  <defs/>  <g id="Polygon113758">    <path d="M 1.1 10.2 L 1.1 0.3 L 3.1 0.3 L 3.1 8.5 L 8.1 8.5 L 8.1 10.2 L 1.1 10.2 Z M 9.1 2.1 L 9.1 0.3 L 15.7 0.3 C 15.7 0.3 15.72 1.7 15.7 1.7 C 15.2 2.2 14.6 3 14.1 4 C 13.5 5 13.1 6.1 12.8 7.2 C 12.5 8.3 12.3 9.3 12.3 10.2 C 12.3 10.2 10.5 10.2 10.5 10.2 C 10.5 8.8 10.8 7.4 11.4 6 C 11.9 4.5 12.6 3.2 13.5 2.1 C 13.51 2.09 9.1 2.1 9.1 2.1 Z M 21.3 10.2 L 21.3 0.2 C 21.3 0.2 25.77 0.17 25.8 0.2 C 26.7 0.2 27.3 0.3 27.8 0.4 C 28.3 0.6 28.6 0.9 28.9 1.4 C 29.2 1.9 29.3 2.4 29.3 2.9 C 29.3 3.6 29.1 4.2 28.6 4.7 C 28.2 5.2 27.5 5.5 26.5 5.6 C 26.9 5.8 27.1 6 27.3 6.1 C 27.7 6.5 28.1 6.9 28.4 7.5 C 28.42 7.46 30.2 10.2 30.2 10.2 L 28.5 10.2 C 28.5 10.2 27.17 8.11 27.2 8.1 C 26.8 7.5 26.5 7 26.2 6.7 C 26 6.4 25.7 6.2 25.5 6.1 C 25.3 5.9 25.1 5.8 24.9 5.8 C 24.8 5.8 24.5 5.7 24.2 5.7 C 24.19 5.74 22.7 5.7 22.7 5.7 L 22.7 10.2 L 21.3 10.2 Z M 22.7 4.6 C 22.7 4.6 25.5 4.59 25.5 4.6 C 26.1 4.6 26.6 4.5 26.9 4.4 C 27.3 4.3 27.5 4.1 27.7 3.8 C 27.9 3.5 28 3.2 28 2.9 C 28 2.4 27.8 2 27.5 1.7 C 27.1 1.4 26.6 1.3 25.8 1.3 C 25.83 1.28 22.7 1.3 22.7 1.3 L 22.7 4.6 Z M 36.2 7.9 C 36.2 7.9 37.5 8 37.5 8 C 37.3 8.8 36.9 9.3 36.4 9.7 C 35.8 10.2 35.2 10.4 34.3 10.4 C 33.2 10.4 32.4 10 31.8 9.4 C 31.2 8.7 30.9 7.8 30.9 6.6 C 30.9 5.4 31.2 4.5 31.8 3.8 C 32.4 3.1 33.2 2.8 34.2 2.8 C 35.2 2.8 36 3.1 36.6 3.8 C 37.2 4.4 37.5 5.4 37.5 6.5 C 37.5 6.6 37.5 6.7 37.5 6.9 C 37.5 6.9 32.1 6.9 32.1 6.9 C 32.2 7.7 32.4 8.3 32.8 8.7 C 33.2 9.1 33.7 9.3 34.3 9.3 C 34.8 9.3 35.2 9.2 35.5 9 C 35.8 8.8 36 8.4 36.2 7.9 Z M 32.2 5.9 C 32.2 5.9 36.2 5.9 36.2 5.9 C 36.2 5.3 36 4.8 35.8 4.5 C 35.4 4 34.9 3.8 34.3 3.8 C 33.7 3.8 33.2 4 32.8 4.3 C 32.4 4.7 32.2 5.2 32.2 5.9 Z M 38.6 8 C 38.6 8 39.8 7.8 39.8 7.8 C 39.8 8.3 40 8.7 40.3 9 C 40.7 9.2 41.1 9.3 41.7 9.3 C 42.2 9.3 42.6 9.2 42.9 9 C 43.2 8.8 43.3 8.5 43.3 8.2 C 43.3 7.9 43.2 7.7 43 7.5 C 42.8 7.4 42.4 7.3 41.7 7.1 C 40.8 6.9 40.2 6.7 39.8 6.5 C 39.5 6.4 39.2 6.1 39 5.8 C 38.8 5.5 38.8 5.2 38.8 4.9 C 38.8 4.5 38.8 4.2 39 4 C 39.1 3.7 39.3 3.5 39.6 3.3 C 39.8 3.1 40 3 40.4 2.9 C 40.7 2.8 41.1 2.8 41.4 2.8 C 42 2.8 42.5 2.9 42.9 3 C 43.4 3.2 43.7 3.4 43.9 3.7 C 44.1 4 44.2 4.3 44.3 4.8 C 44.3 4.8 43.1 5 43.1 5 C 43.1 4.6 42.9 4.3 42.6 4.1 C 42.4 3.9 42 3.8 41.5 3.8 C 41 3.8 40.6 3.9 40.3 4.1 C 40.1 4.2 39.9 4.5 39.9 4.7 C 39.9 4.9 40 5 40.1 5.1 C 40.2 5.3 40.4 5.4 40.6 5.5 C 40.7 5.5 41.1 5.6 41.7 5.8 C 42.5 6 43.1 6.2 43.5 6.4 C 43.8 6.5 44.1 6.7 44.3 7 C 44.5 7.3 44.6 7.6 44.6 8.1 C 44.6 8.5 44.5 8.9 44.2 9.2 C 44 9.6 43.6 9.9 43.2 10.1 C 42.7 10.3 42.2 10.4 41.7 10.4 C 40.7 10.4 40 10.2 39.5 9.8 C 39 9.4 38.7 8.8 38.6 8 Z M 51 7.9 C 51 7.9 52.3 8 52.3 8 C 52.1 8.8 51.7 9.3 51.2 9.7 C 50.6 10.2 49.9 10.4 49.1 10.4 C 48 10.4 47.2 10 46.6 9.4 C 45.9 8.7 45.6 7.8 45.6 6.6 C 45.6 5.4 46 4.5 46.6 3.8 C 47.2 3.1 48 2.8 49 2.8 C 50 2.8 50.8 3.1 51.4 3.8 C 52 4.4 52.3 5.4 52.3 6.5 C 52.3 6.6 52.3 6.7 52.3 6.9 C 52.3 6.9 46.9 6.9 46.9 6.9 C 47 7.7 47.2 8.3 47.6 8.7 C 48 9.1 48.5 9.3 49.1 9.3 C 49.6 9.3 49.9 9.2 50.3 9 C 50.6 8.8 50.8 8.4 51 7.9 Z M 47 5.9 C 47 5.9 51 5.9 51 5.9 C 51 5.3 50.8 4.8 50.6 4.5 C 50.2 4 49.7 3.8 49 3.8 C 48.5 3.8 48 4 47.6 4.3 C 47.2 4.7 47 5.2 47 5.9 Z M 58.8 10.2 C 58.7 9.9 58.6 9.6 58.6 9.3 C 58.1 9.7 57.7 10 57.3 10.1 C 56.8 10.3 56.4 10.4 55.9 10.4 C 55.1 10.4 54.5 10.2 54.1 9.8 C 53.6 9.4 53.4 8.9 53.4 8.3 C 53.4 7.9 53.5 7.6 53.7 7.3 C 53.8 7 54 6.8 54.3 6.6 C 54.6 6.4 54.9 6.3 55.2 6.2 C 55.4 6.1 55.8 6.1 56.3 6 C 57.3 5.9 58 5.7 58.5 5.6 C 58.5 5.4 58.5 5.3 58.5 5.3 C 58.5 4.8 58.4 4.4 58.1 4.2 C 57.8 3.9 57.3 3.8 56.7 3.8 C 56.1 3.8 55.7 3.9 55.4 4.1 C 55.2 4.3 55 4.7 54.8 5.2 C 54.8 5.2 53.6 5 53.6 5 C 53.7 4.5 53.9 4.1 54.2 3.8 C 54.4 3.4 54.8 3.2 55.3 3 C 55.7 2.9 56.3 2.8 56.9 2.8 C 57.5 2.8 58 2.8 58.4 3 C 58.8 3.1 59.1 3.3 59.3 3.5 C 59.4 3.8 59.6 4 59.7 4.4 C 59.7 4.6 59.7 5 59.7 5.5 C 59.7 5.5 59.7 7.2 59.7 7.2 C 59.7 8.3 59.7 9 59.8 9.3 C 59.8 9.6 59.9 9.9 60.1 10.2 C 60.1 10.19 58.8 10.2 58.8 10.2 C 58.8 10.2 58.82 10.19 58.8 10.2 Z M 58.5 6.5 C 58 6.7 57.4 6.9 56.5 7 C 56 7.1 55.6 7.2 55.4 7.3 C 55.2 7.4 55 7.5 54.9 7.7 C 54.8 7.8 54.7 8 54.7 8.2 C 54.7 8.6 54.9 8.8 55.1 9.1 C 55.3 9.3 55.7 9.4 56.2 9.4 C 56.7 9.4 57.1 9.3 57.5 9.1 C 57.8 8.9 58.1 8.6 58.3 8.2 C 58.4 8 58.5 7.5 58.5 7 C 58.5 7 58.5 6.5 58.5 6.5 Z M 61.6 10.2 L 61.6 2.9 L 62.7 2.9 C 62.7 2.9 62.71 4.03 62.7 4 C 63 3.5 63.3 3.2 63.5 3 C 63.7 2.9 64 2.8 64.3 2.8 C 64.7 2.8 65.1 2.9 65.5 3.2 C 65.5 3.2 65.1 4.3 65.1 4.3 C 64.8 4.1 64.5 4 64.2 4 C 64 4 63.7 4.1 63.5 4.3 C 63.3 4.4 63.1 4.7 63 5 C 62.9 5.4 62.8 5.9 62.8 6.4 C 62.84 6.39 62.8 10.2 62.8 10.2 L 61.6 10.2 Z M 71 7.5 C 71 7.5 72.2 7.7 72.2 7.7 C 72.1 8.5 71.8 9.2 71.2 9.6 C 70.7 10.1 70 10.4 69.2 10.4 C 68.2 10.4 67.4 10 66.8 9.4 C 66.2 8.7 65.9 7.8 65.9 6.6 C 65.9 5.8 66 5.1 66.3 4.5 C 66.6 3.9 66.9 3.5 67.5 3.2 C 68 2.9 68.6 2.8 69.2 2.8 C 70 2.8 70.6 3 71.1 3.4 C 71.6 3.8 72 4.3 72.1 5.1 C 72.1 5.1 70.9 5.3 70.9 5.3 C 70.8 4.8 70.6 4.4 70.3 4.1 C 70 3.9 69.7 3.8 69.3 3.8 C 68.6 3.8 68.1 4 67.8 4.4 C 67.4 4.9 67.2 5.6 67.2 6.6 C 67.2 7.5 67.4 8.2 67.7 8.7 C 68.1 9.1 68.6 9.3 69.2 9.3 C 69.7 9.3 70.1 9.2 70.4 8.9 C 70.7 8.6 70.9 8.1 71 7.5 Z M 73.3 10.2 L 73.3 0.2 L 74.5 0.2 C 74.5 0.2 74.51 3.77 74.5 3.8 C 75.1 3.1 75.8 2.8 76.7 2.8 C 77.2 2.8 77.7 2.9 78.1 3.1 C 78.5 3.3 78.8 3.6 78.9 4 C 79.1 4.3 79.2 4.9 79.2 5.6 C 79.19 5.59 79.2 10.2 79.2 10.2 L 78 10.2 C 78 10.2 77.96 5.59 78 5.6 C 78 5 77.8 4.5 77.6 4.2 C 77.3 4 76.9 3.8 76.4 3.8 C 76.1 3.8 75.7 3.9 75.4 4.1 C 75.1 4.3 74.9 4.6 74.7 4.9 C 74.6 5.2 74.5 5.7 74.5 6.2 C 74.51 6.22 74.5 10.2 74.5 10.2 L 73.3 10.2 Z M 84.7 7 C 84.7 7 85.9 6.9 85.9 6.9 C 86 7.4 86.1 7.8 86.3 8.1 C 86.5 8.4 86.9 8.7 87.3 8.9 C 87.8 9.1 88.3 9.2 88.9 9.2 C 89.4 9.2 89.8 9.1 90.2 8.9 C 90.6 8.8 90.9 8.6 91.1 8.3 C 91.3 8.1 91.4 7.8 91.4 7.5 C 91.4 7.2 91.3 6.9 91.1 6.6 C 90.9 6.4 90.6 6.2 90.2 6.1 C 89.9 6 89.3 5.8 88.4 5.6 C 87.5 5.3 86.8 5.1 86.5 4.9 C 86 4.7 85.6 4.4 85.4 4 C 85.2 3.6 85 3.2 85 2.8 C 85 2.3 85.2 1.8 85.5 1.3 C 85.8 0.9 86.2 0.6 86.7 0.3 C 87.3 0.1 87.9 0 88.6 0 C 89.3 0 90 0.1 90.5 0.4 C 91.1 0.6 91.5 1 91.8 1.4 C 92.2 1.9 92.3 2.4 92.3 3 C 92.3 3 91.1 3.1 91.1 3.1 C 91 2.5 90.8 2 90.4 1.7 C 90 1.3 89.4 1.2 88.6 1.2 C 87.8 1.2 87.2 1.3 86.9 1.6 C 86.5 1.9 86.3 2.3 86.3 2.7 C 86.3 3 86.5 3.3 86.7 3.6 C 87 3.8 87.6 4 88.7 4.3 C 89.8 4.5 90.5 4.7 90.9 4.9 C 91.5 5.2 91.9 5.5 92.2 5.9 C 92.5 6.3 92.6 6.8 92.6 7.4 C 92.6 7.9 92.5 8.4 92.2 8.9 C 91.9 9.3 91.4 9.7 90.9 10 C 90.3 10.2 89.7 10.4 88.9 10.4 C 88 10.4 87.3 10.2 86.7 10 C 86 9.7 85.6 9.3 85.2 8.8 C 84.9 8.2 84.7 7.6 84.7 7 Z M 99 7.5 C 99 7.5 100.2 7.7 100.2 7.7 C 100.1 8.5 99.8 9.2 99.2 9.6 C 98.7 10.1 98 10.4 97.2 10.4 C 96.2 10.4 95.4 10 94.8 9.4 C 94.2 8.7 93.9 7.8 93.9 6.6 C 93.9 5.8 94 5.1 94.3 4.5 C 94.6 3.9 95 3.5 95.5 3.2 C 96 2.9 96.6 2.8 97.2 2.8 C 98 2.8 98.7 3 99.2 3.4 C 99.7 3.8 100 4.3 100.1 5.1 C 100.1 5.1 98.9 5.3 98.9 5.3 C 98.8 4.8 98.6 4.4 98.3 4.1 C 98 3.9 97.7 3.8 97.3 3.8 C 96.7 3.8 96.2 4 95.8 4.4 C 95.4 4.9 95.2 5.6 95.2 6.6 C 95.2 7.5 95.4 8.2 95.7 8.7 C 96.1 9.1 96.6 9.3 97.2 9.3 C 97.7 9.3 98.1 9.2 98.4 8.9 C 98.7 8.6 98.9 8.1 99 7.5 Z M 101.3 1.6 L 101.3 0.2 L 102.5 0.2 L 102.5 1.6 L 101.3 1.6 Z M 101.3 10.2 L 101.3 2.9 L 102.5 2.9 L 102.5 10.2 L 101.3 10.2 Z M 109.4 7.9 C 109.4 7.9 110.6 8 110.6 8 C 110.4 8.8 110.1 9.3 109.5 9.7 C 109 10.2 108.3 10.4 107.5 10.4 C 106.4 10.4 105.6 10 104.9 9.4 C 104.3 8.7 104 7.8 104 6.6 C 104 5.4 104.3 4.5 104.9 3.8 C 105.6 3.1 106.4 2.8 107.4 2.8 C 108.4 2.8 109.1 3.1 109.8 3.8 C 110.4 4.4 110.7 5.4 110.7 6.5 C 110.7 6.6 110.7 6.7 110.7 6.9 C 110.7 6.9 105.3 6.9 105.3 6.9 C 105.3 7.7 105.5 8.3 105.9 8.7 C 106.3 9.1 106.9 9.3 107.5 9.3 C 107.9 9.3 108.3 9.2 108.6 9 C 108.9 8.8 109.2 8.4 109.4 7.9 Z M 105.3 5.9 C 105.3 5.9 109.4 5.9 109.4 5.9 C 109.3 5.3 109.2 4.8 108.9 4.5 C 108.5 4 108 3.8 107.4 3.8 C 106.8 3.8 106.4 4 106 4.3 C 105.6 4.7 105.4 5.2 105.3 5.9 Z M 112.2 10.2 L 112.2 2.9 L 113.3 2.9 C 113.3 2.9 113.3 3.96 113.3 4 C 113.8 3.2 114.6 2.8 115.6 2.8 C 116 2.8 116.4 2.8 116.8 3 C 117.2 3.2 117.5 3.4 117.6 3.6 C 117.8 3.9 117.9 4.2 118 4.5 C 118.1 4.8 118.1 5.2 118.1 5.7 C 118.09 5.73 118.1 10.2 118.1 10.2 L 116.9 10.2 C 116.9 10.2 116.86 5.78 116.9 5.8 C 116.9 5.3 116.8 4.9 116.7 4.7 C 116.6 4.4 116.5 4.2 116.2 4.1 C 116 3.9 115.7 3.8 115.3 3.8 C 114.8 3.8 114.4 4 114 4.3 C 113.6 4.7 113.4 5.3 113.4 6.2 C 113.42 6.23 113.4 10.2 113.4 10.2 L 112.2 10.2 Z M 122.1 9.1 C 122.3 9.1 122.4 9.1 122.7 9.1 C 122.7 9.1 122.8 10.2 122.8 10.2 C 122.5 10.3 122.2 10.3 121.9 10.3 C 121.5 10.3 121.1 10.2 120.9 10.1 C 120.6 9.9 120.5 9.7 120.4 9.5 C 120.3 9.3 120.2 8.8 120.2 8.1 C 120.2 8.07 120.2 3.9 120.2 3.9 L 119.3 3.9 L 119.3 2.9 L 120.2 2.9 L 120.2 1.1 L 121.4 0.4 L 121.4 2.9 L 122.7 2.9 L 122.7 3.9 L 121.4 3.9 C 121.4 3.9 121.43 8.13 121.4 8.1 C 121.4 8.5 121.4 8.7 121.5 8.8 C 121.5 8.9 121.6 9 121.7 9.1 C 121.8 9.1 121.9 9.1 122.1 9.1 C 122.1 9.1 122.1 9.1 122.1 9.1 Z M 123.9 1.6 L 123.9 0.2 L 125.1 0.2 L 125.1 1.6 L 123.9 1.6 Z M 123.9 10.2 L 123.9 2.9 L 125.1 2.9 L 125.1 10.2 L 123.9 10.2 Z M 126.5 8 C 126.5 8 127.7 7.8 127.7 7.8 C 127.8 8.3 128 8.7 128.3 9 C 128.6 9.2 129 9.3 129.6 9.3 C 130.1 9.3 130.6 9.2 130.8 9 C 131.1 8.8 131.3 8.5 131.3 8.2 C 131.3 7.9 131.1 7.7 130.9 7.5 C 130.7 7.4 130.3 7.3 129.6 7.1 C 128.7 6.9 128.1 6.7 127.8 6.5 C 127.4 6.4 127.1 6.1 127 5.8 C 126.8 5.5 126.7 5.2 126.7 4.9 C 126.7 4.5 126.8 4.2 126.9 4 C 127.1 3.7 127.3 3.5 127.5 3.3 C 127.7 3.1 128 3 128.3 2.9 C 128.6 2.8 129 2.8 129.4 2.8 C 129.9 2.8 130.4 2.9 130.9 3 C 131.3 3.2 131.6 3.4 131.8 3.7 C 132 4 132.2 4.3 132.2 4.8 C 132.2 4.8 131 5 131 5 C 131 4.6 130.8 4.3 130.6 4.1 C 130.3 3.9 129.9 3.8 129.5 3.8 C 128.9 3.8 128.5 3.9 128.2 4.1 C 128 4.2 127.9 4.5 127.9 4.7 C 127.9 4.9 127.9 5 128 5.1 C 128.1 5.3 128.3 5.4 128.5 5.5 C 128.6 5.5 129 5.6 129.6 5.8 C 130.5 6 131.1 6.2 131.4 6.4 C 131.8 6.5 132 6.7 132.2 7 C 132.4 7.3 132.5 7.6 132.5 8.1 C 132.5 8.5 132.4 8.9 132.2 9.2 C 131.9 9.6 131.6 9.9 131.1 10.1 C 130.7 10.3 130.2 10.4 129.6 10.4 C 128.6 10.4 127.9 10.2 127.4 9.8 C 126.9 9.4 126.6 8.8 126.5 8 Z M 136.1 9.1 C 136.3 9.1 136.4 9.1 136.7 9.1 C 136.7 9.1 136.8 10.2 136.8 10.2 C 136.5 10.3 136.2 10.3 135.9 10.3 C 135.5 10.3 135.1 10.2 134.9 10.1 C 134.6 9.9 134.5 9.7 134.4 9.5 C 134.3 9.3 134.2 8.8 134.2 8.1 C 134.2 8.07 134.2 3.9 134.2 3.9 L 133.3 3.9 L 133.3 2.9 L 134.2 2.9 L 134.2 1.1 L 135.4 0.4 L 135.4 2.9 L 136.7 2.9 L 136.7 3.9 L 135.4 3.9 C 135.4 3.9 135.43 8.13 135.4 8.1 C 135.4 8.5 135.4 8.7 135.5 8.8 C 135.5 8.9 135.6 9 135.7 9.1 C 135.8 9.1 135.9 9.1 136.1 9.1 C 136.1 9.1 136.1 9.1 136.1 9.1 Z " stroke="none" fill="#010102"/>  </g></svg>