<?xml version="1.0" standalone="no"?><!DOCTYPE svg PUBLIC "-//W3C//DTD SVG 1.1//EN" "http://www.w3.org/Graphics/SVG/1.1/DTD/svg11.dtd"><svg xmlns="http://www.w3.org/2000/svg" version="1.1" width="88px" height="23.9px" viewBox="0 -5 88 23.9" style="top:-5px">  <desc>36 Standards</desc>  <defs/>  <g id="Polygon107517">    <path d="M 0.5 7.5 C 0.5 7.5 2.4 7.3 2.4 7.3 C 2.4 7.8 2.6 8.1 2.9 8.4 C 3.1 8.6 3.4 8.8 3.8 8.8 C 4.2 8.8 4.5 8.6 4.8 8.3 C 5.1 8 5.2 7.6 5.2 7.1 C 5.2 6.6 5.1 6.2 4.8 6 C 4.6 5.7 4.2 5.5 3.9 5.5 C 3.6 5.5 3.3 5.6 3 5.7 C 3 5.7 3.2 4.1 3.2 4.1 C 3.7 4.1 4.1 4 4.4 3.8 C 4.7 3.5 4.8 3.2 4.8 2.8 C 4.8 2.5 4.7 2.2 4.5 2 C 4.3 1.8 4 1.7 3.7 1.7 C 3.4 1.7 3.1 1.8 2.9 2.1 C 2.6 2.3 2.5 2.6 2.4 3 C 2.4 3 0.7 2.7 0.7 2.7 C 0.8 2.1 1 1.7 1.2 1.3 C 1.5 0.9 1.8 0.6 2.3 0.4 C 2.7 0.2 3.2 0.1 3.8 0.1 C 4.7 0.1 5.5 0.4 6 1 C 6.5 1.5 6.7 2.1 6.7 2.7 C 6.7 3.6 6.3 4.3 5.3 4.8 C 5.9 4.9 6.3 5.2 6.7 5.6 C 7 6.1 7.2 6.6 7.2 7.2 C 7.2 8.1 6.9 8.8 6.2 9.4 C 5.6 10.1 4.8 10.4 3.8 10.4 C 2.9 10.4 2.2 10.1 1.6 9.6 C 1 9.1 0.6 8.4 0.5 7.5 Z M 14.9 2.6 C 14.9 2.6 13 2.8 13 2.8 C 13 2.4 12.9 2.2 12.7 2 C 12.5 1.8 12.2 1.7 11.9 1.7 C 11.5 1.7 11.2 1.9 10.9 2.3 C 10.6 2.6 10.4 3.4 10.4 4.5 C 10.8 4 11.4 3.7 12.2 3.7 C 13 3.7 13.6 4 14.2 4.6 C 14.8 5.2 15.1 6 15.1 7 C 15.1 8 14.8 8.8 14.2 9.4 C 13.6 10.1 12.8 10.4 11.9 10.4 C 10.8 10.4 10 10 9.4 9.2 C 8.7 8.4 8.4 7.1 8.4 5.3 C 8.4 3.5 8.7 2.2 9.4 1.3 C 10.1 0.5 11 0.1 12 0.1 C 12.8 0.1 13.4 0.3 13.9 0.8 C 14.4 1.2 14.8 1.8 14.9 2.6 Z M 10.5 6.8 C 10.5 7.4 10.7 7.9 11 8.3 C 11.3 8.6 11.6 8.8 11.9 8.8 C 12.3 8.8 12.6 8.6 12.8 8.4 C 13.1 8.1 13.2 7.6 13.2 7 C 13.2 6.3 13.1 5.9 12.8 5.6 C 12.6 5.3 12.2 5.1 11.9 5.1 C 11.5 5.1 11.2 5.2 10.9 5.5 C 10.7 5.8 10.5 6.3 10.5 6.8 Z M 20 6.9 C 20 6.9 21.9 6.7 21.9 6.7 C 22.1 7.4 22.3 7.9 22.7 8.2 C 23 8.5 23.5 8.7 24.1 8.7 C 24.8 8.7 25.3 8.5 25.6 8.2 C 25.9 8 26.1 7.6 26.1 7.3 C 26.1 7 26 6.8 25.9 6.7 C 25.7 6.5 25.5 6.4 25.2 6.2 C 24.9 6.2 24.4 6 23.5 5.8 C 22.5 5.5 21.7 5.2 21.3 4.8 C 20.6 4.3 20.3 3.6 20.3 2.8 C 20.3 2.3 20.5 1.8 20.8 1.4 C 21.1 0.9 21.5 0.6 22 0.3 C 22.6 0.1 23.2 0 24 0 C 25.2 0 26.2 0.3 26.8 0.8 C 27.5 1.4 27.8 2.1 27.8 3 C 27.8 3 25.8 3.1 25.8 3.1 C 25.7 2.6 25.5 2.2 25.2 2 C 25 1.8 24.5 1.7 24 1.7 C 23.4 1.7 22.9 1.8 22.6 2 C 22.4 2.2 22.3 2.4 22.3 2.7 C 22.3 2.9 22.4 3.1 22.6 3.3 C 22.8 3.5 23.4 3.7 24.4 3.9 C 25.4 4.2 26.1 4.4 26.6 4.7 C 27.1 4.9 27.4 5.2 27.7 5.7 C 28 6.1 28.1 6.6 28.1 7.3 C 28.1 7.8 28 8.4 27.6 8.9 C 27.3 9.4 26.9 9.8 26.3 10 C 25.7 10.2 25 10.4 24.1 10.4 C 22.8 10.4 21.9 10.1 21.2 9.5 C 20.5 8.9 20.1 8.1 20 6.9 Z M 33.1 2.9 L 33.1 4.5 L 31.8 4.5 C 31.8 4.5 31.82 7.39 31.8 7.4 C 31.8 8 31.8 8.3 31.9 8.4 C 31.9 8.5 31.9 8.6 32 8.7 C 32.1 8.7 32.2 8.8 32.4 8.8 C 32.5 8.8 32.8 8.7 33.1 8.6 C 33.1 8.6 33.3 10.1 33.3 10.1 C 32.8 10.3 32.3 10.4 31.8 10.4 C 31.4 10.4 31.1 10.3 30.8 10.2 C 30.6 10.1 30.4 9.9 30.2 9.7 C 30.1 9.5 30 9.3 30 9 C 29.9 8.8 29.9 8.3 29.9 7.6 C 29.89 7.63 29.9 4.5 29.9 4.5 L 29 4.5 L 29 2.9 L 29.9 2.9 L 29.9 1.5 L 31.8 0.4 L 31.8 2.9 L 33.1 2.9 Z M 35.9 5.1 C 35.9 5.1 34.2 4.8 34.2 4.8 C 34.4 4.1 34.7 3.6 35.2 3.3 C 35.6 2.9 36.4 2.8 37.3 2.8 C 38.2 2.8 38.8 2.9 39.2 3.1 C 39.6 3.3 39.9 3.5 40.1 3.8 C 40.3 4.2 40.4 4.7 40.4 5.6 C 40.4 5.6 40.3 7.8 40.3 7.8 C 40.3 8.4 40.4 8.9 40.4 9.2 C 40.5 9.5 40.6 9.8 40.8 10.2 C 40.8 10.2 38.9 10.2 38.9 10.2 C 38.8 10.1 38.8 9.9 38.7 9.6 C 38.7 9.5 38.6 9.4 38.6 9.4 C 38.3 9.7 37.9 10 37.6 10.1 C 37.2 10.3 36.8 10.4 36.4 10.4 C 35.6 10.4 35 10.2 34.6 9.7 C 34.2 9.3 34 8.8 34 8.2 C 34 7.8 34.1 7.4 34.3 7.1 C 34.5 6.8 34.7 6.5 35.1 6.4 C 35.4 6.2 35.9 6.1 36.6 5.9 C 37.5 5.8 38.1 5.6 38.5 5.5 C 38.5 5.5 38.5 5.3 38.5 5.3 C 38.5 4.9 38.4 4.6 38.2 4.5 C 38 4.3 37.7 4.2 37.2 4.2 C 36.8 4.2 36.6 4.3 36.4 4.4 C 36.2 4.6 36 4.8 35.9 5.1 Z M 38.5 6.7 C 38.2 6.8 37.8 6.9 37.3 7 C 36.8 7.1 36.4 7.2 36.3 7.3 C 36 7.5 35.9 7.7 35.9 8 C 35.9 8.3 36 8.5 36.2 8.7 C 36.4 8.9 36.6 9 36.9 9 C 37.3 9 37.6 8.9 37.9 8.7 C 38.2 8.5 38.3 8.3 38.4 8 C 38.4 7.9 38.5 7.5 38.5 7.1 C 38.5 7.1 38.5 6.7 38.5 6.7 Z M 48.9 10.2 L 46.9 10.2 C 46.9 10.2 46.94 6.49 46.9 6.5 C 46.9 5.7 46.9 5.2 46.8 5 C 46.7 4.7 46.6 4.6 46.4 4.4 C 46.2 4.3 46 4.2 45.7 4.2 C 45.4 4.2 45.1 4.3 44.9 4.5 C 44.6 4.7 44.4 4.9 44.3 5.2 C 44.2 5.5 44.2 6.1 44.2 6.9 C 44.16 6.9 44.2 10.2 44.2 10.2 L 42.2 10.2 L 42.2 2.9 L 44 2.9 C 44 2.9 44.02 4 44 4 C 44.7 3.2 45.5 2.8 46.4 2.8 C 46.8 2.8 47.2 2.8 47.6 3 C 47.9 3.2 48.2 3.3 48.4 3.6 C 48.6 3.8 48.7 4.1 48.8 4.4 C 48.8 4.7 48.9 5.1 48.9 5.7 C 48.86 5.68 48.9 10.2 48.9 10.2 Z M 57.5 10.2 L 55.7 10.2 C 55.7 10.2 55.68 9.13 55.7 9.1 C 55.4 9.5 55 9.8 54.6 10.1 C 54.2 10.3 53.8 10.4 53.4 10.4 C 52.6 10.4 51.9 10 51.3 9.3 C 50.7 8.7 50.4 7.7 50.4 6.5 C 50.4 5.3 50.7 4.4 51.2 3.7 C 51.8 3.1 52.6 2.8 53.4 2.8 C 54.2 2.8 54.9 3.1 55.5 3.8 C 55.54 3.78 55.5 0.2 55.5 0.2 L 57.5 0.2 L 57.5 10.2 Z M 52.3 6.4 C 52.3 7.2 52.4 7.7 52.7 8.1 C 53 8.6 53.4 8.8 54 8.8 C 54.4 8.8 54.8 8.7 55.1 8.3 C 55.4 7.9 55.5 7.3 55.5 6.6 C 55.5 5.8 55.4 5.2 55.1 4.8 C 54.8 4.4 54.4 4.2 53.9 4.2 C 53.5 4.2 53.1 4.4 52.8 4.8 C 52.5 5.1 52.3 5.7 52.3 6.4 Z M 60.8 5.1 C 60.8 5.1 59 4.8 59 4.8 C 59.2 4.1 59.6 3.6 60.1 3.3 C 60.5 2.9 61.3 2.8 62.2 2.8 C 63.1 2.8 63.7 2.9 64.1 3.1 C 64.5 3.3 64.8 3.5 65 3.8 C 65.2 4.2 65.2 4.7 65.2 5.6 C 65.2 5.6 65.2 7.8 65.2 7.8 C 65.2 8.4 65.3 8.9 65.3 9.2 C 65.4 9.5 65.5 9.8 65.7 10.2 C 65.7 10.2 63.8 10.2 63.8 10.2 C 63.7 10.1 63.7 9.9 63.6 9.6 C 63.5 9.5 63.5 9.4 63.5 9.4 C 63.2 9.7 62.8 10 62.5 10.1 C 62.1 10.3 61.7 10.4 61.3 10.4 C 60.5 10.4 59.9 10.2 59.5 9.7 C 59.1 9.3 58.9 8.8 58.9 8.2 C 58.9 7.8 58.9 7.4 59.1 7.1 C 59.3 6.8 59.6 6.5 60 6.4 C 60.3 6.2 60.8 6.1 61.5 5.9 C 62.4 5.8 63 5.6 63.4 5.5 C 63.4 5.5 63.4 5.3 63.4 5.3 C 63.4 4.9 63.3 4.6 63.1 4.5 C 62.9 4.3 62.6 4.2 62.1 4.2 C 61.7 4.2 61.4 4.3 61.3 4.4 C 61.1 4.6 60.9 4.8 60.8 5.1 Z M 63.4 6.7 C 63.1 6.8 62.7 6.9 62.2 7 C 61.7 7.1 61.3 7.2 61.1 7.3 C 60.9 7.5 60.8 7.7 60.8 8 C 60.8 8.3 60.9 8.5 61.1 8.7 C 61.3 8.9 61.5 9 61.8 9 C 62.2 9 62.5 8.9 62.8 8.7 C 63.1 8.5 63.2 8.3 63.3 8 C 63.3 7.9 63.4 7.5 63.4 7.1 C 63.4 7.1 63.4 6.7 63.4 6.7 Z M 69 10.2 L 67.1 10.2 L 67.1 2.9 L 68.8 2.9 C 68.8 2.9 68.84 3.96 68.8 4 C 69.1 3.5 69.4 3.2 69.7 3 C 69.9 2.8 70.2 2.8 70.5 2.8 C 70.9 2.8 71.4 2.9 71.8 3.1 C 71.8 3.1 71.2 4.8 71.2 4.8 C 70.8 4.6 70.5 4.5 70.3 4.5 C 70 4.5 69.8 4.6 69.6 4.7 C 69.4 4.9 69.2 5.1 69.1 5.5 C 69 5.9 69 6.7 69 8 C 68.98 7.95 69 10.2 69 10.2 Z M 79.2 10.2 L 77.5 10.2 C 77.5 10.2 77.46 9.13 77.5 9.1 C 77.2 9.5 76.8 9.8 76.4 10.1 C 76 10.3 75.6 10.4 75.2 10.4 C 74.4 10.4 73.6 10 73.1 9.3 C 72.5 8.7 72.2 7.7 72.2 6.5 C 72.2 5.3 72.4 4.4 73 3.7 C 73.6 3.1 74.3 2.8 75.2 2.8 C 76 2.8 76.7 3.1 77.3 3.8 C 77.33 3.78 77.3 0.2 77.3 0.2 L 79.2 0.2 L 79.2 10.2 Z M 74.1 6.4 C 74.1 7.2 74.2 7.7 74.4 8.1 C 74.8 8.6 75.2 8.8 75.7 8.8 C 76.2 8.8 76.6 8.7 76.9 8.3 C 77.2 7.9 77.3 7.3 77.3 6.6 C 77.3 5.8 77.2 5.2 76.9 4.8 C 76.6 4.4 76.2 4.2 75.7 4.2 C 75.3 4.2 74.9 4.4 74.6 4.8 C 74.3 5.1 74.1 5.7 74.1 6.4 Z M 80.5 8.1 C 80.5 8.1 82.4 7.8 82.4 7.8 C 82.5 8.2 82.6 8.5 82.9 8.7 C 83.1 8.9 83.5 9 83.9 9 C 84.4 9 84.8 8.9 85.1 8.7 C 85.2 8.6 85.3 8.4 85.3 8.2 C 85.3 8 85.3 7.9 85.2 7.8 C 85.1 7.7 84.9 7.6 84.5 7.6 C 83 7.2 82 6.9 81.6 6.6 C 81 6.2 80.7 5.7 80.7 5 C 80.7 4.4 81 3.8 81.5 3.4 C 82 3 82.7 2.8 83.8 2.8 C 84.8 2.8 85.5 2.9 86 3.3 C 86.5 3.6 86.8 4.1 87 4.7 C 87 4.7 85.2 5 85.2 5 C 85.1 4.7 85 4.5 84.7 4.4 C 84.5 4.2 84.2 4.1 83.8 4.1 C 83.3 4.1 83 4.2 82.7 4.4 C 82.6 4.5 82.5 4.6 82.5 4.8 C 82.5 4.9 82.6 5 82.7 5.1 C 82.9 5.2 83.5 5.4 84.5 5.6 C 85.5 5.9 86.2 6.2 86.6 6.5 C 87 6.8 87.2 7.3 87.2 7.9 C 87.2 8.6 87 9.2 86.4 9.6 C 85.9 10.1 85 10.4 83.9 10.4 C 83 10.4 82.2 10.2 81.6 9.8 C 81 9.4 80.6 8.8 80.5 8.1 Z " stroke="none" fill="#ffffff"/>  </g></svg>