<?xml version="1.0" standalone="no"?><!DOCTYPE svg PUBLIC "-//W3C//DTD SVG 1.1//EN" "http://www.w3.org/Graphics/SVG/1.1/DTD/svg11.dtd"><svg xmlns="http://www.w3.org/2000/svg" version="1.1" width="280.3px" height="141.9px" viewBox="0 -5 280.3 141.9" style="top:-5px">  <desc>L2 Software &amp; Data Foundation L2 Apprenticeship L3 Digital Support Technician L3 Data Technician L4 Data Analyst L4 B...</desc>  <defs/>  <g id="Polygon111887">    <path d="M 1.1 127.8 L 1.1 117.9 L 3.1 117.9 L 3.1 126.1 L 8.1 126.1 L 8.1 127.8 L 1.1 127.8 Z M 12.9 127.8 L 12.9 125.8 L 8.8 125.8 L 8.8 124.1 L 13.2 117.7 L 14.8 117.7 L 14.8 124.1 L 16 124.1 L 16 125.8 L 14.8 125.8 L 14.8 127.8 L 12.9 127.8 Z M 12.9 124.1 L 12.9 120.7 L 10.6 124.1 L 12.9 124.1 Z M 28.5 124.3 C 28.5 124.3 29.8 124.6 29.8 124.6 C 29.5 125.7 29 126.5 28.3 127.1 C 27.6 127.7 26.7 128 25.6 128 C 24.6 128 23.7 127.7 23 127.3 C 22.3 126.9 21.8 126.2 21.5 125.4 C 21.1 124.6 20.9 123.7 20.9 122.7 C 20.9 121.7 21.1 120.8 21.5 120 C 21.9 119.2 22.5 118.6 23.2 118.2 C 24 117.8 24.8 117.6 25.7 117.6 C 26.7 117.6 27.5 117.9 28.2 118.4 C 28.9 118.9 29.3 119.6 29.6 120.5 C 29.6 120.5 28.3 120.8 28.3 120.8 C 28.1 120.1 27.7 119.6 27.3 119.2 C 26.9 118.9 26.3 118.7 25.6 118.7 C 24.9 118.7 24.2 118.9 23.7 119.3 C 23.2 119.7 22.8 120.2 22.6 120.8 C 22.4 121.4 22.3 122 22.3 122.7 C 22.3 123.6 22.4 124.3 22.7 124.9 C 22.9 125.6 23.3 126 23.8 126.4 C 24.3 126.7 24.9 126.8 25.5 126.8 C 26.3 126.8 26.9 126.6 27.4 126.2 C 27.9 125.8 28.3 125.1 28.5 124.3 Z M 32 130.7 C 31.8 130.7 31.5 130.7 31.2 130.6 C 31.2 130.6 31.1 129.4 31.1 129.4 C 31.3 129.5 31.6 129.5 31.8 129.5 C 32 129.5 32.3 129.5 32.4 129.4 C 32.6 129.3 32.7 129.2 32.8 129 C 32.9 128.9 33 128.6 33.2 128.1 C 33.2 128 33.3 127.9 33.3 127.8 C 33.32 127.81 30.6 120.5 30.6 120.5 L 31.9 120.5 C 31.9 120.5 33.4 124.74 33.4 124.7 C 33.6 125.3 33.8 125.8 33.9 126.4 C 34.1 125.9 34.2 125.3 34.4 124.8 C 34.43 124.76 36 120.5 36 120.5 L 37.2 120.5 C 37.2 120.5 34.45 127.92 34.5 127.9 C 34.2 128.7 33.9 129.3 33.8 129.6 C 33.5 130 33.3 130.3 33 130.5 C 32.7 130.6 32.4 130.7 32 130.7 C 32 130.7 32 130.7 32 130.7 Z M 39.4 127.8 L 38.3 127.8 L 38.3 117.8 L 39.5 117.8 C 39.5 117.8 39.48 121.35 39.5 121.3 C 40 120.7 40.7 120.4 41.5 120.4 C 41.9 120.4 42.3 120.5 42.7 120.6 C 43.1 120.8 43.5 121.1 43.7 121.4 C 44 121.7 44.2 122.1 44.3 122.6 C 44.5 123 44.5 123.5 44.5 124.1 C 44.5 125.3 44.2 126.3 43.6 126.9 C 43 127.6 42.3 128 41.4 128 C 40.6 128 39.9 127.6 39.4 126.9 C 39.4 126.88 39.4 127.8 39.4 127.8 Z M 39.4 124.1 C 39.4 125 39.5 125.6 39.7 126 C 40.1 126.6 40.6 126.9 41.3 126.9 C 41.8 126.9 42.3 126.7 42.7 126.2 C 43.1 125.8 43.3 125.1 43.3 124.2 C 43.3 123.2 43.1 122.5 42.7 122.1 C 42.4 121.6 41.9 121.4 41.4 121.4 C 40.8 121.4 40.4 121.6 40 122.1 C 39.6 122.5 39.4 123.2 39.4 124.1 Z M 51 125.5 C 51 125.5 52.3 125.6 52.3 125.6 C 52.1 126.4 51.7 126.9 51.2 127.3 C 50.6 127.8 49.9 128 49.1 128 C 48 128 47.2 127.6 46.6 127 C 45.9 126.3 45.6 125.4 45.6 124.2 C 45.6 123 46 122.1 46.6 121.4 C 47.2 120.7 48 120.4 49 120.4 C 50 120.4 50.8 120.7 51.4 121.4 C 52 122 52.3 123 52.3 124.1 C 52.3 124.2 52.3 124.3 52.3 124.5 C 52.3 124.5 46.9 124.5 46.9 124.5 C 47 125.3 47.2 125.9 47.6 126.3 C 48 126.7 48.5 126.9 49.1 126.9 C 49.6 126.9 49.9 126.8 50.3 126.6 C 50.6 126.4 50.8 126 51 125.5 Z M 47 123.5 C 47 123.5 51 123.5 51 123.5 C 51 122.9 50.8 122.4 50.6 122.1 C 50.2 121.6 49.7 121.4 49 121.4 C 48.5 121.4 48 121.6 47.6 121.9 C 47.2 122.3 47 122.8 47 123.5 Z M 53.8 127.8 L 53.8 120.5 L 54.9 120.5 C 54.9 120.5 54.93 121.63 54.9 121.6 C 55.2 121.1 55.5 120.8 55.7 120.6 C 55.9 120.5 56.2 120.4 56.5 120.4 C 56.9 120.4 57.3 120.5 57.8 120.8 C 57.8 120.8 57.3 121.9 57.3 121.9 C 57 121.7 56.7 121.6 56.4 121.6 C 56.2 121.6 55.9 121.7 55.7 121.9 C 55.5 122 55.3 122.3 55.3 122.6 C 55.1 123 55 123.5 55 124 C 55.05 123.99 55 127.8 55 127.8 L 53.8 127.8 Z M 62.1 124.6 C 62.1 124.6 63.3 124.5 63.3 124.5 C 63.4 125 63.5 125.4 63.8 125.7 C 64 126 64.3 126.3 64.8 126.5 C 65.2 126.7 65.7 126.8 66.3 126.8 C 66.8 126.8 67.3 126.7 67.6 126.5 C 68 126.4 68.3 126.2 68.5 125.9 C 68.7 125.7 68.8 125.4 68.8 125.1 C 68.8 124.8 68.7 124.5 68.5 124.2 C 68.3 124 68 123.8 67.6 123.7 C 67.3 123.6 66.8 123.4 65.8 123.2 C 64.9 122.9 64.3 122.7 63.9 122.5 C 63.4 122.3 63.1 122 62.8 121.6 C 62.6 121.2 62.5 120.8 62.5 120.4 C 62.5 119.9 62.6 119.4 62.9 118.9 C 63.2 118.5 63.6 118.2 64.2 117.9 C 64.7 117.7 65.3 117.6 66 117.6 C 66.7 117.6 67.4 117.7 68 118 C 68.5 118.2 69 118.6 69.3 119 C 69.6 119.5 69.7 120 69.8 120.6 C 69.8 120.6 68.5 120.7 68.5 120.7 C 68.4 120.1 68.2 119.6 67.8 119.3 C 67.4 118.9 66.8 118.8 66.1 118.8 C 65.3 118.8 64.7 118.9 64.3 119.2 C 63.9 119.5 63.8 119.9 63.8 120.3 C 63.8 120.6 63.9 120.9 64.1 121.2 C 64.4 121.4 65.1 121.6 66.1 121.9 C 67.2 122.1 68 122.3 68.4 122.5 C 68.9 122.8 69.4 123.1 69.7 123.5 C 69.9 123.9 70.1 124.4 70.1 125 C 70.1 125.5 69.9 126 69.6 126.5 C 69.3 126.9 68.9 127.3 68.3 127.6 C 67.7 127.8 67.1 128 66.4 128 C 65.5 128 64.7 127.8 64.1 127.6 C 63.5 127.3 63 126.9 62.6 126.4 C 62.3 125.8 62.1 125.2 62.1 124.6 Z M 76.7 125.5 C 76.7 125.5 78 125.6 78 125.6 C 77.8 126.4 77.4 126.9 76.8 127.3 C 76.3 127.8 75.6 128 74.8 128 C 73.7 128 72.9 127.6 72.2 127 C 71.6 126.3 71.3 125.4 71.3 124.2 C 71.3 123 71.6 122.1 72.3 121.4 C 72.9 120.7 73.7 120.4 74.7 120.4 C 75.7 120.4 76.5 120.7 77.1 121.4 C 77.7 122 78 123 78 124.1 C 78 124.2 78 124.3 78 124.5 C 78 124.5 72.6 124.5 72.6 124.5 C 72.6 125.3 72.9 125.9 73.3 126.3 C 73.7 126.7 74.2 126.9 74.8 126.9 C 75.2 126.9 75.6 126.8 75.9 126.6 C 76.3 126.4 76.5 126 76.7 125.5 Z M 72.7 123.5 C 72.7 123.5 76.7 123.5 76.7 123.5 C 76.7 122.9 76.5 122.4 76.2 122.1 C 75.8 121.6 75.3 121.4 74.7 121.4 C 74.2 121.4 73.7 121.6 73.3 121.9 C 72.9 122.3 72.7 122.8 72.7 123.5 Z M 84.2 125.1 C 84.2 125.1 85.5 125.3 85.5 125.3 C 85.3 126.1 85 126.8 84.4 127.2 C 83.9 127.7 83.2 128 82.4 128 C 81.4 128 80.6 127.6 80 127 C 79.4 126.3 79.1 125.4 79.1 124.2 C 79.1 123.4 79.3 122.7 79.5 122.1 C 79.8 121.5 80.2 121.1 80.7 120.8 C 81.2 120.5 81.8 120.4 82.4 120.4 C 83.2 120.4 83.9 120.6 84.4 121 C 84.9 121.4 85.2 121.9 85.3 122.7 C 85.3 122.7 84.1 122.9 84.1 122.9 C 84 122.4 83.8 122 83.5 121.7 C 83.2 121.5 82.9 121.4 82.5 121.4 C 81.9 121.4 81.4 121.6 81 122 C 80.6 122.5 80.4 123.2 80.4 124.2 C 80.4 125.1 80.6 125.8 81 126.3 C 81.3 126.7 81.8 126.9 82.4 126.9 C 82.9 126.9 83.3 126.8 83.6 126.5 C 84 126.2 84.2 125.7 84.2 125.1 Z M 91.3 127.8 C 91.3 127.8 91.27 126.73 91.3 126.7 C 90.7 127.5 89.9 128 89 128 C 88.5 128 88.1 127.9 87.8 127.7 C 87.4 127.5 87.1 127.3 86.9 127.1 C 86.8 126.8 86.6 126.5 86.6 126.2 C 86.5 125.9 86.5 125.6 86.5 125 C 86.48 125.03 86.5 120.5 86.5 120.5 L 87.7 120.5 C 87.7 120.5 87.71 124.56 87.7 124.6 C 87.7 125.2 87.7 125.6 87.8 125.9 C 87.9 126.2 88 126.4 88.3 126.6 C 88.5 126.8 88.8 126.9 89.2 126.9 C 89.6 126.9 89.9 126.8 90.2 126.6 C 90.6 126.4 90.8 126.2 90.9 125.8 C 91.1 125.5 91.1 125 91.1 124.4 C 91.14 124.42 91.1 120.5 91.1 120.5 L 92.4 120.5 L 92.4 127.8 L 91.3 127.8 Z M 94.3 127.8 L 94.3 120.5 L 95.4 120.5 C 95.4 120.5 95.39 121.63 95.4 121.6 C 95.7 121.1 95.9 120.8 96.2 120.6 C 96.4 120.5 96.7 120.4 97 120.4 C 97.4 120.4 97.8 120.5 98.2 120.8 C 98.2 120.8 97.8 121.9 97.8 121.9 C 97.5 121.7 97.2 121.6 96.9 121.6 C 96.6 121.6 96.4 121.7 96.2 121.9 C 96 122 95.8 122.3 95.7 122.6 C 95.6 123 95.5 123.5 95.5 124 C 95.51 123.99 95.5 127.8 95.5 127.8 L 94.3 127.8 Z M 99 119.2 L 99 117.8 L 100.2 117.8 L 100.2 119.2 L 99 119.2 Z M 99 127.8 L 99 120.5 L 100.2 120.5 L 100.2 127.8 L 99 127.8 Z M 104.2 126.7 C 104.4 126.7 104.5 126.7 104.8 126.7 C 104.8 126.7 104.9 127.8 104.9 127.8 C 104.6 127.9 104.3 127.9 104 127.9 C 103.6 127.9 103.2 127.8 103 127.7 C 102.7 127.5 102.5 127.3 102.4 127.1 C 102.3 126.9 102.3 126.4 102.3 125.7 C 102.29 125.67 102.3 121.5 102.3 121.5 L 101.4 121.5 L 101.4 120.5 L 102.3 120.5 L 102.3 118.7 L 103.5 118 L 103.5 120.5 L 104.8 120.5 L 104.8 121.5 L 103.5 121.5 C 103.5 121.5 103.52 125.73 103.5 125.7 C 103.5 126.1 103.5 126.3 103.6 126.4 C 103.6 126.5 103.7 126.6 103.8 126.7 C 103.9 126.7 104 126.7 104.2 126.7 C 104.2 126.7 104.2 126.7 104.2 126.7 Z M 106.7 130.7 C 106.5 130.7 106.2 130.7 105.9 130.6 C 105.9 130.6 105.8 129.4 105.8 129.4 C 106 129.5 106.3 129.5 106.5 129.5 C 106.7 129.5 107 129.5 107.1 129.4 C 107.3 129.3 107.4 129.2 107.5 129 C 107.6 128.9 107.7 128.6 107.9 128.1 C 107.9 128 108 127.9 108 127.8 C 108.01 127.81 105.3 120.5 105.3 120.5 L 106.6 120.5 C 106.6 120.5 108.1 124.74 108.1 124.7 C 108.3 125.3 108.5 125.8 108.6 126.4 C 108.8 125.9 108.9 125.3 109.1 124.8 C 109.13 124.76 110.7 120.5 110.7 120.5 L 111.9 120.5 C 111.9 120.5 109.15 127.92 109.1 127.9 C 108.9 128.7 108.6 129.3 108.5 129.6 C 108.2 130 108 130.3 107.7 130.5 C 107.4 130.6 107.1 130.7 106.7 130.7 C 106.7 130.7 106.7 130.7 106.7 130.7 Z M 119.3 127.8 L 119.3 119 L 116 119 L 116 117.8 L 123.9 117.8 L 123.9 119 L 120.6 119 L 120.6 127.8 L 119.3 127.8 Z M 128.6 125.5 C 128.6 125.5 129.8 125.6 129.8 125.6 C 129.6 126.4 129.3 126.9 128.7 127.3 C 128.2 127.8 127.5 128 126.6 128 C 125.6 128 124.7 127.6 124.1 127 C 123.5 126.3 123.2 125.4 123.2 124.2 C 123.2 123 123.5 122.1 124.1 121.4 C 124.8 120.7 125.6 120.4 126.6 120.4 C 127.5 120.4 128.3 120.7 129 121.4 C 129.6 122 129.9 123 129.9 124.1 C 129.9 124.2 129.9 124.3 129.9 124.5 C 129.9 124.5 124.5 124.5 124.5 124.5 C 124.5 125.3 124.7 125.9 125.1 126.3 C 125.5 126.7 126 126.9 126.6 126.9 C 127.1 126.9 127.5 126.8 127.8 126.6 C 128.1 126.4 128.4 126 128.6 125.5 Z M 124.5 123.5 C 124.5 123.5 128.6 123.5 128.6 123.5 C 128.5 122.9 128.4 122.4 128.1 122.1 C 127.7 121.6 127.2 121.4 126.6 121.4 C 126 121.4 125.5 121.6 125.2 121.9 C 124.8 122.3 124.6 122.8 124.5 123.5 Z M 136.1 125.1 C 136.1 125.1 137.3 125.3 137.3 125.3 C 137.2 126.1 136.9 126.8 136.3 127.2 C 135.8 127.7 135.1 128 134.3 128 C 133.3 128 132.5 127.6 131.9 127 C 131.3 126.3 131 125.4 131 124.2 C 131 123.4 131.1 122.7 131.4 122.1 C 131.7 121.5 132 121.1 132.6 120.8 C 133.1 120.5 133.7 120.4 134.3 120.4 C 135.1 120.4 135.7 120.6 136.2 121 C 136.7 121.4 137.1 121.9 137.2 122.7 C 137.2 122.7 136 122.9 136 122.9 C 135.9 122.4 135.7 122 135.4 121.7 C 135.1 121.5 134.8 121.4 134.4 121.4 C 133.7 121.4 133.2 121.6 132.8 122 C 132.5 122.5 132.3 123.2 132.3 124.2 C 132.3 125.1 132.5 125.8 132.8 126.3 C 133.2 126.7 133.7 126.9 134.3 126.9 C 134.8 126.9 135.2 126.8 135.5 126.5 C 135.8 126.2 136 125.7 136.1 125.1 Z M 138.4 127.8 L 138.4 117.8 L 139.6 117.8 C 139.6 117.8 139.61 121.37 139.6 121.4 C 140.2 120.7 140.9 120.4 141.8 120.4 C 142.3 120.4 142.8 120.5 143.2 120.7 C 143.6 120.9 143.9 121.2 144 121.6 C 144.2 121.9 144.3 122.5 144.3 123.2 C 144.29 123.19 144.3 127.8 144.3 127.8 L 143.1 127.8 C 143.1 127.8 143.06 123.19 143.1 123.2 C 143.1 122.6 142.9 122.1 142.7 121.8 C 142.4 121.6 142 121.4 141.5 121.4 C 141.2 121.4 140.8 121.5 140.5 121.7 C 140.2 121.9 140 122.2 139.8 122.5 C 139.7 122.8 139.6 123.3 139.6 123.8 C 139.61 123.82 139.6 127.8 139.6 127.8 L 138.4 127.8 Z M 146.2 127.8 L 146.2 120.5 L 147.3 120.5 C 147.3 120.5 147.27 121.56 147.3 121.6 C 147.8 120.8 148.6 120.4 149.6 120.4 C 150 120.4 150.4 120.4 150.8 120.6 C 151.2 120.8 151.4 121 151.6 121.2 C 151.8 121.5 151.9 121.8 152 122.1 C 152 122.4 152.1 122.8 152.1 123.3 C 152.07 123.33 152.1 127.8 152.1 127.8 L 150.8 127.8 C 150.8 127.8 150.83 123.38 150.8 123.4 C 150.8 122.9 150.8 122.5 150.7 122.3 C 150.6 122 150.4 121.8 150.2 121.7 C 149.9 121.5 149.7 121.4 149.3 121.4 C 148.8 121.4 148.3 121.6 148 121.9 C 147.6 122.3 147.4 122.9 147.4 123.8 C 147.4 123.83 147.4 127.8 147.4 127.8 L 146.2 127.8 Z M 153.5 124.2 C 153.5 122.8 153.9 121.8 154.6 121.2 C 155.2 120.6 156 120.4 156.9 120.4 C 157.9 120.4 158.7 120.7 159.3 121.3 C 160 122 160.3 122.9 160.3 124.1 C 160.3 125 160.2 125.7 159.9 126.3 C 159.6 126.8 159.2 127.2 158.7 127.5 C 158.1 127.8 157.5 128 156.9 128 C 155.9 128 155.1 127.6 154.4 127 C 153.8 126.3 153.5 125.4 153.5 124.2 Z M 154.8 124.2 C 154.8 125.1 155 125.8 155.4 126.3 C 155.8 126.7 156.3 126.9 156.9 126.9 C 157.5 126.9 158 126.7 158.4 126.2 C 158.8 125.8 159 125.1 159 124.1 C 159 123.2 158.8 122.5 158.4 122.1 C 158 121.6 157.5 121.4 156.9 121.4 C 156.3 121.4 155.8 121.6 155.4 122.1 C 155 122.5 154.8 123.2 154.8 124.2 Z M 161.7 127.8 L 161.7 117.8 L 162.9 117.8 L 162.9 127.8 L 161.7 127.8 Z M 164.4 124.2 C 164.4 122.8 164.8 121.8 165.5 121.2 C 166.1 120.6 166.9 120.4 167.8 120.4 C 168.8 120.4 169.6 120.7 170.2 121.3 C 170.9 122 171.2 122.9 171.2 124.1 C 171.2 125 171.1 125.7 170.8 126.3 C 170.5 126.8 170.1 127.2 169.5 127.5 C 169 127.8 168.4 128 167.8 128 C 166.8 128 166 127.6 165.3 127 C 164.7 126.3 164.4 125.4 164.4 124.2 Z M 165.7 124.2 C 165.7 125.1 165.9 125.8 166.3 126.3 C 166.7 126.7 167.2 126.9 167.8 126.9 C 168.4 126.9 168.9 126.7 169.3 126.2 C 169.7 125.8 169.9 125.1 169.9 124.1 C 169.9 123.2 169.7 122.5 169.3 122.1 C 168.9 121.6 168.4 121.4 167.8 121.4 C 167.2 121.4 166.7 121.6 166.3 122.1 C 165.9 122.5 165.7 123.2 165.7 124.2 Z M 172.4 128.4 C 172.4 128.4 173.6 128.6 173.6 128.6 C 173.7 128.9 173.8 129.2 174 129.4 C 174.3 129.6 174.7 129.7 175.3 129.7 C 175.8 129.7 176.3 129.6 176.6 129.4 C 176.9 129.2 177.1 128.8 177.2 128.4 C 177.3 128.2 177.3 127.6 177.3 126.8 C 176.8 127.5 176.1 127.8 175.3 127.8 C 174.3 127.8 173.5 127.4 173 126.7 C 172.4 126 172.2 125.1 172.2 124.1 C 172.2 123.4 172.3 122.8 172.5 122.2 C 172.8 121.6 173.2 121.2 173.6 120.8 C 174.1 120.5 174.7 120.4 175.3 120.4 C 176.2 120.4 176.9 120.7 177.4 121.4 C 177.43 121.41 177.4 120.5 177.4 120.5 L 178.6 120.5 C 178.6 120.5 178.56 126.81 178.6 126.8 C 178.6 127.9 178.4 128.7 178.2 129.2 C 178 129.7 177.6 130.1 177.1 130.3 C 176.6 130.6 176 130.7 175.3 130.7 C 174.4 130.7 173.7 130.5 173.2 130.2 C 172.6 129.8 172.4 129.2 172.4 128.4 Z M 173.4 124 C 173.4 125 173.6 125.7 174 126.1 C 174.4 126.6 174.8 126.8 175.4 126.8 C 176 126.8 176.5 126.6 176.8 126.1 C 177.2 125.7 177.4 125 177.4 124.1 C 177.4 123.2 177.2 122.5 176.8 122.1 C 176.4 121.6 176 121.4 175.4 121.4 C 174.8 121.4 174.4 121.6 174 122.1 C 173.6 122.5 173.4 123.2 173.4 124 Z M 180.4 119.2 L 180.4 117.8 L 181.7 117.8 L 181.7 119.2 L 180.4 119.2 Z M 180.4 127.8 L 180.4 120.5 L 181.7 120.5 L 181.7 127.8 L 180.4 127.8 Z M 183 125.6 C 183 125.6 184.3 125.4 184.3 125.4 C 184.3 125.9 184.5 126.3 184.8 126.6 C 185.1 126.8 185.6 126.9 186.1 126.9 C 186.7 126.9 187.1 126.8 187.4 126.6 C 187.7 126.4 187.8 126.1 187.8 125.8 C 187.8 125.5 187.7 125.3 187.4 125.1 C 187.3 125 186.9 124.9 186.2 124.7 C 185.3 124.5 184.7 124.3 184.3 124.1 C 184 124 183.7 123.7 183.5 123.4 C 183.3 123.1 183.2 122.8 183.2 122.5 C 183.2 122.1 183.3 121.8 183.5 121.6 C 183.6 121.3 183.8 121.1 184.1 120.9 C 184.3 120.7 184.5 120.6 184.9 120.5 C 185.2 120.4 185.5 120.4 185.9 120.4 C 186.5 120.4 187 120.5 187.4 120.6 C 187.8 120.8 188.2 121 188.4 121.3 C 188.6 121.6 188.7 121.9 188.8 122.4 C 188.8 122.4 187.6 122.6 187.6 122.6 C 187.5 122.2 187.4 121.9 187.1 121.7 C 186.9 121.5 186.5 121.4 186 121.4 C 185.4 121.4 185 121.5 184.8 121.7 C 184.6 121.8 184.4 122.1 184.4 122.3 C 184.4 122.5 184.5 122.6 184.6 122.7 C 184.7 122.9 184.8 123 185.1 123.1 C 185.2 123.1 185.5 123.2 186.1 123.4 C 187 123.6 187.6 123.8 188 124 C 188.3 124.1 188.6 124.3 188.8 124.6 C 189 124.9 189.1 125.2 189.1 125.7 C 189.1 126.1 188.9 126.5 188.7 126.8 C 188.5 127.2 188.1 127.5 187.7 127.7 C 187.2 127.9 186.7 128 186.1 128 C 185.2 128 184.5 127.8 184 127.4 C 183.5 127 183.2 126.4 183 125.6 Z M 192.7 126.7 C 192.8 126.7 193 126.7 193.2 126.7 C 193.2 126.7 193.4 127.8 193.4 127.8 C 193 127.9 192.7 127.9 192.5 127.9 C 192 127.9 191.7 127.8 191.4 127.7 C 191.2 127.5 191 127.3 190.9 127.1 C 190.8 126.9 190.8 126.4 190.8 125.7 C 190.76 125.67 190.8 121.5 190.8 121.5 L 189.9 121.5 L 189.9 120.5 L 190.8 120.5 L 190.8 118.7 L 192 118 L 192 120.5 L 193.2 120.5 L 193.2 121.5 L 192 121.5 C 192 121.5 191.98 125.73 192 125.7 C 192 126.1 192 126.3 192 126.4 C 192.1 126.5 192.2 126.6 192.3 126.7 C 192.4 126.7 192.5 126.7 192.7 126.7 C 192.7 126.7 192.7 126.7 192.7 126.7 Z " stroke="none" fill="#000"/>  </g>  <g id="Polygon111886">    <path d="M 1.1 111 L 1.1 101.1 L 3.1 101.1 L 3.1 109.3 L 8.1 109.3 L 8.1 111 L 1.1 111 Z M 12.9 111 L 12.9 109 L 8.8 109 L 8.8 107.3 L 13.2 100.9 L 14.8 100.9 L 14.8 107.3 L 16 107.3 L 16 109 L 14.8 109 L 14.8 111 L 12.9 111 Z M 12.9 107.3 L 12.9 103.9 L 10.6 107.3 L 12.9 107.3 Z M 19.4 111 L 23.3 101 L 24.7 101 L 28.8 111 L 27.3 111 L 26.1 108 L 21.9 108 L 20.8 111 L 19.4 111 Z M 22.3 106.9 L 25.7 106.9 C 25.7 106.9 24.68 104.1 24.7 104.1 C 24.4 103.3 24.1 102.6 24 102 C 23.8 102.7 23.7 103.3 23.4 103.9 C 23.43 103.94 22.3 106.9 22.3 106.9 Z M 30.1 111 L 30.1 101 L 31.4 101 L 31.4 111 L 30.1 111 Z M 44.8 111.2 C 44.3 110.9 43.8 110.4 43.2 109.8 C 42.8 110.3 42.4 110.6 41.9 110.8 C 41.4 111.1 40.9 111.2 40.3 111.2 C 39.3 111.2 38.5 110.8 37.9 110.1 C 37.4 109.6 37.2 108.9 37.2 108.2 C 37.2 107.6 37.4 107.1 37.8 106.6 C 38.2 106.1 38.8 105.6 39.6 105.2 C 39.1 104.7 38.8 104.3 38.7 104 C 38.5 103.6 38.4 103.3 38.4 103 C 38.4 102.4 38.7 101.9 39.1 101.5 C 39.6 101 40.2 100.8 40.9 100.8 C 41.6 100.8 42.2 101 42.6 101.4 C 43 101.8 43.3 102.4 43.3 102.9 C 43.3 103.9 42.6 104.7 41.4 105.4 C 41.4 105.4 43.2 107.7 43.2 107.7 C 43.4 107.3 43.5 106.8 43.6 106.3 C 43.6 106.3 44.9 106.5 44.9 106.5 C 44.7 107.4 44.4 108.1 44 108.7 C 44.5 109.3 45 109.8 45.6 110.2 C 45.59 110.25 44.8 111.2 44.8 111.2 C 44.8 111.2 44.76 111.22 44.8 111.2 Z M 40.7 104.6 C 41.3 104.3 41.6 104 41.8 103.8 C 41.9 103.5 42 103.3 42 103 C 42 102.6 41.9 102.4 41.7 102.1 C 41.5 101.9 41.2 101.8 40.9 101.8 C 40.5 101.8 40.2 101.9 40 102.1 C 39.8 102.3 39.7 102.6 39.7 102.9 C 39.7 103.1 39.7 103.2 39.8 103.4 C 39.9 103.6 40 103.8 40.2 104 C 40.2 104 40.7 104.6 40.7 104.6 Z M 42.5 108.8 C 42.5 108.8 40.2 106 40.2 106 C 39.5 106.4 39.1 106.8 38.8 107.1 C 38.6 107.5 38.5 107.8 38.5 108.2 C 38.5 108.6 38.7 109 39 109.4 C 39.3 109.9 39.8 110.1 40.4 110.1 C 40.7 110.1 41.1 110 41.5 109.7 C 41.9 109.5 42.2 109.2 42.5 108.8 Z M 49 111 L 52.9 101 L 54.3 101 L 58.4 111 L 56.9 111 L 55.7 108 L 51.5 108 L 50.4 111 L 49 111 Z M 51.9 106.9 L 55.3 106.9 C 55.3 106.9 54.25 104.1 54.3 104.1 C 53.9 103.3 53.7 102.6 53.5 102 C 53.4 102.7 53.2 103.3 53 103.9 C 53 103.94 51.9 106.9 51.9 106.9 Z M 64 111 C 64 111 64.05 109.93 64 109.9 C 63.5 110.7 62.7 111.2 61.7 111.2 C 61.3 111.2 60.9 111.1 60.5 110.9 C 60.2 110.7 59.9 110.5 59.7 110.3 C 59.5 110 59.4 109.7 59.3 109.4 C 59.3 109.1 59.3 108.8 59.3 108.2 C 59.26 108.23 59.3 103.7 59.3 103.7 L 60.5 103.7 C 60.5 103.7 60.49 107.76 60.5 107.8 C 60.5 108.4 60.5 108.8 60.6 109.1 C 60.6 109.4 60.8 109.6 61.1 109.8 C 61.3 110 61.6 110.1 62 110.1 C 62.4 110.1 62.7 110 63 109.8 C 63.4 109.6 63.6 109.4 63.7 109 C 63.8 108.7 63.9 108.2 63.9 107.6 C 63.92 107.62 63.9 103.7 63.9 103.7 L 65.1 103.7 L 65.1 111 L 64 111 Z M 69.2 109.9 C 69.4 109.9 69.5 109.9 69.8 109.9 C 69.8 109.9 69.9 111 69.9 111 C 69.6 111.1 69.3 111.1 69 111.1 C 68.6 111.1 68.2 111 68 110.9 C 67.7 110.7 67.6 110.5 67.5 110.3 C 67.3 110.1 67.3 109.6 67.3 108.9 C 67.3 108.87 67.3 104.7 67.3 104.7 L 66.4 104.7 L 66.4 103.7 L 67.3 103.7 L 67.3 101.9 L 68.5 101.2 L 68.5 103.7 L 69.8 103.7 L 69.8 104.7 L 68.5 104.7 C 68.5 104.7 68.52 108.93 68.5 108.9 C 68.5 109.3 68.5 109.5 68.6 109.6 C 68.6 109.7 68.7 109.8 68.8 109.9 C 68.9 109.9 69 109.9 69.2 109.9 C 69.2 109.9 69.2 109.9 69.2 109.9 Z M 70.5 107.4 C 70.5 106 70.9 105 71.6 104.4 C 72.3 103.8 73 103.6 73.9 103.6 C 74.9 103.6 75.7 103.9 76.4 104.5 C 77 105.2 77.3 106.1 77.3 107.3 C 77.3 108.2 77.2 108.9 76.9 109.5 C 76.6 110 76.2 110.4 75.7 110.7 C 75.1 111 74.5 111.2 73.9 111.2 C 72.9 111.2 72.1 110.8 71.4 110.2 C 70.8 109.5 70.5 108.6 70.5 107.4 Z M 71.8 107.4 C 71.8 108.3 72 109 72.4 109.5 C 72.8 109.9 73.3 110.1 73.9 110.1 C 74.5 110.1 75 109.9 75.4 109.4 C 75.8 109 76 108.3 76 107.3 C 76 106.4 75.8 105.7 75.4 105.3 C 75 104.8 74.5 104.6 73.9 104.6 C 73.3 104.6 72.8 104.8 72.4 105.3 C 72 105.7 71.8 106.4 71.8 107.4 Z M 78.8 111 L 78.8 103.7 L 79.9 103.7 C 79.9 103.7 79.85 104.75 79.9 104.8 C 80.1 104.4 80.4 104.1 80.8 103.9 C 81.1 103.7 81.6 103.6 82.1 103.6 C 82.6 103.6 83 103.7 83.4 103.9 C 83.7 104.1 84 104.4 84.1 104.8 C 84.7 104 85.4 103.6 86.3 103.6 C 87.1 103.6 87.6 103.8 88 104.2 C 88.4 104.6 88.6 105.2 88.6 106 C 88.59 106.01 88.6 111 88.6 111 L 87.4 111 C 87.4 111 87.36 106.42 87.4 106.4 C 87.4 105.9 87.3 105.6 87.2 105.4 C 87.2 105.1 87 105 86.8 104.8 C 86.6 104.7 86.4 104.6 86.1 104.6 C 85.6 104.6 85.1 104.8 84.8 105.1 C 84.5 105.5 84.3 106 84.3 106.8 C 84.29 106.77 84.3 111 84.3 111 L 83.1 111 C 83.1 111 83.06 106.28 83.1 106.3 C 83.1 105.7 83 105.3 82.8 105 C 82.6 104.8 82.2 104.6 81.8 104.6 C 81.4 104.6 81.1 104.7 80.8 104.9 C 80.5 105.1 80.3 105.4 80.2 105.7 C 80 106.1 80 106.6 80 107.2 C 79.98 107.23 80 111 80 111 L 78.8 111 Z M 95.4 111 C 95.3 110.7 95.2 110.4 95.1 110.1 C 94.7 110.5 94.3 110.8 93.8 110.9 C 93.4 111.1 93 111.2 92.5 111.2 C 91.7 111.2 91.1 111 90.6 110.6 C 90.2 110.2 90 109.7 90 109.1 C 90 108.7 90.1 108.4 90.2 108.1 C 90.4 107.8 90.6 107.6 90.9 107.4 C 91.1 107.2 91.4 107.1 91.8 107 C 92 106.9 92.4 106.9 92.9 106.8 C 93.8 106.7 94.6 106.5 95 106.4 C 95.1 106.2 95.1 106.1 95.1 106.1 C 95.1 105.6 94.9 105.2 94.7 105 C 94.4 104.7 93.9 104.6 93.3 104.6 C 92.7 104.6 92.3 104.7 92 104.9 C 91.7 105.1 91.5 105.5 91.4 106 C 91.4 106 90.2 105.8 90.2 105.8 C 90.3 105.3 90.5 104.9 90.7 104.6 C 91 104.2 91.4 104 91.8 103.8 C 92.3 103.7 92.9 103.6 93.5 103.6 C 94.1 103.6 94.6 103.6 95 103.8 C 95.4 103.9 95.7 104.1 95.8 104.3 C 96 104.6 96.2 104.8 96.2 105.2 C 96.3 105.4 96.3 105.8 96.3 106.3 C 96.3 106.3 96.3 108 96.3 108 C 96.3 109.1 96.3 109.8 96.4 110.1 C 96.4 110.4 96.5 110.7 96.7 111 C 96.68 110.99 95.4 111 95.4 111 C 95.4 111 95.4 110.99 95.4 111 Z M 95 107.3 C 94.6 107.5 93.9 107.7 93 107.8 C 92.5 107.9 92.2 108 92 108.1 C 91.8 108.2 91.6 108.3 91.5 108.5 C 91.4 108.6 91.3 108.8 91.3 109 C 91.3 109.4 91.4 109.6 91.7 109.9 C 91.9 110.1 92.3 110.2 92.8 110.2 C 93.2 110.2 93.7 110.1 94 109.9 C 94.4 109.7 94.7 109.4 94.8 109 C 95 108.8 95 108.3 95 107.8 C 95 107.8 95 107.3 95 107.3 Z M 100.3 109.9 C 100.5 109.9 100.7 109.9 100.9 109.9 C 100.9 109.9 101.1 111 101.1 111 C 100.7 111.1 100.4 111.1 100.1 111.1 C 99.7 111.1 99.3 111 99.1 110.9 C 98.8 110.7 98.7 110.5 98.6 110.3 C 98.5 110.1 98.4 109.6 98.4 108.9 C 98.42 108.87 98.4 104.7 98.4 104.7 L 97.5 104.7 L 97.5 103.7 L 98.4 103.7 L 98.4 101.9 L 99.6 101.2 L 99.6 103.7 L 100.9 103.7 L 100.9 104.7 L 99.6 104.7 C 99.6 104.7 99.65 108.93 99.6 108.9 C 99.6 109.3 99.7 109.5 99.7 109.6 C 99.8 109.7 99.8 109.8 99.9 109.9 C 100 109.9 100.2 109.9 100.3 109.9 C 100.3 109.9 100.3 109.9 100.3 109.9 Z M 102.1 102.4 L 102.1 101 L 103.3 101 L 103.3 102.4 L 102.1 102.4 Z M 102.1 111 L 102.1 103.7 L 103.3 103.7 L 103.3 111 L 102.1 111 Z M 104.7 107.4 C 104.7 106 105.1 105 105.9 104.4 C 106.5 103.8 107.2 103.6 108.1 103.6 C 109.1 103.6 110 103.9 110.6 104.5 C 111.2 105.2 111.5 106.1 111.5 107.3 C 111.5 108.2 111.4 108.9 111.1 109.5 C 110.8 110 110.4 110.4 109.9 110.7 C 109.4 111 108.8 111.2 108.1 111.2 C 107.1 111.2 106.3 110.8 105.7 110.2 C 105.1 109.5 104.7 108.6 104.7 107.4 Z M 106 107.4 C 106 108.3 106.2 109 106.6 109.5 C 107 109.9 107.5 110.1 108.1 110.1 C 108.8 110.1 109.3 109.9 109.7 109.4 C 110.1 109 110.3 108.3 110.3 107.3 C 110.3 106.4 110.1 105.7 109.7 105.3 C 109.3 104.8 108.8 104.6 108.1 104.6 C 107.5 104.6 107 104.8 106.6 105.3 C 106.2 105.7 106 106.4 106 107.4 Z M 113 111 L 113 103.7 L 114.1 103.7 C 114.1 103.7 114.09 104.76 114.1 104.8 C 114.6 104 115.4 103.6 116.4 103.6 C 116.8 103.6 117.2 103.6 117.6 103.8 C 118 104 118.3 104.2 118.4 104.4 C 118.6 104.7 118.7 105 118.8 105.3 C 118.9 105.6 118.9 106 118.9 106.5 C 118.88 106.53 118.9 111 118.9 111 L 117.7 111 C 117.7 111 117.65 106.58 117.7 106.6 C 117.7 106.1 117.6 105.7 117.5 105.5 C 117.4 105.2 117.2 105 117 104.9 C 116.8 104.7 116.5 104.6 116.1 104.6 C 115.6 104.6 115.2 104.8 114.8 105.1 C 114.4 105.5 114.2 106.1 114.2 107 C 114.21 107.03 114.2 111 114.2 111 L 113 111 Z M 124.8 111 L 124.8 101 C 124.8 101 128.6 100.97 128.6 101 C 129.3 101 129.8 101 130.1 101.1 C 130.6 101.1 131 101.3 131.4 101.5 C 131.7 101.8 132 102.1 132.2 102.5 C 132.4 102.9 132.5 103.4 132.5 103.9 C 132.5 104.7 132.2 105.4 131.7 106 C 131.1 106.6 130.1 106.9 128.7 106.9 C 128.71 106.92 126.1 106.9 126.1 106.9 L 126.1 111 L 124.8 111 Z M 126.1 105.7 C 126.1 105.7 128.73 105.74 128.7 105.7 C 129.6 105.7 130.2 105.6 130.6 105.3 C 130.9 104.9 131.1 104.5 131.1 103.9 C 131.1 103.5 131 103.1 130.8 102.8 C 130.6 102.5 130.3 102.3 129.9 102.2 C 129.7 102.2 129.3 102.2 128.7 102.2 C 128.71 102.15 126.1 102.2 126.1 102.2 L 126.1 105.7 Z M 134 111 L 134 103.7 L 135.1 103.7 C 135.1 103.7 135.09 104.83 135.1 104.8 C 135.4 104.3 135.6 104 135.9 103.8 C 136.1 103.7 136.4 103.6 136.7 103.6 C 137.1 103.6 137.5 103.7 137.9 104 C 137.9 104 137.5 105.1 137.5 105.1 C 137.2 104.9 136.9 104.8 136.6 104.8 C 136.3 104.8 136.1 104.9 135.9 105.1 C 135.7 105.2 135.5 105.5 135.4 105.8 C 135.3 106.2 135.2 106.7 135.2 107.2 C 135.21 107.19 135.2 111 135.2 111 L 134 111 Z M 143.6 111 C 143.5 110.7 143.4 110.4 143.4 110.1 C 142.9 110.5 142.5 110.8 142.1 110.9 C 141.7 111.1 141.2 111.2 140.7 111.2 C 139.9 111.2 139.3 111 138.9 110.6 C 138.5 110.2 138.2 109.7 138.2 109.1 C 138.2 108.7 138.3 108.4 138.5 108.1 C 138.6 107.8 138.9 107.6 139.1 107.4 C 139.4 107.2 139.7 107.1 140 107 C 140.2 106.9 140.6 106.9 141.1 106.8 C 142.1 106.7 142.8 106.5 143.3 106.4 C 143.3 106.2 143.3 106.1 143.3 106.1 C 143.3 105.6 143.2 105.2 143 105 C 142.6 104.7 142.2 104.6 141.6 104.6 C 141 104.6 140.5 104.7 140.3 104.9 C 140 105.1 139.8 105.5 139.7 106 C 139.7 106 138.5 105.8 138.5 105.8 C 138.6 105.3 138.7 104.9 139 104.6 C 139.2 104.2 139.6 104 140.1 103.8 C 140.6 103.7 141.1 103.6 141.7 103.6 C 142.3 103.6 142.9 103.6 143.2 103.8 C 143.6 103.9 143.9 104.1 144.1 104.3 C 144.3 104.6 144.4 104.8 144.5 105.2 C 144.5 105.4 144.5 105.8 144.5 106.3 C 144.5 106.3 144.5 108 144.5 108 C 144.5 109.1 144.6 109.8 144.6 110.1 C 144.7 110.4 144.8 110.7 144.9 111 C 144.93 110.99 143.6 111 143.6 111 C 143.6 111 143.64 110.99 143.6 111 Z M 143.3 107.3 C 142.8 107.5 142.2 107.7 141.3 107.8 C 140.8 107.9 140.4 108 140.2 108.1 C 140 108.2 139.8 108.3 139.7 108.5 C 139.6 108.6 139.6 108.8 139.6 109 C 139.6 109.4 139.7 109.6 139.9 109.9 C 140.2 110.1 140.5 110.2 141 110.2 C 141.5 110.2 141.9 110.1 142.3 109.9 C 142.7 109.7 142.9 109.4 143.1 109 C 143.2 108.8 143.3 108.3 143.3 107.8 C 143.3 107.8 143.3 107.3 143.3 107.3 Z M 151.2 108.3 C 151.2 108.3 152.4 108.5 152.4 108.5 C 152.3 109.3 151.9 110 151.4 110.4 C 150.8 110.9 150.2 111.2 149.4 111.2 C 148.4 111.2 147.6 110.8 147 110.2 C 146.4 109.5 146.1 108.6 146.1 107.4 C 146.1 106.6 146.2 105.9 146.5 105.3 C 146.7 104.7 147.1 104.3 147.6 104 C 148.2 103.7 148.8 103.6 149.4 103.6 C 150.2 103.6 150.8 103.8 151.3 104.2 C 151.8 104.6 152.1 105.1 152.3 105.9 C 152.3 105.9 151.1 106.1 151.1 106.1 C 151 105.6 150.8 105.2 150.5 104.9 C 150.2 104.7 149.8 104.6 149.4 104.6 C 148.8 104.6 148.3 104.8 147.9 105.2 C 147.5 105.7 147.3 106.4 147.3 107.4 C 147.3 108.3 147.5 109 147.9 109.5 C 148.3 109.9 148.8 110.1 149.4 110.1 C 149.8 110.1 150.2 110 150.6 109.7 C 150.9 109.4 151.1 108.9 151.2 108.3 Z M 155.6 109.9 C 155.7 109.9 155.9 109.9 156.1 109.9 C 156.1 109.9 156.3 111 156.3 111 C 156 111.1 155.7 111.1 155.4 111.1 C 154.9 111.1 154.6 111 154.3 110.9 C 154.1 110.7 153.9 110.5 153.8 110.3 C 153.7 110.1 153.7 109.6 153.7 108.9 C 153.67 108.87 153.7 104.7 153.7 104.7 L 152.8 104.7 L 152.8 103.7 L 153.7 103.7 L 153.7 101.9 L 154.9 101.2 L 154.9 103.7 L 156.1 103.7 L 156.1 104.7 L 154.9 104.7 C 154.9 104.7 154.9 108.93 154.9 108.9 C 154.9 109.3 154.9 109.5 155 109.6 C 155 109.7 155.1 109.8 155.2 109.9 C 155.3 109.9 155.4 109.9 155.6 109.9 C 155.6 109.9 155.6 109.9 155.6 109.9 Z M 157.3 102.4 L 157.3 101 L 158.6 101 L 158.6 102.4 L 157.3 102.4 Z M 157.3 111 L 157.3 103.7 L 158.6 103.7 L 158.6 111 L 157.3 111 Z M 162.6 109.9 C 162.7 109.9 162.9 109.9 163.1 109.9 C 163.1 109.9 163.3 111 163.3 111 C 163 111.1 162.7 111.1 162.4 111.1 C 161.9 111.1 161.6 111 161.3 110.9 C 161.1 110.7 160.9 110.5 160.8 110.3 C 160.7 110.1 160.7 109.6 160.7 108.9 C 160.67 108.87 160.7 104.7 160.7 104.7 L 159.8 104.7 L 159.8 103.7 L 160.7 103.7 L 160.7 101.9 L 161.9 101.2 L 161.9 103.7 L 163.1 103.7 L 163.1 104.7 L 161.9 104.7 C 161.9 104.7 161.9 108.93 161.9 108.9 C 161.9 109.3 161.9 109.5 162 109.6 C 162 109.7 162.1 109.8 162.2 109.9 C 162.3 109.9 162.4 109.9 162.6 109.9 C 162.6 109.9 162.6 109.9 162.6 109.9 Z M 164.3 102.4 L 164.3 101 L 165.6 101 L 165.6 102.4 L 164.3 102.4 Z M 164.3 111 L 164.3 103.7 L 165.6 103.7 L 165.6 111 L 164.3 111 Z M 167 107.4 C 167 106 167.4 105 168.1 104.4 C 168.7 103.8 169.5 103.6 170.4 103.6 C 171.4 103.6 172.2 103.9 172.8 104.5 C 173.5 105.2 173.8 106.1 173.8 107.3 C 173.8 108.2 173.6 108.9 173.4 109.5 C 173.1 110 172.7 110.4 172.1 110.7 C 171.6 111 171 111.2 170.4 111.2 C 169.4 111.2 168.6 110.8 167.9 110.2 C 167.3 109.5 167 108.6 167 107.4 Z M 168.3 107.4 C 168.3 108.3 168.5 109 168.9 109.5 C 169.3 109.9 169.8 110.1 170.4 110.1 C 171 110.1 171.5 109.9 171.9 109.4 C 172.3 109 172.5 108.3 172.5 107.3 C 172.5 106.4 172.3 105.7 171.9 105.3 C 171.5 104.8 171 104.6 170.4 104.6 C 169.8 104.6 169.3 104.8 168.9 105.3 C 168.5 105.7 168.3 106.4 168.3 107.4 Z M 175.2 111 L 175.2 103.7 L 176.3 103.7 C 176.3 103.7 176.34 104.76 176.3 104.8 C 176.9 104 177.6 103.6 178.7 103.6 C 179.1 103.6 179.5 103.6 179.9 103.8 C 180.2 104 180.5 104.2 180.7 104.4 C 180.9 104.7 181 105 181.1 105.3 C 181.1 105.6 181.1 106 181.1 106.5 C 181.13 106.53 181.1 111 181.1 111 L 179.9 111 C 179.9 111 179.9 106.58 179.9 106.6 C 179.9 106.1 179.9 105.7 179.8 105.5 C 179.7 105.2 179.5 105 179.2 104.9 C 179 104.7 178.7 104.6 178.4 104.6 C 177.9 104.6 177.4 104.8 177 105.1 C 176.7 105.5 176.5 106.1 176.5 107 C 176.46 107.03 176.5 111 176.5 111 L 175.2 111 Z M 188 108.7 C 188 108.7 189.3 108.8 189.3 108.8 C 189.1 109.6 188.7 110.1 188.1 110.5 C 187.6 111 186.9 111.2 186.1 111.2 C 185 111.2 184.2 110.8 183.5 110.2 C 182.9 109.5 182.6 108.6 182.6 107.4 C 182.6 106.2 182.9 105.3 183.6 104.6 C 184.2 103.9 185 103.6 186 103.6 C 187 103.6 187.8 103.9 188.4 104.6 C 189 105.2 189.3 106.2 189.3 107.3 C 189.3 107.4 189.3 107.5 189.3 107.7 C 189.3 107.7 183.9 107.7 183.9 107.7 C 183.9 108.5 184.2 109.1 184.6 109.5 C 185 109.9 185.5 110.1 186.1 110.1 C 186.5 110.1 186.9 110 187.2 109.8 C 187.5 109.6 187.8 109.2 188 108.7 Z M 183.9 106.7 C 183.9 106.7 188 106.7 188 106.7 C 187.9 106.1 187.8 105.6 187.5 105.3 C 187.1 104.8 186.6 104.6 186 104.6 C 185.4 104.6 185 104.8 184.6 105.1 C 184.2 105.5 184 106 183.9 106.7 Z M 190.8 111 L 190.8 103.7 L 191.9 103.7 C 191.9 103.7 191.9 104.83 191.9 104.8 C 192.2 104.3 192.4 104 192.7 103.8 C 192.9 103.7 193.2 103.6 193.5 103.6 C 193.9 103.6 194.3 103.7 194.7 104 C 194.7 104 194.3 105.1 194.3 105.1 C 194 104.9 193.7 104.8 193.4 104.8 C 193.1 104.8 192.9 104.9 192.7 105.1 C 192.5 105.2 192.3 105.5 192.2 105.8 C 192.1 106.2 192 106.7 192 107.2 C 192.02 107.19 192 111 192 111 L 190.8 111 Z " stroke="none" fill="#000"/>  </g>  <g id="Polygon111885">    <path d="M 1.1 94.2 L 1.1 84.3 L 3.1 84.3 L 3.1 92.5 L 8.1 92.5 L 8.1 94.2 L 1.1 94.2 Z M 12.9 94.2 L 12.9 92.2 L 8.8 92.2 L 8.8 90.5 L 13.2 84.1 L 14.8 84.1 L 14.8 90.5 L 16 90.5 L 16 92.2 L 14.8 92.2 L 14.8 94.2 L 12.9 94.2 Z M 12.9 90.5 L 12.9 87.1 L 10.6 90.5 L 12.9 90.5 Z M 21.3 94.2 L 21.3 84.2 C 21.3 84.2 25.01 84.17 25 84.2 C 25.8 84.2 26.4 84.3 26.9 84.5 C 27.3 84.7 27.7 85 27.9 85.4 C 28.2 85.8 28.3 86.3 28.3 86.7 C 28.3 87.2 28.2 87.6 28 87.9 C 27.8 88.3 27.4 88.6 26.9 88.9 C 27.5 89 28 89.3 28.3 89.8 C 28.7 90.2 28.8 90.7 28.8 91.3 C 28.8 91.8 28.7 92.2 28.5 92.6 C 28.3 93 28.1 93.3 27.8 93.5 C 27.5 93.7 27.1 93.9 26.7 94 C 26.3 94.1 25.7 94.2 25.1 94.2 C 25.07 94.19 21.3 94.2 21.3 94.2 Z M 22.6 88.4 C 22.6 88.4 24.75 88.38 24.7 88.4 C 25.3 88.4 25.8 88.3 26 88.3 C 26.3 88.2 26.6 88 26.8 87.8 C 26.9 87.5 27 87.2 27 86.9 C 27 86.6 26.9 86.3 26.8 86 C 26.6 85.8 26.4 85.6 26.1 85.5 C 25.8 85.4 25.3 85.4 24.6 85.4 C 24.58 85.35 22.6 85.4 22.6 85.4 L 22.6 88.4 Z M 22.6 93 C 22.6 93 25.07 93.01 25.1 93 C 25.5 93 25.8 93 26 93 C 26.3 92.9 26.5 92.8 26.7 92.7 C 26.9 92.6 27.1 92.4 27.2 92.1 C 27.4 91.9 27.4 91.6 27.4 91.3 C 27.4 90.9 27.4 90.6 27.2 90.3 C 27 90 26.7 89.8 26.4 89.7 C 26 89.6 25.5 89.6 24.9 89.6 C 24.9 89.56 22.6 89.6 22.6 89.6 L 22.6 93 Z M 35.2 94.2 C 35.2 94.2 35.25 93.13 35.2 93.1 C 34.7 93.9 33.9 94.4 32.9 94.4 C 32.5 94.4 32.1 94.3 31.7 94.1 C 31.4 93.9 31.1 93.7 30.9 93.5 C 30.7 93.2 30.6 92.9 30.5 92.6 C 30.5 92.3 30.5 92 30.5 91.4 C 30.46 91.43 30.5 86.9 30.5 86.9 L 31.7 86.9 C 31.7 86.9 31.69 90.96 31.7 91 C 31.7 91.6 31.7 92 31.8 92.3 C 31.8 92.6 32 92.8 32.3 93 C 32.5 93.2 32.8 93.3 33.2 93.3 C 33.6 93.3 33.9 93.2 34.2 93 C 34.6 92.8 34.8 92.6 34.9 92.2 C 35 91.9 35.1 91.4 35.1 90.8 C 35.12 90.82 35.1 86.9 35.1 86.9 L 36.3 86.9 L 36.3 94.2 L 35.2 94.2 Z M 37.8 92 C 37.8 92 39 91.8 39 91.8 C 39.1 92.3 39.3 92.7 39.6 93 C 39.9 93.2 40.3 93.3 40.9 93.3 C 41.4 93.3 41.9 93.2 42.1 93 C 42.4 92.8 42.5 92.5 42.5 92.2 C 42.5 91.9 42.4 91.7 42.2 91.5 C 42 91.4 41.6 91.3 40.9 91.1 C 40 90.9 39.4 90.7 39.1 90.5 C 38.7 90.4 38.4 90.1 38.3 89.8 C 38.1 89.5 38 89.2 38 88.9 C 38 88.5 38.1 88.2 38.2 88 C 38.4 87.7 38.6 87.5 38.8 87.3 C 39 87.1 39.3 87 39.6 86.9 C 39.9 86.8 40.3 86.8 40.7 86.8 C 41.2 86.8 41.7 86.9 42.2 87 C 42.6 87.2 42.9 87.4 43.1 87.7 C 43.3 88 43.5 88.3 43.5 88.8 C 43.5 88.8 42.3 89 42.3 89 C 42.3 88.6 42.1 88.3 41.9 88.1 C 41.6 87.9 41.2 87.8 40.7 87.8 C 40.2 87.8 39.8 87.9 39.5 88.1 C 39.3 88.2 39.2 88.5 39.2 88.7 C 39.2 88.9 39.2 89 39.3 89.1 C 39.4 89.3 39.6 89.4 39.8 89.5 C 39.9 89.5 40.3 89.6 40.9 89.8 C 41.8 90 42.4 90.2 42.7 90.4 C 43.1 90.5 43.3 90.7 43.5 91 C 43.7 91.3 43.8 91.6 43.8 92.1 C 43.8 92.5 43.7 92.9 43.5 93.2 C 43.2 93.6 42.9 93.9 42.4 94.1 C 42 94.3 41.5 94.4 40.9 94.4 C 39.9 94.4 39.2 94.2 38.7 93.8 C 38.2 93.4 37.9 92.8 37.8 92 Z M 45.3 85.6 L 45.3 84.2 L 46.5 84.2 L 46.5 85.6 L 45.3 85.6 Z M 45.3 94.2 L 45.3 86.9 L 46.5 86.9 L 46.5 94.2 L 45.3 94.2 Z M 48.4 94.2 L 48.4 86.9 L 49.5 86.9 C 49.5 86.9 49.49 87.96 49.5 88 C 50 87.2 50.8 86.8 51.8 86.8 C 52.2 86.8 52.6 86.8 53 87 C 53.4 87.2 53.7 87.4 53.8 87.6 C 54 87.9 54.1 88.2 54.2 88.5 C 54.3 88.8 54.3 89.2 54.3 89.7 C 54.28 89.73 54.3 94.2 54.3 94.2 L 53.1 94.2 C 53.1 94.2 53.05 89.78 53.1 89.8 C 53.1 89.3 53 88.9 52.9 88.7 C 52.8 88.4 52.6 88.2 52.4 88.1 C 52.2 87.9 51.9 87.8 51.5 87.8 C 51 87.8 50.6 88 50.2 88.3 C 49.8 88.7 49.6 89.3 49.6 90.2 C 49.62 90.23 49.6 94.2 49.6 94.2 L 48.4 94.2 Z M 61.1 91.9 C 61.1 91.9 62.4 92 62.4 92 C 62.2 92.8 61.8 93.3 61.3 93.7 C 60.8 94.2 60.1 94.4 59.2 94.4 C 58.2 94.4 57.3 94 56.7 93.4 C 56.1 92.7 55.8 91.8 55.8 90.6 C 55.8 89.4 56.1 88.5 56.7 87.8 C 57.3 87.1 58.1 86.8 59.2 86.8 C 60.1 86.8 60.9 87.1 61.5 87.8 C 62.1 88.4 62.5 89.4 62.5 90.5 C 62.5 90.6 62.5 90.7 62.4 90.9 C 62.4 90.9 57 90.9 57 90.9 C 57.1 91.7 57.3 92.3 57.7 92.7 C 58.1 93.1 58.6 93.3 59.2 93.3 C 59.7 93.3 60.1 93.2 60.4 93 C 60.7 92.8 61 92.4 61.1 91.9 Z M 57.1 89.9 C 57.1 89.9 61.2 89.9 61.2 89.9 C 61.1 89.3 60.9 88.8 60.7 88.5 C 60.3 88 59.8 87.8 59.2 87.8 C 58.6 87.8 58.1 88 57.7 88.3 C 57.4 88.7 57.1 89.2 57.1 89.9 Z M 63.5 92 C 63.5 92 64.7 91.8 64.7 91.8 C 64.8 92.3 64.9 92.7 65.3 93 C 65.6 93.2 66 93.3 66.6 93.3 C 67.1 93.3 67.5 93.2 67.8 93 C 68.1 92.8 68.2 92.5 68.2 92.2 C 68.2 91.9 68.1 91.7 67.9 91.5 C 67.7 91.4 67.3 91.3 66.6 91.1 C 65.7 90.9 65.1 90.7 64.7 90.5 C 64.4 90.4 64.1 90.1 63.9 89.8 C 63.8 89.5 63.7 89.2 63.7 88.9 C 63.7 88.5 63.7 88.2 63.9 88 C 64 87.7 64.2 87.5 64.5 87.3 C 64.7 87.1 64.9 87 65.3 86.9 C 65.6 86.8 66 86.8 66.3 86.8 C 66.9 86.8 67.4 86.9 67.8 87 C 68.3 87.2 68.6 87.4 68.8 87.7 C 69 88 69.1 88.3 69.2 88.8 C 69.2 88.8 68 89 68 89 C 68 88.6 67.8 88.3 67.5 88.1 C 67.3 87.9 66.9 87.8 66.4 87.8 C 65.9 87.8 65.5 87.9 65.2 88.1 C 65 88.2 64.9 88.5 64.9 88.7 C 64.9 88.9 64.9 89 65 89.1 C 65.1 89.3 65.3 89.4 65.5 89.5 C 65.6 89.5 66 89.6 66.6 89.8 C 67.4 90 68 90.2 68.4 90.4 C 68.7 90.5 69 90.7 69.2 91 C 69.4 91.3 69.5 91.6 69.5 92.1 C 69.5 92.5 69.4 92.9 69.1 93.2 C 68.9 93.6 68.6 93.9 68.1 94.1 C 67.6 94.3 67.1 94.4 66.6 94.4 C 65.6 94.4 64.9 94.2 64.4 93.8 C 63.9 93.4 63.6 92.8 63.5 92 Z M 70.5 92 C 70.5 92 71.7 91.8 71.7 91.8 C 71.8 92.3 71.9 92.7 72.3 93 C 72.6 93.2 73 93.3 73.6 93.3 C 74.1 93.3 74.5 93.2 74.8 93 C 75.1 92.8 75.2 92.5 75.2 92.2 C 75.2 91.9 75.1 91.7 74.9 91.5 C 74.7 91.4 74.3 91.3 73.6 91.1 C 72.7 90.9 72.1 90.7 71.7 90.5 C 71.4 90.4 71.1 90.1 70.9 89.8 C 70.8 89.5 70.7 89.2 70.7 88.9 C 70.7 88.5 70.7 88.2 70.9 88 C 71 87.7 71.2 87.5 71.5 87.3 C 71.7 87.1 71.9 87 72.3 86.9 C 72.6 86.8 73 86.8 73.3 86.8 C 73.9 86.8 74.4 86.9 74.8 87 C 75.3 87.2 75.6 87.4 75.8 87.7 C 76 88 76.1 88.3 76.2 88.8 C 76.2 88.8 75 89 75 89 C 75 88.6 74.8 88.3 74.5 88.1 C 74.3 87.9 73.9 87.8 73.4 87.8 C 72.9 87.8 72.5 87.9 72.2 88.1 C 72 88.2 71.9 88.5 71.9 88.7 C 71.9 88.9 71.9 89 72 89.1 C 72.1 89.3 72.3 89.4 72.5 89.5 C 72.6 89.5 73 89.6 73.6 89.8 C 74.4 90 75 90.2 75.4 90.4 C 75.7 90.5 76 90.7 76.2 91 C 76.4 91.3 76.5 91.6 76.5 92.1 C 76.5 92.5 76.4 92.9 76.1 93.2 C 75.9 93.6 75.6 93.9 75.1 94.1 C 74.6 94.3 74.1 94.4 73.6 94.4 C 72.6 94.4 71.9 94.2 71.4 93.8 C 70.9 93.4 70.6 92.8 70.5 92 Z M 80.1 94.2 L 84 84.2 L 85.4 84.2 L 89.5 94.2 L 88 94.2 L 86.8 91.2 L 82.6 91.2 L 81.5 94.2 L 80.1 94.2 Z M 83 90.1 L 86.4 90.1 C 86.4 90.1 85.37 87.3 85.4 87.3 C 85.1 86.5 84.8 85.8 84.7 85.2 C 84.5 85.9 84.4 86.5 84.1 87.1 C 84.12 87.14 83 90.1 83 90.1 Z M 90.4 94.2 L 90.4 86.9 L 91.5 86.9 C 91.5 86.9 91.52 87.96 91.5 88 C 92.1 87.2 92.8 86.8 93.8 86.8 C 94.3 86.8 94.7 86.8 95 87 C 95.4 87.2 95.7 87.4 95.9 87.6 C 96 87.9 96.2 88.2 96.2 88.5 C 96.3 88.8 96.3 89.2 96.3 89.7 C 96.31 89.73 96.3 94.2 96.3 94.2 L 95.1 94.2 C 95.1 94.2 95.08 89.78 95.1 89.8 C 95.1 89.3 95 88.9 94.9 88.7 C 94.8 88.4 94.7 88.2 94.4 88.1 C 94.2 87.9 93.9 87.8 93.6 87.8 C 93 87.8 92.6 88 92.2 88.3 C 91.8 88.7 91.6 89.3 91.6 90.2 C 91.64 90.23 91.6 94.2 91.6 94.2 L 90.4 94.2 Z M 103.2 94.2 C 103.1 93.9 103 93.6 102.9 93.3 C 102.5 93.7 102 94 101.6 94.1 C 101.2 94.3 100.7 94.4 100.3 94.4 C 99.5 94.4 98.9 94.2 98.4 93.8 C 98 93.4 97.8 92.9 97.8 92.3 C 97.8 91.9 97.9 91.6 98 91.3 C 98.2 91 98.4 90.8 98.7 90.6 C 98.9 90.4 99.2 90.3 99.5 90.2 C 99.8 90.1 100.2 90.1 100.6 90 C 101.6 89.9 102.4 89.7 102.8 89.6 C 102.8 89.4 102.8 89.3 102.8 89.3 C 102.8 88.8 102.7 88.4 102.5 88.2 C 102.2 87.9 101.7 87.8 101.1 87.8 C 100.5 87.8 100.1 87.9 99.8 88.1 C 99.5 88.3 99.3 88.7 99.2 89.2 C 99.2 89.2 98 89 98 89 C 98.1 88.5 98.3 88.1 98.5 87.8 C 98.8 87.4 99.1 87.2 99.6 87 C 100.1 86.9 100.6 86.8 101.3 86.8 C 101.9 86.8 102.4 86.8 102.8 87 C 103.2 87.1 103.5 87.3 103.6 87.5 C 103.8 87.8 103.9 88 104 88.4 C 104.1 88.6 104.1 89 104.1 89.5 C 104.1 89.5 104.1 91.2 104.1 91.2 C 104.1 92.3 104.1 93 104.2 93.3 C 104.2 93.6 104.3 93.9 104.5 94.2 C 104.47 94.19 103.2 94.2 103.2 94.2 C 103.2 94.2 103.18 94.19 103.2 94.2 Z M 102.8 90.5 C 102.4 90.7 101.7 90.9 100.8 91 C 100.3 91.1 100 91.2 99.8 91.3 C 99.5 91.4 99.4 91.5 99.3 91.7 C 99.2 91.8 99.1 92 99.1 92.2 C 99.1 92.6 99.2 92.8 99.5 93.1 C 99.7 93.3 100.1 93.4 100.6 93.4 C 101 93.4 101.5 93.3 101.8 93.1 C 102.2 92.9 102.5 92.6 102.6 92.2 C 102.8 92 102.8 91.5 102.8 91 C 102.8 91 102.8 90.5 102.8 90.5 Z M 106 94.2 L 106 84.2 L 107.2 84.2 L 107.2 94.2 L 106 94.2 Z M 109.8 97.1 C 109.6 97.1 109.3 97.1 109 97 C 109 97 108.9 95.8 108.9 95.8 C 109.2 95.9 109.4 95.9 109.6 95.9 C 109.9 95.9 110.1 95.9 110.3 95.8 C 110.4 95.7 110.6 95.6 110.7 95.4 C 110.7 95.3 110.9 95 111 94.5 C 111.1 94.4 111.1 94.3 111.2 94.2 C 111.15 94.21 108.4 86.9 108.4 86.9 L 109.7 86.9 C 109.7 86.9 111.23 91.14 111.2 91.1 C 111.4 91.7 111.6 92.2 111.8 92.8 C 111.9 92.3 112.1 91.7 112.3 91.2 C 112.27 91.16 113.8 86.9 113.8 86.9 L 115 86.9 C 115 86.9 112.29 94.32 112.3 94.3 C 112 95.1 111.8 95.7 111.6 96 C 111.4 96.4 111.1 96.7 110.8 96.9 C 110.6 97 110.2 97.1 109.8 97.1 C 109.8 97.1 109.8 97.1 109.8 97.1 Z M 115.6 92 C 115.6 92 116.8 91.8 116.8 91.8 C 116.9 92.3 117.1 92.7 117.4 93 C 117.7 93.2 118.1 93.3 118.7 93.3 C 119.3 93.3 119.7 93.2 120 93 C 120.2 92.8 120.4 92.5 120.4 92.2 C 120.4 91.9 120.2 91.7 120 91.5 C 119.8 91.4 119.4 91.3 118.7 91.1 C 117.8 90.9 117.2 90.7 116.9 90.5 C 116.5 90.4 116.3 90.1 116.1 89.8 C 115.9 89.5 115.8 89.2 115.8 88.9 C 115.8 88.5 115.9 88.2 116 88 C 116.2 87.7 116.4 87.5 116.6 87.3 C 116.8 87.1 117.1 87 117.4 86.9 C 117.7 86.8 118.1 86.8 118.5 86.8 C 119.1 86.8 119.6 86.9 120 87 C 120.4 87.2 120.7 87.4 120.9 87.7 C 121.1 88 121.3 88.3 121.4 88.8 C 121.4 88.8 120.2 89 120.2 89 C 120.1 88.6 119.9 88.3 119.7 88.1 C 119.4 87.9 119 87.8 118.6 87.8 C 118 87.8 117.6 87.9 117.4 88.1 C 117.1 88.2 117 88.5 117 88.7 C 117 88.9 117 89 117.1 89.1 C 117.2 89.3 117.4 89.4 117.6 89.5 C 117.7 89.5 118.1 89.6 118.7 89.8 C 119.6 90 120.2 90.2 120.5 90.4 C 120.9 90.5 121.1 90.7 121.3 91 C 121.5 91.3 121.6 91.6 121.6 92.1 C 121.6 92.5 121.5 92.9 121.3 93.2 C 121 93.6 120.7 93.9 120.2 94.1 C 119.8 94.3 119.3 94.4 118.7 94.4 C 117.8 94.4 117 94.2 116.5 93.8 C 116.1 93.4 115.7 92.8 115.6 92 Z M 125.2 93.1 C 125.4 93.1 125.6 93.1 125.8 93.1 C 125.8 93.1 126 94.2 126 94.2 C 125.6 94.3 125.3 94.3 125 94.3 C 124.6 94.3 124.2 94.2 124 94.1 C 123.7 93.9 123.6 93.7 123.5 93.5 C 123.4 93.3 123.3 92.8 123.3 92.1 C 123.32 92.07 123.3 87.9 123.3 87.9 L 122.4 87.9 L 122.4 86.9 L 123.3 86.9 L 123.3 85.1 L 124.5 84.4 L 124.5 86.9 L 125.8 86.9 L 125.8 87.9 L 124.5 87.9 C 124.5 87.9 124.54 92.13 124.5 92.1 C 124.5 92.5 124.6 92.7 124.6 92.8 C 124.7 92.9 124.7 93 124.8 93.1 C 124.9 93.1 125.1 93.1 125.2 93.1 C 125.2 93.1 125.2 93.1 125.2 93.1 Z " stroke="none" fill="#000000"/>  </g>  <g id="Polygon111884">    <path d="M 1.1 77.4 L 1.1 67.5 L 3.1 67.5 L 3.1 75.7 L 8.1 75.7 L 8.1 77.4 L 1.1 77.4 Z M 12.9 77.4 L 12.9 75.4 L 8.8 75.4 L 8.8 73.7 L 13.2 67.3 L 14.8 67.3 L 14.8 73.7 L 16 73.7 L 16 75.4 L 14.8 75.4 L 14.8 77.4 L 12.9 77.4 Z M 12.9 73.7 L 12.9 70.3 L 10.6 73.7 L 12.9 73.7 Z M 21.3 77.4 L 21.3 67.4 C 21.3 67.4 24.76 67.37 24.8 67.4 C 25.5 67.4 26.1 67.4 26.5 67.5 C 27.1 67.6 27.6 67.9 28 68.2 C 28.5 68.7 28.9 69.2 29.2 69.9 C 29.5 70.6 29.6 71.4 29.6 72.3 C 29.6 73.1 29.5 73.8 29.3 74.4 C 29.1 74.9 28.9 75.4 28.6 75.8 C 28.4 76.2 28.1 76.5 27.7 76.7 C 27.4 76.9 27 77.1 26.5 77.2 C 26.1 77.3 25.5 77.4 24.9 77.4 C 24.92 77.39 21.3 77.4 21.3 77.4 Z M 22.6 76.2 C 22.6 76.2 24.77 76.21 24.8 76.2 C 25.4 76.2 26 76.1 26.3 76 C 26.7 75.9 27 75.7 27.2 75.5 C 27.5 75.2 27.8 74.8 28 74.2 C 28.1 73.7 28.2 73.1 28.2 72.3 C 28.2 71.3 28.1 70.5 27.7 69.9 C 27.4 69.3 26.9 68.9 26.5 68.8 C 26.1 68.6 25.5 68.6 24.7 68.6 C 24.74 68.55 22.6 68.6 22.6 68.6 L 22.6 76.2 Z M 36.2 77.4 C 36.1 77.1 36 76.8 36 76.5 C 35.5 76.9 35.1 77.2 34.7 77.3 C 34.3 77.5 33.8 77.6 33.3 77.6 C 32.5 77.6 31.9 77.4 31.5 77 C 31.1 76.6 30.8 76.1 30.8 75.5 C 30.8 75.1 30.9 74.8 31.1 74.5 C 31.2 74.2 31.5 74 31.7 73.8 C 32 73.6 32.3 73.5 32.6 73.4 C 32.8 73.3 33.2 73.3 33.7 73.2 C 34.7 73.1 35.4 72.9 35.9 72.8 C 35.9 72.6 35.9 72.5 35.9 72.5 C 35.9 72 35.8 71.6 35.6 71.4 C 35.2 71.1 34.8 71 34.2 71 C 33.6 71 33.1 71.1 32.9 71.3 C 32.6 71.5 32.4 71.9 32.3 72.4 C 32.3 72.4 31.1 72.2 31.1 72.2 C 31.2 71.7 31.3 71.3 31.6 71 C 31.8 70.6 32.2 70.4 32.7 70.2 C 33.2 70.1 33.7 70 34.3 70 C 34.9 70 35.5 70 35.8 70.2 C 36.2 70.3 36.5 70.5 36.7 70.7 C 36.9 71 37 71.2 37.1 71.6 C 37.1 71.8 37.1 72.2 37.1 72.7 C 37.1 72.7 37.1 74.4 37.1 74.4 C 37.1 75.5 37.2 76.2 37.2 76.5 C 37.3 76.8 37.4 77.1 37.5 77.4 C 37.53 77.39 36.2 77.4 36.2 77.4 C 36.2 77.4 36.24 77.39 36.2 77.4 Z M 35.9 73.7 C 35.4 73.9 34.8 74.1 33.9 74.2 C 33.4 74.3 33 74.4 32.8 74.5 C 32.6 74.6 32.4 74.7 32.3 74.9 C 32.2 75 32.2 75.2 32.2 75.4 C 32.2 75.8 32.3 76 32.5 76.3 C 32.8 76.5 33.1 76.6 33.6 76.6 C 34.1 76.6 34.5 76.5 34.9 76.3 C 35.3 76.1 35.5 75.8 35.7 75.4 C 35.8 75.2 35.9 74.7 35.9 74.2 C 35.9 74.2 35.9 73.7 35.9 73.7 Z M 41.2 76.3 C 41.3 76.3 41.5 76.3 41.7 76.3 C 41.7 76.3 41.9 77.4 41.9 77.4 C 41.6 77.5 41.3 77.5 41 77.5 C 40.5 77.5 40.2 77.4 39.9 77.3 C 39.7 77.1 39.5 76.9 39.4 76.7 C 39.3 76.5 39.3 76 39.3 75.3 C 39.27 75.27 39.3 71.1 39.3 71.1 L 38.4 71.1 L 38.4 70.1 L 39.3 70.1 L 39.3 68.3 L 40.5 67.6 L 40.5 70.1 L 41.7 70.1 L 41.7 71.1 L 40.5 71.1 C 40.5 71.1 40.5 75.33 40.5 75.3 C 40.5 75.7 40.5 75.9 40.6 76 C 40.6 76.1 40.7 76.2 40.8 76.3 C 40.9 76.3 41 76.3 41.2 76.3 C 41.2 76.3 41.2 76.3 41.2 76.3 Z M 47.9 77.4 C 47.8 77.1 47.7 76.8 47.7 76.5 C 47.2 76.9 46.8 77.2 46.4 77.3 C 45.9 77.5 45.5 77.6 45 77.6 C 44.2 77.6 43.6 77.4 43.2 77 C 42.7 76.6 42.5 76.1 42.5 75.5 C 42.5 75.1 42.6 74.8 42.8 74.5 C 42.9 74.2 43.1 74 43.4 73.8 C 43.7 73.6 44 73.5 44.3 73.4 C 44.5 73.3 44.9 73.3 45.4 73.2 C 46.4 73.1 47.1 72.9 47.6 72.8 C 47.6 72.6 47.6 72.5 47.6 72.5 C 47.6 72 47.5 71.6 47.2 71.4 C 46.9 71.1 46.4 71 45.8 71 C 45.2 71 44.8 71.1 44.5 71.3 C 44.3 71.5 44.1 71.9 43.9 72.4 C 43.9 72.4 42.7 72.2 42.7 72.2 C 42.8 71.7 43 71.3 43.3 71 C 43.5 70.6 43.9 70.4 44.4 70.2 C 44.8 70.1 45.4 70 46 70 C 46.6 70 47.1 70 47.5 70.2 C 47.9 70.3 48.2 70.5 48.4 70.7 C 48.6 71 48.7 71.2 48.8 71.6 C 48.8 71.8 48.8 72.2 48.8 72.7 C 48.8 72.7 48.8 74.4 48.8 74.4 C 48.8 75.5 48.8 76.2 48.9 76.5 C 48.9 76.8 49.1 77.1 49.2 77.4 C 49.21 77.39 47.9 77.4 47.9 77.4 C 47.9 77.4 47.92 77.39 47.9 77.4 Z M 47.6 73.7 C 47.1 73.9 46.5 74.1 45.6 74.2 C 45.1 74.3 44.7 74.4 44.5 74.5 C 44.3 74.6 44.1 74.7 44 74.9 C 43.9 75 43.8 75.2 43.8 75.4 C 43.8 75.8 44 76 44.2 76.3 C 44.5 76.5 44.8 76.6 45.3 76.6 C 45.8 76.6 46.2 76.5 46.6 76.3 C 46.9 76.1 47.2 75.8 47.4 75.4 C 47.5 75.2 47.6 74.7 47.6 74.2 C 47.6 74.2 47.6 73.7 47.6 73.7 Z M 52.9 77.4 L 56.7 67.4 L 58.2 67.4 L 62.3 77.4 L 60.8 77.4 L 59.6 74.4 L 55.4 74.4 L 54.3 77.4 L 52.9 77.4 Z M 55.8 73.3 L 59.2 73.3 C 59.2 73.3 58.14 70.5 58.1 70.5 C 57.8 69.7 57.6 69 57.4 68.4 C 57.3 69.1 57.1 69.7 56.9 70.3 C 56.89 70.34 55.8 73.3 55.8 73.3 Z M 63.2 77.4 L 63.2 70.1 L 64.3 70.1 C 64.3 70.1 64.29 71.16 64.3 71.2 C 64.8 70.4 65.6 70 66.6 70 C 67 70 67.4 70 67.8 70.2 C 68.2 70.4 68.4 70.6 68.6 70.8 C 68.8 71.1 68.9 71.4 69 71.7 C 69.1 72 69.1 72.4 69.1 72.9 C 69.08 72.93 69.1 77.4 69.1 77.4 L 67.8 77.4 C 67.8 77.4 67.85 72.98 67.8 73 C 67.8 72.5 67.8 72.1 67.7 71.9 C 67.6 71.6 67.4 71.4 67.2 71.3 C 66.9 71.1 66.7 71 66.3 71 C 65.8 71 65.4 71.2 65 71.5 C 64.6 71.9 64.4 72.5 64.4 73.4 C 64.41 73.43 64.4 77.4 64.4 77.4 L 63.2 77.4 Z M 75.9 77.4 C 75.8 77.1 75.7 76.8 75.7 76.5 C 75.2 76.9 74.8 77.2 74.4 77.3 C 74 77.5 73.5 77.6 73 77.6 C 72.2 77.6 71.6 77.4 71.2 77 C 70.8 76.6 70.5 76.1 70.5 75.5 C 70.5 75.1 70.6 74.8 70.8 74.5 C 71 74.2 71.2 74 71.4 73.8 C 71.7 73.6 72 73.5 72.3 73.4 C 72.6 73.3 72.9 73.3 73.4 73.2 C 74.4 73.1 75.1 72.9 75.6 72.8 C 75.6 72.6 75.6 72.5 75.6 72.5 C 75.6 72 75.5 71.6 75.3 71.4 C 74.9 71.1 74.5 71 73.9 71 C 73.3 71 72.8 71.1 72.6 71.3 C 72.3 71.5 72.1 71.9 72 72.4 C 72 72.4 70.8 72.2 70.8 72.2 C 70.9 71.7 71 71.3 71.3 71 C 71.5 70.6 71.9 70.4 72.4 70.2 C 72.9 70.1 73.4 70 74 70 C 74.7 70 75.2 70 75.5 70.2 C 75.9 70.3 76.2 70.5 76.4 70.7 C 76.6 71 76.7 71.2 76.8 71.6 C 76.8 71.8 76.8 72.2 76.8 72.7 C 76.8 72.7 76.8 74.4 76.8 74.4 C 76.8 75.5 76.9 76.2 76.9 76.5 C 77 76.8 77.1 77.1 77.2 77.4 C 77.23 77.39 75.9 77.4 75.9 77.4 C 75.9 77.4 75.95 77.39 75.9 77.4 Z M 75.6 73.7 C 75.2 73.9 74.5 74.1 73.6 74.2 C 73.1 74.3 72.7 74.4 72.5 74.5 C 72.3 74.6 72.1 74.7 72 74.9 C 71.9 75 71.9 75.2 71.9 75.4 C 71.9 75.8 72 76 72.2 76.3 C 72.5 76.5 72.8 76.6 73.3 76.6 C 73.8 76.6 74.2 76.5 74.6 76.3 C 75 76.1 75.2 75.8 75.4 75.4 C 75.5 75.2 75.6 74.7 75.6 74.2 C 75.6 74.2 75.6 73.7 75.6 73.7 Z M 78.7 77.4 L 78.7 67.4 L 80 67.4 L 80 77.4 L 78.7 77.4 Z M 82.6 80.3 C 82.4 80.3 82.1 80.3 81.8 80.2 C 81.8 80.2 81.7 79 81.7 79 C 81.9 79.1 82.2 79.1 82.4 79.1 C 82.6 79.1 82.9 79.1 83 79 C 83.2 78.9 83.3 78.8 83.4 78.6 C 83.5 78.5 83.6 78.2 83.8 77.7 C 83.8 77.6 83.9 77.5 83.9 77.4 C 83.92 77.41 81.2 70.1 81.2 70.1 L 82.5 70.1 C 82.5 70.1 84 74.34 84 74.3 C 84.2 74.9 84.4 75.4 84.5 76 C 84.7 75.5 84.8 74.9 85 74.4 C 85.03 74.36 86.6 70.1 86.6 70.1 L 87.8 70.1 C 87.8 70.1 85.05 77.52 85.1 77.5 C 84.8 78.3 84.5 78.9 84.4 79.2 C 84.1 79.6 83.9 79.9 83.6 80.1 C 83.3 80.2 83 80.3 82.6 80.3 C 82.6 80.3 82.6 80.3 82.6 80.3 Z M 88.4 75.2 C 88.4 75.2 89.6 75 89.6 75 C 89.7 75.5 89.8 75.9 90.2 76.2 C 90.5 76.4 90.9 76.5 91.5 76.5 C 92 76.5 92.4 76.4 92.7 76.2 C 93 76 93.1 75.7 93.1 75.4 C 93.1 75.1 93 74.9 92.8 74.7 C 92.6 74.6 92.2 74.5 91.5 74.3 C 90.6 74.1 90 73.9 89.6 73.7 C 89.3 73.6 89 73.3 88.8 73 C 88.7 72.7 88.6 72.4 88.6 72.1 C 88.6 71.7 88.6 71.4 88.8 71.2 C 88.9 70.9 89.1 70.7 89.4 70.5 C 89.6 70.3 89.9 70.2 90.2 70.1 C 90.5 70 90.9 70 91.2 70 C 91.8 70 92.3 70.1 92.7 70.2 C 93.2 70.4 93.5 70.6 93.7 70.9 C 93.9 71.2 94 71.5 94.1 72 C 94.1 72 92.9 72.2 92.9 72.2 C 92.9 71.8 92.7 71.5 92.4 71.3 C 92.2 71.1 91.8 71 91.3 71 C 90.8 71 90.4 71.1 90.1 71.3 C 89.9 71.4 89.8 71.7 89.8 71.9 C 89.8 72.1 89.8 72.2 89.9 72.3 C 90 72.5 90.2 72.6 90.4 72.7 C 90.5 72.7 90.9 72.8 91.5 73 C 92.3 73.2 92.9 73.4 93.3 73.6 C 93.6 73.7 93.9 73.9 94.1 74.2 C 94.3 74.5 94.4 74.8 94.4 75.3 C 94.4 75.7 94.3 76.1 94 76.4 C 93.8 76.8 93.5 77.1 93 77.3 C 92.6 77.5 92 77.6 91.5 77.6 C 90.5 77.6 89.8 77.4 89.3 77 C 88.8 76.6 88.5 76 88.4 75.2 Z M 98 76.3 C 98.1 76.3 98.3 76.3 98.5 76.3 C 98.5 76.3 98.7 77.4 98.7 77.4 C 98.4 77.5 98.1 77.5 97.8 77.5 C 97.3 77.5 97 77.4 96.8 77.3 C 96.5 77.1 96.3 76.9 96.2 76.7 C 96.1 76.5 96.1 76 96.1 75.3 C 96.09 75.27 96.1 71.1 96.1 71.1 L 95.2 71.1 L 95.2 70.1 L 96.1 70.1 L 96.1 68.3 L 97.3 67.6 L 97.3 70.1 L 98.5 70.1 L 98.5 71.1 L 97.3 71.1 C 97.3 71.1 97.31 75.33 97.3 75.3 C 97.3 75.7 97.3 75.9 97.4 76 C 97.4 76.1 97.5 76.2 97.6 76.3 C 97.7 76.3 97.8 76.3 98 76.3 C 98 76.3 98 76.3 98 76.3 Z " stroke="none" fill="#000000"/>  </g>  <g id="Polygon111883">    <path d="M 1.1 60.6 L 1.1 50.7 L 3.1 50.7 L 3.1 58.9 L 8.1 58.9 L 8.1 60.6 L 1.1 60.6 Z M 9.1 57.9 C 9.1 57.9 10.9 57.7 10.9 57.7 C 11 58.2 11.2 58.5 11.4 58.8 C 11.7 59 12 59.2 12.4 59.2 C 12.8 59.2 13.1 59 13.4 58.7 C 13.6 58.4 13.8 58 13.8 57.5 C 13.8 57 13.6 56.6 13.4 56.4 C 13.1 56.1 12.8 55.9 12.4 55.9 C 12.2 55.9 11.9 56 11.5 56.1 C 11.5 56.1 11.8 54.5 11.8 54.5 C 12.3 54.5 12.7 54.4 12.9 54.2 C 13.2 53.9 13.4 53.6 13.4 53.2 C 13.4 52.9 13.3 52.6 13.1 52.4 C 12.9 52.2 12.6 52.1 12.3 52.1 C 11.9 52.1 11.6 52.2 11.4 52.5 C 11.2 52.7 11 53 11 53.4 C 11 53.4 9.2 53.1 9.2 53.1 C 9.3 52.5 9.5 52.1 9.8 51.7 C 10 51.3 10.4 51 10.8 50.8 C 11.3 50.6 11.8 50.5 12.3 50.5 C 13.3 50.5 14 50.8 14.6 51.4 C 15.1 51.9 15.3 52.5 15.3 53.1 C 15.3 54 14.8 54.7 13.8 55.2 C 14.4 55.3 14.9 55.6 15.2 56 C 15.6 56.5 15.7 57 15.7 57.6 C 15.7 58.5 15.4 59.2 14.8 59.8 C 14.1 60.5 13.3 60.8 12.4 60.8 C 11.5 60.8 10.7 60.5 10.1 60 C 9.5 59.5 9.2 58.8 9.1 57.9 Z M 21.3 60.6 L 21.3 50.6 C 21.3 50.6 24.76 50.57 24.8 50.6 C 25.5 50.6 26.1 50.6 26.5 50.7 C 27.1 50.8 27.6 51.1 28 51.4 C 28.5 51.9 28.9 52.4 29.2 53.1 C 29.5 53.8 29.6 54.6 29.6 55.5 C 29.6 56.3 29.5 57 29.3 57.6 C 29.1 58.1 28.9 58.6 28.6 59 C 28.4 59.4 28.1 59.7 27.7 59.9 C 27.4 60.1 27 60.3 26.5 60.4 C 26.1 60.5 25.5 60.6 24.9 60.6 C 24.92 60.59 21.3 60.6 21.3 60.6 Z M 22.6 59.4 C 22.6 59.4 24.77 59.41 24.8 59.4 C 25.4 59.4 26 59.3 26.3 59.2 C 26.7 59.1 27 58.9 27.2 58.7 C 27.5 58.4 27.8 58 28 57.4 C 28.1 56.9 28.2 56.3 28.2 55.5 C 28.2 54.5 28.1 53.7 27.7 53.1 C 27.4 52.5 26.9 52.1 26.5 52 C 26.1 51.8 25.5 51.8 24.7 51.8 C 24.74 51.75 22.6 51.8 22.6 51.8 L 22.6 59.4 Z M 36.2 60.6 C 36.1 60.3 36 60 36 59.7 C 35.5 60.1 35.1 60.4 34.7 60.5 C 34.3 60.7 33.8 60.8 33.3 60.8 C 32.5 60.8 31.9 60.6 31.5 60.2 C 31.1 59.8 30.8 59.3 30.8 58.7 C 30.8 58.3 30.9 58 31.1 57.7 C 31.2 57.4 31.5 57.2 31.7 57 C 32 56.8 32.3 56.7 32.6 56.6 C 32.8 56.5 33.2 56.5 33.7 56.4 C 34.7 56.3 35.4 56.1 35.9 56 C 35.9 55.8 35.9 55.7 35.9 55.7 C 35.9 55.2 35.8 54.8 35.6 54.6 C 35.2 54.3 34.8 54.2 34.2 54.2 C 33.6 54.2 33.1 54.3 32.9 54.5 C 32.6 54.7 32.4 55.1 32.3 55.6 C 32.3 55.6 31.1 55.4 31.1 55.4 C 31.2 54.9 31.3 54.5 31.6 54.2 C 31.8 53.8 32.2 53.6 32.7 53.4 C 33.2 53.3 33.7 53.2 34.3 53.2 C 34.9 53.2 35.5 53.2 35.8 53.4 C 36.2 53.5 36.5 53.7 36.7 53.9 C 36.9 54.2 37 54.4 37.1 54.8 C 37.1 55 37.1 55.4 37.1 55.9 C 37.1 55.9 37.1 57.6 37.1 57.6 C 37.1 58.7 37.2 59.4 37.2 59.7 C 37.3 60 37.4 60.3 37.5 60.6 C 37.53 60.59 36.2 60.6 36.2 60.6 C 36.2 60.6 36.24 60.59 36.2 60.6 Z M 35.9 56.9 C 35.4 57.1 34.8 57.3 33.9 57.4 C 33.4 57.5 33 57.6 32.8 57.7 C 32.6 57.8 32.4 57.9 32.3 58.1 C 32.2 58.2 32.2 58.4 32.2 58.6 C 32.2 59 32.3 59.2 32.5 59.5 C 32.8 59.7 33.1 59.8 33.6 59.8 C 34.1 59.8 34.5 59.7 34.9 59.5 C 35.3 59.3 35.5 59 35.7 58.6 C 35.8 58.4 35.9 57.9 35.9 57.4 C 35.9 57.4 35.9 56.9 35.9 56.9 Z M 41.2 59.5 C 41.3 59.5 41.5 59.5 41.7 59.5 C 41.7 59.5 41.9 60.6 41.9 60.6 C 41.6 60.7 41.3 60.7 41 60.7 C 40.5 60.7 40.2 60.6 39.9 60.5 C 39.7 60.3 39.5 60.1 39.4 59.9 C 39.3 59.7 39.3 59.2 39.3 58.5 C 39.27 58.47 39.3 54.3 39.3 54.3 L 38.4 54.3 L 38.4 53.3 L 39.3 53.3 L 39.3 51.5 L 40.5 50.8 L 40.5 53.3 L 41.7 53.3 L 41.7 54.3 L 40.5 54.3 C 40.5 54.3 40.5 58.53 40.5 58.5 C 40.5 58.9 40.5 59.1 40.6 59.2 C 40.6 59.3 40.7 59.4 40.8 59.5 C 40.9 59.5 41 59.5 41.2 59.5 C 41.2 59.5 41.2 59.5 41.2 59.5 Z M 47.9 60.6 C 47.8 60.3 47.7 60 47.7 59.7 C 47.2 60.1 46.8 60.4 46.4 60.5 C 45.9 60.7 45.5 60.8 45 60.8 C 44.2 60.8 43.6 60.6 43.2 60.2 C 42.7 59.8 42.5 59.3 42.5 58.7 C 42.5 58.3 42.6 58 42.8 57.7 C 42.9 57.4 43.1 57.2 43.4 57 C 43.7 56.8 44 56.7 44.3 56.6 C 44.5 56.5 44.9 56.5 45.4 56.4 C 46.4 56.3 47.1 56.1 47.6 56 C 47.6 55.8 47.6 55.7 47.6 55.7 C 47.6 55.2 47.5 54.8 47.2 54.6 C 46.9 54.3 46.4 54.2 45.8 54.2 C 45.2 54.2 44.8 54.3 44.5 54.5 C 44.3 54.7 44.1 55.1 43.9 55.6 C 43.9 55.6 42.7 55.4 42.7 55.4 C 42.8 54.9 43 54.5 43.3 54.2 C 43.5 53.8 43.9 53.6 44.4 53.4 C 44.8 53.3 45.4 53.2 46 53.2 C 46.6 53.2 47.1 53.2 47.5 53.4 C 47.9 53.5 48.2 53.7 48.4 53.9 C 48.6 54.2 48.7 54.4 48.8 54.8 C 48.8 55 48.8 55.4 48.8 55.9 C 48.8 55.9 48.8 57.6 48.8 57.6 C 48.8 58.7 48.8 59.4 48.9 59.7 C 48.9 60 49.1 60.3 49.2 60.6 C 49.21 60.59 47.9 60.6 47.9 60.6 C 47.9 60.6 47.92 60.59 47.9 60.6 Z M 47.6 56.9 C 47.1 57.1 46.5 57.3 45.6 57.4 C 45.1 57.5 44.7 57.6 44.5 57.7 C 44.3 57.8 44.1 57.9 44 58.1 C 43.9 58.2 43.8 58.4 43.8 58.6 C 43.8 59 44 59.2 44.2 59.5 C 44.5 59.7 44.8 59.8 45.3 59.8 C 45.8 59.8 46.2 59.7 46.6 59.5 C 46.9 59.3 47.2 59 47.4 58.6 C 47.5 58.4 47.6 57.9 47.6 57.4 C 47.6 57.4 47.6 56.9 47.6 56.9 Z M 57.1 60.6 L 57.1 51.8 L 53.8 51.8 L 53.8 50.6 L 61.7 50.6 L 61.7 51.8 L 58.4 51.8 L 58.4 60.6 L 57.1 60.6 Z M 66.3 58.3 C 66.3 58.3 67.6 58.4 67.6 58.4 C 67.4 59.2 67 59.7 66.5 60.1 C 65.9 60.6 65.3 60.8 64.4 60.8 C 63.3 60.8 62.5 60.4 61.9 59.8 C 61.3 59.1 60.9 58.2 60.9 57 C 60.9 55.8 61.3 54.9 61.9 54.2 C 62.5 53.5 63.3 53.2 64.3 53.2 C 65.3 53.2 66.1 53.5 66.7 54.2 C 67.3 54.8 67.6 55.8 67.6 56.9 C 67.6 57 67.6 57.1 67.6 57.3 C 67.6 57.3 62.2 57.3 62.2 57.3 C 62.3 58.1 62.5 58.7 62.9 59.1 C 63.3 59.5 63.8 59.7 64.4 59.7 C 64.9 59.7 65.3 59.6 65.6 59.4 C 65.9 59.2 66.1 58.8 66.3 58.3 Z M 62.3 56.3 C 62.3 56.3 66.3 56.3 66.3 56.3 C 66.3 55.7 66.1 55.2 65.9 54.9 C 65.5 54.4 65 54.2 64.4 54.2 C 63.8 54.2 63.3 54.4 62.9 54.7 C 62.5 55.1 62.3 55.6 62.3 56.3 Z M 73.9 57.9 C 73.9 57.9 75.1 58.1 75.1 58.1 C 75 58.9 74.6 59.6 74.1 60 C 73.5 60.5 72.9 60.8 72.1 60.8 C 71.1 60.8 70.3 60.4 69.7 59.8 C 69.1 59.1 68.8 58.2 68.8 57 C 68.8 56.2 68.9 55.5 69.2 54.9 C 69.4 54.3 69.8 53.9 70.3 53.6 C 70.9 53.3 71.5 53.2 72.1 53.2 C 72.9 53.2 73.5 53.4 74 53.8 C 74.5 54.2 74.8 54.7 75 55.5 C 75 55.5 73.8 55.6 73.8 55.6 C 73.7 55.2 73.5 54.8 73.2 54.5 C 72.9 54.3 72.5 54.2 72.1 54.2 C 71.5 54.2 71 54.4 70.6 54.8 C 70.2 55.3 70 56 70 57 C 70 57.9 70.2 58.6 70.6 59.1 C 71 59.5 71.5 59.7 72.1 59.7 C 72.5 59.7 72.9 59.6 73.3 59.3 C 73.6 59 73.8 58.5 73.9 57.9 Z M 76.1 60.6 L 76.1 50.6 L 77.4 50.6 C 77.4 50.6 77.38 54.17 77.4 54.2 C 78 53.5 78.7 53.2 79.5 53.2 C 80.1 53.2 80.6 53.3 81 53.5 C 81.3 53.7 81.6 54 81.8 54.4 C 82 54.7 82.1 55.3 82.1 56 C 82.06 55.99 82.1 60.6 82.1 60.6 L 80.8 60.6 C 80.8 60.6 80.83 55.99 80.8 56 C 80.8 55.4 80.7 54.9 80.4 54.6 C 80.2 54.4 79.8 54.2 79.3 54.2 C 78.9 54.2 78.6 54.3 78.3 54.5 C 77.9 54.7 77.7 55 77.6 55.3 C 77.4 55.6 77.4 56.1 77.4 56.6 C 77.38 56.62 77.4 60.6 77.4 60.6 L 76.1 60.6 Z M 83.9 60.6 L 83.9 53.3 L 85 53.3 C 85 53.3 85.04 54.36 85 54.4 C 85.6 53.6 86.3 53.2 87.3 53.2 C 87.8 53.2 88.2 53.2 88.6 53.4 C 88.9 53.6 89.2 53.8 89.4 54 C 89.6 54.3 89.7 54.6 89.8 54.9 C 89.8 55.2 89.8 55.6 89.8 56.1 C 89.83 56.13 89.8 60.6 89.8 60.6 L 88.6 60.6 C 88.6 60.6 88.6 56.18 88.6 56.2 C 88.6 55.7 88.6 55.3 88.5 55.1 C 88.4 54.8 88.2 54.6 87.9 54.5 C 87.7 54.3 87.4 54.2 87.1 54.2 C 86.6 54.2 86.1 54.4 85.7 54.7 C 85.4 55.1 85.2 55.7 85.2 56.6 C 85.16 56.63 85.2 60.6 85.2 60.6 L 83.9 60.6 Z M 91.7 52 L 91.7 50.6 L 93 50.6 L 93 52 L 91.7 52 Z M 91.7 60.6 L 91.7 53.3 L 93 53.3 L 93 60.6 L 91.7 60.6 Z M 99.6 57.9 C 99.6 57.9 100.8 58.1 100.8 58.1 C 100.6 58.9 100.3 59.6 99.8 60 C 99.2 60.5 98.5 60.8 97.8 60.8 C 96.8 60.8 96 60.4 95.4 59.8 C 94.8 59.1 94.5 58.2 94.5 57 C 94.5 56.2 94.6 55.5 94.8 54.9 C 95.1 54.3 95.5 53.9 96 53.6 C 96.6 53.3 97.1 53.2 97.8 53.2 C 98.5 53.2 99.2 53.4 99.7 53.8 C 100.2 54.2 100.5 54.7 100.7 55.5 C 100.7 55.5 99.5 55.6 99.5 55.6 C 99.3 55.2 99.1 54.8 98.9 54.5 C 98.6 54.3 98.2 54.2 97.8 54.2 C 97.2 54.2 96.7 54.4 96.3 54.8 C 95.9 55.3 95.7 56 95.7 57 C 95.7 57.9 95.9 58.6 96.3 59.1 C 96.7 59.5 97.1 59.7 97.7 59.7 C 98.2 59.7 98.6 59.6 99 59.3 C 99.3 59 99.5 58.5 99.6 57.9 Z M 101.8 52 L 101.8 50.6 L 103.1 50.6 L 103.1 52 L 101.8 52 Z M 101.8 60.6 L 101.8 53.3 L 103.1 53.3 L 103.1 60.6 L 101.8 60.6 Z M 109.9 60.6 C 109.8 60.3 109.7 60 109.7 59.7 C 109.2 60.1 108.8 60.4 108.4 60.5 C 107.9 60.7 107.5 60.8 107 60.8 C 106.2 60.8 105.6 60.6 105.2 60.2 C 104.7 59.8 104.5 59.3 104.5 58.7 C 104.5 58.3 104.6 58 104.8 57.7 C 104.9 57.4 105.1 57.2 105.4 57 C 105.7 56.8 106 56.7 106.3 56.6 C 106.5 56.5 106.9 56.5 107.4 56.4 C 108.4 56.3 109.1 56.1 109.6 56 C 109.6 55.8 109.6 55.7 109.6 55.7 C 109.6 55.2 109.5 54.8 109.2 54.6 C 108.9 54.3 108.4 54.2 107.8 54.2 C 107.3 54.2 106.8 54.3 106.5 54.5 C 106.3 54.7 106.1 55.1 105.9 55.6 C 105.9 55.6 104.7 55.4 104.7 55.4 C 104.8 54.9 105 54.5 105.3 54.2 C 105.5 53.8 105.9 53.6 106.4 53.4 C 106.8 53.3 107.4 53.2 108 53.2 C 108.6 53.2 109.1 53.2 109.5 53.4 C 109.9 53.5 110.2 53.7 110.4 53.9 C 110.6 54.2 110.7 54.4 110.8 54.8 C 110.8 55 110.8 55.4 110.8 55.9 C 110.8 55.9 110.8 57.6 110.8 57.6 C 110.8 58.7 110.8 59.4 110.9 59.7 C 110.9 60 111.1 60.3 111.2 60.6 C 111.21 60.59 109.9 60.6 109.9 60.6 C 109.9 60.6 109.92 60.59 109.9 60.6 Z M 109.6 56.9 C 109.1 57.1 108.5 57.3 107.6 57.4 C 107.1 57.5 106.7 57.6 106.5 57.7 C 106.3 57.8 106.1 57.9 106 58.1 C 105.9 58.2 105.8 58.4 105.8 58.6 C 105.8 59 106 59.2 106.2 59.5 C 106.5 59.7 106.8 59.8 107.3 59.8 C 107.8 59.8 108.2 59.7 108.6 59.5 C 108.9 59.3 109.2 59 109.4 58.6 C 109.5 58.4 109.6 57.9 109.6 57.4 C 109.6 57.4 109.6 56.9 109.6 56.9 Z M 112.7 60.6 L 112.7 53.3 L 113.8 53.3 C 113.8 53.3 113.83 54.36 113.8 54.4 C 114.4 53.6 115.1 53.2 116.1 53.2 C 116.6 53.2 117 53.2 117.3 53.4 C 117.7 53.6 118 53.8 118.2 54 C 118.4 54.3 118.5 54.6 118.6 54.9 C 118.6 55.2 118.6 55.6 118.6 56.1 C 118.62 56.13 118.6 60.6 118.6 60.6 L 117.4 60.6 C 117.4 60.6 117.39 56.18 117.4 56.2 C 117.4 55.7 117.3 55.3 117.3 55.1 C 117.2 54.8 117 54.6 116.7 54.5 C 116.5 54.3 116.2 54.2 115.9 54.2 C 115.4 54.2 114.9 54.4 114.5 54.7 C 114.1 55.1 114 55.7 114 56.6 C 113.96 56.63 114 60.6 114 60.6 L 112.7 60.6 Z " stroke="none" fill="#000000"/>  </g>  <g id="Polygon111882">    <path d="M 1.1 43.8 L 1.1 33.9 L 3.1 33.9 L 3.1 42.1 L 8.1 42.1 L 8.1 43.8 L 1.1 43.8 Z M 9.1 41.1 C 9.1 41.1 10.9 40.9 10.9 40.9 C 11 41.4 11.2 41.7 11.4 42 C 11.7 42.2 12 42.4 12.4 42.4 C 12.8 42.4 13.1 42.2 13.4 41.9 C 13.6 41.6 13.8 41.2 13.8 40.7 C 13.8 40.2 13.6 39.8 13.4 39.6 C 13.1 39.3 12.8 39.1 12.4 39.1 C 12.2 39.1 11.9 39.2 11.5 39.3 C 11.5 39.3 11.8 37.7 11.8 37.7 C 12.3 37.7 12.7 37.6 12.9 37.4 C 13.2 37.1 13.4 36.8 13.4 36.4 C 13.4 36.1 13.3 35.8 13.1 35.6 C 12.9 35.4 12.6 35.3 12.3 35.3 C 11.9 35.3 11.6 35.4 11.4 35.7 C 11.2 35.9 11 36.2 11 36.6 C 11 36.6 9.2 36.3 9.2 36.3 C 9.3 35.7 9.5 35.3 9.8 34.9 C 10 34.5 10.4 34.2 10.8 34 C 11.3 33.8 11.8 33.7 12.3 33.7 C 13.3 33.7 14 34 14.6 34.6 C 15.1 35.1 15.3 35.7 15.3 36.3 C 15.3 37.2 14.8 37.9 13.8 38.4 C 14.4 38.5 14.9 38.8 15.2 39.2 C 15.6 39.7 15.7 40.2 15.7 40.8 C 15.7 41.7 15.4 42.4 14.8 43 C 14.1 43.7 13.3 44 12.4 44 C 11.5 44 10.7 43.7 10.1 43.2 C 9.5 42.7 9.2 42 9.1 41.1 Z M 21.3 43.8 L 21.3 33.8 C 21.3 33.8 24.76 33.77 24.8 33.8 C 25.5 33.8 26.1 33.8 26.5 33.9 C 27.1 34 27.6 34.3 28 34.6 C 28.5 35.1 28.9 35.6 29.2 36.3 C 29.5 37 29.6 37.8 29.6 38.7 C 29.6 39.5 29.5 40.2 29.3 40.8 C 29.1 41.3 28.9 41.8 28.6 42.2 C 28.4 42.6 28.1 42.9 27.7 43.1 C 27.4 43.3 27 43.5 26.5 43.6 C 26.1 43.7 25.5 43.8 24.9 43.8 C 24.92 43.79 21.3 43.8 21.3 43.8 Z M 22.6 42.6 C 22.6 42.6 24.77 42.61 24.8 42.6 C 25.4 42.6 26 42.5 26.3 42.4 C 26.7 42.3 27 42.1 27.2 41.9 C 27.5 41.6 27.8 41.2 28 40.6 C 28.1 40.1 28.2 39.5 28.2 38.7 C 28.2 37.7 28.1 36.9 27.7 36.3 C 27.4 35.7 26.9 35.4 26.5 35.2 C 26.1 35 25.5 35 24.7 35 C 24.74 34.95 22.6 35 22.6 35 L 22.6 42.6 Z M 31.3 35.2 L 31.3 33.8 L 32.5 33.8 L 32.5 35.2 L 31.3 35.2 Z M 31.3 43.8 L 31.3 36.5 L 32.5 36.5 L 32.5 43.8 L 31.3 43.8 Z M 34.1 44.4 C 34.1 44.4 35.3 44.6 35.3 44.6 C 35.4 44.9 35.5 45.2 35.8 45.4 C 36.1 45.6 36.5 45.7 37 45.7 C 37.6 45.7 38 45.6 38.3 45.4 C 38.6 45.2 38.8 44.8 39 44.4 C 39 44.2 39.1 43.6 39 42.8 C 38.5 43.5 37.8 43.8 37 43.8 C 36 43.8 35.3 43.4 34.7 42.7 C 34.2 42 33.9 41.1 33.9 40.1 C 33.9 39.4 34 38.8 34.3 38.2 C 34.5 37.6 34.9 37.2 35.4 36.8 C 35.8 36.5 36.4 36.4 37 36.4 C 37.9 36.4 38.6 36.7 39.2 37.4 C 39.16 37.41 39.2 36.5 39.2 36.5 L 40.3 36.5 C 40.3 36.5 40.3 42.81 40.3 42.8 C 40.3 43.9 40.2 44.7 40 45.2 C 39.7 45.7 39.4 46.1 38.9 46.3 C 38.4 46.6 37.7 46.7 37 46.7 C 36.2 46.7 35.5 46.5 34.9 46.2 C 34.4 45.8 34.1 45.2 34.1 44.4 Z M 35.2 40 C 35.2 41 35.4 41.7 35.7 42.1 C 36.1 42.6 36.6 42.8 37.2 42.8 C 37.7 42.8 38.2 42.6 38.6 42.1 C 39 41.7 39.1 41 39.1 40.1 C 39.1 39.2 39 38.5 38.6 38.1 C 38.2 37.6 37.7 37.4 37.1 37.4 C 36.6 37.4 36.1 37.6 35.7 38.1 C 35.4 38.5 35.2 39.2 35.2 40 Z M 42.2 35.2 L 42.2 33.8 L 43.4 33.8 L 43.4 35.2 L 42.2 35.2 Z M 42.2 43.8 L 42.2 36.5 L 43.4 36.5 L 43.4 43.8 L 42.2 43.8 Z M 47.4 42.7 C 47.6 42.7 47.7 42.7 48 42.7 C 48 42.7 48.1 43.8 48.1 43.8 C 47.8 43.9 47.5 43.9 47.2 43.9 C 46.8 43.9 46.4 43.8 46.2 43.7 C 45.9 43.5 45.7 43.3 45.6 43.1 C 45.5 42.9 45.5 42.4 45.5 41.7 C 45.49 41.67 45.5 37.5 45.5 37.5 L 44.6 37.5 L 44.6 36.5 L 45.5 36.5 L 45.5 34.7 L 46.7 34 L 46.7 36.5 L 48 36.5 L 48 37.5 L 46.7 37.5 C 46.7 37.5 46.72 41.73 46.7 41.7 C 46.7 42.1 46.7 42.3 46.8 42.4 C 46.8 42.5 46.9 42.6 47 42.7 C 47.1 42.7 47.2 42.7 47.4 42.7 C 47.4 42.7 47.4 42.7 47.4 42.7 Z M 54.1 43.8 C 54 43.5 53.9 43.2 53.9 42.9 C 53.4 43.3 53 43.6 52.6 43.7 C 52.2 43.9 51.7 44 51.2 44 C 50.4 44 49.8 43.8 49.4 43.4 C 49 43 48.7 42.5 48.7 41.9 C 48.7 41.5 48.8 41.2 49 40.9 C 49.1 40.6 49.4 40.4 49.6 40.2 C 49.9 40 50.2 39.9 50.5 39.8 C 50.7 39.7 51.1 39.7 51.6 39.6 C 52.6 39.5 53.3 39.3 53.8 39.2 C 53.8 39 53.8 38.9 53.8 38.9 C 53.8 38.4 53.7 38 53.5 37.8 C 53.1 37.5 52.7 37.4 52 37.4 C 51.5 37.4 51 37.5 50.8 37.7 C 50.5 37.9 50.3 38.3 50.2 38.8 C 50.2 38.8 49 38.6 49 38.6 C 49.1 38.1 49.2 37.7 49.5 37.4 C 49.7 37 50.1 36.8 50.6 36.6 C 51.1 36.5 51.6 36.4 52.2 36.4 C 52.8 36.4 53.3 36.4 53.7 36.6 C 54.1 36.7 54.4 36.9 54.6 37.1 C 54.8 37.4 54.9 37.6 55 38 C 55 38.2 55 38.6 55 39.1 C 55 39.1 55 40.8 55 40.8 C 55 41.9 55.1 42.6 55.1 42.9 C 55.2 43.2 55.3 43.5 55.4 43.8 C 55.43 43.79 54.1 43.8 54.1 43.8 C 54.1 43.8 54.14 43.79 54.1 43.8 Z M 53.8 40.1 C 53.3 40.3 52.7 40.5 51.8 40.6 C 51.3 40.7 50.9 40.8 50.7 40.9 C 50.5 41 50.3 41.1 50.2 41.3 C 50.1 41.4 50.1 41.6 50.1 41.8 C 50.1 42.2 50.2 42.4 50.4 42.7 C 50.7 42.9 51 43 51.5 43 C 52 43 52.4 42.9 52.8 42.7 C 53.1 42.5 53.4 42.2 53.6 41.8 C 53.7 41.6 53.8 41.1 53.8 40.6 C 53.8 40.6 53.8 40.1 53.8 40.1 Z M 56.9 43.8 L 56.9 33.8 L 58.1 33.8 L 58.1 43.8 L 56.9 43.8 Z M 63.6 40.6 C 63.6 40.6 64.9 40.5 64.9 40.5 C 65 41 65.1 41.4 65.3 41.7 C 65.5 42 65.9 42.3 66.3 42.5 C 66.8 42.7 67.3 42.8 67.9 42.8 C 68.4 42.8 68.8 42.7 69.2 42.5 C 69.6 42.4 69.9 42.2 70.1 41.9 C 70.3 41.7 70.3 41.4 70.3 41.1 C 70.3 40.8 70.3 40.5 70.1 40.2 C 69.9 40 69.6 39.8 69.2 39.7 C 68.9 39.6 68.3 39.4 67.4 39.2 C 66.5 38.9 65.8 38.7 65.5 38.5 C 65 38.3 64.6 38 64.4 37.6 C 64.1 37.2 64 36.8 64 36.4 C 64 35.9 64.2 35.4 64.5 34.9 C 64.8 34.5 65.2 34.2 65.7 33.9 C 66.3 33.7 66.9 33.6 67.6 33.6 C 68.3 33.6 69 33.7 69.5 34 C 70.1 34.2 70.5 34.6 70.8 35 C 71.1 35.5 71.3 36 71.3 36.6 C 71.3 36.6 70.1 36.7 70.1 36.7 C 70 36.1 69.8 35.6 69.4 35.3 C 69 34.9 68.4 34.8 67.6 34.8 C 66.8 34.8 66.2 34.9 65.9 35.2 C 65.5 35.5 65.3 35.9 65.3 36.3 C 65.3 36.6 65.4 36.9 65.7 37.2 C 66 37.4 66.6 37.6 67.7 37.9 C 68.8 38.1 69.5 38.3 69.9 38.5 C 70.5 38.8 70.9 39.1 71.2 39.5 C 71.5 39.9 71.6 40.4 71.6 41 C 71.6 41.5 71.5 42 71.2 42.5 C 70.9 42.9 70.4 43.3 69.9 43.6 C 69.3 43.8 68.6 44 67.9 44 C 67 44 66.3 43.8 65.6 43.6 C 65 43.3 64.5 42.9 64.2 42.4 C 63.9 41.8 63.7 41.2 63.6 40.6 Z M 78 43.8 C 78 43.8 78.04 42.73 78 42.7 C 77.5 43.5 76.7 44 75.7 44 C 75.3 44 74.9 43.9 74.5 43.7 C 74.2 43.5 73.9 43.3 73.7 43.1 C 73.5 42.8 73.4 42.5 73.3 42.2 C 73.3 41.9 73.3 41.6 73.3 41 C 73.25 41.03 73.3 36.5 73.3 36.5 L 74.5 36.5 C 74.5 36.5 74.48 40.56 74.5 40.6 C 74.5 41.2 74.5 41.6 74.6 41.9 C 74.6 42.2 74.8 42.4 75.1 42.6 C 75.3 42.8 75.6 42.9 76 42.9 C 76.4 42.9 76.7 42.8 77 42.6 C 77.3 42.4 77.6 42.2 77.7 41.8 C 77.8 41.5 77.9 41 77.9 40.4 C 77.91 40.42 77.9 36.5 77.9 36.5 L 79.1 36.5 L 79.1 43.8 L 78 43.8 Z M 81.1 46.6 L 81.1 36.5 L 82.2 36.5 C 82.2 36.5 82.19 37.48 82.2 37.5 C 82.5 37.1 82.8 36.8 83.1 36.6 C 83.4 36.5 83.8 36.4 84.3 36.4 C 84.9 36.4 85.5 36.5 85.9 36.8 C 86.4 37.2 86.8 37.6 87 38.2 C 87.2 38.8 87.4 39.4 87.4 40.1 C 87.4 40.9 87.2 41.5 87 42.1 C 86.7 42.7 86.3 43.2 85.8 43.5 C 85.3 43.8 84.8 44 84.2 44 C 83.8 44 83.4 43.9 83.1 43.7 C 82.8 43.5 82.5 43.3 82.3 43 C 82.3 43.04 82.3 46.6 82.3 46.6 L 81.1 46.6 Z M 82.2 40.2 C 82.2 41.1 82.4 41.8 82.7 42.3 C 83.1 42.7 83.6 42.9 84.1 42.9 C 84.7 42.9 85.1 42.7 85.5 42.3 C 85.9 41.8 86.1 41.1 86.1 40.1 C 86.1 39.2 85.9 38.5 85.5 38 C 85.2 37.6 84.7 37.3 84.2 37.3 C 83.7 37.3 83.2 37.6 82.8 38.1 C 82.4 38.6 82.2 39.3 82.2 40.2 Z M 88.9 46.6 L 88.9 36.5 L 90 36.5 C 90 36.5 89.97 37.48 90 37.5 C 90.2 37.1 90.5 36.8 90.9 36.6 C 91.2 36.5 91.6 36.4 92.1 36.4 C 92.7 36.4 93.2 36.5 93.7 36.8 C 94.2 37.2 94.6 37.6 94.8 38.2 C 95 38.8 95.2 39.4 95.2 40.1 C 95.2 40.9 95 41.5 94.8 42.1 C 94.5 42.7 94.1 43.2 93.6 43.5 C 93.1 43.8 92.6 44 92 44 C 91.6 44 91.2 43.9 90.9 43.7 C 90.6 43.5 90.3 43.3 90.1 43 C 90.08 43.04 90.1 46.6 90.1 46.6 L 88.9 46.6 Z M 90 40.2 C 90 41.1 90.2 41.8 90.5 42.3 C 90.9 42.7 91.4 42.9 91.9 42.9 C 92.5 42.9 92.9 42.7 93.3 42.3 C 93.7 41.8 93.9 41.1 93.9 40.1 C 93.9 39.2 93.7 38.5 93.3 38 C 92.9 37.6 92.5 37.3 92 37.3 C 91.4 37.3 91 37.6 90.6 38.1 C 90.2 38.6 90 39.3 90 40.2 Z M 96.2 40.2 C 96.2 38.8 96.6 37.8 97.3 37.2 C 97.9 36.6 98.7 36.4 99.6 36.4 C 100.6 36.4 101.4 36.7 102 37.3 C 102.7 38 103 38.9 103 40.1 C 103 41 102.8 41.7 102.6 42.3 C 102.3 42.8 101.9 43.2 101.3 43.5 C 100.8 43.8 100.2 44 99.6 44 C 98.6 44 97.7 43.6 97.1 43 C 96.5 42.3 96.2 41.4 96.2 40.2 Z M 97.4 40.2 C 97.4 41.1 97.6 41.8 98.1 42.3 C 98.5 42.7 99 42.9 99.6 42.9 C 100.2 42.9 100.7 42.7 101.1 42.2 C 101.5 41.8 101.7 41.1 101.7 40.1 C 101.7 39.2 101.5 38.5 101.1 38.1 C 100.7 37.6 100.2 37.4 99.6 37.4 C 99 37.4 98.5 37.6 98.1 38.1 C 97.6 38.5 97.4 39.2 97.4 40.2 Z M 104.4 43.8 L 104.4 36.5 L 105.5 36.5 C 105.5 36.5 105.52 37.63 105.5 37.6 C 105.8 37.1 106.1 36.8 106.3 36.6 C 106.5 36.5 106.8 36.4 107.1 36.4 C 107.5 36.4 107.9 36.5 108.4 36.8 C 108.4 36.8 107.9 37.9 107.9 37.9 C 107.6 37.7 107.3 37.6 107 37.6 C 106.8 37.6 106.5 37.7 106.3 37.9 C 106.1 38 105.9 38.3 105.8 38.6 C 105.7 39 105.6 39.5 105.6 40 C 105.64 39.99 105.6 43.8 105.6 43.8 L 104.4 43.8 Z M 111.2 42.7 C 111.4 42.7 111.6 42.7 111.8 42.7 C 111.8 42.7 112 43.8 112 43.8 C 111.6 43.9 111.3 43.9 111 43.9 C 110.6 43.9 110.2 43.8 110 43.7 C 109.7 43.5 109.6 43.3 109.5 43.1 C 109.4 42.9 109.3 42.4 109.3 41.7 C 109.31 41.67 109.3 37.5 109.3 37.5 L 108.4 37.5 L 108.4 36.5 L 109.3 36.5 L 109.3 34.7 L 110.5 34 L 110.5 36.5 L 111.8 36.5 L 111.8 37.5 L 110.5 37.5 C 110.5 37.5 110.54 41.73 110.5 41.7 C 110.5 42.1 110.6 42.3 110.6 42.4 C 110.6 42.5 110.7 42.6 110.8 42.7 C 110.9 42.7 111.1 42.7 111.2 42.7 C 111.2 42.7 111.2 42.7 111.2 42.7 Z M 119.3 43.8 L 119.3 35 L 116 35 L 116 33.8 L 124 33.8 L 124 35 L 120.6 35 L 120.6 43.8 L 119.3 43.8 Z M 128.6 41.5 C 128.6 41.5 129.9 41.6 129.9 41.6 C 129.7 42.4 129.3 42.9 128.7 43.3 C 128.2 43.8 127.5 44 126.7 44 C 125.6 44 124.8 43.6 124.1 43 C 123.5 42.3 123.2 41.4 123.2 40.2 C 123.2 39 123.5 38.1 124.1 37.4 C 124.8 36.7 125.6 36.4 126.6 36.4 C 127.6 36.4 128.4 36.7 129 37.4 C 129.6 38 129.9 39 129.9 40.1 C 129.9 40.2 129.9 40.3 129.9 40.5 C 129.9 40.5 124.5 40.5 124.5 40.5 C 124.5 41.3 124.7 41.9 125.2 42.3 C 125.6 42.7 126.1 42.9 126.7 42.9 C 127.1 42.9 127.5 42.8 127.8 42.6 C 128.1 42.4 128.4 42 128.6 41.5 Z M 124.5 39.5 C 124.5 39.5 128.6 39.5 128.6 39.5 C 128.5 38.9 128.4 38.4 128.1 38.1 C 127.7 37.6 127.2 37.4 126.6 37.4 C 126 37.4 125.6 37.6 125.2 37.9 C 124.8 38.3 124.6 38.8 124.5 39.5 Z M 136.1 41.1 C 136.1 41.1 137.3 41.3 137.3 41.3 C 137.2 42.1 136.9 42.8 136.3 43.2 C 135.8 43.7 135.1 44 134.3 44 C 133.3 44 132.5 43.6 131.9 43 C 131.3 42.3 131 41.4 131 40.2 C 131 39.4 131.2 38.7 131.4 38.1 C 131.7 37.5 132.1 37.1 132.6 36.8 C 133.1 36.5 133.7 36.4 134.3 36.4 C 135.1 36.4 135.8 36.6 136.3 37 C 136.8 37.4 137.1 37.9 137.2 38.7 C 137.2 38.7 136 38.9 136 38.9 C 135.9 38.4 135.7 38 135.4 37.7 C 135.1 37.5 134.8 37.4 134.4 37.4 C 133.8 37.4 133.3 37.6 132.9 38 C 132.5 38.5 132.3 39.2 132.3 40.2 C 132.3 41.1 132.5 41.8 132.8 42.3 C 133.2 42.7 133.7 42.9 134.3 42.9 C 134.8 42.9 135.2 42.8 135.5 42.5 C 135.8 42.2 136.1 41.7 136.1 41.1 Z M 138.4 43.8 L 138.4 33.8 L 139.6 33.8 C 139.6 33.8 139.63 37.37 139.6 37.4 C 140.2 36.7 140.9 36.4 141.8 36.4 C 142.3 36.4 142.8 36.5 143.2 36.7 C 143.6 36.9 143.9 37.2 144.1 37.6 C 144.2 37.9 144.3 38.5 144.3 39.2 C 144.31 39.19 144.3 43.8 144.3 43.8 L 143.1 43.8 C 143.1 43.8 143.08 39.19 143.1 39.2 C 143.1 38.6 142.9 38.1 142.7 37.8 C 142.4 37.6 142 37.4 141.6 37.4 C 141.2 37.4 140.8 37.5 140.5 37.7 C 140.2 37.9 140 38.2 139.8 38.5 C 139.7 38.8 139.6 39.3 139.6 39.8 C 139.63 39.82 139.6 43.8 139.6 43.8 L 138.4 43.8 Z M 146.2 43.8 L 146.2 36.5 L 147.3 36.5 C 147.3 36.5 147.29 37.56 147.3 37.6 C 147.8 36.8 148.6 36.4 149.6 36.4 C 150 36.4 150.4 36.4 150.8 36.6 C 151.2 36.8 151.5 37 151.6 37.2 C 151.8 37.5 151.9 37.8 152 38.1 C 152.1 38.4 152.1 38.8 152.1 39.3 C 152.09 39.33 152.1 43.8 152.1 43.8 L 150.9 43.8 C 150.9 43.8 150.86 39.38 150.9 39.4 C 150.9 38.9 150.8 38.5 150.7 38.3 C 150.6 38 150.4 37.8 150.2 37.7 C 150 37.5 149.7 37.4 149.3 37.4 C 148.8 37.4 148.4 37.6 148 37.9 C 147.6 38.3 147.4 38.9 147.4 39.8 C 147.42 39.83 147.4 43.8 147.4 43.8 L 146.2 43.8 Z M 154 35.2 L 154 33.8 L 155.2 33.8 L 155.2 35.2 L 154 35.2 Z M 154 43.8 L 154 36.5 L 155.2 36.5 L 155.2 43.8 L 154 43.8 Z M 161.8 41.1 C 161.8 41.1 163 41.3 163 41.3 C 162.9 42.1 162.6 42.8 162 43.2 C 161.5 43.7 160.8 44 160 44 C 159 44 158.2 43.6 157.6 43 C 157 42.3 156.7 41.4 156.7 40.2 C 156.7 39.4 156.8 38.7 157.1 38.1 C 157.4 37.5 157.8 37.1 158.3 36.8 C 158.8 36.5 159.4 36.4 160 36.4 C 160.8 36.4 161.4 36.6 162 37 C 162.5 37.4 162.8 37.9 162.9 38.7 C 162.9 38.7 161.7 38.9 161.7 38.9 C 161.6 38.4 161.4 38 161.1 37.7 C 160.8 37.5 160.5 37.4 160.1 37.4 C 159.4 37.4 158.9 37.6 158.6 38 C 158.2 38.5 158 39.2 158 40.2 C 158 41.1 158.2 41.8 158.5 42.3 C 158.9 42.7 159.4 42.9 160 42.9 C 160.5 42.9 160.9 42.8 161.2 42.5 C 161.5 42.2 161.7 41.7 161.8 41.1 Z M 164.1 35.2 L 164.1 33.8 L 165.3 33.8 L 165.3 35.2 L 164.1 35.2 Z M 164.1 43.8 L 164.1 36.5 L 165.3 36.5 L 165.3 43.8 L 164.1 43.8 Z M 172.2 43.8 C 172 43.5 172 43.2 171.9 42.9 C 171.5 43.3 171 43.6 170.6 43.7 C 170.2 43.9 169.7 44 169.3 44 C 168.5 44 167.8 43.8 167.4 43.4 C 167 43 166.8 42.5 166.8 41.9 C 166.8 41.5 166.9 41.2 167 40.9 C 167.2 40.6 167.4 40.4 167.7 40.2 C 167.9 40 168.2 39.9 168.5 39.8 C 168.8 39.7 169.1 39.7 169.6 39.6 C 170.6 39.5 171.4 39.3 171.8 39.2 C 171.8 39 171.8 38.9 171.8 38.9 C 171.8 38.4 171.7 38 171.5 37.8 C 171.2 37.5 170.7 37.4 170.1 37.4 C 169.5 37.4 169.1 37.5 168.8 37.7 C 168.5 37.9 168.3 38.3 168.2 38.8 C 168.2 38.8 167 38.6 167 38.6 C 167.1 38.1 167.3 37.7 167.5 37.4 C 167.8 37 168.1 36.8 168.6 36.6 C 169.1 36.5 169.6 36.4 170.3 36.4 C 170.9 36.4 171.4 36.4 171.8 36.6 C 172.2 36.7 172.4 36.9 172.6 37.1 C 172.8 37.4 172.9 37.6 173 38 C 173.1 38.2 173.1 38.6 173.1 39.1 C 173.1 39.1 173.1 40.8 173.1 40.8 C 173.1 41.9 173.1 42.6 173.2 42.9 C 173.2 43.2 173.3 43.5 173.5 43.8 C 173.46 43.79 172.2 43.8 172.2 43.8 C 172.2 43.8 172.18 43.79 172.2 43.8 Z M 171.8 40.1 C 171.4 40.3 170.7 40.5 169.8 40.6 C 169.3 40.7 169 40.8 168.7 40.9 C 168.5 41 168.4 41.1 168.3 41.3 C 168.1 41.4 168.1 41.6 168.1 41.8 C 168.1 42.2 168.2 42.4 168.5 42.7 C 168.7 42.9 169.1 43 169.6 43 C 170 43 170.4 42.9 170.8 42.7 C 171.2 42.5 171.5 42.2 171.6 41.8 C 171.8 41.6 171.8 41.1 171.8 40.6 C 171.8 40.6 171.8 40.1 171.8 40.1 Z M 175 43.8 L 175 36.5 L 176.1 36.5 C 176.1 36.5 176.09 37.56 176.1 37.6 C 176.6 36.8 177.4 36.4 178.4 36.4 C 178.8 36.4 179.2 36.4 179.6 36.6 C 180 36.8 180.2 37 180.4 37.2 C 180.6 37.5 180.7 37.8 180.8 38.1 C 180.9 38.4 180.9 38.8 180.9 39.3 C 180.88 39.33 180.9 43.8 180.9 43.8 L 179.6 43.8 C 179.6 43.8 179.65 39.38 179.6 39.4 C 179.6 38.9 179.6 38.5 179.5 38.3 C 179.4 38 179.2 37.8 179 37.7 C 178.8 37.5 178.5 37.4 178.1 37.4 C 177.6 37.4 177.2 37.6 176.8 37.9 C 176.4 38.3 176.2 38.9 176.2 39.8 C 176.21 39.83 176.2 43.8 176.2 43.8 L 175 43.8 Z " stroke="none" fill="#000000"/>  </g>  <g id="Polygon111881">    <path d="M 20.2 27 L 24.1 17 L 25.5 17 L 29.6 27 L 28.1 27 L 26.9 24 L 22.7 24 L 21.6 27 L 20.2 27 Z M 23.1 22.9 L 26.5 22.9 C 26.5 22.9 25.45 20.1 25.5 20.1 C 25.1 19.3 24.9 18.6 24.7 18 C 24.6 18.7 24.4 19.3 24.2 19.9 C 24.2 19.94 23.1 22.9 23.1 22.9 Z M 30.5 29.8 L 30.5 19.7 L 31.6 19.7 C 31.6 19.7 31.61 20.68 31.6 20.7 C 31.9 20.3 32.2 20 32.5 19.8 C 32.8 19.7 33.2 19.6 33.7 19.6 C 34.3 19.6 34.9 19.7 35.4 20 C 35.8 20.4 36.2 20.8 36.4 21.4 C 36.7 22 36.8 22.6 36.8 23.3 C 36.8 24.1 36.7 24.7 36.4 25.3 C 36.1 25.9 35.7 26.4 35.2 26.7 C 34.7 27 34.2 27.2 33.6 27.2 C 33.2 27.2 32.8 27.1 32.5 26.9 C 32.2 26.7 31.9 26.5 31.7 26.2 C 31.72 26.24 31.7 29.8 31.7 29.8 L 30.5 29.8 Z M 31.6 23.4 C 31.6 24.3 31.8 25 32.2 25.5 C 32.5 25.9 33 26.1 33.5 26.1 C 34.1 26.1 34.6 25.9 34.9 25.5 C 35.3 25 35.5 24.3 35.5 23.3 C 35.5 22.4 35.3 21.7 35 21.2 C 34.6 20.8 34.1 20.5 33.6 20.5 C 33.1 20.5 32.6 20.8 32.2 21.3 C 31.8 21.8 31.6 22.5 31.6 23.4 Z M 38.3 29.8 L 38.3 19.7 L 39.4 19.7 C 39.4 19.7 39.4 20.68 39.4 20.7 C 39.7 20.3 40 20 40.3 19.8 C 40.6 19.7 41 19.6 41.5 19.6 C 42.1 19.6 42.7 19.7 43.1 20 C 43.6 20.4 44 20.8 44.2 21.4 C 44.5 22 44.6 22.6 44.6 23.3 C 44.6 24.1 44.4 24.7 44.2 25.3 C 43.9 25.9 43.5 26.4 43 26.7 C 42.5 27 42 27.2 41.4 27.2 C 41 27.2 40.6 27.1 40.3 26.9 C 40 26.7 39.7 26.5 39.5 26.2 C 39.5 26.24 39.5 29.8 39.5 29.8 L 38.3 29.8 Z M 39.4 23.4 C 39.4 24.3 39.6 25 40 25.5 C 40.3 25.9 40.8 26.1 41.3 26.1 C 41.9 26.1 42.3 25.9 42.7 25.5 C 43.1 25 43.3 24.3 43.3 23.3 C 43.3 22.4 43.1 21.7 42.7 21.2 C 42.4 20.8 41.9 20.5 41.4 20.5 C 40.9 20.5 40.4 20.8 40 21.3 C 39.6 21.8 39.4 22.5 39.4 23.4 Z M 46 27 L 46 19.7 L 47.2 19.7 C 47.2 19.7 47.15 20.83 47.2 20.8 C 47.4 20.3 47.7 20 47.9 19.8 C 48.2 19.7 48.4 19.6 48.7 19.6 C 49.1 19.6 49.6 19.7 50 20 C 50 20 49.6 21.1 49.6 21.1 C 49.3 20.9 49 20.8 48.7 20.8 C 48.4 20.8 48.2 20.9 47.9 21.1 C 47.7 21.2 47.6 21.5 47.5 21.8 C 47.3 22.2 47.3 22.7 47.3 23.2 C 47.28 23.19 47.3 27 47.3 27 L 46 27 Z M 55.7 24.7 C 55.7 24.7 57 24.8 57 24.8 C 56.8 25.6 56.4 26.1 55.8 26.5 C 55.3 27 54.6 27.2 53.8 27.2 C 52.7 27.2 51.9 26.8 51.2 26.2 C 50.6 25.5 50.3 24.6 50.3 23.4 C 50.3 22.2 50.6 21.3 51.3 20.6 C 51.9 19.9 52.7 19.6 53.7 19.6 C 54.7 19.6 55.5 19.9 56.1 20.6 C 56.7 21.2 57 22.2 57 23.3 C 57 23.4 57 23.5 57 23.7 C 57 23.7 51.6 23.7 51.6 23.7 C 51.6 24.5 51.9 25.1 52.3 25.5 C 52.7 25.9 53.2 26.1 53.8 26.1 C 54.2 26.1 54.6 26 54.9 25.8 C 55.3 25.6 55.5 25.2 55.7 24.7 Z M 51.7 22.7 C 51.7 22.7 55.7 22.7 55.7 22.7 C 55.7 22.1 55.5 21.6 55.2 21.3 C 54.8 20.8 54.3 20.6 53.7 20.6 C 53.2 20.6 52.7 20.8 52.3 21.1 C 51.9 21.5 51.7 22 51.7 22.7 Z M 58.5 27 L 58.5 19.7 L 59.6 19.7 C 59.6 19.7 59.62 20.76 59.6 20.8 C 60.1 20 60.9 19.6 61.9 19.6 C 62.4 19.6 62.8 19.6 63.1 19.8 C 63.5 20 63.8 20.2 64 20.4 C 64.1 20.7 64.3 21 64.3 21.3 C 64.4 21.6 64.4 22 64.4 22.5 C 64.41 22.53 64.4 27 64.4 27 L 63.2 27 C 63.2 27 63.18 22.58 63.2 22.6 C 63.2 22.1 63.1 21.7 63 21.5 C 62.9 21.2 62.8 21 62.5 20.9 C 62.3 20.7 62 20.6 61.7 20.6 C 61.1 20.6 60.7 20.8 60.3 21.1 C 59.9 21.5 59.7 22.1 59.7 23 C 59.74 23.03 59.7 27 59.7 27 L 58.5 27 Z M 68.4 25.9 C 68.6 25.9 68.8 25.9 69 25.9 C 69 25.9 69.2 27 69.2 27 C 68.8 27.1 68.5 27.1 68.2 27.1 C 67.8 27.1 67.4 27 67.2 26.9 C 66.9 26.7 66.8 26.5 66.7 26.3 C 66.6 26.1 66.5 25.6 66.5 24.9 C 66.52 24.87 66.5 20.7 66.5 20.7 L 65.6 20.7 L 65.6 19.7 L 66.5 19.7 L 66.5 17.9 L 67.7 17.2 L 67.7 19.7 L 69 19.7 L 69 20.7 L 67.7 20.7 C 67.7 20.7 67.74 24.93 67.7 24.9 C 67.7 25.3 67.8 25.5 67.8 25.6 C 67.9 25.7 67.9 25.8 68 25.9 C 68.1 25.9 68.3 25.9 68.4 25.9 C 68.4 25.9 68.4 25.9 68.4 25.9 Z M 70.2 18.4 L 70.2 17 L 71.4 17 L 71.4 18.4 L 70.2 18.4 Z M 70.2 27 L 70.2 19.7 L 71.4 19.7 L 71.4 27 L 70.2 27 Z M 78 24.3 C 78 24.3 79.2 24.5 79.2 24.5 C 79.1 25.3 78.8 26 78.2 26.4 C 77.7 26.9 77 27.2 76.2 27.2 C 75.2 27.2 74.4 26.8 73.8 26.2 C 73.2 25.5 72.9 24.6 72.9 23.4 C 72.9 22.6 73 21.9 73.3 21.3 C 73.6 20.7 74 20.3 74.5 20 C 75 19.7 75.6 19.6 76.2 19.6 C 77 19.6 77.7 19.8 78.2 20.2 C 78.7 20.6 79 21.1 79.1 21.9 C 79.1 21.9 77.9 22 77.9 22 C 77.8 21.6 77.6 21.2 77.3 20.9 C 77 20.7 76.7 20.6 76.3 20.6 C 75.7 20.6 75.2 20.8 74.8 21.2 C 74.4 21.7 74.2 22.4 74.2 23.4 C 74.2 24.3 74.4 25 74.7 25.5 C 75.1 25.9 75.6 26.1 76.2 26.1 C 76.7 26.1 77.1 26 77.4 25.7 C 77.7 25.4 77.9 24.9 78 24.3 Z M 85.3 24.7 C 85.3 24.7 86.5 24.8 86.5 24.8 C 86.3 25.6 86 26.1 85.4 26.5 C 84.9 27 84.2 27.2 83.3 27.2 C 82.3 27.2 81.4 26.8 80.8 26.2 C 80.2 25.5 79.9 24.6 79.9 23.4 C 79.9 22.2 80.2 21.3 80.8 20.6 C 81.5 19.9 82.3 19.6 83.3 19.6 C 84.2 19.6 85 19.9 85.7 20.6 C 86.3 21.2 86.6 22.2 86.6 23.3 C 86.6 23.4 86.6 23.5 86.6 23.7 C 86.6 23.7 81.2 23.7 81.2 23.7 C 81.2 24.5 81.4 25.1 81.8 25.5 C 82.2 25.9 82.7 26.1 83.4 26.1 C 83.8 26.1 84.2 26 84.5 25.8 C 84.8 25.6 85.1 25.2 85.3 24.7 Z M 81.2 22.7 C 81.2 22.7 85.3 22.7 85.3 22.7 C 85.2 22.1 85.1 21.6 84.8 21.3 C 84.4 20.8 83.9 20.6 83.3 20.6 C 82.7 20.6 82.2 20.8 81.9 21.1 C 81.5 21.5 81.3 22 81.2 22.7 Z M 87.6 24.8 C 87.6 24.8 88.8 24.6 88.8 24.6 C 88.9 25.1 89.1 25.5 89.4 25.8 C 89.7 26 90.1 26.1 90.7 26.1 C 91.3 26.1 91.7 26 91.9 25.8 C 92.2 25.6 92.4 25.3 92.4 25 C 92.4 24.7 92.2 24.5 92 24.3 C 91.8 24.2 91.4 24.1 90.7 23.9 C 89.8 23.7 89.2 23.5 88.9 23.3 C 88.5 23.2 88.2 22.9 88.1 22.6 C 87.9 22.3 87.8 22 87.8 21.7 C 87.8 21.3 87.9 21 88 20.8 C 88.2 20.5 88.4 20.3 88.6 20.1 C 88.8 19.9 89.1 19.8 89.4 19.7 C 89.7 19.6 90.1 19.6 90.5 19.6 C 91 19.6 91.5 19.7 92 19.8 C 92.4 20 92.7 20.2 92.9 20.5 C 93.1 20.8 93.3 21.1 93.3 21.6 C 93.3 21.6 92.1 21.8 92.1 21.8 C 92.1 21.4 91.9 21.1 91.7 20.9 C 91.4 20.7 91 20.6 90.6 20.6 C 90 20.6 89.6 20.7 89.3 20.9 C 89.1 21 89 21.3 89 21.5 C 89 21.7 89 21.8 89.1 21.9 C 89.2 22.1 89.4 22.2 89.6 22.3 C 89.7 22.3 90.1 22.4 90.7 22.6 C 91.6 22.8 92.2 23 92.5 23.2 C 92.9 23.3 93.1 23.5 93.3 23.8 C 93.5 24.1 93.6 24.4 93.6 24.9 C 93.6 25.3 93.5 25.7 93.3 26 C 93 26.4 92.7 26.7 92.2 26.9 C 91.8 27.1 91.3 27.2 90.7 27.2 C 89.7 27.2 89 27 88.5 26.6 C 88 26.2 87.7 25.6 87.6 24.8 Z M 95.1 27 L 95.1 17 L 96.3 17 C 96.3 17 96.31 20.57 96.3 20.6 C 96.9 19.9 97.6 19.6 98.5 19.6 C 99 19.6 99.5 19.7 99.9 19.9 C 100.3 20.1 100.6 20.4 100.7 20.8 C 100.9 21.1 101 21.7 101 22.4 C 100.99 22.39 101 27 101 27 L 99.8 27 C 99.8 27 99.76 22.39 99.8 22.4 C 99.8 21.8 99.6 21.3 99.4 21 C 99.1 20.8 98.7 20.6 98.2 20.6 C 97.9 20.6 97.5 20.7 97.2 20.9 C 96.9 21.1 96.7 21.4 96.5 21.7 C 96.4 22 96.3 22.5 96.3 23 C 96.31 23.02 96.3 27 96.3 27 L 95.1 27 Z M 102.9 18.4 L 102.9 17 L 104.1 17 L 104.1 18.4 L 102.9 18.4 Z M 102.9 27 L 102.9 19.7 L 104.1 19.7 L 104.1 27 L 102.9 27 Z M 106 29.8 L 106 19.7 L 107.1 19.7 C 107.1 19.7 107.1 20.68 107.1 20.7 C 107.4 20.3 107.7 20 108 19.8 C 108.3 19.7 108.7 19.6 109.2 19.6 C 109.8 19.6 110.4 19.7 110.8 20 C 111.3 20.4 111.7 20.8 111.9 21.4 C 112.2 22 112.3 22.6 112.3 23.3 C 112.3 24.1 112.1 24.7 111.9 25.3 C 111.6 25.9 111.2 26.4 110.7 26.7 C 110.2 27 109.7 27.2 109.1 27.2 C 108.7 27.2 108.3 27.1 108 26.9 C 107.7 26.7 107.4 26.5 107.2 26.2 C 107.21 26.24 107.2 29.8 107.2 29.8 L 106 29.8 Z M 107.1 23.4 C 107.1 24.3 107.3 25 107.7 25.5 C 108 25.9 108.5 26.1 109 26.1 C 109.6 26.1 110 25.9 110.4 25.5 C 110.8 25 111 24.3 111 23.3 C 111 22.4 110.8 21.7 110.5 21.2 C 110.1 20.8 109.6 20.5 109.1 20.5 C 108.6 20.5 108.1 20.8 107.7 21.3 C 107.3 21.8 107.1 22.5 107.1 23.4 Z " stroke="none" fill="#000"/>  </g>  <g id="Polygon111880">    <path d="M 1.1 10.2 L 1.1 0.3 L 3.1 0.3 L 3.1 8.5 L 8.1 8.5 L 8.1 10.2 L 1.1 10.2 Z M 15.6 8.4 L 15.6 10.2 C 15.6 10.2 8.9 10.19 8.9 10.2 C 9 9.5 9.2 8.9 9.6 8.3 C 9.9 7.7 10.6 6.9 11.7 5.9 C 12.6 5.1 13.1 4.5 13.3 4.2 C 13.6 3.8 13.7 3.4 13.7 3.1 C 13.7 2.6 13.6 2.3 13.4 2.1 C 13.1 1.8 12.8 1.7 12.4 1.7 C 12 1.7 11.7 1.8 11.5 2.1 C 11.2 2.3 11.1 2.7 11 3.3 C 11 3.3 9.1 3.1 9.1 3.1 C 9.2 2 9.6 1.3 10.2 0.8 C 10.8 0.4 11.6 0.1 12.5 0.1 C 13.4 0.1 14.2 0.4 14.8 0.9 C 15.4 1.5 15.6 2.1 15.6 2.9 C 15.6 3.4 15.6 3.8 15.4 4.2 C 15.2 4.6 15 5 14.6 5.5 C 14.4 5.8 14 6.2 13.4 6.8 C 12.8 7.3 12.4 7.7 12.2 7.9 C 12.1 8.1 11.9 8.2 11.8 8.4 C 11.82 8.41 15.6 8.4 15.6 8.4 Z M 20.9 7 C 20.9 7 22.1 6.9 22.1 6.9 C 22.2 7.4 22.3 7.8 22.5 8.1 C 22.7 8.4 23.1 8.7 23.5 8.9 C 24 9.1 24.5 9.2 25.1 9.2 C 25.6 9.2 26 9.1 26.4 8.9 C 26.8 8.8 27.1 8.6 27.3 8.3 C 27.5 8.1 27.6 7.8 27.6 7.5 C 27.6 7.2 27.5 6.9 27.3 6.6 C 27.1 6.4 26.8 6.2 26.4 6.1 C 26.1 6 25.5 5.8 24.6 5.6 C 23.7 5.3 23 5.1 22.7 4.9 C 22.2 4.7 21.8 4.4 21.6 4 C 21.4 3.6 21.2 3.2 21.2 2.8 C 21.2 2.3 21.4 1.8 21.7 1.3 C 22 0.9 22.4 0.6 22.9 0.3 C 23.5 0.1 24.1 0 24.8 0 C 25.5 0 26.2 0.1 26.7 0.4 C 27.3 0.6 27.7 1 28 1.4 C 28.3 1.9 28.5 2.4 28.5 3 C 28.5 3 27.3 3.1 27.3 3.1 C 27.2 2.5 27 2 26.6 1.7 C 26.2 1.3 25.6 1.2 24.8 1.2 C 24 1.2 23.4 1.3 23.1 1.6 C 22.7 1.9 22.5 2.3 22.5 2.7 C 22.5 3 22.6 3.3 22.9 3.6 C 23.2 3.8 23.8 4 24.9 4.3 C 26 4.5 26.7 4.7 27.1 4.9 C 27.7 5.2 28.1 5.5 28.4 5.9 C 28.7 6.3 28.8 6.8 28.8 7.4 C 28.8 7.9 28.7 8.4 28.4 8.9 C 28.1 9.3 27.6 9.7 27.1 10 C 26.5 10.2 25.8 10.4 25.1 10.4 C 24.2 10.4 23.5 10.2 22.8 10 C 22.2 9.7 21.8 9.3 21.4 8.8 C 21.1 8.2 20.9 7.6 20.9 7 Z M 30 6.6 C 30 5.2 30.4 4.2 31.2 3.6 C 31.8 3 32.5 2.8 33.4 2.8 C 34.4 2.8 35.2 3.1 35.9 3.7 C 36.5 4.4 36.8 5.3 36.8 6.5 C 36.8 7.4 36.7 8.1 36.4 8.7 C 36.1 9.2 35.7 9.6 35.2 9.9 C 34.7 10.2 34.1 10.4 33.4 10.4 C 32.4 10.4 31.6 10 31 9.4 C 30.3 8.7 30 7.8 30 6.6 Z M 31.3 6.6 C 31.3 7.5 31.5 8.2 31.9 8.7 C 32.3 9.1 32.8 9.3 33.4 9.3 C 34 9.3 34.6 9.1 35 8.6 C 35.4 8.2 35.6 7.5 35.6 6.5 C 35.6 5.6 35.4 4.9 35 4.5 C 34.5 4 34 3.8 33.4 3.8 C 32.8 3.8 32.3 4 31.9 4.5 C 31.5 4.9 31.3 5.6 31.3 6.6 Z M 38.6 10.2 L 38.6 3.9 L 37.5 3.9 L 37.5 2.9 L 38.6 2.9 C 38.6 2.9 38.57 2.16 38.6 2.2 C 38.6 1.7 38.6 1.3 38.7 1.1 C 38.8 0.8 39 0.5 39.3 0.3 C 39.6 0.1 40 0 40.6 0 C 40.9 0 41.3 0 41.7 0.1 C 41.7 0.1 41.5 1.2 41.5 1.2 C 41.3 1.2 41 1.1 40.8 1.1 C 40.4 1.1 40.2 1.2 40 1.4 C 39.9 1.5 39.8 1.8 39.8 2.3 C 39.79 2.26 39.8 2.9 39.8 2.9 L 41.2 2.9 L 41.2 3.9 L 39.8 3.9 L 39.8 10.2 L 38.6 10.2 Z M 44.3 9.1 C 44.4 9.1 44.6 9.1 44.9 9.1 C 44.9 9.1 45 10.2 45 10.2 C 44.7 10.3 44.4 10.3 44.1 10.3 C 43.7 10.3 43.3 10.2 43.1 10.1 C 42.8 9.9 42.6 9.7 42.5 9.5 C 42.4 9.3 42.4 8.8 42.4 8.1 C 42.39 8.07 42.4 3.9 42.4 3.9 L 41.5 3.9 L 41.5 2.9 L 42.4 2.9 L 42.4 1.1 L 43.6 0.4 L 43.6 2.9 L 44.9 2.9 L 44.9 3.9 L 43.6 3.9 C 43.6 3.9 43.61 8.13 43.6 8.1 C 43.6 8.5 43.6 8.7 43.7 8.8 C 43.7 8.9 43.8 9 43.9 9.1 C 44 9.1 44.1 9.1 44.3 9.1 C 44.3 9.1 44.3 9.1 44.3 9.1 Z M 47.4 10.2 L 45.2 2.9 L 46.4 2.9 L 47.6 7.1 C 47.6 7.1 48.03 8.68 48 8.7 C 48 8.6 48.2 8.1 48.4 7.2 C 48.41 7.18 49.6 2.9 49.6 2.9 L 50.8 2.9 L 51.9 7.1 L 52.3 8.5 L 52.7 7.1 L 53.9 2.9 L 55.1 2.9 L 52.9 10.2 L 51.6 10.2 L 50.4 5.8 L 50.1 4.6 L 48.7 10.2 L 47.4 10.2 Z M 61.1 10.2 C 61 9.9 60.9 9.6 60.9 9.3 C 60.4 9.7 60 10 59.6 10.1 C 59.2 10.3 58.7 10.4 58.2 10.4 C 57.4 10.4 56.8 10.2 56.4 9.8 C 56 9.4 55.7 8.9 55.7 8.3 C 55.7 7.9 55.8 7.6 56 7.3 C 56.2 7 56.4 6.8 56.6 6.6 C 56.9 6.4 57.2 6.3 57.5 6.2 C 57.8 6.1 58.1 6.1 58.6 6 C 59.6 5.9 60.3 5.7 60.8 5.6 C 60.8 5.4 60.8 5.3 60.8 5.3 C 60.8 4.8 60.7 4.4 60.5 4.2 C 60.1 3.9 59.7 3.8 59.1 3.8 C 58.5 3.8 58 3.9 57.8 4.1 C 57.5 4.3 57.3 4.7 57.2 5.2 C 57.2 5.2 56 5 56 5 C 56.1 4.5 56.2 4.1 56.5 3.8 C 56.7 3.4 57.1 3.2 57.6 3 C 58.1 2.9 58.6 2.8 59.2 2.8 C 59.9 2.8 60.4 2.8 60.7 3 C 61.1 3.1 61.4 3.3 61.6 3.5 C 61.8 3.8 61.9 4 62 4.4 C 62 4.6 62 5 62 5.5 C 62 5.5 62 7.2 62 7.2 C 62 8.3 62.1 9 62.1 9.3 C 62.2 9.6 62.3 9.9 62.4 10.2 C 62.43 10.19 61.1 10.2 61.1 10.2 C 61.1 10.2 61.15 10.19 61.1 10.2 Z M 60.8 6.5 C 60.4 6.7 59.7 6.9 58.8 7 C 58.3 7.1 57.9 7.2 57.7 7.3 C 57.5 7.4 57.3 7.5 57.2 7.7 C 57.1 7.8 57.1 8 57.1 8.2 C 57.1 8.6 57.2 8.8 57.4 9.1 C 57.7 9.3 58 9.4 58.5 9.4 C 59 9.4 59.4 9.3 59.8 9.1 C 60.2 8.9 60.4 8.6 60.6 8.2 C 60.7 8 60.8 7.5 60.8 7 C 60.8 7 60.8 6.5 60.8 6.5 Z M 63.9 10.2 L 63.9 2.9 L 65 2.9 C 65 2.9 65.04 4.03 65 4 C 65.3 3.5 65.6 3.2 65.8 3 C 66.1 2.9 66.3 2.8 66.6 2.8 C 67 2.8 67.5 2.9 67.9 3.2 C 67.9 3.2 67.5 4.3 67.5 4.3 C 67.2 4.1 66.9 4 66.6 4 C 66.3 4 66 4.1 65.8 4.3 C 65.6 4.4 65.5 4.7 65.4 5 C 65.2 5.4 65.2 5.9 65.2 6.4 C 65.17 6.39 65.2 10.2 65.2 10.2 L 63.9 10.2 Z M 73.6 7.9 C 73.6 7.9 74.9 8 74.9 8 C 74.7 8.8 74.3 9.3 73.7 9.7 C 73.2 10.2 72.5 10.4 71.7 10.4 C 70.6 10.4 69.8 10 69.1 9.4 C 68.5 8.7 68.2 7.8 68.2 6.6 C 68.2 5.4 68.5 4.5 69.1 3.8 C 69.8 3.1 70.6 2.8 71.6 2.8 C 72.6 2.8 73.4 3.1 74 3.8 C 74.6 4.4 74.9 5.4 74.9 6.5 C 74.9 6.6 74.9 6.7 74.9 6.9 C 74.9 6.9 69.5 6.9 69.5 6.9 C 69.5 7.7 69.7 8.3 70.2 8.7 C 70.6 9.1 71.1 9.3 71.7 9.3 C 72.1 9.3 72.5 9.2 72.8 9 C 73.1 8.8 73.4 8.4 73.6 7.9 Z M 69.5 5.9 C 69.5 5.9 73.6 5.9 73.6 5.9 C 73.5 5.3 73.4 4.8 73.1 4.5 C 72.7 4 72.2 3.8 71.6 3.8 C 71 3.8 70.6 4 70.2 4.3 C 69.8 4.7 69.6 5.2 69.5 5.9 Z M 87.6 10.4 C 87.1 10.1 86.5 9.6 86 9 C 85.6 9.5 85.2 9.8 84.7 10 C 84.2 10.3 83.7 10.4 83.1 10.4 C 82.1 10.4 81.3 10 80.7 9.3 C 80.2 8.8 80 8.1 80 7.4 C 80 6.8 80.2 6.3 80.6 5.8 C 81 5.3 81.6 4.8 82.4 4.4 C 81.9 3.9 81.6 3.5 81.5 3.2 C 81.3 2.8 81.2 2.5 81.2 2.2 C 81.2 1.6 81.5 1.1 81.9 0.7 C 82.4 0.2 83 0 83.7 0 C 84.4 0 85 0.2 85.4 0.6 C 85.8 1 86 1.6 86 2.1 C 86 3.1 85.4 3.9 84.2 4.6 C 84.2 4.6 85.9 6.9 85.9 6.9 C 86.2 6.5 86.3 6 86.4 5.5 C 86.4 5.5 87.7 5.7 87.7 5.7 C 87.5 6.6 87.2 7.3 86.8 7.9 C 87.3 8.5 87.8 9 88.4 9.4 C 88.38 9.45 87.6 10.4 87.6 10.4 C 87.6 10.4 87.55 10.42 87.6 10.4 Z M 83.5 3.8 C 84 3.5 84.4 3.2 84.6 3 C 84.7 2.7 84.8 2.5 84.8 2.2 C 84.8 1.8 84.7 1.6 84.5 1.3 C 84.2 1.1 84 1 83.7 1 C 83.3 1 83 1.1 82.8 1.3 C 82.6 1.5 82.5 1.8 82.5 2.1 C 82.5 2.3 82.5 2.4 82.6 2.6 C 82.7 2.8 82.8 3 83 3.2 C 83 3.2 83.5 3.8 83.5 3.8 Z M 85.2 8 C 85.2 8 83 5.2 83 5.2 C 82.3 5.6 81.9 6 81.6 6.3 C 81.4 6.7 81.3 7 81.3 7.4 C 81.3 7.8 81.5 8.2 81.8 8.6 C 82.1 9.1 82.6 9.3 83.2 9.3 C 83.5 9.3 83.9 9.2 84.3 8.9 C 84.7 8.7 85 8.4 85.2 8 Z M 93.7 10.2 L 93.7 0.2 C 93.7 0.2 97.13 0.17 97.1 0.2 C 97.9 0.2 98.5 0.2 98.9 0.3 C 99.5 0.4 100 0.7 100.4 1 C 100.9 1.5 101.3 2 101.6 2.7 C 101.8 3.4 102 4.2 102 5.1 C 102 5.9 101.9 6.6 101.7 7.2 C 101.5 7.7 101.3 8.2 101 8.6 C 100.7 9 100.4 9.3 100.1 9.5 C 99.8 9.7 99.4 9.9 98.9 10 C 98.4 10.1 97.9 10.2 97.3 10.2 C 97.29 10.19 93.7 10.2 93.7 10.2 Z M 95 9 C 95 9 97.14 9.01 97.1 9 C 97.8 9 98.3 8.9 98.7 8.8 C 99.1 8.7 99.4 8.5 99.6 8.3 C 99.9 8 100.2 7.6 100.3 7 C 100.5 6.5 100.6 5.9 100.6 5.1 C 100.6 4.1 100.4 3.3 100.1 2.7 C 99.7 2.1 99.3 1.8 98.8 1.6 C 98.5 1.4 97.9 1.4 97.1 1.4 C 97.1 1.35 95 1.4 95 1.4 L 95 9 Z M 108.6 10.2 C 108.5 9.9 108.4 9.6 108.4 9.3 C 107.9 9.7 107.5 10 107 10.1 C 106.6 10.3 106.2 10.4 105.7 10.4 C 104.9 10.4 104.3 10.2 103.9 9.8 C 103.4 9.4 103.2 8.9 103.2 8.3 C 103.2 7.9 103.3 7.6 103.5 7.3 C 103.6 7 103.8 6.8 104.1 6.6 C 104.3 6.4 104.6 6.3 105 6.2 C 105.2 6.1 105.6 6.1 106.1 6 C 107.1 5.9 107.8 5.7 108.3 5.6 C 108.3 5.4 108.3 5.3 108.3 5.3 C 108.3 4.8 108.2 4.4 107.9 4.2 C 107.6 3.9 107.1 3.8 106.5 3.8 C 105.9 3.8 105.5 3.9 105.2 4.1 C 105 4.3 104.8 4.7 104.6 5.2 C 104.6 5.2 103.4 5 103.4 5 C 103.5 4.5 103.7 4.1 104 3.8 C 104.2 3.4 104.6 3.2 105 3 C 105.5 2.9 106.1 2.8 106.7 2.8 C 107.3 2.8 107.8 2.8 108.2 3 C 108.6 3.1 108.9 3.3 109.1 3.5 C 109.2 3.8 109.4 4 109.4 4.4 C 109.5 4.6 109.5 5 109.5 5.5 C 109.5 5.5 109.5 7.2 109.5 7.2 C 109.5 8.3 109.5 9 109.6 9.3 C 109.6 9.6 109.7 9.9 109.9 10.2 C 109.89 10.19 108.6 10.2 108.6 10.2 C 108.6 10.2 108.61 10.19 108.6 10.2 Z M 108.3 6.5 C 107.8 6.7 107.1 6.9 106.3 7 C 105.7 7.1 105.4 7.2 105.2 7.3 C 105 7.4 104.8 7.5 104.7 7.7 C 104.6 7.8 104.5 8 104.5 8.2 C 104.5 8.6 104.6 8.8 104.9 9.1 C 105.1 9.3 105.5 9.4 106 9.4 C 106.5 9.4 106.9 9.3 107.2 9.1 C 107.6 8.9 107.9 8.6 108.1 8.2 C 108.2 8 108.3 7.5 108.3 7 C 108.3 7 108.3 6.5 108.3 6.5 Z M 113.6 9.1 C 113.7 9.1 113.9 9.1 114.1 9.1 C 114.1 9.1 114.3 10.2 114.3 10.2 C 113.9 10.3 113.6 10.3 113.3 10.3 C 112.9 10.3 112.6 10.2 112.3 10.1 C 112.1 9.9 111.9 9.7 111.8 9.5 C 111.7 9.3 111.6 8.8 111.6 8.1 C 111.64 8.07 111.6 3.9 111.6 3.9 L 110.7 3.9 L 110.7 2.9 L 111.6 2.9 L 111.6 1.1 L 112.9 0.4 L 112.9 2.9 L 114.1 2.9 L 114.1 3.9 L 112.9 3.9 C 112.9 3.9 112.86 8.13 112.9 8.1 C 112.9 8.5 112.9 8.7 112.9 8.8 C 113 8.9 113 9 113.1 9.1 C 113.2 9.1 113.4 9.1 113.6 9.1 C 113.6 9.1 113.6 9.1 113.6 9.1 Z M 120.3 10.2 C 120.2 9.9 120.1 9.6 120 9.3 C 119.6 9.7 119.1 10 118.7 10.1 C 118.3 10.3 117.8 10.4 117.4 10.4 C 116.6 10.4 116 10.2 115.5 9.8 C 115.1 9.4 114.9 8.9 114.9 8.3 C 114.9 7.9 115 7.6 115.1 7.3 C 115.3 7 115.5 6.8 115.8 6.6 C 116 6.4 116.3 6.3 116.6 6.2 C 116.9 6.1 117.3 6.1 117.7 6 C 118.7 5.9 119.5 5.7 119.9 5.6 C 119.9 5.4 119.9 5.3 119.9 5.3 C 119.9 4.8 119.8 4.4 119.6 4.2 C 119.3 3.9 118.8 3.8 118.2 3.8 C 117.6 3.8 117.2 3.9 116.9 4.1 C 116.6 4.3 116.4 4.7 116.3 5.2 C 116.3 5.2 115.1 5 115.1 5 C 115.2 4.5 115.4 4.1 115.6 3.8 C 115.9 3.4 116.2 3.2 116.7 3 C 117.2 2.9 117.7 2.8 118.4 2.8 C 119 2.8 119.5 2.8 119.9 3 C 120.3 3.1 120.6 3.3 120.7 3.5 C 120.9 3.8 121 4 121.1 4.4 C 121.2 4.6 121.2 5 121.2 5.5 C 121.2 5.5 121.2 7.2 121.2 7.2 C 121.2 8.3 121.2 9 121.3 9.3 C 121.3 9.6 121.4 9.9 121.6 10.2 C 121.57 10.19 120.3 10.2 120.3 10.2 C 120.3 10.2 120.29 10.19 120.3 10.2 Z M 119.9 6.5 C 119.5 6.7 118.8 6.9 117.9 7 C 117.4 7.1 117.1 7.2 116.9 7.3 C 116.6 7.4 116.5 7.5 116.4 7.7 C 116.3 7.8 116.2 8 116.2 8.2 C 116.2 8.6 116.3 8.8 116.6 9.1 C 116.8 9.3 117.2 9.4 117.7 9.4 C 118.1 9.4 118.6 9.3 118.9 9.1 C 119.3 8.9 119.6 8.6 119.7 8.2 C 119.9 8 119.9 7.5 119.9 7 C 119.9 7 119.9 6.5 119.9 6.5 Z M 127.2 10.2 L 127.2 0.2 L 134 0.2 L 134 1.4 L 128.5 1.4 L 128.5 4.5 L 133.2 4.5 L 133.2 5.6 L 128.5 5.6 L 128.5 10.2 L 127.2 10.2 Z M 135.1 6.6 C 135.1 5.2 135.4 4.2 136.2 3.6 C 136.8 3 137.6 2.8 138.5 2.8 C 139.5 2.8 140.3 3.1 140.9 3.7 C 141.6 4.4 141.9 5.3 141.9 6.5 C 141.9 7.4 141.7 8.1 141.5 8.7 C 141.2 9.2 140.8 9.6 140.2 9.9 C 139.7 10.2 139.1 10.4 138.5 10.4 C 137.5 10.4 136.6 10 136 9.4 C 135.4 8.7 135.1 7.8 135.1 6.6 Z M 136.3 6.6 C 136.3 7.5 136.5 8.2 136.9 8.7 C 137.3 9.1 137.9 9.3 138.5 9.3 C 139.1 9.3 139.6 9.1 140 8.6 C 140.4 8.2 140.6 7.5 140.6 6.5 C 140.6 5.6 140.4 4.9 140 4.5 C 139.6 4 139.1 3.8 138.5 3.8 C 137.9 3.8 137.3 4 136.9 4.5 C 136.5 4.9 136.3 5.6 136.3 6.6 Z M 148.1 10.2 C 148.1 10.2 148.07 9.13 148.1 9.1 C 147.5 9.9 146.7 10.4 145.8 10.4 C 145.3 10.4 144.9 10.3 144.6 10.1 C 144.2 9.9 143.9 9.7 143.7 9.5 C 143.6 9.2 143.4 8.9 143.4 8.6 C 143.3 8.3 143.3 8 143.3 7.4 C 143.29 7.43 143.3 2.9 143.3 2.9 L 144.5 2.9 C 144.5 2.9 144.52 6.96 144.5 7 C 144.5 7.6 144.5 8 144.6 8.3 C 144.7 8.6 144.8 8.8 145.1 9 C 145.3 9.2 145.6 9.3 146 9.3 C 146.4 9.3 146.7 9.2 147.1 9 C 147.4 8.8 147.6 8.6 147.7 8.2 C 147.9 7.9 147.9 7.4 147.9 6.8 C 147.94 6.82 147.9 2.9 147.9 2.9 L 149.2 2.9 L 149.2 10.2 L 148.1 10.2 Z M 151.1 10.2 L 151.1 2.9 L 152.2 2.9 C 152.2 2.9 152.21 3.96 152.2 4 C 152.7 3.2 153.5 2.8 154.5 2.8 C 155 2.8 155.4 2.8 155.7 3 C 156.1 3.2 156.4 3.4 156.5 3.6 C 156.7 3.9 156.9 4.2 156.9 4.5 C 157 4.8 157 5.2 157 5.7 C 157 5.73 157 10.2 157 10.2 L 155.8 10.2 C 155.8 10.2 155.77 5.78 155.8 5.8 C 155.8 5.3 155.7 4.9 155.6 4.7 C 155.5 4.4 155.4 4.2 155.1 4.1 C 154.9 3.9 154.6 3.8 154.3 3.8 C 153.7 3.8 153.3 4 152.9 4.3 C 152.5 4.7 152.3 5.3 152.3 6.2 C 152.33 6.23 152.3 10.2 152.3 10.2 L 151.1 10.2 Z M 163.6 10.2 C 163.6 10.2 163.6 9.28 163.6 9.3 C 163.1 10 162.5 10.4 161.6 10.4 C 161 10.4 160.5 10.2 160 9.9 C 159.5 9.6 159.1 9.1 158.8 8.5 C 158.6 8 158.4 7.3 158.4 6.6 C 158.4 5.8 158.6 5.2 158.8 4.6 C 159 4 159.4 3.6 159.9 3.2 C 160.4 2.9 160.9 2.8 161.5 2.8 C 162 2.8 162.3 2.9 162.7 3 C 163 3.2 163.3 3.5 163.5 3.8 C 163.52 3.77 163.5 0.2 163.5 0.2 L 164.7 0.2 L 164.7 10.2 L 163.6 10.2 Z M 159.7 6.6 C 159.7 7.5 159.9 8.2 160.3 8.7 C 160.7 9.1 161.2 9.3 161.7 9.3 C 162.2 9.3 162.7 9.1 163.1 8.7 C 163.4 8.2 163.6 7.6 163.6 6.7 C 163.6 5.7 163.4 4.9 163 4.5 C 162.7 4 162.2 3.8 161.6 3.8 C 161.1 3.8 160.6 4 160.3 4.5 C 159.9 4.9 159.7 5.6 159.7 6.6 Z M 171.7 10.2 C 171.5 9.9 171.4 9.6 171.4 9.3 C 171 9.7 170.5 10 170.1 10.1 C 169.7 10.3 169.2 10.4 168.7 10.4 C 167.9 10.4 167.3 10.2 166.9 9.8 C 166.5 9.4 166.3 8.9 166.3 8.3 C 166.3 7.9 166.3 7.6 166.5 7.3 C 166.7 7 166.9 6.8 167.1 6.6 C 167.4 6.4 167.7 6.3 168 6.2 C 168.3 6.1 168.6 6.1 169.1 6 C 170.1 5.9 170.8 5.7 171.3 5.6 C 171.3 5.4 171.3 5.3 171.3 5.3 C 171.3 4.8 171.2 4.4 171 4.2 C 170.7 3.9 170.2 3.8 169.6 3.8 C 169 3.8 168.6 3.9 168.3 4.1 C 168 4.3 167.8 4.7 167.7 5.2 C 167.7 5.2 166.5 5 166.5 5 C 166.6 4.5 166.8 4.1 167 3.8 C 167.3 3.4 167.6 3.2 168.1 3 C 168.6 2.9 169.1 2.8 169.7 2.8 C 170.4 2.8 170.9 2.8 171.3 3 C 171.6 3.1 171.9 3.3 172.1 3.5 C 172.3 3.8 172.4 4 172.5 4.4 C 172.5 4.6 172.6 5 172.6 5.5 C 172.6 5.5 172.6 7.2 172.6 7.2 C 172.6 8.3 172.6 9 172.6 9.3 C 172.7 9.6 172.8 9.9 172.9 10.2 C 172.94 10.19 171.7 10.2 171.7 10.2 C 171.7 10.2 171.66 10.19 171.7 10.2 Z M 171.3 6.5 C 170.9 6.7 170.2 6.9 169.3 7 C 168.8 7.1 168.4 7.2 168.2 7.3 C 168 7.4 167.9 7.5 167.7 7.7 C 167.6 7.8 167.6 8 167.6 8.2 C 167.6 8.6 167.7 8.8 167.9 9.1 C 168.2 9.3 168.6 9.4 169 9.4 C 169.5 9.4 169.9 9.3 170.3 9.1 C 170.7 8.9 170.9 8.6 171.1 8.2 C 171.2 8 171.3 7.5 171.3 7 C 171.3 7 171.3 6.5 171.3 6.5 Z M 176.6 9.1 C 176.7 9.1 176.9 9.1 177.1 9.1 C 177.1 9.1 177.3 10.2 177.3 10.2 C 177 10.3 176.7 10.3 176.4 10.3 C 175.9 10.3 175.6 10.2 175.4 10.1 C 175.1 9.9 174.9 9.7 174.8 9.5 C 174.7 9.3 174.7 8.8 174.7 8.1 C 174.69 8.07 174.7 3.9 174.7 3.9 L 173.8 3.9 L 173.8 2.9 L 174.7 2.9 L 174.7 1.1 L 175.9 0.4 L 175.9 2.9 L 177.1 2.9 L 177.1 3.9 L 175.9 3.9 C 175.9 3.9 175.91 8.13 175.9 8.1 C 175.9 8.5 175.9 8.7 176 8.8 C 176 8.9 176.1 9 176.2 9.1 C 176.3 9.1 176.4 9.1 176.6 9.1 C 176.6 9.1 176.6 9.1 176.6 9.1 Z M 178.4 1.6 L 178.4 0.2 L 179.6 0.2 L 179.6 1.6 L 178.4 1.6 Z M 178.4 10.2 L 178.4 2.9 L 179.6 2.9 L 179.6 10.2 L 178.4 10.2 Z M 181 6.6 C 181 5.2 181.4 4.2 182.1 3.6 C 182.7 3 183.5 2.8 184.4 2.8 C 185.4 2.8 186.2 3.1 186.9 3.7 C 187.5 4.4 187.8 5.3 187.8 6.5 C 187.8 7.4 187.7 8.1 187.4 8.7 C 187.1 9.2 186.7 9.6 186.2 9.9 C 185.6 10.2 185 10.4 184.4 10.4 C 183.4 10.4 182.6 10 181.9 9.4 C 181.3 8.7 181 7.8 181 6.6 Z M 182.3 6.6 C 182.3 7.5 182.5 8.2 182.9 8.7 C 183.3 9.1 183.8 9.3 184.4 9.3 C 185 9.3 185.5 9.1 185.9 8.6 C 186.3 8.2 186.5 7.5 186.5 6.5 C 186.5 5.6 186.3 4.9 185.9 4.5 C 185.5 4 185 3.8 184.4 3.8 C 183.8 3.8 183.3 4 182.9 4.5 C 182.5 4.9 182.3 5.6 182.3 6.6 Z M 189.2 10.2 L 189.2 2.9 L 190.4 2.9 C 190.4 2.9 190.35 3.96 190.4 4 C 190.9 3.2 191.7 2.8 192.7 2.8 C 193.1 2.8 193.5 2.8 193.9 3 C 194.2 3.2 194.5 3.4 194.7 3.6 C 194.9 3.9 195 4.2 195.1 4.5 C 195.1 4.8 195.1 5.2 195.1 5.7 C 195.15 5.73 195.1 10.2 195.1 10.2 L 193.9 10.2 C 193.9 10.2 193.92 5.78 193.9 5.8 C 193.9 5.3 193.9 4.9 193.8 4.7 C 193.7 4.4 193.5 4.2 193.3 4.1 C 193 3.9 192.7 3.8 192.4 3.8 C 191.9 3.8 191.4 4 191 4.3 C 190.7 4.7 190.5 5.3 190.5 6.2 C 190.48 6.23 190.5 10.2 190.5 10.2 L 189.2 10.2 Z " stroke="none" fill="#000"/>  </g></svg>