<?xml version="1.0" standalone="no"?><!DOCTYPE svg PUBLIC "-//W3C//DTD SVG 1.1//EN" "http://www.w3.org/Graphics/SVG/1.1/DTD/svg11.dtd"><svg xmlns="http://www.w3.org/2000/svg" version="1.1" width="280.3px" height="40.9px" viewBox="0 -5 280.3 40.9" style="top:-5px">  <desc>L3 Data Technician L4 Data Analyst</desc>  <defs/>  <g id="Polygon111119">    <path d="M 1.1 27 L 1.1 17.1 L 3.1 17.1 L 3.1 25.3 L 8.1 25.3 L 8.1 27 L 1.1 27 Z M 12.9 27 L 12.9 25 L 8.8 25 L 8.8 23.3 L 13.2 16.9 L 14.8 16.9 L 14.8 23.3 L 16 23.3 L 16 25 L 14.8 25 L 14.8 27 L 12.9 27 Z M 12.9 23.3 L 12.9 19.9 L 10.6 23.3 L 12.9 23.3 Z M 21.3 27 L 21.3 17 C 21.3 17 24.76 16.97 24.8 17 C 25.5 17 26.1 17 26.5 17.1 C 27.1 17.2 27.6 17.5 28 17.8 C 28.5 18.3 28.9 18.8 29.2 19.5 C 29.5 20.2 29.6 21 29.6 21.9 C 29.6 22.7 29.5 23.4 29.3 24 C 29.1 24.5 28.9 25 28.6 25.4 C 28.4 25.8 28.1 26.1 27.7 26.3 C 27.4 26.5 27 26.7 26.5 26.8 C 26.1 26.9 25.5 27 24.9 27 C 24.92 26.99 21.3 27 21.3 27 Z M 22.6 25.8 C 22.6 25.8 24.77 25.81 24.8 25.8 C 25.4 25.8 26 25.7 26.3 25.6 C 26.7 25.5 27 25.3 27.2 25.1 C 27.5 24.8 27.8 24.4 28 23.8 C 28.1 23.3 28.2 22.7 28.2 21.9 C 28.2 20.9 28.1 20.1 27.7 19.5 C 27.4 18.9 26.9 18.5 26.5 18.4 C 26.1 18.2 25.5 18.2 24.7 18.2 C 24.74 18.15 22.6 18.2 22.6 18.2 L 22.6 25.8 Z M 36.2 27 C 36.1 26.7 36 26.4 36 26.1 C 35.5 26.5 35.1 26.8 34.7 26.9 C 34.3 27.1 33.8 27.2 33.3 27.2 C 32.5 27.2 31.9 27 31.5 26.6 C 31.1 26.2 30.8 25.7 30.8 25.1 C 30.8 24.7 30.9 24.4 31.1 24.1 C 31.2 23.8 31.5 23.6 31.7 23.4 C 32 23.2 32.3 23.1 32.6 23 C 32.8 22.9 33.2 22.9 33.7 22.8 C 34.7 22.7 35.4 22.5 35.9 22.4 C 35.9 22.2 35.9 22.1 35.9 22.1 C 35.9 21.6 35.8 21.2 35.6 21 C 35.2 20.7 34.8 20.6 34.2 20.6 C 33.6 20.6 33.1 20.7 32.9 20.9 C 32.6 21.1 32.4 21.5 32.3 22 C 32.3 22 31.1 21.8 31.1 21.8 C 31.2 21.3 31.3 20.9 31.6 20.6 C 31.8 20.2 32.2 20 32.7 19.8 C 33.2 19.7 33.7 19.6 34.3 19.6 C 34.9 19.6 35.5 19.6 35.8 19.8 C 36.2 19.9 36.5 20.1 36.7 20.3 C 36.9 20.6 37 20.8 37.1 21.2 C 37.1 21.4 37.1 21.8 37.1 22.3 C 37.1 22.3 37.1 24 37.1 24 C 37.1 25.1 37.2 25.8 37.2 26.1 C 37.3 26.4 37.4 26.7 37.5 27 C 37.53 26.99 36.2 27 36.2 27 C 36.2 27 36.24 26.99 36.2 27 Z M 35.9 23.3 C 35.4 23.5 34.8 23.7 33.9 23.8 C 33.4 23.9 33 24 32.8 24.1 C 32.6 24.2 32.4 24.3 32.3 24.5 C 32.2 24.6 32.2 24.8 32.2 25 C 32.2 25.4 32.3 25.6 32.5 25.9 C 32.8 26.1 33.1 26.2 33.6 26.2 C 34.1 26.2 34.5 26.1 34.9 25.9 C 35.3 25.7 35.5 25.4 35.7 25 C 35.8 24.8 35.9 24.3 35.9 23.8 C 35.9 23.8 35.9 23.3 35.9 23.3 Z M 41.2 25.9 C 41.3 25.9 41.5 25.9 41.7 25.9 C 41.7 25.9 41.9 27 41.9 27 C 41.6 27.1 41.3 27.1 41 27.1 C 40.5 27.1 40.2 27 39.9 26.9 C 39.7 26.7 39.5 26.5 39.4 26.3 C 39.3 26.1 39.3 25.6 39.3 24.9 C 39.27 24.87 39.3 20.7 39.3 20.7 L 38.4 20.7 L 38.4 19.7 L 39.3 19.7 L 39.3 17.9 L 40.5 17.2 L 40.5 19.7 L 41.7 19.7 L 41.7 20.7 L 40.5 20.7 C 40.5 20.7 40.5 24.93 40.5 24.9 C 40.5 25.3 40.5 25.5 40.6 25.6 C 40.6 25.7 40.7 25.8 40.8 25.9 C 40.9 25.9 41 25.9 41.2 25.9 C 41.2 25.9 41.2 25.9 41.2 25.9 Z M 47.9 27 C 47.8 26.7 47.7 26.4 47.7 26.1 C 47.2 26.5 46.8 26.8 46.4 26.9 C 45.9 27.1 45.5 27.2 45 27.2 C 44.2 27.2 43.6 27 43.2 26.6 C 42.7 26.2 42.5 25.7 42.5 25.1 C 42.5 24.7 42.6 24.4 42.8 24.1 C 42.9 23.8 43.1 23.6 43.4 23.4 C 43.7 23.2 44 23.1 44.3 23 C 44.5 22.9 44.9 22.9 45.4 22.8 C 46.4 22.7 47.1 22.5 47.6 22.4 C 47.6 22.2 47.6 22.1 47.6 22.1 C 47.6 21.6 47.5 21.2 47.2 21 C 46.9 20.7 46.4 20.6 45.8 20.6 C 45.2 20.6 44.8 20.7 44.5 20.9 C 44.3 21.1 44.1 21.5 43.9 22 C 43.9 22 42.7 21.8 42.7 21.8 C 42.8 21.3 43 20.9 43.3 20.6 C 43.5 20.2 43.9 20 44.4 19.8 C 44.8 19.7 45.4 19.6 46 19.6 C 46.6 19.6 47.1 19.6 47.5 19.8 C 47.9 19.9 48.2 20.1 48.4 20.3 C 48.6 20.6 48.7 20.8 48.8 21.2 C 48.8 21.4 48.8 21.8 48.8 22.3 C 48.8 22.3 48.8 24 48.8 24 C 48.8 25.1 48.8 25.8 48.9 26.1 C 48.9 26.4 49.1 26.7 49.2 27 C 49.21 26.99 47.9 27 47.9 27 C 47.9 27 47.92 26.99 47.9 27 Z M 47.6 23.3 C 47.1 23.5 46.5 23.7 45.6 23.8 C 45.1 23.9 44.7 24 44.5 24.1 C 44.3 24.2 44.1 24.3 44 24.5 C 43.9 24.6 43.8 24.8 43.8 25 C 43.8 25.4 44 25.6 44.2 25.9 C 44.5 26.1 44.8 26.2 45.3 26.2 C 45.8 26.2 46.2 26.1 46.6 25.9 C 46.9 25.7 47.2 25.4 47.4 25 C 47.5 24.8 47.6 24.3 47.6 23.8 C 47.6 23.8 47.6 23.3 47.6 23.3 Z M 52.9 27 L 56.7 17 L 58.2 17 L 62.3 27 L 60.8 27 L 59.6 24 L 55.4 24 L 54.3 27 L 52.9 27 Z M 55.8 22.9 L 59.2 22.9 C 59.2 22.9 58.14 20.1 58.1 20.1 C 57.8 19.3 57.6 18.6 57.4 18 C 57.3 18.7 57.1 19.3 56.9 19.9 C 56.89 19.94 55.8 22.9 55.8 22.9 Z M 63.2 27 L 63.2 19.7 L 64.3 19.7 C 64.3 19.7 64.29 20.76 64.3 20.8 C 64.8 20 65.6 19.6 66.6 19.6 C 67 19.6 67.4 19.6 67.8 19.8 C 68.2 20 68.4 20.2 68.6 20.4 C 68.8 20.7 68.9 21 69 21.3 C 69.1 21.6 69.1 22 69.1 22.5 C 69.08 22.53 69.1 27 69.1 27 L 67.8 27 C 67.8 27 67.85 22.58 67.8 22.6 C 67.8 22.1 67.8 21.7 67.7 21.5 C 67.6 21.2 67.4 21 67.2 20.9 C 66.9 20.7 66.7 20.6 66.3 20.6 C 65.8 20.6 65.4 20.8 65 21.1 C 64.6 21.5 64.4 22.1 64.4 23 C 64.41 23.03 64.4 27 64.4 27 L 63.2 27 Z M 75.9 27 C 75.8 26.7 75.7 26.4 75.7 26.1 C 75.2 26.5 74.8 26.8 74.4 26.9 C 74 27.1 73.5 27.2 73 27.2 C 72.2 27.2 71.6 27 71.2 26.6 C 70.8 26.2 70.5 25.7 70.5 25.1 C 70.5 24.7 70.6 24.4 70.8 24.1 C 71 23.8 71.2 23.6 71.4 23.4 C 71.7 23.2 72 23.1 72.3 23 C 72.6 22.9 72.9 22.9 73.4 22.8 C 74.4 22.7 75.1 22.5 75.6 22.4 C 75.6 22.2 75.6 22.1 75.6 22.1 C 75.6 21.6 75.5 21.2 75.3 21 C 74.9 20.7 74.5 20.6 73.9 20.6 C 73.3 20.6 72.8 20.7 72.6 20.9 C 72.3 21.1 72.1 21.5 72 22 C 72 22 70.8 21.8 70.8 21.8 C 70.9 21.3 71 20.9 71.3 20.6 C 71.5 20.2 71.9 20 72.4 19.8 C 72.9 19.7 73.4 19.6 74 19.6 C 74.7 19.6 75.2 19.6 75.5 19.8 C 75.9 19.9 76.2 20.1 76.4 20.3 C 76.6 20.6 76.7 20.8 76.8 21.2 C 76.8 21.4 76.8 21.8 76.8 22.3 C 76.8 22.3 76.8 24 76.8 24 C 76.8 25.1 76.9 25.8 76.9 26.1 C 77 26.4 77.1 26.7 77.2 27 C 77.23 26.99 75.9 27 75.9 27 C 75.9 27 75.95 26.99 75.9 27 Z M 75.6 23.3 C 75.2 23.5 74.5 23.7 73.6 23.8 C 73.1 23.9 72.7 24 72.5 24.1 C 72.3 24.2 72.1 24.3 72 24.5 C 71.9 24.6 71.9 24.8 71.9 25 C 71.9 25.4 72 25.6 72.2 25.9 C 72.5 26.1 72.8 26.2 73.3 26.2 C 73.8 26.2 74.2 26.1 74.6 25.9 C 75 25.7 75.2 25.4 75.4 25 C 75.5 24.8 75.6 24.3 75.6 23.8 C 75.6 23.8 75.6 23.3 75.6 23.3 Z M 78.7 27 L 78.7 17 L 80 17 L 80 27 L 78.7 27 Z M 82.6 29.9 C 82.4 29.9 82.1 29.9 81.8 29.8 C 81.8 29.8 81.7 28.6 81.7 28.6 C 81.9 28.7 82.2 28.7 82.4 28.7 C 82.6 28.7 82.9 28.7 83 28.6 C 83.2 28.5 83.3 28.4 83.4 28.2 C 83.5 28.1 83.6 27.8 83.8 27.3 C 83.8 27.2 83.9 27.1 83.9 27 C 83.92 27.01 81.2 19.7 81.2 19.7 L 82.5 19.7 C 82.5 19.7 84 23.94 84 23.9 C 84.2 24.5 84.4 25 84.5 25.6 C 84.7 25.1 84.8 24.5 85 24 C 85.03 23.96 86.6 19.7 86.6 19.7 L 87.8 19.7 C 87.8 19.7 85.05 27.12 85.1 27.1 C 84.8 27.9 84.5 28.5 84.4 28.8 C 84.1 29.2 83.9 29.5 83.6 29.7 C 83.3 29.8 83 29.9 82.6 29.9 C 82.6 29.9 82.6 29.9 82.6 29.9 Z M 88.4 24.8 C 88.4 24.8 89.6 24.6 89.6 24.6 C 89.7 25.1 89.8 25.5 90.2 25.8 C 90.5 26 90.9 26.1 91.5 26.1 C 92 26.1 92.4 26 92.7 25.8 C 93 25.6 93.1 25.3 93.1 25 C 93.1 24.7 93 24.5 92.8 24.3 C 92.6 24.2 92.2 24.1 91.5 23.9 C 90.6 23.7 90 23.5 89.6 23.3 C 89.3 23.2 89 22.9 88.8 22.6 C 88.7 22.3 88.6 22 88.6 21.7 C 88.6 21.3 88.6 21 88.8 20.8 C 88.9 20.5 89.1 20.3 89.4 20.1 C 89.6 19.9 89.9 19.8 90.2 19.7 C 90.5 19.6 90.9 19.6 91.2 19.6 C 91.8 19.6 92.3 19.7 92.7 19.8 C 93.2 20 93.5 20.2 93.7 20.5 C 93.9 20.8 94 21.1 94.1 21.6 C 94.1 21.6 92.9 21.8 92.9 21.8 C 92.9 21.4 92.7 21.1 92.4 20.9 C 92.2 20.7 91.8 20.6 91.3 20.6 C 90.8 20.6 90.4 20.7 90.1 20.9 C 89.9 21 89.8 21.3 89.8 21.5 C 89.8 21.7 89.8 21.8 89.9 21.9 C 90 22.1 90.2 22.2 90.4 22.3 C 90.5 22.3 90.9 22.4 91.5 22.6 C 92.3 22.8 92.9 23 93.3 23.2 C 93.6 23.3 93.9 23.5 94.1 23.8 C 94.3 24.1 94.4 24.4 94.4 24.9 C 94.4 25.3 94.3 25.7 94 26 C 93.8 26.4 93.5 26.7 93 26.9 C 92.6 27.1 92 27.2 91.5 27.2 C 90.5 27.2 89.8 27 89.3 26.6 C 88.8 26.2 88.5 25.6 88.4 24.8 Z M 98 25.9 C 98.1 25.9 98.3 25.9 98.5 25.9 C 98.5 25.9 98.7 27 98.7 27 C 98.4 27.1 98.1 27.1 97.8 27.1 C 97.3 27.1 97 27 96.8 26.9 C 96.5 26.7 96.3 26.5 96.2 26.3 C 96.1 26.1 96.1 25.6 96.1 24.9 C 96.09 24.87 96.1 20.7 96.1 20.7 L 95.2 20.7 L 95.2 19.7 L 96.1 19.7 L 96.1 17.9 L 97.3 17.2 L 97.3 19.7 L 98.5 19.7 L 98.5 20.7 L 97.3 20.7 C 97.3 20.7 97.31 24.93 97.3 24.9 C 97.3 25.3 97.3 25.5 97.4 25.6 C 97.4 25.7 97.5 25.8 97.6 25.9 C 97.7 25.9 97.8 25.9 98 25.9 C 98 25.9 98 25.9 98 25.9 Z " stroke="none" fill="#000000"/>  </g>  <g id="Polygon111118">    <path d="M 1.1 10.2 L 1.1 0.3 L 3.1 0.3 L 3.1 8.5 L 8.1 8.5 L 8.1 10.2 L 1.1 10.2 Z M 9.1 7.5 C 9.1 7.5 10.9 7.3 10.9 7.3 C 11 7.8 11.2 8.1 11.4 8.4 C 11.7 8.6 12 8.8 12.4 8.8 C 12.8 8.8 13.1 8.6 13.4 8.3 C 13.6 8 13.8 7.6 13.8 7.1 C 13.8 6.6 13.6 6.2 13.4 6 C 13.1 5.7 12.8 5.5 12.4 5.5 C 12.2 5.5 11.9 5.6 11.5 5.7 C 11.5 5.7 11.8 4.1 11.8 4.1 C 12.3 4.1 12.7 4 12.9 3.8 C 13.2 3.5 13.4 3.2 13.4 2.8 C 13.4 2.5 13.3 2.2 13.1 2 C 12.9 1.8 12.6 1.7 12.3 1.7 C 11.9 1.7 11.6 1.8 11.4 2.1 C 11.2 2.3 11 2.6 11 3 C 11 3 9.2 2.7 9.2 2.7 C 9.3 2.1 9.5 1.7 9.8 1.3 C 10 0.9 10.4 0.6 10.8 0.4 C 11.3 0.2 11.8 0.1 12.3 0.1 C 13.3 0.1 14 0.4 14.6 1 C 15.1 1.5 15.3 2.1 15.3 2.7 C 15.3 3.6 14.8 4.3 13.8 4.8 C 14.4 4.9 14.9 5.2 15.2 5.6 C 15.6 6.1 15.7 6.6 15.7 7.2 C 15.7 8.1 15.4 8.8 14.8 9.4 C 14.1 10.1 13.3 10.4 12.4 10.4 C 11.5 10.4 10.7 10.1 10.1 9.6 C 9.5 9.1 9.2 8.4 9.1 7.5 Z M 21.3 10.2 L 21.3 0.2 C 21.3 0.2 24.76 0.17 24.8 0.2 C 25.5 0.2 26.1 0.2 26.5 0.3 C 27.1 0.4 27.6 0.7 28 1 C 28.5 1.5 28.9 2 29.2 2.7 C 29.5 3.4 29.6 4.2 29.6 5.1 C 29.6 5.9 29.5 6.6 29.3 7.2 C 29.1 7.7 28.9 8.2 28.6 8.6 C 28.4 9 28.1 9.3 27.7 9.5 C 27.4 9.7 27 9.9 26.5 10 C 26.1 10.1 25.5 10.2 24.9 10.2 C 24.92 10.19 21.3 10.2 21.3 10.2 Z M 22.6 9 C 22.6 9 24.77 9.01 24.8 9 C 25.4 9 26 8.9 26.3 8.8 C 26.7 8.7 27 8.5 27.2 8.3 C 27.5 8 27.8 7.6 28 7 C 28.1 6.5 28.2 5.9 28.2 5.1 C 28.2 4.1 28.1 3.3 27.7 2.7 C 27.4 2.1 26.9 1.8 26.5 1.6 C 26.1 1.4 25.5 1.4 24.7 1.4 C 24.74 1.35 22.6 1.4 22.6 1.4 L 22.6 9 Z M 36.2 10.2 C 36.1 9.9 36 9.6 36 9.3 C 35.5 9.7 35.1 10 34.7 10.1 C 34.3 10.3 33.8 10.4 33.3 10.4 C 32.5 10.4 31.9 10.2 31.5 9.8 C 31.1 9.4 30.8 8.9 30.8 8.3 C 30.8 7.9 30.9 7.6 31.1 7.3 C 31.2 7 31.5 6.8 31.7 6.6 C 32 6.4 32.3 6.3 32.6 6.2 C 32.8 6.1 33.2 6.1 33.7 6 C 34.7 5.9 35.4 5.7 35.9 5.6 C 35.9 5.4 35.9 5.3 35.9 5.3 C 35.9 4.8 35.8 4.4 35.6 4.2 C 35.2 3.9 34.8 3.8 34.2 3.8 C 33.6 3.8 33.1 3.9 32.9 4.1 C 32.6 4.3 32.4 4.7 32.3 5.2 C 32.3 5.2 31.1 5 31.1 5 C 31.2 4.5 31.3 4.1 31.6 3.8 C 31.8 3.4 32.2 3.2 32.7 3 C 33.2 2.9 33.7 2.8 34.3 2.8 C 34.9 2.8 35.5 2.8 35.8 3 C 36.2 3.1 36.5 3.3 36.7 3.5 C 36.9 3.8 37 4 37.1 4.4 C 37.1 4.6 37.1 5 37.1 5.5 C 37.1 5.5 37.1 7.2 37.1 7.2 C 37.1 8.3 37.2 9 37.2 9.3 C 37.3 9.6 37.4 9.9 37.5 10.2 C 37.53 10.19 36.2 10.2 36.2 10.2 C 36.2 10.2 36.24 10.19 36.2 10.2 Z M 35.9 6.5 C 35.4 6.7 34.8 6.9 33.9 7 C 33.4 7.1 33 7.2 32.8 7.3 C 32.6 7.4 32.4 7.5 32.3 7.7 C 32.2 7.8 32.2 8 32.2 8.2 C 32.2 8.6 32.3 8.8 32.5 9.1 C 32.8 9.3 33.1 9.4 33.6 9.4 C 34.1 9.4 34.5 9.3 34.9 9.1 C 35.3 8.9 35.5 8.6 35.7 8.2 C 35.8 8 35.9 7.5 35.9 7 C 35.9 7 35.9 6.5 35.9 6.5 Z M 41.2 9.1 C 41.3 9.1 41.5 9.1 41.7 9.1 C 41.7 9.1 41.9 10.2 41.9 10.2 C 41.6 10.3 41.3 10.3 41 10.3 C 40.5 10.3 40.2 10.2 39.9 10.1 C 39.7 9.9 39.5 9.7 39.4 9.5 C 39.3 9.3 39.3 8.8 39.3 8.1 C 39.27 8.07 39.3 3.9 39.3 3.9 L 38.4 3.9 L 38.4 2.9 L 39.3 2.9 L 39.3 1.1 L 40.5 0.4 L 40.5 2.9 L 41.7 2.9 L 41.7 3.9 L 40.5 3.9 C 40.5 3.9 40.5 8.13 40.5 8.1 C 40.5 8.5 40.5 8.7 40.6 8.8 C 40.6 8.9 40.7 9 40.8 9.1 C 40.9 9.1 41 9.1 41.2 9.1 C 41.2 9.1 41.2 9.1 41.2 9.1 Z M 47.9 10.2 C 47.8 9.9 47.7 9.6 47.7 9.3 C 47.2 9.7 46.8 10 46.4 10.1 C 45.9 10.3 45.5 10.4 45 10.4 C 44.2 10.4 43.6 10.2 43.2 9.8 C 42.7 9.4 42.5 8.9 42.5 8.3 C 42.5 7.9 42.6 7.6 42.8 7.3 C 42.9 7 43.1 6.8 43.4 6.6 C 43.7 6.4 44 6.3 44.3 6.2 C 44.5 6.1 44.9 6.1 45.4 6 C 46.4 5.9 47.1 5.7 47.6 5.6 C 47.6 5.4 47.6 5.3 47.6 5.3 C 47.6 4.8 47.5 4.4 47.2 4.2 C 46.9 3.9 46.4 3.8 45.8 3.8 C 45.2 3.8 44.8 3.9 44.5 4.1 C 44.3 4.3 44.1 4.7 43.9 5.2 C 43.9 5.2 42.7 5 42.7 5 C 42.8 4.5 43 4.1 43.3 3.8 C 43.5 3.4 43.9 3.2 44.4 3 C 44.8 2.9 45.4 2.8 46 2.8 C 46.6 2.8 47.1 2.8 47.5 3 C 47.9 3.1 48.2 3.3 48.4 3.5 C 48.6 3.8 48.7 4 48.8 4.4 C 48.8 4.6 48.8 5 48.8 5.5 C 48.8 5.5 48.8 7.2 48.8 7.2 C 48.8 8.3 48.8 9 48.9 9.3 C 48.9 9.6 49.1 9.9 49.2 10.2 C 49.21 10.19 47.9 10.2 47.9 10.2 C 47.9 10.2 47.92 10.19 47.9 10.2 Z M 47.6 6.5 C 47.1 6.7 46.5 6.9 45.6 7 C 45.1 7.1 44.7 7.2 44.5 7.3 C 44.3 7.4 44.1 7.5 44 7.7 C 43.9 7.8 43.8 8 43.8 8.2 C 43.8 8.6 44 8.8 44.2 9.1 C 44.5 9.3 44.8 9.4 45.3 9.4 C 45.8 9.4 46.2 9.3 46.6 9.1 C 46.9 8.9 47.2 8.6 47.4 8.2 C 47.5 8 47.6 7.5 47.6 7 C 47.6 7 47.6 6.5 47.6 6.5 Z M 57.1 10.2 L 57.1 1.4 L 53.8 1.4 L 53.8 0.2 L 61.7 0.2 L 61.7 1.4 L 58.4 1.4 L 58.4 10.2 L 57.1 10.2 Z M 66.3 7.9 C 66.3 7.9 67.6 8 67.6 8 C 67.4 8.8 67 9.3 66.5 9.7 C 65.9 10.2 65.3 10.4 64.4 10.4 C 63.3 10.4 62.5 10 61.9 9.4 C 61.3 8.7 60.9 7.8 60.9 6.6 C 60.9 5.4 61.3 4.5 61.9 3.8 C 62.5 3.1 63.3 2.8 64.3 2.8 C 65.3 2.8 66.1 3.1 66.7 3.8 C 67.3 4.4 67.6 5.4 67.6 6.5 C 67.6 6.6 67.6 6.7 67.6 6.9 C 67.6 6.9 62.2 6.9 62.2 6.9 C 62.3 7.7 62.5 8.3 62.9 8.7 C 63.3 9.1 63.8 9.3 64.4 9.3 C 64.9 9.3 65.3 9.2 65.6 9 C 65.9 8.8 66.1 8.4 66.3 7.9 Z M 62.3 5.9 C 62.3 5.9 66.3 5.9 66.3 5.9 C 66.3 5.3 66.1 4.8 65.9 4.5 C 65.5 4 65 3.8 64.4 3.8 C 63.8 3.8 63.3 4 62.9 4.3 C 62.5 4.7 62.3 5.2 62.3 5.9 Z M 73.9 7.5 C 73.9 7.5 75.1 7.7 75.1 7.7 C 75 8.5 74.6 9.2 74.1 9.6 C 73.5 10.1 72.9 10.4 72.1 10.4 C 71.1 10.4 70.3 10 69.7 9.4 C 69.1 8.7 68.8 7.8 68.8 6.6 C 68.8 5.8 68.9 5.1 69.2 4.5 C 69.4 3.9 69.8 3.5 70.3 3.2 C 70.9 2.9 71.5 2.8 72.1 2.8 C 72.9 2.8 73.5 3 74 3.4 C 74.5 3.8 74.8 4.3 75 5.1 C 75 5.1 73.8 5.3 73.8 5.3 C 73.7 4.8 73.5 4.4 73.2 4.1 C 72.9 3.9 72.5 3.8 72.1 3.8 C 71.5 3.8 71 4 70.6 4.4 C 70.2 4.9 70 5.6 70 6.6 C 70 7.5 70.2 8.2 70.6 8.7 C 71 9.1 71.5 9.3 72.1 9.3 C 72.5 9.3 72.9 9.2 73.3 8.9 C 73.6 8.6 73.8 8.1 73.9 7.5 Z M 76.1 10.2 L 76.1 0.2 L 77.4 0.2 C 77.4 0.2 77.38 3.77 77.4 3.8 C 78 3.1 78.7 2.8 79.5 2.8 C 80.1 2.8 80.6 2.9 81 3.1 C 81.3 3.3 81.6 3.6 81.8 4 C 82 4.3 82.1 4.9 82.1 5.6 C 82.06 5.59 82.1 10.2 82.1 10.2 L 80.8 10.2 C 80.8 10.2 80.83 5.59 80.8 5.6 C 80.8 5 80.7 4.5 80.4 4.2 C 80.2 4 79.8 3.8 79.3 3.8 C 78.9 3.8 78.6 3.9 78.3 4.1 C 77.9 4.3 77.7 4.6 77.6 4.9 C 77.4 5.2 77.4 5.7 77.4 6.2 C 77.38 6.22 77.4 10.2 77.4 10.2 L 76.1 10.2 Z M 83.9 10.2 L 83.9 2.9 L 85 2.9 C 85 2.9 85.04 3.96 85 4 C 85.6 3.2 86.3 2.8 87.3 2.8 C 87.8 2.8 88.2 2.8 88.6 3 C 88.9 3.2 89.2 3.4 89.4 3.6 C 89.6 3.9 89.7 4.2 89.8 4.5 C 89.8 4.8 89.8 5.2 89.8 5.7 C 89.83 5.73 89.8 10.2 89.8 10.2 L 88.6 10.2 C 88.6 10.2 88.6 5.78 88.6 5.8 C 88.6 5.3 88.6 4.9 88.5 4.7 C 88.4 4.4 88.2 4.2 87.9 4.1 C 87.7 3.9 87.4 3.8 87.1 3.8 C 86.6 3.8 86.1 4 85.7 4.3 C 85.4 4.7 85.2 5.3 85.2 6.2 C 85.16 6.23 85.2 10.2 85.2 10.2 L 83.9 10.2 Z M 91.7 1.6 L 91.7 0.2 L 93 0.2 L 93 1.6 L 91.7 1.6 Z M 91.7 10.2 L 91.7 2.9 L 93 2.9 L 93 10.2 L 91.7 10.2 Z M 99.6 7.5 C 99.6 7.5 100.8 7.7 100.8 7.7 C 100.6 8.5 100.3 9.2 99.8 9.6 C 99.2 10.1 98.5 10.4 97.8 10.4 C 96.8 10.4 96 10 95.4 9.4 C 94.8 8.7 94.5 7.8 94.5 6.6 C 94.5 5.8 94.6 5.1 94.8 4.5 C 95.1 3.9 95.5 3.5 96 3.2 C 96.6 2.9 97.1 2.8 97.8 2.8 C 98.5 2.8 99.2 3 99.7 3.4 C 100.2 3.8 100.5 4.3 100.7 5.1 C 100.7 5.1 99.5 5.3 99.5 5.3 C 99.3 4.8 99.1 4.4 98.9 4.1 C 98.6 3.9 98.2 3.8 97.8 3.8 C 97.2 3.8 96.7 4 96.3 4.4 C 95.9 4.9 95.7 5.6 95.7 6.6 C 95.7 7.5 95.9 8.2 96.3 8.7 C 96.7 9.1 97.1 9.3 97.7 9.3 C 98.2 9.3 98.6 9.2 99 8.9 C 99.3 8.6 99.5 8.1 99.6 7.5 Z M 101.8 1.6 L 101.8 0.2 L 103.1 0.2 L 103.1 1.6 L 101.8 1.6 Z M 101.8 10.2 L 101.8 2.9 L 103.1 2.9 L 103.1 10.2 L 101.8 10.2 Z M 109.9 10.2 C 109.8 9.9 109.7 9.6 109.7 9.3 C 109.2 9.7 108.8 10 108.4 10.1 C 107.9 10.3 107.5 10.4 107 10.4 C 106.2 10.4 105.6 10.2 105.2 9.8 C 104.7 9.4 104.5 8.9 104.5 8.3 C 104.5 7.9 104.6 7.6 104.8 7.3 C 104.9 7 105.1 6.8 105.4 6.6 C 105.7 6.4 106 6.3 106.3 6.2 C 106.5 6.1 106.9 6.1 107.4 6 C 108.4 5.9 109.1 5.7 109.6 5.6 C 109.6 5.4 109.6 5.3 109.6 5.3 C 109.6 4.8 109.5 4.4 109.2 4.2 C 108.9 3.9 108.4 3.8 107.8 3.8 C 107.3 3.8 106.8 3.9 106.5 4.1 C 106.3 4.3 106.1 4.7 105.9 5.2 C 105.9 5.2 104.7 5 104.7 5 C 104.8 4.5 105 4.1 105.3 3.8 C 105.5 3.4 105.9 3.2 106.4 3 C 106.8 2.9 107.4 2.8 108 2.8 C 108.6 2.8 109.1 2.8 109.5 3 C 109.9 3.1 110.2 3.3 110.4 3.5 C 110.6 3.8 110.7 4 110.8 4.4 C 110.8 4.6 110.8 5 110.8 5.5 C 110.8 5.5 110.8 7.2 110.8 7.2 C 110.8 8.3 110.8 9 110.9 9.3 C 110.9 9.6 111.1 9.9 111.2 10.2 C 111.21 10.19 109.9 10.2 109.9 10.2 C 109.9 10.2 109.92 10.19 109.9 10.2 Z M 109.6 6.5 C 109.1 6.7 108.5 6.9 107.6 7 C 107.1 7.1 106.7 7.2 106.5 7.3 C 106.3 7.4 106.1 7.5 106 7.7 C 105.9 7.8 105.8 8 105.8 8.2 C 105.8 8.6 106 8.8 106.2 9.1 C 106.5 9.3 106.8 9.4 107.3 9.4 C 107.8 9.4 108.2 9.3 108.6 9.1 C 108.9 8.9 109.2 8.6 109.4 8.2 C 109.5 8 109.6 7.5 109.6 7 C 109.6 7 109.6 6.5 109.6 6.5 Z M 112.7 10.2 L 112.7 2.9 L 113.8 2.9 C 113.8 2.9 113.83 3.96 113.8 4 C 114.4 3.2 115.1 2.8 116.1 2.8 C 116.6 2.8 117 2.8 117.3 3 C 117.7 3.2 118 3.4 118.2 3.6 C 118.4 3.9 118.5 4.2 118.6 4.5 C 118.6 4.8 118.6 5.2 118.6 5.7 C 118.62 5.73 118.6 10.2 118.6 10.2 L 117.4 10.2 C 117.4 10.2 117.39 5.78 117.4 5.8 C 117.4 5.3 117.3 4.9 117.3 4.7 C 117.2 4.4 117 4.2 116.7 4.1 C 116.5 3.9 116.2 3.8 115.9 3.8 C 115.4 3.8 114.9 4 114.5 4.3 C 114.1 4.7 114 5.3 114 6.2 C 113.96 6.23 114 10.2 114 10.2 L 112.7 10.2 Z " stroke="none" fill="#000000"/>  </g></svg>