<?xml version="1.0" standalone="no"?><!DOCTYPE svg PUBLIC "-//W3C//DTD SVG 1.1//EN" "http://www.w3.org/Graphics/SVG/1.1/DTD/svg11.dtd"><svg xmlns="http://www.w3.org/2000/svg" version="1.1" width="138px" height="23.9px" viewBox="0 -5 138 23.9" style="top:-5px">  <desc>Turnaround of Results</desc>  <defs/>  <g id="Polygon144475">    <path d="M 3.6 10.2 L 3.6 1.4 L 0.3 1.4 L 0.3 0.2 L 8.3 0.2 L 8.3 1.4 L 5 1.4 L 5 10.2 L 3.6 10.2 Z M 13.7 10.2 C 13.7 10.2 13.71 9.13 13.7 9.1 C 13.1 9.9 12.4 10.4 11.4 10.4 C 11 10.4 10.6 10.3 10.2 10.1 C 9.8 9.9 9.6 9.7 9.4 9.5 C 9.2 9.2 9.1 8.9 9 8.6 C 9 8.3 8.9 8 8.9 7.4 C 8.93 7.43 8.9 2.9 8.9 2.9 L 10.2 2.9 C 10.2 2.9 10.16 6.96 10.2 7 C 10.2 7.6 10.2 8 10.2 8.3 C 10.3 8.6 10.5 8.8 10.7 9 C 11 9.2 11.3 9.3 11.7 9.3 C 12 9.3 12.4 9.2 12.7 9 C 13 8.8 13.2 8.6 13.4 8.2 C 13.5 7.9 13.6 7.4 13.6 6.8 C 13.58 6.82 13.6 2.9 13.6 2.9 L 14.8 2.9 L 14.8 10.2 L 13.7 10.2 Z M 16.7 10.2 L 16.7 2.9 L 17.8 2.9 C 17.8 2.9 17.83 4.03 17.8 4 C 18.1 3.5 18.4 3.2 18.6 3 C 18.9 2.9 19.1 2.8 19.4 2.8 C 19.8 2.8 20.2 2.9 20.7 3.2 C 20.7 3.2 20.2 4.3 20.2 4.3 C 19.9 4.1 19.6 4 19.3 4 C 19.1 4 18.8 4.1 18.6 4.3 C 18.4 4.4 18.3 4.7 18.2 5 C 18 5.4 18 5.9 18 6.4 C 17.96 6.39 18 10.2 18 10.2 L 16.7 10.2 Z M 21.4 10.2 L 21.4 2.9 L 22.5 2.9 C 22.5 2.9 22.51 3.96 22.5 4 C 23 3.2 23.8 2.8 24.8 2.8 C 25.3 2.8 25.7 2.8 26 3 C 26.4 3.2 26.7 3.4 26.9 3.6 C 27 3.9 27.2 4.2 27.2 4.5 C 27.3 4.8 27.3 5.2 27.3 5.7 C 27.3 5.73 27.3 10.2 27.3 10.2 L 26.1 10.2 C 26.1 10.2 26.07 5.78 26.1 5.8 C 26.1 5.3 26 4.9 25.9 4.7 C 25.8 4.4 25.7 4.2 25.4 4.1 C 25.2 3.9 24.9 3.8 24.6 3.8 C 24 3.8 23.6 4 23.2 4.3 C 22.8 4.7 22.6 5.3 22.6 6.2 C 22.63 6.23 22.6 10.2 22.6 10.2 L 21.4 10.2 Z M 34.2 10.2 C 34 9.9 34 9.6 33.9 9.3 C 33.5 9.7 33 10 32.6 10.1 C 32.2 10.3 31.7 10.4 31.3 10.4 C 30.5 10.4 29.8 10.2 29.4 9.8 C 29 9.4 28.8 8.9 28.8 8.3 C 28.8 7.9 28.9 7.6 29 7.3 C 29.2 7 29.4 6.8 29.7 6.6 C 29.9 6.4 30.2 6.3 30.5 6.2 C 30.8 6.1 31.1 6.1 31.6 6 C 32.6 5.9 33.4 5.7 33.8 5.6 C 33.8 5.4 33.8 5.3 33.8 5.3 C 33.8 4.8 33.7 4.4 33.5 4.2 C 33.2 3.9 32.7 3.8 32.1 3.8 C 31.5 3.8 31.1 3.9 30.8 4.1 C 30.5 4.3 30.3 4.7 30.2 5.2 C 30.2 5.2 29 5 29 5 C 29.1 4.5 29.3 4.1 29.5 3.8 C 29.8 3.4 30.1 3.2 30.6 3 C 31.1 2.9 31.6 2.8 32.3 2.8 C 32.9 2.8 33.4 2.8 33.8 3 C 34.2 3.1 34.4 3.3 34.6 3.5 C 34.8 3.8 34.9 4 35 4.4 C 35 4.6 35.1 5 35.1 5.5 C 35.1 5.5 35.1 7.2 35.1 7.2 C 35.1 8.3 35.1 9 35.1 9.3 C 35.2 9.6 35.3 9.9 35.5 10.2 C 35.46 10.19 34.2 10.2 34.2 10.2 C 34.2 10.2 34.17 10.19 34.2 10.2 Z M 33.8 6.5 C 33.4 6.7 32.7 6.9 31.8 7 C 31.3 7.1 31 7.2 30.7 7.3 C 30.5 7.4 30.4 7.5 30.3 7.7 C 30.1 7.8 30.1 8 30.1 8.2 C 30.1 8.6 30.2 8.8 30.5 9.1 C 30.7 9.3 31.1 9.4 31.5 9.4 C 32 9.4 32.4 9.3 32.8 9.1 C 33.2 8.9 33.5 8.6 33.6 8.2 C 33.8 8 33.8 7.5 33.8 7 C 33.8 7 33.8 6.5 33.8 6.5 Z M 37 10.2 L 37 2.9 L 38.1 2.9 C 38.1 2.9 38.07 4.03 38.1 4 C 38.4 3.5 38.6 3.2 38.9 3 C 39.1 2.9 39.4 2.8 39.6 2.8 C 40.1 2.8 40.5 2.9 40.9 3.2 C 40.9 3.2 40.5 4.3 40.5 4.3 C 40.2 4.1 39.9 4 39.6 4 C 39.3 4 39.1 4.1 38.9 4.3 C 38.6 4.4 38.5 4.7 38.4 5 C 38.3 5.4 38.2 5.9 38.2 6.4 C 38.19 6.39 38.2 10.2 38.2 10.2 L 37 10.2 Z M 41.2 6.6 C 41.2 5.2 41.6 4.2 42.3 3.6 C 42.9 3 43.7 2.8 44.6 2.8 C 45.6 2.8 46.4 3.1 47 3.7 C 47.7 4.4 48 5.3 48 6.5 C 48 7.4 47.8 8.1 47.6 8.7 C 47.3 9.2 46.9 9.6 46.3 9.9 C 45.8 10.2 45.2 10.4 44.6 10.4 C 43.6 10.4 42.7 10 42.1 9.4 C 41.5 8.7 41.2 7.8 41.2 6.6 Z M 42.4 6.6 C 42.4 7.5 42.6 8.2 43.1 8.7 C 43.5 9.1 44 9.3 44.6 9.3 C 45.2 9.3 45.7 9.1 46.1 8.6 C 46.5 8.2 46.7 7.5 46.7 6.5 C 46.7 5.6 46.5 4.9 46.1 4.5 C 45.7 4 45.2 3.8 44.6 3.8 C 44 3.8 43.5 4 43.1 4.5 C 42.6 4.9 42.4 5.6 42.4 6.6 Z M 54.2 10.2 C 54.2 10.2 54.18 9.13 54.2 9.1 C 53.6 9.9 52.8 10.4 51.9 10.4 C 51.4 10.4 51 10.3 50.7 10.1 C 50.3 9.9 50 9.7 49.9 9.5 C 49.7 9.2 49.5 8.9 49.5 8.6 C 49.4 8.3 49.4 8 49.4 7.4 C 49.4 7.43 49.4 2.9 49.4 2.9 L 50.6 2.9 C 50.6 2.9 50.63 6.96 50.6 7 C 50.6 7.6 50.7 8 50.7 8.3 C 50.8 8.6 50.9 8.8 51.2 9 C 51.4 9.2 51.8 9.3 52.1 9.3 C 52.5 9.3 52.8 9.2 53.2 9 C 53.5 8.8 53.7 8.6 53.9 8.2 C 54 7.9 54.1 7.4 54.1 6.8 C 54.05 6.82 54.1 2.9 54.1 2.9 L 55.3 2.9 L 55.3 10.2 L 54.2 10.2 Z M 57.2 10.2 L 57.2 2.9 L 58.3 2.9 C 58.3 2.9 58.32 3.96 58.3 4 C 58.9 3.2 59.6 2.8 60.6 2.8 C 61.1 2.8 61.5 2.8 61.8 3 C 62.2 3.2 62.5 3.4 62.7 3.6 C 62.8 3.9 63 4.2 63 4.5 C 63.1 4.8 63.1 5.2 63.1 5.7 C 63.11 5.73 63.1 10.2 63.1 10.2 L 61.9 10.2 C 61.9 10.2 61.88 5.78 61.9 5.8 C 61.9 5.3 61.8 4.9 61.7 4.7 C 61.6 4.4 61.5 4.2 61.2 4.1 C 61 3.9 60.7 3.8 60.4 3.8 C 59.8 3.8 59.4 4 59 4.3 C 58.6 4.7 58.4 5.3 58.4 6.2 C 58.44 6.23 58.4 10.2 58.4 10.2 L 57.2 10.2 Z M 69.7 10.2 C 69.7 10.2 69.71 9.28 69.7 9.3 C 69.2 10 68.6 10.4 67.7 10.4 C 67.1 10.4 66.6 10.2 66.1 9.9 C 65.6 9.6 65.2 9.1 65 8.5 C 64.7 8 64.6 7.3 64.6 6.6 C 64.6 5.8 64.7 5.2 64.9 4.6 C 65.2 4 65.5 3.6 66 3.2 C 66.5 2.9 67 2.8 67.6 2.8 C 68.1 2.8 68.4 2.9 68.8 3 C 69.1 3.2 69.4 3.5 69.6 3.8 C 69.62 3.77 69.6 0.2 69.6 0.2 L 70.8 0.2 L 70.8 10.2 L 69.7 10.2 Z M 65.8 6.6 C 65.8 7.5 66 8.2 66.4 8.7 C 66.8 9.1 67.3 9.3 67.8 9.3 C 68.3 9.3 68.8 9.1 69.2 8.7 C 69.5 8.2 69.7 7.6 69.7 6.7 C 69.7 5.7 69.5 4.9 69.2 4.5 C 68.8 4 68.3 3.8 67.7 3.8 C 67.2 3.8 66.7 4 66.4 4.5 C 66 4.9 65.8 5.6 65.8 6.6 Z M 76.2 6.6 C 76.2 5.2 76.6 4.2 77.3 3.6 C 78 3 78.7 2.8 79.6 2.8 C 80.6 2.8 81.4 3.1 82.1 3.7 C 82.7 4.4 83 5.3 83 6.5 C 83 7.4 82.9 8.1 82.6 8.7 C 82.3 9.2 81.9 9.6 81.4 9.9 C 80.8 10.2 80.3 10.4 79.6 10.4 C 78.6 10.4 77.8 10 77.2 9.4 C 76.5 8.7 76.2 7.8 76.2 6.6 Z M 77.5 6.6 C 77.5 7.5 77.7 8.2 78.1 8.7 C 78.5 9.1 79 9.3 79.6 9.3 C 80.2 9.3 80.7 9.1 81.1 8.6 C 81.5 8.2 81.8 7.5 81.8 6.5 C 81.8 5.6 81.5 4.9 81.1 4.5 C 80.7 4 80.2 3.8 79.6 3.8 C 79 3.8 78.5 4 78.1 4.5 C 77.7 4.9 77.5 5.6 77.5 6.6 Z M 84.8 10.2 L 84.8 3.9 L 83.7 3.9 L 83.7 2.9 L 84.8 2.9 C 84.8 2.9 84.75 2.16 84.8 2.2 C 84.8 1.7 84.8 1.3 84.9 1.1 C 85 0.8 85.2 0.5 85.5 0.3 C 85.8 0.1 86.2 0 86.8 0 C 87.1 0 87.5 0 87.9 0.1 C 87.9 0.1 87.7 1.2 87.7 1.2 C 87.5 1.2 87.2 1.1 87 1.1 C 86.6 1.1 86.4 1.2 86.2 1.4 C 86.1 1.5 86 1.8 86 2.3 C 85.98 2.26 86 2.9 86 2.9 L 87.4 2.9 L 87.4 3.9 L 86 3.9 L 86 10.2 L 84.8 10.2 Z M 92.4 10.2 L 92.4 0.2 C 92.4 0.2 96.86 0.17 96.9 0.2 C 97.8 0.2 98.4 0.3 98.9 0.4 C 99.4 0.6 99.7 0.9 100 1.4 C 100.3 1.9 100.4 2.4 100.4 2.9 C 100.4 3.6 100.2 4.2 99.7 4.7 C 99.3 5.2 98.6 5.5 97.6 5.6 C 98 5.8 98.2 6 98.4 6.1 C 98.8 6.5 99.2 6.9 99.5 7.5 C 99.5 7.46 101.2 10.2 101.2 10.2 L 99.6 10.2 C 99.6 10.2 98.25 8.11 98.3 8.1 C 97.9 7.5 97.5 7 97.3 6.7 C 97 6.4 96.8 6.2 96.6 6.1 C 96.4 5.9 96.2 5.8 96 5.8 C 95.9 5.8 95.6 5.7 95.3 5.7 C 95.28 5.74 93.7 5.7 93.7 5.7 L 93.7 10.2 L 92.4 10.2 Z M 93.7 4.6 C 93.7 4.6 96.59 4.59 96.6 4.6 C 97.2 4.6 97.7 4.5 98 4.4 C 98.4 4.3 98.6 4.1 98.8 3.8 C 99 3.5 99.1 3.2 99.1 2.9 C 99.1 2.4 98.9 2 98.5 1.7 C 98.2 1.4 97.7 1.3 96.9 1.3 C 96.91 1.28 93.7 1.3 93.7 1.3 L 93.7 4.6 Z M 107.3 7.9 C 107.3 7.9 108.6 8 108.6 8 C 108.4 8.8 108 9.3 107.5 9.7 C 106.9 10.2 106.2 10.4 105.4 10.4 C 104.3 10.4 103.5 10 102.9 9.4 C 102.2 8.7 101.9 7.8 101.9 6.6 C 101.9 5.4 102.3 4.5 102.9 3.8 C 103.5 3.1 104.3 2.8 105.3 2.8 C 106.3 2.8 107.1 3.1 107.7 3.8 C 108.3 4.4 108.6 5.4 108.6 6.5 C 108.6 6.6 108.6 6.7 108.6 6.9 C 108.6 6.9 103.2 6.9 103.2 6.9 C 103.3 7.7 103.5 8.3 103.9 8.7 C 104.3 9.1 104.8 9.3 105.4 9.3 C 105.9 9.3 106.2 9.2 106.6 9 C 106.9 8.8 107.1 8.4 107.3 7.9 Z M 103.3 5.9 C 103.3 5.9 107.3 5.9 107.3 5.9 C 107.3 5.3 107.1 4.8 106.9 4.5 C 106.5 4 106 3.8 105.3 3.8 C 104.8 3.8 104.3 4 103.9 4.3 C 103.5 4.7 103.3 5.2 103.3 5.9 Z M 109.6 8 C 109.6 8 110.9 7.8 110.9 7.8 C 110.9 8.3 111.1 8.7 111.4 9 C 111.7 9.2 112.2 9.3 112.7 9.3 C 113.3 9.3 113.7 9.2 114 9 C 114.3 8.8 114.4 8.5 114.4 8.2 C 114.4 7.9 114.3 7.7 114 7.5 C 113.9 7.4 113.5 7.3 112.8 7.1 C 111.9 6.9 111.3 6.7 110.9 6.5 C 110.6 6.4 110.3 6.1 110.1 5.8 C 109.9 5.5 109.8 5.2 109.8 4.9 C 109.8 4.5 109.9 4.2 110.1 4 C 110.2 3.7 110.4 3.5 110.7 3.3 C 110.9 3.1 111.1 3 111.5 2.9 C 111.8 2.8 112.1 2.8 112.5 2.8 C 113.1 2.8 113.6 2.9 114 3 C 114.5 3.2 114.8 3.4 115 3.7 C 115.2 4 115.3 4.3 115.4 4.8 C 115.4 4.8 114.2 5 114.2 5 C 114.1 4.6 114 4.3 113.7 4.1 C 113.5 3.9 113.1 3.8 112.6 3.8 C 112 3.8 111.6 3.9 111.4 4.1 C 111.2 4.2 111 4.5 111 4.7 C 111 4.9 111.1 5 111.2 5.1 C 111.3 5.3 111.4 5.4 111.7 5.5 C 111.8 5.5 112.1 5.6 112.7 5.8 C 113.6 6 114.2 6.2 114.6 6.4 C 114.9 6.5 115.2 6.7 115.4 7 C 115.6 7.3 115.7 7.6 115.7 8.1 C 115.7 8.5 115.6 8.9 115.3 9.2 C 115.1 9.6 114.7 9.9 114.3 10.1 C 113.8 10.3 113.3 10.4 112.7 10.4 C 111.8 10.4 111.1 10.2 110.6 9.8 C 110.1 9.4 109.8 8.8 109.6 8 Z M 121.9 10.2 C 121.9 10.2 121.89 9.13 121.9 9.1 C 121.3 9.9 120.6 10.4 119.6 10.4 C 119.2 10.4 118.8 10.3 118.4 10.1 C 118 9.9 117.7 9.7 117.6 9.5 C 117.4 9.2 117.3 8.9 117.2 8.6 C 117.1 8.3 117.1 8 117.1 7.4 C 117.11 7.43 117.1 2.9 117.1 2.9 L 118.3 2.9 C 118.3 2.9 118.34 6.96 118.3 7 C 118.3 7.6 118.4 8 118.4 8.3 C 118.5 8.6 118.7 8.8 118.9 9 C 119.2 9.2 119.5 9.3 119.8 9.3 C 120.2 9.3 120.5 9.2 120.9 9 C 121.2 8.8 121.4 8.6 121.6 8.2 C 121.7 7.9 121.8 7.4 121.8 6.8 C 121.76 6.82 121.8 2.9 121.8 2.9 L 123 2.9 L 123 10.2 L 121.9 10.2 Z M 124.9 10.2 L 124.9 0.2 L 126.1 0.2 L 126.1 10.2 L 124.9 10.2 Z M 130.2 9.1 C 130.3 9.1 130.5 9.1 130.7 9.1 C 130.7 9.1 130.9 10.2 130.9 10.2 C 130.5 10.3 130.2 10.3 130 10.3 C 129.5 10.3 129.2 10.2 128.9 10.1 C 128.7 9.9 128.5 9.7 128.4 9.5 C 128.3 9.3 128.3 8.8 128.3 8.1 C 128.26 8.07 128.3 3.9 128.3 3.9 L 127.4 3.9 L 127.4 2.9 L 128.3 2.9 L 128.3 1.1 L 129.5 0.4 L 129.5 2.9 L 130.7 2.9 L 130.7 3.9 L 129.5 3.9 C 129.5 3.9 129.48 8.13 129.5 8.1 C 129.5 8.5 129.5 8.7 129.5 8.8 C 129.6 8.9 129.7 9 129.8 9.1 C 129.9 9.1 130 9.1 130.2 9.1 C 130.2 9.1 130.2 9.1 130.2 9.1 Z M 131.4 8 C 131.4 8 132.6 7.8 132.6 7.8 C 132.7 8.3 132.9 8.7 133.2 9 C 133.5 9.2 134 9.3 134.5 9.3 C 135.1 9.3 135.5 9.2 135.8 9 C 136.1 8.8 136.2 8.5 136.2 8.2 C 136.2 7.9 136.1 7.7 135.8 7.5 C 135.7 7.4 135.2 7.3 134.6 7.1 C 133.7 6.9 133 6.7 132.7 6.5 C 132.3 6.4 132.1 6.1 131.9 5.8 C 131.7 5.5 131.6 5.2 131.6 4.9 C 131.6 4.5 131.7 4.2 131.9 4 C 132 3.7 132.2 3.5 132.5 3.3 C 132.7 3.1 132.9 3 133.2 2.9 C 133.6 2.8 133.9 2.8 134.3 2.8 C 134.9 2.8 135.4 2.9 135.8 3 C 136.2 3.2 136.6 3.4 136.8 3.7 C 137 4 137.1 4.3 137.2 4.8 C 137.2 4.8 136 5 136 5 C 135.9 4.6 135.8 4.3 135.5 4.1 C 135.2 3.9 134.9 3.8 134.4 3.8 C 133.8 3.8 133.4 3.9 133.2 4.1 C 132.9 4.2 132.8 4.5 132.8 4.7 C 132.8 4.9 132.9 5 133 5.1 C 133.1 5.3 133.2 5.4 133.4 5.5 C 133.6 5.5 133.9 5.6 134.5 5.8 C 135.4 6 136 6.2 136.4 6.4 C 136.7 6.5 137 6.7 137.2 7 C 137.4 7.3 137.5 7.6 137.5 8.1 C 137.5 8.5 137.3 8.9 137.1 9.2 C 136.9 9.6 136.5 9.9 136.1 10.1 C 135.6 10.3 135.1 10.4 134.5 10.4 C 133.6 10.4 132.9 10.2 132.4 9.8 C 131.9 9.4 131.6 8.8 131.4 8 Z " stroke="none" fill="#ffffff"/>  </g></svg>