<?xml version="1.0" standalone="no"?><!DOCTYPE svg PUBLIC "-//W3C//DTD SVG 1.1//EN" "http://www.w3.org/Graphics/SVG/1.1/DTD/svg11.dtd"><svg xmlns="http://www.w3.org/2000/svg" version="1.1" width="71px" height="40.9px" viewBox="0 -5 71 40.9" style="top:-5px">  <desc>Result in 5 Days</desc>  <defs/>  <g id="Polygon106493">    <path d="M 13.4 24.4 C 13.4 24.4 15.3 24.2 15.3 24.2 C 15.3 24.7 15.5 25 15.8 25.2 C 16 25.5 16.3 25.6 16.7 25.6 C 17.1 25.6 17.4 25.5 17.7 25.1 C 18 24.8 18.1 24.3 18.1 23.7 C 18.1 23 18 22.6 17.7 22.3 C 17.4 22 17.1 21.8 16.6 21.8 C 16.1 21.8 15.6 22.1 15.2 22.5 C 15.15 22.55 13.6 22.3 13.6 22.3 L 14.6 17.1 L 19.7 17.1 L 19.7 18.9 L 16 18.9 C 16 18.9 15.74 20.61 15.7 20.6 C 16.2 20.4 16.6 20.3 17 20.3 C 17.9 20.3 18.6 20.6 19.2 21.2 C 19.8 21.8 20.1 22.6 20.1 23.6 C 20.1 24.5 19.9 25.2 19.4 25.8 C 18.7 26.7 17.8 27.2 16.7 27.2 C 15.7 27.2 15 26.9 14.4 26.4 C 13.8 25.9 13.5 25.3 13.4 24.4 Z M 25.4 17 C 25.4 17 29.13 16.97 29.1 17 C 30 17 30.6 17 31 17.2 C 31.6 17.3 32.1 17.6 32.5 18.1 C 33 18.5 33.3 19.1 33.5 19.7 C 33.7 20.3 33.8 21.1 33.8 22.1 C 33.8 22.9 33.7 23.6 33.5 24.2 C 33.3 24.9 32.9 25.5 32.4 26 C 32.1 26.3 31.6 26.6 31 26.8 C 30.6 26.9 30 27 29.2 27 C 29.24 26.99 25.4 27 25.4 27 L 25.4 17 Z M 27.5 18.7 L 27.5 25.3 C 27.5 25.3 28.96 25.3 29 25.3 C 29.5 25.3 29.9 25.3 30.2 25.2 C 30.5 25.1 30.8 25 31 24.8 C 31.2 24.6 31.4 24.3 31.5 23.8 C 31.7 23.4 31.7 22.8 31.7 22 C 31.7 21.2 31.7 20.6 31.5 20.2 C 31.4 19.8 31.2 19.5 31 19.2 C 30.7 19 30.4 18.8 30 18.8 C 29.7 18.7 29.2 18.7 28.4 18.7 C 28.36 18.67 27.5 18.7 27.5 18.7 Z M 37 21.9 C 37 21.9 35.2 21.6 35.2 21.6 C 35.4 20.9 35.8 20.4 36.2 20.1 C 36.7 19.7 37.4 19.6 38.4 19.6 C 39.2 19.6 39.9 19.7 40.3 19.9 C 40.7 20.1 41 20.3 41.2 20.6 C 41.3 21 41.4 21.5 41.4 22.4 C 41.4 22.4 41.4 24.6 41.4 24.6 C 41.4 25.2 41.4 25.7 41.5 26 C 41.6 26.3 41.7 26.6 41.8 27 C 41.8 27 39.9 27 39.9 27 C 39.9 26.9 39.8 26.7 39.8 26.4 C 39.7 26.3 39.7 26.2 39.7 26.2 C 39.4 26.5 39 26.8 38.6 26.9 C 38.3 27.1 37.9 27.2 37.4 27.2 C 36.7 27.2 36.1 27 35.7 26.5 C 35.2 26.1 35 25.6 35 25 C 35 24.6 35.1 24.2 35.3 23.9 C 35.5 23.6 35.8 23.3 36.1 23.2 C 36.5 23 37 22.9 37.7 22.7 C 38.6 22.6 39.2 22.4 39.5 22.3 C 39.5 22.3 39.5 22.1 39.5 22.1 C 39.5 21.7 39.4 21.4 39.3 21.3 C 39.1 21.1 38.7 21 38.2 21 C 37.9 21 37.6 21.1 37.4 21.2 C 37.2 21.4 37.1 21.6 37 21.9 Z M 39.5 23.5 C 39.3 23.6 38.9 23.7 38.4 23.8 C 37.8 23.9 37.5 24 37.3 24.1 C 37.1 24.3 36.9 24.5 36.9 24.8 C 36.9 25.1 37 25.3 37.2 25.5 C 37.4 25.7 37.7 25.8 38 25.8 C 38.4 25.8 38.7 25.7 39 25.5 C 39.2 25.3 39.4 25.1 39.5 24.8 C 39.5 24.7 39.5 24.3 39.5 23.9 C 39.5 23.9 39.5 23.5 39.5 23.5 Z M 42.4 19.7 L 44.5 19.7 L 46.2 24.9 L 47.9 19.7 L 49.9 19.7 L 47.3 26.7 C 47.3 26.7 46.85 27.98 46.9 28 C 46.7 28.4 46.5 28.7 46.4 29 C 46.2 29.2 46 29.4 45.8 29.5 C 45.6 29.6 45.4 29.7 45.1 29.8 C 44.8 29.9 44.5 29.9 44.1 29.9 C 43.8 29.9 43.4 29.9 43 29.8 C 43 29.8 42.9 28.3 42.9 28.3 C 43.2 28.4 43.4 28.4 43.7 28.4 C 44.1 28.4 44.5 28.3 44.7 28 C 44.9 27.8 45.1 27.4 45.2 27 C 45.17 27.01 42.4 19.7 42.4 19.7 Z M 50.4 24.9 C 50.4 24.9 52.4 24.6 52.4 24.6 C 52.4 25 52.6 25.3 52.9 25.5 C 53.1 25.7 53.5 25.8 53.9 25.8 C 54.4 25.8 54.8 25.7 55 25.5 C 55.2 25.4 55.3 25.2 55.3 25 C 55.3 24.8 55.2 24.7 55.1 24.6 C 55 24.5 54.8 24.4 54.5 24.4 C 53 24 52 23.7 51.6 23.4 C 51 23 50.7 22.5 50.7 21.8 C 50.7 21.2 50.9 20.6 51.4 20.2 C 51.9 19.8 52.7 19.6 53.8 19.6 C 54.7 19.6 55.5 19.7 56 20.1 C 56.4 20.4 56.8 20.9 57 21.5 C 57 21.5 55.2 21.8 55.2 21.8 C 55.1 21.5 54.9 21.3 54.7 21.2 C 54.5 21 54.2 20.9 53.8 20.9 C 53.3 20.9 52.9 21 52.7 21.2 C 52.6 21.3 52.5 21.4 52.5 21.6 C 52.5 21.7 52.5 21.8 52.7 21.9 C 52.8 22 53.4 22.2 54.5 22.4 C 55.5 22.7 56.2 23 56.6 23.3 C 57 23.6 57.2 24.1 57.2 24.7 C 57.2 25.4 56.9 26 56.4 26.4 C 55.8 26.9 55 27.2 53.9 27.2 C 52.9 27.2 52.1 27 51.6 26.6 C 51 26.2 50.6 25.6 50.4 24.9 Z " stroke="none" fill="#000"/>  </g>  <g id="Polygon106492">    <path d="M 6.8 10.2 L 6.8 0.2 C 6.8 0.2 11.04 0.17 11 0.2 C 12.1 0.2 12.9 0.3 13.4 0.4 C 13.9 0.6 14.2 0.9 14.5 1.4 C 14.8 1.9 15 2.4 15 3 C 15 3.7 14.8 4.4 14.3 4.8 C 13.9 5.3 13.2 5.6 12.3 5.8 C 12.8 6 13.1 6.3 13.4 6.6 C 13.7 6.9 14.1 7.5 14.6 8.2 C 14.57 8.24 15.8 10.2 15.8 10.2 L 13.4 10.2 C 13.4 10.2 11.91 8.01 11.9 8 C 11.4 7.2 11 6.7 10.8 6.5 C 10.6 6.3 10.4 6.2 10.2 6.1 C 10 6 9.7 6 9.2 6 C 9.21 6.01 8.8 6 8.8 6 L 8.8 10.2 L 6.8 10.2 Z M 8.8 4.4 C 8.8 4.4 10.3 4.41 10.3 4.4 C 11.3 4.4 11.9 4.4 12.1 4.3 C 12.4 4.2 12.5 4.1 12.7 3.9 C 12.8 3.7 12.9 3.4 12.9 3.1 C 12.9 2.8 12.8 2.5 12.6 2.3 C 12.4 2.1 12.2 2 11.9 1.9 C 11.7 1.9 11.2 1.9 10.4 1.9 C 10.38 1.87 8.8 1.9 8.8 1.9 L 8.8 4.4 Z M 21.1 7.9 C 21.1 7.9 23 8.2 23 8.2 C 22.7 8.9 22.4 9.4 21.8 9.8 C 21.3 10.2 20.6 10.4 19.8 10.4 C 18.6 10.4 17.6 9.9 17 9.1 C 16.5 8.5 16.3 7.6 16.3 6.6 C 16.3 5.4 16.6 4.5 17.3 3.8 C 17.9 3.1 18.7 2.8 19.6 2.8 C 20.7 2.8 21.6 3.1 22.2 3.8 C 22.8 4.6 23.1 5.6 23.1 7.1 C 23.1 7.1 18.3 7.1 18.3 7.1 C 18.3 7.7 18.4 8.1 18.7 8.4 C 19 8.8 19.4 8.9 19.9 8.9 C 20.2 8.9 20.4 8.8 20.6 8.7 C 20.8 8.5 21 8.2 21.1 7.9 Z M 21.2 5.9 C 21.2 5.4 21 5 20.8 4.7 C 20.5 4.4 20.1 4.2 19.8 4.2 C 19.3 4.2 19 4.4 18.7 4.7 C 18.4 5 18.3 5.4 18.3 5.9 C 18.3 5.9 21.2 5.9 21.2 5.9 Z M 24 8.1 C 24 8.1 25.9 7.8 25.9 7.8 C 26 8.2 26.2 8.5 26.4 8.7 C 26.7 8.9 27 9 27.5 9 C 28 9 28.3 8.9 28.6 8.7 C 28.7 8.6 28.8 8.4 28.8 8.2 C 28.8 8 28.8 7.9 28.7 7.8 C 28.6 7.7 28.4 7.6 28.1 7.6 C 26.5 7.2 25.5 6.9 25.1 6.6 C 24.5 6.2 24.2 5.7 24.2 5 C 24.2 4.4 24.5 3.8 25 3.4 C 25.5 3 26.3 2.8 27.3 2.8 C 28.3 2.8 29 2.9 29.5 3.3 C 30 3.6 30.3 4.1 30.5 4.7 C 30.5 4.7 28.7 5 28.7 5 C 28.6 4.7 28.5 4.5 28.3 4.4 C 28 4.2 27.7 4.1 27.3 4.1 C 26.8 4.1 26.5 4.2 26.2 4.4 C 26.1 4.5 26 4.6 26 4.8 C 26 4.9 26.1 5 26.2 5.1 C 26.4 5.2 27 5.4 28 5.6 C 29 5.9 29.8 6.2 30.2 6.5 C 30.6 6.8 30.8 7.3 30.8 7.9 C 30.8 8.6 30.5 9.2 29.9 9.6 C 29.4 10.1 28.5 10.4 27.5 10.4 C 26.5 10.4 25.7 10.2 25.1 9.8 C 24.5 9.4 24.2 8.8 24 8.1 Z M 37.2 10.2 C 37.2 10.2 37.22 9.11 37.2 9.1 C 37 9.5 36.6 9.8 36.2 10 C 35.7 10.2 35.3 10.4 34.8 10.4 C 34.3 10.4 33.9 10.2 33.5 10 C 33.1 9.8 32.8 9.5 32.7 9.1 C 32.5 8.7 32.4 8.2 32.4 7.5 C 32.4 7.53 32.4 2.9 32.4 2.9 L 34.3 2.9 C 34.3 2.9 34.32 6.27 34.3 6.3 C 34.3 7.3 34.4 7.9 34.4 8.1 C 34.5 8.4 34.6 8.6 34.8 8.7 C 35 8.8 35.2 8.9 35.5 8.9 C 35.9 8.9 36.1 8.8 36.4 8.6 C 36.7 8.4 36.8 8.2 36.9 8 C 37 7.7 37.1 7 37.1 6 C 37.08 6 37.1 2.9 37.1 2.9 L 39 2.9 L 39 10.2 L 37.2 10.2 Z M 41 10.2 L 41 0.2 L 42.9 0.2 L 42.9 10.2 L 41 10.2 Z M 48.2 2.9 L 48.2 4.5 L 46.9 4.5 C 46.9 4.5 46.9 7.39 46.9 7.4 C 46.9 8 46.9 8.3 46.9 8.4 C 47 8.5 47 8.6 47.1 8.7 C 47.2 8.7 47.3 8.8 47.4 8.8 C 47.6 8.8 47.9 8.7 48.2 8.6 C 48.2 8.6 48.4 10.1 48.4 10.1 C 47.9 10.3 47.4 10.4 46.9 10.4 C 46.5 10.4 46.2 10.3 45.9 10.2 C 45.6 10.1 45.4 9.9 45.3 9.7 C 45.2 9.5 45.1 9.3 45 9 C 45 8.8 45 8.3 45 7.6 C 44.97 7.63 45 4.5 45 4.5 L 44.1 4.5 L 44.1 2.9 L 45 2.9 L 45 1.5 L 46.9 0.4 L 46.9 2.9 L 48.2 2.9 Z M 53.4 1.9 L 53.4 0.2 L 55.4 0.2 L 55.4 1.9 L 53.4 1.9 Z M 53.4 10.2 L 53.4 2.9 L 55.4 2.9 L 55.4 10.2 L 53.4 10.2 Z M 63.9 10.2 L 62 10.2 C 62 10.2 62.01 6.49 62 6.5 C 62 5.7 62 5.2 61.9 5 C 61.8 4.7 61.7 4.6 61.5 4.4 C 61.3 4.3 61.1 4.2 60.8 4.2 C 60.5 4.2 60.2 4.3 59.9 4.5 C 59.7 4.7 59.5 4.9 59.4 5.2 C 59.3 5.5 59.2 6.1 59.2 6.9 C 59.23 6.9 59.2 10.2 59.2 10.2 L 57.3 10.2 L 57.3 2.9 L 59.1 2.9 C 59.1 2.9 59.1 4 59.1 4 C 59.7 3.2 60.5 2.8 61.5 2.8 C 61.9 2.8 62.3 2.8 62.7 3 C 63 3.2 63.3 3.3 63.4 3.6 C 63.6 3.8 63.8 4.1 63.8 4.4 C 63.9 4.7 63.9 5.1 63.9 5.7 C 63.93 5.68 63.9 10.2 63.9 10.2 Z " stroke="none" fill="#000"/>  </g></svg>