<?xml version="1.0" standalone="no"?><!DOCTYPE svg PUBLIC "-//W3C//DTD SVG 1.1//EN" "http://www.w3.org/Graphics/SVG/1.1/DTD/svg11.dtd"><svg xmlns="http://www.w3.org/2000/svg" version="1.1" width="87px" height="23.9px" viewBox="0 -5 87 23.9" style="top:-5px">  <desc>Flexibility</desc>  <defs/>  <g id="Polygon138467">    <path d="M 15.7 10.2 L 15.7 0.2 L 22.5 0.2 L 22.5 1.4 L 17 1.4 L 17 4.5 L 21.7 4.5 L 21.7 5.6 L 17 5.6 L 17 10.2 L 15.7 10.2 Z M 24 10.2 L 24 0.2 L 25.2 0.2 L 25.2 10.2 L 24 10.2 Z M 32.1 7.9 C 32.1 7.9 33.4 8 33.4 8 C 33.2 8.8 32.8 9.3 32.3 9.7 C 31.7 10.2 31 10.4 30.2 10.4 C 29.1 10.4 28.3 10 27.7 9.4 C 27 8.7 26.7 7.8 26.7 6.6 C 26.7 5.4 27 4.5 27.7 3.8 C 28.3 3.1 29.1 2.8 30.1 2.8 C 31.1 2.8 31.9 3.1 32.5 3.8 C 33.1 4.4 33.4 5.4 33.4 6.5 C 33.4 6.6 33.4 6.7 33.4 6.9 C 33.4 6.9 28 6.9 28 6.9 C 28 7.7 28.3 8.3 28.7 8.7 C 29.1 9.1 29.6 9.3 30.2 9.3 C 30.6 9.3 31 9.2 31.4 9 C 31.7 8.8 31.9 8.4 32.1 7.9 Z M 28.1 5.9 C 28.1 5.9 32.1 5.9 32.1 5.9 C 32.1 5.3 31.9 4.8 31.7 4.5 C 31.3 4 30.8 3.8 30.1 3.8 C 29.6 3.8 29.1 4 28.7 4.3 C 28.3 4.7 28.1 5.2 28.1 5.9 Z M 34.1 10.2 L 36.8 6.4 L 34.3 2.9 L 35.8 2.9 C 35.8 2.9 36.96 4.63 37 4.6 C 37.2 5 37.3 5.2 37.5 5.4 C 37.7 5.1 37.8 4.9 38 4.6 C 38.02 4.65 39.2 2.9 39.2 2.9 L 40.7 2.9 L 38.2 6.4 L 40.9 10.2 L 39.4 10.2 L 37.9 7.9 L 37.5 7.3 L 35.6 10.2 L 34.1 10.2 Z M 41.9 1.6 L 41.9 0.2 L 43.2 0.2 L 43.2 1.6 L 41.9 1.6 Z M 41.9 10.2 L 41.9 2.9 L 43.2 2.9 L 43.2 10.2 L 41.9 10.2 Z M 46.2 10.2 L 45 10.2 L 45 0.2 L 46.3 0.2 C 46.3 0.2 46.26 3.75 46.3 3.7 C 46.8 3.1 47.4 2.8 48.3 2.8 C 48.7 2.8 49.1 2.9 49.5 3 C 49.9 3.2 50.2 3.5 50.5 3.8 C 50.8 4.1 51 4.5 51.1 5 C 51.3 5.4 51.3 5.9 51.3 6.5 C 51.3 7.7 51 8.7 50.4 9.3 C 49.8 10 49.1 10.4 48.2 10.4 C 47.3 10.4 46.7 10 46.2 9.3 C 46.17 9.28 46.2 10.2 46.2 10.2 Z M 46.2 6.5 C 46.2 7.4 46.3 8 46.5 8.4 C 46.9 9 47.4 9.3 48.1 9.3 C 48.6 9.3 49.1 9.1 49.5 8.6 C 49.9 8.2 50.1 7.5 50.1 6.6 C 50.1 5.6 49.9 4.9 49.5 4.5 C 49.1 4 48.7 3.8 48.1 3.8 C 47.6 3.8 47.1 4 46.7 4.5 C 46.4 4.9 46.2 5.6 46.2 6.5 Z M 52.8 1.6 L 52.8 0.2 L 54.1 0.2 L 54.1 1.6 L 52.8 1.6 Z M 52.8 10.2 L 52.8 2.9 L 54.1 2.9 L 54.1 10.2 L 52.8 10.2 Z M 55.9 10.2 L 55.9 0.2 L 57.1 0.2 L 57.1 10.2 L 55.9 10.2 Z M 59.1 1.6 L 59.1 0.2 L 60.3 0.2 L 60.3 1.6 L 59.1 1.6 Z M 59.1 10.2 L 59.1 2.9 L 60.3 2.9 L 60.3 10.2 L 59.1 10.2 Z M 64.3 9.1 C 64.4 9.1 64.6 9.1 64.8 9.1 C 64.8 9.1 65 10.2 65 10.2 C 64.7 10.3 64.4 10.3 64.1 10.3 C 63.6 10.3 63.3 10.2 63.1 10.1 C 62.8 9.9 62.6 9.7 62.5 9.5 C 62.4 9.3 62.4 8.8 62.4 8.1 C 62.38 8.07 62.4 3.9 62.4 3.9 L 61.5 3.9 L 61.5 2.9 L 62.4 2.9 L 62.4 1.1 L 63.6 0.4 L 63.6 2.9 L 64.8 2.9 L 64.8 3.9 L 63.6 3.9 C 63.6 3.9 63.61 8.13 63.6 8.1 C 63.6 8.5 63.6 8.7 63.7 8.8 C 63.7 8.9 63.8 9 63.9 9.1 C 64 9.1 64.1 9.1 64.3 9.1 C 64.3 9.1 64.3 9.1 64.3 9.1 Z M 66.8 13.1 C 66.5 13.1 66.3 13.1 66 13 C 66 13 65.9 11.8 65.9 11.8 C 66.1 11.9 66.4 11.9 66.6 11.9 C 66.8 11.9 67.1 11.9 67.2 11.8 C 67.4 11.7 67.5 11.6 67.6 11.4 C 67.7 11.3 67.8 11 68 10.5 C 68 10.4 68.1 10.3 68.1 10.2 C 68.1 10.21 65.3 2.9 65.3 2.9 L 66.7 2.9 C 66.7 2.9 68.19 7.14 68.2 7.1 C 68.4 7.7 68.6 8.2 68.7 8.8 C 68.9 8.3 69 7.7 69.2 7.2 C 69.22 7.16 70.8 2.9 70.8 2.9 L 72 2.9 C 72 2.9 69.24 10.32 69.2 10.3 C 68.9 11.1 68.7 11.7 68.5 12 C 68.3 12.4 68.1 12.7 67.8 12.9 C 67.5 13 67.2 13.1 66.8 13.1 C 66.8 13.1 66.8 13.1 66.8 13.1 Z " stroke="none" fill="#fff"/>  </g></svg>