<?xml version="1.0" standalone="no"?><!DOCTYPE svg PUBLIC "-//W3C//DTD SVG 1.1//EN" "http://www.w3.org/Graphics/SVG/1.1/DTD/svg11.dtd"><svg xmlns="http://www.w3.org/2000/svg" version="1.1" width="150px" height="23.9px" viewBox="0 -5 150 23.9" style="top:-5px">  <desc>www.dswlearning.co.uk</desc>  <defs/>  <g id="Polygon108470">    <path d="M 2.3 10.2 L 0 2.9 L 1.3 2.9 L 2.5 7.1 C 2.5 7.1 2.9 8.68 2.9 8.7 C 2.9 8.6 3 8.1 3.3 7.2 C 3.27 7.18 4.4 2.9 4.4 2.9 L 5.7 2.9 L 6.8 7.1 L 7.1 8.5 L 7.6 7.1 L 8.8 2.9 L 10 2.9 L 7.7 10.2 L 6.5 10.2 L 5.3 5.8 L 5 4.6 L 3.5 10.2 L 2.3 10.2 Z M 12.4 10.2 L 10.2 2.9 L 11.4 2.9 L 12.6 7.1 C 12.6 7.1 13.01 8.68 13 8.7 C 13 8.6 13.2 8.1 13.4 7.2 C 13.38 7.18 14.5 2.9 14.5 2.9 L 15.8 2.9 L 16.9 7.1 L 17.3 8.5 L 17.7 7.1 L 18.9 2.9 L 20.1 2.9 L 17.8 10.2 L 16.6 10.2 L 15.4 5.8 L 15.1 4.6 L 13.7 10.2 L 12.4 10.2 Z M 22.5 10.2 L 20.3 2.9 L 21.5 2.9 L 22.7 7.1 C 22.7 7.1 23.12 8.68 23.1 8.7 C 23.1 8.6 23.3 8.1 23.5 7.2 C 23.5 7.18 24.7 2.9 24.7 2.9 L 25.9 2.9 L 27 7.1 L 27.4 8.5 L 27.8 7.1 L 29 2.9 L 30.2 2.9 L 28 10.2 L 26.7 10.2 L 25.5 5.8 L 25.2 4.6 L 23.8 10.2 L 22.5 10.2 Z M 30.8 10.2 L 30.8 8.8 L 32.2 8.8 L 32.2 10.2 L 30.8 10.2 Z M 39.1 10.2 C 39.1 10.2 39.08 9.28 39.1 9.3 C 38.6 10 37.9 10.4 37.1 10.4 C 36.5 10.4 35.9 10.2 35.5 9.9 C 35 9.6 34.6 9.1 34.3 8.5 C 34.1 8 33.9 7.3 33.9 6.6 C 33.9 5.8 34 5.2 34.3 4.6 C 34.5 4 34.9 3.6 35.4 3.2 C 35.9 2.9 36.4 2.8 37 2.8 C 37.4 2.8 37.8 2.9 38.2 3 C 38.5 3.2 38.8 3.5 39 3.8 C 39 3.77 39 0.2 39 0.2 L 40.2 0.2 L 40.2 10.2 L 39.1 10.2 Z M 35.2 6.6 C 35.2 7.5 35.4 8.2 35.8 8.7 C 36.2 9.1 36.6 9.3 37.2 9.3 C 37.7 9.3 38.2 9.1 38.5 8.7 C 38.9 8.2 39.1 7.6 39.1 6.7 C 39.1 5.7 38.9 4.9 38.5 4.5 C 38.1 4 37.7 3.8 37.1 3.8 C 36.6 3.8 36.1 4 35.7 4.5 C 35.4 4.9 35.2 5.6 35.2 6.6 Z M 41.7 8 C 41.7 8 42.9 7.8 42.9 7.8 C 43 8.3 43.1 8.7 43.5 9 C 43.8 9.2 44.2 9.3 44.8 9.3 C 45.3 9.3 45.7 9.2 46 9 C 46.3 8.8 46.4 8.5 46.4 8.2 C 46.4 7.9 46.3 7.7 46.1 7.5 C 45.9 7.4 45.5 7.3 44.8 7.1 C 43.9 6.9 43.3 6.7 42.9 6.5 C 42.6 6.4 42.3 6.1 42.1 5.8 C 42 5.5 41.9 5.2 41.9 4.9 C 41.9 4.5 41.9 4.2 42.1 4 C 42.2 3.7 42.4 3.5 42.7 3.3 C 42.9 3.1 43.1 3 43.5 2.9 C 43.8 2.8 44.2 2.8 44.5 2.8 C 45.1 2.8 45.6 2.9 46 3 C 46.5 3.2 46.8 3.4 47 3.7 C 47.2 4 47.3 4.3 47.4 4.8 C 47.4 4.8 46.2 5 46.2 5 C 46.2 4.6 46 4.3 45.7 4.1 C 45.5 3.9 45.1 3.8 44.6 3.8 C 44.1 3.8 43.7 3.9 43.4 4.1 C 43.2 4.2 43.1 4.5 43.1 4.7 C 43.1 4.9 43.1 5 43.2 5.1 C 43.3 5.3 43.5 5.4 43.7 5.5 C 43.8 5.5 44.2 5.6 44.8 5.8 C 45.6 6 46.2 6.2 46.6 6.4 C 46.9 6.5 47.2 6.7 47.4 7 C 47.6 7.3 47.7 7.6 47.7 8.1 C 47.7 8.5 47.6 8.9 47.3 9.2 C 47.1 9.6 46.8 9.9 46.3 10.1 C 45.8 10.3 45.3 10.4 44.8 10.4 C 43.8 10.4 43.1 10.2 42.6 9.8 C 42.1 9.4 41.8 8.8 41.7 8 Z M 50.5 10.2 L 48.3 2.9 L 49.5 2.9 L 50.7 7.1 C 50.7 7.1 51.13 8.68 51.1 8.7 C 51.2 8.6 51.3 8.1 51.5 7.2 C 51.51 7.18 52.7 2.9 52.7 2.9 L 53.9 2.9 L 55 7.1 L 55.4 8.5 L 55.8 7.1 L 57 2.9 L 58.2 2.9 L 56 10.2 L 54.7 10.2 L 53.5 5.8 L 53.3 4.6 L 51.8 10.2 L 50.5 10.2 Z M 59.2 10.2 L 59.2 0.2 L 60.5 0.2 L 60.5 10.2 L 59.2 10.2 Z M 67.3 7.9 C 67.3 7.9 68.6 8 68.6 8 C 68.4 8.8 68 9.3 67.5 9.7 C 67 10.2 66.3 10.4 65.4 10.4 C 64.4 10.4 63.5 10 62.9 9.4 C 62.3 8.7 62 7.8 62 6.6 C 62 5.4 62.3 4.5 62.9 3.8 C 63.5 3.1 64.4 2.8 65.4 2.8 C 66.3 2.8 67.1 3.1 67.7 3.8 C 68.4 4.4 68.7 5.4 68.7 6.5 C 68.7 6.6 68.7 6.7 68.7 6.9 C 68.7 6.9 63.2 6.9 63.2 6.9 C 63.3 7.7 63.5 8.3 63.9 8.7 C 64.3 9.1 64.8 9.3 65.4 9.3 C 65.9 9.3 66.3 9.2 66.6 9 C 66.9 8.8 67.2 8.4 67.3 7.9 Z M 63.3 5.9 C 63.3 5.9 67.4 5.9 67.4 5.9 C 67.3 5.3 67.2 4.8 66.9 4.5 C 66.5 4 66 3.8 65.4 3.8 C 64.8 3.8 64.3 4 63.9 4.3 C 63.6 4.7 63.3 5.2 63.3 5.9 Z M 75.1 10.2 C 75 9.9 74.9 9.6 74.9 9.3 C 74.4 9.7 74 10 73.6 10.1 C 73.2 10.3 72.7 10.4 72.2 10.4 C 71.4 10.4 70.8 10.2 70.4 9.8 C 70 9.4 69.7 8.9 69.7 8.3 C 69.7 7.9 69.8 7.6 70 7.3 C 70.2 7 70.4 6.8 70.6 6.6 C 70.9 6.4 71.2 6.3 71.5 6.2 C 71.8 6.1 72.1 6.1 72.6 6 C 73.6 5.9 74.3 5.7 74.8 5.6 C 74.8 5.4 74.8 5.3 74.8 5.3 C 74.8 4.8 74.7 4.4 74.5 4.2 C 74.1 3.9 73.7 3.8 73.1 3.8 C 72.5 3.8 72 3.9 71.8 4.1 C 71.5 4.3 71.3 4.7 71.2 5.2 C 71.2 5.2 70 5 70 5 C 70.1 4.5 70.2 4.1 70.5 3.8 C 70.7 3.4 71.1 3.2 71.6 3 C 72.1 2.9 72.6 2.8 73.2 2.8 C 73.9 2.8 74.4 2.8 74.7 3 C 75.1 3.1 75.4 3.3 75.6 3.5 C 75.8 3.8 75.9 4 76 4.4 C 76 4.6 76 5 76 5.5 C 76 5.5 76 7.2 76 7.2 C 76 8.3 76.1 9 76.1 9.3 C 76.2 9.6 76.3 9.9 76.4 10.2 C 76.43 10.19 75.1 10.2 75.1 10.2 C 75.1 10.2 75.15 10.19 75.1 10.2 Z M 74.8 6.5 C 74.4 6.7 73.7 6.9 72.8 7 C 72.3 7.1 71.9 7.2 71.7 7.3 C 71.5 7.4 71.3 7.5 71.2 7.7 C 71.1 7.8 71.1 8 71.1 8.2 C 71.1 8.6 71.2 8.8 71.4 9.1 C 71.7 9.3 72 9.4 72.5 9.4 C 73 9.4 73.4 9.3 73.8 9.1 C 74.2 8.9 74.4 8.6 74.6 8.2 C 74.7 8 74.8 7.5 74.8 7 C 74.8 7 74.8 6.5 74.8 6.5 Z M 77.9 10.2 L 77.9 2.9 L 79 2.9 C 79 2.9 79.04 4.03 79 4 C 79.3 3.5 79.6 3.2 79.8 3 C 80.1 2.9 80.3 2.8 80.6 2.8 C 81 2.8 81.5 2.9 81.9 3.2 C 81.9 3.2 81.5 4.3 81.5 4.3 C 81.2 4.1 80.9 4 80.6 4 C 80.3 4 80 4.1 79.8 4.3 C 79.6 4.4 79.5 4.7 79.4 5 C 79.2 5.4 79.2 5.9 79.2 6.4 C 79.17 6.39 79.2 10.2 79.2 10.2 L 77.9 10.2 Z M 82.6 10.2 L 82.6 2.9 L 83.7 2.9 C 83.7 2.9 83.72 3.96 83.7 4 C 84.3 3.2 85 2.8 86 2.8 C 86.5 2.8 86.9 2.8 87.2 3 C 87.6 3.2 87.9 3.4 88.1 3.6 C 88.2 3.9 88.4 4.2 88.4 4.5 C 88.5 4.8 88.5 5.2 88.5 5.7 C 88.51 5.73 88.5 10.2 88.5 10.2 L 87.3 10.2 C 87.3 10.2 87.28 5.78 87.3 5.8 C 87.3 5.3 87.2 4.9 87.1 4.7 C 87 4.4 86.9 4.2 86.6 4.1 C 86.4 3.9 86.1 3.8 85.8 3.8 C 85.2 3.8 84.8 4 84.4 4.3 C 84 4.7 83.8 5.3 83.8 6.2 C 83.84 6.23 83.8 10.2 83.8 10.2 L 82.6 10.2 Z M 90.4 1.6 L 90.4 0.2 L 91.6 0.2 L 91.6 1.6 L 90.4 1.6 Z M 90.4 10.2 L 90.4 2.9 L 91.6 2.9 L 91.6 10.2 L 90.4 10.2 Z M 93.5 10.2 L 93.5 2.9 L 94.6 2.9 C 94.6 2.9 94.62 3.96 94.6 4 C 95.1 3.2 95.9 2.8 96.9 2.8 C 97.4 2.8 97.8 2.8 98.1 3 C 98.5 3.2 98.8 3.4 99 3.6 C 99.1 3.9 99.3 4.2 99.3 4.5 C 99.4 4.8 99.4 5.2 99.4 5.7 C 99.41 5.73 99.4 10.2 99.4 10.2 L 98.2 10.2 C 98.2 10.2 98.18 5.78 98.2 5.8 C 98.2 5.3 98.1 4.9 98 4.7 C 97.9 4.4 97.8 4.2 97.5 4.1 C 97.3 3.9 97 3.8 96.7 3.8 C 96.1 3.8 95.7 4 95.3 4.3 C 94.9 4.7 94.7 5.3 94.7 6.2 C 94.74 6.23 94.7 10.2 94.7 10.2 L 93.5 10.2 Z M 101.1 10.8 C 101.1 10.8 102.3 11 102.3 11 C 102.3 11.3 102.5 11.6 102.7 11.8 C 103 12 103.4 12.1 103.9 12.1 C 104.5 12.1 104.9 12 105.3 11.8 C 105.6 11.6 105.8 11.2 105.9 10.8 C 105.9 10.6 106 10 106 9.2 C 105.4 9.9 104.8 10.2 104 10.2 C 103 10.2 102.2 9.8 101.6 9.1 C 101.1 8.4 100.8 7.5 100.8 6.5 C 100.8 5.8 100.9 5.2 101.2 4.6 C 101.4 4 101.8 3.6 102.3 3.2 C 102.8 2.9 103.3 2.8 104 2.8 C 104.8 2.8 105.5 3.1 106.1 3.8 C 106.09 3.81 106.1 2.9 106.1 2.9 L 107.2 2.9 C 107.2 2.9 107.22 9.21 107.2 9.2 C 107.2 10.3 107.1 11.1 106.9 11.6 C 106.6 12.1 106.3 12.5 105.8 12.7 C 105.3 13 104.7 13.1 103.9 13.1 C 103.1 13.1 102.4 12.9 101.8 12.6 C 101.3 12.2 101.1 11.6 101.1 10.8 Z M 102.1 6.4 C 102.1 7.4 102.3 8.1 102.7 8.5 C 103 9 103.5 9.2 104.1 9.2 C 104.6 9.2 105.1 9 105.5 8.5 C 105.9 8.1 106.1 7.4 106.1 6.5 C 106.1 5.6 105.9 4.9 105.5 4.5 C 105.1 4 104.6 3.8 104.1 3.8 C 103.5 3.8 103 4 102.7 4.5 C 102.3 4.9 102.1 5.6 102.1 6.4 Z M 109.4 10.2 L 109.4 8.8 L 110.8 8.8 L 110.8 10.2 L 109.4 10.2 Z M 117.7 7.5 C 117.7 7.5 118.9 7.7 118.9 7.7 C 118.8 8.5 118.4 9.2 117.9 9.6 C 117.4 10.1 116.7 10.4 115.9 10.4 C 114.9 10.4 114.1 10 113.5 9.4 C 112.9 8.7 112.6 7.8 112.6 6.6 C 112.6 5.8 112.7 5.1 113 4.5 C 113.2 3.9 113.6 3.5 114.2 3.2 C 114.7 2.9 115.3 2.8 115.9 2.8 C 116.7 2.8 117.3 3 117.8 3.4 C 118.3 3.8 118.7 4.3 118.8 5.1 C 118.8 5.1 117.6 5.3 117.6 5.3 C 117.5 4.8 117.3 4.4 117 4.1 C 116.7 3.9 116.4 3.8 116 3.8 C 115.3 3.8 114.8 4 114.4 4.4 C 114.1 4.9 113.9 5.6 113.9 6.6 C 113.9 7.5 114 8.2 114.4 8.7 C 114.8 9.1 115.3 9.3 115.9 9.3 C 116.4 9.3 116.8 9.2 117.1 8.9 C 117.4 8.6 117.6 8.1 117.7 7.5 Z M 119.5 6.6 C 119.5 5.2 119.9 4.2 120.6 3.6 C 121.3 3 122 2.8 122.9 2.8 C 123.9 2.8 124.7 3.1 125.4 3.7 C 126 4.4 126.3 5.3 126.3 6.5 C 126.3 7.4 126.2 8.1 125.9 8.7 C 125.6 9.2 125.2 9.6 124.7 9.9 C 124.1 10.2 123.6 10.4 122.9 10.4 C 121.9 10.4 121.1 10 120.5 9.4 C 119.8 8.7 119.5 7.8 119.5 6.6 Z M 120.8 6.6 C 120.8 7.5 121 8.2 121.4 8.7 C 121.8 9.1 122.3 9.3 122.9 9.3 C 123.5 9.3 124 9.1 124.4 8.6 C 124.8 8.2 125 7.5 125 6.5 C 125 5.6 124.8 4.9 124.4 4.5 C 124 4 123.5 3.8 122.9 3.8 C 122.3 3.8 121.8 4 121.4 4.5 C 121 4.9 120.8 5.6 120.8 6.6 Z M 128.1 10.2 L 128.1 8.8 L 129.5 8.8 L 129.5 10.2 L 128.1 10.2 Z M 136.4 10.2 C 136.4 10.2 136.4 9.13 136.4 9.1 C 135.8 9.9 135.1 10.4 134.1 10.4 C 133.7 10.4 133.3 10.3 132.9 10.1 C 132.5 9.9 132.3 9.7 132.1 9.5 C 131.9 9.2 131.8 8.9 131.7 8.6 C 131.6 8.3 131.6 8 131.6 7.4 C 131.62 7.43 131.6 2.9 131.6 2.9 L 132.8 2.9 C 132.8 2.9 132.85 6.96 132.8 7 C 132.8 7.6 132.9 8 132.9 8.3 C 133 8.6 133.2 8.8 133.4 9 C 133.7 9.2 134 9.3 134.3 9.3 C 134.7 9.3 135.1 9.2 135.4 9 C 135.7 8.8 135.9 8.6 136.1 8.2 C 136.2 7.9 136.3 7.4 136.3 6.8 C 136.27 6.82 136.3 2.9 136.3 2.9 L 137.5 2.9 L 137.5 10.2 L 136.4 10.2 Z M 139.4 10.2 L 139.4 0.2 L 140.7 0.2 L 140.7 5.9 L 143.6 2.9 L 145.2 2.9 L 142.4 5.6 L 145.5 10.2 L 143.9 10.2 L 141.5 6.5 L 140.7 7.3 L 140.7 10.2 L 139.4 10.2 Z " stroke="none" fill="#e4007e"/>  </g></svg>