<?xml version="1.0" standalone="no"?><!DOCTYPE svg PUBLIC "-//W3C//DTD SVG 1.1//EN" "http://www.w3.org/Graphics/SVG/1.1/DTD/svg11.dtd"><svg xmlns="http://www.w3.org/2000/svg" version="1.1" width="19.5px" height="23.9px" viewBox="0 -5 19.5 23.9" style="top:-5px">  <desc>4.8</desc>  <defs/>  <g id="Polygon138717">    <path d="M 4.4 10.2 L 4.4 8.2 L 0.3 8.2 L 0.3 6.5 L 4.6 0.1 L 6.2 0.1 L 6.2 6.5 L 7.5 6.5 L 7.5 8.2 L 6.2 8.2 L 6.2 10.2 L 4.4 10.2 Z M 4.4 6.5 L 4.4 3.1 L 2.1 6.5 L 4.4 6.5 Z M 8.8 10.2 L 8.8 8.3 L 10.7 8.3 L 10.7 10.2 L 8.8 10.2 Z M 13.9 4.8 C 13.4 4.6 13.1 4.3 12.8 3.9 C 12.6 3.6 12.5 3.2 12.5 2.7 C 12.5 2 12.8 1.3 13.3 0.9 C 13.8 0.4 14.5 0.1 15.5 0.1 C 16.5 0.1 17.2 0.4 17.7 0.9 C 18.2 1.3 18.5 2 18.5 2.7 C 18.5 3.2 18.4 3.6 18.1 4 C 17.9 4.3 17.6 4.6 17.1 4.8 C 17.7 5 18.1 5.3 18.4 5.8 C 18.7 6.2 18.8 6.7 18.8 7.2 C 18.8 8.2 18.5 8.9 17.9 9.5 C 17.4 10.1 16.6 10.4 15.6 10.4 C 14.7 10.4 13.9 10.1 13.3 9.7 C 12.6 9.1 12.2 8.3 12.2 7.3 C 12.2 6.8 12.4 6.3 12.6 5.8 C 12.9 5.4 13.3 5 13.9 4.8 Z M 14.3 2.9 C 14.3 3.2 14.4 3.5 14.6 3.7 C 14.9 4 15.1 4.1 15.5 4.1 C 15.9 4.1 16.2 4 16.4 3.7 C 16.6 3.5 16.7 3.2 16.7 2.8 C 16.7 2.5 16.6 2.2 16.4 2 C 16.2 1.8 15.9 1.7 15.5 1.7 C 15.2 1.7 14.9 1.8 14.6 2 C 14.4 2.2 14.3 2.5 14.3 2.9 Z M 14.1 7.1 C 14.1 7.7 14.3 8.1 14.5 8.4 C 14.8 8.7 15.2 8.8 15.6 8.8 C 16 8.8 16.3 8.7 16.5 8.4 C 16.8 8.1 16.9 7.7 16.9 7.2 C 16.9 6.7 16.8 6.3 16.5 6 C 16.3 5.7 15.9 5.6 15.5 5.6 C 15.1 5.6 14.7 5.8 14.5 6.1 C 14.3 6.4 14.1 6.8 14.1 7.1 Z " stroke="none" fill="#ffffff"/>  </g></svg>