<?xml version="1.0" standalone="no"?><!DOCTYPE svg PUBLIC "-//W3C//DTD SVG 1.1//EN" "http://www.w3.org/Graphics/SVG/1.1/DTD/svg11.dtd"><svg xmlns="http://www.w3.org/2000/svg" version="1.1" width="113.5px" height="40.9px" viewBox="0 -5 113.5 40.9" style="top:-5px">  <desc>No Registration Fees</desc>  <defs/>  <g id="Polygon107774">    <path d="M 41.8 27 L 41.8 17 L 48.7 17 L 48.7 18.7 L 43.8 18.7 L 43.8 21 L 48 21 L 48 22.7 L 43.8 22.7 L 43.8 27 L 41.8 27 Z M 54.5 24.7 C 54.5 24.7 56.5 25 56.5 25 C 56.2 25.7 55.8 26.2 55.3 26.6 C 54.8 27 54.1 27.2 53.3 27.2 C 52 27.2 51.1 26.7 50.5 25.9 C 50 25.3 49.8 24.4 49.8 23.4 C 49.8 22.2 50.1 21.3 50.7 20.6 C 51.4 19.9 52.1 19.6 53.1 19.6 C 54.2 19.6 55 19.9 55.7 20.6 C 56.3 21.4 56.6 22.4 56.6 23.9 C 56.6 23.9 51.7 23.9 51.7 23.9 C 51.8 24.5 51.9 24.9 52.2 25.2 C 52.5 25.6 52.9 25.7 53.3 25.7 C 53.6 25.7 53.9 25.6 54.1 25.5 C 54.3 25.3 54.4 25 54.5 24.7 Z M 54.7 22.7 C 54.6 22.2 54.5 21.8 54.2 21.5 C 53.9 21.2 53.6 21 53.2 21 C 52.8 21 52.5 21.2 52.2 21.5 C 51.9 21.8 51.8 22.2 51.8 22.7 C 51.8 22.7 54.7 22.7 54.7 22.7 Z M 62.3 24.7 C 62.3 24.7 64.2 25 64.2 25 C 64 25.7 63.6 26.2 63.1 26.6 C 62.5 27 61.9 27.2 61.1 27.2 C 59.8 27.2 58.9 26.7 58.3 25.9 C 57.8 25.3 57.6 24.4 57.6 23.4 C 57.6 22.2 57.9 21.3 58.5 20.6 C 59.1 19.9 59.9 19.6 60.9 19.6 C 62 19.6 62.8 19.9 63.5 20.6 C 64.1 21.4 64.4 22.4 64.3 23.9 C 64.3 23.9 59.5 23.9 59.5 23.9 C 59.5 24.5 59.7 24.9 60 25.2 C 60.3 25.6 60.7 25.7 61.1 25.7 C 61.4 25.7 61.7 25.6 61.9 25.5 C 62.1 25.3 62.2 25 62.3 24.7 Z M 62.4 22.7 C 62.4 22.2 62.3 21.8 62 21.5 C 61.7 21.2 61.4 21 61 21 C 60.6 21 60.2 21.2 60 21.5 C 59.7 21.8 59.6 22.2 59.6 22.7 C 59.6 22.7 62.4 22.7 62.4 22.7 Z M 65.2 24.9 C 65.2 24.9 67.2 24.6 67.2 24.6 C 67.2 25 67.4 25.3 67.7 25.5 C 67.9 25.7 68.3 25.8 68.7 25.8 C 69.2 25.8 69.6 25.7 69.8 25.5 C 70 25.4 70.1 25.2 70.1 25 C 70.1 24.8 70 24.7 70 24.6 C 69.9 24.5 69.6 24.4 69.3 24.4 C 67.8 24 66.8 23.7 66.4 23.4 C 65.8 23 65.5 22.5 65.5 21.8 C 65.5 21.2 65.8 20.6 66.2 20.2 C 66.7 19.8 67.5 19.6 68.6 19.6 C 69.6 19.6 70.3 19.7 70.8 20.1 C 71.3 20.4 71.6 20.9 71.8 21.5 C 71.8 21.5 70 21.8 70 21.8 C 69.9 21.5 69.7 21.3 69.5 21.2 C 69.3 21 69 20.9 68.6 20.9 C 68.1 20.9 67.7 21 67.5 21.2 C 67.4 21.3 67.3 21.4 67.3 21.6 C 67.3 21.7 67.4 21.8 67.5 21.9 C 67.7 22 68.2 22.2 69.3 22.4 C 70.3 22.7 71 23 71.4 23.3 C 71.8 23.6 72 24.1 72 24.7 C 72 25.4 71.7 26 71.2 26.4 C 70.6 26.9 69.8 27.2 68.7 27.2 C 67.7 27.2 66.9 27 66.4 26.6 C 65.8 26.2 65.4 25.6 65.2 24.9 Z " stroke="none" fill="#000"/>  </g>  <g id="Polygon107773">    <path d="M 5.7 10.2 L 5.7 0.2 L 7.6 0.2 L 11.7 6.9 L 11.7 0.2 L 13.6 0.2 L 13.6 10.2 L 11.6 10.2 L 7.5 3.7 L 7.5 10.2 L 5.7 10.2 Z M 15.3 6.5 C 15.3 5.8 15.5 5.2 15.8 4.6 C 16.1 4 16.5 3.6 17.1 3.2 C 17.7 2.9 18.3 2.8 19 2.8 C 20.1 2.8 21 3.1 21.7 3.8 C 22.4 4.6 22.8 5.5 22.8 6.5 C 22.8 7.6 22.4 8.6 21.7 9.3 C 21 10 20.1 10.4 19 10.4 C 18.4 10.4 17.7 10.2 17.1 9.9 C 16.5 9.6 16.1 9.2 15.8 8.6 C 15.5 8 15.3 7.3 15.3 6.5 Z M 17.3 6.6 C 17.3 7.3 17.4 7.8 17.8 8.2 C 18.1 8.6 18.5 8.8 19 8.8 C 19.5 8.8 20 8.6 20.3 8.2 C 20.6 7.8 20.8 7.3 20.8 6.5 C 20.8 5.8 20.6 5.3 20.3 4.9 C 20 4.5 19.5 4.3 19 4.3 C 18.5 4.3 18.1 4.5 17.8 4.9 C 17.4 5.3 17.3 5.8 17.3 6.6 Z M 28.2 10.2 L 28.2 0.2 C 28.2 0.2 32.46 0.17 32.5 0.2 C 33.5 0.2 34.3 0.3 34.8 0.4 C 35.3 0.6 35.7 0.9 36 1.4 C 36.3 1.9 36.4 2.4 36.4 3 C 36.4 3.7 36.2 4.4 35.7 4.8 C 35.3 5.3 34.6 5.6 33.8 5.8 C 34.2 6 34.6 6.3 34.8 6.6 C 35.1 6.9 35.5 7.5 36 8.2 C 35.99 8.24 37.2 10.2 37.2 10.2 L 34.8 10.2 C 34.8 10.2 33.33 8.01 33.3 8 C 32.8 7.2 32.5 6.7 32.3 6.5 C 32.1 6.3 31.9 6.2 31.7 6.1 C 31.4 6 31.1 6 30.6 6 C 30.64 6.01 30.2 6 30.2 6 L 30.2 10.2 L 28.2 10.2 Z M 30.2 4.4 C 30.2 4.4 31.72 4.41 31.7 4.4 C 32.7 4.4 33.3 4.4 33.5 4.3 C 33.8 4.2 34 4.1 34.1 3.9 C 34.2 3.7 34.3 3.4 34.3 3.1 C 34.3 2.8 34.2 2.5 34 2.3 C 33.9 2.1 33.6 2 33.3 1.9 C 33.1 1.9 32.6 1.9 31.8 1.9 C 31.8 1.87 30.2 1.9 30.2 1.9 L 30.2 4.4 Z M 42.5 7.9 C 42.5 7.9 44.4 8.2 44.4 8.2 C 44.2 8.9 43.8 9.4 43.2 9.8 C 42.7 10.2 42 10.4 41.3 10.4 C 40 10.4 39.1 9.9 38.4 9.1 C 38 8.5 37.7 7.6 37.7 6.6 C 37.7 5.4 38 4.5 38.7 3.8 C 39.3 3.1 40.1 2.8 41.1 2.8 C 42.1 2.8 43 3.1 43.6 3.8 C 44.2 4.6 44.5 5.6 44.5 7.1 C 44.5 7.1 39.7 7.1 39.7 7.1 C 39.7 7.7 39.9 8.1 40.2 8.4 C 40.5 8.8 40.8 8.9 41.3 8.9 C 41.6 8.9 41.8 8.8 42 8.7 C 42.2 8.5 42.4 8.2 42.5 7.9 Z M 42.6 5.9 C 42.6 5.4 42.4 5 42.2 4.7 C 41.9 4.4 41.6 4.2 41.2 4.2 C 40.8 4.2 40.4 4.4 40.1 4.7 C 39.9 5 39.7 5.4 39.7 5.9 C 39.7 5.9 42.6 5.9 42.6 5.9 Z M 45.9 10.9 C 45.9 10.8 45.9 10.8 45.9 10.7 C 45.9 10.7 48.1 10.9 48.1 10.9 C 48.1 11.2 48.2 11.4 48.3 11.5 C 48.5 11.6 48.8 11.7 49.2 11.7 C 49.7 11.7 50.1 11.6 50.3 11.4 C 50.5 11.3 50.6 11.2 50.7 11 C 50.8 10.8 50.8 10.5 50.8 10.1 C 50.8 10.1 50.8 9 50.8 9 C 50.2 9.8 49.5 10.2 48.6 10.2 C 47.7 10.2 46.9 9.8 46.3 9 C 45.9 8.3 45.6 7.5 45.6 6.5 C 45.6 5.3 45.9 4.4 46.5 3.7 C 47.1 3.1 47.8 2.8 48.7 2.8 C 49.6 2.8 50.3 3.2 50.9 4 C 50.93 3.95 50.9 2.9 50.9 2.9 L 52.7 2.9 C 52.7 2.9 52.73 9.45 52.7 9.4 C 52.7 10.3 52.7 10.9 52.5 11.4 C 52.4 11.8 52.2 12.1 51.9 12.4 C 51.7 12.6 51.3 12.8 50.9 12.9 C 50.5 13.1 49.9 13.1 49.3 13.1 C 48.1 13.1 47.2 12.9 46.7 12.5 C 46.2 12.1 45.9 11.6 45.9 10.9 C 45.9 10.9 45.9 10.9 45.9 10.9 Z M 47.6 6.4 C 47.6 7.2 47.8 7.7 48.1 8.1 C 48.4 8.5 48.7 8.6 49.2 8.6 C 49.6 8.6 50 8.5 50.4 8.1 C 50.7 7.7 50.8 7.2 50.8 6.5 C 50.8 5.7 50.7 5.1 50.4 4.8 C 50.1 4.4 49.7 4.2 49.2 4.2 C 48.7 4.2 48.4 4.4 48.1 4.8 C 47.8 5.1 47.6 5.7 47.6 6.4 Z M 54.6 1.9 L 54.6 0.2 L 56.6 0.2 L 56.6 1.9 L 54.6 1.9 Z M 54.6 10.2 L 54.6 2.9 L 56.6 2.9 L 56.6 10.2 L 54.6 10.2 Z M 57.8 8.1 C 57.8 8.1 59.8 7.8 59.8 7.8 C 59.9 8.2 60 8.5 60.3 8.7 C 60.5 8.9 60.9 9 61.3 9 C 61.8 9 62.2 8.9 62.4 8.7 C 62.6 8.6 62.7 8.4 62.7 8.2 C 62.7 8 62.7 7.9 62.6 7.8 C 62.5 7.7 62.2 7.6 61.9 7.6 C 60.4 7.2 59.4 6.9 59 6.6 C 58.4 6.2 58.1 5.7 58.1 5 C 58.1 4.4 58.4 3.8 58.9 3.4 C 59.4 3 60.1 2.8 61.2 2.8 C 62.2 2.8 62.9 2.9 63.4 3.3 C 63.9 3.6 64.2 4.1 64.4 4.7 C 64.4 4.7 62.6 5 62.6 5 C 62.5 4.7 62.3 4.5 62.1 4.4 C 61.9 4.2 61.6 4.1 61.2 4.1 C 60.7 4.1 60.3 4.2 60.1 4.4 C 60 4.5 59.9 4.6 59.9 4.8 C 59.9 4.9 60 5 60.1 5.1 C 60.3 5.2 60.9 5.4 61.9 5.6 C 62.9 5.9 63.6 6.2 64 6.5 C 64.4 6.8 64.6 7.3 64.6 7.9 C 64.6 8.6 64.3 9.2 63.8 9.6 C 63.2 10.1 62.4 10.4 61.3 10.4 C 60.3 10.4 59.6 10.2 59 9.8 C 58.4 9.4 58 8.8 57.8 8.1 Z M 69.6 2.9 L 69.6 4.5 L 68.3 4.5 C 68.3 4.5 68.32 7.39 68.3 7.4 C 68.3 8 68.3 8.3 68.4 8.4 C 68.4 8.5 68.4 8.6 68.5 8.7 C 68.6 8.7 68.7 8.8 68.9 8.8 C 69 8.8 69.3 8.7 69.6 8.6 C 69.6 8.6 69.8 10.1 69.8 10.1 C 69.3 10.3 68.8 10.4 68.3 10.4 C 67.9 10.4 67.6 10.3 67.3 10.2 C 67.1 10.1 66.9 9.9 66.7 9.7 C 66.6 9.5 66.5 9.3 66.5 9 C 66.4 8.8 66.4 8.3 66.4 7.6 C 66.39 7.63 66.4 4.5 66.4 4.5 L 65.5 4.5 L 65.5 2.9 L 66.4 2.9 L 66.4 1.5 L 68.3 0.4 L 68.3 2.9 L 69.6 2.9 Z M 72.8 10.2 L 70.9 10.2 L 70.9 2.9 L 72.7 2.9 C 72.7 2.9 72.67 3.96 72.7 4 C 73 3.5 73.2 3.2 73.5 3 C 73.7 2.8 74 2.8 74.3 2.8 C 74.8 2.8 75.2 2.9 75.6 3.1 C 75.6 3.1 75 4.8 75 4.8 C 74.7 4.6 74.4 4.5 74.1 4.5 C 73.8 4.5 73.6 4.6 73.4 4.7 C 73.2 4.9 73.1 5.1 73 5.5 C 72.9 5.9 72.8 6.7 72.8 8 C 72.81 7.95 72.8 10.2 72.8 10.2 Z M 77.9 5.1 C 77.9 5.1 76.1 4.8 76.1 4.8 C 76.3 4.1 76.6 3.6 77.1 3.3 C 77.6 2.9 78.3 2.8 79.3 2.8 C 80.1 2.8 80.7 2.9 81.2 3.1 C 81.6 3.3 81.9 3.5 82.1 3.8 C 82.2 4.2 82.3 4.7 82.3 5.6 C 82.3 5.6 82.3 7.8 82.3 7.8 C 82.3 8.4 82.3 8.9 82.4 9.2 C 82.4 9.5 82.6 9.8 82.7 10.2 C 82.7 10.2 80.8 10.2 80.8 10.2 C 80.8 10.1 80.7 9.9 80.6 9.6 C 80.6 9.5 80.6 9.4 80.6 9.4 C 80.2 9.7 79.9 10 79.5 10.1 C 79.1 10.3 78.7 10.4 78.3 10.4 C 77.6 10.4 77 10.2 76.6 9.7 C 76.1 9.3 75.9 8.8 75.9 8.2 C 75.9 7.8 76 7.4 76.2 7.1 C 76.4 6.8 76.7 6.5 77 6.4 C 77.4 6.2 77.9 6.1 78.6 5.9 C 79.5 5.8 80.1 5.6 80.4 5.5 C 80.4 5.5 80.4 5.3 80.4 5.3 C 80.4 4.9 80.3 4.6 80.1 4.5 C 80 4.3 79.6 4.2 79.1 4.2 C 78.8 4.2 78.5 4.3 78.3 4.4 C 78.1 4.6 78 4.8 77.9 5.1 Z M 80.4 6.7 C 80.2 6.8 79.8 6.9 79.3 7 C 78.7 7.1 78.4 7.2 78.2 7.3 C 78 7.5 77.8 7.7 77.8 8 C 77.8 8.3 77.9 8.5 78.1 8.7 C 78.3 8.9 78.6 9 78.9 9 C 79.2 9 79.6 8.9 79.9 8.7 C 80.1 8.5 80.3 8.3 80.3 8 C 80.4 7.9 80.4 7.5 80.4 7.1 C 80.4 7.1 80.4 6.7 80.4 6.7 Z M 87.5 2.9 L 87.5 4.5 L 86.2 4.5 C 86.2 4.5 86.22 7.39 86.2 7.4 C 86.2 8 86.2 8.3 86.3 8.4 C 86.3 8.5 86.3 8.6 86.4 8.7 C 86.5 8.7 86.6 8.8 86.8 8.8 C 86.9 8.8 87.2 8.7 87.5 8.6 C 87.5 8.6 87.7 10.1 87.7 10.1 C 87.2 10.3 86.7 10.4 86.2 10.4 C 85.8 10.4 85.5 10.3 85.2 10.2 C 85 10.1 84.8 9.9 84.6 9.7 C 84.5 9.5 84.4 9.3 84.4 9 C 84.3 8.8 84.3 8.3 84.3 7.6 C 84.29 7.63 84.3 4.5 84.3 4.5 L 83.4 4.5 L 83.4 2.9 L 84.3 2.9 L 84.3 1.5 L 86.2 0.4 L 86.2 2.9 L 87.5 2.9 Z M 88.9 1.9 L 88.9 0.2 L 90.8 0.2 L 90.8 1.9 L 88.9 1.9 Z M 88.9 10.2 L 88.9 2.9 L 90.8 2.9 L 90.8 10.2 L 88.9 10.2 Z M 92.3 6.5 C 92.3 5.8 92.5 5.2 92.8 4.6 C 93.1 4 93.5 3.6 94.1 3.2 C 94.7 2.9 95.3 2.8 96 2.8 C 97.1 2.8 98 3.1 98.7 3.8 C 99.5 4.6 99.8 5.5 99.8 6.5 C 99.8 7.6 99.4 8.6 98.7 9.3 C 98 10 97.1 10.4 96.1 10.4 C 95.4 10.4 94.8 10.2 94.2 9.9 C 93.6 9.6 93.1 9.2 92.8 8.6 C 92.5 8 92.3 7.3 92.3 6.5 Z M 94.3 6.6 C 94.3 7.3 94.4 7.8 94.8 8.2 C 95.1 8.6 95.6 8.8 96.1 8.8 C 96.6 8.8 97 8.6 97.3 8.2 C 97.7 7.8 97.8 7.3 97.8 6.5 C 97.8 5.8 97.7 5.3 97.3 4.9 C 97 4.5 96.6 4.3 96.1 4.3 C 95.6 4.3 95.1 4.5 94.8 4.9 C 94.4 5.3 94.3 5.8 94.3 6.6 Z M 107.9 10.2 L 106 10.2 C 106 10.2 105.99 6.49 106 6.5 C 106 5.7 105.9 5.2 105.9 5 C 105.8 4.7 105.6 4.6 105.5 4.4 C 105.3 4.3 105.1 4.2 104.8 4.2 C 104.5 4.2 104.2 4.3 103.9 4.5 C 103.6 4.7 103.5 4.9 103.4 5.2 C 103.3 5.5 103.2 6.1 103.2 6.9 C 103.21 6.9 103.2 10.2 103.2 10.2 L 101.3 10.2 L 101.3 2.9 L 103.1 2.9 C 103.1 2.9 103.08 4 103.1 4 C 103.7 3.2 104.5 2.8 105.5 2.8 C 105.9 2.8 106.3 2.8 106.6 3 C 107 3.2 107.2 3.3 107.4 3.6 C 107.6 3.8 107.7 4.1 107.8 4.4 C 107.9 4.7 107.9 5.1 107.9 5.7 C 107.91 5.68 107.9 10.2 107.9 10.2 Z " stroke="none" fill="#000"/>  </g></svg>