<?xml version="1.0" standalone="no"?><!DOCTYPE svg PUBLIC "-//W3C//DTD SVG 1.1//EN" "http://www.w3.org/Graphics/SVG/1.1/DTD/svg11.dtd"><svg xmlns="http://www.w3.org/2000/svg" version="1.1" width="205px" height="23.9px" viewBox="0 -5 205 23.9" style="top:-5px">  <desc>Turnaround of Gateway Approval</desc>  <defs/>  <g id="Polygon138980">    <path d="M 3.6 10.2 L 3.6 1.4 L 0.3 1.4 L 0.3 0.2 L 8.3 0.2 L 8.3 1.4 L 5 1.4 L 5 10.2 L 3.6 10.2 Z M 13.7 10.2 C 13.7 10.2 13.71 9.13 13.7 9.1 C 13.1 9.9 12.4 10.4 11.4 10.4 C 11 10.4 10.6 10.3 10.2 10.1 C 9.8 9.9 9.6 9.7 9.4 9.5 C 9.2 9.2 9.1 8.9 9 8.6 C 9 8.3 8.9 8 8.9 7.4 C 8.93 7.43 8.9 2.9 8.9 2.9 L 10.2 2.9 C 10.2 2.9 10.16 6.96 10.2 7 C 10.2 7.6 10.2 8 10.2 8.3 C 10.3 8.6 10.5 8.8 10.7 9 C 11 9.2 11.3 9.3 11.7 9.3 C 12 9.3 12.4 9.2 12.7 9 C 13 8.8 13.2 8.6 13.4 8.2 C 13.5 7.9 13.6 7.4 13.6 6.8 C 13.58 6.82 13.6 2.9 13.6 2.9 L 14.8 2.9 L 14.8 10.2 L 13.7 10.2 Z M 16.7 10.2 L 16.7 2.9 L 17.8 2.9 C 17.8 2.9 17.83 4.03 17.8 4 C 18.1 3.5 18.4 3.2 18.6 3 C 18.9 2.9 19.1 2.8 19.4 2.8 C 19.8 2.8 20.2 2.9 20.7 3.2 C 20.7 3.2 20.2 4.3 20.2 4.3 C 19.9 4.1 19.6 4 19.3 4 C 19.1 4 18.8 4.1 18.6 4.3 C 18.4 4.4 18.3 4.7 18.2 5 C 18 5.4 18 5.9 18 6.4 C 17.96 6.39 18 10.2 18 10.2 L 16.7 10.2 Z M 21.4 10.2 L 21.4 2.9 L 22.5 2.9 C 22.5 2.9 22.51 3.96 22.5 4 C 23 3.2 23.8 2.8 24.8 2.8 C 25.3 2.8 25.7 2.8 26 3 C 26.4 3.2 26.7 3.4 26.9 3.6 C 27 3.9 27.2 4.2 27.2 4.5 C 27.3 4.8 27.3 5.2 27.3 5.7 C 27.3 5.73 27.3 10.2 27.3 10.2 L 26.1 10.2 C 26.1 10.2 26.07 5.78 26.1 5.8 C 26.1 5.3 26 4.9 25.9 4.7 C 25.8 4.4 25.7 4.2 25.4 4.1 C 25.2 3.9 24.9 3.8 24.6 3.8 C 24 3.8 23.6 4 23.2 4.3 C 22.8 4.7 22.6 5.3 22.6 6.2 C 22.63 6.23 22.6 10.2 22.6 10.2 L 21.4 10.2 Z M 34.2 10.2 C 34 9.9 34 9.6 33.9 9.3 C 33.5 9.7 33 10 32.6 10.1 C 32.2 10.3 31.7 10.4 31.3 10.4 C 30.5 10.4 29.8 10.2 29.4 9.8 C 29 9.4 28.8 8.9 28.8 8.3 C 28.8 7.9 28.9 7.6 29 7.3 C 29.2 7 29.4 6.8 29.7 6.6 C 29.9 6.4 30.2 6.3 30.5 6.2 C 30.8 6.1 31.1 6.1 31.6 6 C 32.6 5.9 33.4 5.7 33.8 5.6 C 33.8 5.4 33.8 5.3 33.8 5.3 C 33.8 4.8 33.7 4.4 33.5 4.2 C 33.2 3.9 32.7 3.8 32.1 3.8 C 31.5 3.8 31.1 3.9 30.8 4.1 C 30.5 4.3 30.3 4.7 30.2 5.2 C 30.2 5.2 29 5 29 5 C 29.1 4.5 29.3 4.1 29.5 3.8 C 29.8 3.4 30.1 3.2 30.6 3 C 31.1 2.9 31.6 2.8 32.3 2.8 C 32.9 2.8 33.4 2.8 33.8 3 C 34.2 3.1 34.4 3.3 34.6 3.5 C 34.8 3.8 34.9 4 35 4.4 C 35 4.6 35.1 5 35.1 5.5 C 35.1 5.5 35.1 7.2 35.1 7.2 C 35.1 8.3 35.1 9 35.1 9.3 C 35.2 9.6 35.3 9.9 35.5 10.2 C 35.46 10.19 34.2 10.2 34.2 10.2 C 34.2 10.2 34.17 10.19 34.2 10.2 Z M 33.8 6.5 C 33.4 6.7 32.7 6.9 31.8 7 C 31.3 7.1 31 7.2 30.7 7.3 C 30.5 7.4 30.4 7.5 30.3 7.7 C 30.1 7.8 30.1 8 30.1 8.2 C 30.1 8.6 30.2 8.8 30.5 9.1 C 30.7 9.3 31.1 9.4 31.5 9.4 C 32 9.4 32.4 9.3 32.8 9.1 C 33.2 8.9 33.5 8.6 33.6 8.2 C 33.8 8 33.8 7.5 33.8 7 C 33.8 7 33.8 6.5 33.8 6.5 Z M 37 10.2 L 37 2.9 L 38.1 2.9 C 38.1 2.9 38.07 4.03 38.1 4 C 38.4 3.5 38.6 3.2 38.9 3 C 39.1 2.9 39.4 2.8 39.6 2.8 C 40.1 2.8 40.5 2.9 40.9 3.2 C 40.9 3.2 40.5 4.3 40.5 4.3 C 40.2 4.1 39.9 4 39.6 4 C 39.3 4 39.1 4.1 38.9 4.3 C 38.6 4.4 38.5 4.7 38.4 5 C 38.3 5.4 38.2 5.9 38.2 6.4 C 38.19 6.39 38.2 10.2 38.2 10.2 L 37 10.2 Z M 41.2 6.6 C 41.2 5.2 41.6 4.2 42.3 3.6 C 42.9 3 43.7 2.8 44.6 2.8 C 45.6 2.8 46.4 3.1 47 3.7 C 47.7 4.4 48 5.3 48 6.5 C 48 7.4 47.8 8.1 47.6 8.7 C 47.3 9.2 46.9 9.6 46.3 9.9 C 45.8 10.2 45.2 10.4 44.6 10.4 C 43.6 10.4 42.7 10 42.1 9.4 C 41.5 8.7 41.2 7.8 41.2 6.6 Z M 42.4 6.6 C 42.4 7.5 42.6 8.2 43.1 8.7 C 43.5 9.1 44 9.3 44.6 9.3 C 45.2 9.3 45.7 9.1 46.1 8.6 C 46.5 8.2 46.7 7.5 46.7 6.5 C 46.7 5.6 46.5 4.9 46.1 4.5 C 45.7 4 45.2 3.8 44.6 3.8 C 44 3.8 43.5 4 43.1 4.5 C 42.6 4.9 42.4 5.6 42.4 6.6 Z M 54.2 10.2 C 54.2 10.2 54.18 9.13 54.2 9.1 C 53.6 9.9 52.8 10.4 51.9 10.4 C 51.4 10.4 51 10.3 50.7 10.1 C 50.3 9.9 50 9.7 49.9 9.5 C 49.7 9.2 49.5 8.9 49.5 8.6 C 49.4 8.3 49.4 8 49.4 7.4 C 49.4 7.43 49.4 2.9 49.4 2.9 L 50.6 2.9 C 50.6 2.9 50.63 6.96 50.6 7 C 50.6 7.6 50.7 8 50.7 8.3 C 50.8 8.6 50.9 8.8 51.2 9 C 51.4 9.2 51.8 9.3 52.1 9.3 C 52.5 9.3 52.8 9.2 53.2 9 C 53.5 8.8 53.7 8.6 53.9 8.2 C 54 7.9 54.1 7.4 54.1 6.8 C 54.05 6.82 54.1 2.9 54.1 2.9 L 55.3 2.9 L 55.3 10.2 L 54.2 10.2 Z M 57.2 10.2 L 57.2 2.9 L 58.3 2.9 C 58.3 2.9 58.32 3.96 58.3 4 C 58.9 3.2 59.6 2.8 60.6 2.8 C 61.1 2.8 61.5 2.8 61.8 3 C 62.2 3.2 62.5 3.4 62.7 3.6 C 62.8 3.9 63 4.2 63 4.5 C 63.1 4.8 63.1 5.2 63.1 5.7 C 63.11 5.73 63.1 10.2 63.1 10.2 L 61.9 10.2 C 61.9 10.2 61.88 5.78 61.9 5.8 C 61.9 5.3 61.8 4.9 61.7 4.7 C 61.6 4.4 61.5 4.2 61.2 4.1 C 61 3.9 60.7 3.8 60.4 3.8 C 59.8 3.8 59.4 4 59 4.3 C 58.6 4.7 58.4 5.3 58.4 6.2 C 58.44 6.23 58.4 10.2 58.4 10.2 L 57.2 10.2 Z M 69.7 10.2 C 69.7 10.2 69.71 9.28 69.7 9.3 C 69.2 10 68.6 10.4 67.7 10.4 C 67.1 10.4 66.6 10.2 66.1 9.9 C 65.6 9.6 65.2 9.1 65 8.5 C 64.7 8 64.6 7.3 64.6 6.6 C 64.6 5.8 64.7 5.2 64.9 4.6 C 65.2 4 65.5 3.6 66 3.2 C 66.5 2.9 67 2.8 67.6 2.8 C 68.1 2.8 68.4 2.9 68.8 3 C 69.1 3.2 69.4 3.5 69.6 3.8 C 69.62 3.77 69.6 0.2 69.6 0.2 L 70.8 0.2 L 70.8 10.2 L 69.7 10.2 Z M 65.8 6.6 C 65.8 7.5 66 8.2 66.4 8.7 C 66.8 9.1 67.3 9.3 67.8 9.3 C 68.3 9.3 68.8 9.1 69.2 8.7 C 69.5 8.2 69.7 7.6 69.7 6.7 C 69.7 5.7 69.5 4.9 69.2 4.5 C 68.8 4 68.3 3.8 67.7 3.8 C 67.2 3.8 66.7 4 66.4 4.5 C 66 4.9 65.8 5.6 65.8 6.6 Z M 76.2 6.6 C 76.2 5.2 76.6 4.2 77.3 3.6 C 78 3 78.7 2.8 79.6 2.8 C 80.6 2.8 81.4 3.1 82.1 3.7 C 82.7 4.4 83 5.3 83 6.5 C 83 7.4 82.9 8.1 82.6 8.7 C 82.3 9.2 81.9 9.6 81.4 9.9 C 80.8 10.2 80.3 10.4 79.6 10.4 C 78.6 10.4 77.8 10 77.2 9.4 C 76.5 8.7 76.2 7.8 76.2 6.6 Z M 77.5 6.6 C 77.5 7.5 77.7 8.2 78.1 8.7 C 78.5 9.1 79 9.3 79.6 9.3 C 80.2 9.3 80.7 9.1 81.1 8.6 C 81.5 8.2 81.8 7.5 81.8 6.5 C 81.8 5.6 81.5 4.9 81.1 4.5 C 80.7 4 80.2 3.8 79.6 3.8 C 79 3.8 78.5 4 78.1 4.5 C 77.7 4.9 77.5 5.6 77.5 6.6 Z M 84.8 10.2 L 84.8 3.9 L 83.7 3.9 L 83.7 2.9 L 84.8 2.9 C 84.8 2.9 84.75 2.16 84.8 2.2 C 84.8 1.7 84.8 1.3 84.9 1.1 C 85 0.8 85.2 0.5 85.5 0.3 C 85.8 0.1 86.2 0 86.8 0 C 87.1 0 87.5 0 87.9 0.1 C 87.9 0.1 87.7 1.2 87.7 1.2 C 87.5 1.2 87.2 1.1 87 1.1 C 86.6 1.1 86.4 1.2 86.2 1.4 C 86.1 1.5 86 1.8 86 2.3 C 85.98 2.26 86 2.9 86 2.9 L 87.4 2.9 L 87.4 3.9 L 86 3.9 L 86 10.2 L 84.8 10.2 Z M 97.1 6.3 L 97.1 5.1 L 101.3 5.1 C 101.3 5.1 101.33 8.8 101.3 8.8 C 100.7 9.3 100 9.7 99.3 10 C 98.6 10.2 97.9 10.4 97.2 10.4 C 96.2 10.4 95.3 10.2 94.5 9.7 C 93.7 9.3 93.1 8.7 92.7 7.9 C 92.3 7.1 92.1 6.2 92.1 5.2 C 92.1 4.3 92.3 3.3 92.7 2.5 C 93.1 1.7 93.7 1 94.4 0.6 C 95.2 0.2 96.1 0 97.1 0 C 97.8 0 98.5 0.1 99 0.4 C 99.6 0.6 100.1 0.9 100.4 1.3 C 100.8 1.8 101 2.3 101.2 3 C 101.2 3 100 3.3 100 3.3 C 99.8 2.8 99.6 2.4 99.4 2.1 C 99.2 1.8 98.9 1.6 98.5 1.4 C 98.1 1.2 97.6 1.1 97.1 1.1 C 96.5 1.1 96 1.2 95.5 1.4 C 95.1 1.6 94.7 1.8 94.4 2.1 C 94.2 2.4 94 2.8 93.8 3.1 C 93.6 3.8 93.4 4.4 93.4 5.1 C 93.4 6 93.6 6.8 93.9 7.4 C 94.2 8 94.6 8.4 95.2 8.7 C 95.8 9 96.4 9.2 97.1 9.2 C 97.7 9.2 98.2 9.1 98.8 8.8 C 99.3 8.6 99.7 8.4 100 8.1 C 100.03 8.13 100 6.3 100 6.3 L 97.1 6.3 Z M 108.1 10.2 C 108 9.9 107.9 9.6 107.9 9.3 C 107.4 9.7 107 10 106.5 10.1 C 106.1 10.3 105.7 10.4 105.2 10.4 C 104.4 10.4 103.8 10.2 103.4 9.8 C 102.9 9.4 102.7 8.9 102.7 8.3 C 102.7 7.9 102.8 7.6 103 7.3 C 103.1 7 103.3 6.8 103.6 6.6 C 103.9 6.4 104.1 6.3 104.5 6.2 C 104.7 6.1 105.1 6.1 105.6 6 C 106.6 5.9 107.3 5.7 107.8 5.6 C 107.8 5.4 107.8 5.3 107.8 5.3 C 107.8 4.8 107.7 4.4 107.4 4.2 C 107.1 3.9 106.6 3.8 106 3.8 C 105.4 3.8 105 3.9 104.7 4.1 C 104.5 4.3 104.3 4.7 104.1 5.2 C 104.1 5.2 102.9 5 102.9 5 C 103 4.5 103.2 4.1 103.5 3.8 C 103.7 3.4 104.1 3.2 104.5 3 C 105 2.9 105.6 2.8 106.2 2.8 C 106.8 2.8 107.3 2.8 107.7 3 C 108.1 3.1 108.4 3.3 108.6 3.5 C 108.7 3.8 108.9 4 108.9 4.4 C 109 4.6 109 5 109 5.5 C 109 5.5 109 7.2 109 7.2 C 109 8.3 109 9 109.1 9.3 C 109.1 9.6 109.2 9.9 109.4 10.2 C 109.4 10.19 108.1 10.2 108.1 10.2 C 108.1 10.2 108.11 10.19 108.1 10.2 Z M 107.8 6.5 C 107.3 6.7 106.6 6.9 105.8 7 C 105.2 7.1 104.9 7.2 104.7 7.3 C 104.5 7.4 104.3 7.5 104.2 7.7 C 104.1 7.8 104 8 104 8.2 C 104 8.6 104.1 8.8 104.4 9.1 C 104.6 9.3 105 9.4 105.5 9.4 C 106 9.4 106.4 9.3 106.8 9.1 C 107.1 8.9 107.4 8.6 107.6 8.2 C 107.7 8 107.8 7.5 107.8 7 C 107.8 7 107.8 6.5 107.8 6.5 Z M 113.1 9.1 C 113.2 9.1 113.4 9.1 113.6 9.1 C 113.6 9.1 113.8 10.2 113.8 10.2 C 113.4 10.3 113.1 10.3 112.8 10.3 C 112.4 10.3 112.1 10.2 111.8 10.1 C 111.6 9.9 111.4 9.7 111.3 9.5 C 111.2 9.3 111.1 8.8 111.1 8.1 C 111.14 8.07 111.1 3.9 111.1 3.9 L 110.2 3.9 L 110.2 2.9 L 111.1 2.9 L 111.1 1.1 L 112.4 0.4 L 112.4 2.9 L 113.6 2.9 L 113.6 3.9 L 112.4 3.9 C 112.4 3.9 112.36 8.13 112.4 8.1 C 112.4 8.5 112.4 8.7 112.4 8.8 C 112.5 8.9 112.5 9 112.6 9.1 C 112.7 9.1 112.9 9.1 113.1 9.1 C 113.1 9.1 113.1 9.1 113.1 9.1 Z M 119.8 7.9 C 119.8 7.9 121 8 121 8 C 120.8 8.8 120.5 9.3 119.9 9.7 C 119.4 10.2 118.7 10.4 117.9 10.4 C 116.8 10.4 115.9 10 115.3 9.4 C 114.7 8.7 114.4 7.8 114.4 6.6 C 114.4 5.4 114.7 4.5 115.3 3.8 C 116 3.1 116.8 2.8 117.8 2.8 C 118.8 2.8 119.5 3.1 120.2 3.8 C 120.8 4.4 121.1 5.4 121.1 6.5 C 121.1 6.6 121.1 6.7 121.1 6.9 C 121.1 6.9 115.7 6.9 115.7 6.9 C 115.7 7.7 115.9 8.3 116.3 8.7 C 116.7 9.1 117.3 9.3 117.9 9.3 C 118.3 9.3 118.7 9.2 119 9 C 119.3 8.8 119.6 8.4 119.8 7.9 Z M 115.7 5.9 C 115.7 5.9 119.8 5.9 119.8 5.9 C 119.7 5.3 119.6 4.8 119.3 4.5 C 118.9 4 118.4 3.8 117.8 3.8 C 117.2 3.8 116.8 4 116.4 4.3 C 116 4.7 115.8 5.2 115.7 5.9 Z M 123.9 10.2 L 121.7 2.9 L 123 2.9 L 124.1 7.1 C 124.1 7.1 124.56 8.68 124.6 8.7 C 124.6 8.6 124.7 8.1 124.9 7.2 C 124.94 7.18 126.1 2.9 126.1 2.9 L 127.4 2.9 L 128.4 7.1 L 128.8 8.5 L 129.2 7.1 L 130.5 2.9 L 131.7 2.9 L 129.4 10.2 L 128.1 10.2 L 127 5.8 L 126.7 4.6 L 125.2 10.2 L 123.9 10.2 Z M 137.7 10.2 C 137.6 9.9 137.5 9.6 137.4 9.3 C 137 9.7 136.5 10 136.1 10.1 C 135.7 10.3 135.2 10.4 134.8 10.4 C 134 10.4 133.4 10.2 132.9 9.8 C 132.5 9.4 132.3 8.9 132.3 8.3 C 132.3 7.9 132.4 7.6 132.5 7.3 C 132.7 7 132.9 6.8 133.2 6.6 C 133.4 6.4 133.7 6.3 134 6.2 C 134.3 6.1 134.7 6.1 135.1 6 C 136.1 5.9 136.9 5.7 137.3 5.6 C 137.3 5.4 137.3 5.3 137.3 5.3 C 137.3 4.8 137.2 4.4 137 4.2 C 136.7 3.9 136.2 3.8 135.6 3.8 C 135 3.8 134.6 3.9 134.3 4.1 C 134 4.3 133.8 4.7 133.7 5.2 C 133.7 5.2 132.5 5 132.5 5 C 132.6 4.5 132.8 4.1 133 3.8 C 133.3 3.4 133.6 3.2 134.1 3 C 134.6 2.9 135.1 2.8 135.8 2.8 C 136.4 2.8 136.9 2.8 137.3 3 C 137.7 3.1 138 3.3 138.1 3.5 C 138.3 3.8 138.4 4 138.5 4.4 C 138.6 4.6 138.6 5 138.6 5.5 C 138.6 5.5 138.6 7.2 138.6 7.2 C 138.6 8.3 138.6 9 138.7 9.3 C 138.7 9.6 138.8 9.9 139 10.2 C 138.97 10.19 137.7 10.2 137.7 10.2 C 137.7 10.2 137.68 10.19 137.7 10.2 Z M 137.3 6.5 C 136.9 6.7 136.2 6.9 135.3 7 C 134.8 7.1 134.5 7.2 134.3 7.3 C 134 7.4 133.9 7.5 133.8 7.7 C 133.7 7.8 133.6 8 133.6 8.2 C 133.6 8.6 133.7 8.8 134 9.1 C 134.2 9.3 134.6 9.4 135.1 9.4 C 135.5 9.4 136 9.3 136.3 9.1 C 136.7 8.9 137 8.6 137.1 8.2 C 137.3 8 137.3 7.5 137.3 7 C 137.3 7 137.3 6.5 137.3 6.5 Z M 141.2 13.1 C 141 13.1 140.7 13.1 140.4 13 C 140.4 13 140.3 11.8 140.3 11.8 C 140.6 11.9 140.8 11.9 141 11.9 C 141.3 11.9 141.5 11.9 141.7 11.8 C 141.8 11.7 142 11.6 142.1 11.4 C 142.1 11.3 142.3 11 142.4 10.5 C 142.5 10.4 142.5 10.3 142.5 10.2 C 142.54 10.21 139.8 2.9 139.8 2.9 L 141.1 2.9 C 141.1 2.9 142.63 7.14 142.6 7.1 C 142.8 7.7 143 8.2 143.2 8.8 C 143.3 8.3 143.5 7.7 143.7 7.2 C 143.66 7.16 145.2 2.9 145.2 2.9 L 146.4 2.9 C 146.4 2.9 143.68 10.32 143.7 10.3 C 143.4 11.1 143.2 11.7 143 12 C 142.8 12.4 142.5 12.7 142.2 12.9 C 142 13 141.6 13.1 141.2 13.1 C 141.2 13.1 141.2 13.1 141.2 13.1 Z M 149.7 10.2 L 153.5 0.2 L 154.9 0.2 L 159 10.2 L 157.5 10.2 L 156.4 7.2 L 152.2 7.2 L 151.1 10.2 L 149.7 10.2 Z M 152.6 6.1 L 155.9 6.1 C 155.9 6.1 154.9 3.3 154.9 3.3 C 154.6 2.5 154.3 1.8 154.2 1.2 C 154.1 1.9 153.9 2.5 153.7 3.1 C 153.65 3.14 152.6 6.1 152.6 6.1 Z M 159.9 13 L 159.9 2.9 L 161.1 2.9 C 161.1 2.9 161.06 3.88 161.1 3.9 C 161.3 3.5 161.6 3.2 162 3 C 162.3 2.9 162.7 2.8 163.2 2.8 C 163.8 2.8 164.3 2.9 164.8 3.2 C 165.3 3.6 165.6 4 165.9 4.6 C 166.1 5.2 166.2 5.8 166.2 6.5 C 166.2 7.3 166.1 7.9 165.8 8.5 C 165.6 9.1 165.2 9.6 164.7 9.9 C 164.2 10.2 163.6 10.4 163.1 10.4 C 162.7 10.4 162.3 10.3 162 10.1 C 161.6 9.9 161.4 9.7 161.2 9.4 C 161.17 9.44 161.2 13 161.2 13 L 159.9 13 Z M 161.1 6.6 C 161.1 7.5 161.2 8.2 161.6 8.7 C 162 9.1 162.5 9.3 163 9.3 C 163.5 9.3 164 9.1 164.4 8.7 C 164.8 8.2 165 7.5 165 6.5 C 165 5.6 164.8 4.9 164.4 4.4 C 164 4 163.6 3.7 163.1 3.7 C 162.5 3.7 162.1 4 161.7 4.5 C 161.3 5 161.1 5.7 161.1 6.6 Z M 167.7 13 L 167.7 2.9 L 168.8 2.9 C 168.8 2.9 168.85 3.88 168.8 3.9 C 169.1 3.5 169.4 3.2 169.7 3 C 170.1 2.9 170.5 2.8 171 2.8 C 171.6 2.8 172.1 2.9 172.6 3.2 C 173.1 3.6 173.4 4 173.7 4.6 C 173.9 5.2 174 5.8 174 6.5 C 174 7.3 173.9 7.9 173.6 8.5 C 173.4 9.1 173 9.6 172.5 9.9 C 172 10.2 171.4 10.4 170.9 10.4 C 170.5 10.4 170.1 10.3 169.8 10.1 C 169.4 9.9 169.2 9.7 169 9.4 C 168.96 9.44 169 13 169 13 L 167.7 13 Z M 168.8 6.6 C 168.8 7.5 169 8.2 169.4 8.7 C 169.8 9.1 170.2 9.3 170.8 9.3 C 171.3 9.3 171.8 9.1 172.2 8.7 C 172.6 8.2 172.8 7.5 172.8 6.5 C 172.8 5.6 172.6 4.9 172.2 4.4 C 171.8 4 171.4 3.7 170.8 3.7 C 170.3 3.7 169.8 4 169.4 4.5 C 169 5 168.8 5.7 168.8 6.6 Z M 175.5 10.2 L 175.5 2.9 L 176.6 2.9 C 176.6 2.9 176.61 4.03 176.6 4 C 176.9 3.5 177.1 3.2 177.4 3 C 177.6 2.9 177.9 2.8 178.2 2.8 C 178.6 2.8 179 2.9 179.4 3.2 C 179.4 3.2 179 4.3 179 4.3 C 178.7 4.1 178.4 4 178.1 4 C 177.8 4 177.6 4.1 177.4 4.3 C 177.2 4.4 177 4.7 176.9 5 C 176.8 5.4 176.7 5.9 176.7 6.4 C 176.73 6.39 176.7 10.2 176.7 10.2 L 175.5 10.2 Z M 179.7 6.6 C 179.7 5.2 180.1 4.2 180.8 3.6 C 181.5 3 182.2 2.8 183.1 2.8 C 184.1 2.8 184.9 3.1 185.6 3.7 C 186.2 4.4 186.5 5.3 186.5 6.5 C 186.5 7.4 186.4 8.1 186.1 8.7 C 185.8 9.2 185.4 9.6 184.9 9.9 C 184.3 10.2 183.8 10.4 183.1 10.4 C 182.1 10.4 181.3 10 180.7 9.4 C 180 8.7 179.7 7.8 179.7 6.6 Z M 181 6.6 C 181 7.5 181.2 8.2 181.6 8.7 C 182 9.1 182.5 9.3 183.1 9.3 C 183.7 9.3 184.2 9.1 184.6 8.6 C 185.1 8.2 185.3 7.5 185.3 6.5 C 185.3 5.6 185 4.9 184.6 4.5 C 184.2 4 183.7 3.8 183.1 3.8 C 182.5 3.8 182 4 181.6 4.5 C 181.2 4.9 181 5.6 181 6.6 Z M 190 10.2 L 187.2 2.9 L 188.5 2.9 C 188.5 2.9 190.07 7.28 190.1 7.3 C 190.2 7.7 190.4 8.2 190.5 8.7 C 190.6 8.4 190.8 7.9 191 7.4 C 191 7.36 192.6 2.9 192.6 2.9 L 193.9 2.9 L 191.1 10.2 L 190 10.2 Z M 199.9 10.2 C 199.8 9.9 199.7 9.6 199.7 9.3 C 199.2 9.7 198.8 10 198.4 10.1 C 198 10.3 197.5 10.4 197 10.4 C 196.2 10.4 195.6 10.2 195.2 9.8 C 194.8 9.4 194.5 8.9 194.5 8.3 C 194.5 7.9 194.6 7.6 194.8 7.3 C 194.9 7 195.2 6.8 195.4 6.6 C 195.7 6.4 196 6.3 196.3 6.2 C 196.5 6.1 196.9 6.1 197.4 6 C 198.4 5.9 199.1 5.7 199.6 5.6 C 199.6 5.4 199.6 5.3 199.6 5.3 C 199.6 4.8 199.5 4.4 199.3 4.2 C 198.9 3.9 198.5 3.8 197.9 3.8 C 197.3 3.8 196.8 3.9 196.6 4.1 C 196.3 4.3 196.1 4.7 196 5.2 C 196 5.2 194.8 5 194.8 5 C 194.9 4.5 195 4.1 195.3 3.8 C 195.5 3.4 195.9 3.2 196.4 3 C 196.9 2.9 197.4 2.8 198 2.8 C 198.6 2.8 199.2 2.8 199.5 3 C 199.9 3.1 200.2 3.3 200.4 3.5 C 200.6 3.8 200.7 4 200.8 4.4 C 200.8 4.6 200.8 5 200.8 5.5 C 200.8 5.5 200.8 7.2 200.8 7.2 C 200.8 8.3 200.9 9 200.9 9.3 C 201 9.6 201.1 9.9 201.2 10.2 C 201.23 10.19 199.9 10.2 199.9 10.2 C 199.9 10.2 199.94 10.19 199.9 10.2 Z M 199.6 6.5 C 199.1 6.7 198.5 6.9 197.6 7 C 197.1 7.1 196.7 7.2 196.5 7.3 C 196.3 7.4 196.1 7.5 196 7.7 C 195.9 7.8 195.9 8 195.9 8.2 C 195.9 8.6 196 8.8 196.2 9.1 C 196.5 9.3 196.8 9.4 197.3 9.4 C 197.8 9.4 198.2 9.3 198.6 9.1 C 199 8.9 199.2 8.6 199.4 8.2 C 199.5 8 199.6 7.5 199.6 7 C 199.6 7 199.6 6.5 199.6 6.5 Z M 202.7 10.2 L 202.7 0.2 L 204 0.2 L 204 10.2 L 202.7 10.2 Z " stroke="none" fill="#ffffff"/>  </g></svg>