<?xml version="1.0" standalone="no"?><!DOCTYPE svg PUBLIC "-//W3C//DTD SVG 1.1//EN" "http://www.w3.org/Graphics/SVG/1.1/DTD/svg11.dtd"><svg xmlns="http://www.w3.org/2000/svg" version="1.1" width="119px" height="23.9px" viewBox="0 -5 119 23.9" style="top:-5px">  <desc>2,350+ Employers</desc>  <defs/>  <g id="Polygon107570">    <path d="M 7.1 8.4 L 7.1 10.2 C 7.1 10.2 0.35 10.19 0.3 10.2 C 0.4 9.5 0.6 8.9 1 8.3 C 1.4 7.7 2.1 6.9 3.2 5.9 C 4 5.1 4.6 4.5 4.8 4.2 C 5 3.8 5.2 3.4 5.2 3.1 C 5.2 2.6 5 2.3 4.8 2.1 C 4.6 1.8 4.3 1.7 3.9 1.7 C 3.5 1.7 3.1 1.8 2.9 2.1 C 2.7 2.3 2.5 2.7 2.5 3.3 C 2.5 3.3 0.6 3.1 0.6 3.1 C 0.7 2 1 1.3 1.6 0.8 C 2.2 0.4 3 0.1 3.9 0.1 C 4.9 0.1 5.7 0.4 6.2 0.9 C 6.8 1.5 7.1 2.1 7.1 2.9 C 7.1 3.4 7 3.8 6.8 4.2 C 6.7 4.6 6.4 5 6.1 5.5 C 5.8 5.8 5.4 6.2 4.8 6.8 C 4.2 7.3 3.8 7.7 3.7 7.9 C 3.5 8.1 3.4 8.2 3.3 8.4 C 3.27 8.41 7.1 8.4 7.1 8.4 Z M 8.7 8.3 L 10.7 8.3 C 10.7 8.3 10.66 9.65 10.7 9.6 C 10.7 10.2 10.6 10.6 10.5 11 C 10.4 11.3 10.2 11.6 10 11.8 C 9.7 12.1 9.4 12.3 9 12.4 C 9 12.4 8.6 11.6 8.6 11.6 C 9 11.5 9.2 11.3 9.4 11.1 C 9.6 10.9 9.7 10.6 9.7 10.2 C 9.67 10.19 8.7 10.2 8.7 10.2 L 8.7 8.3 Z M 12.2 7.5 C 12.2 7.5 14.1 7.3 14.1 7.3 C 14.1 7.8 14.3 8.1 14.5 8.4 C 14.8 8.6 15.1 8.8 15.5 8.8 C 15.9 8.8 16.2 8.6 16.5 8.3 C 16.8 8 16.9 7.6 16.9 7.1 C 16.9 6.6 16.8 6.2 16.5 6 C 16.2 5.7 15.9 5.5 15.6 5.5 C 15.3 5.5 15 5.6 14.7 5.7 C 14.7 5.7 14.9 4.1 14.9 4.1 C 15.4 4.1 15.8 4 16.1 3.8 C 16.3 3.5 16.5 3.2 16.5 2.8 C 16.5 2.5 16.4 2.2 16.2 2 C 16 1.8 15.7 1.7 15.4 1.7 C 15.1 1.7 14.8 1.8 14.5 2.1 C 14.3 2.3 14.2 2.6 14.1 3 C 14.1 3 12.3 2.7 12.3 2.7 C 12.5 2.1 12.7 1.7 12.9 1.3 C 13.2 0.9 13.5 0.6 13.9 0.4 C 14.4 0.2 14.9 0.1 15.4 0.1 C 16.4 0.1 17.1 0.4 17.7 1 C 18.2 1.5 18.4 2.1 18.4 2.7 C 18.4 3.6 17.9 4.3 17 4.8 C 17.5 4.9 18 5.2 18.3 5.6 C 18.7 6.1 18.9 6.6 18.9 7.2 C 18.9 8.1 18.5 8.8 17.9 9.4 C 17.3 10.1 16.5 10.4 15.5 10.4 C 14.6 10.4 13.8 10.1 13.2 9.6 C 12.6 9.1 12.3 8.4 12.2 7.5 Z M 20.1 7.6 C 20.1 7.6 22 7.4 22 7.4 C 22.1 7.9 22.2 8.2 22.5 8.4 C 22.8 8.7 23.1 8.8 23.4 8.8 C 23.8 8.8 24.2 8.7 24.4 8.3 C 24.7 8 24.8 7.5 24.8 6.9 C 24.8 6.2 24.7 5.8 24.4 5.5 C 24.2 5.2 23.8 5 23.4 5 C 22.8 5 22.3 5.3 21.9 5.7 C 21.88 5.75 20.3 5.5 20.3 5.5 L 21.3 0.3 L 26.4 0.3 L 26.4 2.1 L 22.8 2.1 C 22.8 2.1 22.46 3.81 22.5 3.8 C 22.9 3.6 23.3 3.5 23.8 3.5 C 24.6 3.5 25.3 3.8 25.9 4.4 C 26.5 5 26.8 5.8 26.8 6.8 C 26.8 7.7 26.6 8.4 26.1 9 C 25.5 9.9 24.6 10.4 23.4 10.4 C 22.5 10.4 21.7 10.1 21.1 9.6 C 20.5 9.1 20.2 8.5 20.1 7.6 Z M 28.8 1.2 C 29.4 0.5 30.1 0.1 31.1 0.1 C 32.1 0.1 32.8 0.5 33.4 1.2 C 34 2 34.3 3.3 34.3 5.3 C 34.3 7.1 34 8.5 33.4 9.3 C 32.8 10 32.1 10.4 31.1 10.4 C 30.1 10.4 29.3 10 28.7 9.2 C 28.1 8.5 27.8 7.2 27.8 5.2 C 27.8 3.3 28.2 2 28.8 1.2 C 28.8 1.2 28.8 1.2 28.8 1.2 Z M 31.1 1.7 C 30.9 1.7 30.6 1.8 30.5 1.9 C 30.3 2.1 30.1 2.4 30 2.7 C 29.9 3.2 29.8 4.1 29.8 5.3 C 29.8 6.4 29.9 7.2 30 7.7 C 30.1 8.1 30.3 8.4 30.5 8.6 C 30.7 8.7 30.9 8.8 31.1 8.8 C 31.3 8.8 31.5 8.7 31.7 8.5 C 31.9 8.4 32 8.1 32.1 7.8 C 32.3 7.3 32.3 6.4 32.3 5.3 C 32.3 4.1 32.3 3.3 32.2 2.8 C 32 2.4 31.9 2.1 31.7 1.9 C 31.5 1.8 31.3 1.7 31.1 1.7 Z M 38.2 8.8 L 38.2 6.1 L 35.6 6.1 L 35.6 4.3 L 38.2 4.3 L 38.2 1.7 L 40 1.7 L 40 4.3 L 42.6 4.3 L 42.6 6.1 L 40 6.1 L 40 8.8 L 38.2 8.8 Z M 48.1 10.2 L 48.1 0.2 L 55.5 0.2 L 55.5 1.9 L 50.1 1.9 L 50.1 4.1 L 55.2 4.1 L 55.2 5.8 L 50.1 5.8 L 50.1 8.5 L 55.7 8.5 L 55.7 10.2 L 48.1 10.2 Z M 57.3 2.9 L 59.1 2.9 C 59.1 2.9 59.07 3.92 59.1 3.9 C 59.7 3.2 60.5 2.8 61.3 2.8 C 61.8 2.8 62.2 2.9 62.5 3.1 C 62.9 3.2 63.2 3.5 63.4 3.9 C 63.7 3.5 64 3.2 64.4 3.1 C 64.8 2.9 65.2 2.8 65.6 2.8 C 66.1 2.8 66.6 2.9 67 3.1 C 67.3 3.3 67.6 3.6 67.8 4 C 67.9 4.4 68 4.9 68 5.6 C 67.98 5.55 68 10.2 68 10.2 L 66.1 10.2 C 66.1 10.2 66.06 6.04 66.1 6 C 66.1 5.3 66 4.9 65.9 4.6 C 65.7 4.4 65.4 4.2 65 4.2 C 64.8 4.2 64.5 4.3 64.3 4.5 C 64 4.6 63.9 4.9 63.8 5.2 C 63.7 5.5 63.6 6 63.6 6.7 C 63.61 6.71 63.6 10.2 63.6 10.2 L 61.7 10.2 C 61.7 10.2 61.69 6.21 61.7 6.2 C 61.7 5.5 61.7 5.1 61.6 4.8 C 61.5 4.6 61.4 4.5 61.3 4.4 C 61.1 4.3 60.9 4.2 60.7 4.2 C 60.4 4.2 60.1 4.3 59.9 4.5 C 59.6 4.6 59.5 4.9 59.4 5.2 C 59.3 5.5 59.2 6 59.2 6.7 C 59.22 6.67 59.2 10.2 59.2 10.2 L 57.3 10.2 L 57.3 2.9 Z M 69.8 2.9 L 71.6 2.9 C 71.6 2.9 71.63 4 71.6 4 C 71.9 3.6 72.2 3.3 72.6 3.1 C 73 2.9 73.4 2.8 73.9 2.8 C 74.7 2.8 75.4 3.1 76 3.8 C 76.6 4.4 76.9 5.3 76.9 6.5 C 76.9 7.7 76.6 8.7 76 9.3 C 75.4 10 74.7 10.4 73.9 10.4 C 73.5 10.4 73.1 10.3 72.8 10.1 C 72.5 10 72.1 9.7 71.8 9.3 C 71.76 9.3 71.8 13 71.8 13 L 69.8 13 L 69.8 2.9 Z M 71.7 6.4 C 71.7 7.3 71.9 7.9 72.2 8.2 C 72.5 8.6 72.9 8.8 73.4 8.8 C 73.9 8.8 74.2 8.7 74.5 8.3 C 74.8 7.9 75 7.4 75 6.5 C 75 5.8 74.8 5.2 74.5 4.8 C 74.2 4.5 73.8 4.3 73.4 4.3 C 72.9 4.3 72.5 4.5 72.2 4.8 C 71.9 5.2 71.7 5.7 71.7 6.4 Z M 78.4 10.2 L 78.4 0.2 L 80.4 0.2 L 80.4 10.2 L 78.4 10.2 Z M 81.9 6.5 C 81.9 5.8 82 5.2 82.4 4.6 C 82.7 4 83.1 3.6 83.7 3.2 C 84.3 2.9 84.9 2.8 85.6 2.8 C 86.7 2.8 87.6 3.1 88.3 3.8 C 89 4.6 89.4 5.5 89.4 6.5 C 89.4 7.6 89 8.6 88.3 9.3 C 87.6 10 86.7 10.4 85.6 10.4 C 85 10.4 84.3 10.2 83.7 9.9 C 83.1 9.6 82.7 9.2 82.4 8.6 C 82 8 81.9 7.3 81.9 6.5 Z M 83.9 6.6 C 83.9 7.3 84 7.8 84.4 8.2 C 84.7 8.6 85.1 8.8 85.6 8.8 C 86.1 8.8 86.6 8.6 86.9 8.2 C 87.2 7.8 87.4 7.3 87.4 6.5 C 87.4 5.8 87.2 5.3 86.9 4.9 C 86.6 4.5 86.1 4.3 85.6 4.3 C 85.1 4.3 84.7 4.5 84.4 4.9 C 84 5.3 83.9 5.8 83.9 6.6 Z M 90 2.9 L 92 2.9 L 93.8 8.1 L 95.5 2.9 L 97.4 2.9 L 94.9 9.9 C 94.9 9.9 94.42 11.18 94.4 11.2 C 94.2 11.6 94.1 11.9 93.9 12.2 C 93.8 12.4 93.6 12.6 93.4 12.7 C 93.2 12.8 93 12.9 92.7 13 C 92.4 13.1 92.1 13.1 91.7 13.1 C 91.3 13.1 91 13.1 90.6 13 C 90.6 13 90.4 11.5 90.4 11.5 C 90.7 11.6 91 11.6 91.3 11.6 C 91.7 11.6 92 11.5 92.2 11.2 C 92.5 11 92.6 10.6 92.7 10.2 C 92.74 10.21 90 2.9 90 2.9 Z M 102.9 7.9 C 102.9 7.9 104.8 8.2 104.8 8.2 C 104.5 8.9 104.2 9.4 103.6 9.8 C 103.1 10.2 102.4 10.4 101.6 10.4 C 100.4 10.4 99.4 9.9 98.8 9.1 C 98.3 8.5 98.1 7.6 98.1 6.6 C 98.1 5.4 98.4 4.5 99.1 3.8 C 99.7 3.1 100.5 2.8 101.4 2.8 C 102.5 2.8 103.4 3.1 104 3.8 C 104.6 4.6 104.9 5.6 104.9 7.1 C 104.9 7.1 100.1 7.1 100.1 7.1 C 100.1 7.7 100.2 8.1 100.5 8.4 C 100.8 8.8 101.2 8.9 101.7 8.9 C 102 8.9 102.2 8.8 102.4 8.7 C 102.6 8.5 102.8 8.2 102.9 7.9 Z M 103 5.9 C 103 5.4 102.8 5 102.6 4.7 C 102.3 4.4 101.9 4.2 101.6 4.2 C 101.1 4.2 100.8 4.4 100.5 4.7 C 100.2 5 100.1 5.4 100.1 5.9 C 100.1 5.9 103 5.9 103 5.9 Z M 108.3 10.2 L 106.4 10.2 L 106.4 2.9 L 108.2 2.9 C 108.2 2.9 108.16 3.96 108.2 4 C 108.5 3.5 108.7 3.2 109 3 C 109.2 2.8 109.5 2.8 109.8 2.8 C 110.2 2.8 110.7 2.9 111.1 3.1 C 111.1 3.1 110.5 4.8 110.5 4.8 C 110.2 4.6 109.9 4.5 109.6 4.5 C 109.3 4.5 109.1 4.6 108.9 4.7 C 108.7 4.9 108.6 5.1 108.5 5.5 C 108.3 5.9 108.3 6.7 108.3 8 C 108.29 7.95 108.3 10.2 108.3 10.2 Z M 111.2 8.1 C 111.2 8.1 113.2 7.8 113.2 7.8 C 113.2 8.2 113.4 8.5 113.7 8.7 C 113.9 8.9 114.3 9 114.7 9 C 115.2 9 115.6 8.9 115.8 8.7 C 116 8.6 116.1 8.4 116.1 8.2 C 116.1 8 116 7.9 115.9 7.8 C 115.8 7.7 115.6 7.6 115.3 7.6 C 113.8 7.2 112.8 6.9 112.4 6.6 C 111.8 6.2 111.5 5.7 111.5 5 C 111.5 4.4 111.7 3.8 112.2 3.4 C 112.7 3 113.5 2.8 114.5 2.8 C 115.5 2.8 116.3 2.9 116.8 3.3 C 117.2 3.6 117.6 4.1 117.8 4.7 C 117.8 4.7 116 5 116 5 C 115.9 4.7 115.7 4.5 115.5 4.4 C 115.3 4.2 115 4.1 114.6 4.1 C 114.1 4.1 113.7 4.2 113.5 4.4 C 113.4 4.5 113.3 4.6 113.3 4.8 C 113.3 4.9 113.3 5 113.5 5.1 C 113.6 5.2 114.2 5.4 115.3 5.6 C 116.3 5.9 117 6.2 117.4 6.5 C 117.8 6.8 118 7.3 118 7.9 C 118 8.6 117.7 9.2 117.2 9.6 C 116.6 10.1 115.8 10.4 114.7 10.4 C 113.7 10.4 112.9 10.2 112.4 9.8 C 111.8 9.4 111.4 8.8 111.2 8.1 Z " stroke="none" fill="#ffffff"/>  </g></svg>