<?xml version="1.0" standalone="no"?><!DOCTYPE svg PUBLIC "-//W3C//DTD SVG 1.1//EN" "http://www.w3.org/Graphics/SVG/1.1/DTD/svg11.dtd"><svg xmlns="http://www.w3.org/2000/svg" version="1.1" width="237px" height="33.9px" viewBox="0 -1 237 33.9" style="top:-1px">  <desc>Sales &amp; Marketing</desc>  <defs/>  <g id="Polygon134479">    <path d="M 0.5 16.3 C 0.5 16.3 2.5 16.1 2.5 16.1 C 2.6 16.8 2.8 17.3 3.2 17.6 C 3.6 17.9 4 18.1 4.7 18.1 C 5.3 18.1 5.8 17.9 6.1 17.6 C 6.5 17.4 6.6 17 6.6 16.7 C 6.6 16.4 6.6 16.2 6.4 16.1 C 6.3 15.9 6 15.8 5.7 15.6 C 5.5 15.6 4.9 15.4 4.1 15.2 C 3 14.9 2.2 14.6 1.8 14.2 C 1.2 13.7 0.9 13 0.9 12.2 C 0.9 11.7 1 11.2 1.3 10.8 C 1.6 10.3 2 10 2.6 9.7 C 3.1 9.5 3.8 9.4 4.5 9.4 C 5.8 9.4 6.7 9.7 7.4 10.2 C 8 10.8 8.3 11.5 8.4 12.4 C 8.4 12.4 6.3 12.5 6.3 12.5 C 6.3 12 6.1 11.6 5.8 11.4 C 5.5 11.2 5.1 11.1 4.5 11.1 C 3.9 11.1 3.5 11.2 3.1 11.4 C 2.9 11.6 2.8 11.8 2.8 12.1 C 2.8 12.3 2.9 12.5 3.1 12.7 C 3.4 12.9 4 13.1 5 13.3 C 5.9 13.6 6.7 13.8 7.1 14.1 C 7.6 14.3 8 14.6 8.3 15.1 C 8.5 15.5 8.7 16 8.7 16.7 C 8.7 17.2 8.5 17.8 8.2 18.3 C 7.9 18.8 7.4 19.2 6.8 19.4 C 6.2 19.6 5.5 19.8 4.6 19.8 C 3.4 19.8 2.4 19.5 1.7 18.9 C 1 18.3 0.6 17.5 0.5 16.3 Z M 11.8 14.5 C 11.8 14.5 10 14.2 10 14.2 C 10.2 13.5 10.6 13 11 12.7 C 11.5 12.3 12.2 12.2 13.2 12.2 C 14 12.2 14.7 12.3 15.1 12.5 C 15.5 12.7 15.8 12.9 16 13.2 C 16.1 13.6 16.2 14.1 16.2 15 C 16.2 15 16.2 17.2 16.2 17.2 C 16.2 17.8 16.2 18.3 16.3 18.6 C 16.4 18.9 16.5 19.2 16.7 19.6 C 16.7 19.6 14.8 19.6 14.8 19.6 C 14.7 19.5 14.6 19.3 14.6 19 C 14.5 18.9 14.5 18.8 14.5 18.8 C 14.2 19.1 13.8 19.4 13.4 19.5 C 13.1 19.7 12.7 19.8 12.3 19.8 C 11.5 19.8 10.9 19.6 10.5 19.1 C 10.1 18.7 9.8 18.2 9.8 17.6 C 9.8 17.2 9.9 16.8 10.1 16.5 C 10.3 16.2 10.6 15.9 11 15.8 C 11.3 15.6 11.8 15.5 12.5 15.3 C 13.4 15.2 14 15 14.3 14.9 C 14.3 14.9 14.3 14.7 14.3 14.7 C 14.3 14.3 14.3 14 14.1 13.9 C 13.9 13.7 13.5 13.6 13 13.6 C 12.7 13.6 12.4 13.7 12.2 13.8 C 12.1 14 11.9 14.2 11.8 14.5 Z M 14.3 16.1 C 14.1 16.2 13.7 16.3 13.2 16.4 C 12.6 16.5 12.3 16.6 12.1 16.7 C 11.9 16.9 11.8 17.1 11.8 17.4 C 11.8 17.7 11.9 17.9 12.1 18.1 C 12.3 18.3 12.5 18.4 12.8 18.4 C 13.2 18.4 13.5 18.3 13.8 18.1 C 14 17.9 14.2 17.7 14.3 17.4 C 14.3 17.3 14.3 16.9 14.3 16.5 C 14.3 16.5 14.3 16.1 14.3 16.1 Z M 18.1 19.6 L 18.1 9.6 L 20 9.6 L 20 19.6 L 18.1 19.6 Z M 26.2 17.3 C 26.2 17.3 28.1 17.6 28.1 17.6 C 27.9 18.3 27.5 18.8 27 19.2 C 26.4 19.6 25.8 19.8 25 19.8 C 23.7 19.8 22.8 19.3 22.2 18.5 C 21.7 17.9 21.5 17 21.5 16 C 21.5 14.8 21.8 13.9 22.4 13.2 C 23 12.5 23.8 12.2 24.8 12.2 C 25.9 12.2 26.7 12.5 27.3 13.2 C 28 14 28.3 15 28.2 16.5 C 28.2 16.5 23.4 16.5 23.4 16.5 C 23.4 17.1 23.6 17.5 23.9 17.8 C 24.2 18.2 24.6 18.3 25 18.3 C 25.3 18.3 25.6 18.2 25.8 18.1 C 26 17.9 26.1 17.6 26.2 17.3 Z M 26.3 15.3 C 26.3 14.8 26.2 14.4 25.9 14.1 C 25.6 13.8 25.3 13.6 24.9 13.6 C 24.5 13.6 24.1 13.8 23.9 14.1 C 23.6 14.4 23.5 14.8 23.5 15.3 C 23.5 15.3 26.3 15.3 26.3 15.3 Z M 29.1 17.5 C 29.1 17.5 31.1 17.2 31.1 17.2 C 31.1 17.6 31.3 17.9 31.6 18.1 C 31.8 18.3 32.2 18.4 32.6 18.4 C 33.1 18.4 33.5 18.3 33.7 18.1 C 33.9 18 34 17.8 34 17.6 C 34 17.4 33.9 17.3 33.8 17.2 C 33.7 17.1 33.5 17 33.2 17 C 31.7 16.6 30.7 16.3 30.3 16 C 29.7 15.6 29.4 15.1 29.4 14.4 C 29.4 13.8 29.6 13.2 30.1 12.8 C 30.6 12.4 31.4 12.2 32.5 12.2 C 33.4 12.2 34.2 12.3 34.7 12.7 C 35.1 13 35.5 13.5 35.7 14.1 C 35.7 14.1 33.9 14.4 33.9 14.4 C 33.8 14.1 33.6 13.9 33.4 13.8 C 33.2 13.6 32.9 13.5 32.5 13.5 C 32 13.5 31.6 13.6 31.4 13.8 C 31.3 13.9 31.2 14 31.2 14.2 C 31.2 14.3 31.2 14.4 31.4 14.5 C 31.5 14.6 32.1 14.8 33.2 15 C 34.2 15.3 34.9 15.6 35.3 15.9 C 35.7 16.2 35.9 16.7 35.9 17.3 C 35.9 18 35.6 18.6 35.1 19 C 34.5 19.5 33.7 19.8 32.6 19.8 C 31.6 19.8 30.8 19.6 30.3 19.2 C 29.7 18.8 29.3 18.2 29.1 17.5 Z M 50.4 18.4 C 50.4 18.4 49.2 19.9 49.2 19.9 C 48.6 19.6 48.1 19.2 47.6 18.7 C 47.2 19.1 46.7 19.3 46.3 19.5 C 45.8 19.7 45.3 19.8 44.6 19.8 C 43.4 19.8 42.5 19.4 41.8 18.7 C 41.3 18.2 41.1 17.6 41.1 16.8 C 41.1 16.2 41.3 15.6 41.7 15.1 C 42 14.6 42.6 14.2 43.4 13.8 C 43 13.4 42.8 13 42.6 12.6 C 42.4 12.2 42.3 11.9 42.3 11.6 C 42.3 11 42.6 10.5 43.1 10 C 43.6 9.6 44.3 9.4 45.2 9.4 C 46 9.4 46.7 9.6 47.2 10.1 C 47.7 10.5 47.9 11 47.9 11.7 C 47.9 12.1 47.8 12.5 47.6 12.8 C 47.3 13.2 46.8 13.6 46.1 14.1 C 46.1 14.1 47.5 15.9 47.5 15.9 C 47.6 15.6 47.8 15.2 47.9 14.8 C 47.9 14.8 49.6 15.2 49.6 15.2 C 49.5 15.8 49.3 16.2 49.2 16.5 C 49.1 16.8 48.9 17 48.8 17.2 C 49 17.4 49.3 17.7 49.6 17.9 C 50 18.1 50.2 18.3 50.4 18.4 Z M 45.1 12.9 C 45.1 12.9 45.65 12.52 45.7 12.5 C 46 12.2 46.2 11.9 46.2 11.6 C 46.2 11.4 46.1 11.2 45.9 11 C 45.8 10.8 45.5 10.8 45.2 10.8 C 44.9 10.8 44.7 10.8 44.5 11 C 44.3 11.1 44.2 11.3 44.2 11.5 C 44.2 11.7 44.4 12 44.7 12.4 C 44.66 12.37 45.1 12.9 45.1 12.9 Z M 44.4 15 C 43.9 15.2 43.6 15.5 43.4 15.8 C 43.2 16.1 43.1 16.4 43.1 16.8 C 43.1 17.2 43.2 17.5 43.5 17.8 C 43.7 18.1 44.1 18.2 44.6 18.2 C 44.9 18.2 45.1 18.1 45.4 18 C 45.7 17.9 46 17.7 46.3 17.4 C 46.3 17.4 44.4 15 44.4 15 Z M 55.5 19.6 L 55.5 9.6 L 58.5 9.6 L 60.3 16.4 L 62.1 9.6 L 65.1 9.6 L 65.1 19.6 L 63.3 19.6 L 63.3 11.7 L 61.3 19.6 L 59.3 19.6 L 57.3 11.7 L 57.3 19.6 L 55.5 19.6 Z M 68.6 14.5 C 68.6 14.5 66.8 14.2 66.8 14.2 C 67 13.5 67.4 13 67.8 12.7 C 68.3 12.3 69 12.2 70 12.2 C 70.8 12.2 71.5 12.3 71.9 12.5 C 72.3 12.7 72.6 12.9 72.8 13.2 C 72.9 13.6 73 14.1 73 15 C 73 15 73 17.2 73 17.2 C 73 17.8 73 18.3 73.1 18.6 C 73.2 18.9 73.3 19.2 73.5 19.6 C 73.5 19.6 71.6 19.6 71.6 19.6 C 71.5 19.5 71.4 19.3 71.4 19 C 71.3 18.9 71.3 18.8 71.3 18.8 C 71 19.1 70.6 19.4 70.2 19.5 C 69.9 19.7 69.5 19.8 69 19.8 C 68.3 19.8 67.7 19.6 67.3 19.1 C 66.9 18.7 66.6 18.2 66.6 17.6 C 66.6 17.2 66.7 16.8 66.9 16.5 C 67.1 16.2 67.4 15.9 67.8 15.8 C 68.1 15.6 68.6 15.5 69.3 15.3 C 70.2 15.2 70.8 15 71.1 14.9 C 71.1 14.9 71.1 14.7 71.1 14.7 C 71.1 14.3 71.1 14 70.9 13.9 C 70.7 13.7 70.3 13.6 69.8 13.6 C 69.5 13.6 69.2 13.7 69 13.8 C 68.9 14 68.7 14.2 68.6 14.5 Z M 71.1 16.1 C 70.9 16.2 70.5 16.3 70 16.4 C 69.4 16.5 69.1 16.6 68.9 16.7 C 68.7 16.9 68.6 17.1 68.6 17.4 C 68.6 17.7 68.7 17.9 68.9 18.1 C 69.1 18.3 69.3 18.4 69.6 18.4 C 70 18.4 70.3 18.3 70.6 18.1 C 70.8 17.9 71 17.7 71.1 17.4 C 71.1 17.3 71.1 16.9 71.1 16.5 C 71.1 16.5 71.1 16.1 71.1 16.1 Z M 76.8 19.6 L 74.8 19.6 L 74.8 12.3 L 76.6 12.3 C 76.6 12.3 76.63 13.36 76.6 13.4 C 76.9 12.9 77.2 12.6 77.5 12.4 C 77.7 12.2 78 12.2 78.3 12.2 C 78.7 12.2 79.1 12.3 79.5 12.5 C 79.5 12.5 79 14.2 79 14.2 C 78.6 14 78.3 13.9 78.1 13.9 C 77.8 13.9 77.6 14 77.4 14.1 C 77.2 14.3 77 14.5 76.9 14.9 C 76.8 15.3 76.8 16.1 76.8 17.4 C 76.77 17.35 76.8 19.6 76.8 19.6 Z M 80.3 19.6 L 80.3 9.6 L 82.2 9.6 L 82.2 14.9 L 84.5 12.3 L 86.8 12.3 L 84.4 15 L 87 19.6 L 85 19.6 L 83.1 16.3 L 82.2 17.3 L 82.2 19.6 L 80.3 19.6 Z M 92.4 17.3 C 92.4 17.3 94.3 17.6 94.3 17.6 C 94 18.3 93.6 18.8 93.1 19.2 C 92.6 19.6 91.9 19.8 91.1 19.8 C 89.9 19.8 88.9 19.3 88.3 18.5 C 87.8 17.9 87.6 17 87.6 16 C 87.6 14.8 87.9 13.9 88.5 13.2 C 89.2 12.5 90 12.2 90.9 12.2 C 92 12.2 92.9 12.5 93.5 13.2 C 94.1 14 94.4 15 94.4 16.5 C 94.4 16.5 89.6 16.5 89.6 16.5 C 89.6 17.1 89.7 17.5 90 17.8 C 90.3 18.2 90.7 18.3 91.1 18.3 C 91.4 18.3 91.7 18.2 91.9 18.1 C 92.1 17.9 92.3 17.6 92.4 17.3 Z M 92.5 15.3 C 92.5 14.8 92.3 14.4 92 14.1 C 91.8 13.8 91.4 13.6 91 13.6 C 90.6 13.6 90.3 13.8 90 14.1 C 89.7 14.4 89.6 14.8 89.6 15.3 C 89.6 15.3 92.5 15.3 92.5 15.3 Z M 99.3 12.3 L 99.3 13.9 L 98 13.9 C 98 13.9 97.97 16.79 98 16.8 C 98 17.4 98 17.7 98 17.8 C 98 17.9 98.1 18 98.2 18.1 C 98.3 18.1 98.4 18.2 98.5 18.2 C 98.7 18.2 98.9 18.1 99.3 18 C 99.3 18 99.4 19.5 99.4 19.5 C 99 19.7 98.5 19.8 97.9 19.8 C 97.6 19.8 97.3 19.7 97 19.6 C 96.7 19.5 96.5 19.3 96.4 19.1 C 96.2 18.9 96.1 18.7 96.1 18.4 C 96.1 18.2 96 17.7 96 17 C 96.04 17.03 96 13.9 96 13.9 L 95.2 13.9 L 95.2 12.3 L 96 12.3 L 96 10.9 L 98 9.8 L 98 12.3 L 99.3 12.3 Z M 100.6 11.3 L 100.6 9.6 L 102.5 9.6 L 102.5 11.3 L 100.6 11.3 Z M 100.6 19.6 L 100.6 12.3 L 102.5 12.3 L 102.5 19.6 L 100.6 19.6 Z M 111.1 19.6 L 109.2 19.6 C 109.2 19.6 109.18 15.89 109.2 15.9 C 109.2 15.1 109.1 14.6 109.1 14.4 C 109 14.1 108.8 14 108.7 13.8 C 108.5 13.7 108.3 13.6 108 13.6 C 107.7 13.6 107.4 13.7 107.1 13.9 C 106.8 14.1 106.7 14.3 106.6 14.6 C 106.5 14.9 106.4 15.5 106.4 16.3 C 106.41 16.3 106.4 19.6 106.4 19.6 L 104.5 19.6 L 104.5 12.3 L 106.3 12.3 C 106.3 12.3 106.27 13.4 106.3 13.4 C 106.9 12.6 107.7 12.2 108.7 12.2 C 109.1 12.2 109.5 12.2 109.8 12.4 C 110.2 12.6 110.4 12.7 110.6 13 C 110.8 13.2 110.9 13.5 111 13.8 C 111.1 14.1 111.1 14.5 111.1 15.1 C 111.1 15.08 111.1 19.6 111.1 19.6 Z M 112.9 20.3 C 112.9 20.2 112.9 20.2 112.9 20.1 C 112.9 20.1 115.1 20.3 115.1 20.3 C 115.1 20.6 115.2 20.8 115.3 20.9 C 115.5 21 115.8 21.1 116.2 21.1 C 116.7 21.1 117.1 21 117.3 20.8 C 117.5 20.7 117.6 20.6 117.7 20.4 C 117.8 20.2 117.8 19.9 117.8 19.5 C 117.8 19.5 117.8 18.4 117.8 18.4 C 117.2 19.2 116.5 19.6 115.6 19.6 C 114.6 19.6 113.9 19.2 113.3 18.4 C 112.8 17.7 112.6 16.9 112.6 15.9 C 112.6 14.7 112.9 13.8 113.5 13.1 C 114.1 12.5 114.8 12.2 115.7 12.2 C 116.6 12.2 117.3 12.6 117.9 13.4 C 117.91 13.35 117.9 12.3 117.9 12.3 L 119.7 12.3 C 119.7 12.3 119.7 18.85 119.7 18.8 C 119.7 19.7 119.6 20.3 119.5 20.8 C 119.4 21.2 119.2 21.5 118.9 21.8 C 118.6 22 118.3 22.2 117.9 22.3 C 117.4 22.5 116.9 22.5 116.3 22.5 C 115 22.5 114.2 22.3 113.6 21.9 C 113.1 21.5 112.9 21 112.9 20.3 C 112.9 20.3 112.9 20.3 112.9 20.3 Z M 114.6 15.8 C 114.6 16.6 114.7 17.1 115 17.5 C 115.3 17.9 115.7 18 116.1 18 C 116.6 18 117 17.9 117.3 17.5 C 117.7 17.1 117.8 16.6 117.8 15.9 C 117.8 15.1 117.7 14.5 117.4 14.2 C 117 13.8 116.7 13.6 116.2 13.6 C 115.7 13.6 115.3 13.8 115 14.2 C 114.7 14.5 114.6 15.1 114.6 15.8 Z " stroke="none" fill="#fff"/>  </g></svg>