<?xml version="1.0" standalone="no"?><!DOCTYPE svg PUBLIC "-//W3C//DTD SVG 1.1//EN" "http://www.w3.org/Graphics/SVG/1.1/DTD/svg11.dtd"><svg xmlns="http://www.w3.org/2000/svg" version="1.1" width="50px" height="25.9px" viewBox="0 -1 50 25.9" style="top:-1px">  <desc>97%</desc>  <defs/>  <g id="Polygon137528">    <path d="M 11.5 13.4 C 11.5 13.4 13.3 13.2 13.3 13.2 C 13.4 13.6 13.5 13.9 13.7 14.1 C 13.9 14.3 14.1 14.4 14.4 14.4 C 14.8 14.4 15.2 14.2 15.5 13.8 C 15.7 13.4 15.9 12.7 16 11.5 C 15.5 12.1 14.9 12.4 14.2 12.4 C 13.4 12.4 12.7 12.1 12.1 11.5 C 11.6 10.9 11.3 10.1 11.3 9.1 C 11.3 8.1 11.6 7.3 12.2 6.6 C 12.8 6 13.6 5.7 14.5 5.7 C 15.5 5.7 16.3 6.1 17 6.9 C 17.6 7.7 18 9 18 10.8 C 18 12.6 17.6 13.9 16.9 14.7 C 16.3 15.5 15.4 15.9 14.3 15.9 C 13.5 15.9 12.9 15.7 12.4 15.3 C 11.9 14.9 11.6 14.3 11.5 13.4 Z M 15.8 9.2 C 15.8 8.6 15.7 8.1 15.4 7.8 C 15.1 7.5 14.8 7.3 14.4 7.3 C 14 7.3 13.7 7.4 13.5 7.7 C 13.3 8 13.2 8.5 13.2 9.1 C 13.2 9.7 13.3 10.2 13.5 10.5 C 13.8 10.8 14.1 11 14.5 11 C 14.9 11 15.2 10.8 15.4 10.5 C 15.7 10.2 15.8 9.8 15.8 9.2 Z M 19.2 7.7 L 19.2 5.9 L 25.8 5.9 C 25.8 5.9 25.78 7.27 25.8 7.3 C 25.2 7.8 24.7 8.6 24.1 9.6 C 23.6 10.6 23.1 11.6 22.8 12.8 C 22.5 13.9 22.4 14.9 22.4 15.8 C 22.4 15.8 20.6 15.8 20.6 15.8 C 20.6 14.4 20.9 13 21.4 11.5 C 22 10.1 22.7 8.8 23.6 7.7 C 23.58 7.66 19.2 7.7 19.2 7.7 Z M 27 8.2 C 27 7.3 27.2 6.7 27.6 6.2 C 28 5.8 28.5 5.6 29.2 5.6 C 29.9 5.6 30.4 5.8 30.8 6.2 C 31.2 6.6 31.4 7.3 31.4 8.2 C 31.4 9.1 31.2 9.8 30.8 10.2 C 30.4 10.6 29.9 10.9 29.2 10.9 C 28.5 10.9 28 10.6 27.6 10.2 C 27.2 9.8 27 9.1 27 8.2 Z M 28.7 6.9 C 28.6 7.1 28.5 7.6 28.5 8.2 C 28.5 8.9 28.6 9.3 28.7 9.5 C 28.8 9.7 29 9.8 29.2 9.8 C 29.4 9.8 29.6 9.7 29.7 9.5 C 29.8 9.3 29.9 8.9 29.9 8.2 C 29.9 7.6 29.8 7.1 29.7 6.9 C 29.6 6.7 29.4 6.6 29.2 6.6 C 29 6.6 28.8 6.7 28.7 6.9 C 28.7 6.9 28.7 6.9 28.7 6.9 Z M 30.7 16.1 L 29.2 16.1 L 34.6 5.6 L 36 5.6 L 30.7 16.1 Z M 33.8 13.5 C 33.8 12.6 34 12 34.4 11.5 C 34.8 11.1 35.3 10.9 36 10.9 C 36.7 10.9 37.2 11.1 37.6 11.5 C 38 12 38.2 12.6 38.2 13.5 C 38.2 14.4 38 15.1 37.6 15.5 C 37.2 16 36.7 16.2 36 16.2 C 35.3 16.2 34.8 16 34.4 15.5 C 34 15.1 33.8 14.4 33.8 13.5 Z M 35.5 12.2 C 35.3 12.4 35.3 12.9 35.3 13.5 C 35.3 14.2 35.3 14.6 35.5 14.8 C 35.6 15 35.8 15.1 36 15.1 C 36.2 15.1 36.3 15 36.4 14.8 C 36.6 14.6 36.7 14.2 36.7 13.5 C 36.7 12.9 36.6 12.4 36.4 12.2 C 36.3 12 36.2 11.9 36 11.9 C 35.8 11.9 35.6 12 35.5 12.2 C 35.5 12.2 35.5 12.2 35.5 12.2 Z " stroke="none" fill="#fff"/>  </g></svg>