<?xml version="1.0" standalone="no"?><!DOCTYPE svg PUBLIC "-//W3C//DTD SVG 1.1//EN" "http://www.w3.org/Graphics/SVG/1.1/DTD/svg11.dtd"><svg xmlns="http://www.w3.org/2000/svg" version="1.1" width="135.1px" height="23.9px" viewBox="0 -5 135.1 23.9" style="top:-5px">  <desc>EPA Booking Process</desc>  <defs/>  <g id="Polygon139318">    <path d="M 1.1 10.2 L 1.1 0.2 L 8.4 0.2 L 8.4 1.4 L 2.4 1.4 L 2.4 4.4 L 8 4.4 L 8 5.6 L 2.4 5.6 L 2.4 9 L 8.6 9 L 8.6 10.2 L 1.1 10.2 Z M 10.4 10.2 L 10.4 0.2 C 10.4 0.2 14.2 0.17 14.2 0.2 C 14.9 0.2 15.4 0.2 15.7 0.3 C 16.2 0.3 16.6 0.5 17 0.7 C 17.3 1 17.6 1.3 17.8 1.7 C 18 2.1 18.1 2.6 18.1 3.1 C 18.1 3.9 17.8 4.6 17.3 5.2 C 16.7 5.8 15.7 6.1 14.3 6.1 C 14.31 6.12 11.7 6.1 11.7 6.1 L 11.7 10.2 L 10.4 10.2 Z M 11.7 4.9 C 11.7 4.9 14.33 4.94 14.3 4.9 C 15.2 4.9 15.8 4.8 16.2 4.5 C 16.5 4.1 16.7 3.7 16.7 3.1 C 16.7 2.7 16.6 2.3 16.4 2 C 16.2 1.7 15.9 1.5 15.5 1.4 C 15.3 1.4 14.9 1.4 14.3 1.4 C 14.31 1.35 11.7 1.4 11.7 1.4 L 11.7 4.9 Z M 17.6 10.2 L 21.5 0.2 L 22.9 0.2 L 27 10.2 L 25.5 10.2 L 24.3 7.2 L 20.1 7.2 L 19 10.2 L 17.6 10.2 Z M 20.5 6.1 L 23.9 6.1 C 23.9 6.1 22.86 3.3 22.9 3.3 C 22.5 2.5 22.3 1.8 22.1 1.2 C 22 1.9 21.8 2.5 21.6 3.1 C 21.61 3.14 20.5 6.1 20.5 6.1 Z M 31.1 10.2 L 31.1 0.2 C 31.1 0.2 34.88 0.17 34.9 0.2 C 35.6 0.2 36.3 0.3 36.7 0.5 C 37.2 0.7 37.5 1 37.8 1.4 C 38.1 1.8 38.2 2.3 38.2 2.7 C 38.2 3.2 38.1 3.6 37.9 3.9 C 37.6 4.3 37.3 4.6 36.8 4.9 C 37.4 5 37.9 5.3 38.2 5.8 C 38.5 6.2 38.7 6.7 38.7 7.3 C 38.7 7.8 38.6 8.2 38.4 8.6 C 38.2 9 37.9 9.3 37.7 9.5 C 37.4 9.7 37 9.9 36.6 10 C 36.1 10.1 35.6 10.2 34.9 10.2 C 34.94 10.19 31.1 10.2 31.1 10.2 Z M 32.4 4.4 C 32.4 4.4 34.61 4.38 34.6 4.4 C 35.2 4.4 35.6 4.3 35.9 4.3 C 36.2 4.2 36.5 4 36.6 3.8 C 36.8 3.5 36.9 3.2 36.9 2.9 C 36.9 2.6 36.8 2.3 36.7 2 C 36.5 1.8 36.3 1.6 36 1.5 C 35.7 1.4 35.2 1.4 34.4 1.4 C 34.45 1.35 32.4 1.4 32.4 1.4 L 32.4 4.4 Z M 32.4 9 C 32.4 9 34.94 9.01 34.9 9 C 35.4 9 35.7 9 35.8 9 C 36.1 8.9 36.4 8.8 36.6 8.7 C 36.8 8.6 37 8.4 37.1 8.1 C 37.2 7.9 37.3 7.6 37.3 7.3 C 37.3 6.9 37.2 6.6 37 6.3 C 36.8 6 36.6 5.8 36.2 5.7 C 35.9 5.6 35.4 5.6 34.8 5.6 C 34.76 5.56 32.4 5.6 32.4 5.6 L 32.4 9 Z M 39.9 6.6 C 39.9 5.2 40.3 4.2 41 3.6 C 41.6 3 42.4 2.8 43.3 2.8 C 44.3 2.8 45.1 3.1 45.7 3.7 C 46.4 4.4 46.7 5.3 46.7 6.5 C 46.7 7.4 46.6 8.1 46.3 8.7 C 46 9.2 45.6 9.6 45.1 9.9 C 44.5 10.2 43.9 10.4 43.3 10.4 C 42.3 10.4 41.5 10 40.8 9.4 C 40.2 8.7 39.9 7.8 39.9 6.6 Z M 41.2 6.6 C 41.2 7.5 41.4 8.2 41.8 8.7 C 42.2 9.1 42.7 9.3 43.3 9.3 C 43.9 9.3 44.4 9.1 44.8 8.6 C 45.2 8.2 45.4 7.5 45.4 6.5 C 45.4 5.6 45.2 4.9 44.8 4.5 C 44.4 4 43.9 3.8 43.3 3.8 C 42.7 3.8 42.2 4 41.8 4.5 C 41.4 4.9 41.2 5.6 41.2 6.6 Z M 47.7 6.6 C 47.7 5.2 48.1 4.2 48.8 3.6 C 49.4 3 50.2 2.8 51.1 2.8 C 52.1 2.8 52.9 3.1 53.5 3.7 C 54.2 4.4 54.5 5.3 54.5 6.5 C 54.5 7.4 54.3 8.1 54.1 8.7 C 53.8 9.2 53.4 9.6 52.8 9.9 C 52.3 10.2 51.7 10.4 51.1 10.4 C 50.1 10.4 49.2 10 48.6 9.4 C 48 8.7 47.7 7.8 47.7 6.6 Z M 48.9 6.6 C 48.9 7.5 49.1 8.2 49.6 8.7 C 50 9.1 50.5 9.3 51.1 9.3 C 51.7 9.3 52.2 9.1 52.6 8.6 C 53 8.2 53.2 7.5 53.2 6.5 C 53.2 5.6 53 4.9 52.6 4.5 C 52.2 4 51.7 3.8 51.1 3.8 C 50.5 3.8 50 4 49.6 4.5 C 49.1 4.9 48.9 5.6 48.9 6.6 Z M 55.9 10.2 L 55.9 0.2 L 57.2 0.2 L 57.2 5.9 L 60.1 2.9 L 61.7 2.9 L 58.9 5.6 L 61.9 10.2 L 60.4 10.2 L 58 6.5 L 57.2 7.3 L 57.2 10.2 L 55.9 10.2 Z M 62.9 1.6 L 62.9 0.2 L 64.2 0.2 L 64.2 1.6 L 62.9 1.6 Z M 62.9 10.2 L 62.9 2.9 L 64.2 2.9 L 64.2 10.2 L 62.9 10.2 Z M 66 10.2 L 66 2.9 L 67.1 2.9 C 67.1 2.9 67.14 3.96 67.1 4 C 67.7 3.2 68.4 2.8 69.5 2.8 C 69.9 2.8 70.3 2.8 70.7 3 C 71 3.2 71.3 3.4 71.5 3.6 C 71.7 3.9 71.8 4.2 71.9 4.5 C 71.9 4.8 71.9 5.2 71.9 5.7 C 71.93 5.73 71.9 10.2 71.9 10.2 L 70.7 10.2 C 70.7 10.2 70.7 5.78 70.7 5.8 C 70.7 5.3 70.7 4.9 70.6 4.7 C 70.5 4.4 70.3 4.2 70.1 4.1 C 69.8 3.9 69.5 3.8 69.2 3.8 C 68.7 3.8 68.2 4 67.8 4.3 C 67.5 4.7 67.3 5.3 67.3 6.2 C 67.27 6.23 67.3 10.2 67.3 10.2 L 66 10.2 Z M 73.6 10.8 C 73.6 10.8 74.8 11 74.8 11 C 74.8 11.3 75 11.6 75.2 11.8 C 75.5 12 75.9 12.1 76.5 12.1 C 77 12.1 77.5 12 77.8 11.8 C 78.1 11.6 78.3 11.2 78.4 10.8 C 78.5 10.6 78.5 10 78.5 9.2 C 78 9.9 77.3 10.2 76.5 10.2 C 75.5 10.2 74.7 9.8 74.2 9.1 C 73.6 8.4 73.3 7.5 73.3 6.5 C 73.3 5.8 73.5 5.2 73.7 4.6 C 74 4 74.3 3.6 74.8 3.2 C 75.3 2.9 75.9 2.8 76.5 2.8 C 77.4 2.8 78.1 3.1 78.6 3.8 C 78.61 3.81 78.6 2.9 78.6 2.9 L 79.7 2.9 C 79.7 2.9 79.75 9.21 79.7 9.2 C 79.7 10.3 79.6 11.1 79.4 11.6 C 79.2 12.1 78.8 12.5 78.3 12.7 C 77.8 13 77.2 13.1 76.5 13.1 C 75.6 13.1 74.9 12.9 74.4 12.6 C 73.8 12.2 73.6 11.6 73.6 10.8 Z M 74.6 6.4 C 74.6 7.4 74.8 8.1 75.2 8.5 C 75.6 9 76 9.2 76.6 9.2 C 77.2 9.2 77.6 9 78 8.5 C 78.4 8.1 78.6 7.4 78.6 6.5 C 78.6 5.6 78.4 4.9 78 4.5 C 77.6 4 77.1 3.8 76.6 3.8 C 76 3.8 75.6 4 75.2 4.5 C 74.8 4.9 74.6 5.6 74.6 6.4 Z M 85.7 10.2 L 85.7 0.2 C 85.7 0.2 89.43 0.17 89.4 0.2 C 90.1 0.2 90.6 0.2 91 0.3 C 91.5 0.3 91.9 0.5 92.2 0.7 C 92.5 1 92.8 1.3 93 1.7 C 93.2 2.1 93.3 2.6 93.3 3.1 C 93.3 3.9 93 4.6 92.5 5.2 C 91.9 5.8 91 6.1 89.6 6.1 C 89.55 6.12 87 6.1 87 6.1 L 87 10.2 L 85.7 10.2 Z M 87 4.9 C 87 4.9 89.57 4.94 89.6 4.9 C 90.4 4.9 91 4.8 91.4 4.5 C 91.8 4.1 91.9 3.7 91.9 3.1 C 91.9 2.7 91.8 2.3 91.6 2 C 91.4 1.7 91.1 1.5 90.8 1.4 C 90.6 1.4 90.1 1.4 89.5 1.4 C 89.54 1.35 87 1.4 87 1.4 L 87 4.9 Z M 94.8 10.2 L 94.8 2.9 L 95.9 2.9 C 95.9 2.9 95.93 4.03 95.9 4 C 96.2 3.5 96.5 3.2 96.7 3 C 97 2.9 97.2 2.8 97.5 2.8 C 97.9 2.8 98.3 2.9 98.8 3.2 C 98.8 3.2 98.3 4.3 98.3 4.3 C 98 4.1 97.7 4 97.4 4 C 97.2 4 96.9 4.1 96.7 4.3 C 96.5 4.4 96.3 4.7 96.3 5 C 96.1 5.4 96.1 5.9 96.1 6.4 C 96.05 6.39 96.1 10.2 96.1 10.2 L 94.8 10.2 Z M 99 6.6 C 99 5.2 99.4 4.2 100.2 3.6 C 100.8 3 101.5 2.8 102.4 2.8 C 103.4 2.8 104.3 3.1 104.9 3.7 C 105.5 4.4 105.8 5.3 105.8 6.5 C 105.8 7.4 105.7 8.1 105.4 8.7 C 105.1 9.2 104.7 9.6 104.2 9.9 C 103.7 10.2 103.1 10.4 102.4 10.4 C 101.4 10.4 100.6 10 100 9.4 C 99.4 8.7 99 7.8 99 6.6 Z M 100.3 6.6 C 100.3 7.5 100.5 8.2 100.9 8.7 C 101.3 9.1 101.8 9.3 102.4 9.3 C 103.1 9.3 103.6 9.1 104 8.6 C 104.4 8.2 104.6 7.5 104.6 6.5 C 104.6 5.6 104.4 4.9 104 4.5 C 103.6 4 103 3.8 102.4 3.8 C 101.8 3.8 101.3 4 100.9 4.5 C 100.5 4.9 100.3 5.6 100.3 6.6 Z M 112 7.5 C 112 7.5 113.2 7.7 113.2 7.7 C 113.1 8.5 112.8 9.2 112.2 9.6 C 111.7 10.1 111 10.4 110.2 10.4 C 109.2 10.4 108.4 10 107.8 9.4 C 107.2 8.7 106.9 7.8 106.9 6.6 C 106.9 5.8 107 5.1 107.3 4.5 C 107.6 3.9 108 3.5 108.5 3.2 C 109 2.9 109.6 2.8 110.2 2.8 C 111 2.8 111.6 3 112.2 3.4 C 112.7 3.8 113 4.3 113.1 5.1 C 113.1 5.1 111.9 5.3 111.9 5.3 C 111.8 4.8 111.6 4.4 111.3 4.1 C 111 3.9 110.7 3.8 110.3 3.8 C 109.6 3.8 109.1 4 108.8 4.4 C 108.4 4.9 108.2 5.6 108.2 6.6 C 108.2 7.5 108.4 8.2 108.7 8.7 C 109.1 9.1 109.6 9.3 110.2 9.3 C 110.7 9.3 111.1 9.2 111.4 8.9 C 111.7 8.6 111.9 8.1 112 7.5 Z M 119.3 7.9 C 119.3 7.9 120.5 8 120.5 8 C 120.3 8.8 120 9.3 119.4 9.7 C 118.9 10.2 118.2 10.4 117.3 10.4 C 116.3 10.4 115.4 10 114.8 9.4 C 114.2 8.7 113.9 7.8 113.9 6.6 C 113.9 5.4 114.2 4.5 114.8 3.8 C 115.4 3.1 116.3 2.8 117.3 2.8 C 118.2 2.8 119 3.1 119.6 3.8 C 120.3 4.4 120.6 5.4 120.6 6.5 C 120.6 6.6 120.6 6.7 120.6 6.9 C 120.6 6.9 115.1 6.9 115.1 6.9 C 115.2 7.7 115.4 8.3 115.8 8.7 C 116.2 9.1 116.7 9.3 117.3 9.3 C 117.8 9.3 118.2 9.2 118.5 9 C 118.8 8.8 119.1 8.4 119.3 7.9 Z M 115.2 5.9 C 115.2 5.9 119.3 5.9 119.3 5.9 C 119.2 5.3 119.1 4.8 118.8 4.5 C 118.4 4 117.9 3.8 117.3 3.8 C 116.7 3.8 116.2 4 115.9 4.3 C 115.5 4.7 115.3 5.2 115.2 5.9 Z M 121.6 8 C 121.6 8 122.8 7.8 122.8 7.8 C 122.9 8.3 123.1 8.7 123.4 9 C 123.7 9.2 124.1 9.3 124.7 9.3 C 125.2 9.3 125.7 9.2 125.9 9 C 126.2 8.8 126.3 8.5 126.3 8.2 C 126.3 7.9 126.2 7.7 126 7.5 C 125.8 7.4 125.4 7.3 124.7 7.1 C 123.8 6.9 123.2 6.7 122.8 6.5 C 122.5 6.4 122.2 6.1 122.1 5.8 C 121.9 5.5 121.8 5.2 121.8 4.9 C 121.8 4.5 121.9 4.2 122 4 C 122.2 3.7 122.4 3.5 122.6 3.3 C 122.8 3.1 123.1 3 123.4 2.9 C 123.7 2.8 124.1 2.8 124.5 2.8 C 125 2.8 125.5 2.9 126 3 C 126.4 3.2 126.7 3.4 126.9 3.7 C 127.1 4 127.3 4.3 127.3 4.8 C 127.3 4.8 126.1 5 126.1 5 C 126.1 4.6 125.9 4.3 125.7 4.1 C 125.4 3.9 125 3.8 124.5 3.8 C 124 3.8 123.6 3.9 123.3 4.1 C 123.1 4.2 123 4.5 123 4.7 C 123 4.9 123 5 123.1 5.1 C 123.2 5.3 123.4 5.4 123.6 5.5 C 123.7 5.5 124.1 5.6 124.7 5.8 C 125.6 6 126.2 6.2 126.5 6.4 C 126.8 6.5 127.1 6.7 127.3 7 C 127.5 7.3 127.6 7.6 127.6 8.1 C 127.6 8.5 127.5 8.9 127.2 9.2 C 127 9.6 126.7 9.9 126.2 10.1 C 125.8 10.3 125.3 10.4 124.7 10.4 C 123.7 10.4 123 10.2 122.5 9.8 C 122 9.4 121.7 8.8 121.6 8 Z M 128.6 8 C 128.6 8 129.8 7.8 129.8 7.8 C 129.9 8.3 130.1 8.7 130.4 9 C 130.7 9.2 131.1 9.3 131.7 9.3 C 132.2 9.3 132.7 9.2 132.9 9 C 133.2 8.8 133.3 8.5 133.3 8.2 C 133.3 7.9 133.2 7.7 133 7.5 C 132.8 7.4 132.4 7.3 131.7 7.1 C 130.8 6.9 130.2 6.7 129.8 6.5 C 129.5 6.4 129.2 6.1 129.1 5.8 C 128.9 5.5 128.8 5.2 128.8 4.9 C 128.8 4.5 128.9 4.2 129 4 C 129.2 3.7 129.4 3.5 129.6 3.3 C 129.8 3.1 130.1 3 130.4 2.9 C 130.7 2.8 131.1 2.8 131.5 2.8 C 132 2.8 132.5 2.9 133 3 C 133.4 3.2 133.7 3.4 133.9 3.7 C 134.1 4 134.3 4.3 134.3 4.8 C 134.3 4.8 133.1 5 133.1 5 C 133.1 4.6 132.9 4.3 132.7 4.1 C 132.4 3.9 132 3.8 131.5 3.8 C 131 3.8 130.6 3.9 130.3 4.1 C 130.1 4.2 130 4.5 130 4.7 C 130 4.9 130 5 130.1 5.1 C 130.2 5.3 130.4 5.4 130.6 5.5 C 130.7 5.5 131.1 5.6 131.7 5.8 C 132.6 6 133.2 6.2 133.5 6.4 C 133.8 6.5 134.1 6.7 134.3 7 C 134.5 7.3 134.6 7.6 134.6 8.1 C 134.6 8.5 134.5 8.9 134.2 9.2 C 134 9.6 133.7 9.9 133.2 10.1 C 132.8 10.3 132.3 10.4 131.7 10.4 C 130.7 10.4 130 10.2 129.5 9.8 C 129 9.4 128.7 8.8 128.6 8 Z " stroke="none" fill="#ffffff"/>  </g></svg>