<?xml version="1.0" standalone="no"?><!DOCTYPE svg PUBLIC "-//W3C//DTD SVG 1.1//EN" "http://www.w3.org/Graphics/SVG/1.1/DTD/svg11.dtd"><svg xmlns="http://www.w3.org/2000/svg" version="1.1" width="35px" height="23.9px" viewBox="0 -5 35 23.9" style="top:-5px">  <desc>2 of 2</desc>  <defs/>  <g id="Polygon143584">    <path d="M 7 9 L 7 10.2 C 7 10.2 0.42 10.19 0.4 10.2 C 0.4 9.9 0.5 9.6 0.6 9.3 C 0.7 8.9 1 8.4 1.4 8 C 1.7 7.6 2.3 7.1 3 6.5 C 4.1 5.6 4.8 4.9 5.2 4.4 C 5.6 3.8 5.8 3.3 5.8 2.9 C 5.8 2.4 5.6 2 5.2 1.7 C 4.9 1.3 4.4 1.1 3.9 1.1 C 3.3 1.1 2.8 1.3 2.5 1.7 C 2.1 2 1.9 2.5 1.9 3.2 C 1.9 3.2 0.7 3 0.7 3 C 0.7 2.1 1.1 1.4 1.6 0.9 C 2.2 0.4 3 0.1 3.9 0.1 C 4.9 0.1 5.6 0.4 6.2 0.9 C 6.8 1.5 7 2.1 7 2.9 C 7 3.3 7 3.7 6.8 4.1 C 6.6 4.5 6.4 4.9 6 5.3 C 5.6 5.7 5 6.3 4.1 7.1 C 3.3 7.7 2.9 8.1 2.7 8.3 C 2.4 8.6 2.3 8.8 2.1 9 C 2.13 9.01 7 9 7 9 Z M 12.1 6.6 C 12.1 5.2 12.5 4.2 13.3 3.6 C 13.9 3 14.6 2.8 15.5 2.8 C 16.5 2.8 17.4 3.1 18 3.7 C 18.6 4.4 18.9 5.3 18.9 6.5 C 18.9 7.4 18.8 8.1 18.5 8.7 C 18.2 9.2 17.8 9.6 17.3 9.9 C 16.8 10.2 16.2 10.4 15.5 10.4 C 14.5 10.4 13.7 10 13.1 9.4 C 12.5 8.7 12.1 7.8 12.1 6.6 Z M 13.4 6.6 C 13.4 7.5 13.6 8.2 14 8.7 C 14.4 9.1 14.9 9.3 15.5 9.3 C 16.2 9.3 16.7 9.1 17.1 8.6 C 17.5 8.2 17.7 7.5 17.7 6.5 C 17.7 5.6 17.5 4.9 17.1 4.5 C 16.7 4 16.2 3.8 15.5 3.8 C 14.9 3.8 14.4 4 14 4.5 C 13.6 4.9 13.4 5.6 13.4 6.6 Z M 20.7 10.2 L 20.7 3.9 L 19.6 3.9 L 19.6 2.9 L 20.7 2.9 C 20.7 2.9 20.68 2.16 20.7 2.2 C 20.7 1.7 20.7 1.3 20.8 1.1 C 20.9 0.8 21.1 0.5 21.4 0.3 C 21.7 0.1 22.2 0 22.7 0 C 23 0 23.4 0 23.8 0.1 C 23.8 0.1 23.7 1.2 23.7 1.2 C 23.4 1.2 23.2 1.1 22.9 1.1 C 22.6 1.1 22.3 1.2 22.1 1.4 C 22 1.5 21.9 1.8 21.9 2.3 C 21.9 2.26 21.9 2.9 21.9 2.9 L 23.3 2.9 L 23.3 3.9 L 21.9 3.9 L 21.9 10.2 L 20.7 10.2 Z M 34.3 9 L 34.3 10.2 C 34.3 10.2 27.67 10.19 27.7 10.2 C 27.7 9.9 27.7 9.6 27.8 9.3 C 28 8.9 28.2 8.4 28.6 8 C 29 7.6 29.5 7.1 30.2 6.5 C 31.3 5.6 32.1 4.9 32.4 4.4 C 32.8 3.8 33 3.3 33 2.9 C 33 2.4 32.8 2 32.5 1.7 C 32.1 1.3 31.7 1.1 31.1 1.1 C 30.5 1.1 30.1 1.3 29.7 1.7 C 29.3 2 29.2 2.5 29.2 3.2 C 29.2 3.2 27.9 3 27.9 3 C 28 2.1 28.3 1.4 28.9 0.9 C 29.4 0.4 30.2 0.1 31.2 0.1 C 32.1 0.1 32.9 0.4 33.4 0.9 C 34 1.5 34.3 2.1 34.3 2.9 C 34.3 3.3 34.2 3.7 34 4.1 C 33.9 4.5 33.6 4.9 33.2 5.3 C 32.8 5.7 32.2 6.3 31.3 7.1 C 30.6 7.7 30.1 8.1 29.9 8.3 C 29.7 8.6 29.5 8.8 29.4 9 C 29.37 9.01 34.3 9 34.3 9 Z " stroke="none" fill="#fff"/>  </g></svg>