<?xml version="1.0" standalone="no"?><!DOCTYPE svg PUBLIC "-//W3C//DTD SVG 1.1//EN" "http://www.w3.org/Graphics/SVG/1.1/DTD/svg11.dtd"><svg xmlns="http://www.w3.org/2000/svg" version="1.1" width="202.1px" height="28.9px" viewBox="0 -5 202.1 28.9" style="top:-5px">  <desc>200+ Training Providers</desc>  <defs/>  <g id="Polygon140203">    <path d="M 8.6 4.5 C 8.6 6.9 6.5 9.3 5.3 10.7 C 5.35 10.69 9.5 10.7 9.5 10.7 L 9.5 13.1 L 0.7 13.1 C 0.7 13.1 0.7 12.92 0.7 12.9 C 2.6 10.9 5.8 7.6 5.8 5.1 C 5.8 3.8 4.9 3.1 4 3.1 C 3 3.1 2 3.7 1 4.7 C 1 4.7 1 2 1 2 C 2.4 1 3.5 0.7 4.7 0.7 C 6.9 0.7 8.6 2.2 8.6 4.5 Z M 15.3 11 C 16.3 11 16.8 9.9 16.8 7 C 16.8 4.4 16.4 3 15.3 3 C 14.4 3 13.7 4.1 13.7 7 C 13.7 9.7 14.1 11 15.3 11 Z M 19.8 7 C 19.8 11.1 17.8 13.3 15.3 13.3 C 12.7 13.3 10.8 11.1 10.8 7 C 10.8 2.8 12.9 0.7 15.3 0.7 C 17.8 0.7 19.8 3 19.8 7 Z M 25.5 11 C 26.5 11 27 9.9 27 7 C 27 4.4 26.6 3 25.5 3 C 24.6 3 23.9 4.1 23.9 7 C 23.9 9.7 24.3 11 25.5 11 Z M 30 7 C 30 11.1 28 13.3 25.5 13.3 C 22.9 13.3 21 11.1 21 7 C 21 2.8 23.1 0.7 25.5 0.7 C 28 0.7 30 3 30 7 Z M 31.4 5.8 L 34.7 5.8 L 34.7 2.4 L 36.9 2.4 L 36.9 5.8 L 40.2 5.8 L 40.2 8.1 L 36.9 8.1 L 36.9 11.5 L 34.7 11.5 L 34.7 8.1 L 31.4 8.1 L 31.4 5.8 Z M 58.5 0.8 L 58.5 3.4 L 54.1 3.4 L 54.1 13.1 L 51 13.1 L 51 3.4 L 46.6 3.4 L 46.6 0.8 L 58.5 0.8 Z M 64.8 5 C 64.8 5 63.8 7.6 63.8 7.6 C 63.3 7.1 62.8 6.9 62.3 6.9 C 61.3 6.9 60.6 7.6 60.2 9.1 C 60.25 9.11 60.2 13.1 60.2 13.1 L 57.5 13.1 L 57.5 4.4 L 60.2 4.4 C 60.2 4.4 60.25 6.46 60.2 6.5 C 60.9 5.1 61.9 4.2 62.9 4.2 C 63.6 4.2 64.1 4.4 64.8 5 Z M 73.1 7 C 73.1 7 73.1 10.6 73.1 10.6 C 73.1 11 73.1 11.3 73.5 11.3 C 73.7 11.3 73.9 11.2 74.3 11 C 74.3 11 74.3 12.7 74.3 12.7 C 73.3 13.1 72.6 13.3 71.9 13.3 C 71.1 13.3 70.7 13 70.5 12.4 C 69.7 13 68.9 13.3 67.9 13.3 C 66.3 13.3 65.4 12.4 65.4 11.1 C 65.4 9.3 67 8.7 70.4 7.6 C 70.4 7.6 70.4 7.4 70.4 7.4 C 70.4 6.4 69.8 6.1 68.9 6.1 C 67.8 6.1 66.6 6.7 65.7 7.7 C 65.7 7.7 65.7 5.4 65.7 5.4 C 66.7 4.6 68 4.2 69.4 4.2 C 71.8 4.2 73.1 5.3 73.1 7 Z M 69 11.7 C 69.4 11.7 69.9 11.5 70.4 11.1 C 70.4 11.1 70.4 8.9 70.4 8.9 C 69 9.5 68.1 9.8 68.1 10.7 C 68.1 11.3 68.5 11.7 69 11.7 Z M 78.2 2.2 C 78.2 2.9 77.6 3.4 77 3.4 C 76.3 3.4 75.7 2.9 75.7 2.2 C 75.7 1.5 76.3 1 77 1 C 77.7 1 78.2 1.5 78.2 2.2 Z M 78.3 4.4 L 78.3 13.1 L 75.6 13.1 L 75.6 4.4 L 78.3 4.4 Z M 89.1 7.8 C 89.13 7.79 89.1 13.1 89.1 13.1 L 86.4 13.1 C 86.4 13.1 86.43 8.19 86.4 8.2 C 86.4 6.9 85.9 6.4 85 6.4 C 84.3 6.4 83.7 6.7 83.1 7.7 C 83.1 7.69 83.1 13.1 83.1 13.1 L 80.4 13.1 L 80.4 4.4 L 83.1 4.4 C 83.1 4.4 83.1 5.6 83.1 5.6 C 84 4.6 84.9 4.2 86.1 4.2 C 88.3 4.2 89.1 5.7 89.1 7.8 Z M 93.7 2.2 C 93.7 2.9 93.1 3.4 92.5 3.4 C 91.8 3.4 91.3 2.9 91.3 2.2 C 91.3 1.5 91.8 1 92.5 1 C 93.2 1 93.7 1.5 93.7 2.2 Z M 93.8 4.4 L 93.8 13.1 L 91.1 13.1 L 91.1 4.4 L 93.8 4.4 Z M 104.7 7.8 C 104.65 7.79 104.7 13.1 104.7 13.1 L 102 13.1 C 102 13.1 101.95 8.19 102 8.2 C 102 6.9 101.4 6.4 100.5 6.4 C 99.8 6.4 99.2 6.7 98.6 7.7 C 98.62 7.69 98.6 13.1 98.6 13.1 L 95.9 13.1 L 95.9 4.4 L 98.6 4.4 C 98.6 4.4 98.62 5.6 98.6 5.6 C 99.5 4.6 100.5 4.2 101.6 4.2 C 103.8 4.2 104.7 5.7 104.7 7.8 Z M 114.9 6.1 C 114.9 6.1 113.29 6.1 113.3 6.1 C 113.9 6.6 114.1 7.2 114.1 7.9 C 114.1 9.4 112.9 10.6 110.9 10.7 C 110.2 10.8 109.7 11 109.7 11.4 C 109.7 11.8 110.2 11.9 111.6 12.1 C 113.7 12.3 114.6 13.2 114.6 14.6 C 114.6 16.4 113.1 17.4 110.3 17.4 C 107.4 17.4 105.9 16.4 105.9 15 C 105.9 14.1 106.5 13.2 108 13 C 107.5 12.8 107.2 12.3 107.2 11.9 C 107.2 11.2 107.7 10.6 108.6 10.4 C 107.1 10 106.3 8.9 106.3 7.6 C 106.3 5.6 107.9 4.4 110.5 4.4 C 110.5 4.39 114.9 4.4 114.9 4.4 L 114.9 6.1 Z M 110.2 9.1 C 111.1 9.1 111.8 8.5 111.8 7.6 C 111.8 6.8 111.1 6.2 110.2 6.2 C 109.2 6.2 108.7 7 108.7 7.7 C 108.7 8.5 109.3 9.1 110.2 9.1 Z M 110.4 15.9 C 111.6 15.9 112.4 15.5 112.4 14.8 C 112.4 14.1 111.6 13.8 110.3 13.8 C 109 13.8 108.3 14.1 108.3 14.8 C 108.3 15.5 109 15.9 110.4 15.9 Z M 126.7 0.8 C 129.5 0.8 131.3 2.2 131.3 4.6 C 131.3 6.6 129.9 8.3 126.9 8.3 C 126.88 8.3 124.6 8.3 124.6 8.3 L 124.6 13.1 L 121.6 13.1 L 121.6 0.8 C 121.6 0.8 126.74 0.85 126.7 0.8 Z M 124.6 6.2 C 124.6 6.2 126.2 6.19 126.2 6.2 C 127.6 6.2 128.1 5.6 128.1 4.6 C 128.1 3.4 127.5 3 126.1 3 C 126.07 2.95 124.6 3 124.6 3 L 124.6 6.2 Z M 140.1 5 C 140.1 5 139 7.6 139 7.6 C 138.5 7.1 138 6.9 137.5 6.9 C 136.6 6.9 135.9 7.6 135.5 9.1 C 135.47 9.11 135.5 13.1 135.5 13.1 L 132.8 13.1 L 132.8 4.4 L 135.5 4.4 C 135.5 4.4 135.47 6.46 135.5 6.5 C 136.1 5.1 137.1 4.2 138.2 4.2 C 138.8 4.2 139.3 4.4 140.1 5 Z M 143.2 8.7 C 143.2 10.3 144 11.2 145.2 11.2 C 146.5 11.2 147.3 10.2 147.3 8.7 C 147.3 7.2 146.4 6.3 145.2 6.3 C 144 6.3 143.2 7.2 143.2 8.7 Z M 150.1 8.7 C 150.1 11.5 148.1 13.3 145.2 13.3 C 142 13.3 140.3 11.2 140.3 8.8 C 140.3 6.2 142.1 4.2 145.2 4.2 C 148.3 4.2 150.1 6.1 150.1 8.7 Z M 153.3 4.4 L 155.2 9.2 L 157.3 4.4 L 160 4.4 L 156 13.2 L 154.3 13.2 L 150.4 4.4 L 153.3 4.4 Z M 163.6 2.2 C 163.6 2.9 163 3.4 162.4 3.4 C 161.7 3.4 161.1 2.9 161.1 2.2 C 161.1 1.5 161.7 1 162.4 1 C 163 1 163.6 1.5 163.6 2.2 Z M 163.7 4.4 L 163.7 13.1 L 161 13.1 L 161 4.4 L 163.7 4.4 Z M 170.8 11 C 170.78 11.03 171.8 11 171.8 11 C 171.8 11 171.79 6.77 171.8 6.8 C 171.3 6.4 170.8 6.3 170.2 6.3 C 169 6.3 168.2 7.2 168.2 8.6 C 168.2 10.3 168.9 11 170.8 11 Z M 174.5 0.8 L 174.5 13.1 C 174.5 13.1 170.51 13.12 170.5 13.1 C 166.6 13.1 165.4 11.3 165.4 8.6 C 165.4 6.3 166.9 4.2 169.6 4.2 C 170.5 4.2 171.1 4.4 171.8 4.8 C 171.79 4.81 171.8 0.8 171.8 0.8 L 174.5 0.8 Z M 185 8.8 C 185.04 8.82 185 9.3 185 9.3 C 185 9.3 178.92 9.32 178.9 9.3 C 179.1 10.6 180.2 11.4 181.5 11.4 C 182.6 11.4 183.7 11.1 184.8 10.5 C 184.8 10.5 184.8 12.3 184.8 12.3 C 183.7 13 182.5 13.3 181 13.3 C 178 13.3 176.1 11.5 176.1 8.7 C 176.1 6 177.9 4.2 180.9 4.2 C 183.1 4.2 185 5.8 185 8.8 Z M 182.5 8 C 182.5 6.7 181.8 6 180.7 6 C 179.7 6 178.9 6.8 178.9 8 C 178.9 8 182.5 8 182.5 8 Z M 193.9 5 C 193.9 5 192.8 7.6 192.8 7.6 C 192.3 7.1 191.9 6.9 191.4 6.9 C 190.4 6.9 189.7 7.6 189.3 9.1 C 189.32 9.11 189.3 13.1 189.3 13.1 L 186.6 13.1 L 186.6 4.4 L 189.3 4.4 C 189.3 4.4 189.32 6.46 189.3 6.5 C 190 5.1 190.9 4.2 192 4.2 C 192.7 4.2 193.2 4.4 193.9 5 Z M 198 4.2 C 199 4.2 200.1 4.5 200.9 4.9 C 200.9 4.9 200.9 7 200.9 7 C 199.9 6.3 199.1 6.1 198.4 6.1 C 197.7 6.1 197.4 6.4 197.4 6.7 C 197.4 7 197.6 7.2 199 7.9 C 200.6 8.6 201.4 9.4 201.4 10.6 C 201.4 12.1 200.3 13.3 198 13.3 C 197.1 13.3 196.2 13.1 194.8 12.6 C 194.8 12.6 194.8 10.5 194.8 10.5 C 195.8 11.1 196.7 11.4 197.5 11.4 C 198.2 11.4 198.7 11.2 198.7 10.8 C 198.7 10.3 198.4 10.1 197 9.4 C 195.3 8.7 194.7 7.8 194.7 6.7 C 194.7 5.4 195.9 4.2 198 4.2 Z " stroke="none" fill="#000"/>  </g></svg>