<?xml version="1.0" standalone="no"?><!DOCTYPE svg PUBLIC "-//W3C//DTD SVG 1.1//EN" "http://www.w3.org/Graphics/SVG/1.1/DTD/svg11.dtd"><svg xmlns="http://www.w3.org/2000/svg" version="1.1" width="269px" height="107.9px" viewBox="0 -5 269 107.9" style="top:-5px">  <desc>L2 Junior Estate Agent L2 Housing &amp; Property Management L2 Assistant​ L3 Housing &amp; Property Management L4 Senior Hous...</desc>  <defs/>  <g id="Polygon116714">    <path d="M 21.3 94.2 L 21.3 84.2 L 23.3 84.2 C 23.3 84.2 25.63 91.27 25.6 91.3 C 25.9 91.9 26 92.4 26.1 92.8 C 26.2 92.4 26.4 91.9 26.6 91.1 C 26.65 91.14 29 84.2 29 84.2 L 30.8 84.2 L 30.8 94.2 L 29.6 94.2 L 29.6 85.8 L 26.6 94.2 L 25.4 94.2 L 22.5 85.7 L 22.5 94.2 L 21.3 94.2 Z M 37.8 94.2 C 37.7 93.9 37.6 93.6 37.5 93.3 C 37.1 93.7 36.7 94 36.2 94.1 C 35.8 94.3 35.4 94.4 34.9 94.4 C 34.1 94.4 33.5 94.2 33 93.8 C 32.6 93.4 32.4 92.9 32.4 92.3 C 32.4 91.9 32.5 91.6 32.6 91.3 C 32.8 91 33 90.8 33.3 90.6 C 33.5 90.4 33.8 90.3 34.2 90.2 C 34.4 90.1 34.8 90.1 35.3 90 C 36.2 89.9 37 89.7 37.4 89.6 C 37.5 89.4 37.5 89.3 37.5 89.3 C 37.5 88.8 37.3 88.4 37.1 88.2 C 36.8 87.9 36.3 87.8 35.7 87.8 C 35.1 87.8 34.7 87.9 34.4 88.1 C 34.1 88.3 33.9 88.7 33.8 89.2 C 33.8 89.2 32.6 89 32.6 89 C 32.7 88.5 32.9 88.1 33.1 87.8 C 33.4 87.4 33.8 87.2 34.2 87 C 34.7 86.9 35.3 86.8 35.9 86.8 C 36.5 86.8 37 86.8 37.4 87 C 37.8 87.1 38.1 87.3 38.2 87.5 C 38.4 87.8 38.6 88 38.6 88.4 C 38.7 88.6 38.7 89 38.7 89.5 C 38.7 89.5 38.7 91.2 38.7 91.2 C 38.7 92.3 38.7 93 38.8 93.3 C 38.8 93.6 38.9 93.9 39.1 94.2 C 39.08 94.19 37.8 94.2 37.8 94.2 C 37.8 94.2 37.8 94.19 37.8 94.2 Z M 37.4 90.5 C 37 90.7 36.3 90.9 35.4 91 C 34.9 91.1 34.6 91.2 34.4 91.3 C 34.2 91.4 34 91.5 33.9 91.7 C 33.8 91.8 33.7 92 33.7 92.2 C 33.7 92.6 33.8 92.8 34.1 93.1 C 34.3 93.3 34.7 93.4 35.2 93.4 C 35.6 93.4 36.1 93.3 36.4 93.1 C 36.8 92.9 37.1 92.6 37.2 92.2 C 37.4 92 37.4 91.5 37.4 91 C 37.4 91 37.4 90.5 37.4 90.5 Z M 40.6 94.2 L 40.6 86.9 L 41.7 86.9 C 41.7 86.9 41.71 87.96 41.7 88 C 42.2 87.2 43 86.8 44 86.8 C 44.5 86.8 44.9 86.8 45.2 87 C 45.6 87.2 45.9 87.4 46 87.6 C 46.2 87.9 46.4 88.2 46.4 88.5 C 46.5 88.8 46.5 89.2 46.5 89.7 C 46.5 89.73 46.5 94.2 46.5 94.2 L 45.3 94.2 C 45.3 94.2 45.27 89.78 45.3 89.8 C 45.3 89.3 45.2 88.9 45.1 88.7 C 45 88.4 44.9 88.2 44.6 88.1 C 44.4 87.9 44.1 87.8 43.8 87.8 C 43.2 87.8 42.8 88 42.4 88.3 C 42 88.7 41.8 89.3 41.8 90.2 C 41.83 90.23 41.8 94.2 41.8 94.2 L 40.6 94.2 Z M 53.4 94.2 C 53.2 93.9 53.2 93.6 53.1 93.3 C 52.7 93.7 52.2 94 51.8 94.1 C 51.4 94.3 50.9 94.4 50.4 94.4 C 49.7 94.4 49 94.2 48.6 93.8 C 48.2 93.4 48 92.9 48 92.3 C 48 91.9 48 91.6 48.2 91.3 C 48.4 91 48.6 90.8 48.8 90.6 C 49.1 90.4 49.4 90.3 49.7 90.2 C 50 90.1 50.3 90.1 50.8 90 C 51.8 89.9 52.6 89.7 53 89.6 C 53 89.4 53 89.3 53 89.3 C 53 88.8 52.9 88.4 52.7 88.2 C 52.4 87.9 51.9 87.8 51.3 87.8 C 50.7 87.8 50.3 87.9 50 88.1 C 49.7 88.3 49.5 88.7 49.4 89.2 C 49.4 89.2 48.2 89 48.2 89 C 48.3 88.5 48.5 88.1 48.7 87.8 C 49 87.4 49.3 87.2 49.8 87 C 50.3 86.9 50.8 86.8 51.5 86.8 C 52.1 86.8 52.6 86.8 53 87 C 53.4 87.1 53.6 87.3 53.8 87.5 C 54 87.8 54.1 88 54.2 88.4 C 54.2 88.6 54.3 89 54.3 89.5 C 54.3 89.5 54.3 91.2 54.3 91.2 C 54.3 92.3 54.3 93 54.3 93.3 C 54.4 93.6 54.5 93.9 54.7 94.2 C 54.65 94.19 53.4 94.2 53.4 94.2 C 53.4 94.2 53.37 94.19 53.4 94.2 Z M 53 90.5 C 52.6 90.7 51.9 90.9 51 91 C 50.5 91.1 50.1 91.2 49.9 91.3 C 49.7 91.4 49.6 91.5 49.5 91.7 C 49.3 91.8 49.3 92 49.3 92.2 C 49.3 92.6 49.4 92.8 49.7 93.1 C 49.9 93.3 50.3 93.4 50.7 93.4 C 51.2 93.4 51.6 93.3 52 93.1 C 52.4 92.9 52.6 92.6 52.8 92.2 C 53 92 53 91.5 53 91 C 53 91 53 90.5 53 90.5 Z M 55.9 94.8 C 55.9 94.8 57.1 95 57.1 95 C 57.2 95.3 57.3 95.6 57.6 95.8 C 57.9 96 58.3 96.1 58.8 96.1 C 59.4 96.1 59.8 96 60.1 95.8 C 60.4 95.6 60.6 95.2 60.8 94.8 C 60.8 94.6 60.9 94 60.8 93.2 C 60.3 93.9 59.6 94.2 58.8 94.2 C 57.8 94.2 57.1 93.8 56.5 93.1 C 56 92.4 55.7 91.5 55.7 90.5 C 55.7 89.8 55.8 89.2 56.1 88.6 C 56.3 88 56.7 87.6 57.2 87.2 C 57.6 86.9 58.2 86.8 58.8 86.8 C 59.7 86.8 60.4 87.1 61 87.8 C 60.96 87.81 61 86.9 61 86.9 L 62.1 86.9 C 62.1 86.9 62.1 93.21 62.1 93.2 C 62.1 94.3 62 95.1 61.8 95.6 C 61.5 96.1 61.2 96.5 60.7 96.7 C 60.2 97 59.5 97.1 58.8 97.1 C 58 97.1 57.3 96.9 56.7 96.6 C 56.2 96.2 55.9 95.6 55.9 94.8 Z M 57 90.4 C 57 91.4 57.2 92.1 57.5 92.5 C 57.9 93 58.4 93.2 59 93.2 C 59.5 93.2 60 93 60.4 92.5 C 60.8 92.1 60.9 91.4 60.9 90.5 C 60.9 89.6 60.8 88.9 60.4 88.5 C 60 88 59.5 87.8 58.9 87.8 C 58.4 87.8 57.9 88 57.5 88.5 C 57.2 88.9 57 89.6 57 90.4 Z M 68.9 91.9 C 68.9 91.9 70.2 92 70.2 92 C 70 92.8 69.6 93.3 69.1 93.7 C 68.5 94.2 67.8 94.4 67 94.4 C 65.9 94.4 65.1 94 64.5 93.4 C 63.9 92.7 63.5 91.8 63.5 90.6 C 63.5 89.4 63.9 88.5 64.5 87.8 C 65.1 87.1 65.9 86.8 66.9 86.8 C 67.9 86.8 68.7 87.1 69.3 87.8 C 69.9 88.4 70.2 89.4 70.2 90.5 C 70.2 90.6 70.2 90.7 70.2 90.9 C 70.2 90.9 64.8 90.9 64.8 90.9 C 64.9 91.7 65.1 92.3 65.5 92.7 C 65.9 93.1 66.4 93.3 67 93.3 C 67.5 93.3 67.8 93.2 68.2 93 C 68.5 92.8 68.7 92.4 68.9 91.9 Z M 64.9 89.9 C 64.9 89.9 68.9 89.9 68.9 89.9 C 68.9 89.3 68.7 88.8 68.5 88.5 C 68.1 88 67.6 87.8 67 87.8 C 66.4 87.8 65.9 88 65.5 88.3 C 65.1 88.7 64.9 89.2 64.9 89.9 Z M 71.7 94.2 L 71.7 86.9 L 72.8 86.9 C 72.8 86.9 72.84 87.95 72.8 88 C 73.1 87.6 73.4 87.3 73.8 87.1 C 74.1 86.9 74.6 86.8 75 86.8 C 75.6 86.8 76 86.9 76.4 87.1 C 76.7 87.3 77 87.6 77.1 88 C 77.7 87.2 78.4 86.8 79.3 86.8 C 80.1 86.8 80.6 87 81 87.4 C 81.4 87.8 81.6 88.4 81.6 89.2 C 81.58 89.21 81.6 94.2 81.6 94.2 L 80.4 94.2 C 80.4 94.2 80.36 89.62 80.4 89.6 C 80.4 89.1 80.3 88.8 80.2 88.6 C 80.2 88.3 80 88.2 79.8 88 C 79.6 87.9 79.3 87.8 79.1 87.8 C 78.6 87.8 78.1 88 77.8 88.3 C 77.5 88.7 77.3 89.2 77.3 90 C 77.29 89.97 77.3 94.2 77.3 94.2 L 76.1 94.2 C 76.1 94.2 76.06 89.48 76.1 89.5 C 76.1 88.9 76 88.5 75.8 88.2 C 75.6 88 75.2 87.8 74.8 87.8 C 74.4 87.8 74.1 87.9 73.8 88.1 C 73.5 88.3 73.3 88.6 73.2 88.9 C 73 89.3 73 89.8 73 90.4 C 72.97 90.43 73 94.2 73 94.2 L 71.7 94.2 Z M 88.4 91.9 C 88.4 91.9 89.6 92 89.6 92 C 89.4 92.8 89.1 93.3 88.5 93.7 C 88 94.2 87.3 94.4 86.5 94.4 C 85.4 94.4 84.6 94 83.9 93.4 C 83.3 92.7 83 91.8 83 90.6 C 83 89.4 83.3 88.5 83.9 87.8 C 84.6 87.1 85.4 86.8 86.4 86.8 C 87.4 86.8 88.1 87.1 88.8 87.8 C 89.4 88.4 89.7 89.4 89.7 90.5 C 89.7 90.6 89.7 90.7 89.7 90.9 C 89.7 90.9 84.3 90.9 84.3 90.9 C 84.3 91.7 84.5 92.3 84.9 92.7 C 85.3 93.1 85.9 93.3 86.5 93.3 C 86.9 93.3 87.3 93.2 87.6 93 C 87.9 92.8 88.2 92.4 88.4 91.9 Z M 84.3 89.9 C 84.3 89.9 88.4 89.9 88.4 89.9 C 88.3 89.3 88.2 88.8 87.9 88.5 C 87.5 88 87 87.8 86.4 87.8 C 85.8 87.8 85.4 88 85 88.3 C 84.6 88.7 84.4 89.2 84.3 89.9 Z M 91.2 94.2 L 91.2 86.9 L 92.3 86.9 C 92.3 86.9 92.3 87.96 92.3 88 C 92.8 87.2 93.6 86.8 94.6 86.8 C 95 86.8 95.4 86.8 95.8 87 C 96.2 87.2 96.5 87.4 96.6 87.6 C 96.8 87.9 96.9 88.2 97 88.5 C 97.1 88.8 97.1 89.2 97.1 89.7 C 97.09 89.73 97.1 94.2 97.1 94.2 L 95.9 94.2 C 95.9 94.2 95.86 89.78 95.9 89.8 C 95.9 89.3 95.8 88.9 95.7 88.7 C 95.6 88.4 95.5 88.2 95.2 88.1 C 95 87.9 94.7 87.8 94.3 87.8 C 93.8 87.8 93.4 88 93 88.3 C 92.6 88.7 92.4 89.3 92.4 90.2 C 92.42 90.23 92.4 94.2 92.4 94.2 L 91.2 94.2 Z M 101.1 93.1 C 101.3 93.1 101.4 93.1 101.7 93.1 C 101.7 93.1 101.8 94.2 101.8 94.2 C 101.5 94.3 101.2 94.3 100.9 94.3 C 100.5 94.3 100.1 94.2 99.9 94.1 C 99.6 93.9 99.5 93.7 99.4 93.5 C 99.3 93.3 99.2 92.8 99.2 92.1 C 99.2 92.07 99.2 87.9 99.2 87.9 L 98.3 87.9 L 98.3 86.9 L 99.2 86.9 L 99.2 85.1 L 100.4 84.4 L 100.4 86.9 L 101.7 86.9 L 101.7 87.9 L 100.4 87.9 C 100.4 87.9 100.43 92.13 100.4 92.1 C 100.4 92.5 100.4 92.7 100.5 92.8 C 100.5 92.9 100.6 93 100.7 93.1 C 100.8 93.1 100.9 93.1 101.1 93.1 C 101.1 93.1 101.1 93.1 101.1 93.1 Z " stroke="none" fill="#010102"/>  </g>  <g id="Polygon116713">    <path d="M 1.1 77.4 L 1.1 67.5 L 3.1 67.5 L 3.1 75.7 L 8.1 75.7 L 8.1 77.4 L 1.1 77.4 Z M 12.9 77.4 L 12.9 75.4 L 8.8 75.4 L 8.8 73.7 L 13.2 67.3 L 14.8 67.3 L 14.8 73.7 L 16 73.7 L 16 75.4 L 14.8 75.4 L 14.8 77.4 L 12.9 77.4 Z M 12.9 73.7 L 12.9 70.3 L 10.6 73.7 L 12.9 73.7 Z M 20.9 74.2 C 20.9 74.2 22.1 74.1 22.1 74.1 C 22.2 74.6 22.3 75 22.5 75.3 C 22.7 75.6 23.1 75.9 23.5 76.1 C 24 76.3 24.5 76.4 25.1 76.4 C 25.6 76.4 26 76.3 26.4 76.1 C 26.8 76 27.1 75.8 27.3 75.5 C 27.5 75.3 27.6 75 27.6 74.7 C 27.6 74.4 27.5 74.1 27.3 73.8 C 27.1 73.6 26.8 73.4 26.4 73.3 C 26.1 73.2 25.5 73 24.6 72.8 C 23.7 72.5 23 72.3 22.7 72.1 C 22.2 71.9 21.8 71.6 21.6 71.2 C 21.4 70.8 21.2 70.4 21.2 70 C 21.2 69.5 21.4 69 21.7 68.5 C 22 68.1 22.4 67.8 22.9 67.5 C 23.5 67.3 24.1 67.2 24.8 67.2 C 25.5 67.2 26.2 67.3 26.7 67.6 C 27.3 67.8 27.7 68.2 28 68.6 C 28.3 69.1 28.5 69.6 28.5 70.2 C 28.5 70.2 27.3 70.3 27.3 70.3 C 27.2 69.7 27 69.2 26.6 68.9 C 26.2 68.5 25.6 68.4 24.8 68.4 C 24 68.4 23.4 68.5 23.1 68.8 C 22.7 69.1 22.5 69.5 22.5 69.9 C 22.5 70.2 22.6 70.5 22.9 70.8 C 23.2 71 23.8 71.2 24.9 71.5 C 26 71.7 26.7 71.9 27.1 72.1 C 27.7 72.4 28.1 72.7 28.4 73.1 C 28.7 73.5 28.8 74 28.8 74.6 C 28.8 75.1 28.7 75.6 28.4 76.1 C 28.1 76.5 27.6 76.9 27.1 77.2 C 26.5 77.4 25.8 77.6 25.1 77.6 C 24.2 77.6 23.5 77.4 22.8 77.2 C 22.2 76.9 21.8 76.5 21.4 76 C 21.1 75.4 20.9 74.8 20.9 74.2 Z M 35.5 75.1 C 35.5 75.1 36.7 75.2 36.7 75.2 C 36.5 76 36.2 76.5 35.6 76.9 C 35.1 77.4 34.4 77.6 33.5 77.6 C 32.5 77.6 31.6 77.2 31 76.6 C 30.4 75.9 30.1 75 30.1 73.8 C 30.1 72.6 30.4 71.7 31 71 C 31.7 70.3 32.5 70 33.5 70 C 34.4 70 35.2 70.3 35.8 71 C 36.5 71.6 36.8 72.6 36.8 73.7 C 36.8 73.8 36.8 73.9 36.8 74.1 C 36.8 74.1 31.3 74.1 31.3 74.1 C 31.4 74.9 31.6 75.5 32 75.9 C 32.4 76.3 32.9 76.5 33.5 76.5 C 34 76.5 34.4 76.4 34.7 76.2 C 35 76 35.3 75.6 35.5 75.1 Z M 31.4 73.1 C 31.4 73.1 35.5 73.1 35.5 73.1 C 35.4 72.5 35.3 72 35 71.7 C 34.6 71.2 34.1 71 33.5 71 C 32.9 71 32.4 71.2 32.1 71.5 C 31.7 71.9 31.5 72.4 31.4 73.1 Z M 38.3 77.4 L 38.3 70.1 L 39.4 70.1 C 39.4 70.1 39.38 71.16 39.4 71.2 C 39.9 70.4 40.7 70 41.7 70 C 42.1 70 42.5 70 42.9 70.2 C 43.3 70.4 43.5 70.6 43.7 70.8 C 43.9 71.1 44 71.4 44.1 71.7 C 44.2 72 44.2 72.4 44.2 72.9 C 44.17 72.93 44.2 77.4 44.2 77.4 L 42.9 77.4 C 42.9 77.4 42.94 72.98 42.9 73 C 42.9 72.5 42.9 72.1 42.8 71.9 C 42.7 71.6 42.5 71.4 42.3 71.3 C 42 71.1 41.8 71 41.4 71 C 40.9 71 40.5 71.2 40.1 71.5 C 39.7 71.9 39.5 72.5 39.5 73.4 C 39.5 73.43 39.5 77.4 39.5 77.4 L 38.3 77.4 Z M 46.1 68.8 L 46.1 67.4 L 47.3 67.4 L 47.3 68.8 L 46.1 68.8 Z M 46.1 77.4 L 46.1 70.1 L 47.3 70.1 L 47.3 77.4 L 46.1 77.4 Z M 48.7 73.8 C 48.7 72.4 49.1 71.4 49.8 70.8 C 50.5 70.2 51.2 70 52.1 70 C 53.1 70 53.9 70.3 54.6 70.9 C 55.2 71.6 55.5 72.5 55.5 73.7 C 55.5 74.6 55.4 75.3 55.1 75.9 C 54.8 76.4 54.4 76.8 53.9 77.1 C 53.3 77.4 52.8 77.6 52.1 77.6 C 51.1 77.6 50.3 77.2 49.7 76.6 C 49 75.9 48.7 75 48.7 73.8 Z M 50 73.8 C 50 74.7 50.2 75.4 50.6 75.9 C 51 76.3 51.5 76.5 52.1 76.5 C 52.7 76.5 53.2 76.3 53.6 75.8 C 54 75.4 54.3 74.7 54.3 73.7 C 54.3 72.8 54 72.1 53.6 71.7 C 53.2 71.2 52.7 71 52.1 71 C 51.5 71 51 71.2 50.6 71.7 C 50.2 72.1 50 72.8 50 73.8 Z M 56.9 77.4 L 56.9 70.1 L 58.1 70.1 C 58.1 70.1 58.05 71.23 58.1 71.2 C 58.3 70.7 58.6 70.4 58.8 70.2 C 59.1 70.1 59.3 70 59.6 70 C 60 70 60.5 70.1 60.9 70.4 C 60.9 70.4 60.5 71.5 60.5 71.5 C 60.2 71.3 59.9 71.2 59.6 71.2 C 59.3 71.2 59.1 71.3 58.8 71.5 C 58.6 71.6 58.5 71.9 58.4 72.2 C 58.2 72.6 58.2 73.1 58.2 73.6 C 58.17 73.59 58.2 77.4 58.2 77.4 L 56.9 77.4 Z M 65.7 77.4 L 65.7 67.4 L 67 67.4 L 67 71.5 L 72.2 71.5 L 72.2 67.4 L 73.6 67.4 L 73.6 77.4 L 72.2 77.4 L 72.2 72.7 L 67 72.7 L 67 77.4 L 65.7 77.4 Z M 75.2 73.8 C 75.2 72.4 75.5 71.4 76.3 70.8 C 76.9 70.2 77.7 70 78.6 70 C 79.6 70 80.4 70.3 81 70.9 C 81.6 71.6 82 72.5 82 73.7 C 82 74.6 81.8 75.3 81.5 75.9 C 81.3 76.4 80.9 76.8 80.3 77.1 C 79.8 77.4 79.2 77.6 78.6 77.6 C 77.5 77.6 76.7 77.2 76.1 76.6 C 75.5 75.9 75.2 75 75.2 73.8 Z M 76.4 73.8 C 76.4 74.7 76.6 75.4 77 75.9 C 77.4 76.3 78 76.5 78.6 76.5 C 79.2 76.5 79.7 76.3 80.1 75.8 C 80.5 75.4 80.7 74.7 80.7 73.7 C 80.7 72.8 80.5 72.1 80.1 71.7 C 79.7 71.2 79.2 71 78.6 71 C 78 71 77.4 71.2 77 71.7 C 76.6 72.1 76.4 72.8 76.4 73.8 Z M 88.2 77.4 C 88.2 77.4 88.16 76.33 88.2 76.3 C 87.6 77.1 86.8 77.6 85.9 77.6 C 85.4 77.6 85 77.5 84.7 77.3 C 84.3 77.1 84 76.9 83.8 76.7 C 83.7 76.4 83.5 76.1 83.5 75.8 C 83.4 75.5 83.4 75.2 83.4 74.6 C 83.38 74.63 83.4 70.1 83.4 70.1 L 84.6 70.1 C 84.6 70.1 84.61 74.16 84.6 74.2 C 84.6 74.8 84.6 75.2 84.7 75.5 C 84.8 75.8 84.9 76 85.2 76.2 C 85.4 76.4 85.7 76.5 86.1 76.5 C 86.5 76.5 86.8 76.4 87.1 76.2 C 87.5 76 87.7 75.8 87.8 75.4 C 88 75.1 88 74.6 88 74 C 88.03 74.02 88 70.1 88 70.1 L 89.3 70.1 L 89.3 77.4 L 88.2 77.4 Z M 90.7 75.2 C 90.7 75.2 91.9 75 91.9 75 C 92 75.5 92.2 75.9 92.5 76.2 C 92.8 76.4 93.2 76.5 93.8 76.5 C 94.4 76.5 94.8 76.4 95.1 76.2 C 95.3 76 95.5 75.7 95.5 75.4 C 95.5 75.1 95.3 74.9 95.1 74.7 C 94.9 74.6 94.5 74.5 93.8 74.3 C 92.9 74.1 92.3 73.9 92 73.7 C 91.6 73.6 91.4 73.3 91.2 73 C 91 72.7 90.9 72.4 90.9 72.1 C 90.9 71.7 91 71.4 91.1 71.2 C 91.3 70.9 91.5 70.7 91.7 70.5 C 91.9 70.3 92.2 70.2 92.5 70.1 C 92.8 70 93.2 70 93.6 70 C 94.1 70 94.6 70.1 95.1 70.2 C 95.5 70.4 95.8 70.6 96 70.9 C 96.2 71.2 96.4 71.5 96.5 72 C 96.5 72 95.3 72.2 95.3 72.2 C 95.2 71.8 95 71.5 94.8 71.3 C 94.5 71.1 94.1 71 93.7 71 C 93.1 71 92.7 71.1 92.5 71.3 C 92.2 71.4 92.1 71.7 92.1 71.9 C 92.1 72.1 92.1 72.2 92.2 72.3 C 92.3 72.5 92.5 72.6 92.7 72.7 C 92.8 72.7 93.2 72.8 93.8 73 C 94.7 73.2 95.3 73.4 95.6 73.6 C 96 73.7 96.2 73.9 96.4 74.2 C 96.6 74.5 96.7 74.8 96.7 75.3 C 96.7 75.7 96.6 76.1 96.4 76.4 C 96.1 76.8 95.8 77.1 95.3 77.3 C 94.9 77.5 94.4 77.6 93.8 77.6 C 92.9 77.6 92.1 77.4 91.6 77 C 91.2 76.6 90.8 76 90.7 75.2 Z M 98.2 68.8 L 98.2 67.4 L 99.4 67.4 L 99.4 68.8 L 98.2 68.8 Z M 98.2 77.4 L 98.2 70.1 L 99.4 70.1 L 99.4 77.4 L 98.2 77.4 Z M 101.3 77.4 L 101.3 70.1 L 102.4 70.1 C 102.4 70.1 102.41 71.16 102.4 71.2 C 102.9 70.4 103.7 70 104.7 70 C 105.2 70 105.6 70 105.9 70.2 C 106.3 70.4 106.6 70.6 106.8 70.8 C 106.9 71.1 107.1 71.4 107.1 71.7 C 107.2 72 107.2 72.4 107.2 72.9 C 107.2 72.93 107.2 77.4 107.2 77.4 L 106 77.4 C 106 77.4 105.97 72.98 106 73 C 106 72.5 105.9 72.1 105.8 71.9 C 105.7 71.6 105.6 71.4 105.3 71.3 C 105.1 71.1 104.8 71 104.5 71 C 103.9 71 103.5 71.2 103.1 71.5 C 102.7 71.9 102.5 72.5 102.5 73.4 C 102.53 73.43 102.5 77.4 102.5 77.4 L 101.3 77.4 Z M 108.9 78 C 108.9 78 110.1 78.2 110.1 78.2 C 110.1 78.5 110.2 78.8 110.5 79 C 110.8 79.2 111.2 79.3 111.7 79.3 C 112.3 79.3 112.7 79.2 113 79 C 113.4 78.8 113.6 78.4 113.7 78 C 113.7 77.8 113.8 77.2 113.8 76.4 C 113.2 77.1 112.6 77.4 111.8 77.4 C 110.8 77.4 110 77 109.4 76.3 C 108.9 75.6 108.6 74.7 108.6 73.7 C 108.6 73 108.7 72.4 109 71.8 C 109.2 71.2 109.6 70.8 110.1 70.4 C 110.6 70.1 111.1 70 111.8 70 C 112.6 70 113.3 70.3 113.9 71 C 113.88 71.01 113.9 70.1 113.9 70.1 L 115 70.1 C 115 70.1 115.01 76.41 115 76.4 C 115 77.5 114.9 78.3 114.7 78.8 C 114.4 79.3 114.1 79.7 113.6 79.9 C 113.1 80.2 112.5 80.3 111.7 80.3 C 110.9 80.3 110.2 80.1 109.6 79.8 C 109.1 79.4 108.8 78.8 108.9 78 Z M 109.9 73.6 C 109.9 74.6 110.1 75.3 110.4 75.7 C 110.8 76.2 111.3 76.4 111.9 76.4 C 112.4 76.4 112.9 76.2 113.3 75.7 C 113.7 75.3 113.9 74.6 113.9 73.7 C 113.9 72.8 113.7 72.1 113.3 71.7 C 112.9 71.2 112.4 71 111.8 71 C 111.3 71 110.8 71.2 110.5 71.7 C 110.1 72.1 109.9 72.8 109.9 73.6 Z M 128 77.6 C 127.5 77.3 127 76.8 126.5 76.2 C 126.1 76.7 125.6 77 125.2 77.2 C 124.7 77.5 124.2 77.6 123.6 77.6 C 122.6 77.6 121.8 77.2 121.2 76.5 C 120.7 76 120.4 75.3 120.4 74.6 C 120.4 74 120.6 73.5 121 73 C 121.4 72.5 122 72 122.8 71.6 C 122.4 71.1 122.1 70.7 121.9 70.4 C 121.8 70 121.7 69.7 121.7 69.4 C 121.7 68.8 121.9 68.3 122.4 67.9 C 122.9 67.4 123.5 67.2 124.2 67.2 C 124.9 67.2 125.4 67.4 125.9 67.8 C 126.3 68.2 126.5 68.8 126.5 69.3 C 126.5 70.3 125.9 71.1 124.6 71.8 C 124.6 71.8 126.4 74.1 126.4 74.1 C 126.6 73.7 126.8 73.2 126.9 72.7 C 126.9 72.7 128.2 72.9 128.2 72.9 C 128 73.8 127.7 74.5 127.3 75.1 C 127.8 75.7 128.3 76.2 128.9 76.6 C 128.86 76.65 128 77.6 128 77.6 C 128 77.6 128.03 77.62 128 77.6 Z M 124 71 C 124.5 70.7 124.9 70.4 125 70.2 C 125.2 69.9 125.3 69.7 125.3 69.4 C 125.3 69 125.2 68.8 124.9 68.5 C 124.7 68.3 124.5 68.2 124.1 68.2 C 123.8 68.2 123.5 68.3 123.3 68.5 C 123.1 68.7 123 69 123 69.3 C 123 69.5 123 69.6 123.1 69.8 C 123.2 70 123.3 70.2 123.4 70.4 C 123.4 70.4 124 71 124 71 Z M 125.7 75.2 C 125.7 75.2 123.5 72.4 123.5 72.4 C 122.8 72.8 122.3 73.2 122.1 73.5 C 121.9 73.9 121.8 74.2 121.8 74.6 C 121.8 75 121.9 75.4 122.3 75.8 C 122.6 76.3 123 76.5 123.6 76.5 C 124 76.5 124.4 76.4 124.8 76.1 C 125.2 75.9 125.5 75.6 125.7 75.2 Z M 134.1 77.4 L 134.1 67.4 C 134.1 67.4 137.93 67.37 137.9 67.4 C 138.6 67.4 139.1 67.4 139.5 67.5 C 139.9 67.5 140.4 67.7 140.7 67.9 C 141 68.2 141.3 68.5 141.5 68.9 C 141.7 69.3 141.8 69.8 141.8 70.3 C 141.8 71.1 141.5 71.8 141 72.4 C 140.4 73 139.5 73.3 138 73.3 C 138.04 73.32 135.5 73.3 135.5 73.3 L 135.5 77.4 L 134.1 77.4 Z M 135.5 72.1 C 135.5 72.1 138.07 72.14 138.1 72.1 C 138.9 72.1 139.5 72 139.9 71.7 C 140.3 71.3 140.4 70.9 140.4 70.3 C 140.4 69.9 140.3 69.5 140.1 69.2 C 139.9 68.9 139.6 68.7 139.3 68.6 C 139.1 68.6 138.6 68.6 138 68.6 C 138.04 68.55 135.5 68.6 135.5 68.6 L 135.5 72.1 Z M 143.3 77.4 L 143.3 70.1 L 144.4 70.1 C 144.4 70.1 144.42 71.23 144.4 71.2 C 144.7 70.7 145 70.4 145.2 70.2 C 145.4 70.1 145.7 70 146 70 C 146.4 70 146.8 70.1 147.3 70.4 C 147.3 70.4 146.8 71.5 146.8 71.5 C 146.5 71.3 146.2 71.2 145.9 71.2 C 145.7 71.2 145.4 71.3 145.2 71.5 C 145 71.6 144.8 71.9 144.8 72.2 C 144.6 72.6 144.5 73.1 144.5 73.6 C 144.55 73.59 144.5 77.4 144.5 77.4 L 143.3 77.4 Z M 147.5 73.8 C 147.5 72.4 147.9 71.4 148.7 70.8 C 149.3 70.2 150 70 150.9 70 C 151.9 70 152.8 70.3 153.4 70.9 C 154 71.6 154.3 72.5 154.3 73.7 C 154.3 74.6 154.2 75.3 153.9 75.9 C 153.6 76.4 153.2 76.8 152.7 77.1 C 152.2 77.4 151.6 77.6 150.9 77.6 C 149.9 77.6 149.1 77.2 148.5 76.6 C 147.8 75.9 147.5 75 147.5 73.8 Z M 148.8 73.8 C 148.8 74.7 149 75.4 149.4 75.9 C 149.8 76.3 150.3 76.5 150.9 76.5 C 151.5 76.5 152.1 76.3 152.5 75.8 C 152.9 75.4 153.1 74.7 153.1 73.7 C 153.1 72.8 152.9 72.1 152.5 71.7 C 152.1 71.2 151.5 71 150.9 71 C 150.3 71 149.8 71.2 149.4 71.7 C 149 72.1 148.8 72.8 148.8 73.8 Z M 155.8 80.2 L 155.8 70.1 L 156.9 70.1 C 156.9 70.1 156.9 71.08 156.9 71.1 C 157.2 70.7 157.5 70.4 157.8 70.2 C 158.1 70.1 158.5 70 159 70 C 159.6 70 160.2 70.1 160.6 70.4 C 161.1 70.8 161.5 71.2 161.7 71.8 C 162 72.4 162.1 73 162.1 73.7 C 162.1 74.5 161.9 75.1 161.7 75.7 C 161.4 76.3 161 76.8 160.5 77.1 C 160 77.4 159.5 77.6 158.9 77.6 C 158.5 77.6 158.1 77.5 157.8 77.3 C 157.5 77.1 157.2 76.9 157 76.6 C 157.01 76.64 157 80.2 157 80.2 L 155.8 80.2 Z M 156.9 73.8 C 156.9 74.7 157.1 75.4 157.5 75.9 C 157.8 76.3 158.3 76.5 158.8 76.5 C 159.4 76.5 159.8 76.3 160.2 75.9 C 160.6 75.4 160.8 74.7 160.8 73.7 C 160.8 72.8 160.6 72.1 160.3 71.6 C 159.9 71.2 159.4 70.9 158.9 70.9 C 158.4 70.9 157.9 71.2 157.5 71.7 C 157.1 72.2 156.9 72.9 156.9 73.8 Z M 168.5 75.1 C 168.5 75.1 169.8 75.2 169.8 75.2 C 169.6 76 169.2 76.5 168.7 76.9 C 168.1 77.4 167.5 77.6 166.6 77.6 C 165.6 77.6 164.7 77.2 164.1 76.6 C 163.5 75.9 163.2 75 163.2 73.8 C 163.2 72.6 163.5 71.7 164.1 71 C 164.7 70.3 165.5 70 166.5 70 C 167.5 70 168.3 70.3 168.9 71 C 169.5 71.6 169.8 72.6 169.8 73.7 C 169.8 73.8 169.8 73.9 169.8 74.1 C 169.8 74.1 164.4 74.1 164.4 74.1 C 164.5 74.9 164.7 75.5 165.1 75.9 C 165.5 76.3 166 76.5 166.6 76.5 C 167.1 76.5 167.5 76.4 167.8 76.2 C 168.1 76 168.3 75.6 168.5 75.1 Z M 164.5 73.1 C 164.5 73.1 168.5 73.1 168.5 73.1 C 168.5 72.5 168.3 72 168.1 71.7 C 167.7 71.2 167.2 71 166.6 71 C 166 71 165.5 71.2 165.1 71.5 C 164.7 71.9 164.5 72.4 164.5 73.1 Z M 171.3 77.4 L 171.3 70.1 L 172.4 70.1 C 172.4 70.1 172.44 71.23 172.4 71.2 C 172.7 70.7 173 70.4 173.2 70.2 C 173.5 70.1 173.7 70 174 70 C 174.4 70 174.9 70.1 175.3 70.4 C 175.3 70.4 174.9 71.5 174.9 71.5 C 174.6 71.3 174.3 71.2 174 71.2 C 173.7 71.2 173.4 71.3 173.2 71.5 C 173 71.6 172.9 71.9 172.8 72.2 C 172.6 72.6 172.6 73.1 172.6 73.6 C 172.57 73.59 172.6 77.4 172.6 77.4 L 171.3 77.4 Z M 178.2 76.3 C 178.3 76.3 178.5 76.3 178.7 76.3 C 178.7 76.3 178.9 77.4 178.9 77.4 C 178.5 77.5 178.2 77.5 177.9 77.5 C 177.5 77.5 177.2 77.4 176.9 77.3 C 176.7 77.1 176.5 76.9 176.4 76.7 C 176.3 76.5 176.2 76 176.2 75.3 C 176.24 75.27 176.2 71.1 176.2 71.1 L 175.3 71.1 L 175.3 70.1 L 176.2 70.1 L 176.2 68.3 L 177.5 67.6 L 177.5 70.1 L 178.7 70.1 L 178.7 71.1 L 177.5 71.1 C 177.5 71.1 177.46 75.33 177.5 75.3 C 177.5 75.7 177.5 75.9 177.5 76 C 177.6 76.1 177.6 76.2 177.7 76.3 C 177.8 76.3 178 76.3 178.2 76.3 C 178.2 76.3 178.2 76.3 178.2 76.3 Z M 180.6 80.3 C 180.4 80.3 180.1 80.3 179.8 80.2 C 179.8 80.2 179.7 79 179.7 79 C 180 79.1 180.2 79.1 180.4 79.1 C 180.7 79.1 180.9 79.1 181.1 79 C 181.2 78.9 181.4 78.8 181.5 78.6 C 181.6 78.5 181.7 78.2 181.8 77.7 C 181.9 77.6 181.9 77.5 182 77.4 C 181.96 77.41 179.2 70.1 179.2 70.1 L 180.5 70.1 C 180.5 70.1 182.04 74.34 182 74.3 C 182.2 74.9 182.4 75.4 182.6 76 C 182.7 75.5 182.9 74.9 183.1 74.4 C 183.07 74.36 184.6 70.1 184.6 70.1 L 185.9 70.1 C 185.9 70.1 183.09 77.52 183.1 77.5 C 182.8 78.3 182.6 78.9 182.4 79.2 C 182.2 79.6 181.9 79.9 181.7 80.1 C 181.4 80.2 181 80.3 180.6 80.3 C 180.6 80.3 180.6 80.3 180.6 80.3 Z " stroke="none" fill="#010102"/>  </g>  <g id="Polygon116712">    <path d="M 1.1 60.6 L 1.1 50.7 L 3.1 50.7 L 3.1 58.9 L 8.1 58.9 L 8.1 60.6 L 1.1 60.6 Z M 9.1 57.9 C 9.1 57.9 10.9 57.7 10.9 57.7 C 11 58.2 11.2 58.5 11.4 58.8 C 11.7 59 12 59.2 12.4 59.2 C 12.8 59.2 13.1 59 13.4 58.7 C 13.6 58.4 13.8 58 13.8 57.5 C 13.8 57 13.6 56.6 13.4 56.4 C 13.1 56.1 12.8 55.9 12.4 55.9 C 12.2 55.9 11.9 56 11.5 56.1 C 11.5 56.1 11.8 54.5 11.8 54.5 C 12.3 54.5 12.7 54.4 12.9 54.2 C 13.2 53.9 13.4 53.6 13.4 53.2 C 13.4 52.9 13.3 52.6 13.1 52.4 C 12.9 52.2 12.6 52.1 12.3 52.1 C 11.9 52.1 11.6 52.2 11.4 52.5 C 11.2 52.7 11 53 11 53.4 C 11 53.4 9.2 53.1 9.2 53.1 C 9.3 52.5 9.5 52.1 9.8 51.7 C 10 51.3 10.4 51 10.8 50.8 C 11.3 50.6 11.8 50.5 12.3 50.5 C 13.3 50.5 14 50.8 14.6 51.4 C 15.1 51.9 15.3 52.5 15.3 53.1 C 15.3 54 14.8 54.7 13.8 55.2 C 14.4 55.3 14.9 55.6 15.2 56 C 15.6 56.5 15.7 57 15.7 57.6 C 15.7 58.5 15.4 59.2 14.8 59.8 C 14.1 60.5 13.3 60.8 12.4 60.8 C 11.5 60.8 10.7 60.5 10.1 60 C 9.5 59.5 9.2 58.8 9.1 57.9 Z M 21.3 60.6 L 21.3 50.6 L 22.7 50.6 L 22.7 54.7 L 27.9 54.7 L 27.9 50.6 L 29.2 50.6 L 29.2 60.6 L 27.9 60.6 L 27.9 55.9 L 22.7 55.9 L 22.7 60.6 L 21.3 60.6 Z M 30.8 57 C 30.8 55.6 31.2 54.6 31.9 54 C 32.5 53.4 33.3 53.2 34.2 53.2 C 35.2 53.2 36 53.5 36.7 54.1 C 37.3 54.8 37.6 55.7 37.6 56.9 C 37.6 57.8 37.5 58.5 37.2 59.1 C 36.9 59.6 36.5 60 36 60.3 C 35.4 60.6 34.8 60.8 34.2 60.8 C 33.2 60.8 32.4 60.4 31.7 59.8 C 31.1 59.1 30.8 58.2 30.8 57 Z M 32.1 57 C 32.1 57.9 32.3 58.6 32.7 59.1 C 33.1 59.5 33.6 59.7 34.2 59.7 C 34.8 59.7 35.3 59.5 35.7 59 C 36.1 58.6 36.3 57.9 36.3 56.9 C 36.3 56 36.1 55.3 35.7 54.9 C 35.3 54.4 34.8 54.2 34.2 54.2 C 33.6 54.2 33.1 54.4 32.7 54.9 C 32.3 55.3 32.1 56 32.1 57 Z M 43.8 60.6 C 43.8 60.6 43.8 59.53 43.8 59.5 C 43.2 60.3 42.5 60.8 41.5 60.8 C 41.1 60.8 40.7 60.7 40.3 60.5 C 39.9 60.3 39.7 60.1 39.5 59.9 C 39.3 59.6 39.2 59.3 39.1 59 C 39 58.7 39 58.4 39 57.8 C 39.02 57.83 39 53.3 39 53.3 L 40.3 53.3 C 40.3 53.3 40.25 57.36 40.3 57.4 C 40.3 58 40.3 58.4 40.3 58.7 C 40.4 59 40.6 59.2 40.8 59.4 C 41.1 59.6 41.4 59.7 41.7 59.7 C 42.1 59.7 42.5 59.6 42.8 59.4 C 43.1 59.2 43.3 59 43.5 58.6 C 43.6 58.3 43.7 57.8 43.7 57.2 C 43.67 57.22 43.7 53.3 43.7 53.3 L 44.9 53.3 L 44.9 60.6 L 43.8 60.6 Z M 46.3 58.4 C 46.3 58.4 47.6 58.2 47.6 58.2 C 47.6 58.7 47.8 59.1 48.1 59.4 C 48.4 59.6 48.9 59.7 49.4 59.7 C 50 59.7 50.4 59.6 50.7 59.4 C 51 59.2 51.1 58.9 51.1 58.6 C 51.1 58.3 51 58.1 50.7 57.9 C 50.6 57.8 50.2 57.7 49.5 57.5 C 48.6 57.3 48 57.1 47.6 56.9 C 47.3 56.8 47 56.5 46.8 56.2 C 46.6 55.9 46.5 55.6 46.5 55.3 C 46.5 54.9 46.6 54.6 46.8 54.4 C 46.9 54.1 47.1 53.9 47.4 53.7 C 47.6 53.5 47.8 53.4 48.2 53.3 C 48.5 53.2 48.8 53.2 49.2 53.2 C 49.8 53.2 50.3 53.3 50.7 53.4 C 51.1 53.6 51.5 53.8 51.7 54.1 C 51.9 54.4 52 54.7 52.1 55.2 C 52.1 55.2 50.9 55.4 50.9 55.4 C 50.8 55 50.7 54.7 50.4 54.5 C 50.2 54.3 49.8 54.2 49.3 54.2 C 48.7 54.2 48.3 54.3 48.1 54.5 C 47.9 54.6 47.7 54.9 47.7 55.1 C 47.7 55.3 47.8 55.4 47.9 55.5 C 48 55.7 48.1 55.8 48.4 55.9 C 48.5 55.9 48.8 56 49.4 56.2 C 50.3 56.4 50.9 56.6 51.3 56.8 C 51.6 56.9 51.9 57.1 52.1 57.4 C 52.3 57.7 52.4 58 52.4 58.5 C 52.4 58.9 52.3 59.3 52 59.6 C 51.8 60 51.4 60.3 51 60.5 C 50.5 60.7 50 60.8 49.4 60.8 C 48.5 60.8 47.8 60.6 47.3 60.2 C 46.8 59.8 46.5 59.2 46.3 58.4 Z M 53.8 52 L 53.8 50.6 L 55.1 50.6 L 55.1 52 L 53.8 52 Z M 53.8 60.6 L 53.8 53.3 L 55.1 53.3 L 55.1 60.6 L 53.8 60.6 Z M 56.9 60.6 L 56.9 53.3 L 58.1 53.3 C 58.1 53.3 58.05 54.36 58.1 54.4 C 58.6 53.6 59.4 53.2 60.4 53.2 C 60.8 53.2 61.2 53.2 61.6 53.4 C 61.9 53.6 62.2 53.8 62.4 54 C 62.6 54.3 62.7 54.6 62.8 54.9 C 62.8 55.2 62.8 55.6 62.8 56.1 C 62.84 56.13 62.8 60.6 62.8 60.6 L 61.6 60.6 C 61.6 60.6 61.61 56.18 61.6 56.2 C 61.6 55.7 61.6 55.3 61.5 55.1 C 61.4 54.8 61.2 54.6 61 54.5 C 60.7 54.3 60.4 54.2 60.1 54.2 C 59.6 54.2 59.1 54.4 58.7 54.7 C 58.4 55.1 58.2 55.7 58.2 56.6 C 58.17 56.63 58.2 60.6 58.2 60.6 L 56.9 60.6 Z M 64.5 61.2 C 64.5 61.2 65.7 61.4 65.7 61.4 C 65.8 61.7 65.9 62 66.1 62.2 C 66.4 62.4 66.8 62.5 67.4 62.5 C 67.9 62.5 68.4 62.4 68.7 62.2 C 69 62 69.2 61.6 69.3 61.2 C 69.4 61 69.4 60.4 69.4 59.6 C 68.9 60.3 68.2 60.6 67.4 60.6 C 66.4 60.6 65.6 60.2 65.1 59.5 C 64.5 58.8 64.3 57.9 64.3 56.9 C 64.3 56.2 64.4 55.6 64.6 55 C 64.9 54.4 65.2 54 65.7 53.6 C 66.2 53.3 66.8 53.2 67.4 53.2 C 68.3 53.2 69 53.5 69.5 54.2 C 69.52 54.21 69.5 53.3 69.5 53.3 L 70.7 53.3 C 70.7 53.3 70.66 59.61 70.7 59.6 C 70.7 60.7 70.5 61.5 70.3 62 C 70.1 62.5 69.7 62.9 69.2 63.1 C 68.7 63.4 68.1 63.5 67.4 63.5 C 66.5 63.5 65.8 63.3 65.3 63 C 64.7 62.6 64.5 62 64.5 61.2 Z M 65.5 56.8 C 65.5 57.8 65.7 58.5 66.1 58.9 C 66.5 59.4 66.9 59.6 67.5 59.6 C 68.1 59.6 68.6 59.4 68.9 58.9 C 69.3 58.5 69.5 57.8 69.5 56.9 C 69.5 56 69.3 55.3 68.9 54.9 C 68.5 54.4 68 54.2 67.5 54.2 C 66.9 54.2 66.5 54.4 66.1 54.9 C 65.7 55.3 65.5 56 65.5 56.8 Z M 83.7 60.8 C 83.2 60.5 82.7 60 82.1 59.4 C 81.7 59.9 81.3 60.2 80.8 60.4 C 80.3 60.7 79.8 60.8 79.3 60.8 C 78.2 60.8 77.4 60.4 76.8 59.7 C 76.3 59.2 76.1 58.5 76.1 57.8 C 76.1 57.2 76.3 56.7 76.7 56.2 C 77.1 55.7 77.7 55.2 78.5 54.8 C 78 54.3 77.7 53.9 77.6 53.6 C 77.4 53.2 77.3 52.9 77.3 52.6 C 77.3 52 77.6 51.5 78 51.1 C 78.5 50.6 79.1 50.4 79.8 50.4 C 80.5 50.4 81.1 50.6 81.5 51 C 81.9 51.4 82.2 52 82.2 52.5 C 82.2 53.5 81.5 54.3 80.3 55 C 80.3 55 82.1 57.3 82.1 57.3 C 82.3 56.9 82.4 56.4 82.5 55.9 C 82.5 55.9 83.8 56.1 83.8 56.1 C 83.6 57 83.3 57.7 82.9 58.3 C 83.4 58.9 83.9 59.4 84.5 59.8 C 84.5 59.85 83.7 60.8 83.7 60.8 C 83.7 60.8 83.67 60.82 83.7 60.8 Z M 79.6 54.2 C 80.2 53.9 80.5 53.6 80.7 53.4 C 80.8 53.1 80.9 52.9 80.9 52.6 C 80.9 52.2 80.8 52 80.6 51.7 C 80.4 51.5 80.1 51.4 79.8 51.4 C 79.4 51.4 79.2 51.5 78.9 51.7 C 78.7 51.9 78.6 52.2 78.6 52.5 C 78.6 52.7 78.6 52.8 78.7 53 C 78.8 53.2 78.9 53.4 79.1 53.6 C 79.1 53.6 79.6 54.2 79.6 54.2 Z M 81.4 58.4 C 81.4 58.4 79.1 55.6 79.1 55.6 C 78.4 56 78 56.4 77.8 56.7 C 77.5 57.1 77.4 57.4 77.4 57.8 C 77.4 58.2 77.6 58.6 77.9 59 C 78.2 59.5 78.7 59.7 79.3 59.7 C 79.6 59.7 80 59.6 80.4 59.3 C 80.8 59.1 81.1 58.8 81.4 58.4 Z M 89.8 60.6 L 89.8 50.6 C 89.8 50.6 93.57 50.57 93.6 50.6 C 94.2 50.6 94.7 50.6 95.1 50.7 C 95.6 50.7 96 50.9 96.3 51.1 C 96.7 51.4 96.9 51.7 97.1 52.1 C 97.3 52.5 97.4 53 97.4 53.5 C 97.4 54.3 97.2 55 96.6 55.6 C 96.1 56.2 95.1 56.5 93.7 56.5 C 93.69 56.52 91.1 56.5 91.1 56.5 L 91.1 60.6 L 89.8 60.6 Z M 91.1 55.3 C 91.1 55.3 93.71 55.34 93.7 55.3 C 94.6 55.3 95.2 55.2 95.5 54.9 C 95.9 54.5 96.1 54.1 96.1 53.5 C 96.1 53.1 96 52.7 95.8 52.4 C 95.5 52.1 95.3 51.9 94.9 51.8 C 94.7 51.8 94.3 51.8 93.7 51.8 C 93.68 51.75 91.1 51.8 91.1 51.8 L 91.1 55.3 Z M 99 60.6 L 99 53.3 L 100.1 53.3 C 100.1 53.3 100.06 54.43 100.1 54.4 C 100.3 53.9 100.6 53.6 100.8 53.4 C 101.1 53.3 101.3 53.2 101.6 53.2 C 102.1 53.2 102.5 53.3 102.9 53.6 C 102.9 53.6 102.5 54.7 102.5 54.7 C 102.2 54.5 101.9 54.4 101.6 54.4 C 101.3 54.4 101.1 54.5 100.9 54.7 C 100.6 54.8 100.5 55.1 100.4 55.4 C 100.3 55.8 100.2 56.3 100.2 56.8 C 100.19 56.79 100.2 60.6 100.2 60.6 L 99 60.6 Z M 103.2 57 C 103.2 55.6 103.5 54.6 104.3 54 C 104.9 53.4 105.7 53.2 106.6 53.2 C 107.6 53.2 108.4 53.5 109 54.1 C 109.7 54.8 110 55.7 110 56.9 C 110 57.8 109.8 58.5 109.6 59.1 C 109.3 59.6 108.9 60 108.3 60.3 C 107.8 60.6 107.2 60.8 106.6 60.8 C 105.6 60.8 104.7 60.4 104.1 59.8 C 103.5 59.1 103.2 58.2 103.2 57 Z M 104.4 57 C 104.4 57.9 104.6 58.6 105 59.1 C 105.5 59.5 106 59.7 106.6 59.7 C 107.2 59.7 107.7 59.5 108.1 59 C 108.5 58.6 108.7 57.9 108.7 56.9 C 108.7 56 108.5 55.3 108.1 54.9 C 107.7 54.4 107.2 54.2 106.6 54.2 C 106 54.2 105.5 54.4 105 54.9 C 104.6 55.3 104.4 56 104.4 57 Z M 111.4 63.4 L 111.4 53.3 L 112.5 53.3 C 112.5 53.3 112.54 54.28 112.5 54.3 C 112.8 53.9 113.1 53.6 113.4 53.4 C 113.8 53.3 114.2 53.2 114.6 53.2 C 115.3 53.2 115.8 53.3 116.3 53.6 C 116.8 54 117.1 54.4 117.4 55 C 117.6 55.6 117.7 56.2 117.7 56.9 C 117.7 57.7 117.6 58.3 117.3 58.9 C 117.1 59.5 116.7 60 116.2 60.3 C 115.7 60.6 115.1 60.8 114.6 60.8 C 114.1 60.8 113.8 60.7 113.5 60.5 C 113.1 60.3 112.9 60.1 112.6 59.8 C 112.65 59.84 112.6 63.4 112.6 63.4 L 111.4 63.4 Z M 112.5 57 C 112.5 57.9 112.7 58.6 113.1 59.1 C 113.5 59.5 113.9 59.7 114.5 59.7 C 115 59.7 115.5 59.5 115.9 59.1 C 116.3 58.6 116.5 57.9 116.5 56.9 C 116.5 56 116.3 55.3 115.9 54.8 C 115.5 54.4 115.1 54.1 114.5 54.1 C 114 54.1 113.5 54.4 113.1 54.9 C 112.7 55.4 112.5 56.1 112.5 57 Z M 124.2 58.3 C 124.2 58.3 125.4 58.4 125.4 58.4 C 125.2 59.2 124.9 59.7 124.3 60.1 C 123.8 60.6 123.1 60.8 122.3 60.8 C 121.2 60.8 120.4 60.4 119.7 59.8 C 119.1 59.1 118.8 58.2 118.8 57 C 118.8 55.8 119.1 54.9 119.7 54.2 C 120.4 53.5 121.2 53.2 122.2 53.2 C 123.2 53.2 123.9 53.5 124.6 54.2 C 125.2 54.8 125.5 55.8 125.5 56.9 C 125.5 57 125.5 57.1 125.5 57.3 C 125.5 57.3 120.1 57.3 120.1 57.3 C 120.1 58.1 120.3 58.7 120.7 59.1 C 121.1 59.5 121.7 59.7 122.3 59.7 C 122.7 59.7 123.1 59.6 123.4 59.4 C 123.7 59.2 124 58.8 124.2 58.3 Z M 120.1 56.3 C 120.1 56.3 124.2 56.3 124.2 56.3 C 124.1 55.7 124 55.2 123.7 54.9 C 123.3 54.4 122.8 54.2 122.2 54.2 C 121.6 54.2 121.2 54.4 120.8 54.7 C 120.4 55.1 120.2 55.6 120.1 56.3 Z M 127 60.6 L 127 53.3 L 128.1 53.3 C 128.1 53.3 128.08 54.43 128.1 54.4 C 128.4 53.9 128.6 53.6 128.9 53.4 C 129.1 53.3 129.4 53.2 129.7 53.2 C 130.1 53.2 130.5 53.3 130.9 53.6 C 130.9 53.6 130.5 54.7 130.5 54.7 C 130.2 54.5 129.9 54.4 129.6 54.4 C 129.3 54.4 129.1 54.5 128.9 54.7 C 128.7 54.8 128.5 55.1 128.4 55.4 C 128.3 55.8 128.2 56.3 128.2 56.8 C 128.21 56.79 128.2 60.6 128.2 60.6 L 127 60.6 Z M 133.8 59.5 C 133.9 59.5 134.1 59.5 134.3 59.5 C 134.3 59.5 134.5 60.6 134.5 60.6 C 134.2 60.7 133.9 60.7 133.6 60.7 C 133.1 60.7 132.8 60.6 132.5 60.5 C 132.3 60.3 132.1 60.1 132 59.9 C 131.9 59.7 131.9 59.2 131.9 58.5 C 131.88 58.47 131.9 54.3 131.9 54.3 L 131 54.3 L 131 53.3 L 131.9 53.3 L 131.9 51.5 L 133.1 50.8 L 133.1 53.3 L 134.3 53.3 L 134.3 54.3 L 133.1 54.3 C 133.1 54.3 133.1 58.53 133.1 58.5 C 133.1 58.9 133.1 59.1 133.2 59.2 C 133.2 59.3 133.3 59.4 133.4 59.5 C 133.5 59.5 133.6 59.5 133.8 59.5 C 133.8 59.5 133.8 59.5 133.8 59.5 Z M 136.3 63.5 C 136 63.5 135.8 63.5 135.5 63.4 C 135.5 63.4 135.4 62.2 135.4 62.2 C 135.6 62.3 135.9 62.3 136.1 62.3 C 136.3 62.3 136.5 62.3 136.7 62.2 C 136.9 62.1 137 62 137.1 61.8 C 137.2 61.7 137.3 61.4 137.5 60.9 C 137.5 60.8 137.6 60.7 137.6 60.6 C 137.6 60.61 134.8 53.3 134.8 53.3 L 136.2 53.3 C 136.2 53.3 137.68 57.54 137.7 57.5 C 137.9 58.1 138.1 58.6 138.2 59.2 C 138.4 58.7 138.5 58.1 138.7 57.6 C 138.71 57.56 140.3 53.3 140.3 53.3 L 141.5 53.3 C 141.5 53.3 138.74 60.72 138.7 60.7 C 138.4 61.5 138.2 62.1 138 62.4 C 137.8 62.8 137.6 63.1 137.3 63.3 C 137 63.4 136.7 63.5 136.3 63.5 C 136.3 63.5 136.3 63.5 136.3 63.5 Z M 146.5 60.6 L 146.5 50.6 L 148.5 50.6 C 148.5 50.6 150.92 57.67 150.9 57.7 C 151.1 58.3 151.3 58.8 151.4 59.1 C 151.5 58.8 151.7 58.3 151.9 57.5 C 151.93 57.54 154.3 50.6 154.3 50.6 L 156.1 50.6 L 156.1 60.6 L 154.8 60.6 L 154.8 52.2 L 151.9 60.6 L 150.7 60.6 L 147.8 52.1 L 147.8 60.6 L 146.5 60.6 Z M 163.1 60.6 C 163 60.3 162.9 60 162.8 59.7 C 162.4 60.1 161.9 60.4 161.5 60.5 C 161.1 60.7 160.6 60.8 160.2 60.8 C 159.4 60.8 158.7 60.6 158.3 60.2 C 157.9 59.8 157.7 59.3 157.7 58.7 C 157.7 58.3 157.8 58 157.9 57.7 C 158.1 57.4 158.3 57.2 158.6 57 C 158.8 56.8 159.1 56.7 159.4 56.6 C 159.7 56.5 160 56.5 160.5 56.4 C 161.5 56.3 162.3 56.1 162.7 56 C 162.7 55.8 162.7 55.7 162.7 55.7 C 162.7 55.2 162.6 54.8 162.4 54.6 C 162.1 54.3 161.6 54.2 161 54.2 C 160.4 54.2 160 54.3 159.7 54.5 C 159.4 54.7 159.2 55.1 159.1 55.6 C 159.1 55.6 157.9 55.4 157.9 55.4 C 158 54.9 158.2 54.5 158.4 54.2 C 158.7 53.8 159 53.6 159.5 53.4 C 160 53.3 160.5 53.2 161.2 53.2 C 161.8 53.2 162.3 53.2 162.7 53.4 C 163.1 53.5 163.3 53.7 163.5 53.9 C 163.7 54.2 163.8 54.4 163.9 54.8 C 164 55 164 55.4 164 55.9 C 164 55.9 164 57.6 164 57.6 C 164 58.7 164 59.4 164.1 59.7 C 164.1 60 164.2 60.3 164.4 60.6 C 164.36 60.59 163.1 60.6 163.1 60.6 C 163.1 60.6 163.08 60.59 163.1 60.6 Z M 162.7 56.9 C 162.3 57.1 161.6 57.3 160.7 57.4 C 160.2 57.5 159.9 57.6 159.6 57.7 C 159.4 57.8 159.3 57.9 159.2 58.1 C 159 58.2 159 58.4 159 58.6 C 159 59 159.1 59.2 159.4 59.5 C 159.6 59.7 160 59.8 160.5 59.8 C 160.9 59.8 161.3 59.7 161.7 59.5 C 162.1 59.3 162.4 59 162.5 58.6 C 162.7 58.4 162.7 57.9 162.7 57.4 C 162.7 57.4 162.7 56.9 162.7 56.9 Z M 165.9 60.6 L 165.9 53.3 L 167 53.3 C 167 53.3 166.99 54.36 167 54.4 C 167.5 53.6 168.3 53.2 169.3 53.2 C 169.7 53.2 170.1 53.2 170.5 53.4 C 170.9 53.6 171.1 53.8 171.3 54 C 171.5 54.3 171.6 54.6 171.7 54.9 C 171.8 55.2 171.8 55.6 171.8 56.1 C 171.78 56.13 171.8 60.6 171.8 60.6 L 170.5 60.6 C 170.5 60.6 170.55 56.18 170.5 56.2 C 170.5 55.7 170.5 55.3 170.4 55.1 C 170.3 54.8 170.1 54.6 169.9 54.5 C 169.7 54.3 169.4 54.2 169 54.2 C 168.5 54.2 168.1 54.4 167.7 54.7 C 167.3 55.1 167.1 55.7 167.1 56.6 C 167.11 56.63 167.1 60.6 167.1 60.6 L 165.9 60.6 Z M 178.7 60.6 C 178.5 60.3 178.4 60 178.4 59.7 C 177.9 60.1 177.5 60.4 177.1 60.5 C 176.7 60.7 176.2 60.8 175.7 60.8 C 174.9 60.8 174.3 60.6 173.9 60.2 C 173.5 59.8 173.3 59.3 173.3 58.7 C 173.3 58.3 173.3 58 173.5 57.7 C 173.7 57.4 173.9 57.2 174.1 57 C 174.4 56.8 174.7 56.7 175 56.6 C 175.3 56.5 175.6 56.5 176.1 56.4 C 177.1 56.3 177.8 56.1 178.3 56 C 178.3 55.8 178.3 55.7 178.3 55.7 C 178.3 55.2 178.2 54.8 178 54.6 C 177.6 54.3 177.2 54.2 176.6 54.2 C 176 54.2 175.6 54.3 175.3 54.5 C 175 54.7 174.8 55.1 174.7 55.6 C 174.7 55.6 173.5 55.4 173.5 55.4 C 173.6 54.9 173.8 54.5 174 54.2 C 174.3 53.8 174.6 53.6 175.1 53.4 C 175.6 53.3 176.1 53.2 176.7 53.2 C 177.4 53.2 177.9 53.2 178.2 53.4 C 178.6 53.5 178.9 53.7 179.1 53.9 C 179.3 54.2 179.4 54.4 179.5 54.8 C 179.5 55 179.5 55.4 179.5 55.9 C 179.5 55.9 179.5 57.6 179.5 57.6 C 179.5 58.7 179.6 59.4 179.6 59.7 C 179.7 60 179.8 60.3 179.9 60.6 C 179.94 60.59 178.7 60.6 178.7 60.6 C 178.7 60.6 178.65 60.59 178.7 60.6 Z M 178.3 56.9 C 177.9 57.1 177.2 57.3 176.3 57.4 C 175.8 57.5 175.4 57.6 175.2 57.7 C 175 57.8 174.8 57.9 174.7 58.1 C 174.6 58.2 174.6 58.4 174.6 58.6 C 174.6 59 174.7 59.2 174.9 59.5 C 175.2 59.7 175.5 59.8 176 59.8 C 176.5 59.8 176.9 59.7 177.3 59.5 C 177.7 59.3 177.9 59 178.1 58.6 C 178.2 58.4 178.3 57.9 178.3 57.4 C 178.3 57.4 178.3 56.9 178.3 56.9 Z M 181.2 61.2 C 181.2 61.2 182.4 61.4 182.4 61.4 C 182.5 61.7 182.6 62 182.8 62.2 C 183.1 62.4 183.6 62.5 184.1 62.5 C 184.7 62.5 185.1 62.4 185.4 62.2 C 185.7 62 185.9 61.6 186 61.2 C 186.1 61 186.1 60.4 186.1 59.6 C 185.6 60.3 184.9 60.6 184.1 60.6 C 183.1 60.6 182.3 60.2 181.8 59.5 C 181.3 58.8 181 57.9 181 56.9 C 181 56.2 181.1 55.6 181.4 55 C 181.6 54.4 182 54 182.4 53.6 C 182.9 53.3 183.5 53.2 184.1 53.2 C 185 53.2 185.7 53.5 186.2 54.2 C 186.25 54.21 186.2 53.3 186.2 53.3 L 187.4 53.3 C 187.4 53.3 187.38 59.61 187.4 59.6 C 187.4 60.7 187.3 61.5 187 62 C 186.8 62.5 186.4 62.9 185.9 63.1 C 185.4 63.4 184.8 63.5 184.1 63.5 C 183.2 63.5 182.5 63.3 182 63 C 181.5 62.6 181.2 62 181.2 61.2 Z M 182.2 56.8 C 182.2 57.8 182.4 58.5 182.8 58.9 C 183.2 59.4 183.7 59.6 184.2 59.6 C 184.8 59.6 185.3 59.4 185.7 58.9 C 186 58.5 186.2 57.8 186.2 56.9 C 186.2 56 186 55.3 185.6 54.9 C 185.2 54.4 184.8 54.2 184.2 54.2 C 183.7 54.2 183.2 54.4 182.8 54.9 C 182.4 55.3 182.2 56 182.2 56.8 Z M 194.2 58.3 C 194.2 58.3 195.5 58.4 195.5 58.4 C 195.3 59.2 194.9 59.7 194.4 60.1 C 193.8 60.6 193.1 60.8 192.3 60.8 C 191.2 60.8 190.4 60.4 189.8 59.8 C 189.1 59.1 188.8 58.2 188.8 57 C 188.8 55.8 189.1 54.9 189.8 54.2 C 190.4 53.5 191.2 53.2 192.2 53.2 C 193.2 53.2 194 53.5 194.6 54.2 C 195.2 54.8 195.5 55.8 195.5 56.9 C 195.5 57 195.5 57.1 195.5 57.3 C 195.5 57.3 190.1 57.3 190.1 57.3 C 190.1 58.1 190.4 58.7 190.8 59.1 C 191.2 59.5 191.7 59.7 192.3 59.7 C 192.7 59.7 193.1 59.6 193.5 59.4 C 193.8 59.2 194 58.8 194.2 58.3 Z M 190.2 56.3 C 190.2 56.3 194.2 56.3 194.2 56.3 C 194.2 55.7 194 55.2 193.8 54.9 C 193.4 54.4 192.9 54.2 192.2 54.2 C 191.7 54.2 191.2 54.4 190.8 54.7 C 190.4 55.1 190.2 55.6 190.2 56.3 Z M 197 60.6 L 197 53.3 L 198.1 53.3 C 198.1 53.3 198.13 54.35 198.1 54.4 C 198.4 54 198.7 53.7 199 53.5 C 199.4 53.3 199.8 53.2 200.3 53.2 C 200.9 53.2 201.3 53.3 201.6 53.5 C 202 53.7 202.2 54 202.4 54.4 C 203 53.6 203.7 53.2 204.6 53.2 C 205.3 53.2 205.9 53.4 206.3 53.8 C 206.7 54.2 206.9 54.8 206.9 55.6 C 206.86 55.61 206.9 60.6 206.9 60.6 L 205.6 60.6 C 205.6 60.6 205.64 56.02 205.6 56 C 205.6 55.5 205.6 55.2 205.5 55 C 205.4 54.7 205.3 54.6 205.1 54.4 C 204.9 54.3 204.6 54.2 204.3 54.2 C 203.8 54.2 203.4 54.4 203.1 54.7 C 202.7 55.1 202.6 55.6 202.6 56.4 C 202.57 56.37 202.6 60.6 202.6 60.6 L 201.3 60.6 C 201.3 60.6 201.34 55.88 201.3 55.9 C 201.3 55.3 201.2 54.9 201 54.6 C 200.8 54.4 200.5 54.2 200.1 54.2 C 199.7 54.2 199.4 54.3 199.1 54.5 C 198.8 54.7 198.6 55 198.5 55.3 C 198.3 55.7 198.3 56.2 198.3 56.8 C 198.26 56.83 198.3 60.6 198.3 60.6 L 197 60.6 Z M 213.7 58.3 C 213.7 58.3 214.9 58.4 214.9 58.4 C 214.7 59.2 214.4 59.7 213.8 60.1 C 213.3 60.6 212.6 60.8 211.7 60.8 C 210.7 60.8 209.8 60.4 209.2 59.8 C 208.6 59.1 208.3 58.2 208.3 57 C 208.3 55.8 208.6 54.9 209.2 54.2 C 209.8 53.5 210.7 53.2 211.7 53.2 C 212.6 53.2 213.4 53.5 214 54.2 C 214.7 54.8 215 55.8 215 56.9 C 215 57 215 57.1 215 57.3 C 215 57.3 209.5 57.3 209.5 57.3 C 209.6 58.1 209.8 58.7 210.2 59.1 C 210.6 59.5 211.1 59.7 211.7 59.7 C 212.2 59.7 212.6 59.6 212.9 59.4 C 213.2 59.2 213.5 58.8 213.7 58.3 Z M 209.6 56.3 C 209.6 56.3 213.7 56.3 213.7 56.3 C 213.6 55.7 213.5 55.2 213.2 54.9 C 212.8 54.4 212.3 54.2 211.7 54.2 C 211.1 54.2 210.6 54.4 210.3 54.7 C 209.9 55.1 209.7 55.6 209.6 56.3 Z M 216.5 60.6 L 216.5 53.3 L 217.6 53.3 C 217.6 53.3 217.58 54.36 217.6 54.4 C 218.1 53.6 218.9 53.2 219.9 53.2 C 220.3 53.2 220.7 53.2 221.1 53.4 C 221.5 53.6 221.7 53.8 221.9 54 C 222.1 54.3 222.2 54.6 222.3 54.9 C 222.4 55.2 222.4 55.6 222.4 56.1 C 222.37 56.13 222.4 60.6 222.4 60.6 L 221.1 60.6 C 221.1 60.6 221.14 56.18 221.1 56.2 C 221.1 55.7 221.1 55.3 221 55.1 C 220.9 54.8 220.7 54.6 220.5 54.5 C 220.2 54.3 220 54.2 219.6 54.2 C 219.1 54.2 218.7 54.4 218.3 54.7 C 217.9 55.1 217.7 55.7 217.7 56.6 C 217.7 56.63 217.7 60.6 217.7 60.6 L 216.5 60.6 Z M 226.4 59.5 C 226.5 59.5 226.7 59.5 226.9 59.5 C 226.9 59.5 227.1 60.6 227.1 60.6 C 226.8 60.7 226.5 60.7 226.2 60.7 C 225.7 60.7 225.4 60.6 225.2 60.5 C 224.9 60.3 224.7 60.1 224.6 59.9 C 224.5 59.7 224.5 59.2 224.5 58.5 C 224.49 58.47 224.5 54.3 224.5 54.3 L 223.6 54.3 L 223.6 53.3 L 224.5 53.3 L 224.5 51.5 L 225.7 50.8 L 225.7 53.3 L 226.9 53.3 L 226.9 54.3 L 225.7 54.3 C 225.7 54.3 225.71 58.53 225.7 58.5 C 225.7 58.9 225.7 59.1 225.8 59.2 C 225.8 59.3 225.9 59.4 226 59.5 C 226.1 59.5 226.2 59.5 226.4 59.5 C 226.4 59.5 226.4 59.5 226.4 59.5 Z " stroke="none" fill="#010102"/>  </g>  <g id="Polygon116711">    <path d="M 20.2 43.8 L 24.1 33.8 L 25.5 33.8 L 29.6 43.8 L 28.1 43.8 L 26.9 40.8 L 22.7 40.8 L 21.6 43.8 L 20.2 43.8 Z M 23.1 39.7 L 26.5 39.7 C 26.5 39.7 25.45 36.9 25.5 36.9 C 25.1 36.1 24.9 35.4 24.7 34.8 C 24.6 35.5 24.4 36.1 24.2 36.7 C 24.2 36.74 23.1 39.7 23.1 39.7 Z M 30 41.6 C 30 41.6 31.2 41.4 31.2 41.4 C 31.3 41.9 31.5 42.3 31.8 42.6 C 32.1 42.8 32.5 42.9 33.1 42.9 C 33.7 42.9 34.1 42.8 34.4 42.6 C 34.6 42.4 34.8 42.1 34.8 41.8 C 34.8 41.5 34.6 41.3 34.4 41.1 C 34.2 41 33.8 40.9 33.1 40.7 C 32.2 40.5 31.6 40.3 31.3 40.1 C 30.9 40 30.7 39.7 30.5 39.4 C 30.3 39.1 30.2 38.8 30.2 38.5 C 30.2 38.1 30.3 37.8 30.4 37.6 C 30.6 37.3 30.8 37.1 31 36.9 C 31.2 36.7 31.5 36.6 31.8 36.5 C 32.1 36.4 32.5 36.4 32.9 36.4 C 33.4 36.4 33.9 36.5 34.4 36.6 C 34.8 36.8 35.1 37 35.3 37.3 C 35.5 37.6 35.7 37.9 35.8 38.4 C 35.8 38.4 34.5 38.6 34.5 38.6 C 34.5 38.2 34.3 37.9 34.1 37.7 C 33.8 37.5 33.4 37.4 33 37.4 C 32.4 37.4 32 37.5 31.8 37.7 C 31.5 37.8 31.4 38.1 31.4 38.3 C 31.4 38.5 31.4 38.6 31.5 38.7 C 31.6 38.9 31.8 39 32 39.1 C 32.1 39.1 32.5 39.2 33.1 39.4 C 34 39.6 34.6 39.8 34.9 40 C 35.3 40.1 35.5 40.3 35.7 40.6 C 35.9 40.9 36 41.2 36 41.7 C 36 42.1 35.9 42.5 35.7 42.8 C 35.4 43.2 35.1 43.5 34.6 43.7 C 34.2 43.9 33.7 44 33.1 44 C 32.2 44 31.4 43.8 30.9 43.4 C 30.4 43 30.1 42.4 30 41.6 Z M 37 41.6 C 37 41.6 38.2 41.4 38.2 41.4 C 38.3 41.9 38.5 42.3 38.8 42.6 C 39.1 42.8 39.5 42.9 40.1 42.9 C 40.7 42.9 41.1 42.8 41.4 42.6 C 41.6 42.4 41.8 42.1 41.8 41.8 C 41.8 41.5 41.6 41.3 41.4 41.1 C 41.2 41 40.8 40.9 40.1 40.7 C 39.2 40.5 38.6 40.3 38.3 40.1 C 37.9 40 37.7 39.7 37.5 39.4 C 37.3 39.1 37.2 38.8 37.2 38.5 C 37.2 38.1 37.3 37.8 37.4 37.6 C 37.6 37.3 37.8 37.1 38 36.9 C 38.2 36.7 38.5 36.6 38.8 36.5 C 39.1 36.4 39.5 36.4 39.9 36.4 C 40.4 36.4 40.9 36.5 41.4 36.6 C 41.8 36.8 42.1 37 42.3 37.3 C 42.5 37.6 42.7 37.9 42.8 38.4 C 42.8 38.4 41.5 38.6 41.5 38.6 C 41.5 38.2 41.3 37.9 41.1 37.7 C 40.8 37.5 40.4 37.4 40 37.4 C 39.4 37.4 39 37.5 38.8 37.7 C 38.5 37.8 38.4 38.1 38.4 38.3 C 38.4 38.5 38.4 38.6 38.5 38.7 C 38.6 38.9 38.8 39 39 39.1 C 39.1 39.1 39.5 39.2 40.1 39.4 C 41 39.6 41.6 39.8 41.9 40 C 42.3 40.1 42.5 40.3 42.7 40.6 C 42.9 40.9 43 41.2 43 41.7 C 43 42.1 42.9 42.5 42.7 42.8 C 42.4 43.2 42.1 43.5 41.6 43.7 C 41.2 43.9 40.7 44 40.1 44 C 39.2 44 38.4 43.8 37.9 43.4 C 37.4 43 37.1 42.4 37 41.6 Z M 44.5 35.2 L 44.5 33.8 L 45.7 33.8 L 45.7 35.2 L 44.5 35.2 Z M 44.5 43.8 L 44.5 36.5 L 45.7 36.5 L 45.7 43.8 L 44.5 43.8 Z M 47.1 41.6 C 47.1 41.6 48.3 41.4 48.3 41.4 C 48.4 41.9 48.6 42.3 48.9 42.6 C 49.2 42.8 49.6 42.9 50.2 42.9 C 50.8 42.9 51.2 42.8 51.5 42.6 C 51.7 42.4 51.9 42.1 51.9 41.8 C 51.9 41.5 51.8 41.3 51.5 41.1 C 51.3 41 50.9 40.9 50.3 40.7 C 49.3 40.5 48.7 40.3 48.4 40.1 C 48 40 47.8 39.7 47.6 39.4 C 47.4 39.1 47.3 38.8 47.3 38.5 C 47.3 38.1 47.4 37.8 47.5 37.6 C 47.7 37.3 47.9 37.1 48.1 36.9 C 48.3 36.7 48.6 36.6 48.9 36.5 C 49.3 36.4 49.6 36.4 50 36.4 C 50.6 36.4 51.1 36.5 51.5 36.6 C 51.9 36.8 52.2 37 52.4 37.3 C 52.6 37.6 52.8 37.9 52.9 38.4 C 52.9 38.4 51.7 38.6 51.7 38.6 C 51.6 38.2 51.4 37.9 51.2 37.7 C 50.9 37.5 50.6 37.4 50.1 37.4 C 49.5 37.4 49.1 37.5 48.9 37.7 C 48.6 37.8 48.5 38.1 48.5 38.3 C 48.5 38.5 48.6 38.6 48.7 38.7 C 48.8 38.9 48.9 39 49.1 39.1 C 49.2 39.1 49.6 39.2 50.2 39.4 C 51.1 39.6 51.7 39.8 52 40 C 52.4 40.1 52.6 40.3 52.8 40.6 C 53 40.9 53.1 41.2 53.1 41.7 C 53.1 42.1 53 42.5 52.8 42.8 C 52.5 43.2 52.2 43.5 51.7 43.7 C 51.3 43.9 50.8 44 50.2 44 C 49.3 44 48.5 43.8 48.1 43.4 C 47.6 43 47.2 42.4 47.1 41.6 Z M 56.7 42.7 C 56.9 42.7 57.1 42.7 57.3 42.7 C 57.3 42.7 57.5 43.8 57.5 43.8 C 57.1 43.9 56.8 43.9 56.5 43.9 C 56.1 43.9 55.7 43.8 55.5 43.7 C 55.2 43.5 55.1 43.3 55 43.1 C 54.9 42.9 54.8 42.4 54.8 41.7 C 54.82 41.67 54.8 37.5 54.8 37.5 L 53.9 37.5 L 53.9 36.5 L 54.8 36.5 L 54.8 34.7 L 56 34 L 56 36.5 L 57.3 36.5 L 57.3 37.5 L 56 37.5 C 56 37.5 56.05 41.73 56 41.7 C 56 42.1 56.1 42.3 56.1 42.4 C 56.2 42.5 56.2 42.6 56.3 42.7 C 56.4 42.7 56.6 42.7 56.7 42.7 C 56.7 42.7 56.7 42.7 56.7 42.7 Z M 63.5 43.8 C 63.3 43.5 63.3 43.2 63.2 42.9 C 62.8 43.3 62.3 43.6 61.9 43.7 C 61.5 43.9 61 44 60.6 44 C 59.8 44 59.1 43.8 58.7 43.4 C 58.3 43 58.1 42.5 58.1 41.9 C 58.1 41.5 58.2 41.2 58.3 40.9 C 58.5 40.6 58.7 40.4 58.9 40.2 C 59.2 40 59.5 39.9 59.8 39.8 C 60.1 39.7 60.4 39.7 60.9 39.6 C 61.9 39.5 62.7 39.3 63.1 39.2 C 63.1 39 63.1 38.9 63.1 38.9 C 63.1 38.4 63 38 62.8 37.8 C 62.5 37.5 62 37.4 61.4 37.4 C 60.8 37.4 60.4 37.5 60.1 37.7 C 59.8 37.9 59.6 38.3 59.5 38.8 C 59.5 38.8 58.3 38.6 58.3 38.6 C 58.4 38.1 58.6 37.7 58.8 37.4 C 59.1 37 59.4 36.8 59.9 36.6 C 60.4 36.5 60.9 36.4 61.6 36.4 C 62.2 36.4 62.7 36.4 63.1 36.6 C 63.5 36.7 63.7 36.9 63.9 37.1 C 64.1 37.4 64.2 37.6 64.3 38 C 64.3 38.2 64.4 38.6 64.4 39.1 C 64.4 39.1 64.4 40.8 64.4 40.8 C 64.4 41.9 64.4 42.6 64.4 42.9 C 64.5 43.2 64.6 43.5 64.8 43.8 C 64.76 43.79 63.5 43.8 63.5 43.8 C 63.5 43.8 63.47 43.79 63.5 43.8 Z M 63.1 40.1 C 62.7 40.3 62 40.5 61.1 40.6 C 60.6 40.7 60.2 40.8 60 40.9 C 59.8 41 59.7 41.1 59.6 41.3 C 59.4 41.4 59.4 41.6 59.4 41.8 C 59.4 42.2 59.5 42.4 59.8 42.7 C 60 42.9 60.4 43 60.8 43 C 61.3 43 61.7 42.9 62.1 42.7 C 62.5 42.5 62.8 42.2 62.9 41.8 C 63.1 41.6 63.1 41.1 63.1 40.6 C 63.1 40.6 63.1 40.1 63.1 40.1 Z M 66.3 43.8 L 66.3 36.5 L 67.4 36.5 C 67.4 36.5 67.38 37.56 67.4 37.6 C 67.9 36.8 68.7 36.4 69.7 36.4 C 70.1 36.4 70.5 36.4 70.9 36.6 C 71.3 36.8 71.5 37 71.7 37.2 C 71.9 37.5 72 37.8 72.1 38.1 C 72.2 38.4 72.2 38.8 72.2 39.3 C 72.17 39.33 72.2 43.8 72.2 43.8 L 70.9 43.8 C 70.9 43.8 70.94 39.38 70.9 39.4 C 70.9 38.9 70.9 38.5 70.8 38.3 C 70.7 38 70.5 37.8 70.3 37.7 C 70 37.5 69.8 37.4 69.4 37.4 C 68.9 37.4 68.5 37.6 68.1 37.9 C 67.7 38.3 67.5 38.9 67.5 39.8 C 67.5 39.83 67.5 43.8 67.5 43.8 L 66.3 43.8 Z M 76.2 42.7 C 76.3 42.7 76.5 42.7 76.7 42.7 C 76.7 42.7 76.9 43.8 76.9 43.8 C 76.6 43.9 76.3 43.9 76 43.9 C 75.5 43.9 75.2 43.8 75 43.7 C 74.7 43.5 74.5 43.3 74.4 43.1 C 74.3 42.9 74.3 42.4 74.3 41.7 C 74.29 41.67 74.3 37.5 74.3 37.5 L 73.4 37.5 L 73.4 36.5 L 74.3 36.5 L 74.3 34.7 L 75.5 34 L 75.5 36.5 L 76.7 36.5 L 76.7 37.5 L 75.5 37.5 C 75.5 37.5 75.51 41.73 75.5 41.7 C 75.5 42.1 75.5 42.3 75.6 42.4 C 75.6 42.5 75.7 42.6 75.8 42.7 C 75.9 42.7 76 42.7 76.2 42.7 C 76.2 42.7 76.2 42.7 76.2 42.7 Z " stroke="none" fill="#010102"/>  </g>  <g id="Polygon116710">    <path d="M 1.1 27 L 1.1 17.1 L 3.1 17.1 L 3.1 25.3 L 8.1 25.3 L 8.1 27 L 1.1 27 Z M 15.6 25.2 L 15.6 27 C 15.6 27 8.9 26.99 8.9 27 C 9 26.3 9.2 25.7 9.6 25.1 C 9.9 24.5 10.6 23.7 11.7 22.7 C 12.6 21.9 13.1 21.3 13.3 21 C 13.6 20.6 13.7 20.2 13.7 19.9 C 13.7 19.4 13.6 19.1 13.4 18.9 C 13.1 18.6 12.8 18.5 12.4 18.5 C 12 18.5 11.7 18.6 11.5 18.9 C 11.2 19.1 11.1 19.5 11 20.1 C 11 20.1 9.1 19.9 9.1 19.9 C 9.2 18.8 9.6 18.1 10.2 17.6 C 10.8 17.2 11.6 16.9 12.5 16.9 C 13.4 16.9 14.2 17.2 14.8 17.7 C 15.4 18.3 15.6 18.9 15.6 19.7 C 15.6 20.2 15.6 20.6 15.4 21 C 15.2 21.4 15 21.8 14.6 22.3 C 14.4 22.6 14 23 13.4 23.6 C 12.8 24.1 12.4 24.5 12.2 24.7 C 12.1 24.9 11.9 25 11.8 25.2 C 11.82 25.21 15.6 25.2 15.6 25.2 Z M 21.3 27 L 21.3 17 L 22.7 17 L 22.7 21.1 L 27.9 21.1 L 27.9 17 L 29.2 17 L 29.2 27 L 27.9 27 L 27.9 22.3 L 22.7 22.3 L 22.7 27 L 21.3 27 Z M 30.8 23.4 C 30.8 22 31.2 21 31.9 20.4 C 32.5 19.8 33.3 19.6 34.2 19.6 C 35.2 19.6 36 19.9 36.7 20.5 C 37.3 21.2 37.6 22.1 37.6 23.3 C 37.6 24.2 37.5 24.9 37.2 25.5 C 36.9 26 36.5 26.4 36 26.7 C 35.4 27 34.8 27.2 34.2 27.2 C 33.2 27.2 32.4 26.8 31.7 26.2 C 31.1 25.5 30.8 24.6 30.8 23.4 Z M 32.1 23.4 C 32.1 24.3 32.3 25 32.7 25.5 C 33.1 25.9 33.6 26.1 34.2 26.1 C 34.8 26.1 35.3 25.9 35.7 25.4 C 36.1 25 36.3 24.3 36.3 23.3 C 36.3 22.4 36.1 21.7 35.7 21.3 C 35.3 20.8 34.8 20.6 34.2 20.6 C 33.6 20.6 33.1 20.8 32.7 21.3 C 32.3 21.7 32.1 22.4 32.1 23.4 Z M 43.8 27 C 43.8 27 43.8 25.93 43.8 25.9 C 43.2 26.7 42.5 27.2 41.5 27.2 C 41.1 27.2 40.7 27.1 40.3 26.9 C 39.9 26.7 39.7 26.5 39.5 26.3 C 39.3 26 39.2 25.7 39.1 25.4 C 39 25.1 39 24.8 39 24.2 C 39.02 24.23 39 19.7 39 19.7 L 40.3 19.7 C 40.3 19.7 40.25 23.76 40.3 23.8 C 40.3 24.4 40.3 24.8 40.3 25.1 C 40.4 25.4 40.6 25.6 40.8 25.8 C 41.1 26 41.4 26.1 41.7 26.1 C 42.1 26.1 42.5 26 42.8 25.8 C 43.1 25.6 43.3 25.4 43.5 25 C 43.6 24.7 43.7 24.2 43.7 23.6 C 43.67 23.62 43.7 19.7 43.7 19.7 L 44.9 19.7 L 44.9 27 L 43.8 27 Z M 46.3 24.8 C 46.3 24.8 47.6 24.6 47.6 24.6 C 47.6 25.1 47.8 25.5 48.1 25.8 C 48.4 26 48.9 26.1 49.4 26.1 C 50 26.1 50.4 26 50.7 25.8 C 51 25.6 51.1 25.3 51.1 25 C 51.1 24.7 51 24.5 50.7 24.3 C 50.6 24.2 50.2 24.1 49.5 23.9 C 48.6 23.7 48 23.5 47.6 23.3 C 47.3 23.2 47 22.9 46.8 22.6 C 46.6 22.3 46.5 22 46.5 21.7 C 46.5 21.3 46.6 21 46.8 20.8 C 46.9 20.5 47.1 20.3 47.4 20.1 C 47.6 19.9 47.8 19.8 48.2 19.7 C 48.5 19.6 48.8 19.6 49.2 19.6 C 49.8 19.6 50.3 19.7 50.7 19.8 C 51.1 20 51.5 20.2 51.7 20.5 C 51.9 20.8 52 21.1 52.1 21.6 C 52.1 21.6 50.9 21.8 50.9 21.8 C 50.8 21.4 50.7 21.1 50.4 20.9 C 50.2 20.7 49.8 20.6 49.3 20.6 C 48.7 20.6 48.3 20.7 48.1 20.9 C 47.9 21 47.7 21.3 47.7 21.5 C 47.7 21.7 47.8 21.8 47.9 21.9 C 48 22.1 48.1 22.2 48.4 22.3 C 48.5 22.3 48.8 22.4 49.4 22.6 C 50.3 22.8 50.9 23 51.3 23.2 C 51.6 23.3 51.9 23.5 52.1 23.8 C 52.3 24.1 52.4 24.4 52.4 24.9 C 52.4 25.3 52.3 25.7 52 26 C 51.8 26.4 51.4 26.7 51 26.9 C 50.5 27.1 50 27.2 49.4 27.2 C 48.5 27.2 47.8 27 47.3 26.6 C 46.8 26.2 46.5 25.6 46.3 24.8 Z M 53.8 18.4 L 53.8 17 L 55.1 17 L 55.1 18.4 L 53.8 18.4 Z M 53.8 27 L 53.8 19.7 L 55.1 19.7 L 55.1 27 L 53.8 27 Z M 56.9 27 L 56.9 19.7 L 58.1 19.7 C 58.1 19.7 58.05 20.76 58.1 20.8 C 58.6 20 59.4 19.6 60.4 19.6 C 60.8 19.6 61.2 19.6 61.6 19.8 C 61.9 20 62.2 20.2 62.4 20.4 C 62.6 20.7 62.7 21 62.8 21.3 C 62.8 21.6 62.8 22 62.8 22.5 C 62.84 22.53 62.8 27 62.8 27 L 61.6 27 C 61.6 27 61.61 22.58 61.6 22.6 C 61.6 22.1 61.6 21.7 61.5 21.5 C 61.4 21.2 61.2 21 61 20.9 C 60.7 20.7 60.4 20.6 60.1 20.6 C 59.6 20.6 59.1 20.8 58.7 21.1 C 58.4 21.5 58.2 22.1 58.2 23 C 58.17 23.03 58.2 27 58.2 27 L 56.9 27 Z M 64.5 27.6 C 64.5 27.6 65.7 27.8 65.7 27.8 C 65.8 28.1 65.9 28.4 66.1 28.6 C 66.4 28.8 66.8 28.9 67.4 28.9 C 67.9 28.9 68.4 28.8 68.7 28.6 C 69 28.4 69.2 28 69.3 27.6 C 69.4 27.4 69.4 26.8 69.4 26 C 68.9 26.7 68.2 27 67.4 27 C 66.4 27 65.6 26.6 65.1 25.9 C 64.5 25.2 64.3 24.3 64.3 23.3 C 64.3 22.6 64.4 22 64.6 21.4 C 64.9 20.8 65.2 20.4 65.7 20 C 66.2 19.7 66.8 19.6 67.4 19.6 C 68.3 19.6 69 19.9 69.5 20.6 C 69.52 20.61 69.5 19.7 69.5 19.7 L 70.7 19.7 C 70.7 19.7 70.66 26.01 70.7 26 C 70.7 27.1 70.5 27.9 70.3 28.4 C 70.1 28.9 69.7 29.3 69.2 29.5 C 68.7 29.8 68.1 29.9 67.4 29.9 C 66.5 29.9 65.8 29.7 65.3 29.4 C 64.7 29 64.5 28.4 64.5 27.6 Z M 65.5 23.2 C 65.5 24.2 65.7 24.9 66.1 25.3 C 66.5 25.8 66.9 26 67.5 26 C 68.1 26 68.6 25.8 68.9 25.3 C 69.3 24.9 69.5 24.2 69.5 23.3 C 69.5 22.4 69.3 21.7 68.9 21.3 C 68.5 20.8 68 20.6 67.5 20.6 C 66.9 20.6 66.5 20.8 66.1 21.3 C 65.7 21.7 65.5 22.4 65.5 23.2 Z M 83.7 27.2 C 83.2 26.9 82.7 26.4 82.1 25.8 C 81.7 26.3 81.3 26.6 80.8 26.8 C 80.3 27.1 79.8 27.2 79.3 27.2 C 78.2 27.2 77.4 26.8 76.8 26.1 C 76.3 25.6 76.1 24.9 76.1 24.2 C 76.1 23.6 76.3 23.1 76.7 22.6 C 77.1 22.1 77.7 21.6 78.5 21.2 C 78 20.7 77.7 20.3 77.6 20 C 77.4 19.6 77.3 19.3 77.3 19 C 77.3 18.4 77.6 17.9 78 17.5 C 78.5 17 79.1 16.8 79.8 16.8 C 80.5 16.8 81.1 17 81.5 17.4 C 81.9 17.8 82.2 18.4 82.2 18.9 C 82.2 19.9 81.5 20.7 80.3 21.4 C 80.3 21.4 82.1 23.7 82.1 23.7 C 82.3 23.3 82.4 22.8 82.5 22.3 C 82.5 22.3 83.8 22.5 83.8 22.5 C 83.6 23.4 83.3 24.1 82.9 24.7 C 83.4 25.3 83.9 25.8 84.5 26.2 C 84.5 26.25 83.7 27.2 83.7 27.2 C 83.7 27.2 83.67 27.22 83.7 27.2 Z M 79.6 20.6 C 80.2 20.3 80.5 20 80.7 19.8 C 80.8 19.5 80.9 19.3 80.9 19 C 80.9 18.6 80.8 18.4 80.6 18.1 C 80.4 17.9 80.1 17.8 79.8 17.8 C 79.4 17.8 79.2 17.9 78.9 18.1 C 78.7 18.3 78.6 18.6 78.6 18.9 C 78.6 19.1 78.6 19.2 78.7 19.4 C 78.8 19.6 78.9 19.8 79.1 20 C 79.1 20 79.6 20.6 79.6 20.6 Z M 81.4 24.8 C 81.4 24.8 79.1 22 79.1 22 C 78.4 22.4 78 22.8 77.8 23.1 C 77.5 23.5 77.4 23.8 77.4 24.2 C 77.4 24.6 77.6 25 77.9 25.4 C 78.2 25.9 78.7 26.1 79.3 26.1 C 79.6 26.1 80 26 80.4 25.7 C 80.8 25.5 81.1 25.2 81.4 24.8 Z M 89.8 27 L 89.8 17 C 89.8 17 93.57 16.97 93.6 17 C 94.2 17 94.7 17 95.1 17.1 C 95.6 17.1 96 17.3 96.3 17.5 C 96.7 17.8 96.9 18.1 97.1 18.5 C 97.3 18.9 97.4 19.4 97.4 19.9 C 97.4 20.7 97.2 21.4 96.6 22 C 96.1 22.6 95.1 22.9 93.7 22.9 C 93.69 22.92 91.1 22.9 91.1 22.9 L 91.1 27 L 89.8 27 Z M 91.1 21.7 C 91.1 21.7 93.71 21.74 93.7 21.7 C 94.6 21.7 95.2 21.6 95.5 21.3 C 95.9 20.9 96.1 20.5 96.1 19.9 C 96.1 19.5 96 19.1 95.8 18.8 C 95.5 18.5 95.3 18.3 94.9 18.2 C 94.7 18.2 94.3 18.2 93.7 18.2 C 93.68 18.15 91.1 18.2 91.1 18.2 L 91.1 21.7 Z M 99 27 L 99 19.7 L 100.1 19.7 C 100.1 19.7 100.06 20.83 100.1 20.8 C 100.3 20.3 100.6 20 100.8 19.8 C 101.1 19.7 101.3 19.6 101.6 19.6 C 102.1 19.6 102.5 19.7 102.9 20 C 102.9 20 102.5 21.1 102.5 21.1 C 102.2 20.9 101.9 20.8 101.6 20.8 C 101.3 20.8 101.1 20.9 100.9 21.1 C 100.6 21.2 100.5 21.5 100.4 21.8 C 100.3 22.2 100.2 22.7 100.2 23.2 C 100.19 23.19 100.2 27 100.2 27 L 99 27 Z M 103.2 23.4 C 103.2 22 103.5 21 104.3 20.4 C 104.9 19.8 105.7 19.6 106.6 19.6 C 107.6 19.6 108.4 19.9 109 20.5 C 109.7 21.2 110 22.1 110 23.3 C 110 24.2 109.8 24.9 109.6 25.5 C 109.3 26 108.9 26.4 108.3 26.7 C 107.8 27 107.2 27.2 106.6 27.2 C 105.6 27.2 104.7 26.8 104.1 26.2 C 103.5 25.5 103.2 24.6 103.2 23.4 Z M 104.4 23.4 C 104.4 24.3 104.6 25 105 25.5 C 105.5 25.9 106 26.1 106.6 26.1 C 107.2 26.1 107.7 25.9 108.1 25.4 C 108.5 25 108.7 24.3 108.7 23.3 C 108.7 22.4 108.5 21.7 108.1 21.3 C 107.7 20.8 107.2 20.6 106.6 20.6 C 106 20.6 105.5 20.8 105 21.3 C 104.6 21.7 104.4 22.4 104.4 23.4 Z M 111.4 29.8 L 111.4 19.7 L 112.5 19.7 C 112.5 19.7 112.54 20.68 112.5 20.7 C 112.8 20.3 113.1 20 113.4 19.8 C 113.8 19.7 114.2 19.6 114.6 19.6 C 115.3 19.6 115.8 19.7 116.3 20 C 116.8 20.4 117.1 20.8 117.4 21.4 C 117.6 22 117.7 22.6 117.7 23.3 C 117.7 24.1 117.6 24.7 117.3 25.3 C 117.1 25.9 116.7 26.4 116.2 26.7 C 115.7 27 115.1 27.2 114.6 27.2 C 114.1 27.2 113.8 27.1 113.5 26.9 C 113.1 26.7 112.9 26.5 112.6 26.2 C 112.65 26.24 112.6 29.8 112.6 29.8 L 111.4 29.8 Z M 112.5 23.4 C 112.5 24.3 112.7 25 113.1 25.5 C 113.5 25.9 113.9 26.1 114.5 26.1 C 115 26.1 115.5 25.9 115.9 25.5 C 116.3 25 116.5 24.3 116.5 23.3 C 116.5 22.4 116.3 21.7 115.9 21.2 C 115.5 20.8 115.1 20.5 114.5 20.5 C 114 20.5 113.5 20.8 113.1 21.3 C 112.7 21.8 112.5 22.5 112.5 23.4 Z M 124.2 24.7 C 124.2 24.7 125.4 24.8 125.4 24.8 C 125.2 25.6 124.9 26.1 124.3 26.5 C 123.8 27 123.1 27.2 122.3 27.2 C 121.2 27.2 120.4 26.8 119.7 26.2 C 119.1 25.5 118.8 24.6 118.8 23.4 C 118.8 22.2 119.1 21.3 119.7 20.6 C 120.4 19.9 121.2 19.6 122.2 19.6 C 123.2 19.6 123.9 19.9 124.6 20.6 C 125.2 21.2 125.5 22.2 125.5 23.3 C 125.5 23.4 125.5 23.5 125.5 23.7 C 125.5 23.7 120.1 23.7 120.1 23.7 C 120.1 24.5 120.3 25.1 120.7 25.5 C 121.1 25.9 121.7 26.1 122.3 26.1 C 122.7 26.1 123.1 26 123.4 25.8 C 123.7 25.6 124 25.2 124.2 24.7 Z M 120.1 22.7 C 120.1 22.7 124.2 22.7 124.2 22.7 C 124.1 22.1 124 21.6 123.7 21.3 C 123.3 20.8 122.8 20.6 122.2 20.6 C 121.6 20.6 121.2 20.8 120.8 21.1 C 120.4 21.5 120.2 22 120.1 22.7 Z M 127 27 L 127 19.7 L 128.1 19.7 C 128.1 19.7 128.08 20.83 128.1 20.8 C 128.4 20.3 128.6 20 128.9 19.8 C 129.1 19.7 129.4 19.6 129.7 19.6 C 130.1 19.6 130.5 19.7 130.9 20 C 130.9 20 130.5 21.1 130.5 21.1 C 130.2 20.9 129.9 20.8 129.6 20.8 C 129.3 20.8 129.1 20.9 128.9 21.1 C 128.7 21.2 128.5 21.5 128.4 21.8 C 128.3 22.2 128.2 22.7 128.2 23.2 C 128.21 23.19 128.2 27 128.2 27 L 127 27 Z M 133.8 25.9 C 133.9 25.9 134.1 25.9 134.3 25.9 C 134.3 25.9 134.5 27 134.5 27 C 134.2 27.1 133.9 27.1 133.6 27.1 C 133.1 27.1 132.8 27 132.5 26.9 C 132.3 26.7 132.1 26.5 132 26.3 C 131.9 26.1 131.9 25.6 131.9 24.9 C 131.88 24.87 131.9 20.7 131.9 20.7 L 131 20.7 L 131 19.7 L 131.9 19.7 L 131.9 17.9 L 133.1 17.2 L 133.1 19.7 L 134.3 19.7 L 134.3 20.7 L 133.1 20.7 C 133.1 20.7 133.1 24.93 133.1 24.9 C 133.1 25.3 133.1 25.5 133.2 25.6 C 133.2 25.7 133.3 25.8 133.4 25.9 C 133.5 25.9 133.6 25.9 133.8 25.9 C 133.8 25.9 133.8 25.9 133.8 25.9 Z M 136.3 29.9 C 136 29.9 135.8 29.9 135.5 29.8 C 135.5 29.8 135.4 28.6 135.4 28.6 C 135.6 28.7 135.9 28.7 136.1 28.7 C 136.3 28.7 136.5 28.7 136.7 28.6 C 136.9 28.5 137 28.4 137.1 28.2 C 137.2 28.1 137.3 27.8 137.5 27.3 C 137.5 27.2 137.6 27.1 137.6 27 C 137.6 27.01 134.8 19.7 134.8 19.7 L 136.2 19.7 C 136.2 19.7 137.68 23.94 137.7 23.9 C 137.9 24.5 138.1 25 138.2 25.6 C 138.4 25.1 138.5 24.5 138.7 24 C 138.71 23.96 140.3 19.7 140.3 19.7 L 141.5 19.7 C 141.5 19.7 138.74 27.12 138.7 27.1 C 138.4 27.9 138.2 28.5 138 28.8 C 137.8 29.2 137.6 29.5 137.3 29.7 C 137 29.8 136.7 29.9 136.3 29.9 C 136.3 29.9 136.3 29.9 136.3 29.9 Z M 146.5 27 L 146.5 17 L 148.5 17 C 148.5 17 150.92 24.07 150.9 24.1 C 151.1 24.7 151.3 25.2 151.4 25.5 C 151.5 25.2 151.7 24.7 151.9 23.9 C 151.93 23.94 154.3 17 154.3 17 L 156.1 17 L 156.1 27 L 154.8 27 L 154.8 18.6 L 151.9 27 L 150.7 27 L 147.8 18.5 L 147.8 27 L 146.5 27 Z M 163.1 27 C 163 26.7 162.9 26.4 162.8 26.1 C 162.4 26.5 161.9 26.8 161.5 26.9 C 161.1 27.1 160.6 27.2 160.2 27.2 C 159.4 27.2 158.7 27 158.3 26.6 C 157.9 26.2 157.7 25.7 157.7 25.1 C 157.7 24.7 157.8 24.4 157.9 24.1 C 158.1 23.8 158.3 23.6 158.6 23.4 C 158.8 23.2 159.1 23.1 159.4 23 C 159.7 22.9 160 22.9 160.5 22.8 C 161.5 22.7 162.3 22.5 162.7 22.4 C 162.7 22.2 162.7 22.1 162.7 22.1 C 162.7 21.6 162.6 21.2 162.4 21 C 162.1 20.7 161.6 20.6 161 20.6 C 160.4 20.6 160 20.7 159.7 20.9 C 159.4 21.1 159.2 21.5 159.1 22 C 159.1 22 157.9 21.8 157.9 21.8 C 158 21.3 158.2 20.9 158.4 20.6 C 158.7 20.2 159 20 159.5 19.8 C 160 19.7 160.5 19.6 161.2 19.6 C 161.8 19.6 162.3 19.6 162.7 19.8 C 163.1 19.9 163.3 20.1 163.5 20.3 C 163.7 20.6 163.8 20.8 163.9 21.2 C 164 21.4 164 21.8 164 22.3 C 164 22.3 164 24 164 24 C 164 25.1 164 25.8 164.1 26.1 C 164.1 26.4 164.2 26.7 164.4 27 C 164.36 26.99 163.1 27 163.1 27 C 163.1 27 163.08 26.99 163.1 27 Z M 162.7 23.3 C 162.3 23.5 161.6 23.7 160.7 23.8 C 160.2 23.9 159.9 24 159.6 24.1 C 159.4 24.2 159.3 24.3 159.2 24.5 C 159 24.6 159 24.8 159 25 C 159 25.4 159.1 25.6 159.4 25.9 C 159.6 26.1 160 26.2 160.5 26.2 C 160.9 26.2 161.3 26.1 161.7 25.9 C 162.1 25.7 162.4 25.4 162.5 25 C 162.7 24.8 162.7 24.3 162.7 23.8 C 162.7 23.8 162.7 23.3 162.7 23.3 Z M 165.9 27 L 165.9 19.7 L 167 19.7 C 167 19.7 166.99 20.76 167 20.8 C 167.5 20 168.3 19.6 169.3 19.6 C 169.7 19.6 170.1 19.6 170.5 19.8 C 170.9 20 171.1 20.2 171.3 20.4 C 171.5 20.7 171.6 21 171.7 21.3 C 171.8 21.6 171.8 22 171.8 22.5 C 171.78 22.53 171.8 27 171.8 27 L 170.5 27 C 170.5 27 170.55 22.58 170.5 22.6 C 170.5 22.1 170.5 21.7 170.4 21.5 C 170.3 21.2 170.1 21 169.9 20.9 C 169.7 20.7 169.4 20.6 169 20.6 C 168.5 20.6 168.1 20.8 167.7 21.1 C 167.3 21.5 167.1 22.1 167.1 23 C 167.11 23.03 167.1 27 167.1 27 L 165.9 27 Z M 178.7 27 C 178.5 26.7 178.4 26.4 178.4 26.1 C 177.9 26.5 177.5 26.8 177.1 26.9 C 176.7 27.1 176.2 27.2 175.7 27.2 C 174.9 27.2 174.3 27 173.9 26.6 C 173.5 26.2 173.3 25.7 173.3 25.1 C 173.3 24.7 173.3 24.4 173.5 24.1 C 173.7 23.8 173.9 23.6 174.1 23.4 C 174.4 23.2 174.7 23.1 175 23 C 175.3 22.9 175.6 22.9 176.1 22.8 C 177.1 22.7 177.8 22.5 178.3 22.4 C 178.3 22.2 178.3 22.1 178.3 22.1 C 178.3 21.6 178.2 21.2 178 21 C 177.6 20.7 177.2 20.6 176.6 20.6 C 176 20.6 175.6 20.7 175.3 20.9 C 175 21.1 174.8 21.5 174.7 22 C 174.7 22 173.5 21.8 173.5 21.8 C 173.6 21.3 173.8 20.9 174 20.6 C 174.3 20.2 174.6 20 175.1 19.8 C 175.6 19.7 176.1 19.6 176.7 19.6 C 177.4 19.6 177.9 19.6 178.2 19.8 C 178.6 19.9 178.9 20.1 179.1 20.3 C 179.3 20.6 179.4 20.8 179.5 21.2 C 179.5 21.4 179.5 21.8 179.5 22.3 C 179.5 22.3 179.5 24 179.5 24 C 179.5 25.1 179.6 25.8 179.6 26.1 C 179.7 26.4 179.8 26.7 179.9 27 C 179.94 26.99 178.7 27 178.7 27 C 178.7 27 178.65 26.99 178.7 27 Z M 178.3 23.3 C 177.9 23.5 177.2 23.7 176.3 23.8 C 175.8 23.9 175.4 24 175.2 24.1 C 175 24.2 174.8 24.3 174.7 24.5 C 174.6 24.6 174.6 24.8 174.6 25 C 174.6 25.4 174.7 25.6 174.9 25.9 C 175.2 26.1 175.5 26.2 176 26.2 C 176.5 26.2 176.9 26.1 177.3 25.9 C 177.7 25.7 177.9 25.4 178.1 25 C 178.2 24.8 178.3 24.3 178.3 23.8 C 178.3 23.8 178.3 23.3 178.3 23.3 Z M 181.2 27.6 C 181.2 27.6 182.4 27.8 182.4 27.8 C 182.5 28.1 182.6 28.4 182.8 28.6 C 183.1 28.8 183.6 28.9 184.1 28.9 C 184.7 28.9 185.1 28.8 185.4 28.6 C 185.7 28.4 185.9 28 186 27.6 C 186.1 27.4 186.1 26.8 186.1 26 C 185.6 26.7 184.9 27 184.1 27 C 183.1 27 182.3 26.6 181.8 25.9 C 181.3 25.2 181 24.3 181 23.3 C 181 22.6 181.1 22 181.4 21.4 C 181.6 20.8 182 20.4 182.4 20 C 182.9 19.7 183.5 19.6 184.1 19.6 C 185 19.6 185.7 19.9 186.2 20.6 C 186.25 20.61 186.2 19.7 186.2 19.7 L 187.4 19.7 C 187.4 19.7 187.38 26.01 187.4 26 C 187.4 27.1 187.3 27.9 187 28.4 C 186.8 28.9 186.4 29.3 185.9 29.5 C 185.4 29.8 184.8 29.9 184.1 29.9 C 183.2 29.9 182.5 29.7 182 29.4 C 181.5 29 181.2 28.4 181.2 27.6 Z M 182.2 23.2 C 182.2 24.2 182.4 24.9 182.8 25.3 C 183.2 25.8 183.7 26 184.2 26 C 184.8 26 185.3 25.8 185.7 25.3 C 186 24.9 186.2 24.2 186.2 23.3 C 186.2 22.4 186 21.7 185.6 21.3 C 185.2 20.8 184.8 20.6 184.2 20.6 C 183.7 20.6 183.2 20.8 182.8 21.3 C 182.4 21.7 182.2 22.4 182.2 23.2 Z M 194.2 24.7 C 194.2 24.7 195.5 24.8 195.5 24.8 C 195.3 25.6 194.9 26.1 194.4 26.5 C 193.8 27 193.1 27.2 192.3 27.2 C 191.2 27.2 190.4 26.8 189.8 26.2 C 189.1 25.5 188.8 24.6 188.8 23.4 C 188.8 22.2 189.1 21.3 189.8 20.6 C 190.4 19.9 191.2 19.6 192.2 19.6 C 193.2 19.6 194 19.9 194.6 20.6 C 195.2 21.2 195.5 22.2 195.5 23.3 C 195.5 23.4 195.5 23.5 195.5 23.7 C 195.5 23.7 190.1 23.7 190.1 23.7 C 190.1 24.5 190.4 25.1 190.8 25.5 C 191.2 25.9 191.7 26.1 192.3 26.1 C 192.7 26.1 193.1 26 193.5 25.8 C 193.8 25.6 194 25.2 194.2 24.7 Z M 190.2 22.7 C 190.2 22.7 194.2 22.7 194.2 22.7 C 194.2 22.1 194 21.6 193.8 21.3 C 193.4 20.8 192.9 20.6 192.2 20.6 C 191.7 20.6 191.2 20.8 190.8 21.1 C 190.4 21.5 190.2 22 190.2 22.7 Z M 197 27 L 197 19.7 L 198.1 19.7 C 198.1 19.7 198.13 20.75 198.1 20.8 C 198.4 20.4 198.7 20.1 199 19.9 C 199.4 19.7 199.8 19.6 200.3 19.6 C 200.9 19.6 201.3 19.7 201.6 19.9 C 202 20.1 202.2 20.4 202.4 20.8 C 203 20 203.7 19.6 204.6 19.6 C 205.3 19.6 205.9 19.8 206.3 20.2 C 206.7 20.6 206.9 21.2 206.9 22 C 206.86 22.01 206.9 27 206.9 27 L 205.6 27 C 205.6 27 205.64 22.42 205.6 22.4 C 205.6 21.9 205.6 21.6 205.5 21.4 C 205.4 21.1 205.3 21 205.1 20.8 C 204.9 20.7 204.6 20.6 204.3 20.6 C 203.8 20.6 203.4 20.8 203.1 21.1 C 202.7 21.5 202.6 22 202.6 22.8 C 202.57 22.77 202.6 27 202.6 27 L 201.3 27 C 201.3 27 201.34 22.28 201.3 22.3 C 201.3 21.7 201.2 21.3 201 21 C 200.8 20.8 200.5 20.6 200.1 20.6 C 199.7 20.6 199.4 20.7 199.1 20.9 C 198.8 21.1 198.6 21.4 198.5 21.7 C 198.3 22.1 198.3 22.6 198.3 23.2 C 198.26 23.23 198.3 27 198.3 27 L 197 27 Z M 213.7 24.7 C 213.7 24.7 214.9 24.8 214.9 24.8 C 214.7 25.6 214.4 26.1 213.8 26.5 C 213.3 27 212.6 27.2 211.7 27.2 C 210.7 27.2 209.8 26.8 209.2 26.2 C 208.6 25.5 208.3 24.6 208.3 23.4 C 208.3 22.2 208.6 21.3 209.2 20.6 C 209.8 19.9 210.7 19.6 211.7 19.6 C 212.6 19.6 213.4 19.9 214 20.6 C 214.7 21.2 215 22.2 215 23.3 C 215 23.4 215 23.5 215 23.7 C 215 23.7 209.5 23.7 209.5 23.7 C 209.6 24.5 209.8 25.1 210.2 25.5 C 210.6 25.9 211.1 26.1 211.7 26.1 C 212.2 26.1 212.6 26 212.9 25.8 C 213.2 25.6 213.5 25.2 213.7 24.7 Z M 209.6 22.7 C 209.6 22.7 213.7 22.7 213.7 22.7 C 213.6 22.1 213.5 21.6 213.2 21.3 C 212.8 20.8 212.3 20.6 211.7 20.6 C 211.1 20.6 210.6 20.8 210.3 21.1 C 209.9 21.5 209.7 22 209.6 22.7 Z M 216.5 27 L 216.5 19.7 L 217.6 19.7 C 217.6 19.7 217.58 20.76 217.6 20.8 C 218.1 20 218.9 19.6 219.9 19.6 C 220.3 19.6 220.7 19.6 221.1 19.8 C 221.5 20 221.7 20.2 221.9 20.4 C 222.1 20.7 222.2 21 222.3 21.3 C 222.4 21.6 222.4 22 222.4 22.5 C 222.37 22.53 222.4 27 222.4 27 L 221.1 27 C 221.1 27 221.14 22.58 221.1 22.6 C 221.1 22.1 221.1 21.7 221 21.5 C 220.9 21.2 220.7 21 220.5 20.9 C 220.2 20.7 220 20.6 219.6 20.6 C 219.1 20.6 218.7 20.8 218.3 21.1 C 217.9 21.5 217.7 22.1 217.7 23 C 217.7 23.03 217.7 27 217.7 27 L 216.5 27 Z M 226.4 25.9 C 226.5 25.9 226.7 25.9 226.9 25.9 C 226.9 25.9 227.1 27 227.1 27 C 226.8 27.1 226.5 27.1 226.2 27.1 C 225.7 27.1 225.4 27 225.2 26.9 C 224.9 26.7 224.7 26.5 224.6 26.3 C 224.5 26.1 224.5 25.6 224.5 24.9 C 224.49 24.87 224.5 20.7 224.5 20.7 L 223.6 20.7 L 223.6 19.7 L 224.5 19.7 L 224.5 17.9 L 225.7 17.2 L 225.7 19.7 L 226.9 19.7 L 226.9 20.7 L 225.7 20.7 C 225.7 20.7 225.71 24.93 225.7 24.9 C 225.7 25.3 225.7 25.5 225.8 25.6 C 225.8 25.7 225.9 25.8 226 25.9 C 226.1 25.9 226.2 25.9 226.4 25.9 C 226.4 25.9 226.4 25.9 226.4 25.9 Z " stroke="none" fill="#010102"/>  </g>  <g id="Polygon116709">    <path d="M 1.1 10.2 L 1.1 0.3 L 3.1 0.3 L 3.1 8.5 L 8.1 8.5 L 8.1 10.2 L 1.1 10.2 Z M 15.6 8.4 L 15.6 10.2 C 15.6 10.2 8.9 10.19 8.9 10.2 C 9 9.5 9.2 8.9 9.6 8.3 C 9.9 7.7 10.6 6.9 11.7 5.9 C 12.6 5.1 13.1 4.5 13.3 4.2 C 13.6 3.8 13.7 3.4 13.7 3.1 C 13.7 2.6 13.6 2.3 13.4 2.1 C 13.1 1.8 12.8 1.7 12.4 1.7 C 12 1.7 11.7 1.8 11.5 2.1 C 11.2 2.3 11.1 2.7 11 3.3 C 11 3.3 9.1 3.1 9.1 3.1 C 9.2 2 9.6 1.3 10.2 0.8 C 10.8 0.4 11.6 0.1 12.5 0.1 C 13.4 0.1 14.2 0.4 14.8 0.9 C 15.4 1.5 15.6 2.1 15.6 2.9 C 15.6 3.4 15.6 3.8 15.4 4.2 C 15.2 4.6 15 5 14.6 5.5 C 14.4 5.8 14 6.2 13.4 6.8 C 12.8 7.3 12.4 7.7 12.2 7.9 C 12.1 8.1 11.9 8.2 11.8 8.4 C 11.82 8.41 15.6 8.4 15.6 8.4 Z M 20.6 7.3 C 20.6 7.3 21.8 7.2 21.8 7.2 C 21.9 8 22 8.5 22.3 8.8 C 22.5 9 22.9 9.2 23.3 9.2 C 23.6 9.2 23.9 9.1 24.2 9 C 24.4 8.8 24.6 8.6 24.7 8.3 C 24.8 8.1 24.8 7.6 24.8 7.1 C 24.81 7.08 24.8 0.2 24.8 0.2 L 26.1 0.2 C 26.1 0.2 26.14 7 26.1 7 C 26.1 7.8 26 8.5 25.8 8.9 C 25.6 9.4 25.3 9.8 24.9 10 C 24.4 10.2 23.9 10.4 23.3 10.4 C 22.4 10.4 21.8 10.1 21.3 9.6 C 20.8 9.1 20.6 8.3 20.6 7.3 Z M 32.9 10.2 C 32.9 10.2 32.91 9.13 32.9 9.1 C 32.3 9.9 31.6 10.4 30.6 10.4 C 30.2 10.4 29.8 10.3 29.4 10.1 C 29 9.9 28.8 9.7 28.6 9.5 C 28.4 9.2 28.3 8.9 28.2 8.6 C 28.1 8.3 28.1 8 28.1 7.4 C 28.12 7.43 28.1 2.9 28.1 2.9 L 29.4 2.9 C 29.4 2.9 29.35 6.96 29.4 7 C 29.4 7.6 29.4 8 29.4 8.3 C 29.5 8.6 29.7 8.8 29.9 9 C 30.2 9.2 30.5 9.3 30.9 9.3 C 31.2 9.3 31.6 9.2 31.9 9 C 32.2 8.8 32.4 8.6 32.6 8.2 C 32.7 7.9 32.8 7.4 32.8 6.8 C 32.78 6.82 32.8 2.9 32.8 2.9 L 34 2.9 L 34 10.2 L 32.9 10.2 Z M 35.9 10.2 L 35.9 2.9 L 37 2.9 C 37 2.9 37.04 3.96 37 4 C 37.6 3.2 38.3 2.8 39.4 2.8 C 39.8 2.8 40.2 2.8 40.6 3 C 40.9 3.2 41.2 3.4 41.4 3.6 C 41.6 3.9 41.7 4.2 41.8 4.5 C 41.8 4.8 41.8 5.2 41.8 5.7 C 41.84 5.73 41.8 10.2 41.8 10.2 L 40.6 10.2 C 40.6 10.2 40.61 5.78 40.6 5.8 C 40.6 5.3 40.6 4.9 40.5 4.7 C 40.4 4.4 40.2 4.2 40 4.1 C 39.7 3.9 39.4 3.8 39.1 3.8 C 38.6 3.8 38.1 4 37.7 4.3 C 37.4 4.7 37.2 5.3 37.2 6.2 C 37.17 6.23 37.2 10.2 37.2 10.2 L 35.9 10.2 Z M 43.7 1.6 L 43.7 0.2 L 45 0.2 L 45 1.6 L 43.7 1.6 Z M 43.7 10.2 L 43.7 2.9 L 45 2.9 L 45 10.2 L 43.7 10.2 Z M 46.4 6.6 C 46.4 5.2 46.7 4.2 47.5 3.6 C 48.1 3 48.9 2.8 49.8 2.8 C 50.8 2.8 51.6 3.1 52.2 3.7 C 52.9 4.4 53.2 5.3 53.2 6.5 C 53.2 7.4 53 8.1 52.8 8.7 C 52.5 9.2 52.1 9.6 51.5 9.9 C 51 10.2 50.4 10.4 49.8 10.4 C 48.8 10.4 47.9 10 47.3 9.4 C 46.7 8.7 46.4 7.8 46.4 6.6 Z M 47.6 6.6 C 47.6 7.5 47.8 8.2 48.2 8.7 C 48.7 9.1 49.2 9.3 49.8 9.3 C 50.4 9.3 50.9 9.1 51.3 8.6 C 51.7 8.2 51.9 7.5 51.9 6.5 C 51.9 5.6 51.7 4.9 51.3 4.5 C 50.9 4 50.4 3.8 49.8 3.8 C 49.2 3.8 48.7 4 48.2 4.5 C 47.8 4.9 47.6 5.6 47.6 6.6 Z M 54.6 10.2 L 54.6 2.9 L 55.7 2.9 C 55.7 2.9 55.71 4.03 55.7 4 C 56 3.5 56.3 3.2 56.5 3 C 56.7 2.9 57 2.8 57.3 2.8 C 57.7 2.8 58.1 2.9 58.5 3.2 C 58.5 3.2 58.1 4.3 58.1 4.3 C 57.8 4.1 57.5 4 57.2 4 C 57 4 56.7 4.1 56.5 4.3 C 56.3 4.4 56.1 4.7 56 5 C 55.9 5.4 55.8 5.9 55.8 6.4 C 55.84 6.39 55.8 10.2 55.8 10.2 L 54.6 10.2 Z M 63.4 10.2 L 63.4 0.2 L 70.6 0.2 L 70.6 1.4 L 64.7 1.4 L 64.7 4.4 L 70.2 4.4 L 70.2 5.6 L 64.7 5.6 L 64.7 9 L 70.8 9 L 70.8 10.2 L 63.4 10.2 Z M 72 8 C 72 8 73.2 7.8 73.2 7.8 C 73.3 8.3 73.5 8.7 73.8 9 C 74.1 9.2 74.6 9.3 75.1 9.3 C 75.7 9.3 76.1 9.2 76.4 9 C 76.6 8.8 76.8 8.5 76.8 8.2 C 76.8 7.9 76.7 7.7 76.4 7.5 C 76.3 7.4 75.8 7.3 75.2 7.1 C 74.3 6.9 73.6 6.7 73.3 6.5 C 72.9 6.4 72.7 6.1 72.5 5.8 C 72.3 5.5 72.2 5.2 72.2 4.9 C 72.2 4.5 72.3 4.2 72.4 4 C 72.6 3.7 72.8 3.5 73 3.3 C 73.2 3.1 73.5 3 73.8 2.9 C 74.2 2.8 74.5 2.8 74.9 2.8 C 75.5 2.8 76 2.9 76.4 3 C 76.8 3.2 77.1 3.4 77.3 3.7 C 77.6 4 77.7 4.3 77.8 4.8 C 77.8 4.8 76.6 5 76.6 5 C 76.5 4.6 76.4 4.3 76.1 4.1 C 75.8 3.9 75.5 3.8 75 3.8 C 74.4 3.8 74 3.9 73.8 4.1 C 73.5 4.2 73.4 4.5 73.4 4.7 C 73.4 4.9 73.5 5 73.6 5.1 C 73.7 5.3 73.8 5.4 74 5.5 C 74.2 5.5 74.5 5.6 75.1 5.8 C 76 6 76.6 6.2 76.9 6.4 C 77.3 6.5 77.6 6.7 77.8 7 C 77.9 7.3 78 7.6 78 8.1 C 78 8.5 77.9 8.9 77.7 9.2 C 77.4 9.6 77.1 9.9 76.7 10.1 C 76.2 10.3 75.7 10.4 75.1 10.4 C 74.2 10.4 73.5 10.2 73 9.8 C 72.5 9.4 72.2 8.8 72 8 Z M 81.7 9.1 C 81.8 9.1 82 9.1 82.2 9.1 C 82.2 9.1 82.4 10.2 82.4 10.2 C 82 10.3 81.7 10.3 81.4 10.3 C 81 10.3 80.7 10.2 80.4 10.1 C 80.2 9.9 80 9.7 79.9 9.5 C 79.8 9.3 79.7 8.8 79.7 8.1 C 79.73 8.07 79.7 3.9 79.7 3.9 L 78.8 3.9 L 78.8 2.9 L 79.7 2.9 L 79.7 1.1 L 81 0.4 L 81 2.9 L 82.2 2.9 L 82.2 3.9 L 81 3.9 C 81 3.9 80.96 8.13 81 8.1 C 81 8.5 81 8.7 81 8.8 C 81.1 8.9 81.1 9 81.2 9.1 C 81.3 9.1 81.5 9.1 81.7 9.1 C 81.7 9.1 81.7 9.1 81.7 9.1 Z M 88.4 10.2 C 88.3 9.9 88.2 9.6 88.1 9.3 C 87.7 9.7 87.2 10 86.8 10.1 C 86.4 10.3 85.9 10.4 85.5 10.4 C 84.7 10.4 84.1 10.2 83.6 9.8 C 83.2 9.4 83 8.9 83 8.3 C 83 7.9 83.1 7.6 83.2 7.3 C 83.4 7 83.6 6.8 83.9 6.6 C 84.1 6.4 84.4 6.3 84.7 6.2 C 85 6.1 85.4 6.1 85.8 6 C 86.8 5.9 87.6 5.7 88 5.6 C 88 5.4 88 5.3 88 5.3 C 88 4.8 87.9 4.4 87.7 4.2 C 87.4 3.9 86.9 3.8 86.3 3.8 C 85.7 3.8 85.3 3.9 85 4.1 C 84.7 4.3 84.5 4.7 84.4 5.2 C 84.4 5.2 83.2 5 83.2 5 C 83.3 4.5 83.5 4.1 83.7 3.8 C 84 3.4 84.3 3.2 84.8 3 C 85.3 2.9 85.8 2.8 86.5 2.8 C 87.1 2.8 87.6 2.8 88 3 C 88.4 3.1 88.7 3.3 88.8 3.5 C 89 3.8 89.1 4 89.2 4.4 C 89.3 4.6 89.3 5 89.3 5.5 C 89.3 5.5 89.3 7.2 89.3 7.2 C 89.3 8.3 89.3 9 89.4 9.3 C 89.4 9.6 89.5 9.9 89.7 10.2 C 89.67 10.19 88.4 10.2 88.4 10.2 C 88.4 10.2 88.38 10.19 88.4 10.2 Z M 88 6.5 C 87.6 6.7 86.9 6.9 86 7 C 85.5 7.1 85.2 7.2 85 7.3 C 84.7 7.4 84.6 7.5 84.5 7.7 C 84.4 7.8 84.3 8 84.3 8.2 C 84.3 8.6 84.4 8.8 84.7 9.1 C 84.9 9.3 85.3 9.4 85.8 9.4 C 86.2 9.4 86.7 9.3 87 9.1 C 87.4 8.9 87.7 8.6 87.8 8.2 C 88 8 88 7.5 88 7 C 88 7 88 6.5 88 6.5 Z M 93.3 9.1 C 93.5 9.1 93.6 9.1 93.9 9.1 C 93.9 9.1 94 10.2 94 10.2 C 93.7 10.3 93.4 10.3 93.1 10.3 C 92.7 10.3 92.3 10.2 92.1 10.1 C 91.8 9.9 91.7 9.7 91.6 9.5 C 91.5 9.3 91.4 8.8 91.4 8.1 C 91.41 8.07 91.4 3.9 91.4 3.9 L 90.5 3.9 L 90.5 2.9 L 91.4 2.9 L 91.4 1.1 L 92.6 0.4 L 92.6 2.9 L 93.9 2.9 L 93.9 3.9 L 92.6 3.9 C 92.6 3.9 92.63 8.13 92.6 8.1 C 92.6 8.5 92.7 8.7 92.7 8.8 C 92.7 8.9 92.8 9 92.9 9.1 C 93 9.1 93.1 9.1 93.3 9.1 C 93.3 9.1 93.3 9.1 93.3 9.1 Z M 100 7.9 C 100 7.9 101.3 8 101.3 8 C 101.1 8.8 100.7 9.3 100.2 9.7 C 99.7 10.2 99 10.4 98.1 10.4 C 97.1 10.4 96.2 10 95.6 9.4 C 95 8.7 94.7 7.8 94.7 6.6 C 94.7 5.4 95 4.5 95.6 3.8 C 96.2 3.1 97.1 2.8 98.1 2.8 C 99 2.8 99.8 3.1 100.4 3.8 C 101 4.4 101.4 5.4 101.4 6.5 C 101.4 6.6 101.4 6.7 101.3 6.9 C 101.3 6.9 95.9 6.9 95.9 6.9 C 96 7.7 96.2 8.3 96.6 8.7 C 97 9.1 97.5 9.3 98.1 9.3 C 98.6 9.3 99 9.2 99.3 9 C 99.6 8.8 99.9 8.4 100 7.9 Z M 96 5.9 C 96 5.9 100.1 5.9 100.1 5.9 C 100 5.3 99.8 4.8 99.6 4.5 C 99.2 4 98.7 3.8 98.1 3.8 C 97.5 3.8 97 4 96.6 4.3 C 96.3 4.7 96 5.2 96 5.9 Z M 105 10.2 L 108.9 0.2 L 110.3 0.2 L 114.4 10.2 L 112.9 10.2 L 111.7 7.2 L 107.5 7.2 L 106.4 10.2 L 105 10.2 Z M 107.9 6.1 L 111.3 6.1 C 111.3 6.1 110.28 3.3 110.3 3.3 C 110 2.5 109.7 1.8 109.6 1.2 C 109.4 1.9 109.3 2.5 109 3.1 C 109.03 3.14 107.9 6.1 107.9 6.1 Z M 115.1 10.8 C 115.1 10.8 116.3 11 116.3 11 C 116.3 11.3 116.5 11.6 116.7 11.8 C 117 12 117.4 12.1 118 12.1 C 118.5 12.1 119 12 119.3 11.8 C 119.6 11.6 119.8 11.2 119.9 10.8 C 120 10.6 120 10 120 9.2 C 119.5 9.9 118.8 10.2 118 10.2 C 117 10.2 116.2 9.8 115.7 9.1 C 115.1 8.4 114.8 7.5 114.8 6.5 C 114.8 5.8 115 5.2 115.2 4.6 C 115.5 4 115.8 3.6 116.3 3.2 C 116.8 2.9 117.3 2.8 118 2.8 C 118.8 2.8 119.6 3.1 120.1 3.8 C 120.11 3.81 120.1 2.9 120.1 2.9 L 121.2 2.9 C 121.2 2.9 121.24 9.21 121.2 9.2 C 121.2 10.3 121.1 11.1 120.9 11.6 C 120.7 12.1 120.3 12.5 119.8 12.7 C 119.3 13 118.7 13.1 118 13.1 C 117.1 13.1 116.4 12.9 115.9 12.6 C 115.3 12.2 115.1 11.6 115.1 10.8 Z M 116.1 6.4 C 116.1 7.4 116.3 8.1 116.7 8.5 C 117.1 9 117.5 9.2 118.1 9.2 C 118.7 9.2 119.1 9 119.5 8.5 C 119.9 8.1 120.1 7.4 120.1 6.5 C 120.1 5.6 119.9 4.9 119.5 4.5 C 119.1 4 118.6 3.8 118.1 3.8 C 117.5 3.8 117.1 4 116.7 4.5 C 116.3 4.9 116.1 5.6 116.1 6.4 Z M 128.1 7.9 C 128.1 7.9 129.3 8 129.3 8 C 129.1 8.8 128.8 9.3 128.2 9.7 C 127.7 10.2 127 10.4 126.2 10.4 C 125.1 10.4 124.2 10 123.6 9.4 C 123 8.7 122.7 7.8 122.7 6.6 C 122.7 5.4 123 4.5 123.6 3.8 C 124.3 3.1 125.1 2.8 126.1 2.8 C 127.1 2.8 127.8 3.1 128.5 3.8 C 129.1 4.4 129.4 5.4 129.4 6.5 C 129.4 6.6 129.4 6.7 129.4 6.9 C 129.4 6.9 124 6.9 124 6.9 C 124 7.7 124.2 8.3 124.6 8.7 C 125 9.1 125.6 9.3 126.2 9.3 C 126.6 9.3 127 9.2 127.3 9 C 127.6 8.8 127.9 8.4 128.1 7.9 Z M 124 5.9 C 124 5.9 128.1 5.9 128.1 5.9 C 128 5.3 127.9 4.8 127.6 4.5 C 127.2 4 126.7 3.8 126.1 3.8 C 125.5 3.8 125.1 4 124.7 4.3 C 124.3 4.7 124.1 5.2 124 5.9 Z M 130.9 10.2 L 130.9 2.9 L 132 2.9 C 132 2.9 132 3.96 132 4 C 132.5 3.2 133.3 2.8 134.3 2.8 C 134.7 2.8 135.1 2.8 135.5 3 C 135.9 3.2 136.2 3.4 136.3 3.6 C 136.5 3.9 136.6 4.2 136.7 4.5 C 136.8 4.8 136.8 5.2 136.8 5.7 C 136.79 5.73 136.8 10.2 136.8 10.2 L 135.6 10.2 C 135.6 10.2 135.56 5.78 135.6 5.8 C 135.6 5.3 135.5 4.9 135.4 4.7 C 135.3 4.4 135.1 4.2 134.9 4.1 C 134.7 3.9 134.4 3.8 134 3.8 C 133.5 3.8 133.1 4 132.7 4.3 C 132.3 4.7 132.1 5.3 132.1 6.2 C 132.12 6.23 132.1 10.2 132.1 10.2 L 130.9 10.2 Z M 140.8 9.1 C 141 9.1 141.1 9.1 141.4 9.1 C 141.4 9.1 141.5 10.2 141.5 10.2 C 141.2 10.3 140.9 10.3 140.6 10.3 C 140.2 10.3 139.8 10.2 139.6 10.1 C 139.3 9.9 139.1 9.7 139 9.5 C 138.9 9.3 138.9 8.8 138.9 8.1 C 138.9 8.07 138.9 3.9 138.9 3.9 L 138 3.9 L 138 2.9 L 138.9 2.9 L 138.9 1.1 L 140.1 0.4 L 140.1 2.9 L 141.4 2.9 L 141.4 3.9 L 140.1 3.9 C 140.1 3.9 140.12 8.13 140.1 8.1 C 140.1 8.5 140.1 8.7 140.2 8.8 C 140.2 8.9 140.3 9 140.4 9.1 C 140.5 9.1 140.6 9.1 140.8 9.1 C 140.8 9.1 140.8 9.1 140.8 9.1 Z " stroke="none" fill="#010102"/>  </g></svg>