<?xml version="1.0" standalone="no"?><!DOCTYPE svg PUBLIC "-//W3C//DTD SVG 1.1//EN" "http://www.w3.org/Graphics/SVG/1.1/DTD/svg11.dtd"><svg xmlns="http://www.w3.org/2000/svg" version="1.1" width="183.1px" height="23.9px" viewBox="0 -5 183.1 23.9" style="top:-5px">  <desc>awarding@dswlearning.co.uk</desc>  <defs/>  <g id="Polygon108306">    <path d="M 5.9 10.2 C 5.8 9.9 5.7 9.6 5.7 9.3 C 5.2 9.7 4.8 10 4.3 10.1 C 3.9 10.3 3.5 10.4 3 10.4 C 2.2 10.4 1.6 10.2 1.1 9.8 C 0.7 9.4 0.5 8.9 0.5 8.3 C 0.5 7.9 0.6 7.6 0.7 7.3 C 0.9 7 1.1 6.8 1.4 6.6 C 1.6 6.4 1.9 6.3 2.3 6.2 C 2.5 6.1 2.9 6.1 3.4 6 C 4.4 5.9 5.1 5.7 5.6 5.6 C 5.6 5.4 5.6 5.3 5.6 5.3 C 5.6 4.8 5.4 4.4 5.2 4.2 C 4.9 3.9 4.4 3.8 3.8 3.8 C 3.2 3.8 2.8 3.9 2.5 4.1 C 2.3 4.3 2.1 4.7 1.9 5.2 C 1.9 5.2 0.7 5 0.7 5 C 0.8 4.5 1 4.1 1.3 3.8 C 1.5 3.4 1.9 3.2 2.3 3 C 2.8 2.9 3.4 2.8 4 2.8 C 4.6 2.8 5.1 2.8 5.5 3 C 5.9 3.1 6.2 3.3 6.4 3.5 C 6.5 3.8 6.7 4 6.7 4.4 C 6.8 4.6 6.8 5 6.8 5.5 C 6.8 5.5 6.8 7.2 6.8 7.2 C 6.8 8.3 6.8 9 6.9 9.3 C 6.9 9.6 7 9.9 7.2 10.2 C 7.19 10.19 5.9 10.2 5.9 10.2 C 5.9 10.2 5.91 10.19 5.9 10.2 Z M 5.6 6.5 C 5.1 6.7 4.4 6.9 3.5 7 C 3 7.1 2.7 7.2 2.5 7.3 C 2.3 7.4 2.1 7.5 2 7.7 C 1.9 7.8 1.8 8 1.8 8.2 C 1.8 8.6 1.9 8.8 2.2 9.1 C 2.4 9.3 2.8 9.4 3.3 9.4 C 3.8 9.4 4.2 9.3 4.5 9.1 C 4.9 8.9 5.2 8.6 5.4 8.2 C 5.5 8 5.6 7.5 5.6 7 C 5.6 7 5.6 6.5 5.6 6.5 Z M 10 10.2 L 7.8 2.9 L 9.1 2.9 L 10.3 7.1 C 10.3 7.1 10.68 8.68 10.7 8.7 C 10.7 8.6 10.8 8.1 11.1 7.2 C 11.06 7.18 12.2 2.9 12.2 2.9 L 13.5 2.9 L 14.6 7.1 L 14.9 8.5 L 15.3 7.1 L 16.6 2.9 L 17.8 2.9 L 15.5 10.2 L 14.2 10.2 L 13.1 5.8 L 12.8 4.6 L 11.3 10.2 L 10 10.2 Z M 23.8 10.2 C 23.7 9.9 23.6 9.6 23.6 9.3 C 23.1 9.7 22.7 10 22.2 10.1 C 21.8 10.3 21.4 10.4 20.9 10.4 C 20.1 10.4 19.5 10.2 19 9.8 C 18.6 9.4 18.4 8.9 18.4 8.3 C 18.4 7.9 18.5 7.6 18.6 7.3 C 18.8 7 19 6.8 19.3 6.6 C 19.5 6.4 19.8 6.3 20.2 6.2 C 20.4 6.1 20.8 6.1 21.3 6 C 22.3 5.9 23 5.7 23.5 5.6 C 23.5 5.4 23.5 5.3 23.5 5.3 C 23.5 4.8 23.3 4.4 23.1 4.2 C 22.8 3.9 22.3 3.8 21.7 3.8 C 21.1 3.8 20.7 3.9 20.4 4.1 C 20.2 4.3 19.9 4.7 19.8 5.2 C 19.8 5.2 18.6 5 18.6 5 C 18.7 4.5 18.9 4.1 19.2 3.8 C 19.4 3.4 19.8 3.2 20.2 3 C 20.7 2.9 21.3 2.8 21.9 2.8 C 22.5 2.8 23 2.8 23.4 3 C 23.8 3.1 24.1 3.3 24.3 3.5 C 24.4 3.8 24.6 4 24.6 4.4 C 24.7 4.6 24.7 5 24.7 5.5 C 24.7 5.5 24.7 7.2 24.7 7.2 C 24.7 8.3 24.7 9 24.8 9.3 C 24.8 9.6 24.9 9.9 25.1 10.2 C 25.09 10.19 23.8 10.2 23.8 10.2 C 23.8 10.2 23.8 10.19 23.8 10.2 Z M 23.5 6.5 C 23 6.7 22.3 6.9 21.4 7 C 20.9 7.1 20.6 7.2 20.4 7.3 C 20.2 7.4 20 7.5 19.9 7.7 C 19.8 7.8 19.7 8 19.7 8.2 C 19.7 8.6 19.8 8.8 20.1 9.1 C 20.3 9.3 20.7 9.4 21.2 9.4 C 21.7 9.4 22.1 9.3 22.4 9.1 C 22.8 8.9 23.1 8.6 23.3 8.2 C 23.4 8 23.5 7.5 23.5 7 C 23.5 7 23.5 6.5 23.5 6.5 Z M 26.6 10.2 L 26.6 2.9 L 27.7 2.9 C 27.7 2.9 27.7 4.03 27.7 4 C 28 3.5 28.2 3.2 28.5 3 C 28.7 2.9 29 2.8 29.3 2.8 C 29.7 2.8 30.1 2.9 30.5 3.2 C 30.5 3.2 30.1 4.3 30.1 4.3 C 29.8 4.1 29.5 4 29.2 4 C 28.9 4 28.7 4.1 28.5 4.3 C 28.3 4.4 28.1 4.7 28 5 C 27.9 5.4 27.8 5.9 27.8 6.4 C 27.82 6.39 27.8 10.2 27.8 10.2 L 26.6 10.2 Z M 36 10.2 C 36 10.2 35.98 9.28 36 9.3 C 35.5 10 34.8 10.4 33.9 10.4 C 33.4 10.4 32.8 10.2 32.4 9.9 C 31.9 9.6 31.5 9.1 31.2 8.5 C 31 8 30.8 7.3 30.8 6.6 C 30.8 5.8 30.9 5.2 31.2 4.6 C 31.4 4 31.8 3.6 32.3 3.2 C 32.8 2.9 33.3 2.8 33.9 2.8 C 34.3 2.8 34.7 2.9 35.1 3 C 35.4 3.2 35.7 3.5 35.9 3.8 C 35.9 3.77 35.9 0.2 35.9 0.2 L 37.1 0.2 L 37.1 10.2 L 36 10.2 Z M 32.1 6.6 C 32.1 7.5 32.3 8.2 32.7 8.7 C 33.1 9.1 33.5 9.3 34.1 9.3 C 34.6 9.3 35.1 9.1 35.4 8.7 C 35.8 8.2 36 7.6 36 6.7 C 36 5.7 35.8 4.9 35.4 4.5 C 35 4 34.6 3.8 34 3.8 C 33.5 3.8 33 4 32.6 4.5 C 32.3 4.9 32.1 5.6 32.1 6.6 Z M 39.1 1.6 L 39.1 0.2 L 40.3 0.2 L 40.3 1.6 L 39.1 1.6 Z M 39.1 10.2 L 39.1 2.9 L 40.3 2.9 L 40.3 10.2 L 39.1 10.2 Z M 42.2 10.2 L 42.2 2.9 L 43.3 2.9 C 43.3 2.9 43.27 3.96 43.3 4 C 43.8 3.2 44.6 2.8 45.6 2.8 C 46 2.8 46.4 2.8 46.8 3 C 47.2 3.2 47.4 3.4 47.6 3.6 C 47.8 3.9 47.9 4.2 48 4.5 C 48 4.8 48.1 5.2 48.1 5.7 C 48.06 5.73 48.1 10.2 48.1 10.2 L 46.8 10.2 C 46.8 10.2 46.83 5.78 46.8 5.8 C 46.8 5.3 46.8 4.9 46.7 4.7 C 46.6 4.4 46.4 4.2 46.2 4.1 C 45.9 3.9 45.7 3.8 45.3 3.8 C 44.8 3.8 44.3 4 44 4.3 C 43.6 4.7 43.4 5.3 43.4 6.2 C 43.39 6.23 43.4 10.2 43.4 10.2 L 42.2 10.2 Z M 49.7 10.8 C 49.7 10.8 50.9 11 50.9 11 C 51 11.3 51.1 11.6 51.3 11.8 C 51.6 12 52.1 12.1 52.6 12.1 C 53.2 12.1 53.6 12 53.9 11.8 C 54.2 11.6 54.4 11.2 54.5 10.8 C 54.6 10.6 54.6 10 54.6 9.2 C 54.1 9.9 53.4 10.2 52.6 10.2 C 51.6 10.2 50.8 9.8 50.3 9.1 C 49.8 8.4 49.5 7.5 49.5 6.5 C 49.5 5.8 49.6 5.2 49.9 4.6 C 50.1 4 50.5 3.6 50.9 3.2 C 51.4 2.9 52 2.8 52.6 2.8 C 53.5 2.8 54.2 3.1 54.7 3.8 C 54.74 3.81 54.7 2.9 54.7 2.9 L 55.9 2.9 C 55.9 2.9 55.88 9.21 55.9 9.2 C 55.9 10.3 55.8 11.1 55.5 11.6 C 55.3 12.1 54.9 12.5 54.4 12.7 C 53.9 13 53.3 13.1 52.6 13.1 C 51.7 13.1 51 12.9 50.5 12.6 C 50 12.2 49.7 11.6 49.7 10.8 Z M 50.7 6.4 C 50.7 7.4 50.9 8.1 51.3 8.5 C 51.7 9 52.2 9.2 52.7 9.2 C 53.3 9.2 53.8 9 54.2 8.5 C 54.5 8.1 54.7 7.4 54.7 6.5 C 54.7 5.6 54.5 4.9 54.1 4.5 C 53.7 4 53.3 3.8 52.7 3.8 C 52.2 3.8 51.7 4 51.3 4.5 C 50.9 4.9 50.7 5.6 50.7 6.4 Z M 64.9 9.7 C 64.8 9.6 64.8 9.4 64.7 9.1 C 64.5 9.4 64.1 9.7 63.8 9.9 C 63.4 10.1 63 10.2 62.7 10.2 C 62.2 10.2 61.9 10.1 61.5 9.9 C 61.1 9.6 60.8 9.3 60.5 8.8 C 60.3 8.3 60.2 7.7 60.2 7.1 C 60.2 6.4 60.4 5.7 60.7 5 C 61.1 4.2 61.6 3.7 62.1 3.3 C 62.7 3 63.2 2.8 63.7 2.8 C 64.1 2.8 64.5 2.9 64.9 3.1 C 65.2 3.3 65.5 3.6 65.8 4 C 65.79 4.04 66 3 66 3 L 67.2 3 C 67.2 3 66.26 7.57 66.3 7.6 C 66.1 8.2 66.1 8.6 66.1 8.6 C 66.1 8.8 66.1 8.9 66.2 8.9 C 66.3 9 66.4 9.1 66.5 9.1 C 66.8 9.1 67.1 8.9 67.5 8.7 C 68 8.3 68.4 7.8 68.7 7.2 C 69 6.6 69.2 5.9 69.2 5.3 C 69.2 4.5 69 3.8 68.6 3.2 C 68.2 2.5 67.6 2 66.8 1.6 C 66.1 1.2 65.2 1 64.3 1 C 63.2 1 62.2 1.2 61.4 1.7 C 60.5 2.2 59.8 2.9 59.3 3.9 C 58.8 4.8 58.6 5.8 58.6 6.9 C 58.6 8 58.8 9 59.3 9.8 C 59.8 10.6 60.5 11.2 61.4 11.5 C 62.3 11.9 63.4 12.1 64.5 12.1 C 65.7 12.1 66.7 11.9 67.5 11.5 C 68.3 11.1 68.9 10.6 69.3 10.1 C 69.3 10.1 70.5 10.1 70.5 10.1 C 70.3 10.5 69.9 11 69.3 11.5 C 68.8 12 68.1 12.4 67.3 12.7 C 66.5 13 65.6 13.1 64.5 13.1 C 63.5 13.1 62.5 13 61.7 12.7 C 60.8 12.5 60.1 12.1 59.5 11.6 C 58.9 11.1 58.5 10.5 58.1 9.8 C 57.8 8.9 57.6 8 57.6 7 C 57.6 5.9 57.8 4.8 58.3 3.8 C 58.8 2.6 59.6 1.6 60.6 1 C 61.6 0.3 62.9 0 64.3 0 C 65.5 0 66.5 0.2 67.4 0.7 C 68.3 1.1 69 1.8 69.5 2.7 C 70 3.5 70.2 4.4 70.2 5.3 C 70.2 6.6 69.7 7.8 68.8 8.8 C 68 9.8 67.1 10.2 66.1 10.2 C 65.8 10.2 65.5 10.2 65.3 10.1 C 65.1 10 65 9.8 64.9 9.7 C 64.9 9.7 64.9 9.7 64.9 9.7 Z M 61.4 7.2 C 61.4 7.9 61.6 8.3 61.9 8.7 C 62.2 9 62.5 9.2 62.9 9.2 C 63.2 9.2 63.4 9.1 63.7 9 C 64 8.8 64.3 8.6 64.5 8.3 C 64.8 8 65 7.6 65.2 7.1 C 65.3 6.7 65.4 6.2 65.4 5.8 C 65.4 5.1 65.2 4.7 64.9 4.3 C 64.6 4 64.3 3.8 63.8 3.8 C 63.5 3.8 63.2 3.9 63 4 C 62.7 4.2 62.5 4.4 62.2 4.7 C 62 5.1 61.8 5.5 61.7 5.9 C 61.5 6.4 61.4 6.8 61.4 7.2 Z M 76.7 10.2 C 76.7 10.2 76.66 9.28 76.7 9.3 C 76.2 10 75.5 10.4 74.6 10.4 C 74 10.4 73.5 10.2 73 9.9 C 72.5 9.6 72.2 9.1 71.9 8.5 C 71.6 8 71.5 7.3 71.5 6.6 C 71.5 5.8 71.6 5.2 71.9 4.6 C 72.1 4 72.5 3.6 73 3.2 C 73.4 2.9 74 2.8 74.6 2.8 C 75 2.8 75.4 2.9 75.7 3 C 76.1 3.2 76.4 3.5 76.6 3.8 C 76.58 3.77 76.6 0.2 76.6 0.2 L 77.8 0.2 L 77.8 10.2 L 76.7 10.2 Z M 72.8 6.6 C 72.8 7.5 73 8.2 73.4 8.7 C 73.7 9.1 74.2 9.3 74.7 9.3 C 75.3 9.3 75.7 9.1 76.1 8.7 C 76.5 8.2 76.7 7.6 76.7 6.7 C 76.7 5.7 76.5 4.9 76.1 4.5 C 75.7 4 75.2 3.8 74.7 3.8 C 74.1 3.8 73.7 4 73.3 4.5 C 73 4.9 72.8 5.6 72.8 6.6 Z M 79.2 8 C 79.2 8 80.5 7.8 80.5 7.8 C 80.5 8.3 80.7 8.7 81 9 C 81.3 9.2 81.8 9.3 82.3 9.3 C 82.9 9.3 83.3 9.2 83.6 9 C 83.9 8.8 84 8.5 84 8.2 C 84 7.9 83.9 7.7 83.6 7.5 C 83.5 7.4 83.1 7.3 82.4 7.1 C 81.5 6.9 80.9 6.7 80.5 6.5 C 80.2 6.4 79.9 6.1 79.7 5.8 C 79.5 5.5 79.4 5.2 79.4 4.9 C 79.4 4.5 79.5 4.2 79.7 4 C 79.8 3.7 80 3.5 80.3 3.3 C 80.5 3.1 80.7 3 81.1 2.9 C 81.4 2.8 81.7 2.8 82.1 2.8 C 82.7 2.8 83.2 2.9 83.6 3 C 84.1 3.2 84.4 3.4 84.6 3.7 C 84.8 4 84.9 4.3 85 4.8 C 85 4.8 83.8 5 83.8 5 C 83.7 4.6 83.6 4.3 83.3 4.1 C 83.1 3.9 82.7 3.8 82.2 3.8 C 81.6 3.8 81.2 3.9 81 4.1 C 80.8 4.2 80.6 4.5 80.6 4.7 C 80.6 4.9 80.7 5 80.8 5.1 C 80.9 5.3 81 5.4 81.3 5.5 C 81.4 5.5 81.7 5.6 82.3 5.8 C 83.2 6 83.8 6.2 84.2 6.4 C 84.5 6.5 84.8 6.7 85 7 C 85.2 7.3 85.3 7.6 85.3 8.1 C 85.3 8.5 85.2 8.9 84.9 9.2 C 84.7 9.6 84.3 9.9 83.9 10.1 C 83.4 10.3 82.9 10.4 82.3 10.4 C 81.4 10.4 80.7 10.2 80.2 9.8 C 79.7 9.4 79.4 8.8 79.2 8 Z M 88.1 10.2 L 85.9 2.9 L 87.1 2.9 L 88.3 7.1 C 88.3 7.1 88.71 8.68 88.7 8.7 C 88.7 8.6 88.9 8.1 89.1 7.2 C 89.09 7.18 90.2 2.9 90.2 2.9 L 91.5 2.9 L 92.6 7.1 L 93 8.5 L 93.4 7.1 L 94.6 2.9 L 95.8 2.9 L 93.5 10.2 L 92.3 10.2 L 91.1 5.8 L 90.8 4.6 L 89.4 10.2 L 88.1 10.2 Z M 96.8 10.2 L 96.8 0.2 L 98 0.2 L 98 10.2 L 96.8 10.2 Z M 104.9 7.9 C 104.9 7.9 106.2 8 106.2 8 C 106 8.8 105.6 9.3 105.1 9.7 C 104.5 10.2 103.8 10.4 103 10.4 C 101.9 10.4 101.1 10 100.5 9.4 C 99.9 8.7 99.5 7.8 99.5 6.6 C 99.5 5.4 99.9 4.5 100.5 3.8 C 101.1 3.1 101.9 2.8 102.9 2.8 C 103.9 2.8 104.7 3.1 105.3 3.8 C 105.9 4.4 106.2 5.4 106.2 6.5 C 106.2 6.6 106.2 6.7 106.2 6.9 C 106.2 6.9 100.8 6.9 100.8 6.9 C 100.9 7.7 101.1 8.3 101.5 8.7 C 101.9 9.1 102.4 9.3 103 9.3 C 103.5 9.3 103.8 9.2 104.2 9 C 104.5 8.8 104.7 8.4 104.9 7.9 Z M 100.9 5.9 C 100.9 5.9 104.9 5.9 104.9 5.9 C 104.9 5.3 104.7 4.8 104.5 4.5 C 104.1 4 103.6 3.8 102.9 3.8 C 102.4 3.8 101.9 4 101.5 4.3 C 101.1 4.7 100.9 5.2 100.9 5.9 Z M 112.7 10.2 C 112.6 9.9 112.5 9.6 112.5 9.3 C 112 9.7 111.6 10 111.2 10.1 C 110.7 10.3 110.3 10.4 109.8 10.4 C 109 10.4 108.4 10.2 108 9.8 C 107.5 9.4 107.3 8.9 107.3 8.3 C 107.3 7.9 107.4 7.6 107.6 7.3 C 107.7 7 107.9 6.8 108.2 6.6 C 108.5 6.4 108.8 6.3 109.1 6.2 C 109.3 6.1 109.7 6.1 110.2 6 C 111.2 5.9 111.9 5.7 112.4 5.6 C 112.4 5.4 112.4 5.3 112.4 5.3 C 112.4 4.8 112.3 4.4 112 4.2 C 111.7 3.9 111.3 3.8 110.6 3.8 C 110.1 3.8 109.6 3.9 109.4 4.1 C 109.1 4.3 108.9 4.7 108.7 5.2 C 108.7 5.2 107.5 5 107.5 5 C 107.6 4.5 107.8 4.1 108.1 3.8 C 108.3 3.4 108.7 3.2 109.2 3 C 109.6 2.9 110.2 2.8 110.8 2.8 C 111.4 2.8 111.9 2.8 112.3 3 C 112.7 3.1 113 3.3 113.2 3.5 C 113.4 3.8 113.5 4 113.6 4.4 C 113.6 4.6 113.6 5 113.6 5.5 C 113.6 5.5 113.6 7.2 113.6 7.2 C 113.6 8.3 113.6 9 113.7 9.3 C 113.8 9.6 113.9 9.9 114 10.2 C 114.01 10.19 112.7 10.2 112.7 10.2 C 112.7 10.2 112.72 10.19 112.7 10.2 Z M 112.4 6.5 C 111.9 6.7 111.3 6.9 110.4 7 C 109.9 7.1 109.5 7.2 109.3 7.3 C 109.1 7.4 108.9 7.5 108.8 7.7 C 108.7 7.8 108.6 8 108.6 8.2 C 108.6 8.6 108.8 8.8 109 9.1 C 109.3 9.3 109.6 9.4 110.1 9.4 C 110.6 9.4 111 9.3 111.4 9.1 C 111.7 8.9 112 8.6 112.2 8.2 C 112.3 8 112.4 7.5 112.4 7 C 112.4 7 112.4 6.5 112.4 6.5 Z M 115.5 10.2 L 115.5 2.9 L 116.6 2.9 C 116.6 2.9 116.62 4.03 116.6 4 C 116.9 3.5 117.2 3.2 117.4 3 C 117.6 2.9 117.9 2.8 118.2 2.8 C 118.6 2.8 119 2.9 119.5 3.2 C 119.5 3.2 119 4.3 119 4.3 C 118.7 4.1 118.4 4 118.1 4 C 117.9 4 117.6 4.1 117.4 4.3 C 117.2 4.4 117 4.7 116.9 5 C 116.8 5.4 116.7 5.9 116.7 6.4 C 116.74 6.39 116.7 10.2 116.7 10.2 L 115.5 10.2 Z M 120.2 10.2 L 120.2 2.9 L 121.3 2.9 C 121.3 2.9 121.3 3.96 121.3 4 C 121.8 3.2 122.6 2.8 123.6 2.8 C 124 2.8 124.4 2.8 124.8 3 C 125.2 3.2 125.5 3.4 125.6 3.6 C 125.8 3.9 125.9 4.2 126 4.5 C 126.1 4.8 126.1 5.2 126.1 5.7 C 126.09 5.73 126.1 10.2 126.1 10.2 L 124.9 10.2 C 124.9 10.2 124.86 5.78 124.9 5.8 C 124.9 5.3 124.8 4.9 124.7 4.7 C 124.6 4.4 124.4 4.2 124.2 4.1 C 124 3.9 123.7 3.8 123.3 3.8 C 122.8 3.8 122.4 4 122 4.3 C 121.6 4.7 121.4 5.3 121.4 6.2 C 121.42 6.23 121.4 10.2 121.4 10.2 L 120.2 10.2 Z M 128 1.6 L 128 0.2 L 129.2 0.2 L 129.2 1.6 L 128 1.6 Z M 128 10.2 L 128 2.9 L 129.2 2.9 L 129.2 10.2 L 128 10.2 Z M 131.1 10.2 L 131.1 2.9 L 132.2 2.9 C 132.2 2.9 132.19 3.96 132.2 4 C 132.7 3.2 133.5 2.8 134.5 2.8 C 134.9 2.8 135.3 2.8 135.7 3 C 136.1 3.2 136.4 3.4 136.5 3.6 C 136.7 3.9 136.8 4.2 136.9 4.5 C 137 4.8 137 5.2 137 5.7 C 136.99 5.73 137 10.2 137 10.2 L 135.8 10.2 C 135.8 10.2 135.75 5.78 135.8 5.8 C 135.8 5.3 135.7 4.9 135.6 4.7 C 135.5 4.4 135.3 4.2 135.1 4.1 C 134.9 3.9 134.6 3.8 134.2 3.8 C 133.7 3.8 133.3 4 132.9 4.3 C 132.5 4.7 132.3 5.3 132.3 6.2 C 132.32 6.23 132.3 10.2 132.3 10.2 L 131.1 10.2 Z M 138.6 10.8 C 138.6 10.8 139.8 11 139.8 11 C 139.9 11.3 140 11.6 140.3 11.8 C 140.6 12 141 12.1 141.5 12.1 C 142.1 12.1 142.5 12 142.8 11.8 C 143.1 11.6 143.3 11.2 143.5 10.8 C 143.5 10.6 143.6 10 143.5 9.2 C 143 9.9 142.3 10.2 141.5 10.2 C 140.5 10.2 139.8 9.8 139.2 9.1 C 138.7 8.4 138.4 7.5 138.4 6.5 C 138.4 5.8 138.5 5.2 138.8 4.6 C 139 4 139.4 3.6 139.9 3.2 C 140.3 2.9 140.9 2.8 141.5 2.8 C 142.4 2.8 143.1 3.1 143.7 3.8 C 143.66 3.81 143.7 2.9 143.7 2.9 L 144.8 2.9 C 144.8 2.9 144.8 9.21 144.8 9.2 C 144.8 10.3 144.7 11.1 144.5 11.6 C 144.2 12.1 143.9 12.5 143.4 12.7 C 142.9 13 142.2 13.1 141.5 13.1 C 140.7 13.1 140 12.9 139.4 12.6 C 138.9 12.2 138.6 11.6 138.6 10.8 Z M 139.7 6.4 C 139.7 7.4 139.9 8.1 140.2 8.5 C 140.6 9 141.1 9.2 141.7 9.2 C 142.2 9.2 142.7 9 143.1 8.5 C 143.5 8.1 143.7 7.4 143.7 6.5 C 143.7 5.6 143.5 4.9 143.1 4.5 C 142.7 4 142.2 3.8 141.6 3.8 C 141.1 3.8 140.6 4 140.2 4.5 C 139.9 4.9 139.7 5.6 139.7 6.4 Z M 147 10.2 L 147 8.8 L 148.4 8.8 L 148.4 10.2 L 147 10.2 Z M 155.3 7.5 C 155.3 7.5 156.5 7.7 156.5 7.7 C 156.4 8.5 156 9.2 155.5 9.6 C 154.9 10.1 154.3 10.4 153.5 10.4 C 152.5 10.4 151.7 10 151.1 9.4 C 150.5 8.7 150.2 7.8 150.2 6.6 C 150.2 5.8 150.3 5.1 150.6 4.5 C 150.8 3.9 151.2 3.5 151.7 3.2 C 152.3 2.9 152.9 2.8 153.5 2.8 C 154.3 2.8 154.9 3 155.4 3.4 C 155.9 3.8 156.2 4.3 156.4 5.1 C 156.4 5.1 155.2 5.3 155.2 5.3 C 155.1 4.8 154.9 4.4 154.6 4.1 C 154.3 3.9 153.9 3.8 153.5 3.8 C 152.9 3.8 152.4 4 152 4.4 C 151.6 4.9 151.4 5.6 151.4 6.6 C 151.4 7.5 151.6 8.2 152 8.7 C 152.4 9.1 152.9 9.3 153.5 9.3 C 153.9 9.3 154.3 9.2 154.7 8.9 C 155 8.6 155.2 8.1 155.3 7.5 Z M 157.1 6.6 C 157.1 5.2 157.5 4.2 158.2 3.6 C 158.8 3 159.6 2.8 160.5 2.8 C 161.5 2.8 162.3 3.1 162.9 3.7 C 163.6 4.4 163.9 5.3 163.9 6.5 C 163.9 7.4 163.8 8.1 163.5 8.7 C 163.2 9.2 162.8 9.6 162.2 9.9 C 161.7 10.2 161.1 10.4 160.5 10.4 C 159.5 10.4 158.7 10 158 9.4 C 157.4 8.7 157.1 7.8 157.1 6.6 Z M 158.4 6.6 C 158.4 7.5 158.6 8.2 159 8.7 C 159.4 9.1 159.9 9.3 160.5 9.3 C 161.1 9.3 161.6 9.1 162 8.6 C 162.4 8.2 162.6 7.5 162.6 6.5 C 162.6 5.6 162.4 4.9 162 4.5 C 161.6 4 161.1 3.8 160.5 3.8 C 159.9 3.8 159.4 4 159 4.5 C 158.6 4.9 158.4 5.6 158.4 6.6 Z M 165.7 10.2 L 165.7 8.8 L 167.1 8.8 L 167.1 10.2 L 165.7 10.2 Z M 174 10.2 C 174 10.2 173.98 9.13 174 9.1 C 173.4 9.9 172.6 10.4 171.7 10.4 C 171.2 10.4 170.8 10.3 170.5 10.1 C 170.1 9.9 169.8 9.7 169.7 9.5 C 169.5 9.2 169.3 8.9 169.3 8.6 C 169.2 8.3 169.2 8 169.2 7.4 C 169.2 7.43 169.2 2.9 169.2 2.9 L 170.4 2.9 C 170.4 2.9 170.43 6.96 170.4 7 C 170.4 7.6 170.5 8 170.5 8.3 C 170.6 8.6 170.7 8.8 171 9 C 171.2 9.2 171.6 9.3 171.9 9.3 C 172.3 9.3 172.6 9.2 173 9 C 173.3 8.8 173.5 8.6 173.6 8.2 C 173.8 7.9 173.9 7.4 173.9 6.8 C 173.85 6.82 173.9 2.9 173.9 2.9 L 175.1 2.9 L 175.1 10.2 L 174 10.2 Z M 177 10.2 L 177 0.2 L 178.2 0.2 L 178.2 5.9 L 181.2 2.9 L 182.8 2.9 L 180 5.6 L 183 10.2 L 181.5 10.2 L 179.1 6.5 L 178.2 7.3 L 178.2 10.2 L 177 10.2 Z " stroke="none" fill="#e4007e"/>  </g></svg>