<?xml version="1.0" standalone="no"?><!DOCTYPE svg PUBLIC "-//W3C//DTD SVG 1.1//EN" "http://www.w3.org/Graphics/SVG/1.1/DTD/svg11.dtd"><svg xmlns="http://www.w3.org/2000/svg" version="1.1" width="138.3px" height="23.9px" viewBox="0 -5 138.3 23.9" style="top:-5px">  <desc>25 Years’ Experience</desc>  <defs/>  <g id="Polygon107985">    <path d="M 7.1 8.4 L 7.1 10.2 C 7.1 10.2 0.35 10.19 0.3 10.2 C 0.4 9.5 0.6 8.9 1 8.3 C 1.4 7.7 2.1 6.9 3.2 5.9 C 4 5.1 4.6 4.5 4.8 4.2 C 5 3.8 5.2 3.4 5.2 3.1 C 5.2 2.6 5 2.3 4.8 2.1 C 4.6 1.8 4.3 1.7 3.9 1.7 C 3.5 1.7 3.1 1.8 2.9 2.1 C 2.7 2.3 2.5 2.7 2.5 3.3 C 2.5 3.3 0.6 3.1 0.6 3.1 C 0.7 2 1 1.3 1.6 0.8 C 2.2 0.4 3 0.1 3.9 0.1 C 4.9 0.1 5.7 0.4 6.2 0.9 C 6.8 1.5 7.1 2.1 7.1 2.9 C 7.1 3.4 7 3.8 6.8 4.2 C 6.7 4.6 6.4 5 6.1 5.5 C 5.8 5.8 5.4 6.2 4.8 6.8 C 4.2 7.3 3.8 7.7 3.7 7.9 C 3.5 8.1 3.4 8.2 3.3 8.4 C 3.27 8.41 7.1 8.4 7.1 8.4 Z M 8.4 7.6 C 8.4 7.6 10.3 7.4 10.3 7.4 C 10.4 7.9 10.5 8.2 10.8 8.4 C 11.1 8.7 11.4 8.8 11.7 8.8 C 12.1 8.8 12.5 8.7 12.8 8.3 C 13 8 13.2 7.5 13.2 6.9 C 13.2 6.2 13 5.8 12.8 5.5 C 12.5 5.2 12.1 5 11.7 5 C 11.1 5 10.6 5.3 10.2 5.7 C 10.2 5.75 8.6 5.5 8.6 5.5 L 9.6 0.3 L 14.7 0.3 L 14.7 2.1 L 11.1 2.1 C 11.1 2.1 10.78 3.81 10.8 3.8 C 11.2 3.6 11.6 3.5 12.1 3.5 C 12.9 3.5 13.7 3.8 14.3 4.4 C 14.9 5 15.1 5.8 15.1 6.8 C 15.1 7.7 14.9 8.4 14.4 9 C 13.8 9.9 12.9 10.4 11.7 10.4 C 10.8 10.4 10 10.1 9.5 9.6 C 8.9 9.1 8.5 8.5 8.4 7.6 Z M 22.9 10.2 L 22.9 6 L 19.2 0.2 L 21.6 0.2 L 23.9 4.1 L 26.2 0.2 L 28.6 0.2 L 24.9 6 L 24.9 10.2 L 22.9 10.2 Z M 33 7.9 C 33 7.9 34.9 8.2 34.9 8.2 C 34.7 8.9 34.3 9.4 33.7 9.8 C 33.2 10.2 32.5 10.4 31.7 10.4 C 30.5 10.4 29.5 9.9 28.9 9.1 C 28.5 8.5 28.2 7.6 28.2 6.6 C 28.2 5.4 28.5 4.5 29.2 3.8 C 29.8 3.1 30.6 2.8 31.5 2.8 C 32.6 2.8 33.5 3.1 34.1 3.8 C 34.7 4.6 35 5.6 35 7.1 C 35 7.1 30.2 7.1 30.2 7.1 C 30.2 7.7 30.4 8.1 30.7 8.4 C 30.9 8.8 31.3 8.9 31.8 8.9 C 32.1 8.9 32.3 8.8 32.5 8.7 C 32.7 8.5 32.9 8.2 33 7.9 Z M 33.1 5.9 C 33.1 5.4 32.9 5 32.7 4.7 C 32.4 4.4 32.1 4.2 31.7 4.2 C 31.2 4.2 30.9 4.4 30.6 4.7 C 30.4 5 30.2 5.4 30.2 5.9 C 30.2 5.9 33.1 5.9 33.1 5.9 Z M 38 5.1 C 38 5.1 36.3 4.8 36.3 4.8 C 36.5 4.1 36.8 3.6 37.3 3.3 C 37.7 2.9 38.5 2.8 39.4 2.8 C 40.3 2.8 40.9 2.9 41.3 3.1 C 41.7 3.3 42 3.5 42.2 3.8 C 42.4 4.2 42.5 4.7 42.5 5.6 C 42.5 5.6 42.4 7.8 42.4 7.8 C 42.4 8.4 42.5 8.9 42.5 9.2 C 42.6 9.5 42.7 9.8 42.9 10.2 C 42.9 10.2 41 10.2 41 10.2 C 40.9 10.1 40.9 9.9 40.8 9.6 C 40.8 9.5 40.7 9.4 40.7 9.4 C 40.4 9.7 40 10 39.7 10.1 C 39.3 10.3 38.9 10.4 38.5 10.4 C 37.7 10.4 37.1 10.2 36.7 9.7 C 36.3 9.3 36.1 8.8 36.1 8.2 C 36.1 7.8 36.2 7.4 36.4 7.1 C 36.5 6.8 36.8 6.5 37.2 6.4 C 37.5 6.2 38 6.1 38.7 5.9 C 39.6 5.8 40.2 5.6 40.6 5.5 C 40.6 5.5 40.6 5.3 40.6 5.3 C 40.6 4.9 40.5 4.6 40.3 4.5 C 40.1 4.3 39.8 4.2 39.3 4.2 C 38.9 4.2 38.7 4.3 38.5 4.4 C 38.3 4.6 38.1 4.8 38 5.1 Z M 40.6 6.7 C 40.3 6.8 39.9 6.9 39.4 7 C 38.9 7.1 38.5 7.2 38.4 7.3 C 38.1 7.5 38 7.7 38 8 C 38 8.3 38.1 8.5 38.3 8.7 C 38.5 8.9 38.7 9 39 9 C 39.4 9 39.7 8.9 40 8.7 C 40.3 8.5 40.4 8.3 40.5 8 C 40.5 7.9 40.6 7.5 40.6 7.1 C 40.6 7.1 40.6 6.7 40.6 6.7 Z M 46.2 10.2 L 44.3 10.2 L 44.3 2.9 L 46.1 2.9 C 46.1 2.9 46.05 3.96 46.1 4 C 46.4 3.5 46.6 3.2 46.9 3 C 47.1 2.8 47.4 2.8 47.7 2.8 C 48.1 2.8 48.6 2.9 49 3.1 C 49 3.1 48.4 4.8 48.4 4.8 C 48.1 4.6 47.8 4.5 47.5 4.5 C 47.2 4.5 47 4.6 46.8 4.7 C 46.6 4.9 46.5 5.1 46.4 5.5 C 46.2 5.9 46.2 6.7 46.2 8 C 46.19 7.95 46.2 10.2 46.2 10.2 Z M 49.1 8.1 C 49.1 8.1 51.1 7.8 51.1 7.8 C 51.1 8.2 51.3 8.5 51.5 8.7 C 51.8 8.9 52.2 9 52.6 9 C 53.1 9 53.5 8.9 53.7 8.7 C 53.9 8.6 54 8.4 54 8.2 C 54 8 53.9 7.9 53.8 7.8 C 53.7 7.7 53.5 7.6 53.2 7.6 C 51.6 7.2 50.7 6.9 50.3 6.6 C 49.7 6.2 49.4 5.7 49.4 5 C 49.4 4.4 49.6 3.8 50.1 3.4 C 50.6 3 51.4 2.8 52.4 2.8 C 53.4 2.8 54.2 2.9 54.7 3.3 C 55.1 3.6 55.5 4.1 55.7 4.7 C 55.7 4.7 53.8 5 53.8 5 C 53.8 4.7 53.6 4.5 53.4 4.4 C 53.2 4.2 52.9 4.1 52.5 4.1 C 52 4.1 51.6 4.2 51.4 4.4 C 51.2 4.5 51.2 4.6 51.2 4.8 C 51.2 4.9 51.2 5 51.4 5.1 C 51.5 5.2 52.1 5.4 53.2 5.6 C 54.2 5.9 54.9 6.2 55.3 6.5 C 55.7 6.8 55.9 7.3 55.9 7.9 C 55.9 8.6 55.6 9.2 55.1 9.6 C 54.5 10.1 53.7 10.4 52.6 10.4 C 51.6 10.4 50.8 10.2 50.3 9.8 C 49.7 9.4 49.3 8.8 49.1 8.1 Z M 57.5 0.2 L 59.5 0.2 C 59.5 0.2 59.46 1.57 59.5 1.6 C 59.5 2.1 59.4 2.6 59.3 2.9 C 59.2 3.2 59 3.5 58.8 3.8 C 58.5 4 58.2 4.2 57.8 4.4 C 57.8 4.4 57.4 3.6 57.4 3.6 C 57.8 3.4 58 3.3 58.2 3 C 58.4 2.8 58.5 2.5 58.5 2.1 C 58.47 2.12 57.5 2.1 57.5 2.1 L 57.5 0.2 Z M 64.6 10.2 L 64.6 0.2 L 72 0.2 L 72 1.9 L 66.6 1.9 L 66.6 4.1 L 71.7 4.1 L 71.7 5.8 L 66.6 5.8 L 66.6 8.5 L 72.2 8.5 L 72.2 10.2 L 64.6 10.2 Z M 73 10.2 L 75.6 6.5 L 73.1 2.9 L 75.5 2.9 L 76.7 4.9 L 78.1 2.9 L 80.4 2.9 L 77.9 6.4 L 80.6 10.2 L 78.2 10.2 L 76.7 7.9 L 75.3 10.2 L 73 10.2 Z M 81.7 2.9 L 83.5 2.9 C 83.5 2.9 83.45 4 83.5 4 C 83.7 3.6 84 3.3 84.4 3.1 C 84.8 2.9 85.2 2.8 85.7 2.8 C 86.6 2.8 87.3 3.1 87.9 3.8 C 88.5 4.4 88.7 5.3 88.7 6.5 C 88.7 7.7 88.4 8.7 87.9 9.3 C 87.3 10 86.5 10.4 85.7 10.4 C 85.3 10.4 84.9 10.3 84.6 10.1 C 84.3 10 83.9 9.7 83.6 9.3 C 83.58 9.3 83.6 13 83.6 13 L 81.7 13 L 81.7 2.9 Z M 83.6 6.4 C 83.6 7.3 83.7 7.9 84 8.2 C 84.4 8.6 84.8 8.8 85.2 8.8 C 85.7 8.8 86 8.7 86.3 8.3 C 86.6 7.9 86.8 7.4 86.8 6.5 C 86.8 5.8 86.6 5.2 86.3 4.8 C 86 4.5 85.6 4.3 85.2 4.3 C 84.7 4.3 84.3 4.5 84 4.8 C 83.7 5.2 83.6 5.7 83.6 6.4 Z M 94.5 7.9 C 94.5 7.9 96.4 8.2 96.4 8.2 C 96.1 8.9 95.8 9.4 95.2 9.8 C 94.7 10.2 94 10.4 93.2 10.4 C 92 10.4 91 9.9 90.4 9.1 C 89.9 8.5 89.7 7.6 89.7 6.6 C 89.7 5.4 90 4.5 90.7 3.8 C 91.3 3.1 92.1 2.8 93 2.8 C 94.1 2.8 95 3.1 95.6 3.8 C 96.2 4.6 96.5 5.6 96.5 7.1 C 96.5 7.1 91.7 7.1 91.7 7.1 C 91.7 7.7 91.8 8.1 92.1 8.4 C 92.4 8.8 92.8 8.9 93.2 8.9 C 93.5 8.9 93.8 8.8 94 8.7 C 94.2 8.5 94.4 8.2 94.5 7.9 Z M 94.6 5.9 C 94.6 5.4 94.4 5 94.2 4.7 C 93.9 4.4 93.5 4.2 93.2 4.2 C 92.7 4.2 92.4 4.4 92.1 4.7 C 91.8 5 91.7 5.4 91.7 5.9 C 91.7 5.9 94.6 5.9 94.6 5.9 Z M 99.9 10.2 L 98 10.2 L 98 2.9 L 99.8 2.9 C 99.8 2.9 99.76 3.96 99.8 4 C 100.1 3.5 100.3 3.2 100.6 3 C 100.8 2.8 101.1 2.8 101.4 2.8 C 101.8 2.8 102.3 2.9 102.7 3.1 C 102.7 3.1 102.1 4.8 102.1 4.8 C 101.8 4.6 101.5 4.5 101.2 4.5 C 100.9 4.5 100.7 4.6 100.5 4.7 C 100.3 4.9 100.2 5.1 100.1 5.5 C 99.9 5.9 99.9 6.7 99.9 8 C 99.89 7.95 99.9 10.2 99.9 10.2 Z M 103.5 1.9 L 103.5 0.2 L 105.4 0.2 L 105.4 1.9 L 103.5 1.9 Z M 103.5 10.2 L 103.5 2.9 L 105.4 2.9 L 105.4 10.2 L 103.5 10.2 Z M 111.6 7.9 C 111.6 7.9 113.5 8.2 113.5 8.2 C 113.3 8.9 112.9 9.4 112.3 9.8 C 111.8 10.2 111.1 10.4 110.4 10.4 C 109.1 10.4 108.2 9.9 107.5 9.1 C 107.1 8.5 106.8 7.6 106.8 6.6 C 106.8 5.4 107.1 4.5 107.8 3.8 C 108.4 3.1 109.2 2.8 110.2 2.8 C 111.2 2.8 112.1 3.1 112.7 3.8 C 113.3 4.6 113.6 5.6 113.6 7.1 C 113.6 7.1 108.8 7.1 108.8 7.1 C 108.8 7.7 109 8.1 109.3 8.4 C 109.6 8.8 109.9 8.9 110.4 8.9 C 110.7 8.9 110.9 8.8 111.1 8.7 C 111.3 8.5 111.5 8.2 111.6 7.9 Z M 111.7 5.9 C 111.7 5.4 111.5 5 111.3 4.7 C 111 4.4 110.7 4.2 110.3 4.2 C 109.9 4.2 109.5 4.4 109.2 4.7 C 109 5 108.8 5.4 108.8 5.9 C 108.8 5.9 111.7 5.9 111.7 5.9 Z M 121.8 10.2 L 119.9 10.2 C 119.9 10.2 119.86 6.49 119.9 6.5 C 119.9 5.7 119.8 5.2 119.7 5 C 119.7 4.7 119.5 4.6 119.3 4.4 C 119.2 4.3 118.9 4.2 118.7 4.2 C 118.3 4.2 118 4.3 117.8 4.5 C 117.5 4.7 117.3 4.9 117.2 5.2 C 117.1 5.5 117.1 6.1 117.1 6.9 C 117.09 6.9 117.1 10.2 117.1 10.2 L 115.2 10.2 L 115.2 2.9 L 116.9 2.9 C 116.9 2.9 116.95 4 116.9 4 C 117.6 3.2 118.4 2.8 119.3 2.8 C 119.8 2.8 120.2 2.8 120.5 3 C 120.9 3.2 121.1 3.3 121.3 3.6 C 121.5 3.8 121.6 4.1 121.7 4.4 C 121.7 4.7 121.8 5.1 121.8 5.7 C 121.78 5.68 121.8 10.2 121.8 10.2 Z M 130.1 5.1 C 130.1 5.1 128.2 5.4 128.2 5.4 C 128.1 5 128 4.8 127.7 4.6 C 127.5 4.4 127.2 4.3 126.9 4.3 C 126.4 4.3 126 4.4 125.7 4.8 C 125.4 5.1 125.3 5.7 125.3 6.4 C 125.3 7.3 125.4 7.9 125.7 8.3 C 126 8.6 126.4 8.8 126.9 8.8 C 127.2 8.8 127.5 8.7 127.8 8.5 C 128 8.3 128.2 7.9 128.3 7.4 C 128.3 7.4 130.2 7.7 130.2 7.7 C 130 8.6 129.6 9.3 129 9.7 C 128.5 10.1 127.7 10.4 126.8 10.4 C 125.7 10.4 124.9 10 124.3 9.4 C 123.6 8.7 123.3 7.8 123.3 6.6 C 123.3 5.4 123.6 4.4 124.3 3.8 C 124.9 3.1 125.7 2.8 126.8 2.8 C 127.7 2.8 128.4 3 128.9 3.3 C 129.5 3.7 129.8 4.3 130.1 5.1 Z M 135.7 7.9 C 135.7 7.9 137.6 8.2 137.6 8.2 C 137.4 8.9 137 9.4 136.5 9.8 C 135.9 10.2 135.3 10.4 134.5 10.4 C 133.2 10.4 132.3 9.9 131.7 9.1 C 131.2 8.5 131 7.6 131 6.6 C 131 5.4 131.3 4.5 131.9 3.8 C 132.5 3.1 133.3 2.8 134.3 2.8 C 135.4 2.8 136.2 3.1 136.8 3.8 C 137.5 4.6 137.8 5.6 137.7 7.1 C 137.7 7.1 132.9 7.1 132.9 7.1 C 132.9 7.7 133.1 8.1 133.4 8.4 C 133.7 8.8 134.1 8.9 134.5 8.9 C 134.8 8.9 135.1 8.8 135.3 8.7 C 135.5 8.5 135.6 8.2 135.7 7.9 Z M 135.8 5.9 C 135.8 5.4 135.7 5 135.4 4.7 C 135.1 4.4 134.8 4.2 134.4 4.2 C 134 4.2 133.6 4.4 133.4 4.7 C 133.1 5 133 5.4 133 5.9 C 133 5.9 135.8 5.9 135.8 5.9 Z " stroke="none" fill="#ffffff"/>  </g></svg>