<?xml version="1.0" standalone="no"?><!DOCTYPE svg PUBLIC "-//W3C//DTD SVG 1.1//EN" "http://www.w3.org/Graphics/SVG/1.1/DTD/svg11.dtd"><svg xmlns="http://www.w3.org/2000/svg" version="1.1" width="113.5px" height="40.9px" viewBox="0 -5 113.5 40.9" style="top:-5px">  <desc>No Fees Until Gateway</desc>  <defs/>  <g id="Polygon106603">    <path d="M 11.5 17 L 13.5 17 C 13.5 17 13.48 22.4 13.5 22.4 C 13.5 23.3 13.5 23.8 13.6 24.1 C 13.6 24.5 13.8 24.8 14.2 25.1 C 14.5 25.3 14.9 25.4 15.5 25.4 C 16.1 25.4 16.5 25.3 16.8 25.1 C 17.1 24.8 17.3 24.6 17.3 24.2 C 17.4 23.9 17.4 23.3 17.4 22.5 C 17.42 22.51 17.4 17 17.4 17 L 19.4 17 C 19.4 17 19.45 22.23 19.4 22.2 C 19.4 23.4 19.4 24.3 19.3 24.8 C 19.2 25.3 19 25.7 18.7 26 C 18.4 26.4 18 26.7 17.5 26.9 C 17 27.1 16.4 27.2 15.6 27.2 C 14.6 27.2 13.9 27.1 13.4 26.8 C 12.9 26.6 12.5 26.3 12.2 26 C 11.9 25.6 11.7 25.2 11.7 24.9 C 11.5 24.3 11.5 23.4 11.5 22.3 C 11.45 22.32 11.5 17 11.5 17 Z M 28.2 27 L 26.2 27 C 26.2 27 26.25 23.29 26.2 23.3 C 26.2 22.5 26.2 22 26.1 21.8 C 26 21.5 25.9 21.4 25.7 21.2 C 25.5 21.1 25.3 21 25.1 21 C 24.7 21 24.4 21.1 24.2 21.3 C 23.9 21.5 23.7 21.7 23.6 22 C 23.5 22.3 23.5 22.9 23.5 23.7 C 23.47 23.7 23.5 27 23.5 27 L 21.6 27 L 21.6 19.7 L 23.3 19.7 C 23.3 19.7 23.33 20.8 23.3 20.8 C 24 20 24.8 19.6 25.7 19.6 C 26.2 19.6 26.5 19.6 26.9 19.8 C 27.2 20 27.5 20.1 27.7 20.4 C 27.9 20.6 28 20.9 28.1 21.2 C 28.1 21.5 28.2 21.9 28.2 22.5 C 28.17 22.48 28.2 27 28.2 27 Z M 33.4 19.7 L 33.4 21.3 L 32.1 21.3 C 32.1 21.3 32.13 24.19 32.1 24.2 C 32.1 24.8 32.1 25.1 32.2 25.2 C 32.2 25.3 32.3 25.4 32.3 25.5 C 32.4 25.5 32.5 25.6 32.7 25.6 C 32.8 25.6 33.1 25.5 33.4 25.4 C 33.4 25.4 33.6 26.9 33.6 26.9 C 33.2 27.1 32.6 27.2 32.1 27.2 C 31.7 27.2 31.4 27.1 31.1 27 C 30.9 26.9 30.7 26.7 30.5 26.5 C 30.4 26.3 30.3 26.1 30.3 25.8 C 30.2 25.6 30.2 25.1 30.2 24.4 C 30.2 24.43 30.2 21.3 30.2 21.3 L 29.3 21.3 L 29.3 19.7 L 30.2 19.7 L 30.2 18.3 L 32.1 17.2 L 32.1 19.7 L 33.4 19.7 Z M 34.8 18.7 L 34.8 17 L 36.7 17 L 36.7 18.7 L 34.8 18.7 Z M 34.8 27 L 34.8 19.7 L 36.7 19.7 L 36.7 27 L 34.8 27 Z M 38.7 27 L 38.7 17 L 40.6 17 L 40.6 27 L 38.7 27 Z M 51.1 23.3 L 51.1 21.6 L 55.5 21.6 C 55.5 21.6 55.48 25.61 55.5 25.6 C 55.1 26 54.4 26.4 53.6 26.7 C 52.8 27 52 27.2 51.2 27.2 C 50.1 27.2 49.2 26.9 48.5 26.5 C 47.7 26.1 47.1 25.4 46.7 24.6 C 46.3 23.8 46.1 22.9 46.1 21.9 C 46.1 20.9 46.3 20 46.8 19.2 C 47.2 18.4 47.8 17.7 48.7 17.3 C 49.3 17 50.1 16.8 51.1 16.8 C 52.3 16.8 53.3 17.1 54 17.6 C 54.7 18.1 55.2 18.8 55.4 19.7 C 55.4 19.7 53.3 20.1 53.3 20.1 C 53.2 19.6 52.9 19.2 52.5 19 C 52.2 18.7 51.7 18.5 51.1 18.5 C 50.2 18.5 49.5 18.8 49 19.4 C 48.5 19.9 48.2 20.8 48.2 21.9 C 48.2 23.1 48.5 23.9 49 24.5 C 49.5 25.1 50.2 25.4 51.1 25.4 C 51.5 25.4 51.9 25.4 52.3 25.2 C 52.8 25 53.1 24.8 53.4 24.6 C 53.44 24.58 53.4 23.3 53.4 23.3 L 51.1 23.3 Z M 58.8 21.9 C 58.8 21.9 57 21.6 57 21.6 C 57.2 20.9 57.6 20.4 58 20.1 C 58.5 19.7 59.2 19.6 60.2 19.6 C 61 19.6 61.7 19.7 62.1 19.9 C 62.5 20.1 62.8 20.3 63 20.6 C 63.1 21 63.2 21.5 63.2 22.4 C 63.2 22.4 63.2 24.6 63.2 24.6 C 63.2 25.2 63.2 25.7 63.3 26 C 63.4 26.3 63.5 26.6 63.6 27 C 63.6 27 61.7 27 61.7 27 C 61.7 26.9 61.6 26.7 61.6 26.4 C 61.5 26.3 61.5 26.2 61.5 26.2 C 61.2 26.5 60.8 26.8 60.4 26.9 C 60.1 27.1 59.7 27.2 59.2 27.2 C 58.5 27.2 57.9 27 57.5 26.5 C 57 26.1 56.8 25.6 56.8 25 C 56.8 24.6 56.9 24.2 57.1 23.9 C 57.3 23.6 57.6 23.3 57.9 23.2 C 58.3 23 58.8 22.9 59.5 22.7 C 60.4 22.6 61 22.4 61.3 22.3 C 61.3 22.3 61.3 22.1 61.3 22.1 C 61.3 21.7 61.3 21.4 61.1 21.3 C 60.9 21.1 60.5 21 60 21 C 59.7 21 59.4 21.1 59.2 21.2 C 59 21.4 58.9 21.6 58.8 21.9 Z M 61.3 23.5 C 61.1 23.6 60.7 23.7 60.2 23.8 C 59.6 23.9 59.3 24 59.1 24.1 C 58.9 24.3 58.8 24.5 58.8 24.8 C 58.8 25.1 58.9 25.3 59.1 25.5 C 59.3 25.7 59.5 25.8 59.8 25.8 C 60.2 25.8 60.5 25.7 60.8 25.5 C 61 25.3 61.2 25.1 61.3 24.8 C 61.3 24.7 61.3 24.3 61.3 23.9 C 61.3 23.9 61.3 23.5 61.3 23.5 Z M 68.5 19.7 L 68.5 21.3 L 67.1 21.3 C 67.1 21.3 67.14 24.19 67.1 24.2 C 67.1 24.8 67.2 25.1 67.2 25.2 C 67.2 25.3 67.3 25.4 67.3 25.5 C 67.4 25.5 67.5 25.6 67.7 25.6 C 67.9 25.6 68.1 25.5 68.4 25.4 C 68.4 25.4 68.6 26.9 68.6 26.9 C 68.2 27.1 67.7 27.2 67.1 27.2 C 66.7 27.2 66.4 27.1 66.2 27 C 65.9 26.9 65.7 26.7 65.5 26.5 C 65.4 26.3 65.3 26.1 65.3 25.8 C 65.2 25.6 65.2 25.1 65.2 24.4 C 65.21 24.43 65.2 21.3 65.2 21.3 L 64.3 21.3 L 64.3 19.7 L 65.2 19.7 L 65.2 18.3 L 67.1 17.2 L 67.1 19.7 L 68.5 19.7 Z M 74 24.7 C 74 24.7 75.9 25 75.9 25 C 75.7 25.7 75.3 26.2 74.7 26.6 C 74.2 27 73.5 27.2 72.7 27.2 C 71.5 27.2 70.5 26.7 69.9 25.9 C 69.5 25.3 69.2 24.4 69.2 23.4 C 69.2 22.2 69.5 21.3 70.2 20.6 C 70.8 19.9 71.6 19.6 72.6 19.6 C 73.6 19.6 74.5 19.9 75.1 20.6 C 75.7 21.4 76 22.4 76 23.9 C 76 23.9 71.2 23.9 71.2 23.9 C 71.2 24.5 71.4 24.9 71.7 25.2 C 72 25.6 72.3 25.7 72.8 25.7 C 73.1 25.7 73.3 25.6 73.5 25.5 C 73.7 25.3 73.9 25 74 24.7 Z M 74.1 22.7 C 74.1 22.2 73.9 21.8 73.7 21.5 C 73.4 21.2 73.1 21 72.7 21 C 72.3 21 71.9 21.2 71.6 21.5 C 71.4 21.8 71.2 22.2 71.2 22.7 C 71.2 22.7 74.1 22.7 74.1 22.7 Z M 78.9 27 L 76.6 19.7 L 78.5 19.7 L 79.9 24.5 L 81.1 19.7 L 83 19.7 L 84.2 24.5 L 85.6 19.7 L 87.4 19.7 L 85.1 27 L 83.3 27 L 82 22.3 L 80.8 27 L 78.9 27 Z M 89.9 21.9 C 89.9 21.9 88.2 21.6 88.2 21.6 C 88.3 20.9 88.7 20.4 89.2 20.1 C 89.6 19.7 90.4 19.6 91.3 19.6 C 92.2 19.6 92.8 19.7 93.2 19.9 C 93.6 20.1 93.9 20.3 94.1 20.6 C 94.3 21 94.4 21.5 94.4 22.4 C 94.4 22.4 94.3 24.6 94.3 24.6 C 94.3 25.2 94.4 25.7 94.4 26 C 94.5 26.3 94.6 26.6 94.8 27 C 94.8 27 92.9 27 92.9 27 C 92.8 26.9 92.8 26.7 92.7 26.4 C 92.7 26.3 92.6 26.2 92.6 26.2 C 92.3 26.5 91.9 26.8 91.6 26.9 C 91.2 27.1 90.8 27.2 90.4 27.2 C 89.6 27.2 89 27 88.6 26.5 C 88.2 26.1 88 25.6 88 25 C 88 24.6 88.1 24.2 88.2 23.9 C 88.4 23.6 88.7 23.3 89.1 23.2 C 89.4 23 89.9 22.9 90.6 22.7 C 91.5 22.6 92.1 22.4 92.5 22.3 C 92.5 22.3 92.5 22.1 92.5 22.1 C 92.5 21.7 92.4 21.4 92.2 21.3 C 92 21.1 91.7 21 91.2 21 C 90.8 21 90.6 21.1 90.4 21.2 C 90.2 21.4 90 21.6 89.9 21.9 Z M 92.5 23.5 C 92.2 23.6 91.8 23.7 91.3 23.8 C 90.8 23.9 90.4 24 90.3 24.1 C 90 24.3 89.9 24.5 89.9 24.8 C 89.9 25.1 90 25.3 90.2 25.5 C 90.4 25.7 90.6 25.8 90.9 25.8 C 91.3 25.8 91.6 25.7 91.9 25.5 C 92.2 25.3 92.3 25.1 92.4 24.8 C 92.4 24.7 92.5 24.3 92.5 23.9 C 92.5 23.9 92.5 23.5 92.5 23.5 Z M 95.3 19.7 L 97.4 19.7 L 99.1 24.9 L 100.8 19.7 L 102.8 19.7 L 100.2 26.7 C 100.2 26.7 99.78 27.98 99.8 28 C 99.6 28.4 99.5 28.7 99.3 29 C 99.1 29.2 99 29.4 98.8 29.5 C 98.6 29.6 98.3 29.7 98 29.8 C 97.8 29.9 97.4 29.9 97.1 29.9 C 96.7 29.9 96.3 29.9 96 29.8 C 96 29.8 95.8 28.3 95.8 28.3 C 96.1 28.4 96.4 28.4 96.6 28.4 C 97.1 28.4 97.4 28.3 97.6 28 C 97.8 27.8 98 27.4 98.1 27 C 98.1 27.01 95.3 19.7 95.3 19.7 Z " stroke="none" fill="#000"/>  </g>  <g id="Polygon106602">    <path d="M 30.5 10.2 L 30.5 0.2 L 32.5 0.2 L 36.6 6.9 L 36.6 0.2 L 38.5 0.2 L 38.5 10.2 L 36.5 10.2 L 32.4 3.7 L 32.4 10.2 L 30.5 10.2 Z M 40.2 6.5 C 40.2 5.8 40.3 5.2 40.7 4.6 C 41 4 41.4 3.6 42 3.2 C 42.6 2.9 43.2 2.8 43.9 2.8 C 45 2.8 45.9 3.1 46.6 3.8 C 47.3 4.6 47.7 5.5 47.7 6.5 C 47.7 7.6 47.3 8.6 46.6 9.3 C 45.9 10 45 10.4 43.9 10.4 C 43.3 10.4 42.6 10.2 42 9.9 C 41.4 9.6 41 9.2 40.7 8.6 C 40.3 8 40.2 7.3 40.2 6.5 Z M 42.1 6.6 C 42.1 7.3 42.3 7.8 42.7 8.2 C 43 8.6 43.4 8.8 43.9 8.8 C 44.4 8.8 44.8 8.6 45.2 8.2 C 45.5 7.8 45.7 7.3 45.7 6.5 C 45.7 5.8 45.5 5.3 45.2 4.9 C 44.8 4.5 44.4 4.3 43.9 4.3 C 43.4 4.3 43 4.5 42.7 4.9 C 42.3 5.3 42.1 5.8 42.1 6.6 Z M 53.1 10.2 L 53.1 0.2 L 60 0.2 L 60 1.9 L 55.1 1.9 L 55.1 4.2 L 59.3 4.2 L 59.3 5.9 L 55.1 5.9 L 55.1 10.2 L 53.1 10.2 Z M 65.8 7.9 C 65.8 7.9 67.7 8.2 67.7 8.2 C 67.5 8.9 67.1 9.4 66.6 9.8 C 66 10.2 65.4 10.4 64.6 10.4 C 63.3 10.4 62.4 9.9 61.8 9.1 C 61.3 8.5 61.1 7.6 61.1 6.6 C 61.1 5.4 61.4 4.5 62 3.8 C 62.6 3.1 63.4 2.8 64.4 2.8 C 65.5 2.8 66.3 3.1 66.9 3.8 C 67.6 4.6 67.9 5.6 67.8 7.1 C 67.8 7.1 63 7.1 63 7.1 C 63 7.7 63.2 8.1 63.5 8.4 C 63.8 8.8 64.2 8.9 64.6 8.9 C 64.9 8.9 65.2 8.8 65.4 8.7 C 65.6 8.5 65.7 8.2 65.8 7.9 Z M 65.9 5.9 C 65.9 5.4 65.8 5 65.5 4.7 C 65.2 4.4 64.9 4.2 64.5 4.2 C 64.1 4.2 63.7 4.4 63.5 4.7 C 63.2 5 63.1 5.4 63.1 5.9 C 63.1 5.9 65.9 5.9 65.9 5.9 Z M 73.6 7.9 C 73.6 7.9 75.5 8.2 75.5 8.2 C 75.3 8.9 74.9 9.4 74.4 9.8 C 73.8 10.2 73.2 10.4 72.4 10.4 C 71.1 10.4 70.2 9.9 69.6 9.1 C 69.1 8.5 68.8 7.6 68.8 6.6 C 68.8 5.4 69.2 4.5 69.8 3.8 C 70.4 3.1 71.2 2.8 72.2 2.8 C 73.3 2.8 74.1 3.1 74.7 3.8 C 75.4 4.6 75.7 5.6 75.6 7.1 C 75.6 7.1 70.8 7.1 70.8 7.1 C 70.8 7.7 71 8.1 71.3 8.4 C 71.6 8.8 71.9 8.9 72.4 8.9 C 72.7 8.9 72.9 8.8 73.1 8.7 C 73.3 8.5 73.5 8.2 73.6 7.9 Z M 73.7 5.9 C 73.7 5.4 73.6 5 73.3 4.7 C 73 4.4 72.7 4.2 72.3 4.2 C 71.9 4.2 71.5 4.4 71.2 4.7 C 71 5 70.8 5.4 70.8 5.9 C 70.8 5.9 73.7 5.9 73.7 5.9 Z M 76.5 8.1 C 76.5 8.1 78.4 7.8 78.4 7.8 C 78.5 8.2 78.7 8.5 78.9 8.7 C 79.2 8.9 79.5 9 80 9 C 80.5 9 80.9 8.9 81.1 8.7 C 81.3 8.6 81.4 8.4 81.4 8.2 C 81.4 8 81.3 7.9 81.2 7.8 C 81.1 7.7 80.9 7.6 80.6 7.6 C 79 7.2 78.1 6.9 77.6 6.6 C 77.1 6.2 76.8 5.7 76.8 5 C 76.8 4.4 77 3.8 77.5 3.4 C 78 3 78.8 2.8 79.8 2.8 C 80.8 2.8 81.6 2.9 82 3.3 C 82.5 3.6 82.9 4.1 83 4.7 C 83 4.7 81.2 5 81.2 5 C 81.2 4.7 81 4.5 80.8 4.4 C 80.6 4.2 80.3 4.1 79.9 4.1 C 79.4 4.1 79 4.2 78.8 4.4 C 78.6 4.5 78.6 4.6 78.6 4.8 C 78.6 4.9 78.6 5 78.8 5.1 C 78.9 5.2 79.5 5.4 80.5 5.6 C 81.6 5.9 82.3 6.2 82.7 6.5 C 83.1 6.8 83.3 7.3 83.3 7.9 C 83.3 8.6 83 9.2 82.5 9.6 C 81.9 10.1 81.1 10.4 80 10.4 C 79 10.4 78.2 10.2 77.6 9.8 C 77.1 9.4 76.7 8.8 76.5 8.1 Z " stroke="none" fill="#000"/>  </g></svg>