<?xml version="1.0" standalone="no"?><!DOCTYPE svg PUBLIC "-//W3C//DTD SVG 1.1//EN" "http://www.w3.org/Graphics/SVG/1.1/DTD/svg11.dtd"><svg xmlns="http://www.w3.org/2000/svg" version="1.1" width="87px" height="23.9px" viewBox="0 -5 87 23.9" style="top:-5px">  <desc>Knowledge</desc>  <defs/>  <g id="Polygon140055">    <path d="M 9.7 10.2 L 9.7 0.2 L 11.1 0.2 L 11.1 5.1 L 16 0.2 L 17.8 0.2 L 13.6 4.2 L 18 10.2 L 16.3 10.2 L 12.7 5.1 L 11.1 6.7 L 11.1 10.2 L 9.7 10.2 Z M 19 10.2 L 19 2.9 L 20.1 2.9 C 20.1 2.9 20.07 3.96 20.1 4 C 20.6 3.2 21.4 2.8 22.4 2.8 C 22.8 2.8 23.2 2.8 23.6 3 C 24 3.2 24.2 3.4 24.4 3.6 C 24.6 3.9 24.7 4.2 24.8 4.5 C 24.8 4.8 24.9 5.2 24.9 5.7 C 24.86 5.73 24.9 10.2 24.9 10.2 L 23.6 10.2 C 23.6 10.2 23.63 5.78 23.6 5.8 C 23.6 5.3 23.6 4.9 23.5 4.7 C 23.4 4.4 23.2 4.2 23 4.1 C 22.7 3.9 22.4 3.8 22.1 3.8 C 21.6 3.8 21.1 4 20.8 4.3 C 20.4 4.7 20.2 5.3 20.2 6.2 C 20.19 6.23 20.2 10.2 20.2 10.2 L 19 10.2 Z M 26.3 6.6 C 26.3 5.2 26.7 4.2 27.4 3.6 C 28 3 28.8 2.8 29.7 2.8 C 30.7 2.8 31.5 3.1 32.1 3.7 C 32.8 4.4 33.1 5.3 33.1 6.5 C 33.1 7.4 33 8.1 32.7 8.7 C 32.4 9.2 32 9.6 31.4 9.9 C 30.9 10.2 30.3 10.4 29.7 10.4 C 28.7 10.4 27.9 10 27.2 9.4 C 26.6 8.7 26.3 7.8 26.3 6.6 Z M 27.6 6.6 C 27.6 7.5 27.8 8.2 28.2 8.7 C 28.6 9.1 29.1 9.3 29.7 9.3 C 30.3 9.3 30.8 9.1 31.2 8.6 C 31.6 8.2 31.8 7.5 31.8 6.5 C 31.8 5.6 31.6 4.9 31.2 4.5 C 30.8 4 30.3 3.8 29.7 3.8 C 29.1 3.8 28.6 4 28.2 4.5 C 27.8 4.9 27.6 5.6 27.6 6.6 Z M 35.9 10.2 L 33.7 2.9 L 34.9 2.9 L 36.1 7.1 C 36.1 7.1 36.51 8.68 36.5 8.7 C 36.5 8.6 36.7 8.1 36.9 7.2 C 36.89 7.18 38 2.9 38 2.9 L 39.3 2.9 L 40.4 7.1 L 40.8 8.5 L 41.2 7.1 L 42.4 2.9 L 43.6 2.9 L 41.3 10.2 L 40.1 10.2 L 38.9 5.8 L 38.6 4.6 L 37.2 10.2 L 35.9 10.2 Z M 44.6 10.2 L 44.6 0.2 L 45.8 0.2 L 45.8 10.2 L 44.6 10.2 Z M 52.7 7.9 C 52.7 7.9 54 8 54 8 C 53.8 8.8 53.4 9.3 52.9 9.7 C 52.3 10.2 51.6 10.4 50.8 10.4 C 49.7 10.4 48.9 10 48.3 9.4 C 47.7 8.7 47.3 7.8 47.3 6.6 C 47.3 5.4 47.7 4.5 48.3 3.8 C 48.9 3.1 49.7 2.8 50.7 2.8 C 51.7 2.8 52.5 3.1 53.1 3.8 C 53.7 4.4 54 5.4 54 6.5 C 54 6.6 54 6.7 54 6.9 C 54 6.9 48.6 6.9 48.6 6.9 C 48.7 7.7 48.9 8.3 49.3 8.7 C 49.7 9.1 50.2 9.3 50.8 9.3 C 51.3 9.3 51.6 9.2 52 9 C 52.3 8.8 52.5 8.4 52.7 7.9 Z M 48.7 5.9 C 48.7 5.9 52.7 5.9 52.7 5.9 C 52.7 5.3 52.5 4.8 52.3 4.5 C 51.9 4 51.4 3.8 50.8 3.8 C 50.2 3.8 49.7 4 49.3 4.3 C 48.9 4.7 48.7 5.2 48.7 5.9 Z M 60.3 10.2 C 60.3 10.2 60.25 9.28 60.3 9.3 C 59.8 10 59.1 10.4 58.2 10.4 C 57.6 10.4 57.1 10.2 56.6 9.9 C 56.1 9.6 55.8 9.1 55.5 8.5 C 55.2 8 55.1 7.3 55.1 6.6 C 55.1 5.8 55.2 5.2 55.5 4.6 C 55.7 4 56.1 3.6 56.5 3.2 C 57 2.9 57.6 2.8 58.2 2.8 C 58.6 2.8 59 2.9 59.3 3 C 59.7 3.2 60 3.5 60.2 3.8 C 60.17 3.77 60.2 0.2 60.2 0.2 L 61.4 0.2 L 61.4 10.2 L 60.3 10.2 Z M 56.4 6.6 C 56.4 7.5 56.6 8.2 57 8.7 C 57.3 9.1 57.8 9.3 58.3 9.3 C 58.9 9.3 59.3 9.1 59.7 8.7 C 60.1 8.2 60.3 7.6 60.3 6.7 C 60.3 5.7 60.1 4.9 59.7 4.5 C 59.3 4 58.8 3.8 58.3 3.8 C 57.7 3.8 57.3 4 56.9 4.5 C 56.5 4.9 56.4 5.6 56.4 6.6 Z M 63.1 10.8 C 63.1 10.8 64.3 11 64.3 11 C 64.3 11.3 64.5 11.6 64.7 11.8 C 65 12 65.4 12.1 66 12.1 C 66.5 12.1 67 12 67.3 11.8 C 67.6 11.6 67.8 11.2 67.9 10.8 C 68 10.6 68 10 68 9.2 C 67.5 9.9 66.8 10.2 66 10.2 C 65 10.2 64.2 9.8 63.7 9.1 C 63.1 8.4 62.9 7.5 62.9 6.5 C 62.9 5.8 63 5.2 63.2 4.6 C 63.5 4 63.8 3.6 64.3 3.2 C 64.8 2.9 65.4 2.8 66 2.8 C 66.9 2.8 67.6 3.1 68.1 3.8 C 68.12 3.81 68.1 2.9 68.1 2.9 L 69.3 2.9 C 69.3 2.9 69.26 9.21 69.3 9.2 C 69.3 10.3 69.1 11.1 68.9 11.6 C 68.7 12.1 68.3 12.5 67.8 12.7 C 67.3 13 66.7 13.1 66 13.1 C 65.1 13.1 64.4 12.9 63.9 12.6 C 63.3 12.2 63.1 11.6 63.1 10.8 Z M 64.1 6.4 C 64.1 7.4 64.3 8.1 64.7 8.5 C 65.1 9 65.5 9.2 66.1 9.2 C 66.7 9.2 67.1 9 67.5 8.5 C 67.9 8.1 68.1 7.4 68.1 6.5 C 68.1 5.6 67.9 4.9 67.5 4.5 C 67.1 4 66.6 3.8 66.1 3.8 C 65.5 3.8 65.1 4 64.7 4.5 C 64.3 4.9 64.1 5.6 64.1 6.4 Z M 76.1 7.9 C 76.1 7.9 77.4 8 77.4 8 C 77.2 8.8 76.8 9.3 76.2 9.7 C 75.7 10.2 75 10.4 74.2 10.4 C 73.1 10.4 72.3 10 71.6 9.4 C 71 8.7 70.7 7.8 70.7 6.6 C 70.7 5.4 71 4.5 71.6 3.8 C 72.3 3.1 73.1 2.8 74.1 2.8 C 75.1 2.8 75.9 3.1 76.5 3.8 C 77.1 4.4 77.4 5.4 77.4 6.5 C 77.4 6.6 77.4 6.7 77.4 6.9 C 77.4 6.9 72 6.9 72 6.9 C 72 7.7 72.2 8.3 72.7 8.7 C 73.1 9.1 73.6 9.3 74.2 9.3 C 74.6 9.3 75 9.2 75.3 9 C 75.6 8.8 75.9 8.4 76.1 7.9 Z M 72 5.9 C 72 5.9 76.1 5.9 76.1 5.9 C 76 5.3 75.9 4.8 75.6 4.5 C 75.2 4 74.7 3.8 74.1 3.8 C 73.5 3.8 73.1 4 72.7 4.3 C 72.3 4.7 72.1 5.2 72 5.9 Z " stroke="none" fill="#fff"/>  </g></svg>