<?xml version="1.0" standalone="no"?><!DOCTYPE svg PUBLIC "-//W3C//DTD SVG 1.1//EN" "http://www.w3.org/Graphics/SVG/1.1/DTD/svg11.dtd"><svg xmlns="http://www.w3.org/2000/svg" version="1.1" width="36px" height="23.9px" viewBox="0 -5 36 23.9" style="top:-5px">  <desc>1 30</desc>  <defs/>  <g id="Polygon145699">    <path d="M 5.2 10.2 L 4 10.2 C 4 10.2 3.99 2.35 4 2.4 C 3.7 2.6 3.3 2.9 2.8 3.2 C 2.3 3.5 1.9 3.7 1.5 3.8 C 1.5 3.8 1.5 2.6 1.5 2.6 C 2.2 2.3 2.8 1.9 3.3 1.5 C 3.8 1 4.2 0.6 4.4 0.1 C 4.42 0.13 5.2 0.1 5.2 0.1 L 5.2 10.2 Z M 12.1 7.2 L 12.1 5.9 L 15.9 5.9 L 15.9 7.2 L 12.1 7.2 Z M 20.8 7.5 C 20.8 7.5 22 7.4 22 7.4 C 22.2 8.1 22.4 8.6 22.8 8.9 C 23.1 9.2 23.5 9.4 24 9.4 C 24.6 9.4 25.1 9.2 25.5 8.8 C 25.9 8.3 26.1 7.9 26.1 7.3 C 26.1 6.7 25.9 6.2 25.5 5.9 C 25.1 5.5 24.7 5.3 24.1 5.3 C 23.9 5.3 23.6 5.4 23.2 5.4 C 23.2 5.4 23.4 4.4 23.4 4.4 C 23.5 4.4 23.5 4.4 23.6 4.4 C 24.1 4.4 24.6 4.2 25 4 C 25.4 3.7 25.6 3.3 25.6 2.7 C 25.6 2.3 25.5 1.9 25.2 1.6 C 24.9 1.3 24.5 1.1 24 1.1 C 23.5 1.1 23.1 1.3 22.8 1.6 C 22.5 1.9 22.3 2.3 22.2 2.9 C 22.2 2.9 20.9 2.7 20.9 2.7 C 21.1 1.9 21.4 1.3 22 0.8 C 22.5 0.4 23.2 0.1 24 0.1 C 24.5 0.1 25 0.2 25.5 0.5 C 25.9 0.7 26.3 1 26.5 1.4 C 26.8 1.8 26.9 2.3 26.9 2.7 C 26.9 3.2 26.8 3.6 26.5 3.9 C 26.3 4.3 26 4.6 25.5 4.8 C 26.1 4.9 26.6 5.2 26.9 5.6 C 27.2 6 27.4 6.6 27.4 7.2 C 27.4 8.1 27.1 8.8 26.4 9.5 C 25.8 10.1 25 10.4 24 10.4 C 23.1 10.4 22.4 10.1 21.8 9.6 C 21.2 9.1 20.9 8.4 20.8 7.5 Z M 29.6 9.3 C 28.9 8.5 28.6 7.1 28.6 5.3 C 28.6 4.1 28.7 3.1 29 2.4 C 29.2 1.7 29.6 1.1 30 0.7 C 30.5 0.3 31.1 0.1 31.9 0.1 C 32.4 0.1 32.9 0.2 33.3 0.5 C 33.7 0.7 34 1 34.3 1.4 C 34.5 1.8 34.8 2.3 34.9 2.9 C 35.1 3.5 35.1 4.3 35.1 5.3 C 35.1 6.4 35 7.4 34.8 8.1 C 34.5 8.8 34.2 9.4 33.7 9.8 C 33.2 10.2 32.6 10.4 31.9 10.4 C 30.9 10.4 30.1 10 29.6 9.3 C 29.6 9.3 29.6 9.3 29.6 9.3 Z M 30.5 1.9 C 30.1 2.5 29.9 3.6 29.9 5.3 C 29.9 6.9 30.1 8 30.4 8.5 C 30.8 9.1 31.3 9.4 31.9 9.4 C 32.4 9.4 32.9 9.1 33.3 8.5 C 33.7 8 33.9 6.9 33.9 5.3 C 33.9 3.6 33.7 2.5 33.3 2 C 32.9 1.4 32.4 1.1 31.8 1.1 C 31.3 1.1 30.8 1.4 30.5 1.9 C 30.5 1.9 30.5 1.9 30.5 1.9 Z " stroke="none" fill="#ffffff"/>  </g></svg>