<?xml version="1.0" standalone="no"?><!DOCTYPE svg PUBLIC "-//W3C//DTD SVG 1.1//EN" "http://www.w3.org/Graphics/SVG/1.1/DTD/svg11.dtd"><svg xmlns="http://www.w3.org/2000/svg" version="1.1" width="309px" height="31.4px" viewBox="0 -5 309 31.4" style="top:-5px">  <desc>Recent Survey Results</desc>  <defs/>  <g id="Polygon141213">    <path d="M 1.5 0.9 C 1.5 0.9 5.12 0.94 5.1 0.9 C 7.9 0.9 9.3 2.5 9.3 4.6 C 9.3 6.3 8.4 7.5 6.7 8 C 7.6 8.4 8 8.8 9.1 10.5 C 9.1 10.5 11.7 14.6 11.7 14.6 L 10 14.6 C 10 14.6 7.56 10.82 7.6 10.8 C 6.3 8.8 5.5 8.4 4.3 8.4 C 4.3 8.38 3 8.4 3 8.4 L 3 14.6 L 1.5 14.6 L 1.5 0.9 Z M 4.4 7.1 C 6.3 7.1 7.7 6.6 7.7 4.6 C 7.7 2.9 6.7 2.3 4.9 2.3 C 4.92 2.26 3 2.3 3 2.3 L 3 7.1 C 3 7.1 4.44 7.06 4.4 7.1 Z M 20.7 0.9 L 20.7 2.3 L 14.7 2.3 L 14.7 7 L 20.5 7 L 20.5 8.4 L 14.7 8.4 L 14.7 13.2 L 20.9 13.2 L 20.9 14.6 L 13.2 14.6 L 13.2 0.9 L 20.7 0.9 Z M 34.5 1.8 C 34.5 1.8 34.5 3.5 34.5 3.5 C 33.1 2.6 31.5 2.2 29.9 2.2 C 26.4 2.2 24.2 4.8 24.2 7.8 C 24.2 10.8 26.4 13.4 29.9 13.4 C 31.6 13.4 33.2 12.9 34.6 12 C 34.6 12 34.6 13.6 34.6 13.6 C 33.1 14.4 31.5 14.8 29.9 14.8 C 25.1 14.8 22.7 11.2 22.7 7.8 C 22.7 3.8 25.8 0.8 29.9 0.8 C 31.4 0.8 33 1.1 34.5 1.8 Z M 44.5 0.9 L 44.5 2.3 L 38.5 2.3 L 38.5 7 L 44.3 7 L 44.3 8.4 L 38.5 8.4 L 38.5 13.2 L 44.6 13.2 L 44.6 14.6 L 37 14.6 L 37 0.9 L 44.5 0.9 Z M 48.3 0.9 L 57.9 12.2 L 57.9 0.9 L 59.4 0.9 L 59.4 14.6 L 58.1 14.6 L 48.5 3.3 L 48.5 14.6 L 47 14.6 L 47 0.9 L 48.3 0.9 Z M 72.4 0.9 L 72.4 2.3 L 67.5 2.3 L 67.5 14.6 L 66 14.6 L 66 2.3 L 61.2 2.3 L 61.2 0.9 L 72.4 0.9 Z M 86.1 1.6 C 86.1 1.6 86.1 3.3 86.1 3.3 C 85.2 2.5 84.2 2.1 83 2.1 C 81.6 2.1 80.7 2.9 80.7 4.1 C 80.7 5 80.9 5.8 83.1 6.9 C 86 8.4 86.6 9.4 86.6 11.2 C 86.6 13.2 85.1 14.8 82.7 14.8 C 81.4 14.8 80.2 14.3 79.2 13.6 C 79.2 13.6 79.2 11.7 79.2 11.7 C 80.2 12.8 81.4 13.4 82.7 13.4 C 84.1 13.4 85.1 12.6 85.1 11.2 C 85.1 10.1 84.7 9.4 82.1 8 C 80 6.9 79.1 5.9 79.1 4.1 C 79.1 2.2 80.8 0.8 83.1 0.8 C 84.1 0.8 85.2 1.1 86.1 1.6 Z M 90.3 0.9 C 90.3 0.9 90.3 8.8 90.3 8.8 C 90.3 11.8 91.7 13.4 94.5 13.4 C 97.4 13.4 98.7 11.8 98.7 8.8 C 98.74 8.8 98.7 0.9 98.7 0.9 L 100.2 0.9 C 100.2 0.9 100.24 8.8 100.2 8.8 C 100.2 12.4 98.3 14.8 94.6 14.8 C 90.8 14.8 88.8 12.6 88.8 8.8 C 88.8 8.8 88.8 0.9 88.8 0.9 L 90.3 0.9 Z M 103.1 0.9 C 103.1 0.9 106.72 0.94 106.7 0.9 C 109.5 0.9 110.9 2.5 110.9 4.6 C 110.9 6.3 110 7.5 108.3 8 C 109.2 8.4 109.6 8.8 110.7 10.5 C 110.7 10.5 113.3 14.6 113.3 14.6 L 111.6 14.6 C 111.6 14.6 109.16 10.82 109.2 10.8 C 107.9 8.8 107.1 8.4 105.9 8.4 C 105.9 8.38 104.6 8.4 104.6 8.4 L 104.6 14.6 L 103.1 14.6 L 103.1 0.9 Z M 106 7.1 C 107.9 7.1 109.3 6.6 109.3 4.6 C 109.3 2.9 108.3 2.3 106.5 2.3 C 106.52 2.26 104.6 2.3 104.6 2.3 L 104.6 7.1 C 104.6 7.1 106.04 7.06 106 7.1 Z M 112.6 0.9 L 114.1 0.9 L 118.6 11.6 L 118.6 11.6 L 123 0.9 L 124.5 0.9 L 118.8 14.7 L 118.4 14.7 L 112.6 0.9 Z M 133.5 0.9 L 133.5 2.3 L 127.6 2.3 L 127.6 7 L 133.3 7 L 133.3 8.4 L 127.6 8.4 L 127.6 13.2 L 133.7 13.2 L 133.7 14.6 L 126.1 14.6 L 126.1 0.9 L 133.5 0.9 Z M 136.8 0.9 L 140.9 6 L 144.9 0.9 L 146.7 0.9 L 141.6 7.3 L 141.6 14.6 L 140.1 14.6 L 140.1 7.3 L 135 0.9 L 136.8 0.9 Z M 153.9 0.9 C 153.9 0.9 157.44 0.94 157.4 0.9 C 160.2 0.9 161.6 2.5 161.6 4.6 C 161.6 6.3 160.7 7.5 159 8 C 159.9 8.4 160.3 8.8 161.4 10.5 C 161.42 10.5 164.1 14.6 164.1 14.6 L 162.3 14.6 C 162.3 14.6 159.88 10.82 159.9 10.8 C 158.6 8.8 157.8 8.4 156.6 8.4 C 156.62 8.38 155.4 8.4 155.4 8.4 L 155.4 14.6 L 153.9 14.6 L 153.9 0.9 Z M 156.8 7.1 C 158.6 7.1 160.1 6.6 160.1 4.6 C 160.1 2.9 159 2.3 157.2 2.3 C 157.24 2.26 155.4 2.3 155.4 2.3 L 155.4 7.1 C 155.4 7.1 156.76 7.06 156.8 7.1 Z M 173 0.9 L 173 2.3 L 167.1 2.3 L 167.1 7 L 172.8 7 L 172.8 8.4 L 167.1 8.4 L 167.1 13.2 L 173.2 13.2 L 173.2 14.6 L 165.6 14.6 L 165.6 0.9 L 173 0.9 Z M 181.9 1.6 C 181.9 1.6 181.9 3.3 181.9 3.3 C 181 2.5 180 2.1 178.8 2.1 C 177.4 2.1 176.5 2.9 176.5 4.1 C 176.5 5 176.7 5.8 178.9 6.9 C 181.8 8.4 182.4 9.4 182.4 11.2 C 182.4 13.2 180.9 14.8 178.5 14.8 C 177.2 14.8 176 14.3 175 13.6 C 175 13.6 175 11.7 175 11.7 C 176 12.8 177.2 13.4 178.5 13.4 C 179.9 13.4 180.9 12.6 180.9 11.2 C 180.9 10.1 180.5 9.4 177.9 8 C 175.8 6.9 174.9 5.9 174.9 4.1 C 174.9 2.2 176.6 0.8 178.9 0.8 C 179.9 0.8 181 1.1 181.9 1.6 Z M 186.1 0.9 C 186.1 0.9 186.1 8.8 186.1 8.8 C 186.1 11.8 187.5 13.4 190.3 13.4 C 193.2 13.4 194.5 11.8 194.5 8.8 C 194.54 8.8 194.5 0.9 194.5 0.9 L 196 0.9 C 196 0.9 196.04 8.8 196 8.8 C 196 12.4 194.1 14.8 190.4 14.8 C 186.6 14.8 184.6 12.6 184.6 8.8 C 184.6 8.8 184.6 0.9 184.6 0.9 L 186.1 0.9 Z M 200.4 0.9 L 200.4 13.2 L 206.9 13.2 L 206.9 14.6 L 198.9 14.6 L 198.9 0.9 L 200.4 0.9 Z M 216.3 0.9 L 216.3 2.3 L 211.5 2.3 L 211.5 14.6 L 210 14.6 L 210 2.3 L 205.1 2.3 L 205.1 0.9 L 216.3 0.9 Z M 224.5 1.6 C 224.5 1.6 224.5 3.3 224.5 3.3 C 223.6 2.5 222.5 2.1 221.4 2.1 C 220 2.1 219 2.9 219 4.1 C 219 5 219.3 5.8 221.5 6.9 C 224.3 8.4 225 9.4 225 11.2 C 225 13.2 223.5 14.8 221.1 14.8 C 219.8 14.8 218.6 14.3 217.6 13.6 C 217.6 13.6 217.6 11.7 217.6 11.7 C 218.6 12.8 219.8 13.4 221.1 13.4 C 222.5 13.4 223.5 12.6 223.5 11.2 C 223.5 10.1 223.1 9.4 220.5 8 C 218.3 6.9 217.5 5.9 217.5 4.1 C 217.5 2.2 219.2 0.8 221.5 0.8 C 222.5 0.8 223.6 1.1 224.5 1.6 Z " stroke="none" fill="#ffffff"/>  </g></svg>