<?xml version="1.0" standalone="no"?><!DOCTYPE svg PUBLIC "-//W3C//DTD SVG 1.1//EN" "http://www.w3.org/Graphics/SVG/1.1/DTD/svg11.dtd"><svg xmlns="http://www.w3.org/2000/svg" version="1.1" width="87px" height="23.9px" viewBox="0 -5 87 23.9" style="top:-5px">  <desc>Professional</desc>  <defs/>  <g id="Polygon139940">    <path d="M 5.9 10.2 L 5.9 0.2 C 5.9 0.2 9.68 0.17 9.7 0.2 C 10.3 0.2 10.9 0.2 11.2 0.3 C 11.7 0.3 12.1 0.5 12.4 0.7 C 12.8 1 13 1.3 13.2 1.7 C 13.4 2.1 13.5 2.6 13.5 3.1 C 13.5 3.9 13.3 4.6 12.7 5.2 C 12.2 5.8 11.2 6.1 9.8 6.1 C 9.8 6.12 7.2 6.1 7.2 6.1 L 7.2 10.2 L 5.9 10.2 Z M 7.2 4.9 C 7.2 4.9 9.82 4.94 9.8 4.9 C 10.7 4.9 11.3 4.8 11.6 4.5 C 12 4.1 12.2 3.7 12.2 3.1 C 12.2 2.7 12.1 2.3 11.9 2 C 11.7 1.7 11.4 1.5 11 1.4 C 10.8 1.4 10.4 1.4 9.8 1.4 C 9.79 1.35 7.2 1.4 7.2 1.4 L 7.2 4.9 Z M 15.1 10.2 L 15.1 2.9 L 16.2 2.9 C 16.2 2.9 16.17 4.03 16.2 4 C 16.5 3.5 16.7 3.2 17 3 C 17.2 2.9 17.5 2.8 17.7 2.8 C 18.2 2.8 18.6 2.9 19 3.2 C 19 3.2 18.6 4.3 18.6 4.3 C 18.3 4.1 18 4 17.7 4 C 17.4 4 17.2 4.1 17 4.3 C 16.7 4.4 16.6 4.7 16.5 5 C 16.4 5.4 16.3 5.9 16.3 6.4 C 16.3 6.39 16.3 10.2 16.3 10.2 L 15.1 10.2 Z M 19.3 6.6 C 19.3 5.2 19.7 4.2 20.4 3.6 C 21 3 21.8 2.8 22.7 2.8 C 23.7 2.8 24.5 3.1 25.1 3.7 C 25.8 4.4 26.1 5.3 26.1 6.5 C 26.1 7.4 25.9 8.1 25.7 8.7 C 25.4 9.2 25 9.6 24.4 9.9 C 23.9 10.2 23.3 10.4 22.7 10.4 C 21.7 10.4 20.9 10 20.2 9.4 C 19.6 8.7 19.3 7.8 19.3 6.6 Z M 20.5 6.6 C 20.5 7.5 20.8 8.2 21.2 8.7 C 21.6 9.1 22.1 9.3 22.7 9.3 C 23.3 9.3 23.8 9.1 24.2 8.6 C 24.6 8.2 24.8 7.5 24.8 6.5 C 24.8 5.6 24.6 4.9 24.2 4.5 C 23.8 4 23.3 3.8 22.7 3.8 C 22.1 3.8 21.6 4 21.2 4.5 C 20.8 4.9 20.5 5.6 20.5 6.6 Z M 27.8 10.2 L 27.8 3.9 L 26.7 3.9 L 26.7 2.9 L 27.8 2.9 C 27.8 2.9 27.82 2.16 27.8 2.2 C 27.8 1.7 27.9 1.3 28 1.1 C 28.1 0.8 28.3 0.5 28.6 0.3 C 28.9 0.1 29.3 0 29.8 0 C 30.2 0 30.6 0 31 0.1 C 31 0.1 30.8 1.2 30.8 1.2 C 30.5 1.2 30.3 1.1 30.1 1.1 C 29.7 1.1 29.4 1.2 29.3 1.4 C 29.1 1.5 29 1.8 29 2.3 C 29.05 2.26 29 2.9 29 2.9 L 30.5 2.9 L 30.5 3.9 L 29 3.9 L 29 10.2 L 27.8 10.2 Z M 36.4 7.9 C 36.4 7.9 37.7 8 37.7 8 C 37.5 8.8 37.1 9.3 36.5 9.7 C 36 10.2 35.3 10.4 34.5 10.4 C 33.4 10.4 32.6 10 31.9 9.4 C 31.3 8.7 31 7.8 31 6.6 C 31 5.4 31.3 4.5 32 3.8 C 32.6 3.1 33.4 2.8 34.4 2.8 C 35.4 2.8 36.2 3.1 36.8 3.8 C 37.4 4.4 37.7 5.4 37.7 6.5 C 37.7 6.6 37.7 6.7 37.7 6.9 C 37.7 6.9 32.3 6.9 32.3 6.9 C 32.3 7.7 32.6 8.3 33 8.7 C 33.4 9.1 33.9 9.3 34.5 9.3 C 34.9 9.3 35.3 9.2 35.6 9 C 35.9 8.8 36.2 8.4 36.4 7.9 Z M 32.3 5.9 C 32.3 5.9 36.4 5.9 36.4 5.9 C 36.3 5.3 36.2 4.8 35.9 4.5 C 35.5 4 35 3.8 34.4 3.8 C 33.8 3.8 33.4 4 33 4.3 C 32.6 4.7 32.4 5.2 32.3 5.9 Z M 38.7 8 C 38.7 8 39.9 7.8 39.9 7.8 C 40 8.3 40.2 8.7 40.5 9 C 40.8 9.2 41.2 9.3 41.8 9.3 C 42.4 9.3 42.8 9.2 43.1 9 C 43.3 8.8 43.5 8.5 43.5 8.2 C 43.5 7.9 43.4 7.7 43.1 7.5 C 42.9 7.4 42.5 7.3 41.9 7.1 C 41 6.9 40.3 6.7 40 6.5 C 39.6 6.4 39.4 6.1 39.2 5.8 C 39 5.5 38.9 5.2 38.9 4.9 C 38.9 4.5 39 4.2 39.1 4 C 39.3 3.7 39.5 3.5 39.7 3.3 C 39.9 3.1 40.2 3 40.5 2.9 C 40.9 2.8 41.2 2.8 41.6 2.8 C 42.2 2.8 42.7 2.9 43.1 3 C 43.5 3.2 43.8 3.4 44 3.7 C 44.2 4 44.4 4.3 44.5 4.8 C 44.5 4.8 43.3 5 43.3 5 C 43.2 4.6 43.1 4.3 42.8 4.1 C 42.5 3.9 42.2 3.8 41.7 3.8 C 41.1 3.8 40.7 3.9 40.5 4.1 C 40.2 4.2 40.1 4.5 40.1 4.7 C 40.1 4.9 40.2 5 40.3 5.1 C 40.4 5.3 40.5 5.4 40.7 5.5 C 40.9 5.5 41.2 5.6 41.8 5.8 C 42.7 6 43.3 6.2 43.6 6.4 C 44 6.5 44.3 6.7 44.4 7 C 44.6 7.3 44.7 7.6 44.7 8.1 C 44.7 8.5 44.6 8.9 44.4 9.2 C 44.1 9.6 43.8 9.9 43.3 10.1 C 42.9 10.3 42.4 10.4 41.8 10.4 C 40.9 10.4 40.2 10.2 39.7 9.8 C 39.2 9.4 38.8 8.8 38.7 8 Z M 45.7 8 C 45.7 8 46.9 7.8 46.9 7.8 C 47 8.3 47.2 8.7 47.5 9 C 47.8 9.2 48.2 9.3 48.8 9.3 C 49.4 9.3 49.8 9.2 50.1 9 C 50.3 8.8 50.5 8.5 50.5 8.2 C 50.5 7.9 50.4 7.7 50.1 7.5 C 49.9 7.4 49.5 7.3 48.9 7.1 C 48 6.9 47.3 6.7 47 6.5 C 46.6 6.4 46.4 6.1 46.2 5.8 C 46 5.5 45.9 5.2 45.9 4.9 C 45.9 4.5 46 4.2 46.1 4 C 46.3 3.7 46.5 3.5 46.7 3.3 C 46.9 3.1 47.2 3 47.5 2.9 C 47.9 2.8 48.2 2.8 48.6 2.8 C 49.2 2.8 49.7 2.9 50.1 3 C 50.5 3.2 50.8 3.4 51 3.7 C 51.2 4 51.4 4.3 51.5 4.8 C 51.5 4.8 50.3 5 50.3 5 C 50.2 4.6 50.1 4.3 49.8 4.1 C 49.5 3.9 49.2 3.8 48.7 3.8 C 48.1 3.8 47.7 3.9 47.5 4.1 C 47.2 4.2 47.1 4.5 47.1 4.7 C 47.1 4.9 47.2 5 47.3 5.1 C 47.4 5.3 47.5 5.4 47.7 5.5 C 47.9 5.5 48.2 5.6 48.8 5.8 C 49.7 6 50.3 6.2 50.6 6.4 C 51 6.5 51.3 6.7 51.4 7 C 51.6 7.3 51.7 7.6 51.7 8.1 C 51.7 8.5 51.6 8.9 51.4 9.2 C 51.1 9.6 50.8 9.9 50.3 10.1 C 49.9 10.3 49.4 10.4 48.8 10.4 C 47.9 10.4 47.2 10.2 46.7 9.8 C 46.2 9.4 45.8 8.8 45.7 8 Z M 53.2 1.6 L 53.2 0.2 L 54.4 0.2 L 54.4 1.6 L 53.2 1.6 Z M 53.2 10.2 L 53.2 2.9 L 54.4 2.9 L 54.4 10.2 L 53.2 10.2 Z M 55.9 6.6 C 55.9 5.2 56.2 4.2 57 3.6 C 57.6 3 58.4 2.8 59.3 2.8 C 60.3 2.8 61.1 3.1 61.7 3.7 C 62.3 4.4 62.7 5.3 62.7 6.5 C 62.7 7.4 62.5 8.1 62.2 8.7 C 62 9.2 61.5 9.6 61 9.9 C 60.5 10.2 59.9 10.4 59.3 10.4 C 58.2 10.4 57.4 10 56.8 9.4 C 56.2 8.7 55.9 7.8 55.9 6.6 Z M 57.1 6.6 C 57.1 7.5 57.3 8.2 57.7 8.7 C 58.1 9.1 58.6 9.3 59.3 9.3 C 59.9 9.3 60.4 9.1 60.8 8.6 C 61.2 8.2 61.4 7.5 61.4 6.5 C 61.4 5.6 61.2 4.9 60.8 4.5 C 60.4 4 59.9 3.8 59.3 3.8 C 58.6 3.8 58.1 4 57.7 4.5 C 57.3 4.9 57.1 5.6 57.1 6.6 Z M 64.1 10.2 L 64.1 2.9 L 65.2 2.9 C 65.2 2.9 65.21 3.96 65.2 4 C 65.7 3.2 66.5 2.8 67.5 2.8 C 68 2.8 68.4 2.8 68.7 3 C 69.1 3.2 69.4 3.4 69.5 3.6 C 69.7 3.9 69.9 4.2 69.9 4.5 C 70 4.8 70 5.2 70 5.7 C 70 5.73 70 10.2 70 10.2 L 68.8 10.2 C 68.8 10.2 68.77 5.78 68.8 5.8 C 68.8 5.3 68.7 4.9 68.6 4.7 C 68.5 4.4 68.4 4.2 68.1 4.1 C 67.9 3.9 67.6 3.8 67.3 3.8 C 66.7 3.8 66.3 4 65.9 4.3 C 65.5 4.7 65.3 5.3 65.3 6.2 C 65.33 6.23 65.3 10.2 65.3 10.2 L 64.1 10.2 Z M 76.9 10.2 C 76.7 9.9 76.7 9.6 76.6 9.3 C 76.2 9.7 75.7 10 75.3 10.1 C 74.9 10.3 74.4 10.4 74 10.4 C 73.2 10.4 72.5 10.2 72.1 9.8 C 71.7 9.4 71.5 8.9 71.5 8.3 C 71.5 7.9 71.6 7.6 71.7 7.3 C 71.9 7 72.1 6.8 72.3 6.6 C 72.6 6.4 72.9 6.3 73.2 6.2 C 73.5 6.1 73.8 6.1 74.3 6 C 75.3 5.9 76.1 5.7 76.5 5.6 C 76.5 5.4 76.5 5.3 76.5 5.3 C 76.5 4.8 76.4 4.4 76.2 4.2 C 75.9 3.9 75.4 3.8 74.8 3.8 C 74.2 3.8 73.8 3.9 73.5 4.1 C 73.2 4.3 73 4.7 72.9 5.2 C 72.9 5.2 71.7 5 71.7 5 C 71.8 4.5 72 4.1 72.2 3.8 C 72.5 3.4 72.8 3.2 73.3 3 C 73.8 2.9 74.3 2.8 75 2.8 C 75.6 2.8 76.1 2.8 76.5 3 C 76.9 3.1 77.1 3.3 77.3 3.5 C 77.5 3.8 77.6 4 77.7 4.4 C 77.7 4.6 77.8 5 77.8 5.5 C 77.8 5.5 77.8 7.2 77.8 7.2 C 77.8 8.3 77.8 9 77.8 9.3 C 77.9 9.6 78 9.9 78.2 10.2 C 78.16 10.19 76.9 10.2 76.9 10.2 C 76.9 10.2 76.87 10.19 76.9 10.2 Z M 76.5 6.5 C 76.1 6.7 75.4 6.9 74.5 7 C 74 7.1 73.6 7.2 73.4 7.3 C 73.2 7.4 73.1 7.5 73 7.7 C 72.8 7.8 72.8 8 72.8 8.2 C 72.8 8.6 72.9 8.8 73.2 9.1 C 73.4 9.3 73.8 9.4 74.2 9.4 C 74.7 9.4 75.1 9.3 75.5 9.1 C 75.9 8.9 76.2 8.6 76.3 8.2 C 76.5 8 76.5 7.5 76.5 7 C 76.5 7 76.5 6.5 76.5 6.5 Z M 79.6 10.2 L 79.6 0.2 L 80.9 0.2 L 80.9 10.2 L 79.6 10.2 Z " stroke="none" fill="#fff"/>  </g></svg>