<?xml version="1.0" standalone="no"?><!DOCTYPE svg PUBLIC "-//W3C//DTD SVG 1.1//EN" "http://www.w3.org/Graphics/SVG/1.1/DTD/svg11.dtd"><svg xmlns="http://www.w3.org/2000/svg" version="1.1" width="280.3px" height="107.9px" viewBox="0 -5 280.3 107.9" style="top:-5px">  <desc>L3 Team Leader L4 Associate Project Manager​ L4 Junior Management Consultant​ L5 Operations Manager L5 Coaching Profe...</desc>  <defs/>  <g id="Polygon132131">    <path d="M 1.1 94.2 L 1.1 84.3 L 3.1 84.3 L 3.1 92.5 L 8.1 92.5 L 8.1 94.2 L 1.1 94.2 Z M 9.1 86.1 L 9.1 84.3 L 15.7 84.3 C 15.7 84.3 15.72 85.7 15.7 85.7 C 15.2 86.2 14.6 87 14.1 88 C 13.5 89 13.1 90.1 12.8 91.2 C 12.5 92.3 12.3 93.3 12.3 94.2 C 12.3 94.2 10.5 94.2 10.5 94.2 C 10.5 92.8 10.8 91.4 11.4 90 C 11.9 88.5 12.6 87.2 13.5 86.1 C 13.51 86.09 9.1 86.1 9.1 86.1 Z M 20.9 91 C 20.9 91 22.1 90.9 22.1 90.9 C 22.2 91.4 22.3 91.8 22.5 92.1 C 22.7 92.4 23.1 92.7 23.5 92.9 C 24 93.1 24.5 93.2 25.1 93.2 C 25.6 93.2 26 93.1 26.4 92.9 C 26.8 92.8 27.1 92.6 27.3 92.3 C 27.5 92.1 27.6 91.8 27.6 91.5 C 27.6 91.2 27.5 90.9 27.3 90.6 C 27.1 90.4 26.8 90.2 26.4 90.1 C 26.1 90 25.5 89.8 24.6 89.6 C 23.7 89.3 23 89.1 22.7 88.9 C 22.2 88.7 21.8 88.4 21.6 88 C 21.4 87.6 21.2 87.2 21.2 86.8 C 21.2 86.3 21.4 85.8 21.7 85.3 C 22 84.9 22.4 84.6 22.9 84.3 C 23.5 84.1 24.1 84 24.8 84 C 25.5 84 26.2 84.1 26.7 84.4 C 27.3 84.6 27.7 85 28 85.4 C 28.3 85.9 28.5 86.4 28.5 87 C 28.5 87 27.3 87.1 27.3 87.1 C 27.2 86.5 27 86 26.6 85.7 C 26.2 85.3 25.6 85.2 24.8 85.2 C 24 85.2 23.4 85.3 23.1 85.6 C 22.7 85.9 22.5 86.3 22.5 86.7 C 22.5 87 22.6 87.3 22.9 87.6 C 23.2 87.8 23.8 88 24.9 88.3 C 26 88.5 26.7 88.7 27.1 88.9 C 27.7 89.2 28.1 89.5 28.4 89.9 C 28.7 90.3 28.8 90.8 28.8 91.4 C 28.8 91.9 28.7 92.4 28.4 92.9 C 28.1 93.3 27.6 93.7 27.1 94 C 26.5 94.2 25.8 94.4 25.1 94.4 C 24.2 94.4 23.5 94.2 22.8 94 C 22.2 93.7 21.8 93.3 21.4 92.8 C 21.1 92.2 20.9 91.6 20.9 91 Z M 35.5 91.9 C 35.5 91.9 36.7 92 36.7 92 C 36.5 92.8 36.2 93.3 35.6 93.7 C 35.1 94.2 34.4 94.4 33.5 94.4 C 32.5 94.4 31.6 94 31 93.4 C 30.4 92.7 30.1 91.8 30.1 90.6 C 30.1 89.4 30.4 88.5 31 87.8 C 31.7 87.1 32.5 86.8 33.5 86.8 C 34.4 86.8 35.2 87.1 35.8 87.8 C 36.5 88.4 36.8 89.4 36.8 90.5 C 36.8 90.6 36.8 90.7 36.8 90.9 C 36.8 90.9 31.3 90.9 31.3 90.9 C 31.4 91.7 31.6 92.3 32 92.7 C 32.4 93.1 32.9 93.3 33.5 93.3 C 34 93.3 34.4 93.2 34.7 93 C 35 92.8 35.3 92.4 35.5 91.9 Z M 31.4 89.9 C 31.4 89.9 35.5 89.9 35.5 89.9 C 35.4 89.3 35.3 88.8 35 88.5 C 34.6 88 34.1 87.8 33.5 87.8 C 32.9 87.8 32.4 88 32.1 88.3 C 31.7 88.7 31.5 89.2 31.4 89.9 Z M 38.3 94.2 L 38.3 86.9 L 39.4 86.9 C 39.4 86.9 39.38 87.96 39.4 88 C 39.9 87.2 40.7 86.8 41.7 86.8 C 42.1 86.8 42.5 86.8 42.9 87 C 43.3 87.2 43.5 87.4 43.7 87.6 C 43.9 87.9 44 88.2 44.1 88.5 C 44.2 88.8 44.2 89.2 44.2 89.7 C 44.17 89.73 44.2 94.2 44.2 94.2 L 42.9 94.2 C 42.9 94.2 42.94 89.78 42.9 89.8 C 42.9 89.3 42.9 88.9 42.8 88.7 C 42.7 88.4 42.5 88.2 42.3 88.1 C 42 87.9 41.8 87.8 41.4 87.8 C 40.9 87.8 40.5 88 40.1 88.3 C 39.7 88.7 39.5 89.3 39.5 90.2 C 39.5 90.23 39.5 94.2 39.5 94.2 L 38.3 94.2 Z M 46.1 85.6 L 46.1 84.2 L 47.3 84.2 L 47.3 85.6 L 46.1 85.6 Z M 46.1 94.2 L 46.1 86.9 L 47.3 86.9 L 47.3 94.2 L 46.1 94.2 Z M 48.7 90.6 C 48.7 89.2 49.1 88.2 49.8 87.6 C 50.5 87 51.2 86.8 52.1 86.8 C 53.1 86.8 53.9 87.1 54.6 87.7 C 55.2 88.4 55.5 89.3 55.5 90.5 C 55.5 91.4 55.4 92.1 55.1 92.7 C 54.8 93.2 54.4 93.6 53.9 93.9 C 53.3 94.2 52.8 94.4 52.1 94.4 C 51.1 94.4 50.3 94 49.7 93.4 C 49 92.7 48.7 91.8 48.7 90.6 Z M 50 90.6 C 50 91.5 50.2 92.2 50.6 92.7 C 51 93.1 51.5 93.3 52.1 93.3 C 52.7 93.3 53.2 93.1 53.6 92.6 C 54 92.2 54.3 91.5 54.3 90.5 C 54.3 89.6 54 88.9 53.6 88.5 C 53.2 88 52.7 87.8 52.1 87.8 C 51.5 87.8 51 88 50.6 88.5 C 50.2 88.9 50 89.6 50 90.6 Z M 56.9 94.2 L 56.9 86.9 L 58.1 86.9 C 58.1 86.9 58.05 88.03 58.1 88 C 58.3 87.5 58.6 87.2 58.8 87 C 59.1 86.9 59.3 86.8 59.6 86.8 C 60 86.8 60.5 86.9 60.9 87.2 C 60.9 87.2 60.5 88.3 60.5 88.3 C 60.2 88.1 59.9 88 59.6 88 C 59.3 88 59.1 88.1 58.8 88.3 C 58.6 88.4 58.5 88.7 58.4 89 C 58.2 89.4 58.2 89.9 58.2 90.4 C 58.17 90.39 58.2 94.2 58.2 94.2 L 56.9 94.2 Z M 65.6 94.2 L 65.6 84.2 L 66.9 84.2 L 66.9 93 L 71.9 93 L 71.9 94.2 L 65.6 94.2 Z M 78.3 91.9 C 78.3 91.9 79.5 92 79.5 92 C 79.3 92.8 79 93.3 78.4 93.7 C 77.9 94.2 77.2 94.4 76.3 94.4 C 75.3 94.4 74.4 94 73.8 93.4 C 73.2 92.7 72.9 91.8 72.9 90.6 C 72.9 89.4 73.2 88.5 73.8 87.8 C 74.5 87.1 75.3 86.8 76.3 86.8 C 77.2 86.8 78 87.1 78.7 87.8 C 79.3 88.4 79.6 89.4 79.6 90.5 C 79.6 90.6 79.6 90.7 79.6 90.9 C 79.6 90.9 74.2 90.9 74.2 90.9 C 74.2 91.7 74.4 92.3 74.8 92.7 C 75.2 93.1 75.7 93.3 76.4 93.3 C 76.8 93.3 77.2 93.2 77.5 93 C 77.8 92.8 78.1 92.4 78.3 91.9 Z M 74.2 89.9 C 74.2 89.9 78.3 89.9 78.3 89.9 C 78.2 89.3 78.1 88.8 77.8 88.5 C 77.4 88 76.9 87.8 76.3 87.8 C 75.7 87.8 75.2 88 74.9 88.3 C 74.5 88.7 74.3 89.2 74.2 89.9 Z M 86.1 94.2 C 85.9 93.9 85.9 93.6 85.8 93.3 C 85.4 93.7 84.9 94 84.5 94.1 C 84.1 94.3 83.6 94.4 83.1 94.4 C 82.3 94.4 81.7 94.2 81.3 93.8 C 80.9 93.4 80.7 92.9 80.7 92.3 C 80.7 91.9 80.7 91.6 80.9 91.3 C 81.1 91 81.3 90.8 81.5 90.6 C 81.8 90.4 82.1 90.3 82.4 90.2 C 82.7 90.1 83 90.1 83.5 90 C 84.5 89.9 85.2 89.7 85.7 89.6 C 85.7 89.4 85.7 89.3 85.7 89.3 C 85.7 88.8 85.6 88.4 85.4 88.2 C 85.1 87.9 84.6 87.8 84 87.8 C 83.4 87.8 83 87.9 82.7 88.1 C 82.4 88.3 82.2 88.7 82.1 89.2 C 82.1 89.2 80.9 89 80.9 89 C 81 88.5 81.2 88.1 81.4 87.8 C 81.7 87.4 82 87.2 82.5 87 C 83 86.9 83.5 86.8 84.2 86.8 C 84.8 86.8 85.3 86.8 85.7 87 C 86 87.1 86.3 87.3 86.5 87.5 C 86.7 87.8 86.8 88 86.9 88.4 C 86.9 88.6 87 89 87 89.5 C 87 89.5 87 91.2 87 91.2 C 87 92.3 87 93 87 93.3 C 87.1 93.6 87.2 93.9 87.3 94.2 C 87.35 94.19 86.1 94.2 86.1 94.2 C 86.1 94.2 86.06 94.19 86.1 94.2 Z M 85.7 90.5 C 85.3 90.7 84.6 90.9 83.7 91 C 83.2 91.1 82.8 91.2 82.6 91.3 C 82.4 91.4 82.3 91.5 82.1 91.7 C 82 91.8 82 92 82 92.2 C 82 92.6 82.1 92.8 82.3 93.1 C 82.6 93.3 83 93.4 83.4 93.4 C 83.9 93.4 84.3 93.3 84.7 93.1 C 85.1 92.9 85.3 92.6 85.5 92.2 C 85.6 92 85.7 91.5 85.7 91 C 85.7 91 85.7 90.5 85.7 90.5 Z M 93.6 94.2 C 93.6 94.2 93.58 93.28 93.6 93.3 C 93.1 94 92.4 94.4 91.5 94.4 C 91 94.4 90.4 94.2 90 93.9 C 89.5 93.6 89.1 93.1 88.8 92.5 C 88.6 92 88.4 91.3 88.4 90.6 C 88.4 89.8 88.5 89.2 88.8 88.6 C 89 88 89.4 87.6 89.9 87.2 C 90.4 86.9 90.9 86.8 91.5 86.8 C 91.9 86.8 92.3 86.9 92.7 87 C 93 87.2 93.3 87.5 93.5 87.8 C 93.5 87.77 93.5 84.2 93.5 84.2 L 94.7 84.2 L 94.7 94.2 L 93.6 94.2 Z M 89.7 90.6 C 89.7 91.5 89.9 92.2 90.3 92.7 C 90.7 93.1 91.1 93.3 91.7 93.3 C 92.2 93.3 92.7 93.1 93 92.7 C 93.4 92.2 93.6 91.6 93.6 90.7 C 93.6 89.7 93.4 88.9 93 88.5 C 92.6 88 92.2 87.8 91.6 87.8 C 91.1 87.8 90.6 88 90.2 88.5 C 89.9 88.9 89.7 89.6 89.7 90.6 Z M 101.6 91.9 C 101.6 91.9 102.9 92 102.9 92 C 102.7 92.8 102.3 93.3 101.8 93.7 C 101.2 94.2 100.5 94.4 99.7 94.4 C 98.6 94.4 97.8 94 97.2 93.4 C 96.6 92.7 96.2 91.8 96.2 90.6 C 96.2 89.4 96.6 88.5 97.2 87.8 C 97.8 87.1 98.6 86.8 99.6 86.8 C 100.6 86.8 101.4 87.1 102 87.8 C 102.6 88.4 102.9 89.4 102.9 90.5 C 102.9 90.6 102.9 90.7 102.9 90.9 C 102.9 90.9 97.5 90.9 97.5 90.9 C 97.6 91.7 97.8 92.3 98.2 92.7 C 98.6 93.1 99.1 93.3 99.7 93.3 C 100.2 93.3 100.5 93.2 100.9 93 C 101.2 92.8 101.4 92.4 101.6 91.9 Z M 97.6 89.9 C 97.6 89.9 101.6 89.9 101.6 89.9 C 101.6 89.3 101.4 88.8 101.2 88.5 C 100.8 88 100.3 87.8 99.6 87.8 C 99.1 87.8 98.6 88 98.2 88.3 C 97.8 88.7 97.6 89.2 97.6 89.9 Z M 104.4 94.2 L 104.4 86.9 L 105.5 86.9 C 105.5 86.9 105.53 88.03 105.5 88 C 105.8 87.5 106.1 87.2 106.3 87 C 106.6 86.9 106.8 86.8 107.1 86.8 C 107.5 86.8 107.9 86.9 108.4 87.2 C 108.4 87.2 107.9 88.3 107.9 88.3 C 107.6 88.1 107.3 88 107 88 C 106.8 88 106.5 88.1 106.3 88.3 C 106.1 88.4 106 88.7 105.9 89 C 105.7 89.4 105.7 89.9 105.7 90.4 C 105.66 90.39 105.7 94.2 105.7 94.2 L 104.4 94.2 Z " stroke="none" fill="#010102"/>  </g>  <g id="Polygon132130">    <path d="M 1.1 77.4 L 1.1 67.5 L 3.1 67.5 L 3.1 75.7 L 8.1 75.7 L 8.1 77.4 L 1.1 77.4 Z M 9.2 74.8 C 9.2 74.8 11.1 74.6 11.1 74.6 C 11.1 75.1 11.3 75.4 11.6 75.6 C 11.8 75.9 12.2 76 12.5 76 C 12.9 76 13.2 75.9 13.5 75.5 C 13.8 75.2 13.9 74.7 13.9 74.1 C 13.9 73.4 13.8 73 13.5 72.7 C 13.2 72.4 12.9 72.2 12.4 72.2 C 11.9 72.2 11.4 72.5 11 72.9 C 10.96 72.95 9.4 72.7 9.4 72.7 L 10.4 67.5 L 15.5 67.5 L 15.5 69.3 L 11.8 69.3 C 11.8 69.3 11.55 71.01 11.5 71 C 12 70.8 12.4 70.7 12.9 70.7 C 13.7 70.7 14.4 71 15 71.6 C 15.6 72.2 15.9 73 15.9 74 C 15.9 74.9 15.7 75.6 15.2 76.2 C 14.5 77.1 13.6 77.6 12.5 77.6 C 11.6 77.6 10.8 77.3 10.2 76.8 C 9.6 76.3 9.3 75.7 9.2 74.8 Z M 28.5 73.9 C 28.5 73.9 29.8 74.2 29.8 74.2 C 29.5 75.3 29 76.1 28.3 76.7 C 27.6 77.3 26.7 77.6 25.6 77.6 C 24.6 77.6 23.7 77.3 23 76.9 C 22.3 76.5 21.8 75.8 21.5 75 C 21.1 74.2 20.9 73.3 20.9 72.3 C 20.9 71.3 21.1 70.4 21.5 69.6 C 21.9 68.8 22.5 68.2 23.2 67.8 C 24 67.4 24.8 67.2 25.7 67.2 C 26.7 67.2 27.5 67.5 28.2 68 C 28.9 68.5 29.3 69.2 29.6 70.1 C 29.6 70.1 28.3 70.4 28.3 70.4 C 28.1 69.7 27.7 69.2 27.3 68.8 C 26.9 68.5 26.3 68.3 25.6 68.3 C 24.9 68.3 24.2 68.5 23.7 68.9 C 23.2 69.3 22.8 69.8 22.6 70.4 C 22.4 71 22.3 71.6 22.3 72.3 C 22.3 73.2 22.4 73.9 22.7 74.5 C 22.9 75.2 23.3 75.6 23.8 76 C 24.3 76.3 24.9 76.4 25.5 76.4 C 26.3 76.4 26.9 76.2 27.4 75.8 C 27.9 75.4 28.3 74.7 28.5 73.9 Z M 30.8 73.8 C 30.8 72.4 31.2 71.4 31.9 70.8 C 32.5 70.2 33.3 70 34.2 70 C 35.2 70 36 70.3 36.7 70.9 C 37.3 71.6 37.6 72.5 37.6 73.7 C 37.6 74.6 37.5 75.3 37.2 75.9 C 36.9 76.4 36.5 76.8 36 77.1 C 35.4 77.4 34.8 77.6 34.2 77.6 C 33.2 77.6 32.4 77.2 31.7 76.6 C 31.1 75.9 30.8 75 30.8 73.8 Z M 32.1 73.8 C 32.1 74.7 32.3 75.4 32.7 75.9 C 33.1 76.3 33.6 76.5 34.2 76.5 C 34.8 76.5 35.3 76.3 35.7 75.8 C 36.1 75.4 36.3 74.7 36.3 73.7 C 36.3 72.8 36.1 72.1 35.7 71.7 C 35.3 71.2 34.8 71 34.2 71 C 33.6 71 33.1 71.2 32.7 71.7 C 32.3 72.1 32.1 72.8 32.1 73.8 Z M 44 77.4 C 43.9 77.1 43.8 76.8 43.8 76.5 C 43.3 76.9 42.9 77.2 42.5 77.3 C 42 77.5 41.6 77.6 41.1 77.6 C 40.3 77.6 39.7 77.4 39.3 77 C 38.8 76.6 38.6 76.1 38.6 75.5 C 38.6 75.1 38.7 74.8 38.9 74.5 C 39 74.2 39.2 74 39.5 73.8 C 39.8 73.6 40.1 73.5 40.4 73.4 C 40.6 73.3 41 73.3 41.5 73.2 C 42.5 73.1 43.2 72.9 43.7 72.8 C 43.7 72.6 43.7 72.5 43.7 72.5 C 43.7 72 43.6 71.6 43.3 71.4 C 43 71.1 42.6 71 41.9 71 C 41.4 71 40.9 71.1 40.7 71.3 C 40.4 71.5 40.2 71.9 40 72.4 C 40 72.4 38.8 72.2 38.8 72.2 C 39 71.7 39.1 71.3 39.4 71 C 39.6 70.6 40 70.4 40.5 70.2 C 40.9 70.1 41.5 70 42.1 70 C 42.7 70 43.2 70 43.6 70.2 C 44 70.3 44.3 70.5 44.5 70.7 C 44.7 71 44.8 71.2 44.9 71.6 C 44.9 71.8 44.9 72.2 44.9 72.7 C 44.9 72.7 44.9 74.4 44.9 74.4 C 44.9 75.5 45 76.2 45 76.5 C 45.1 76.8 45.2 77.1 45.3 77.4 C 45.32 77.39 44 77.4 44 77.4 C 44 77.4 44.03 77.39 44 77.4 Z M 43.7 73.7 C 43.2 73.9 42.6 74.1 41.7 74.2 C 41.2 74.3 40.8 74.4 40.6 74.5 C 40.4 74.6 40.2 74.7 40.1 74.9 C 40 75 39.9 75.2 39.9 75.4 C 39.9 75.8 40.1 76 40.3 76.3 C 40.6 76.5 40.9 76.6 41.4 76.6 C 41.9 76.6 42.3 76.5 42.7 76.3 C 43 76.1 43.3 75.8 43.5 75.4 C 43.6 75.2 43.7 74.7 43.7 74.2 C 43.7 74.2 43.7 73.7 43.7 73.7 Z M 51.6 74.7 C 51.6 74.7 52.8 74.9 52.8 74.9 C 52.6 75.7 52.3 76.4 51.8 76.8 C 51.2 77.3 50.6 77.6 49.8 77.6 C 48.8 77.6 48 77.2 47.4 76.6 C 46.8 75.9 46.5 75 46.5 73.8 C 46.5 73 46.6 72.3 46.8 71.7 C 47.1 71.1 47.5 70.7 48 70.4 C 48.6 70.1 49.1 70 49.8 70 C 50.6 70 51.2 70.2 51.7 70.6 C 52.2 71 52.5 71.5 52.7 72.3 C 52.7 72.3 51.5 72.4 51.5 72.4 C 51.4 72 51.2 71.6 50.9 71.3 C 50.6 71.1 50.2 71 49.8 71 C 49.2 71 48.7 71.2 48.3 71.6 C 47.9 72.1 47.7 72.8 47.7 73.8 C 47.7 74.7 47.9 75.4 48.3 75.9 C 48.7 76.3 49.1 76.5 49.7 76.5 C 50.2 76.5 50.6 76.4 51 76.1 C 51.3 75.8 51.5 75.3 51.6 74.7 Z M 53.8 77.4 L 53.8 67.4 L 55.1 67.4 C 55.1 67.4 55.06 70.97 55.1 71 C 55.6 70.3 56.4 70 57.2 70 C 57.8 70 58.2 70.1 58.6 70.3 C 59 70.5 59.3 70.8 59.5 71.2 C 59.7 71.5 59.7 72.1 59.7 72.8 C 59.75 72.79 59.7 77.4 59.7 77.4 L 58.5 77.4 C 58.5 77.4 58.52 72.79 58.5 72.8 C 58.5 72.2 58.4 71.7 58.1 71.4 C 57.8 71.2 57.5 71 57 71 C 56.6 71 56.3 71.1 56 71.3 C 55.6 71.5 55.4 71.8 55.3 72.1 C 55.1 72.4 55.1 72.9 55.1 73.4 C 55.06 73.42 55.1 77.4 55.1 77.4 L 53.8 77.4 Z M 61.6 68.8 L 61.6 67.4 L 62.9 67.4 L 62.9 68.8 L 61.6 68.8 Z M 61.6 77.4 L 61.6 70.1 L 62.9 70.1 L 62.9 77.4 L 61.6 77.4 Z M 64.7 77.4 L 64.7 70.1 L 65.8 70.1 C 65.8 70.1 65.84 71.16 65.8 71.2 C 66.4 70.4 67.1 70 68.1 70 C 68.6 70 69 70 69.4 70.2 C 69.7 70.4 70 70.6 70.2 70.8 C 70.4 71.1 70.5 71.4 70.6 71.7 C 70.6 72 70.6 72.4 70.6 72.9 C 70.63 72.93 70.6 77.4 70.6 77.4 L 69.4 77.4 C 69.4 77.4 69.4 72.98 69.4 73 C 69.4 72.5 69.4 72.1 69.3 71.9 C 69.2 71.6 69 71.4 68.7 71.3 C 68.5 71.1 68.2 71 67.9 71 C 67.4 71 66.9 71.2 66.5 71.5 C 66.2 71.9 66 72.5 66 73.4 C 65.96 73.43 66 77.4 66 77.4 L 64.7 77.4 Z M 72.3 78 C 72.3 78 73.5 78.2 73.5 78.2 C 73.5 78.5 73.7 78.8 73.9 79 C 74.2 79.2 74.6 79.3 75.2 79.3 C 75.7 79.3 76.2 79.2 76.5 79 C 76.8 78.8 77 78.4 77.1 78 C 77.2 77.8 77.2 77.2 77.2 76.4 C 76.7 77.1 76 77.4 75.2 77.4 C 74.2 77.4 73.4 77 72.9 76.3 C 72.3 75.6 72 74.7 72 73.7 C 72 73 72.2 72.4 72.4 71.8 C 72.7 71.2 73 70.8 73.5 70.4 C 74 70.1 74.5 70 75.2 70 C 76 70 76.8 70.3 77.3 71 C 77.31 71.01 77.3 70.1 77.3 70.1 L 78.4 70.1 C 78.4 70.1 78.44 76.41 78.4 76.4 C 78.4 77.5 78.3 78.3 78.1 78.8 C 77.9 79.3 77.5 79.7 77 79.9 C 76.5 80.2 75.9 80.3 75.2 80.3 C 74.3 80.3 73.6 80.1 73.1 79.8 C 72.5 79.4 72.3 78.8 72.3 78 Z M 73.3 73.6 C 73.3 74.6 73.5 75.3 73.9 75.7 C 74.3 76.2 74.7 76.4 75.3 76.4 C 75.9 76.4 76.3 76.2 76.7 75.7 C 77.1 75.3 77.3 74.6 77.3 73.7 C 77.3 72.8 77.1 72.1 76.7 71.7 C 76.3 71.2 75.8 71 75.3 71 C 74.7 71 74.3 71.2 73.9 71.7 C 73.5 72.1 73.3 72.8 73.3 73.6 Z M 84.3 77.4 L 84.3 67.4 C 84.3 67.4 88.13 67.37 88.1 67.4 C 88.8 67.4 89.3 67.4 89.7 67.5 C 90.1 67.5 90.6 67.7 90.9 67.9 C 91.2 68.2 91.5 68.5 91.7 68.9 C 91.9 69.3 92 69.8 92 70.3 C 92 71.1 91.7 71.8 91.2 72.4 C 90.6 73 89.7 73.3 88.2 73.3 C 88.25 73.32 85.7 73.3 85.7 73.3 L 85.7 77.4 L 84.3 77.4 Z M 85.7 72.1 C 85.7 72.1 88.27 72.14 88.3 72.1 C 89.1 72.1 89.7 72 90.1 71.7 C 90.5 71.3 90.6 70.9 90.6 70.3 C 90.6 69.9 90.5 69.5 90.3 69.2 C 90.1 68.9 89.8 68.7 89.5 68.6 C 89.3 68.6 88.8 68.6 88.2 68.6 C 88.24 68.55 85.7 68.6 85.7 68.6 L 85.7 72.1 Z M 93.5 77.4 L 93.5 70.1 L 94.6 70.1 C 94.6 70.1 94.62 71.23 94.6 71.2 C 94.9 70.7 95.2 70.4 95.4 70.2 C 95.6 70.1 95.9 70 96.2 70 C 96.6 70 97 70.1 97.5 70.4 C 97.5 70.4 97 71.5 97 71.5 C 96.7 71.3 96.4 71.2 96.1 71.2 C 95.9 71.2 95.6 71.3 95.4 71.5 C 95.2 71.6 95 71.9 95 72.2 C 94.8 72.6 94.7 73.1 94.7 73.6 C 94.75 73.59 94.7 77.4 94.7 77.4 L 93.5 77.4 Z M 97.7 73.8 C 97.7 72.4 98.1 71.4 98.9 70.8 C 99.5 70.2 100.2 70 101.1 70 C 102.1 70 103 70.3 103.6 70.9 C 104.2 71.6 104.5 72.5 104.5 73.7 C 104.5 74.6 104.4 75.3 104.1 75.9 C 103.8 76.4 103.4 76.8 102.9 77.1 C 102.4 77.4 101.8 77.6 101.1 77.6 C 100.1 77.6 99.3 77.2 98.7 76.6 C 98 75.9 97.7 75 97.7 73.8 Z M 99 73.8 C 99 74.7 99.2 75.4 99.6 75.9 C 100 76.3 100.5 76.5 101.1 76.5 C 101.7 76.5 102.3 76.3 102.7 75.8 C 103.1 75.4 103.3 74.7 103.3 73.7 C 103.3 72.8 103.1 72.1 102.7 71.7 C 102.3 71.2 101.7 71 101.1 71 C 100.5 71 100 71.2 99.6 71.7 C 99.2 72.1 99 72.8 99 73.8 Z M 106.3 77.4 L 106.3 71.1 L 105.2 71.1 L 105.2 70.1 L 106.3 70.1 C 106.3 70.1 106.27 69.36 106.3 69.4 C 106.3 68.9 106.3 68.5 106.4 68.3 C 106.5 68 106.7 67.7 107 67.5 C 107.3 67.3 107.7 67.2 108.3 67.2 C 108.6 67.2 109 67.2 109.4 67.3 C 109.4 67.3 109.2 68.4 109.2 68.4 C 109 68.4 108.7 68.3 108.5 68.3 C 108.1 68.3 107.9 68.4 107.7 68.6 C 107.6 68.7 107.5 69 107.5 69.5 C 107.5 69.46 107.5 70.1 107.5 70.1 L 108.9 70.1 L 108.9 71.1 L 107.5 71.1 L 107.5 77.4 L 106.3 77.4 Z M 114.8 75.1 C 114.8 75.1 116.1 75.2 116.1 75.2 C 115.9 76 115.5 76.5 115 76.9 C 114.5 77.4 113.8 77.6 112.9 77.6 C 111.9 77.6 111 77.2 110.4 76.6 C 109.8 75.9 109.5 75 109.5 73.8 C 109.5 72.6 109.8 71.7 110.4 71 C 111 70.3 111.8 70 112.8 70 C 113.8 70 114.6 70.3 115.2 71 C 115.8 71.6 116.1 72.6 116.1 73.7 C 116.1 73.8 116.1 73.9 116.1 74.1 C 116.1 74.1 110.7 74.1 110.7 74.1 C 110.8 74.9 111 75.5 111.4 75.9 C 111.8 76.3 112.3 76.5 112.9 76.5 C 113.4 76.5 113.8 76.4 114.1 76.2 C 114.4 76 114.6 75.6 114.8 75.1 Z M 110.8 73.1 C 110.8 73.1 114.9 73.1 114.9 73.1 C 114.8 72.5 114.6 72 114.4 71.7 C 114 71.2 113.5 71 112.9 71 C 112.3 71 111.8 71.2 111.4 71.5 C 111.1 71.9 110.8 72.4 110.8 73.1 Z M 117.2 75.2 C 117.2 75.2 118.4 75 118.4 75 C 118.4 75.5 118.6 75.9 118.9 76.2 C 119.3 76.4 119.7 76.5 120.3 76.5 C 120.8 76.5 121.2 76.4 121.5 76.2 C 121.8 76 121.9 75.7 121.9 75.4 C 121.9 75.1 121.8 74.9 121.6 74.7 C 121.4 74.6 121 74.5 120.3 74.3 C 119.4 74.1 118.8 73.9 118.4 73.7 C 118.1 73.6 117.8 73.3 117.6 73 C 117.5 72.7 117.4 72.4 117.4 72.1 C 117.4 71.7 117.4 71.4 117.6 71.2 C 117.7 70.9 117.9 70.7 118.2 70.5 C 118.4 70.3 118.6 70.2 119 70.1 C 119.3 70 119.7 70 120 70 C 120.6 70 121.1 70.1 121.5 70.2 C 122 70.4 122.3 70.6 122.5 70.9 C 122.7 71.2 122.8 71.5 122.9 72 C 122.9 72 121.7 72.2 121.7 72.2 C 121.7 71.8 121.5 71.5 121.2 71.3 C 121 71.1 120.6 71 120.1 71 C 119.6 71 119.2 71.1 118.9 71.3 C 118.7 71.4 118.6 71.7 118.6 71.9 C 118.6 72.1 118.6 72.2 118.7 72.3 C 118.8 72.5 119 72.6 119.2 72.7 C 119.3 72.7 119.7 72.8 120.3 73 C 121.1 73.2 121.7 73.4 122.1 73.6 C 122.4 73.7 122.7 73.9 122.9 74.2 C 123.1 74.5 123.2 74.8 123.2 75.3 C 123.2 75.7 123.1 76.1 122.8 76.4 C 122.6 76.8 122.2 77.1 121.8 77.3 C 121.3 77.5 120.8 77.6 120.3 77.6 C 119.3 77.6 118.6 77.4 118.1 77 C 117.6 76.6 117.3 76 117.2 75.2 Z M 124.2 75.2 C 124.2 75.2 125.4 75 125.4 75 C 125.4 75.5 125.6 75.9 125.9 76.2 C 126.3 76.4 126.7 76.5 127.3 76.5 C 127.8 76.5 128.2 76.4 128.5 76.2 C 128.8 76 128.9 75.7 128.9 75.4 C 128.9 75.1 128.8 74.9 128.6 74.7 C 128.4 74.6 128 74.5 127.3 74.3 C 126.4 74.1 125.8 73.9 125.4 73.7 C 125.1 73.6 124.8 73.3 124.6 73 C 124.5 72.7 124.4 72.4 124.4 72.1 C 124.4 71.7 124.4 71.4 124.6 71.2 C 124.7 70.9 124.9 70.7 125.2 70.5 C 125.4 70.3 125.6 70.2 126 70.1 C 126.3 70 126.7 70 127 70 C 127.6 70 128.1 70.1 128.5 70.2 C 129 70.4 129.3 70.6 129.5 70.9 C 129.7 71.2 129.8 71.5 129.9 72 C 129.9 72 128.7 72.2 128.7 72.2 C 128.7 71.8 128.5 71.5 128.2 71.3 C 128 71.1 127.6 71 127.1 71 C 126.6 71 126.2 71.1 125.9 71.3 C 125.7 71.4 125.6 71.7 125.6 71.9 C 125.6 72.1 125.6 72.2 125.7 72.3 C 125.8 72.5 126 72.6 126.2 72.7 C 126.3 72.7 126.7 72.8 127.3 73 C 128.1 73.2 128.7 73.4 129.1 73.6 C 129.4 73.7 129.7 73.9 129.9 74.2 C 130.1 74.5 130.2 74.8 130.2 75.3 C 130.2 75.7 130.1 76.1 129.8 76.4 C 129.6 76.8 129.2 77.1 128.8 77.3 C 128.3 77.5 127.8 77.6 127.3 77.6 C 126.3 77.6 125.6 77.4 125.1 77 C 124.6 76.6 124.3 76 124.2 75.2 Z M 131.7 68.8 L 131.7 67.4 L 132.9 67.4 L 132.9 68.8 L 131.7 68.8 Z M 131.7 77.4 L 131.7 70.1 L 132.9 70.1 L 132.9 77.4 L 131.7 77.4 Z M 134.3 73.8 C 134.3 72.4 134.7 71.4 135.4 70.8 C 136.1 70.2 136.8 70 137.7 70 C 138.7 70 139.5 70.3 140.2 70.9 C 140.8 71.6 141.1 72.5 141.1 73.7 C 141.1 74.6 141 75.3 140.7 75.9 C 140.4 76.4 140 76.8 139.5 77.1 C 138.9 77.4 138.3 77.6 137.7 77.6 C 136.7 77.6 135.9 77.2 135.2 76.6 C 134.6 75.9 134.3 75 134.3 73.8 Z M 135.6 73.8 C 135.6 74.7 135.8 75.4 136.2 75.9 C 136.6 76.3 137.1 76.5 137.7 76.5 C 138.3 76.5 138.8 76.3 139.2 75.8 C 139.6 75.4 139.8 74.7 139.8 73.7 C 139.8 72.8 139.6 72.1 139.2 71.7 C 138.8 71.2 138.3 71 137.7 71 C 137.1 71 136.6 71.2 136.2 71.7 C 135.8 72.1 135.6 72.8 135.6 73.8 Z M 142.5 77.4 L 142.5 70.1 L 143.7 70.1 C 143.7 70.1 143.66 71.16 143.7 71.2 C 144.2 70.4 145 70 146 70 C 146.4 70 146.8 70 147.2 70.2 C 147.5 70.4 147.8 70.6 148 70.8 C 148.2 71.1 148.3 71.4 148.4 71.7 C 148.4 72 148.4 72.4 148.4 72.9 C 148.45 72.93 148.4 77.4 148.4 77.4 L 147.2 77.4 C 147.2 77.4 147.22 72.98 147.2 73 C 147.2 72.5 147.2 72.1 147.1 71.9 C 147 71.6 146.8 71.4 146.6 71.3 C 146.3 71.1 146 71 145.7 71 C 145.2 71 144.7 71.2 144.4 71.5 C 144 71.9 143.8 72.5 143.8 73.4 C 143.78 73.43 143.8 77.4 143.8 77.4 L 142.5 77.4 Z M 155.3 77.4 C 155.2 77.1 155.1 76.8 155.1 76.5 C 154.6 76.9 154.2 77.2 153.8 77.3 C 153.3 77.5 152.9 77.6 152.4 77.6 C 151.6 77.6 151 77.4 150.6 77 C 150.1 76.6 149.9 76.1 149.9 75.5 C 149.9 75.1 150 74.8 150.2 74.5 C 150.3 74.2 150.5 74 150.8 73.8 C 151.1 73.6 151.4 73.5 151.7 73.4 C 151.9 73.3 152.3 73.3 152.8 73.2 C 153.8 73.1 154.5 72.9 155 72.8 C 155 72.6 155 72.5 155 72.5 C 155 72 154.9 71.6 154.6 71.4 C 154.3 71.1 153.8 71 153.2 71 C 152.6 71 152.2 71.1 151.9 71.3 C 151.7 71.5 151.5 71.9 151.3 72.4 C 151.3 72.4 150.1 72.2 150.1 72.2 C 150.2 71.7 150.4 71.3 150.7 71 C 150.9 70.6 151.3 70.4 151.8 70.2 C 152.2 70.1 152.8 70 153.4 70 C 154 70 154.5 70 154.9 70.2 C 155.3 70.3 155.6 70.5 155.8 70.7 C 156 71 156.1 71.2 156.2 71.6 C 156.2 71.8 156.2 72.2 156.2 72.7 C 156.2 72.7 156.2 74.4 156.2 74.4 C 156.2 75.5 156.2 76.2 156.3 76.5 C 156.3 76.8 156.4 77.1 156.6 77.4 C 156.6 77.39 155.3 77.4 155.3 77.4 C 155.3 77.4 155.32 77.39 155.3 77.4 Z M 155 73.7 C 154.5 73.9 153.9 74.1 153 74.2 C 152.5 74.3 152.1 74.4 151.9 74.5 C 151.7 74.6 151.5 74.7 151.4 74.9 C 151.3 75 151.2 75.2 151.2 75.4 C 151.2 75.8 151.4 76 151.6 76.3 C 151.9 76.5 152.2 76.6 152.7 76.6 C 153.2 76.6 153.6 76.5 154 76.3 C 154.3 76.1 154.6 75.8 154.8 75.4 C 154.9 75.2 155 74.7 155 74.2 C 155 74.2 155 73.7 155 73.7 Z M 158.1 77.4 L 158.1 67.4 L 159.3 67.4 L 159.3 77.4 L 158.1 77.4 Z " stroke="none" fill="#010102"/>  </g>  <g id="Polygon132129">    <path d="M 1.1 60.6 L 1.1 50.7 L 3.1 50.7 L 3.1 58.9 L 8.1 58.9 L 8.1 60.6 L 1.1 60.6 Z M 9.2 58 C 9.2 58 11.1 57.8 11.1 57.8 C 11.1 58.3 11.3 58.6 11.6 58.8 C 11.8 59.1 12.2 59.2 12.5 59.2 C 12.9 59.2 13.2 59.1 13.5 58.7 C 13.8 58.4 13.9 57.9 13.9 57.3 C 13.9 56.6 13.8 56.2 13.5 55.9 C 13.2 55.6 12.9 55.4 12.4 55.4 C 11.9 55.4 11.4 55.7 11 56.1 C 10.96 56.15 9.4 55.9 9.4 55.9 L 10.4 50.7 L 15.5 50.7 L 15.5 52.5 L 11.8 52.5 C 11.8 52.5 11.55 54.21 11.5 54.2 C 12 54 12.4 53.9 12.9 53.9 C 13.7 53.9 14.4 54.2 15 54.8 C 15.6 55.4 15.9 56.2 15.9 57.2 C 15.9 58.1 15.7 58.8 15.2 59.4 C 14.5 60.3 13.6 60.8 12.5 60.8 C 11.6 60.8 10.8 60.5 10.2 60 C 9.6 59.5 9.3 58.9 9.2 58 Z M 20.9 55.7 C 20.9 54 21.4 52.7 22.2 51.8 C 23.1 50.9 24.3 50.4 25.7 50.4 C 26.6 50.4 27.5 50.6 28.2 51.1 C 28.9 51.5 29.5 52.1 29.9 52.9 C 30.3 53.7 30.5 54.6 30.5 55.6 C 30.5 56.6 30.3 57.5 29.9 58.3 C 29.5 59.1 28.9 59.7 28.1 60.1 C 27.4 60.6 26.6 60.8 25.7 60.8 C 24.8 60.8 23.9 60.5 23.2 60.1 C 22.4 59.6 21.9 59 21.5 58.2 C 21.1 57.4 20.9 56.6 20.9 55.7 Z M 22.3 55.7 C 22.3 56.9 22.6 57.9 23.2 58.6 C 23.9 59.3 24.7 59.6 25.7 59.6 C 26.7 59.6 27.5 59.3 28.2 58.6 C 28.8 57.9 29.1 56.9 29.1 55.6 C 29.1 54.8 29 54.1 28.7 53.5 C 28.4 52.8 28 52.4 27.5 52 C 27 51.7 26.4 51.5 25.7 51.5 C 24.8 51.5 24 51.9 23.3 52.5 C 22.6 53.1 22.3 54.2 22.3 55.7 Z M 32 63.4 L 32 53.3 L 33.2 53.3 C 33.2 53.3 33.16 54.28 33.2 54.3 C 33.4 53.9 33.7 53.6 34.1 53.4 C 34.4 53.3 34.8 53.2 35.3 53.2 C 35.9 53.2 36.4 53.3 36.9 53.6 C 37.4 54 37.7 54.4 38 55 C 38.2 55.6 38.3 56.2 38.3 56.9 C 38.3 57.7 38.2 58.3 37.9 58.9 C 37.7 59.5 37.3 60 36.8 60.3 C 36.3 60.6 35.7 60.8 35.2 60.8 C 34.8 60.8 34.4 60.7 34.1 60.5 C 33.7 60.3 33.5 60.1 33.3 59.8 C 33.27 59.84 33.3 63.4 33.3 63.4 L 32 63.4 Z M 33.2 57 C 33.2 57.9 33.3 58.6 33.7 59.1 C 34.1 59.5 34.6 59.7 35.1 59.7 C 35.6 59.7 36.1 59.5 36.5 59.1 C 36.9 58.6 37.1 57.9 37.1 56.9 C 37.1 56 36.9 55.3 36.5 54.8 C 36.1 54.4 35.7 54.1 35.2 54.1 C 34.6 54.1 34.2 54.4 33.8 54.9 C 33.4 55.4 33.2 56.1 33.2 57 Z M 44.8 58.3 C 44.8 58.3 46.1 58.4 46.1 58.4 C 45.9 59.2 45.5 59.7 45 60.1 C 44.4 60.6 43.7 60.8 42.9 60.8 C 41.8 60.8 41 60.4 40.3 59.8 C 39.7 59.1 39.4 58.2 39.4 57 C 39.4 55.8 39.7 54.9 40.4 54.2 C 41 53.5 41.8 53.2 42.8 53.2 C 43.8 53.2 44.6 53.5 45.2 54.2 C 45.8 54.8 46.1 55.8 46.1 56.9 C 46.1 57 46.1 57.1 46.1 57.3 C 46.1 57.3 40.7 57.3 40.7 57.3 C 40.7 58.1 41 58.7 41.4 59.1 C 41.8 59.5 42.3 59.7 42.9 59.7 C 43.3 59.7 43.7 59.6 44 59.4 C 44.4 59.2 44.6 58.8 44.8 58.3 Z M 40.8 56.3 C 40.8 56.3 44.8 56.3 44.8 56.3 C 44.8 55.7 44.6 55.2 44.3 54.9 C 44 54.4 43.4 54.2 42.8 54.2 C 42.3 54.2 41.8 54.4 41.4 54.7 C 41 55.1 40.8 55.6 40.8 56.3 Z M 47.6 60.6 L 47.6 53.3 L 48.7 53.3 C 48.7 53.3 48.71 54.43 48.7 54.4 C 49 53.9 49.2 53.6 49.5 53.4 C 49.7 53.3 50 53.2 50.3 53.2 C 50.7 53.2 51.1 53.3 51.5 53.6 C 51.5 53.6 51.1 54.7 51.1 54.7 C 50.8 54.5 50.5 54.4 50.2 54.4 C 49.9 54.4 49.7 54.5 49.5 54.7 C 49.3 54.8 49.1 55.1 49 55.4 C 48.9 55.8 48.8 56.3 48.8 56.8 C 48.83 56.79 48.8 60.6 48.8 60.6 L 47.6 60.6 Z M 57.3 60.6 C 57.1 60.3 57 60 57 59.7 C 56.6 60.1 56.1 60.4 55.7 60.5 C 55.3 60.7 54.8 60.8 54.3 60.8 C 53.5 60.8 52.9 60.6 52.5 60.2 C 52.1 59.8 51.9 59.3 51.9 58.7 C 51.9 58.3 51.9 58 52.1 57.7 C 52.3 57.4 52.5 57.2 52.7 57 C 53 56.8 53.3 56.7 53.6 56.6 C 53.9 56.5 54.2 56.5 54.7 56.4 C 55.7 56.3 56.4 56.1 56.9 56 C 56.9 55.8 56.9 55.7 56.9 55.7 C 56.9 55.2 56.8 54.8 56.6 54.6 C 56.3 54.3 55.8 54.2 55.2 54.2 C 54.6 54.2 54.2 54.3 53.9 54.5 C 53.6 54.7 53.4 55.1 53.3 55.6 C 53.3 55.6 52.1 55.4 52.1 55.4 C 52.2 54.9 52.4 54.5 52.6 54.2 C 52.9 53.8 53.2 53.6 53.7 53.4 C 54.2 53.3 54.7 53.2 55.3 53.2 C 56 53.2 56.5 53.2 56.9 53.4 C 57.2 53.5 57.5 53.7 57.7 53.9 C 57.9 54.2 58 54.4 58.1 54.8 C 58.1 55 58.2 55.4 58.2 55.9 C 58.2 55.9 58.2 57.6 58.2 57.6 C 58.2 58.7 58.2 59.4 58.2 59.7 C 58.3 60 58.4 60.3 58.5 60.6 C 58.54 60.59 57.3 60.6 57.3 60.6 C 57.3 60.6 57.26 60.59 57.3 60.6 Z M 56.9 56.9 C 56.5 57.1 55.8 57.3 54.9 57.4 C 54.4 57.5 54 57.6 53.8 57.7 C 53.6 57.8 53.5 57.9 53.3 58.1 C 53.2 58.2 53.2 58.4 53.2 58.6 C 53.2 59 53.3 59.2 53.5 59.5 C 53.8 59.7 54.2 59.8 54.6 59.8 C 55.1 59.8 55.5 59.7 55.9 59.5 C 56.3 59.3 56.5 59 56.7 58.6 C 56.8 58.4 56.9 57.9 56.9 57.4 C 56.9 57.4 56.9 56.9 56.9 56.9 Z M 62.2 59.5 C 62.3 59.5 62.5 59.5 62.7 59.5 C 62.7 59.5 62.9 60.6 62.9 60.6 C 62.6 60.7 62.3 60.7 62 60.7 C 61.5 60.7 61.2 60.6 61 60.5 C 60.7 60.3 60.5 60.1 60.4 59.9 C 60.3 59.7 60.3 59.2 60.3 58.5 C 60.29 58.47 60.3 54.3 60.3 54.3 L 59.4 54.3 L 59.4 53.3 L 60.3 53.3 L 60.3 51.5 L 61.5 50.8 L 61.5 53.3 L 62.7 53.3 L 62.7 54.3 L 61.5 54.3 C 61.5 54.3 61.51 58.53 61.5 58.5 C 61.5 58.9 61.5 59.1 61.6 59.2 C 61.6 59.3 61.7 59.4 61.8 59.5 C 61.9 59.5 62 59.5 62.2 59.5 C 62.2 59.5 62.2 59.5 62.2 59.5 Z M 64 52 L 64 50.6 L 65.2 50.6 L 65.2 52 L 64 52 Z M 64 60.6 L 64 53.3 L 65.2 53.3 L 65.2 60.6 L 64 60.6 Z M 66.6 57 C 66.6 55.6 67 54.6 67.7 54 C 68.3 53.4 69.1 53.2 70 53.2 C 71 53.2 71.8 53.5 72.5 54.1 C 73.1 54.8 73.4 55.7 73.4 56.9 C 73.4 57.8 73.3 58.5 73 59.1 C 72.7 59.6 72.3 60 71.8 60.3 C 71.2 60.6 70.6 60.8 70 60.8 C 69 60.8 68.2 60.4 67.5 59.8 C 66.9 59.1 66.6 58.2 66.6 57 Z M 67.9 57 C 67.9 57.9 68.1 58.6 68.5 59.1 C 68.9 59.5 69.4 59.7 70 59.7 C 70.6 59.7 71.1 59.5 71.5 59 C 71.9 58.6 72.1 57.9 72.1 56.9 C 72.1 56 71.9 55.3 71.5 54.9 C 71.1 54.4 70.6 54.2 70 54.2 C 69.4 54.2 68.9 54.4 68.5 54.9 C 68.1 55.3 67.9 56 67.9 57 Z M 74.8 60.6 L 74.8 53.3 L 76 53.3 C 76 53.3 75.95 54.36 76 54.4 C 76.5 53.6 77.3 53.2 78.3 53.2 C 78.7 53.2 79.1 53.2 79.5 53.4 C 79.8 53.6 80.1 53.8 80.3 54 C 80.5 54.3 80.6 54.6 80.7 54.9 C 80.7 55.2 80.7 55.6 80.7 56.1 C 80.75 56.13 80.7 60.6 80.7 60.6 L 79.5 60.6 C 79.5 60.6 79.52 56.18 79.5 56.2 C 79.5 55.7 79.5 55.3 79.4 55.1 C 79.3 54.8 79.1 54.6 78.9 54.5 C 78.6 54.3 78.3 54.2 78 54.2 C 77.5 54.2 77 54.4 76.6 54.7 C 76.3 55.1 76.1 55.7 76.1 56.6 C 76.08 56.63 76.1 60.6 76.1 60.6 L 74.8 60.6 Z M 82.1 58.4 C 82.1 58.4 83.4 58.2 83.4 58.2 C 83.4 58.7 83.6 59.1 83.9 59.4 C 84.2 59.6 84.7 59.7 85.2 59.7 C 85.8 59.7 86.2 59.6 86.5 59.4 C 86.8 59.2 86.9 58.9 86.9 58.6 C 86.9 58.3 86.8 58.1 86.5 57.9 C 86.4 57.8 86 57.7 85.3 57.5 C 84.4 57.3 83.8 57.1 83.4 56.9 C 83.1 56.8 82.8 56.5 82.6 56.2 C 82.4 55.9 82.3 55.6 82.3 55.3 C 82.3 54.9 82.4 54.6 82.6 54.4 C 82.7 54.1 82.9 53.9 83.2 53.7 C 83.4 53.5 83.6 53.4 84 53.3 C 84.3 53.2 84.6 53.2 85 53.2 C 85.6 53.2 86.1 53.3 86.5 53.4 C 86.9 53.6 87.3 53.8 87.5 54.1 C 87.7 54.4 87.8 54.7 87.9 55.2 C 87.9 55.2 86.7 55.4 86.7 55.4 C 86.6 55 86.5 54.7 86.2 54.5 C 86 54.3 85.6 54.2 85.1 54.2 C 84.5 54.2 84.1 54.3 83.9 54.5 C 83.7 54.6 83.5 54.9 83.5 55.1 C 83.5 55.3 83.6 55.4 83.7 55.5 C 83.8 55.7 83.9 55.8 84.2 55.9 C 84.3 55.9 84.6 56 85.2 56.2 C 86.1 56.4 86.7 56.6 87.1 56.8 C 87.4 56.9 87.7 57.1 87.9 57.4 C 88.1 57.7 88.2 58 88.2 58.5 C 88.2 58.9 88.1 59.3 87.8 59.6 C 87.6 60 87.2 60.3 86.8 60.5 C 86.3 60.7 85.8 60.8 85.2 60.8 C 84.3 60.8 83.6 60.6 83.1 60.2 C 82.6 59.8 82.3 59.2 82.1 58.4 Z M 93.6 60.6 L 93.6 50.6 L 95.6 50.6 C 95.6 50.6 98.01 57.67 98 57.7 C 98.2 58.3 98.4 58.8 98.5 59.1 C 98.6 58.8 98.8 58.3 99 57.5 C 99.02 57.54 101.4 50.6 101.4 50.6 L 103.2 50.6 L 103.2 60.6 L 101.9 60.6 L 101.9 52.2 L 99 60.6 L 97.8 60.6 L 94.9 52.1 L 94.9 60.6 L 93.6 60.6 Z M 110.2 60.6 C 110 60.3 110 60 109.9 59.7 C 109.5 60.1 109 60.4 108.6 60.5 C 108.2 60.7 107.7 60.8 107.2 60.8 C 106.5 60.8 105.8 60.6 105.4 60.2 C 105 59.8 104.8 59.3 104.8 58.7 C 104.8 58.3 104.8 58 105 57.7 C 105.2 57.4 105.4 57.2 105.6 57 C 105.9 56.8 106.2 56.7 106.5 56.6 C 106.8 56.5 107.1 56.5 107.6 56.4 C 108.6 56.3 109.3 56.1 109.8 56 C 109.8 55.8 109.8 55.7 109.8 55.7 C 109.8 55.2 109.7 54.8 109.5 54.6 C 109.2 54.3 108.7 54.2 108.1 54.2 C 107.5 54.2 107.1 54.3 106.8 54.5 C 106.5 54.7 106.3 55.1 106.2 55.6 C 106.2 55.6 105 55.4 105 55.4 C 105.1 54.9 105.3 54.5 105.5 54.2 C 105.8 53.8 106.1 53.6 106.6 53.4 C 107.1 53.3 107.6 53.2 108.3 53.2 C 108.9 53.2 109.4 53.2 109.8 53.4 C 110.2 53.5 110.4 53.7 110.6 53.9 C 110.8 54.2 110.9 54.4 111 54.8 C 111 55 111.1 55.4 111.1 55.9 C 111.1 55.9 111.1 57.6 111.1 57.6 C 111.1 58.7 111.1 59.4 111.1 59.7 C 111.2 60 111.3 60.3 111.5 60.6 C 111.45 60.59 110.2 60.6 110.2 60.6 C 110.2 60.6 110.17 60.59 110.2 60.6 Z M 109.8 56.9 C 109.4 57.1 108.7 57.3 107.8 57.4 C 107.3 57.5 106.9 57.6 106.7 57.7 C 106.5 57.8 106.4 57.9 106.3 58.1 C 106.1 58.2 106.1 58.4 106.1 58.6 C 106.1 59 106.2 59.2 106.5 59.5 C 106.7 59.7 107.1 59.8 107.5 59.8 C 108 59.8 108.4 59.7 108.8 59.5 C 109.2 59.3 109.4 59 109.6 58.6 C 109.8 58.4 109.8 57.9 109.8 57.4 C 109.8 57.4 109.8 56.9 109.8 56.9 Z M 113 60.6 L 113 53.3 L 114.1 53.3 C 114.1 53.3 114.08 54.36 114.1 54.4 C 114.6 53.6 115.4 53.2 116.4 53.2 C 116.8 53.2 117.2 53.2 117.6 53.4 C 118 53.6 118.2 53.8 118.4 54 C 118.6 54.3 118.7 54.6 118.8 54.9 C 118.8 55.2 118.9 55.6 118.9 56.1 C 118.87 56.13 118.9 60.6 118.9 60.6 L 117.6 60.6 C 117.6 60.6 117.64 56.18 117.6 56.2 C 117.6 55.7 117.6 55.3 117.5 55.1 C 117.4 54.8 117.2 54.6 117 54.5 C 116.7 54.3 116.5 54.2 116.1 54.2 C 115.6 54.2 115.2 54.4 114.8 54.7 C 114.4 55.1 114.2 55.7 114.2 56.6 C 114.2 56.63 114.2 60.6 114.2 60.6 L 113 60.6 Z M 125.7 60.6 C 125.6 60.3 125.5 60 125.5 59.7 C 125 60.1 124.6 60.4 124.2 60.5 C 123.8 60.7 123.3 60.8 122.8 60.8 C 122 60.8 121.4 60.6 121 60.2 C 120.6 59.8 120.3 59.3 120.3 58.7 C 120.3 58.3 120.4 58 120.6 57.7 C 120.7 57.4 121 57.2 121.2 57 C 121.5 56.8 121.8 56.7 122.1 56.6 C 122.3 56.5 122.7 56.5 123.2 56.4 C 124.2 56.3 124.9 56.1 125.4 56 C 125.4 55.8 125.4 55.7 125.4 55.7 C 125.4 55.2 125.3 54.8 125 54.6 C 124.7 54.3 124.3 54.2 123.6 54.2 C 123.1 54.2 122.6 54.3 122.4 54.5 C 122.1 54.7 121.9 55.1 121.8 55.6 C 121.8 55.6 120.6 55.4 120.6 55.4 C 120.7 54.9 120.8 54.5 121.1 54.2 C 121.3 53.8 121.7 53.6 122.2 53.4 C 122.7 53.3 123.2 53.2 123.8 53.2 C 124.4 53.2 124.9 53.2 125.3 53.4 C 125.7 53.5 126 53.7 126.2 53.9 C 126.4 54.2 126.5 54.4 126.6 54.8 C 126.6 55 126.6 55.4 126.6 55.9 C 126.6 55.9 126.6 57.6 126.6 57.6 C 126.6 58.7 126.7 59.4 126.7 59.7 C 126.8 60 126.9 60.3 127 60.6 C 127.03 60.59 125.7 60.6 125.7 60.6 C 125.7 60.6 125.74 60.59 125.7 60.6 Z M 125.4 56.9 C 124.9 57.1 124.3 57.3 123.4 57.4 C 122.9 57.5 122.5 57.6 122.3 57.7 C 122.1 57.8 121.9 57.9 121.8 58.1 C 121.7 58.2 121.7 58.4 121.7 58.6 C 121.7 59 121.8 59.2 122 59.5 C 122.3 59.7 122.6 59.8 123.1 59.8 C 123.6 59.8 124 59.7 124.4 59.5 C 124.7 59.3 125 59 125.2 58.6 C 125.3 58.4 125.4 57.9 125.4 57.4 C 125.4 57.4 125.4 56.9 125.4 56.9 Z M 128.3 61.2 C 128.3 61.2 129.5 61.4 129.5 61.4 C 129.6 61.7 129.7 62 129.9 62.2 C 130.2 62.4 130.7 62.5 131.2 62.5 C 131.8 62.5 132.2 62.4 132.5 62.2 C 132.8 62 133 61.6 133.1 61.2 C 133.2 61 133.2 60.4 133.2 59.6 C 132.7 60.3 132 60.6 131.2 60.6 C 130.2 60.6 129.4 60.2 128.9 59.5 C 128.3 58.8 128.1 57.9 128.1 56.9 C 128.1 56.2 128.2 55.6 128.4 55 C 128.7 54.4 129.1 54 129.5 53.6 C 130 53.3 130.6 53.2 131.2 53.2 C 132.1 53.2 132.8 53.5 133.3 54.2 C 133.33 54.21 133.3 53.3 133.3 53.3 L 134.5 53.3 C 134.5 53.3 134.47 59.61 134.5 59.6 C 134.5 60.7 134.4 61.5 134.1 62 C 133.9 62.5 133.5 62.9 133 63.1 C 132.5 63.4 131.9 63.5 131.2 63.5 C 130.3 63.5 129.6 63.3 129.1 63 C 128.6 62.6 128.3 62 128.3 61.2 Z M 129.3 56.8 C 129.3 57.8 129.5 58.5 129.9 58.9 C 130.3 59.4 130.8 59.6 131.3 59.6 C 131.9 59.6 132.4 59.4 132.7 58.9 C 133.1 58.5 133.3 57.8 133.3 56.9 C 133.3 56 133.1 55.3 132.7 54.9 C 132.3 54.4 131.9 54.2 131.3 54.2 C 130.8 54.2 130.3 54.4 129.9 54.9 C 129.5 55.3 129.3 56 129.3 56.8 Z M 141.3 58.3 C 141.3 58.3 142.6 58.4 142.6 58.4 C 142.4 59.2 142 59.7 141.5 60.1 C 140.9 60.6 140.2 60.8 139.4 60.8 C 138.3 60.8 137.5 60.4 136.9 59.8 C 136.2 59.1 135.9 58.2 135.9 57 C 135.9 55.8 136.2 54.9 136.9 54.2 C 137.5 53.5 138.3 53.2 139.3 53.2 C 140.3 53.2 141.1 53.5 141.7 54.2 C 142.3 54.8 142.6 55.8 142.6 56.9 C 142.6 57 142.6 57.1 142.6 57.3 C 142.6 57.3 137.2 57.3 137.2 57.3 C 137.2 58.1 137.5 58.7 137.9 59.1 C 138.3 59.5 138.8 59.7 139.4 59.7 C 139.8 59.7 140.2 59.6 140.5 59.4 C 140.9 59.2 141.1 58.8 141.3 58.3 Z M 137.3 56.3 C 137.3 56.3 141.3 56.3 141.3 56.3 C 141.3 55.7 141.1 55.2 140.8 54.9 C 140.5 54.4 139.9 54.2 139.3 54.2 C 138.8 54.2 138.3 54.4 137.9 54.7 C 137.5 55.1 137.3 55.6 137.3 56.3 Z M 144.1 60.6 L 144.1 53.3 L 145.2 53.3 C 145.2 53.3 145.21 54.43 145.2 54.4 C 145.5 53.9 145.8 53.6 146 53.4 C 146.2 53.3 146.5 53.2 146.8 53.2 C 147.2 53.2 147.6 53.3 148 53.6 C 148 53.6 147.6 54.7 147.6 54.7 C 147.3 54.5 147 54.4 146.7 54.4 C 146.5 54.4 146.2 54.5 146 54.7 C 145.8 54.8 145.6 55.1 145.5 55.4 C 145.4 55.8 145.3 56.3 145.3 56.8 C 145.33 56.79 145.3 60.6 145.3 60.6 L 144.1 60.6 Z " stroke="none" fill="#010102"/>  </g>  <g id="Polygon132128">    <path d="M 1.1 43.8 L 1.1 33.9 L 3.1 33.9 L 3.1 42.1 L 8.1 42.1 L 8.1 43.8 L 1.1 43.8 Z M 12.9 43.8 L 12.9 41.8 L 8.8 41.8 L 8.8 40.1 L 13.2 33.7 L 14.8 33.7 L 14.8 40.1 L 16 40.1 L 16 41.8 L 14.8 41.8 L 14.8 43.8 L 12.9 43.8 Z M 12.9 40.1 L 12.9 36.7 L 10.6 40.1 L 12.9 40.1 Z M 20.6 40.9 C 20.6 40.9 21.8 40.8 21.8 40.8 C 21.9 41.6 22 42.1 22.3 42.4 C 22.5 42.6 22.9 42.8 23.3 42.8 C 23.6 42.8 23.9 42.7 24.2 42.6 C 24.4 42.4 24.6 42.2 24.7 41.9 C 24.8 41.7 24.8 41.2 24.8 40.7 C 24.81 40.68 24.8 33.8 24.8 33.8 L 26.1 33.8 C 26.1 33.8 26.14 40.6 26.1 40.6 C 26.1 41.4 26 42.1 25.8 42.5 C 25.6 43 25.3 43.4 24.9 43.6 C 24.4 43.8 23.9 44 23.3 44 C 22.4 44 21.8 43.7 21.3 43.2 C 20.8 42.7 20.6 41.9 20.6 40.9 Z M 32.9 43.8 C 32.9 43.8 32.91 42.73 32.9 42.7 C 32.3 43.5 31.6 44 30.6 44 C 30.2 44 29.8 43.9 29.4 43.7 C 29 43.5 28.8 43.3 28.6 43.1 C 28.4 42.8 28.3 42.5 28.2 42.2 C 28.1 41.9 28.1 41.6 28.1 41 C 28.12 41.03 28.1 36.5 28.1 36.5 L 29.4 36.5 C 29.4 36.5 29.35 40.56 29.4 40.6 C 29.4 41.2 29.4 41.6 29.4 41.9 C 29.5 42.2 29.7 42.4 29.9 42.6 C 30.2 42.8 30.5 42.9 30.9 42.9 C 31.2 42.9 31.6 42.8 31.9 42.6 C 32.2 42.4 32.4 42.2 32.6 41.8 C 32.7 41.5 32.8 41 32.8 40.4 C 32.78 40.42 32.8 36.5 32.8 36.5 L 34 36.5 L 34 43.8 L 32.9 43.8 Z M 35.9 43.8 L 35.9 36.5 L 37 36.5 C 37 36.5 37.04 37.56 37 37.6 C 37.6 36.8 38.3 36.4 39.4 36.4 C 39.8 36.4 40.2 36.4 40.6 36.6 C 40.9 36.8 41.2 37 41.4 37.2 C 41.6 37.5 41.7 37.8 41.8 38.1 C 41.8 38.4 41.8 38.8 41.8 39.3 C 41.84 39.33 41.8 43.8 41.8 43.8 L 40.6 43.8 C 40.6 43.8 40.61 39.38 40.6 39.4 C 40.6 38.9 40.6 38.5 40.5 38.3 C 40.4 38 40.2 37.8 40 37.7 C 39.7 37.5 39.4 37.4 39.1 37.4 C 38.6 37.4 38.1 37.6 37.7 37.9 C 37.4 38.3 37.2 38.9 37.2 39.8 C 37.17 39.83 37.2 43.8 37.2 43.8 L 35.9 43.8 Z M 43.7 35.2 L 43.7 33.8 L 45 33.8 L 45 35.2 L 43.7 35.2 Z M 43.7 43.8 L 43.7 36.5 L 45 36.5 L 45 43.8 L 43.7 43.8 Z M 46.4 40.2 C 46.4 38.8 46.7 37.8 47.5 37.2 C 48.1 36.6 48.9 36.4 49.8 36.4 C 50.8 36.4 51.6 36.7 52.2 37.3 C 52.9 38 53.2 38.9 53.2 40.1 C 53.2 41 53 41.7 52.8 42.3 C 52.5 42.8 52.1 43.2 51.5 43.5 C 51 43.8 50.4 44 49.8 44 C 48.8 44 47.9 43.6 47.3 43 C 46.7 42.3 46.4 41.4 46.4 40.2 Z M 47.6 40.2 C 47.6 41.1 47.8 41.8 48.2 42.3 C 48.7 42.7 49.2 42.9 49.8 42.9 C 50.4 42.9 50.9 42.7 51.3 42.2 C 51.7 41.8 51.9 41.1 51.9 40.1 C 51.9 39.2 51.7 38.5 51.3 38.1 C 50.9 37.6 50.4 37.4 49.8 37.4 C 49.2 37.4 48.7 37.6 48.2 38.1 C 47.8 38.5 47.6 39.2 47.6 40.2 Z M 54.6 43.8 L 54.6 36.5 L 55.7 36.5 C 55.7 36.5 55.71 37.63 55.7 37.6 C 56 37.1 56.3 36.8 56.5 36.6 C 56.7 36.5 57 36.4 57.3 36.4 C 57.7 36.4 58.1 36.5 58.5 36.8 C 58.5 36.8 58.1 37.9 58.1 37.9 C 57.8 37.7 57.5 37.6 57.2 37.6 C 57 37.6 56.7 37.7 56.5 37.9 C 56.3 38 56.1 38.3 56 38.6 C 55.9 39 55.8 39.5 55.8 40 C 55.84 39.99 55.8 43.8 55.8 43.8 L 54.6 43.8 Z M 63.3 43.8 L 63.3 33.8 L 65.3 33.8 C 65.3 33.8 67.66 40.87 67.7 40.9 C 67.9 41.5 68 42 68.1 42.4 C 68.2 42 68.4 41.5 68.7 40.7 C 68.67 40.74 71.1 33.8 71.1 33.8 L 72.9 33.8 L 72.9 43.8 L 71.6 43.8 L 71.6 35.4 L 68.7 43.8 L 67.5 43.8 L 64.6 35.3 L 64.6 43.8 L 63.3 43.8 Z M 79.8 43.8 C 79.7 43.5 79.6 43.2 79.6 42.9 C 79.1 43.3 78.7 43.6 78.3 43.7 C 77.8 43.9 77.4 44 76.9 44 C 76.1 44 75.5 43.8 75.1 43.4 C 74.6 43 74.4 42.5 74.4 41.9 C 74.4 41.5 74.5 41.2 74.7 40.9 C 74.8 40.6 75 40.4 75.3 40.2 C 75.6 40 75.9 39.9 76.2 39.8 C 76.4 39.7 76.8 39.7 77.3 39.6 C 78.3 39.5 79 39.3 79.5 39.2 C 79.5 39 79.5 38.9 79.5 38.9 C 79.5 38.4 79.4 38 79.1 37.8 C 78.8 37.5 78.3 37.4 77.7 37.4 C 77.1 37.4 76.7 37.5 76.4 37.7 C 76.2 37.9 76 38.3 75.8 38.8 C 75.8 38.8 74.6 38.6 74.6 38.6 C 74.7 38.1 74.9 37.7 75.2 37.4 C 75.4 37 75.8 36.8 76.3 36.6 C 76.7 36.5 77.3 36.4 77.9 36.4 C 78.5 36.4 79 36.4 79.4 36.6 C 79.8 36.7 80.1 36.9 80.3 37.1 C 80.4 37.4 80.6 37.6 80.7 38 C 80.7 38.2 80.7 38.6 80.7 39.1 C 80.7 39.1 80.7 40.8 80.7 40.8 C 80.7 41.9 80.7 42.6 80.8 42.9 C 80.8 43.2 80.9 43.5 81.1 43.8 C 81.1 43.79 79.8 43.8 79.8 43.8 C 79.8 43.8 79.82 43.79 79.8 43.8 Z M 79.5 40.1 C 79 40.3 78.4 40.5 77.5 40.6 C 77 40.7 76.6 40.8 76.4 40.9 C 76.2 41 76 41.1 75.9 41.3 C 75.8 41.4 75.7 41.6 75.7 41.8 C 75.7 42.2 75.9 42.4 76.1 42.7 C 76.3 42.9 76.7 43 77.2 43 C 77.7 43 78.1 42.9 78.5 42.7 C 78.8 42.5 79.1 42.2 79.3 41.8 C 79.4 41.6 79.5 41.1 79.5 40.6 C 79.5 40.6 79.5 40.1 79.5 40.1 Z M 82.6 43.8 L 82.6 36.5 L 83.7 36.5 C 83.7 36.5 83.73 37.56 83.7 37.6 C 84.3 36.8 85 36.4 86 36.4 C 86.5 36.4 86.9 36.4 87.2 36.6 C 87.6 36.8 87.9 37 88.1 37.2 C 88.2 37.5 88.4 37.8 88.5 38.1 C 88.5 38.4 88.5 38.8 88.5 39.3 C 88.52 39.33 88.5 43.8 88.5 43.8 L 87.3 43.8 C 87.3 43.8 87.29 39.38 87.3 39.4 C 87.3 38.9 87.2 38.5 87.1 38.3 C 87 38 86.9 37.8 86.6 37.7 C 86.4 37.5 86.1 37.4 85.8 37.4 C 85.3 37.4 84.8 37.6 84.4 37.9 C 84 38.3 83.8 38.9 83.8 39.8 C 83.85 39.83 83.8 43.8 83.8 43.8 L 82.6 43.8 Z M 95.4 43.8 C 95.3 43.5 95.2 43.2 95.1 42.9 C 94.7 43.3 94.2 43.6 93.8 43.7 C 93.4 43.9 93 44 92.5 44 C 91.7 44 91.1 43.8 90.6 43.4 C 90.2 43 90 42.5 90 41.9 C 90 41.5 90.1 41.2 90.2 40.9 C 90.4 40.6 90.6 40.4 90.9 40.2 C 91.1 40 91.4 39.9 91.8 39.8 C 92 39.7 92.4 39.7 92.8 39.6 C 93.8 39.5 94.6 39.3 95 39.2 C 95 39 95 38.9 95 38.9 C 95 38.4 94.9 38 94.7 37.8 C 94.4 37.5 93.9 37.4 93.3 37.4 C 92.7 37.4 92.3 37.5 92 37.7 C 91.7 37.9 91.5 38.3 91.4 38.8 C 91.4 38.8 90.2 38.6 90.2 38.6 C 90.3 38.1 90.5 37.7 90.7 37.4 C 91 37 91.4 36.8 91.8 36.6 C 92.3 36.5 92.9 36.4 93.5 36.4 C 94.1 36.4 94.6 36.4 95 36.6 C 95.4 36.7 95.7 36.9 95.8 37.1 C 96 37.4 96.1 37.6 96.2 38 C 96.3 38.2 96.3 38.6 96.3 39.1 C 96.3 39.1 96.3 40.8 96.3 40.8 C 96.3 41.9 96.3 42.6 96.4 42.9 C 96.4 43.2 96.5 43.5 96.7 43.8 C 96.67 43.79 95.4 43.8 95.4 43.8 C 95.4 43.8 95.39 43.79 95.4 43.8 Z M 95 40.1 C 94.6 40.3 93.9 40.5 93 40.6 C 92.5 40.7 92.2 40.8 92 40.9 C 91.7 41 91.6 41.1 91.5 41.3 C 91.4 41.4 91.3 41.6 91.3 41.8 C 91.3 42.2 91.4 42.4 91.7 42.7 C 91.9 42.9 92.3 43 92.8 43 C 93.2 43 93.7 42.9 94 42.7 C 94.4 42.5 94.7 42.2 94.8 41.8 C 95 41.6 95 41.1 95 40.6 C 95 40.6 95 40.1 95 40.1 Z M 98 44.4 C 98 44.4 99.2 44.6 99.2 44.6 C 99.2 44.9 99.4 45.2 99.6 45.4 C 99.9 45.6 100.3 45.7 100.8 45.7 C 101.4 45.7 101.8 45.6 102.1 45.4 C 102.5 45.2 102.7 44.8 102.8 44.4 C 102.8 44.2 102.9 43.6 102.9 42.8 C 102.3 43.5 101.7 43.8 100.9 43.8 C 99.9 43.8 99.1 43.4 98.5 42.7 C 98 42 97.7 41.1 97.7 40.1 C 97.7 39.4 97.8 38.8 98.1 38.2 C 98.3 37.6 98.7 37.2 99.2 36.8 C 99.7 36.5 100.2 36.4 100.9 36.4 C 101.7 36.4 102.4 36.7 103 37.4 C 102.98 37.41 103 36.5 103 36.5 L 104.1 36.5 C 104.1 36.5 104.12 42.81 104.1 42.8 C 104.1 43.9 104 44.7 103.8 45.2 C 103.5 45.7 103.2 46.1 102.7 46.3 C 102.2 46.6 101.6 46.7 100.8 46.7 C 100 46.7 99.3 46.5 98.7 46.2 C 98.2 45.8 97.9 45.2 98 44.4 Z M 99 40 C 99 41 99.2 41.7 99.6 42.1 C 99.9 42.6 100.4 42.8 101 42.8 C 101.5 42.8 102 42.6 102.4 42.1 C 102.8 41.7 103 41 103 40.1 C 103 39.2 102.8 38.5 102.4 38.1 C 102 37.6 101.5 37.4 101 37.4 C 100.4 37.4 99.9 37.6 99.6 38.1 C 99.2 38.5 99 39.2 99 40 Z M 110.9 41.5 C 110.9 41.5 112.2 41.6 112.2 41.6 C 112 42.4 111.6 42.9 111.1 43.3 C 110.6 43.8 109.9 44 109 44 C 108 44 107.1 43.6 106.5 43 C 105.9 42.3 105.6 41.4 105.6 40.2 C 105.6 39 105.9 38.1 106.5 37.4 C 107.1 36.7 108 36.4 109 36.4 C 109.9 36.4 110.7 36.7 111.3 37.4 C 112 38 112.3 39 112.3 40.1 C 112.3 40.2 112.3 40.3 112.3 40.5 C 112.3 40.5 106.8 40.5 106.8 40.5 C 106.9 41.3 107.1 41.9 107.5 42.3 C 107.9 42.7 108.4 42.9 109 42.9 C 109.5 42.9 109.9 42.8 110.2 42.6 C 110.5 42.4 110.8 42 110.9 41.5 Z M 106.9 39.5 C 106.9 39.5 111 39.5 111 39.5 C 110.9 38.9 110.8 38.4 110.5 38.1 C 110.1 37.6 109.6 37.4 109 37.4 C 108.4 37.4 107.9 37.6 107.5 37.9 C 107.2 38.3 106.9 38.8 106.9 39.5 Z M 113.8 43.8 L 113.8 36.5 L 114.9 36.5 C 114.9 36.5 114.86 37.55 114.9 37.6 C 115.1 37.2 115.4 36.9 115.8 36.7 C 116.2 36.5 116.6 36.4 117.1 36.4 C 117.6 36.4 118 36.5 118.4 36.7 C 118.7 36.9 119 37.2 119.1 37.6 C 119.7 36.8 120.4 36.4 121.4 36.4 C 122.1 36.4 122.6 36.6 123 37 C 123.4 37.4 123.6 38 123.6 38.8 C 123.6 38.81 123.6 43.8 123.6 43.8 L 122.4 43.8 C 122.4 43.8 122.38 39.22 122.4 39.2 C 122.4 38.7 122.3 38.4 122.3 38.2 C 122.2 37.9 122 37.8 121.8 37.6 C 121.6 37.5 121.4 37.4 121.1 37.4 C 120.6 37.4 120.2 37.6 119.8 37.9 C 119.5 38.3 119.3 38.8 119.3 39.6 C 119.31 39.57 119.3 43.8 119.3 43.8 L 118.1 43.8 C 118.1 43.8 118.08 39.08 118.1 39.1 C 118.1 38.5 118 38.1 117.8 37.8 C 117.6 37.6 117.2 37.4 116.8 37.4 C 116.4 37.4 116.1 37.5 115.8 37.7 C 115.5 37.9 115.3 38.2 115.2 38.5 C 115.1 38.9 115 39.4 115 40 C 114.99 40.03 115 43.8 115 43.8 L 113.8 43.8 Z M 130.4 41.5 C 130.4 41.5 131.7 41.6 131.7 41.6 C 131.5 42.4 131.1 42.9 130.6 43.3 C 130 43.8 129.3 44 128.5 44 C 127.4 44 126.6 43.6 125.9 43 C 125.3 42.3 125 41.4 125 40.2 C 125 39 125.3 38.1 126 37.4 C 126.6 36.7 127.4 36.4 128.4 36.4 C 129.4 36.4 130.2 36.7 130.8 37.4 C 131.4 38 131.7 39 131.7 40.1 C 131.7 40.2 131.7 40.3 131.7 40.5 C 131.7 40.5 126.3 40.5 126.3 40.5 C 126.3 41.3 126.6 41.9 127 42.3 C 127.4 42.7 127.9 42.9 128.5 42.9 C 128.9 42.9 129.3 42.8 129.6 42.6 C 130 42.4 130.2 42 130.4 41.5 Z M 126.4 39.5 C 126.4 39.5 130.4 39.5 130.4 39.5 C 130.4 38.9 130.2 38.4 129.9 38.1 C 129.6 37.6 129 37.4 128.4 37.4 C 127.9 37.4 127.4 37.6 127 37.9 C 126.6 38.3 126.4 38.8 126.4 39.5 Z M 133.2 43.8 L 133.2 36.5 L 134.3 36.5 C 134.3 36.5 134.32 37.56 134.3 37.6 C 134.9 36.8 135.6 36.4 136.6 36.4 C 137.1 36.4 137.5 36.4 137.8 36.6 C 138.2 36.8 138.5 37 138.7 37.2 C 138.8 37.5 139 37.8 139 38.1 C 139.1 38.4 139.1 38.8 139.1 39.3 C 139.11 39.33 139.1 43.8 139.1 43.8 L 137.9 43.8 C 137.9 43.8 137.88 39.38 137.9 39.4 C 137.9 38.9 137.8 38.5 137.7 38.3 C 137.6 38 137.5 37.8 137.2 37.7 C 137 37.5 136.7 37.4 136.4 37.4 C 135.8 37.4 135.4 37.6 135 37.9 C 134.6 38.3 134.4 38.9 134.4 39.8 C 134.44 39.83 134.4 43.8 134.4 43.8 L 133.2 43.8 Z M 143.1 42.7 C 143.3 42.7 143.5 42.7 143.7 42.7 C 143.7 42.7 143.9 43.8 143.9 43.8 C 143.5 43.9 143.2 43.9 142.9 43.9 C 142.5 43.9 142.1 43.8 141.9 43.7 C 141.6 43.5 141.5 43.3 141.4 43.1 C 141.3 42.9 141.2 42.4 141.2 41.7 C 141.22 41.67 141.2 37.5 141.2 37.5 L 140.3 37.5 L 140.3 36.5 L 141.2 36.5 L 141.2 34.7 L 142.4 34 L 142.4 36.5 L 143.7 36.5 L 143.7 37.5 L 142.4 37.5 C 142.4 37.5 142.45 41.73 142.4 41.7 C 142.4 42.1 142.5 42.3 142.5 42.4 C 142.6 42.5 142.6 42.6 142.7 42.7 C 142.8 42.7 143 42.7 143.1 42.7 C 143.1 42.7 143.1 42.7 143.1 42.7 Z M 156.1 40.3 C 156.1 40.3 157.4 40.6 157.4 40.6 C 157.1 41.7 156.6 42.5 155.9 43.1 C 155.2 43.7 154.3 44 153.3 44 C 152.2 44 151.3 43.7 150.6 43.3 C 149.9 42.9 149.4 42.2 149.1 41.4 C 148.7 40.6 148.6 39.7 148.6 38.7 C 148.6 37.7 148.8 36.8 149.1 36 C 149.5 35.2 150.1 34.6 150.9 34.2 C 151.6 33.8 152.4 33.6 153.3 33.6 C 154.3 33.6 155.1 33.9 155.8 34.4 C 156.5 34.9 157 35.6 157.2 36.5 C 157.2 36.5 155.9 36.8 155.9 36.8 C 155.7 36.1 155.4 35.6 154.9 35.2 C 154.5 34.9 153.9 34.7 153.3 34.7 C 152.5 34.7 151.8 34.9 151.3 35.3 C 150.8 35.7 150.4 36.2 150.2 36.8 C 150 37.4 149.9 38 149.9 38.7 C 149.9 39.6 150 40.3 150.3 40.9 C 150.5 41.6 150.9 42 151.5 42.4 C 152 42.7 152.5 42.8 153.2 42.8 C 153.9 42.8 154.5 42.6 155 42.2 C 155.6 41.8 155.9 41.1 156.1 40.3 Z M 158.4 40.2 C 158.4 38.8 158.8 37.8 159.6 37.2 C 160.2 36.6 160.9 36.4 161.8 36.4 C 162.8 36.4 163.6 36.7 164.3 37.3 C 164.9 38 165.2 38.9 165.2 40.1 C 165.2 41 165.1 41.7 164.8 42.3 C 164.5 42.8 164.1 43.2 163.6 43.5 C 163.1 43.8 162.5 44 161.8 44 C 160.8 44 160 43.6 159.4 43 C 158.7 42.3 158.4 41.4 158.4 40.2 Z M 159.7 40.2 C 159.7 41.1 159.9 41.8 160.3 42.3 C 160.7 42.7 161.2 42.9 161.8 42.9 C 162.4 42.9 163 42.7 163.4 42.2 C 163.8 41.8 164 41.1 164 40.1 C 164 39.2 163.8 38.5 163.4 38.1 C 162.9 37.6 162.4 37.4 161.8 37.4 C 161.2 37.4 160.7 37.6 160.3 38.1 C 159.9 38.5 159.7 39.2 159.7 40.2 Z M 166.7 43.8 L 166.7 36.5 L 167.8 36.5 C 167.8 36.5 167.78 37.56 167.8 37.6 C 168.3 36.8 169.1 36.4 170.1 36.4 C 170.5 36.4 170.9 36.4 171.3 36.6 C 171.7 36.8 171.9 37 172.1 37.2 C 172.3 37.5 172.4 37.8 172.5 38.1 C 172.6 38.4 172.6 38.8 172.6 39.3 C 172.57 39.33 172.6 43.8 172.6 43.8 L 171.3 43.8 C 171.3 43.8 171.34 39.38 171.3 39.4 C 171.3 38.9 171.3 38.5 171.2 38.3 C 171.1 38 170.9 37.8 170.7 37.7 C 170.4 37.5 170.2 37.4 169.8 37.4 C 169.3 37.4 168.9 37.6 168.5 37.9 C 168.1 38.3 167.9 38.9 167.9 39.8 C 167.9 39.83 167.9 43.8 167.9 43.8 L 166.7 43.8 Z M 174 41.6 C 174 41.6 175.2 41.4 175.2 41.4 C 175.3 41.9 175.4 42.3 175.8 42.6 C 176.1 42.8 176.5 42.9 177.1 42.9 C 177.6 42.9 178 42.8 178.3 42.6 C 178.6 42.4 178.7 42.1 178.7 41.8 C 178.7 41.5 178.6 41.3 178.4 41.1 C 178.2 41 177.8 40.9 177.1 40.7 C 176.2 40.5 175.6 40.3 175.2 40.1 C 174.9 40 174.6 39.7 174.4 39.4 C 174.3 39.1 174.2 38.8 174.2 38.5 C 174.2 38.1 174.2 37.8 174.4 37.6 C 174.5 37.3 174.7 37.1 175 36.9 C 175.2 36.7 175.5 36.6 175.8 36.5 C 176.1 36.4 176.5 36.4 176.8 36.4 C 177.4 36.4 177.9 36.5 178.3 36.6 C 178.8 36.8 179.1 37 179.3 37.3 C 179.5 37.6 179.6 37.9 179.7 38.4 C 179.7 38.4 178.5 38.6 178.5 38.6 C 178.5 38.2 178.3 37.9 178 37.7 C 177.8 37.5 177.4 37.4 176.9 37.4 C 176.4 37.4 176 37.5 175.7 37.7 C 175.5 37.8 175.4 38.1 175.4 38.3 C 175.4 38.5 175.4 38.6 175.5 38.7 C 175.6 38.9 175.8 39 176 39.1 C 176.1 39.1 176.5 39.2 177.1 39.4 C 177.9 39.6 178.5 39.8 178.9 40 C 179.2 40.1 179.5 40.3 179.7 40.6 C 179.9 40.9 180 41.2 180 41.7 C 180 42.1 179.9 42.5 179.6 42.8 C 179.4 43.2 179.1 43.5 178.6 43.7 C 178.2 43.9 177.6 44 177.1 44 C 176.1 44 175.4 43.8 174.9 43.4 C 174.4 43 174.1 42.4 174 41.6 Z M 186.2 43.8 C 186.2 43.8 186.22 42.73 186.2 42.7 C 185.7 43.5 184.9 44 183.9 44 C 183.5 44 183.1 43.9 182.7 43.7 C 182.3 43.5 182.1 43.3 181.9 43.1 C 181.7 42.8 181.6 42.5 181.5 42.2 C 181.5 41.9 181.4 41.6 181.4 41 C 181.43 41.03 181.4 36.5 181.4 36.5 L 182.7 36.5 C 182.7 36.5 182.66 40.56 182.7 40.6 C 182.7 41.2 182.7 41.6 182.7 41.9 C 182.8 42.2 183 42.4 183.2 42.6 C 183.5 42.8 183.8 42.9 184.2 42.9 C 184.5 42.9 184.9 42.8 185.2 42.6 C 185.5 42.4 185.8 42.2 185.9 41.8 C 186 41.5 186.1 41 186.1 40.4 C 186.09 40.42 186.1 36.5 186.1 36.5 L 187.3 36.5 L 187.3 43.8 L 186.2 43.8 Z M 189.2 43.8 L 189.2 33.8 L 190.4 33.8 L 190.4 43.8 L 189.2 43.8 Z M 194.5 42.7 C 194.6 42.7 194.8 42.7 195 42.7 C 195 42.7 195.2 43.8 195.2 43.8 C 194.9 43.9 194.6 43.9 194.3 43.9 C 193.8 43.9 193.5 43.8 193.3 43.7 C 193 43.5 192.8 43.3 192.7 43.1 C 192.6 42.9 192.6 42.4 192.6 41.7 C 192.58 41.67 192.6 37.5 192.6 37.5 L 191.7 37.5 L 191.7 36.5 L 192.6 36.5 L 192.6 34.7 L 193.8 34 L 193.8 36.5 L 195 36.5 L 195 37.5 L 193.8 37.5 C 193.8 37.5 193.81 41.73 193.8 41.7 C 193.8 42.1 193.8 42.3 193.9 42.4 C 193.9 42.5 194 42.6 194.1 42.7 C 194.2 42.7 194.3 42.7 194.5 42.7 C 194.5 42.7 194.5 42.7 194.5 42.7 Z M 201.2 43.8 C 201.1 43.5 201 43.2 201 42.9 C 200.5 43.3 200.1 43.6 199.7 43.7 C 199.2 43.9 198.8 44 198.3 44 C 197.5 44 196.9 43.8 196.5 43.4 C 196 43 195.8 42.5 195.8 41.9 C 195.8 41.5 195.9 41.2 196.1 40.9 C 196.2 40.6 196.4 40.4 196.7 40.2 C 197 40 197.3 39.9 197.6 39.8 C 197.8 39.7 198.2 39.7 198.7 39.6 C 199.7 39.5 200.4 39.3 200.9 39.2 C 200.9 39 200.9 38.9 200.9 38.9 C 200.9 38.4 200.8 38 200.5 37.8 C 200.2 37.5 199.8 37.4 199.1 37.4 C 198.6 37.4 198.1 37.5 197.9 37.7 C 197.6 37.9 197.4 38.3 197.2 38.8 C 197.2 38.8 196 38.6 196 38.6 C 196.2 38.1 196.3 37.7 196.6 37.4 C 196.8 37 197.2 36.8 197.7 36.6 C 198.1 36.5 198.7 36.4 199.3 36.4 C 199.9 36.4 200.4 36.4 200.8 36.6 C 201.2 36.7 201.5 36.9 201.7 37.1 C 201.9 37.4 202 37.6 202.1 38 C 202.1 38.2 202.1 38.6 202.1 39.1 C 202.1 39.1 202.1 40.8 202.1 40.8 C 202.1 41.9 202.2 42.6 202.2 42.9 C 202.3 43.2 202.4 43.5 202.5 43.8 C 202.51 43.79 201.2 43.8 201.2 43.8 C 201.2 43.8 201.23 43.79 201.2 43.8 Z M 200.9 40.1 C 200.4 40.3 199.8 40.5 198.9 40.6 C 198.4 40.7 198 40.8 197.8 40.9 C 197.6 41 197.4 41.1 197.3 41.3 C 197.2 41.4 197.1 41.6 197.1 41.8 C 197.1 42.2 197.3 42.4 197.5 42.7 C 197.8 42.9 198.1 43 198.6 43 C 199.1 43 199.5 42.9 199.9 42.7 C 200.2 42.5 200.5 42.2 200.7 41.8 C 200.8 41.6 200.9 41.1 200.9 40.6 C 200.9 40.6 200.9 40.1 200.9 40.1 Z M 204 43.8 L 204 36.5 L 205.1 36.5 C 205.1 36.5 205.14 37.56 205.1 37.6 C 205.7 36.8 206.4 36.4 207.5 36.4 C 207.9 36.4 208.3 36.4 208.7 36.6 C 209 36.8 209.3 37 209.5 37.2 C 209.7 37.5 209.8 37.8 209.9 38.1 C 209.9 38.4 209.9 38.8 209.9 39.3 C 209.93 39.33 209.9 43.8 209.9 43.8 L 208.7 43.8 C 208.7 43.8 208.7 39.38 208.7 39.4 C 208.7 38.9 208.7 38.5 208.6 38.3 C 208.5 38 208.3 37.8 208 37.7 C 207.8 37.5 207.5 37.4 207.2 37.4 C 206.7 37.4 206.2 37.6 205.8 37.9 C 205.5 38.3 205.3 38.9 205.3 39.8 C 205.26 39.83 205.3 43.8 205.3 43.8 L 204 43.8 Z M 214 42.7 C 214.1 42.7 214.3 42.7 214.5 42.7 C 214.5 42.7 214.7 43.8 214.7 43.8 C 214.3 43.9 214 43.9 213.8 43.9 C 213.3 43.9 213 43.8 212.7 43.7 C 212.5 43.5 212.3 43.3 212.2 43.1 C 212.1 42.9 212 42.4 212 41.7 C 212.04 41.67 212 37.5 212 37.5 L 211.1 37.5 L 211.1 36.5 L 212 36.5 L 212 34.7 L 213.3 34 L 213.3 36.5 L 214.5 36.5 L 214.5 37.5 L 213.3 37.5 C 213.3 37.5 213.27 41.73 213.3 41.7 C 213.3 42.1 213.3 42.3 213.3 42.4 C 213.4 42.5 213.4 42.6 213.5 42.7 C 213.6 42.7 213.8 42.7 214 42.7 C 214 42.7 214 42.7 214 42.7 Z " stroke="none" fill="#010102"/>  </g>  <g id="Polygon132127">    <path d="M 1.1 27 L 1.1 17.1 L 3.1 17.1 L 3.1 25.3 L 8.1 25.3 L 8.1 27 L 1.1 27 Z M 12.9 27 L 12.9 25 L 8.8 25 L 8.8 23.3 L 13.2 16.9 L 14.8 16.9 L 14.8 23.3 L 16 23.3 L 16 25 L 14.8 25 L 14.8 27 L 12.9 27 Z M 12.9 23.3 L 12.9 19.9 L 10.6 23.3 L 12.9 23.3 Z M 20.2 27 L 24.1 17 L 25.5 17 L 29.6 27 L 28.1 27 L 26.9 24 L 22.7 24 L 21.6 27 L 20.2 27 Z M 23.1 22.9 L 26.5 22.9 C 26.5 22.9 25.45 20.1 25.5 20.1 C 25.1 19.3 24.9 18.6 24.7 18 C 24.6 18.7 24.4 19.3 24.2 19.9 C 24.2 19.94 23.1 22.9 23.1 22.9 Z M 30 24.8 C 30 24.8 31.2 24.6 31.2 24.6 C 31.3 25.1 31.5 25.5 31.8 25.8 C 32.1 26 32.5 26.1 33.1 26.1 C 33.7 26.1 34.1 26 34.4 25.8 C 34.6 25.6 34.8 25.3 34.8 25 C 34.8 24.7 34.6 24.5 34.4 24.3 C 34.2 24.2 33.8 24.1 33.1 23.9 C 32.2 23.7 31.6 23.5 31.3 23.3 C 30.9 23.2 30.7 22.9 30.5 22.6 C 30.3 22.3 30.2 22 30.2 21.7 C 30.2 21.3 30.3 21 30.4 20.8 C 30.6 20.5 30.8 20.3 31 20.1 C 31.2 19.9 31.5 19.8 31.8 19.7 C 32.1 19.6 32.5 19.6 32.9 19.6 C 33.4 19.6 33.9 19.7 34.4 19.8 C 34.8 20 35.1 20.2 35.3 20.5 C 35.5 20.8 35.7 21.1 35.8 21.6 C 35.8 21.6 34.5 21.8 34.5 21.8 C 34.5 21.4 34.3 21.1 34.1 20.9 C 33.8 20.7 33.4 20.6 33 20.6 C 32.4 20.6 32 20.7 31.8 20.9 C 31.5 21 31.4 21.3 31.4 21.5 C 31.4 21.7 31.4 21.8 31.5 21.9 C 31.6 22.1 31.8 22.2 32 22.3 C 32.1 22.3 32.5 22.4 33.1 22.6 C 34 22.8 34.6 23 34.9 23.2 C 35.3 23.3 35.5 23.5 35.7 23.8 C 35.9 24.1 36 24.4 36 24.9 C 36 25.3 35.9 25.7 35.7 26 C 35.4 26.4 35.1 26.7 34.6 26.9 C 34.2 27.1 33.7 27.2 33.1 27.2 C 32.2 27.2 31.4 27 30.9 26.6 C 30.4 26.2 30.1 25.6 30 24.8 Z M 37 24.8 C 37 24.8 38.2 24.6 38.2 24.6 C 38.3 25.1 38.5 25.5 38.8 25.8 C 39.1 26 39.5 26.1 40.1 26.1 C 40.7 26.1 41.1 26 41.4 25.8 C 41.6 25.6 41.8 25.3 41.8 25 C 41.8 24.7 41.6 24.5 41.4 24.3 C 41.2 24.2 40.8 24.1 40.1 23.9 C 39.2 23.7 38.6 23.5 38.3 23.3 C 37.9 23.2 37.7 22.9 37.5 22.6 C 37.3 22.3 37.2 22 37.2 21.7 C 37.2 21.3 37.3 21 37.4 20.8 C 37.6 20.5 37.8 20.3 38 20.1 C 38.2 19.9 38.5 19.8 38.8 19.7 C 39.1 19.6 39.5 19.6 39.9 19.6 C 40.4 19.6 40.9 19.7 41.4 19.8 C 41.8 20 42.1 20.2 42.3 20.5 C 42.5 20.8 42.7 21.1 42.8 21.6 C 42.8 21.6 41.5 21.8 41.5 21.8 C 41.5 21.4 41.3 21.1 41.1 20.9 C 40.8 20.7 40.4 20.6 40 20.6 C 39.4 20.6 39 20.7 38.8 20.9 C 38.5 21 38.4 21.3 38.4 21.5 C 38.4 21.7 38.4 21.8 38.5 21.9 C 38.6 22.1 38.8 22.2 39 22.3 C 39.1 22.3 39.5 22.4 40.1 22.6 C 41 22.8 41.6 23 41.9 23.2 C 42.3 23.3 42.5 23.5 42.7 23.8 C 42.9 24.1 43 24.4 43 24.9 C 43 25.3 42.9 25.7 42.7 26 C 42.4 26.4 42.1 26.7 41.6 26.9 C 41.2 27.1 40.7 27.2 40.1 27.2 C 39.2 27.2 38.4 27 37.9 26.6 C 37.4 26.2 37.1 25.6 37 24.8 Z M 44 23.4 C 44 22 44.4 21 45.2 20.4 C 45.8 19.8 46.5 19.6 47.4 19.6 C 48.4 19.6 49.2 19.9 49.9 20.5 C 50.5 21.2 50.8 22.1 50.8 23.3 C 50.8 24.2 50.7 24.9 50.4 25.5 C 50.1 26 49.7 26.4 49.2 26.7 C 48.7 27 48.1 27.2 47.4 27.2 C 46.4 27.2 45.6 26.8 45 26.2 C 44.3 25.5 44 24.6 44 23.4 Z M 45.3 23.4 C 45.3 24.3 45.5 25 45.9 25.5 C 46.3 25.9 46.8 26.1 47.4 26.1 C 48 26.1 48.6 25.9 49 25.4 C 49.4 25 49.6 24.3 49.6 23.3 C 49.6 22.4 49.4 21.7 49 21.3 C 48.5 20.8 48 20.6 47.4 20.6 C 46.8 20.6 46.3 20.8 45.9 21.3 C 45.5 21.7 45.3 22.4 45.3 23.4 Z M 57 24.3 C 57 24.3 58.2 24.5 58.2 24.5 C 58.1 25.3 57.8 26 57.2 26.4 C 56.7 26.9 56 27.2 55.2 27.2 C 54.2 27.2 53.4 26.8 52.8 26.2 C 52.2 25.5 51.9 24.6 51.9 23.4 C 51.9 22.6 52 21.9 52.3 21.3 C 52.5 20.7 52.9 20.3 53.5 20 C 54 19.7 54.6 19.6 55.2 19.6 C 56 19.6 56.6 19.8 57.1 20.2 C 57.6 20.6 58 21.1 58.1 21.9 C 58.1 21.9 56.9 22 56.9 22 C 56.8 21.6 56.6 21.2 56.3 20.9 C 56 20.7 55.7 20.6 55.3 20.6 C 54.6 20.6 54.1 20.8 53.7 21.2 C 53.4 21.7 53.2 22.4 53.2 23.4 C 53.2 24.3 53.3 25 53.7 25.5 C 54.1 25.9 54.6 26.1 55.2 26.1 C 55.7 26.1 56.1 26 56.4 25.7 C 56.7 25.4 56.9 24.9 57 24.3 Z M 59.3 18.4 L 59.3 17 L 60.5 17 L 60.5 18.4 L 59.3 18.4 Z M 59.3 27 L 59.3 19.7 L 60.5 19.7 L 60.5 27 L 59.3 27 Z M 67.4 27 C 67.2 26.7 67.2 26.4 67.1 26.1 C 66.7 26.5 66.2 26.8 65.8 26.9 C 65.4 27.1 64.9 27.2 64.4 27.2 C 63.7 27.2 63 27 62.6 26.6 C 62.2 26.2 62 25.7 62 25.1 C 62 24.7 62 24.4 62.2 24.1 C 62.4 23.8 62.6 23.6 62.8 23.4 C 63.1 23.2 63.4 23.1 63.7 23 C 64 22.9 64.3 22.9 64.8 22.8 C 65.8 22.7 66.6 22.5 67 22.4 C 67 22.2 67 22.1 67 22.1 C 67 21.6 66.9 21.2 66.7 21 C 66.4 20.7 65.9 20.6 65.3 20.6 C 64.7 20.6 64.3 20.7 64 20.9 C 63.7 21.1 63.5 21.5 63.4 22 C 63.4 22 62.2 21.8 62.2 21.8 C 62.3 21.3 62.5 20.9 62.7 20.6 C 63 20.2 63.3 20 63.8 19.8 C 64.3 19.7 64.8 19.6 65.5 19.6 C 66.1 19.6 66.6 19.6 67 19.8 C 67.4 19.9 67.6 20.1 67.8 20.3 C 68 20.6 68.1 20.8 68.2 21.2 C 68.2 21.4 68.3 21.8 68.3 22.3 C 68.3 22.3 68.3 24 68.3 24 C 68.3 25.1 68.3 25.8 68.3 26.1 C 68.4 26.4 68.5 26.7 68.7 27 C 68.65 26.99 67.4 27 67.4 27 C 67.4 27 67.37 26.99 67.4 27 Z M 67 23.3 C 66.6 23.5 65.9 23.7 65 23.8 C 64.5 23.9 64.1 24 63.9 24.1 C 63.7 24.2 63.6 24.3 63.5 24.5 C 63.3 24.6 63.3 24.8 63.3 25 C 63.3 25.4 63.4 25.6 63.7 25.9 C 63.9 26.1 64.3 26.2 64.7 26.2 C 65.2 26.2 65.6 26.1 66 25.9 C 66.4 25.7 66.6 25.4 66.8 25 C 67 24.8 67 24.3 67 23.8 C 67 23.8 67 23.3 67 23.3 Z M 72.3 25.9 C 72.5 25.9 72.6 25.9 72.9 25.9 C 72.9 25.9 73 27 73 27 C 72.7 27.1 72.4 27.1 72.1 27.1 C 71.7 27.1 71.3 27 71.1 26.9 C 70.8 26.7 70.6 26.5 70.5 26.3 C 70.4 26.1 70.4 25.6 70.4 24.9 C 70.4 24.87 70.4 20.7 70.4 20.7 L 69.5 20.7 L 69.5 19.7 L 70.4 19.7 L 70.4 17.9 L 71.6 17.2 L 71.6 19.7 L 72.9 19.7 L 72.9 20.7 L 71.6 20.7 C 71.6 20.7 71.62 24.93 71.6 24.9 C 71.6 25.3 71.6 25.5 71.7 25.6 C 71.7 25.7 71.8 25.8 71.9 25.9 C 72 25.9 72.1 25.9 72.3 25.9 C 72.3 25.9 72.3 25.9 72.3 25.9 Z M 79 24.7 C 79 24.7 80.3 24.8 80.3 24.8 C 80.1 25.6 79.7 26.1 79.2 26.5 C 78.6 27 78 27.2 77.1 27.2 C 76 27.2 75.2 26.8 74.6 26.2 C 74 25.5 73.7 24.6 73.7 23.4 C 73.7 22.2 74 21.3 74.6 20.6 C 75.2 19.9 76 19.6 77 19.6 C 78 19.6 78.8 19.9 79.4 20.6 C 80 21.2 80.3 22.2 80.3 23.3 C 80.3 23.4 80.3 23.5 80.3 23.7 C 80.3 23.7 74.9 23.7 74.9 23.7 C 75 24.5 75.2 25.1 75.6 25.5 C 76 25.9 76.5 26.1 77.1 26.1 C 77.6 26.1 78 26 78.3 25.8 C 78.6 25.6 78.8 25.2 79 24.7 Z M 75 22.7 C 75 22.7 79 22.7 79 22.7 C 79 22.1 78.8 21.6 78.6 21.3 C 78.2 20.8 77.7 20.6 77.1 20.6 C 76.5 20.6 76 20.8 75.6 21.1 C 75.2 21.5 75 22 75 22.7 Z M 85.9 27 L 85.9 17 C 85.9 17 89.67 16.97 89.7 17 C 90.3 17 90.8 17 91.2 17.1 C 91.7 17.1 92.1 17.3 92.4 17.5 C 92.8 17.8 93 18.1 93.2 18.5 C 93.4 18.9 93.5 19.4 93.5 19.9 C 93.5 20.7 93.3 21.4 92.7 22 C 92.2 22.6 91.2 22.9 89.8 22.9 C 89.79 22.92 87.2 22.9 87.2 22.9 L 87.2 27 L 85.9 27 Z M 87.2 21.7 C 87.2 21.7 89.81 21.74 89.8 21.7 C 90.7 21.7 91.3 21.6 91.6 21.3 C 92 20.9 92.2 20.5 92.2 19.9 C 92.2 19.5 92.1 19.1 91.9 18.8 C 91.6 18.5 91.4 18.3 91 18.2 C 90.8 18.2 90.4 18.2 89.8 18.2 C 89.78 18.15 87.2 18.2 87.2 18.2 L 87.2 21.7 Z M 95.1 27 L 95.1 19.7 L 96.2 19.7 C 96.2 19.7 96.17 20.83 96.2 20.8 C 96.5 20.3 96.7 20 97 19.8 C 97.2 19.7 97.5 19.6 97.7 19.6 C 98.2 19.6 98.6 19.7 99 20 C 99 20 98.6 21.1 98.6 21.1 C 98.3 20.9 98 20.8 97.7 20.8 C 97.4 20.8 97.2 20.9 97 21.1 C 96.7 21.2 96.6 21.5 96.5 21.8 C 96.4 22.2 96.3 22.7 96.3 23.2 C 96.29 23.19 96.3 27 96.3 27 L 95.1 27 Z M 99.3 23.4 C 99.3 22 99.7 21 100.4 20.4 C 101 19.8 101.8 19.6 102.7 19.6 C 103.7 19.6 104.5 19.9 105.1 20.5 C 105.8 21.2 106.1 22.1 106.1 23.3 C 106.1 24.2 105.9 24.9 105.7 25.5 C 105.4 26 105 26.4 104.4 26.7 C 103.9 27 103.3 27.2 102.7 27.2 C 101.7 27.2 100.8 26.8 100.2 26.2 C 99.6 25.5 99.3 24.6 99.3 23.4 Z M 100.5 23.4 C 100.5 24.3 100.7 25 101.2 25.5 C 101.6 25.9 102.1 26.1 102.7 26.1 C 103.3 26.1 103.8 25.9 104.2 25.4 C 104.6 25 104.8 24.3 104.8 23.3 C 104.8 22.4 104.6 21.7 104.2 21.3 C 103.8 20.8 103.3 20.6 102.7 20.6 C 102.1 20.6 101.6 20.8 101.2 21.3 C 100.7 21.7 100.5 22.4 100.5 23.4 Z M 107.5 18.4 L 107.5 17 L 108.7 17 L 108.7 18.4 L 107.5 18.4 Z M 106.9 29.9 C 106.6 29.9 106.3 29.9 106 29.8 C 106 29.8 106.2 28.8 106.2 28.8 C 106.4 28.8 106.6 28.9 106.8 28.9 C 107 28.9 107.2 28.8 107.3 28.6 C 107.5 28.4 107.5 28 107.5 27.4 C 107.52 27.36 107.5 19.7 107.5 19.7 L 108.7 19.7 C 108.7 19.7 108.75 27.39 108.7 27.4 C 108.7 28.3 108.6 28.9 108.4 29.3 C 108.1 29.7 107.6 29.9 106.9 29.9 C 106.9 29.9 106.9 29.9 106.9 29.9 Z M 115.6 24.7 C 115.6 24.7 116.9 24.8 116.9 24.8 C 116.7 25.6 116.3 26.1 115.8 26.5 C 115.2 27 114.5 27.2 113.7 27.2 C 112.6 27.2 111.8 26.8 111.2 26.2 C 110.5 25.5 110.2 24.6 110.2 23.4 C 110.2 22.2 110.5 21.3 111.2 20.6 C 111.8 19.9 112.6 19.6 113.6 19.6 C 114.6 19.6 115.4 19.9 116 20.6 C 116.6 21.2 116.9 22.2 116.9 23.3 C 116.9 23.4 116.9 23.5 116.9 23.7 C 116.9 23.7 111.5 23.7 111.5 23.7 C 111.5 24.5 111.8 25.1 112.2 25.5 C 112.6 25.9 113.1 26.1 113.7 26.1 C 114.1 26.1 114.5 26 114.8 25.8 C 115.2 25.6 115.4 25.2 115.6 24.7 Z M 111.6 22.7 C 111.6 22.7 115.6 22.7 115.6 22.7 C 115.6 22.1 115.4 21.6 115.2 21.3 C 114.8 20.8 114.3 20.6 113.6 20.6 C 113.1 20.6 112.6 20.8 112.2 21.1 C 111.8 21.5 111.6 22 111.6 22.7 Z M 123.2 24.3 C 123.2 24.3 124.4 24.5 124.4 24.5 C 124.2 25.3 123.9 26 123.4 26.4 C 122.8 26.9 122.1 27.2 121.3 27.2 C 120.4 27.2 119.6 26.8 118.9 26.2 C 118.3 25.5 118 24.6 118 23.4 C 118 22.6 118.2 21.9 118.4 21.3 C 118.7 20.7 119.1 20.3 119.6 20 C 120.1 19.7 120.7 19.6 121.4 19.6 C 122.1 19.6 122.8 19.8 123.3 20.2 C 123.8 20.6 124.1 21.1 124.3 21.9 C 124.3 21.9 123.1 22 123.1 22 C 122.9 21.6 122.7 21.2 122.4 20.9 C 122.2 20.7 121.8 20.6 121.4 20.6 C 120.8 20.6 120.3 20.8 119.9 21.2 C 119.5 21.7 119.3 22.4 119.3 23.4 C 119.3 24.3 119.5 25 119.9 25.5 C 120.2 25.9 120.7 26.1 121.3 26.1 C 121.8 26.1 122.2 26 122.5 25.7 C 122.9 25.4 123.1 24.9 123.2 24.3 Z M 127.6 25.9 C 127.7 25.9 127.9 25.9 128.1 25.9 C 128.1 25.9 128.3 27 128.3 27 C 127.9 27.1 127.6 27.1 127.4 27.1 C 126.9 27.1 126.6 27 126.3 26.9 C 126.1 26.7 125.9 26.5 125.8 26.3 C 125.7 26.1 125.6 25.6 125.6 24.9 C 125.64 24.87 125.6 20.7 125.6 20.7 L 124.7 20.7 L 124.7 19.7 L 125.6 19.7 L 125.6 17.9 L 126.9 17.2 L 126.9 19.7 L 128.1 19.7 L 128.1 20.7 L 126.9 20.7 C 126.9 20.7 126.87 24.93 126.9 24.9 C 126.9 25.3 126.9 25.5 126.9 25.6 C 127 25.7 127 25.8 127.1 25.9 C 127.2 25.9 127.4 25.9 127.6 25.9 C 127.6 25.9 127.6 25.9 127.6 25.9 Z M 133.3 27 L 133.3 17 L 135.3 17 C 135.3 17 137.68 24.07 137.7 24.1 C 137.9 24.7 138.1 25.2 138.2 25.5 C 138.3 25.2 138.5 24.7 138.7 23.9 C 138.69 23.94 141.1 17 141.1 17 L 142.9 17 L 142.9 27 L 141.6 27 L 141.6 18.6 L 138.7 27 L 137.5 27 L 134.6 18.5 L 134.6 27 L 133.3 27 Z M 149.8 27 C 149.7 26.7 149.6 26.4 149.6 26.1 C 149.1 26.5 148.7 26.8 148.3 26.9 C 147.9 27.1 147.4 27.2 146.9 27.2 C 146.1 27.2 145.5 27 145.1 26.6 C 144.7 26.2 144.4 25.7 144.4 25.1 C 144.4 24.7 144.5 24.4 144.7 24.1 C 144.8 23.8 145.1 23.6 145.3 23.4 C 145.6 23.2 145.9 23.1 146.2 23 C 146.4 22.9 146.8 22.9 147.3 22.8 C 148.3 22.7 149 22.5 149.5 22.4 C 149.5 22.2 149.5 22.1 149.5 22.1 C 149.5 21.6 149.4 21.2 149.2 21 C 148.8 20.7 148.4 20.6 147.8 20.6 C 147.2 20.6 146.7 20.7 146.5 20.9 C 146.2 21.1 146 21.5 145.9 22 C 145.9 22 144.7 21.8 144.7 21.8 C 144.8 21.3 144.9 20.9 145.2 20.6 C 145.4 20.2 145.8 20 146.3 19.8 C 146.8 19.7 147.3 19.6 147.9 19.6 C 148.5 19.6 149.1 19.6 149.4 19.8 C 149.8 19.9 150.1 20.1 150.3 20.3 C 150.5 20.6 150.6 20.8 150.7 21.2 C 150.7 21.4 150.7 21.8 150.7 22.3 C 150.7 22.3 150.7 24 150.7 24 C 150.7 25.1 150.8 25.8 150.8 26.1 C 150.9 26.4 151 26.7 151.1 27 C 151.13 26.99 149.8 27 149.8 27 C 149.8 27 149.84 26.99 149.8 27 Z M 149.5 23.3 C 149 23.5 148.4 23.7 147.5 23.8 C 147 23.9 146.6 24 146.4 24.1 C 146.2 24.2 146 24.3 145.9 24.5 C 145.8 24.6 145.8 24.8 145.8 25 C 145.8 25.4 145.9 25.6 146.1 25.9 C 146.4 26.1 146.7 26.2 147.2 26.2 C 147.7 26.2 148.1 26.1 148.5 25.9 C 148.9 25.7 149.1 25.4 149.3 25 C 149.4 24.8 149.5 24.3 149.5 23.8 C 149.5 23.8 149.5 23.3 149.5 23.3 Z M 152.6 27 L 152.6 19.7 L 153.8 19.7 C 153.8 19.7 153.75 20.76 153.8 20.8 C 154.3 20 155.1 19.6 156.1 19.6 C 156.5 19.6 156.9 19.6 157.3 19.8 C 157.6 20 157.9 20.2 158.1 20.4 C 158.3 20.7 158.4 21 158.5 21.3 C 158.5 21.6 158.5 22 158.5 22.5 C 158.55 22.53 158.5 27 158.5 27 L 157.3 27 C 157.3 27 157.32 22.58 157.3 22.6 C 157.3 22.1 157.3 21.7 157.2 21.5 C 157.1 21.2 156.9 21 156.7 20.9 C 156.4 20.7 156.1 20.6 155.8 20.6 C 155.3 20.6 154.8 20.8 154.4 21.1 C 154.1 21.5 153.9 22.1 153.9 23 C 153.88 23.03 153.9 27 153.9 27 L 152.6 27 Z M 165.4 27 C 165.3 26.7 165.2 26.4 165.2 26.1 C 164.7 26.5 164.3 26.8 163.9 26.9 C 163.4 27.1 163 27.2 162.5 27.2 C 161.7 27.2 161.1 27 160.7 26.6 C 160.2 26.2 160 25.7 160 25.1 C 160 24.7 160.1 24.4 160.3 24.1 C 160.4 23.8 160.6 23.6 160.9 23.4 C 161.2 23.2 161.5 23.1 161.8 23 C 162 22.9 162.4 22.9 162.9 22.8 C 163.9 22.7 164.6 22.5 165.1 22.4 C 165.1 22.2 165.1 22.1 165.1 22.1 C 165.1 21.6 165 21.2 164.7 21 C 164.4 20.7 163.9 20.6 163.3 20.6 C 162.7 20.6 162.3 20.7 162 20.9 C 161.8 21.1 161.6 21.5 161.4 22 C 161.4 22 160.2 21.8 160.2 21.8 C 160.3 21.3 160.5 20.9 160.8 20.6 C 161 20.2 161.4 20 161.9 19.8 C 162.3 19.7 162.9 19.6 163.5 19.6 C 164.1 19.6 164.6 19.6 165 19.8 C 165.4 19.9 165.7 20.1 165.9 20.3 C 166 20.6 166.2 20.8 166.3 21.2 C 166.3 21.4 166.3 21.8 166.3 22.3 C 166.3 22.3 166.3 24 166.3 24 C 166.3 25.1 166.3 25.8 166.4 26.1 C 166.4 26.4 166.5 26.7 166.7 27 C 166.7 26.99 165.4 27 165.4 27 C 165.4 27 165.42 26.99 165.4 27 Z M 165.1 23.3 C 164.6 23.5 164 23.7 163.1 23.8 C 162.6 23.9 162.2 24 162 24.1 C 161.8 24.2 161.6 24.3 161.5 24.5 C 161.4 24.6 161.3 24.8 161.3 25 C 161.3 25.4 161.5 25.6 161.7 25.9 C 161.9 26.1 162.3 26.2 162.8 26.2 C 163.3 26.2 163.7 26.1 164.1 25.9 C 164.4 25.7 164.7 25.4 164.9 25 C 165 24.8 165.1 24.3 165.1 23.8 C 165.1 23.8 165.1 23.3 165.1 23.3 Z M 168 27.6 C 168 27.6 169.2 27.8 169.2 27.8 C 169.2 28.1 169.4 28.4 169.6 28.6 C 169.9 28.8 170.3 28.9 170.9 28.9 C 171.4 28.9 171.9 28.8 172.2 28.6 C 172.5 28.4 172.7 28 172.8 27.6 C 172.9 27.4 172.9 26.8 172.9 26 C 172.4 26.7 171.7 27 170.9 27 C 169.9 27 169.1 26.6 168.6 25.9 C 168 25.2 167.7 24.3 167.7 23.3 C 167.7 22.6 167.9 22 168.1 21.4 C 168.4 20.8 168.7 20.4 169.2 20 C 169.7 19.7 170.2 19.6 170.9 19.6 C 171.7 19.6 172.5 19.9 173 20.6 C 173.01 20.61 173 19.7 173 19.7 L 174.1 19.7 C 174.1 19.7 174.15 26.01 174.1 26 C 174.1 27.1 174 27.9 173.8 28.4 C 173.6 28.9 173.2 29.3 172.7 29.5 C 172.2 29.8 171.6 29.9 170.9 29.9 C 170 29.9 169.3 29.7 168.8 29.4 C 168.2 29 168 28.4 168 27.6 Z M 169 23.2 C 169 24.2 169.2 24.9 169.6 25.3 C 170 25.8 170.4 26 171 26 C 171.6 26 172 25.8 172.4 25.3 C 172.8 24.9 173 24.2 173 23.3 C 173 22.4 172.8 21.7 172.4 21.3 C 172 20.8 171.5 20.6 171 20.6 C 170.4 20.6 170 20.8 169.6 21.3 C 169.2 21.7 169 22.4 169 23.2 Z M 181 24.7 C 181 24.7 182.2 24.8 182.2 24.8 C 182 25.6 181.7 26.1 181.1 26.5 C 180.6 27 179.9 27.2 179.1 27.2 C 178 27.2 177.1 26.8 176.5 26.2 C 175.9 25.5 175.6 24.6 175.6 23.4 C 175.6 22.2 175.9 21.3 176.5 20.6 C 177.2 19.9 178 19.6 179 19.6 C 180 19.6 180.7 19.9 181.4 20.6 C 182 21.2 182.3 22.2 182.3 23.3 C 182.3 23.4 182.3 23.5 182.3 23.7 C 182.3 23.7 176.9 23.7 176.9 23.7 C 176.9 24.5 177.1 25.1 177.5 25.5 C 177.9 25.9 178.5 26.1 179.1 26.1 C 179.5 26.1 179.9 26 180.2 25.8 C 180.5 25.6 180.8 25.2 181 24.7 Z M 176.9 22.7 C 176.9 22.7 181 22.7 181 22.7 C 180.9 22.1 180.8 21.6 180.5 21.3 C 180.1 20.8 179.6 20.6 179 20.6 C 178.4 20.6 178 20.8 177.6 21.1 C 177.2 21.5 177 22 176.9 22.7 Z M 183.8 27 L 183.8 19.7 L 184.9 19.7 C 184.9 19.7 184.88 20.83 184.9 20.8 C 185.2 20.3 185.4 20 185.7 19.8 C 185.9 19.7 186.2 19.6 186.5 19.6 C 186.9 19.6 187.3 19.7 187.7 20 C 187.7 20 187.3 21.1 187.3 21.1 C 187 20.9 186.7 20.8 186.4 20.8 C 186.1 20.8 185.9 20.9 185.7 21.1 C 185.5 21.2 185.3 21.5 185.2 21.8 C 185.1 22.2 185 22.7 185 23.2 C 185.01 23.19 185 27 185 27 L 183.8 27 Z " stroke="none" fill="#010102"/>  </g>  <g id="Polygon132126">    <path d="M 1.1 10.2 L 1.1 0.3 L 3.1 0.3 L 3.1 8.5 L 8.1 8.5 L 8.1 10.2 L 1.1 10.2 Z M 9.1 7.5 C 9.1 7.5 10.9 7.3 10.9 7.3 C 11 7.8 11.2 8.1 11.4 8.4 C 11.7 8.6 12 8.8 12.4 8.8 C 12.8 8.8 13.1 8.6 13.4 8.3 C 13.6 8 13.8 7.6 13.8 7.1 C 13.8 6.6 13.6 6.2 13.4 6 C 13.1 5.7 12.8 5.5 12.4 5.5 C 12.2 5.5 11.9 5.6 11.5 5.7 C 11.5 5.7 11.8 4.1 11.8 4.1 C 12.3 4.1 12.7 4 12.9 3.8 C 13.2 3.5 13.4 3.2 13.4 2.8 C 13.4 2.5 13.3 2.2 13.1 2 C 12.9 1.8 12.6 1.7 12.3 1.7 C 11.9 1.7 11.6 1.8 11.4 2.1 C 11.2 2.3 11 2.6 11 3 C 11 3 9.2 2.7 9.2 2.7 C 9.3 2.1 9.5 1.7 9.8 1.3 C 10 0.9 10.4 0.6 10.8 0.4 C 11.3 0.2 11.8 0.1 12.3 0.1 C 13.3 0.1 14 0.4 14.6 1 C 15.1 1.5 15.3 2.1 15.3 2.7 C 15.3 3.6 14.8 4.3 13.8 4.8 C 14.4 4.9 14.9 5.2 15.2 5.6 C 15.6 6.1 15.7 6.6 15.7 7.2 C 15.7 8.1 15.4 8.8 14.8 9.4 C 14.1 10.1 13.3 10.4 12.4 10.4 C 11.5 10.4 10.7 10.1 10.1 9.6 C 9.5 9.1 9.2 8.4 9.1 7.5 Z M 23.9 10.2 L 23.9 1.4 L 20.6 1.4 L 20.6 0.2 L 28.5 0.2 L 28.5 1.4 L 25.2 1.4 L 25.2 10.2 L 23.9 10.2 Z M 33.1 7.9 C 33.1 7.9 34.4 8 34.4 8 C 34.2 8.8 33.8 9.3 33.3 9.7 C 32.7 10.2 32 10.4 31.2 10.4 C 30.1 10.4 29.3 10 28.7 9.4 C 28.1 8.7 27.7 7.8 27.7 6.6 C 27.7 5.4 28.1 4.5 28.7 3.8 C 29.3 3.1 30.1 2.8 31.1 2.8 C 32.1 2.8 32.9 3.1 33.5 3.8 C 34.1 4.4 34.4 5.4 34.4 6.5 C 34.4 6.6 34.4 6.7 34.4 6.9 C 34.4 6.9 29 6.9 29 6.9 C 29.1 7.7 29.3 8.3 29.7 8.7 C 30.1 9.1 30.6 9.3 31.2 9.3 C 31.7 9.3 32 9.2 32.4 9 C 32.7 8.8 32.9 8.4 33.1 7.9 Z M 29.1 5.9 C 29.1 5.9 33.1 5.9 33.1 5.9 C 33.1 5.3 32.9 4.8 32.7 4.5 C 32.3 4 31.8 3.8 31.1 3.8 C 30.6 3.8 30.1 4 29.7 4.3 C 29.3 4.7 29.1 5.2 29.1 5.9 Z M 40.9 10.2 C 40.8 9.9 40.7 9.6 40.7 9.3 C 40.2 9.7 39.8 10 39.4 10.1 C 38.9 10.3 38.5 10.4 38 10.4 C 37.2 10.4 36.6 10.2 36.2 9.8 C 35.7 9.4 35.5 8.9 35.5 8.3 C 35.5 7.9 35.6 7.6 35.8 7.3 C 35.9 7 36.1 6.8 36.4 6.6 C 36.7 6.4 37 6.3 37.3 6.2 C 37.5 6.1 37.9 6.1 38.4 6 C 39.4 5.9 40.1 5.7 40.6 5.6 C 40.6 5.4 40.6 5.3 40.6 5.3 C 40.6 4.8 40.5 4.4 40.2 4.2 C 39.9 3.9 39.4 3.8 38.8 3.8 C 38.2 3.8 37.8 3.9 37.5 4.1 C 37.3 4.3 37.1 4.7 36.9 5.2 C 36.9 5.2 35.7 5 35.7 5 C 35.8 4.5 36 4.1 36.3 3.8 C 36.5 3.4 36.9 3.2 37.4 3 C 37.8 2.9 38.4 2.8 39 2.8 C 39.6 2.8 40.1 2.8 40.5 3 C 40.9 3.1 41.2 3.3 41.4 3.5 C 41.6 3.8 41.7 4 41.8 4.4 C 41.8 4.6 41.8 5 41.8 5.5 C 41.8 5.5 41.8 7.2 41.8 7.2 C 41.8 8.3 41.8 9 41.9 9.3 C 41.9 9.6 42.1 9.9 42.2 10.2 C 42.21 10.19 40.9 10.2 40.9 10.2 C 40.9 10.2 40.92 10.19 40.9 10.2 Z M 40.6 6.5 C 40.1 6.7 39.5 6.9 38.6 7 C 38.1 7.1 37.7 7.2 37.5 7.3 C 37.3 7.4 37.1 7.5 37 7.7 C 36.9 7.8 36.8 8 36.8 8.2 C 36.8 8.6 37 8.8 37.2 9.1 C 37.5 9.3 37.8 9.4 38.3 9.4 C 38.8 9.4 39.2 9.3 39.6 9.1 C 39.9 8.9 40.2 8.6 40.4 8.2 C 40.5 8 40.6 7.5 40.6 7 C 40.6 7 40.6 6.5 40.6 6.5 Z M 43.7 10.2 L 43.7 2.9 L 44.8 2.9 C 44.8 2.9 44.82 3.95 44.8 4 C 45.1 3.6 45.4 3.3 45.7 3.1 C 46.1 2.9 46.5 2.8 47 2.8 C 47.6 2.8 48 2.9 48.3 3.1 C 48.7 3.3 48.9 3.6 49.1 4 C 49.6 3.2 50.4 2.8 51.3 2.8 C 52 2.8 52.6 3 53 3.4 C 53.4 3.8 53.6 4.4 53.6 5.2 C 53.56 5.21 53.6 10.2 53.6 10.2 L 52.3 10.2 C 52.3 10.2 52.34 5.62 52.3 5.6 C 52.3 5.1 52.3 4.8 52.2 4.6 C 52.1 4.3 52 4.2 51.8 4 C 51.6 3.9 51.3 3.8 51 3.8 C 50.5 3.8 50.1 4 49.8 4.3 C 49.4 4.7 49.3 5.2 49.3 6 C 49.27 5.97 49.3 10.2 49.3 10.2 L 48 10.2 C 48 10.2 48.04 5.48 48 5.5 C 48 4.9 47.9 4.5 47.7 4.2 C 47.5 4 47.2 3.8 46.8 3.8 C 46.4 3.8 46.1 3.9 45.8 4.1 C 45.5 4.3 45.3 4.6 45.2 4.9 C 45 5.3 45 5.8 45 6.4 C 44.95 6.43 45 10.2 45 10.2 L 43.7 10.2 Z M 59.4 10.2 L 59.4 0.2 L 60.7 0.2 L 60.7 9 L 65.6 9 L 65.6 10.2 L 59.4 10.2 Z M 72 7.9 C 72 7.9 73.3 8 73.3 8 C 73.1 8.8 72.7 9.3 72.2 9.7 C 71.6 10.2 71 10.4 70.1 10.4 C 69 10.4 68.2 10 67.6 9.4 C 67 8.7 66.7 7.8 66.7 6.6 C 66.7 5.4 67 4.5 67.6 3.8 C 68.2 3.1 69 2.8 70 2.8 C 71 2.8 71.8 3.1 72.4 3.8 C 73 4.4 73.3 5.4 73.3 6.5 C 73.3 6.6 73.3 6.7 73.3 6.9 C 73.3 6.9 67.9 6.9 67.9 6.9 C 68 7.7 68.2 8.3 68.6 8.7 C 69 9.1 69.5 9.3 70.1 9.3 C 70.6 9.3 71 9.2 71.3 9 C 71.6 8.8 71.8 8.4 72 7.9 Z M 68 5.9 C 68 5.9 72 5.9 72 5.9 C 72 5.3 71.8 4.8 71.6 4.5 C 71.2 4 70.7 3.8 70.1 3.8 C 69.5 3.8 69 4 68.6 4.3 C 68.2 4.7 68 5.2 68 5.9 Z M 79.8 10.2 C 79.7 9.9 79.6 9.6 79.6 9.3 C 79.1 9.7 78.7 10 78.3 10.1 C 77.8 10.3 77.4 10.4 76.9 10.4 C 76.1 10.4 75.5 10.2 75.1 9.8 C 74.6 9.4 74.4 8.9 74.4 8.3 C 74.4 7.9 74.5 7.6 74.7 7.3 C 74.8 7 75 6.8 75.3 6.6 C 75.6 6.4 75.9 6.3 76.2 6.2 C 76.4 6.1 76.8 6.1 77.3 6 C 78.3 5.9 79 5.7 79.5 5.6 C 79.5 5.4 79.5 5.3 79.5 5.3 C 79.5 4.8 79.4 4.4 79.1 4.2 C 78.8 3.9 78.4 3.8 77.7 3.8 C 77.2 3.8 76.7 3.9 76.5 4.1 C 76.2 4.3 76 4.7 75.8 5.2 C 75.8 5.2 74.6 5 74.6 5 C 74.8 4.5 74.9 4.1 75.2 3.8 C 75.4 3.4 75.8 3.2 76.3 3 C 76.7 2.9 77.3 2.8 77.9 2.8 C 78.5 2.8 79 2.8 79.4 3 C 79.8 3.1 80.1 3.3 80.3 3.5 C 80.5 3.8 80.6 4 80.7 4.4 C 80.7 4.6 80.7 5 80.7 5.5 C 80.7 5.5 80.7 7.2 80.7 7.2 C 80.7 8.3 80.8 9 80.8 9.3 C 80.9 9.6 81 9.9 81.1 10.2 C 81.12 10.19 79.8 10.2 79.8 10.2 C 79.8 10.2 79.83 10.19 79.8 10.2 Z M 79.5 6.5 C 79 6.7 78.4 6.9 77.5 7 C 77 7.1 76.6 7.2 76.4 7.3 C 76.2 7.4 76 7.5 75.9 7.7 C 75.8 7.8 75.7 8 75.7 8.2 C 75.7 8.6 75.9 8.8 76.1 9.1 C 76.4 9.3 76.7 9.4 77.2 9.4 C 77.7 9.4 78.1 9.3 78.5 9.1 C 78.8 8.9 79.1 8.6 79.3 8.2 C 79.4 8 79.5 7.5 79.5 7 C 79.5 7 79.5 6.5 79.5 6.5 Z M 87.3 10.2 C 87.3 10.2 87.34 9.28 87.3 9.3 C 86.9 10 86.2 10.4 85.3 10.4 C 84.7 10.4 84.2 10.2 83.7 9.9 C 83.2 9.6 82.9 9.1 82.6 8.5 C 82.3 8 82.2 7.3 82.2 6.6 C 82.2 5.8 82.3 5.2 82.6 4.6 C 82.8 4 83.2 3.6 83.6 3.2 C 84.1 2.9 84.7 2.8 85.3 2.8 C 85.7 2.8 86.1 2.9 86.4 3 C 86.8 3.2 87 3.5 87.3 3.8 C 87.26 3.77 87.3 0.2 87.3 0.2 L 88.5 0.2 L 88.5 10.2 L 87.3 10.2 Z M 83.5 6.6 C 83.5 7.5 83.6 8.2 84 8.7 C 84.4 9.1 84.9 9.3 85.4 9.3 C 86 9.3 86.4 9.1 86.8 8.7 C 87.2 8.2 87.4 7.6 87.4 6.7 C 87.4 5.7 87.2 4.9 86.8 4.5 C 86.4 4 85.9 3.8 85.4 3.8 C 84.8 3.8 84.4 4 84 4.5 C 83.6 4.9 83.5 5.6 83.5 6.6 Z M 95.4 7.9 C 95.4 7.9 96.7 8 96.7 8 C 96.5 8.8 96.1 9.3 95.5 9.7 C 95 10.2 94.3 10.4 93.5 10.4 C 92.4 10.4 91.6 10 90.9 9.4 C 90.3 8.7 90 7.8 90 6.6 C 90 5.4 90.3 4.5 91 3.8 C 91.6 3.1 92.4 2.8 93.4 2.8 C 94.4 2.8 95.2 3.1 95.8 3.8 C 96.4 4.4 96.7 5.4 96.7 6.5 C 96.7 6.6 96.7 6.7 96.7 6.9 C 96.7 6.9 91.3 6.9 91.3 6.9 C 91.3 7.7 91.6 8.3 92 8.7 C 92.4 9.1 92.9 9.3 93.5 9.3 C 93.9 9.3 94.3 9.2 94.6 9 C 94.9 8.8 95.2 8.4 95.4 7.9 Z M 91.3 5.9 C 91.3 5.9 95.4 5.9 95.4 5.9 C 95.3 5.3 95.2 4.8 94.9 4.5 C 94.5 4 94 3.8 93.4 3.8 C 92.8 3.8 92.4 4 92 4.3 C 91.6 4.7 91.4 5.2 91.3 5.9 Z M 98.2 10.2 L 98.2 2.9 L 99.3 2.9 C 99.3 2.9 99.3 4.03 99.3 4 C 99.6 3.5 99.8 3.2 100.1 3 C 100.3 2.9 100.6 2.8 100.9 2.8 C 101.3 2.8 101.7 2.9 102.1 3.2 C 102.1 3.2 101.7 4.3 101.7 4.3 C 101.4 4.1 101.1 4 100.8 4 C 100.5 4 100.3 4.1 100.1 4.3 C 99.9 4.4 99.7 4.7 99.6 5 C 99.5 5.4 99.4 5.9 99.4 6.4 C 99.42 6.39 99.4 10.2 99.4 10.2 L 98.2 10.2 Z " stroke="none" fill="#010102"/>  </g></svg>