<?xml version="1.0" standalone="no"?><!DOCTYPE svg PUBLIC "-//W3C//DTD SVG 1.1//EN" "http://www.w3.org/Graphics/SVG/1.1/DTD/svg11.dtd"><svg xmlns="http://www.w3.org/2000/svg" version="1.1" width="19.5px" height="23.9px" viewBox="0 -5 19.5 23.9" style="top:-5px">  <desc>4.5</desc>  <defs/>  <g id="Polygon139142">    <path d="M 4.4 10.2 L 4.4 8.2 L 0.3 8.2 L 0.3 6.5 L 4.6 0.1 L 6.2 0.1 L 6.2 6.5 L 7.5 6.5 L 7.5 8.2 L 6.2 8.2 L 6.2 10.2 L 4.4 10.2 Z M 4.4 6.5 L 4.4 3.1 L 2.1 6.5 L 4.4 6.5 Z M 8.8 10.2 L 8.8 8.3 L 10.7 8.3 L 10.7 10.2 L 8.8 10.2 Z M 12.3 7.6 C 12.3 7.6 14.2 7.4 14.2 7.4 C 14.3 7.9 14.4 8.2 14.7 8.4 C 15 8.7 15.3 8.8 15.6 8.8 C 16 8.8 16.4 8.7 16.6 8.3 C 16.9 8 17.1 7.5 17.1 6.9 C 17.1 6.2 16.9 5.8 16.6 5.5 C 16.4 5.2 16 5 15.6 5 C 15 5 14.5 5.3 14.1 5.7 C 14.09 5.75 12.5 5.5 12.5 5.5 L 13.5 0.3 L 18.6 0.3 L 18.6 2.1 L 15 2.1 C 15 2.1 14.67 3.81 14.7 3.8 C 15.1 3.6 15.5 3.5 16 3.5 C 16.8 3.5 17.6 3.8 18.1 4.4 C 18.7 5 19 5.8 19 6.8 C 19 7.7 18.8 8.4 18.3 9 C 17.7 9.9 16.8 10.4 15.6 10.4 C 14.7 10.4 13.9 10.1 13.3 9.6 C 12.8 9.1 12.4 8.5 12.3 7.6 Z " stroke="none" fill="#ffffff"/>  </g></svg>