<?xml version="1.0" standalone="no"?><!DOCTYPE svg PUBLIC "-//W3C//DTD SVG 1.1//EN" "http://www.w3.org/Graphics/SVG/1.1/DTD/svg11.dtd"><svg xmlns="http://www.w3.org/2000/svg" version="1.1" width="297.1px" height="94.6px" viewBox="0 -12 297.1 94.6" style="top:-12px">  <desc>NPS Net Promoter Score</desc>  <defs/>  <g id="Polygon107352">    <path d="M 3.9 48 L 17.4 63.8 L 17.4 48 L 19.4 48 L 19.4 67.1 L 17.6 67.1 L 4.2 51.4 L 4.2 67.1 L 2.2 67.1 L 2.2 48 L 3.9 48 Z M 34.2 48 L 34.2 49.9 L 25.8 49.9 L 25.8 56.6 L 33.9 56.6 L 33.9 58.5 L 25.8 58.5 L 25.8 65.2 L 34.4 65.2 L 34.4 67.1 L 23.7 67.1 L 23.7 48 L 34.2 48 Z M 51.7 48 L 51.7 49.9 L 44.9 49.9 L 44.9 67.1 L 42.8 67.1 L 42.8 49.9 L 36 49.9 L 36 48 L 51.7 48 Z M 67.1 48 C 70.9 48 73.2 50 73.2 53.3 C 73.2 56.9 70.8 58.5 66.7 58.5 C 66.7 58.54 63.7 58.5 63.7 58.5 L 63.7 67.1 L 61.6 67.1 L 61.6 48 C 61.6 48 67.07 48.04 67.1 48 Z M 63.7 56.7 C 63.7 56.7 66.65 56.69 66.6 56.7 C 69.9 56.7 71 55.4 71 53.2 C 71 51.1 69.8 49.9 66.6 49.9 C 66.65 49.89 63.7 49.9 63.7 49.9 L 63.7 56.7 Z M 76.2 48 C 76.2 48 81.18 48.04 81.2 48 C 85 48 87 50.2 87 53.2 C 87 55.5 85.7 57.2 83.4 57.9 C 84.6 58.5 85.2 59 86.7 61.4 C 86.75 61.42 90.4 67.1 90.4 67.1 L 88 67.1 C 88 67.1 84.59 61.87 84.6 61.9 C 82.8 59.1 81.7 58.5 80 58.5 C 80.03 58.45 78.3 58.5 78.3 58.5 L 78.3 67.1 L 76.2 67.1 L 76.2 48 Z M 80.2 56.6 C 82.9 56.6 84.8 56 84.8 53.2 C 84.8 50.8 83.3 49.9 80.9 49.9 C 80.9 49.89 78.3 49.9 78.3 49.9 L 78.3 56.6 C 78.3 56.6 80.23 56.61 80.2 56.6 Z M 111.8 57.5 C 111.8 62.8 107.9 67.4 101.6 67.4 C 95.7 67.4 91.7 62.9 91.7 57.7 C 91.7 52.4 95.5 47.8 101.7 47.8 C 107.8 47.8 111.8 52.2 111.8 57.5 Z M 93.9 57.6 C 93.9 62.1 97.4 65.4 101.6 65.4 C 107.3 65.4 109.7 61 109.7 57.6 C 109.7 53.7 106.8 49.8 101.8 49.8 C 96.6 49.8 93.9 53.7 93.9 57.6 Z M 115.3 48 L 117.3 48 L 124 56.4 L 130.7 48 L 132.7 48 L 132.7 67.1 L 130.6 67.1 L 130.6 51.4 L 130.6 51.4 L 124.2 59.3 L 123.8 59.3 L 117.4 51.4 L 117.4 51.4 L 117.4 67.1 L 115.3 67.1 L 115.3 48 Z M 156.3 57.5 C 156.3 62.8 152.4 67.4 146.1 67.4 C 140.2 67.4 136.2 62.9 136.2 57.7 C 136.2 52.4 140 47.8 146.2 47.8 C 152.3 47.8 156.3 52.2 156.3 57.5 Z M 138.4 57.6 C 138.4 62.1 141.9 65.4 146.1 65.4 C 151.8 65.4 154.1 61 154.1 57.6 C 154.1 53.7 151.3 49.8 146.3 49.8 C 141.1 49.8 138.4 53.7 138.4 57.6 Z M 173.7 48 L 173.7 49.9 L 166.9 49.9 L 166.9 67.1 L 164.8 67.1 L 164.8 49.9 L 158 49.9 L 158 48 L 173.7 48 Z M 186.7 48 L 186.7 49.9 L 178.4 49.9 L 178.4 56.6 L 186.5 56.6 L 186.5 58.5 L 178.4 58.5 L 178.4 65.2 L 187 65.2 L 187 67.1 L 176.3 67.1 L 176.3 48 L 186.7 48 Z M 190.3 48 C 190.3 48 195.36 48.04 195.4 48 C 199.2 48 201.2 50.2 201.2 53.2 C 201.2 55.5 199.9 57.2 197.6 57.9 C 198.8 58.5 199.4 59 200.9 61.4 C 200.93 61.42 204.6 67.1 204.6 67.1 L 202.1 67.1 C 202.1 67.1 198.78 61.87 198.8 61.9 C 197 59.1 195.8 58.5 194.2 58.5 C 194.21 58.45 192.4 58.5 192.4 58.5 L 192.4 67.1 L 190.3 67.1 L 190.3 48 Z M 194.4 56.6 C 197 56.6 199 56 199 53.2 C 199 50.8 197.5 49.9 195.1 49.9 C 195.08 49.89 192.4 49.9 192.4 49.9 L 192.4 56.6 C 192.4 56.6 194.41 56.61 194.4 56.6 Z M 222.9 49 C 222.9 49 222.9 51.4 222.9 51.4 C 221.6 50.3 220.2 49.7 218.6 49.7 C 216.6 49.7 215.3 50.8 215.3 52.5 C 215.3 53.7 215.6 54.8 218.7 56.4 C 222.7 58.5 223.6 59.8 223.6 62.4 C 223.6 65.3 221.5 67.4 218.2 67.4 C 216.4 67.4 214.7 66.8 213.2 65.7 C 213.2 65.7 213.2 63.1 213.2 63.1 C 214.7 64.6 216.3 65.5 218.2 65.5 C 220.1 65.5 221.5 64.3 221.5 62.5 C 221.5 60.8 221 59.9 217.3 57.9 C 214.3 56.4 213.1 55 213.1 52.5 C 213.1 49.8 215.5 47.8 218.7 47.8 C 220.1 47.8 221.6 48.2 222.9 49 Z M 242.7 49.3 C 242.7 49.3 242.7 51.6 242.7 51.6 C 240.7 50.4 238.5 49.7 236.2 49.7 C 231.3 49.7 228.3 53.4 228.3 57.6 C 228.3 61.9 231.3 65.4 236.2 65.4 C 238.6 65.4 240.8 64.8 242.8 63.5 C 242.8 63.5 242.8 65.8 242.8 65.8 C 240.7 66.9 238.5 67.4 236.1 67.4 C 229.5 67.4 226.1 62.4 226.1 57.7 C 226.1 52 230.5 47.8 236.2 47.8 C 238.3 47.8 240.5 48.3 242.7 49.3 Z M 265.4 57.5 C 265.4 62.8 261.5 67.4 255.2 67.4 C 249.3 67.4 245.3 62.9 245.3 57.7 C 245.3 52.4 249.1 47.8 255.3 47.8 C 261.4 47.8 265.4 52.2 265.4 57.5 Z M 247.4 57.6 C 247.4 62.1 250.9 65.4 255.2 65.4 C 260.9 65.4 263.2 61 263.2 57.6 C 263.2 53.7 260.4 49.8 255.4 49.8 C 250.2 49.8 247.4 53.7 247.4 57.6 Z M 268.9 48 C 268.9 48 273.88 48.04 273.9 48 C 277.7 48 279.7 50.2 279.7 53.2 C 279.7 55.5 278.4 57.2 276.1 57.9 C 277.3 58.5 277.9 59 279.5 61.4 C 279.45 61.42 283.1 67.1 283.1 67.1 L 280.7 67.1 C 280.7 67.1 277.29 61.87 277.3 61.9 C 275.5 59.1 274.4 58.5 272.7 58.5 C 272.73 58.45 271 58.5 271 58.5 L 271 67.1 L 268.9 67.1 L 268.9 48 Z M 272.9 56.6 C 275.6 56.6 277.5 56 277.5 53.2 C 277.5 50.8 276 49.9 273.6 49.9 C 273.6 49.89 271 49.9 271 49.9 L 271 56.6 C 271 56.6 272.93 56.61 272.9 56.6 Z M 295.7 48 L 295.7 49.9 L 287.3 49.9 L 287.3 56.6 L 295.4 56.6 L 295.4 58.5 L 287.3 58.5 L 287.3 65.2 L 295.9 65.2 L 295.9 67.1 L 285.2 67.1 L 285.2 48 L 295.7 48 Z " stroke="none" fill="#fff"/>  </g>  <g id="Polygon107351">    <path d="M 111.8 2.2 L 129.4 21.7 L 129.4 2.2 L 137.2 2.2 L 137.2 33.5 L 130.2 33.5 L 112.6 14 L 112.6 33.5 L 104.9 33.5 L 104.9 2.2 L 111.8 2.2 Z M 157.2 2.2 C 164.4 2.2 168.7 5.7 168.7 11.7 C 168.7 16.9 165.2 21.2 157.6 21.2 C 157.57 21.21 151.9 21.2 151.9 21.2 L 151.9 33.5 L 143.9 33.5 L 143.9 2.2 C 143.9 2.2 157.2 2.16 157.2 2.2 Z M 151.9 15.8 C 151.9 15.8 155.82 15.82 155.8 15.8 C 159.3 15.8 160.6 14.3 160.6 11.7 C 160.6 8.8 159.1 7.5 155.5 7.5 C 155.5 7.54 151.9 7.5 151.9 7.5 L 151.9 15.8 Z M 192.3 4.2 C 192.3 4.2 192.3 10.9 192.3 10.9 C 189.4 8.6 186.5 7.5 183.6 7.5 C 181.1 7.5 179.9 8.6 179.9 10.2 C 179.9 11.7 180.8 12.6 184.7 14.6 C 189.9 17.3 193.6 19.5 193.6 24.8 C 193.6 30.3 189.1 33.9 182.7 33.9 C 179.2 33.9 175.6 32.9 172.5 31.3 C 172.5 31.3 172.5 24.2 172.5 24.2 C 175.8 26.9 178.9 28 181.7 28 C 184.5 28 185.7 26.6 185.7 25.2 C 185.7 23.6 185.1 22.6 180.1 20.1 C 176.7 18.4 172.2 15.9 172.2 10.4 C 172.2 5.6 176 1.7 182.9 1.7 C 186.5 1.7 189.9 2.8 192.3 4.2 Z " stroke="none" fill="#fff"/>  </g></svg>