<?xml version="1.0" standalone="no"?><!DOCTYPE svg PUBLIC "-//W3C//DTD SVG 1.1//EN" "http://www.w3.org/Graphics/SVG/1.1/DTD/svg11.dtd"><svg xmlns="http://www.w3.org/2000/svg" version="1.1" width="24.1px" height="23.9px" viewBox="0 -5 24.1 23.9" style="top:-5px">  <desc>Fair</desc>  <defs/>  <g id="Polygon145642">    <path d="M 1.1 10.2 L 1.1 0.2 L 7.9 0.2 L 7.9 1.4 L 2.5 1.4 L 2.5 4.5 L 7.2 4.5 L 7.2 5.6 L 2.5 5.6 L 2.5 10.2 L 1.1 10.2 Z M 14.5 10.2 C 14.3 9.9 14.2 9.6 14.2 9.3 C 13.8 9.7 13.3 10 12.9 10.1 C 12.5 10.3 12 10.4 11.5 10.4 C 10.7 10.4 10.1 10.2 9.7 9.8 C 9.3 9.4 9.1 8.9 9.1 8.3 C 9.1 7.9 9.1 7.6 9.3 7.3 C 9.5 7 9.7 6.8 9.9 6.6 C 10.2 6.4 10.5 6.3 10.8 6.2 C 11.1 6.1 11.4 6.1 11.9 6 C 12.9 5.9 13.6 5.7 14.1 5.6 C 14.1 5.4 14.1 5.3 14.1 5.3 C 14.1 4.8 14 4.4 13.8 4.2 C 13.5 3.9 13 3.8 12.4 3.8 C 11.8 3.8 11.4 3.9 11.1 4.1 C 10.8 4.3 10.6 4.7 10.5 5.2 C 10.5 5.2 9.3 5 9.3 5 C 9.4 4.5 9.6 4.1 9.8 3.8 C 10.1 3.4 10.4 3.2 10.9 3 C 11.4 2.9 11.9 2.8 12.5 2.8 C 13.2 2.8 13.7 2.8 14.1 3 C 14.4 3.1 14.7 3.3 14.9 3.5 C 15.1 3.8 15.2 4 15.3 4.4 C 15.3 4.6 15.4 5 15.4 5.5 C 15.4 5.5 15.4 7.2 15.4 7.2 C 15.4 8.3 15.4 9 15.4 9.3 C 15.5 9.6 15.6 9.9 15.7 10.2 C 15.74 10.19 14.5 10.2 14.5 10.2 C 14.5 10.2 14.46 10.19 14.5 10.2 Z M 14.1 6.5 C 13.7 6.7 13 6.9 12.1 7 C 11.6 7.1 11.2 7.2 11 7.3 C 10.8 7.4 10.7 7.5 10.5 7.7 C 10.4 7.8 10.4 8 10.4 8.2 C 10.4 8.6 10.5 8.8 10.7 9.1 C 11 9.3 11.4 9.4 11.8 9.4 C 12.3 9.4 12.7 9.3 13.1 9.1 C 13.5 8.9 13.7 8.6 13.9 8.2 C 14 8 14.1 7.5 14.1 7 C 14.1 7 14.1 6.5 14.1 6.5 Z M 17.3 1.6 L 17.3 0.2 L 18.5 0.2 L 18.5 1.6 L 17.3 1.6 Z M 17.3 10.2 L 17.3 2.9 L 18.5 2.9 L 18.5 10.2 L 17.3 10.2 Z M 20.4 10.2 L 20.4 2.9 L 21.5 2.9 C 21.5 2.9 21.46 4.03 21.5 4 C 21.7 3.5 22 3.2 22.2 3 C 22.5 2.9 22.8 2.8 23 2.8 C 23.5 2.8 23.9 2.9 24.3 3.2 C 24.3 3.2 23.9 4.3 23.9 4.3 C 23.6 4.1 23.3 4 23 4 C 22.7 4 22.5 4.1 22.3 4.3 C 22 4.4 21.9 4.7 21.8 5 C 21.7 5.4 21.6 5.9 21.6 6.4 C 21.59 6.39 21.6 10.2 21.6 10.2 L 20.4 10.2 Z " stroke="none" fill="#ffffff"/>  </g></svg>