<?xml version="1.0" standalone="no"?><!DOCTYPE svg PUBLIC "-//W3C//DTD SVG 1.1//EN" "http://www.w3.org/Graphics/SVG/1.1/DTD/svg11.dtd"><svg xmlns="http://www.w3.org/2000/svg" version="1.1" width="87px" height="39.9px" viewBox="0 -5 87 39.9" style="top:-5px">  <desc>Solution Focused</desc>  <defs/>  <g id="Polygon143141">    <path d="M 17.6 27 L 17.6 17 L 24.4 17 L 24.4 18.2 L 19 18.2 L 19 21.3 L 23.7 21.3 L 23.7 22.4 L 19 22.4 L 19 27 L 17.6 27 Z M 25.5 23.4 C 25.5 22 25.9 21 26.6 20.4 C 27.3 19.8 28 19.6 28.9 19.6 C 29.9 19.6 30.7 19.9 31.4 20.5 C 32 21.2 32.3 22.1 32.3 23.3 C 32.3 24.2 32.2 24.9 31.9 25.5 C 31.6 26 31.2 26.4 30.7 26.7 C 30.1 27 29.5 27.2 28.9 27.2 C 27.9 27.2 27.1 26.8 26.4 26.2 C 25.8 25.5 25.5 24.6 25.5 23.4 Z M 26.8 23.4 C 26.8 24.3 27 25 27.4 25.5 C 27.8 25.9 28.3 26.1 28.9 26.1 C 29.5 26.1 30 25.9 30.4 25.4 C 30.8 25 31 24.3 31 23.3 C 31 22.4 30.8 21.7 30.4 21.3 C 30 20.8 29.5 20.6 28.9 20.6 C 28.3 20.6 27.8 20.8 27.4 21.3 C 27 21.7 26.8 22.4 26.8 23.4 Z M 38.5 24.3 C 38.5 24.3 39.7 24.5 39.7 24.5 C 39.6 25.3 39.2 26 38.7 26.4 C 38.1 26.9 37.5 27.2 36.7 27.2 C 35.7 27.2 34.9 26.8 34.3 26.2 C 33.7 25.5 33.4 24.6 33.4 23.4 C 33.4 22.6 33.5 21.9 33.8 21.3 C 34 20.7 34.4 20.3 35 20 C 35.5 19.7 36.1 19.6 36.7 19.6 C 37.5 19.6 38.1 19.8 38.6 20.2 C 39.1 20.6 39.4 21.1 39.6 21.9 C 39.6 21.9 38.4 22 38.4 22 C 38.3 21.6 38.1 21.2 37.8 20.9 C 37.5 20.7 37.1 20.6 36.7 20.6 C 36.1 20.6 35.6 20.8 35.2 21.2 C 34.8 21.7 34.6 22.4 34.6 23.4 C 34.6 24.3 34.8 25 35.2 25.5 C 35.6 25.9 36.1 26.1 36.7 26.1 C 37.1 26.1 37.6 26 37.9 25.7 C 38.2 25.4 38.4 24.9 38.5 24.3 Z M 45.5 27 C 45.5 27 45.51 25.93 45.5 25.9 C 44.9 26.7 44.2 27.2 43.2 27.2 C 42.8 27.2 42.4 27.1 42 26.9 C 41.6 26.7 41.4 26.5 41.2 26.3 C 41 26 40.9 25.7 40.8 25.4 C 40.8 25.1 40.7 24.8 40.7 24.2 C 40.73 24.23 40.7 19.7 40.7 19.7 L 42 19.7 C 42 19.7 41.96 23.76 42 23.8 C 42 24.4 42 24.8 42 25.1 C 42.1 25.4 42.3 25.6 42.5 25.8 C 42.8 26 43.1 26.1 43.5 26.1 C 43.8 26.1 44.2 26 44.5 25.8 C 44.8 25.6 45 25.4 45.2 25 C 45.3 24.7 45.4 24.2 45.4 23.6 C 45.38 23.62 45.4 19.7 45.4 19.7 L 46.6 19.7 L 46.6 27 L 45.5 27 Z M 48 24.8 C 48 24.8 49.3 24.6 49.3 24.6 C 49.3 25.1 49.5 25.5 49.8 25.8 C 50.1 26 50.6 26.1 51.1 26.1 C 51.7 26.1 52.1 26 52.4 25.8 C 52.7 25.6 52.8 25.3 52.8 25 C 52.8 24.7 52.7 24.5 52.4 24.3 C 52.3 24.2 51.9 24.1 51.2 23.9 C 50.3 23.7 49.7 23.5 49.3 23.3 C 49 23.2 48.7 22.9 48.5 22.6 C 48.3 22.3 48.3 22 48.3 21.7 C 48.3 21.3 48.3 21 48.5 20.8 C 48.6 20.5 48.8 20.3 49.1 20.1 C 49.3 19.9 49.5 19.8 49.9 19.7 C 50.2 19.6 50.5 19.6 50.9 19.6 C 51.5 19.6 52 19.7 52.4 19.8 C 52.9 20 53.2 20.2 53.4 20.5 C 53.6 20.8 53.7 21.1 53.8 21.6 C 53.8 21.6 52.6 21.8 52.6 21.8 C 52.5 21.4 52.4 21.1 52.1 20.9 C 51.9 20.7 51.5 20.6 51 20.6 C 50.4 20.6 50 20.7 49.8 20.9 C 49.6 21 49.4 21.3 49.4 21.5 C 49.4 21.7 49.5 21.8 49.6 21.9 C 49.7 22.1 49.8 22.2 50.1 22.3 C 50.2 22.3 50.5 22.4 51.2 22.6 C 52 22.8 52.6 23 53 23.2 C 53.3 23.3 53.6 23.5 53.8 23.8 C 54 24.1 54.1 24.4 54.1 24.9 C 54.1 25.3 54 25.7 53.7 26 C 53.5 26.4 53.1 26.7 52.7 26.9 C 52.2 27.1 51.7 27.2 51.2 27.2 C 50.2 27.2 49.5 27 49 26.6 C 48.5 26.2 48.2 25.6 48 24.8 Z M 60.5 24.7 C 60.5 24.7 61.8 24.8 61.8 24.8 C 61.6 25.6 61.2 26.1 60.7 26.5 C 60.1 27 59.4 27.2 58.6 27.2 C 57.5 27.2 56.7 26.8 56.1 26.2 C 55.4 25.5 55.1 24.6 55.1 23.4 C 55.1 22.2 55.4 21.3 56.1 20.6 C 56.7 19.9 57.5 19.6 58.5 19.6 C 59.5 19.6 60.3 19.9 60.9 20.6 C 61.5 21.2 61.8 22.2 61.8 23.3 C 61.8 23.4 61.8 23.5 61.8 23.7 C 61.8 23.7 56.4 23.7 56.4 23.7 C 56.4 24.5 56.7 25.1 57.1 25.5 C 57.5 25.9 58 26.1 58.6 26.1 C 59 26.1 59.4 26 59.7 25.8 C 60.1 25.6 60.3 25.2 60.5 24.7 Z M 56.5 22.7 C 56.5 22.7 60.5 22.7 60.5 22.7 C 60.5 22.1 60.3 21.6 60.1 21.3 C 59.7 20.8 59.2 20.6 58.5 20.6 C 58 20.6 57.5 20.8 57.1 21.1 C 56.7 21.5 56.5 22 56.5 22.7 Z M 68 27 C 68 27 68.03 26.08 68 26.1 C 67.6 26.8 66.9 27.2 66 27.2 C 65.4 27.2 64.9 27 64.4 26.7 C 63.9 26.4 63.5 25.9 63.3 25.3 C 63 24.8 62.9 24.1 62.9 23.4 C 62.9 22.6 63 22 63.2 21.4 C 63.5 20.8 63.8 20.4 64.3 20 C 64.8 19.7 65.4 19.6 65.9 19.6 C 66.4 19.6 66.8 19.7 67.1 19.8 C 67.5 20 67.7 20.3 68 20.6 C 67.95 20.57 68 17 68 17 L 69.2 17 L 69.2 27 L 68 27 Z M 64.1 23.4 C 64.1 24.3 64.3 25 64.7 25.5 C 65.1 25.9 65.6 26.1 66.1 26.1 C 66.7 26.1 67.1 25.9 67.5 25.5 C 67.9 25 68.1 24.4 68.1 23.5 C 68.1 22.5 67.9 21.7 67.5 21.3 C 67.1 20.8 66.6 20.6 66.1 20.6 C 65.5 20.6 65.1 20.8 64.7 21.3 C 64.3 21.7 64.1 22.4 64.1 23.4 Z " stroke="none" fill="#fff"/>  </g>  <g id="Polygon143140">    <path d="M 18.7 7 C 18.7 7 19.9 6.9 19.9 6.9 C 20 7.4 20.1 7.8 20.3 8.1 C 20.6 8.4 20.9 8.7 21.3 8.9 C 21.8 9.1 22.3 9.2 22.9 9.2 C 23.4 9.2 23.8 9.1 24.2 8.9 C 24.6 8.8 24.9 8.6 25.1 8.3 C 25.3 8.1 25.4 7.8 25.4 7.5 C 25.4 7.2 25.3 6.9 25.1 6.6 C 24.9 6.4 24.6 6.2 24.2 6.1 C 23.9 6 23.3 5.8 22.4 5.6 C 21.5 5.3 20.8 5.1 20.5 4.9 C 20 4.7 19.6 4.4 19.4 4 C 19.2 3.6 19.1 3.2 19.1 2.8 C 19.1 2.3 19.2 1.8 19.5 1.3 C 19.8 0.9 20.2 0.6 20.7 0.3 C 21.3 0.1 21.9 0 22.6 0 C 23.3 0 24 0.1 24.5 0.4 C 25.1 0.6 25.6 1 25.9 1.4 C 26.2 1.9 26.3 2.4 26.3 3 C 26.3 3 25.1 3.1 25.1 3.1 C 25 2.5 24.8 2 24.4 1.7 C 24 1.3 23.4 1.2 22.6 1.2 C 21.8 1.2 21.3 1.3 20.9 1.6 C 20.5 1.9 20.3 2.3 20.3 2.7 C 20.3 3 20.5 3.3 20.7 3.6 C 21 3.8 21.6 4 22.7 4.3 C 23.8 4.5 24.5 4.7 24.9 4.9 C 25.5 5.2 26 5.5 26.2 5.9 C 26.5 6.3 26.7 6.8 26.7 7.4 C 26.7 7.9 26.5 8.4 26.2 8.9 C 25.9 9.3 25.4 9.7 24.9 10 C 24.3 10.2 23.7 10.4 22.9 10.4 C 22 10.4 21.3 10.2 20.7 10 C 20.1 9.7 19.6 9.3 19.2 8.8 C 18.9 8.2 18.7 7.6 18.7 7 Z M 27.8 6.6 C 27.8 5.2 28.2 4.2 29 3.6 C 29.6 3 30.4 2.8 31.3 2.8 C 32.2 2.8 33.1 3.1 33.7 3.7 C 34.3 4.4 34.6 5.3 34.6 6.5 C 34.6 7.4 34.5 8.1 34.2 8.7 C 33.9 9.2 33.5 9.6 33 9.9 C 32.5 10.2 31.9 10.4 31.3 10.4 C 30.2 10.4 29.4 10 28.8 9.4 C 28.2 8.7 27.8 7.8 27.8 6.6 Z M 29.1 6.6 C 29.1 7.5 29.3 8.2 29.7 8.7 C 30.1 9.1 30.6 9.3 31.3 9.3 C 31.9 9.3 32.4 9.1 32.8 8.6 C 33.2 8.2 33.4 7.5 33.4 6.5 C 33.4 5.6 33.2 4.9 32.8 4.5 C 32.4 4 31.9 3.8 31.3 3.8 C 30.6 3.8 30.1 4 29.7 4.5 C 29.3 4.9 29.1 5.6 29.1 6.6 Z M 36.1 10.2 L 36.1 0.2 L 37.3 0.2 L 37.3 10.2 L 36.1 10.2 Z M 44 10.2 C 44 10.2 43.96 9.13 44 9.1 C 43.4 9.9 42.6 10.4 41.7 10.4 C 41.2 10.4 40.8 10.3 40.5 10.1 C 40.1 9.9 39.8 9.7 39.6 9.5 C 39.4 9.2 39.3 8.9 39.2 8.6 C 39.2 8.3 39.2 8 39.2 7.4 C 39.17 7.43 39.2 2.9 39.2 2.9 L 40.4 2.9 C 40.4 2.9 40.4 6.96 40.4 7 C 40.4 7.6 40.4 8 40.5 8.3 C 40.6 8.6 40.7 8.8 41 9 C 41.2 9.2 41.5 9.3 41.9 9.3 C 42.3 9.3 42.6 9.2 42.9 9 C 43.3 8.8 43.5 8.6 43.6 8.2 C 43.8 7.9 43.8 7.4 43.8 6.8 C 43.83 6.82 43.8 2.9 43.8 2.9 L 45.1 2.9 L 45.1 10.2 L 44 10.2 Z M 49.1 9.1 C 49.3 9.1 49.5 9.1 49.7 9.1 C 49.7 9.1 49.9 10.2 49.9 10.2 C 49.5 10.3 49.2 10.3 48.9 10.3 C 48.5 10.3 48.1 10.2 47.9 10.1 C 47.6 9.9 47.5 9.7 47.4 9.5 C 47.3 9.3 47.2 8.8 47.2 8.1 C 47.21 8.07 47.2 3.9 47.2 3.9 L 46.3 3.9 L 46.3 2.9 L 47.2 2.9 L 47.2 1.1 L 48.4 0.4 L 48.4 2.9 L 49.7 2.9 L 49.7 3.9 L 48.4 3.9 C 48.4 3.9 48.44 8.13 48.4 8.1 C 48.4 8.5 48.5 8.7 48.5 8.8 C 48.5 8.9 48.6 9 48.7 9.1 C 48.8 9.1 49 9.1 49.1 9.1 C 49.1 9.1 49.1 9.1 49.1 9.1 Z M 50.9 1.6 L 50.9 0.2 L 52.1 0.2 L 52.1 1.6 L 50.9 1.6 Z M 50.9 10.2 L 50.9 2.9 L 52.1 2.9 L 52.1 10.2 L 50.9 10.2 Z M 53.5 6.6 C 53.5 5.2 53.9 4.2 54.7 3.6 C 55.3 3 56 2.8 56.9 2.8 C 57.9 2.8 58.7 3.1 59.4 3.7 C 60 4.4 60.3 5.3 60.3 6.5 C 60.3 7.4 60.2 8.1 59.9 8.7 C 59.6 9.2 59.2 9.6 58.7 9.9 C 58.2 10.2 57.6 10.4 56.9 10.4 C 55.9 10.4 55.1 10 54.5 9.4 C 53.8 8.7 53.5 7.8 53.5 6.6 Z M 54.8 6.6 C 54.8 7.5 55 8.2 55.4 8.7 C 55.8 9.1 56.3 9.3 56.9 9.3 C 57.5 9.3 58.1 9.1 58.5 8.6 C 58.9 8.2 59.1 7.5 59.1 6.5 C 59.1 5.6 58.9 4.9 58.5 4.5 C 58 4 57.5 3.8 56.9 3.8 C 56.3 3.8 55.8 4 55.4 4.5 C 55 4.9 54.8 5.6 54.8 6.6 Z M 61.8 10.2 L 61.8 2.9 L 62.9 2.9 C 62.9 2.9 62.88 3.96 62.9 4 C 63.4 3.2 64.2 2.8 65.2 2.8 C 65.6 2.8 66 2.8 66.4 3 C 66.8 3.2 67 3.4 67.2 3.6 C 67.4 3.9 67.5 4.2 67.6 4.5 C 67.6 4.8 67.7 5.2 67.7 5.7 C 67.67 5.73 67.7 10.2 67.7 10.2 L 66.4 10.2 C 66.4 10.2 66.44 5.78 66.4 5.8 C 66.4 5.3 66.4 4.9 66.3 4.7 C 66.2 4.4 66 4.2 65.8 4.1 C 65.5 3.9 65.3 3.8 64.9 3.8 C 64.4 3.8 64 4 63.6 4.3 C 63.2 4.7 63 5.3 63 6.2 C 63 6.23 63 10.2 63 10.2 L 61.8 10.2 Z " stroke="none" fill="#fff"/>  </g></svg>