<?xml version="1.0" standalone="no"?><!DOCTYPE svg PUBLIC "-//W3C//DTD SVG 1.1//EN" "http://www.w3.org/Graphics/SVG/1.1/DTD/svg11.dtd"><svg xmlns="http://www.w3.org/2000/svg" version="1.1" width="237px" height="33.9px" viewBox="0 -1 237 33.9" style="top:-1px">  <desc>Compliance &amp; Risk</desc>  <defs/>  <g id="Polygon134988">    <path d="M 7.4 15.9 C 7.4 15.9 9.4 16.5 9.4 16.5 C 9.1 17.6 8.6 18.4 7.9 19 C 7.2 19.5 6.3 19.8 5.2 19.8 C 3.9 19.8 2.8 19.3 1.9 18.4 C 1.1 17.5 0.7 16.2 0.7 14.7 C 0.7 13 1.1 11.7 2 10.8 C 2.8 9.9 3.9 9.4 5.4 9.4 C 6.6 9.4 7.6 9.8 8.3 10.5 C 8.8 10.9 9.1 11.5 9.4 12.3 C 9.4 12.3 7.4 12.8 7.4 12.8 C 7.2 12.3 7 11.9 6.6 11.6 C 6.2 11.3 5.8 11.1 5.3 11.1 C 4.5 11.1 3.9 11.4 3.4 11.9 C 3 12.5 2.7 13.3 2.7 14.5 C 2.7 15.8 3 16.7 3.4 17.2 C 3.9 17.8 4.5 18 5.2 18 C 5.7 18 6.2 17.9 6.6 17.5 C 7 17.2 7.3 16.6 7.4 15.9 Z M 10.7 15.9 C 10.7 15.2 10.8 14.6 11.1 14 C 11.5 13.4 11.9 13 12.5 12.6 C 13.1 12.3 13.7 12.2 14.4 12.2 C 15.5 12.2 16.4 12.5 17.1 13.2 C 17.8 14 18.2 14.9 18.2 15.9 C 18.2 17 17.8 18 17.1 18.7 C 16.4 19.4 15.5 19.8 14.4 19.8 C 13.8 19.8 13.1 19.6 12.5 19.3 C 11.9 19 11.5 18.6 11.1 18 C 10.8 17.4 10.7 16.7 10.7 15.9 Z M 12.6 16 C 12.6 16.7 12.8 17.2 13.2 17.6 C 13.5 18 13.9 18.2 14.4 18.2 C 14.9 18.2 15.3 18 15.7 17.6 C 16 17.2 16.2 16.7 16.2 15.9 C 16.2 15.2 16 14.7 15.7 14.3 C 15.3 13.9 14.9 13.7 14.4 13.7 C 13.9 13.7 13.5 13.9 13.2 14.3 C 12.8 14.7 12.6 15.2 12.6 16 Z M 19.5 12.3 L 21.3 12.3 C 21.3 12.3 21.29 13.32 21.3 13.3 C 21.9 12.6 22.7 12.2 23.6 12.2 C 24 12.2 24.4 12.3 24.8 12.5 C 25.1 12.6 25.4 12.9 25.6 13.3 C 25.9 12.9 26.3 12.6 26.6 12.5 C 27 12.3 27.4 12.2 27.8 12.2 C 28.4 12.2 28.8 12.3 29.2 12.5 C 29.5 12.7 29.8 13 30 13.4 C 30.1 13.8 30.2 14.3 30.2 15 C 30.2 14.95 30.2 19.6 30.2 19.6 L 28.3 19.6 C 28.3 19.6 28.28 15.44 28.3 15.4 C 28.3 14.7 28.2 14.3 28.1 14 C 27.9 13.8 27.6 13.6 27.3 13.6 C 27 13.6 26.7 13.7 26.5 13.9 C 26.3 14 26.1 14.3 26 14.6 C 25.9 14.9 25.8 15.4 25.8 16.1 C 25.83 16.11 25.8 19.6 25.8 19.6 L 23.9 19.6 C 23.9 19.6 23.91 15.61 23.9 15.6 C 23.9 14.9 23.9 14.5 23.8 14.2 C 23.7 14 23.6 13.9 23.5 13.8 C 23.3 13.7 23.2 13.6 22.9 13.6 C 22.6 13.6 22.3 13.7 22.1 13.9 C 21.9 14 21.7 14.3 21.6 14.6 C 21.5 14.9 21.4 15.4 21.4 16.1 C 21.44 16.06 21.4 19.6 21.4 19.6 L 19.5 19.6 L 19.5 12.3 Z M 32.1 12.3 L 33.9 12.3 C 33.9 12.3 33.85 13.4 33.9 13.4 C 34.1 13 34.4 12.7 34.8 12.5 C 35.2 12.3 35.6 12.2 36.1 12.2 C 37 12.2 37.7 12.5 38.3 13.2 C 38.8 13.8 39.1 14.7 39.1 15.9 C 39.1 17.1 38.8 18.1 38.3 18.7 C 37.7 19.4 36.9 19.8 36.1 19.8 C 35.7 19.8 35.3 19.7 35 19.5 C 34.7 19.4 34.3 19.1 34 18.7 C 33.98 18.7 34 22.4 34 22.4 L 32.1 22.4 L 32.1 12.3 Z M 34 15.8 C 34 16.7 34.1 17.3 34.4 17.6 C 34.8 18 35.2 18.2 35.6 18.2 C 36.1 18.2 36.4 18.1 36.7 17.7 C 37 17.3 37.2 16.8 37.2 15.9 C 37.2 15.2 37 14.6 36.7 14.2 C 36.4 13.9 36 13.7 35.6 13.7 C 35.1 13.7 34.7 13.9 34.4 14.2 C 34.1 14.6 34 15.1 34 15.8 Z M 40.7 19.6 L 40.7 9.6 L 42.6 9.6 L 42.6 19.6 L 40.7 19.6 Z M 44.6 11.3 L 44.6 9.6 L 46.5 9.6 L 46.5 11.3 L 44.6 11.3 Z M 44.6 19.6 L 44.6 12.3 L 46.5 12.3 L 46.5 19.6 L 44.6 19.6 Z M 49.9 14.5 C 49.9 14.5 48.1 14.2 48.1 14.2 C 48.3 13.5 48.7 13 49.2 12.7 C 49.6 12.3 50.3 12.2 51.3 12.2 C 52.1 12.2 52.8 12.3 53.2 12.5 C 53.6 12.7 53.9 12.9 54.1 13.2 C 54.3 13.6 54.3 14.1 54.3 15 C 54.3 15 54.3 17.2 54.3 17.2 C 54.3 17.8 54.3 18.3 54.4 18.6 C 54.5 18.9 54.6 19.2 54.8 19.6 C 54.8 19.6 52.9 19.6 52.9 19.6 C 52.8 19.5 52.7 19.3 52.7 19 C 52.6 18.9 52.6 18.8 52.6 18.8 C 52.3 19.1 51.9 19.4 51.5 19.5 C 51.2 19.7 50.8 19.8 50.4 19.8 C 49.6 19.8 49 19.6 48.6 19.1 C 48.2 18.7 47.9 18.2 47.9 17.6 C 47.9 17.2 48 16.8 48.2 16.5 C 48.4 16.2 48.7 15.9 49.1 15.8 C 49.4 15.6 49.9 15.5 50.6 15.3 C 51.5 15.2 52.1 15 52.5 14.9 C 52.5 14.9 52.5 14.7 52.5 14.7 C 52.5 14.3 52.4 14 52.2 13.9 C 52 13.7 51.7 13.6 51.1 13.6 C 50.8 13.6 50.5 13.7 50.3 13.8 C 50.2 14 50 14.2 49.9 14.5 Z M 52.5 16.1 C 52.2 16.2 51.8 16.3 51.3 16.4 C 50.8 16.5 50.4 16.6 50.2 16.7 C 50 16.9 49.9 17.1 49.9 17.4 C 49.9 17.7 50 17.9 50.2 18.1 C 50.4 18.3 50.6 18.4 50.9 18.4 C 51.3 18.4 51.6 18.3 51.9 18.1 C 52.2 17.9 52.3 17.7 52.4 17.4 C 52.4 17.3 52.5 16.9 52.5 16.5 C 52.5 16.5 52.5 16.1 52.5 16.1 Z M 62.8 19.6 L 60.9 19.6 C 60.9 19.6 60.92 15.89 60.9 15.9 C 60.9 15.1 60.9 14.6 60.8 14.4 C 60.7 14.1 60.6 14 60.4 13.8 C 60.2 13.7 60 13.6 59.7 13.6 C 59.4 13.6 59.1 13.7 58.8 13.9 C 58.6 14.1 58.4 14.3 58.3 14.6 C 58.2 14.9 58.1 15.5 58.1 16.3 C 58.14 16.3 58.1 19.6 58.1 19.6 L 56.2 19.6 L 56.2 12.3 L 58 12.3 C 58 12.3 58 13.4 58 13.4 C 58.6 12.6 59.4 12.2 60.4 12.2 C 60.8 12.2 61.2 12.2 61.6 12.4 C 61.9 12.6 62.2 12.7 62.4 13 C 62.5 13.2 62.7 13.5 62.7 13.8 C 62.8 14.1 62.8 14.5 62.8 15.1 C 62.84 15.08 62.8 19.6 62.8 19.6 Z M 71.1 14.5 C 71.1 14.5 69.2 14.8 69.2 14.8 C 69.2 14.4 69 14.2 68.8 14 C 68.6 13.8 68.3 13.7 67.9 13.7 C 67.4 13.7 67 13.8 66.8 14.2 C 66.5 14.5 66.3 15.1 66.3 15.8 C 66.3 16.7 66.5 17.3 66.8 17.7 C 67.1 18 67.4 18.2 67.9 18.2 C 68.3 18.2 68.6 18.1 68.8 17.9 C 69.1 17.7 69.2 17.3 69.3 16.8 C 69.3 16.8 71.2 17.1 71.2 17.1 C 71 18 70.6 18.7 70.1 19.1 C 69.5 19.5 68.8 19.8 67.8 19.8 C 66.8 19.8 65.9 19.4 65.3 18.8 C 64.7 18.1 64.4 17.2 64.4 16 C 64.4 14.8 64.7 13.8 65.3 13.2 C 65.9 12.5 66.8 12.2 67.9 12.2 C 68.8 12.2 69.5 12.4 70 12.7 C 70.5 13.1 70.9 13.7 71.1 14.5 Z M 76.8 17.3 C 76.8 17.3 78.7 17.6 78.7 17.6 C 78.4 18.3 78.1 18.8 77.5 19.2 C 77 19.6 76.3 19.8 75.5 19.8 C 74.3 19.8 73.3 19.3 72.7 18.5 C 72.2 17.9 72 17 72 16 C 72 14.8 72.3 13.9 73 13.2 C 73.6 12.5 74.4 12.2 75.3 12.2 C 76.4 12.2 77.3 12.5 77.9 13.2 C 78.5 14 78.8 15 78.8 16.5 C 78.8 16.5 74 16.5 74 16.5 C 74 17.1 74.1 17.5 74.4 17.8 C 74.7 18.2 75.1 18.3 75.6 18.3 C 75.9 18.3 76.1 18.2 76.3 18.1 C 76.5 17.9 76.7 17.6 76.8 17.3 Z M 76.9 15.3 C 76.9 14.8 76.7 14.4 76.5 14.1 C 76.2 13.8 75.8 13.6 75.5 13.6 C 75 13.6 74.7 13.8 74.4 14.1 C 74.1 14.4 74 14.8 74 15.3 C 74 15.3 76.9 15.3 76.9 15.3 Z M 93.1 18.4 C 93.1 18.4 92 19.9 92 19.9 C 91.4 19.6 90.8 19.2 90.3 18.7 C 89.9 19.1 89.5 19.3 89 19.5 C 88.6 19.7 88 19.8 87.4 19.8 C 86.2 19.8 85.2 19.4 84.6 18.7 C 84.1 18.2 83.9 17.6 83.9 16.8 C 83.9 16.2 84 15.6 84.4 15.1 C 84.8 14.6 85.4 14.2 86.1 13.8 C 85.8 13.4 85.5 13 85.4 12.6 C 85.2 12.2 85.1 11.9 85.1 11.6 C 85.1 11 85.4 10.5 85.8 10 C 86.3 9.6 87 9.4 87.9 9.4 C 88.8 9.4 89.5 9.6 89.9 10.1 C 90.4 10.5 90.7 11 90.7 11.7 C 90.7 12.1 90.6 12.5 90.3 12.8 C 90.1 13.2 89.6 13.6 88.9 14.1 C 88.9 14.1 90.2 15.9 90.2 15.9 C 90.4 15.6 90.6 15.2 90.7 14.8 C 90.7 14.8 92.4 15.2 92.4 15.2 C 92.2 15.8 92.1 16.2 92 16.5 C 91.8 16.8 91.7 17 91.5 17.2 C 91.8 17.4 92 17.7 92.4 17.9 C 92.7 18.1 93 18.3 93.1 18.4 Z M 87.9 12.9 C 87.9 12.9 88.42 12.52 88.4 12.5 C 88.8 12.2 89 11.9 89 11.6 C 89 11.4 88.9 11.2 88.7 11 C 88.5 10.8 88.3 10.8 88 10.8 C 87.7 10.8 87.4 10.8 87.2 11 C 87.1 11.1 87 11.3 87 11.5 C 87 11.7 87.1 12 87.4 12.4 C 87.42 12.37 87.9 12.9 87.9 12.9 Z M 87.1 15 C 86.7 15.2 86.4 15.5 86.2 15.8 C 85.9 16.1 85.8 16.4 85.8 16.8 C 85.8 17.2 86 17.5 86.2 17.8 C 86.5 18.1 86.9 18.2 87.3 18.2 C 87.6 18.2 87.9 18.1 88.2 18 C 88.5 17.9 88.8 17.7 89.1 17.4 C 89.1 17.4 87.1 15 87.1 15 Z M 98.3 19.6 L 98.3 9.6 C 98.3 9.6 102.53 9.57 102.5 9.6 C 103.6 9.6 104.4 9.7 104.9 9.8 C 105.3 10 105.7 10.3 106 10.8 C 106.3 11.3 106.5 11.8 106.5 12.4 C 106.5 13.1 106.2 13.8 105.8 14.2 C 105.4 14.7 104.7 15 103.8 15.2 C 104.3 15.4 104.6 15.7 104.9 16 C 105.2 16.3 105.6 16.9 106.1 17.6 C 106.05 17.64 107.3 19.6 107.3 19.6 L 104.9 19.6 C 104.9 19.6 103.39 17.41 103.4 17.4 C 102.9 16.6 102.5 16.1 102.3 15.9 C 102.1 15.7 101.9 15.6 101.7 15.5 C 101.5 15.4 101.2 15.4 100.7 15.4 C 100.7 15.41 100.3 15.4 100.3 15.4 L 100.3 19.6 L 98.3 19.6 Z M 100.3 13.8 C 100.3 13.8 101.79 13.81 101.8 13.8 C 102.8 13.8 103.4 13.8 103.6 13.7 C 103.8 13.6 104 13.5 104.2 13.3 C 104.3 13.1 104.4 12.8 104.4 12.5 C 104.4 12.2 104.3 11.9 104.1 11.7 C 103.9 11.5 103.7 11.4 103.3 11.3 C 103.2 11.3 102.7 11.3 101.9 11.3 C 101.87 11.27 100.3 11.3 100.3 11.3 L 100.3 13.8 Z M 108.4 11.3 L 108.4 9.6 L 110.3 9.6 L 110.3 11.3 L 108.4 11.3 Z M 108.4 19.6 L 108.4 12.3 L 110.3 12.3 L 110.3 19.6 L 108.4 19.6 Z M 111.6 17.5 C 111.6 17.5 113.5 17.2 113.5 17.2 C 113.6 17.6 113.7 17.9 114 18.1 C 114.2 18.3 114.6 18.4 115 18.4 C 115.5 18.4 115.9 18.3 116.2 18.1 C 116.3 18 116.4 17.8 116.4 17.6 C 116.4 17.4 116.4 17.3 116.3 17.2 C 116.2 17.1 116 17 115.6 17 C 114.1 16.6 113.1 16.3 112.7 16 C 112.1 15.6 111.8 15.1 111.8 14.4 C 111.8 13.8 112.1 13.2 112.6 12.8 C 113.1 12.4 113.8 12.2 114.9 12.2 C 115.9 12.2 116.6 12.3 117.1 12.7 C 117.6 13 117.9 13.5 118.1 14.1 C 118.1 14.1 116.3 14.4 116.3 14.4 C 116.2 14.1 116.1 13.9 115.9 13.8 C 115.6 13.6 115.3 13.5 114.9 13.5 C 114.4 13.5 114.1 13.6 113.8 13.8 C 113.7 13.9 113.6 14 113.6 14.2 C 113.6 14.3 113.7 14.4 113.8 14.5 C 114 14.6 114.6 14.8 115.6 15 C 116.6 15.3 117.3 15.6 117.7 15.9 C 118.1 16.2 118.4 16.7 118.4 17.3 C 118.4 18 118.1 18.6 117.5 19 C 117 19.5 116.1 19.8 115 19.8 C 114.1 19.8 113.3 19.6 112.7 19.2 C 112.1 18.8 111.7 18.2 111.6 17.5 Z M 120 19.6 L 120 9.6 L 121.9 9.6 L 121.9 14.9 L 124.1 12.3 L 126.5 12.3 L 124 15 L 126.7 19.6 L 124.6 19.6 L 122.8 16.3 L 121.9 17.3 L 121.9 19.6 L 120 19.6 Z " stroke="none" fill="#fff"/>  </g></svg>