<?xml version="1.0" standalone="no"?><!DOCTYPE svg PUBLIC "-//W3C//DTD SVG 1.1//EN" "http://www.w3.org/Graphics/SVG/1.1/DTD/svg11.dtd"><svg xmlns="http://www.w3.org/2000/svg" version="1.1" width="87px" height="23.9px" viewBox="0 -5 87 23.9" style="top:-5px">  <desc>Helpfulness</desc>  <defs/>  <g id="Polygon137581">    <path d="M 7.9 10.2 L 7.9 0.2 L 9.2 0.2 L 9.2 4.3 L 14.4 4.3 L 14.4 0.2 L 15.7 0.2 L 15.7 10.2 L 14.4 10.2 L 14.4 5.5 L 9.2 5.5 L 9.2 10.2 L 7.9 10.2 Z M 22.8 7.9 C 22.8 7.9 24 8 24 8 C 23.8 8.8 23.5 9.3 22.9 9.7 C 22.4 10.2 21.7 10.4 20.8 10.4 C 19.8 10.4 18.9 10 18.3 9.4 C 17.7 8.7 17.4 7.8 17.4 6.6 C 17.4 5.4 17.7 4.5 18.3 3.8 C 19 3.1 19.8 2.8 20.8 2.8 C 21.7 2.8 22.5 3.1 23.2 3.8 C 23.8 4.4 24.1 5.4 24.1 6.5 C 24.1 6.6 24.1 6.7 24.1 6.9 C 24.1 6.9 18.7 6.9 18.7 6.9 C 18.7 7.7 18.9 8.3 19.3 8.7 C 19.7 9.1 20.2 9.3 20.9 9.3 C 21.3 9.3 21.7 9.2 22 9 C 22.3 8.8 22.6 8.4 22.8 7.9 Z M 18.7 5.9 C 18.7 5.9 22.8 5.9 22.8 5.9 C 22.7 5.3 22.6 4.8 22.3 4.5 C 21.9 4 21.4 3.8 20.8 3.8 C 20.2 3.8 19.8 4 19.4 4.3 C 19 4.7 18.8 5.2 18.7 5.9 Z M 25.6 10.2 L 25.6 0.2 L 26.8 0.2 L 26.8 10.2 L 25.6 10.2 Z M 28.7 13 L 28.7 2.9 L 29.8 2.9 C 29.8 2.9 29.82 3.88 29.8 3.9 C 30.1 3.5 30.4 3.2 30.7 3 C 31 2.9 31.4 2.8 31.9 2.8 C 32.5 2.8 33.1 2.9 33.6 3.2 C 34 3.6 34.4 4 34.6 4.6 C 34.9 5.2 35 5.8 35 6.5 C 35 7.3 34.9 7.9 34.6 8.5 C 34.3 9.1 33.9 9.6 33.4 9.9 C 32.9 10.2 32.4 10.4 31.8 10.4 C 31.4 10.4 31.1 10.3 30.7 10.1 C 30.4 9.9 30.1 9.7 29.9 9.4 C 29.92 9.44 29.9 13 29.9 13 L 28.7 13 Z M 29.8 6.6 C 29.8 7.5 30 8.2 30.4 8.7 C 30.8 9.1 31.2 9.3 31.7 9.3 C 32.3 9.3 32.8 9.1 33.2 8.7 C 33.5 8.2 33.7 7.5 33.7 6.5 C 33.7 5.6 33.5 4.9 33.2 4.4 C 32.8 4 32.3 3.7 31.8 3.7 C 31.3 3.7 30.8 4 30.4 4.5 C 30 5 29.8 5.7 29.8 6.6 Z M 36.8 10.2 L 36.8 3.9 L 35.7 3.9 L 35.7 2.9 L 36.8 2.9 C 36.8 2.9 36.77 2.16 36.8 2.2 C 36.8 1.7 36.8 1.3 36.9 1.1 C 37 0.8 37.2 0.5 37.5 0.3 C 37.8 0.1 38.2 0 38.8 0 C 39.1 0 39.5 0 39.9 0.1 C 39.9 0.1 39.7 1.2 39.7 1.2 C 39.5 1.2 39.3 1.1 39 1.1 C 38.6 1.1 38.4 1.2 38.2 1.4 C 38.1 1.5 38 1.8 38 2.3 C 38 2.26 38 2.9 38 2.9 L 39.4 2.9 L 39.4 3.9 L 38 3.9 L 38 10.2 L 36.8 10.2 Z M 45.1 10.2 C 45.1 10.2 45.13 9.13 45.1 9.1 C 44.6 9.9 43.8 10.4 42.8 10.4 C 42.4 10.4 42 10.3 41.6 10.1 C 41.3 9.9 41 9.7 40.8 9.5 C 40.6 9.2 40.5 8.9 40.4 8.6 C 40.4 8.3 40.3 8 40.3 7.4 C 40.34 7.43 40.3 2.9 40.3 2.9 L 41.6 2.9 C 41.6 2.9 41.57 6.96 41.6 7 C 41.6 7.6 41.6 8 41.6 8.3 C 41.7 8.6 41.9 8.8 42.1 9 C 42.4 9.2 42.7 9.3 43.1 9.3 C 43.4 9.3 43.8 9.2 44.1 9 C 44.4 8.8 44.7 8.6 44.8 8.2 C 44.9 7.9 45 7.4 45 6.8 C 45 6.82 45 2.9 45 2.9 L 46.2 2.9 L 46.2 10.2 L 45.1 10.2 Z M 48.1 10.2 L 48.1 0.2 L 49.4 0.2 L 49.4 10.2 L 48.1 10.2 Z M 51.3 10.2 L 51.3 2.9 L 52.4 2.9 C 52.4 2.9 52.37 3.96 52.4 4 C 52.9 3.2 53.7 2.8 54.7 2.8 C 55.1 2.8 55.5 2.8 55.9 3 C 56.3 3.2 56.5 3.4 56.7 3.6 C 56.9 3.9 57 4.2 57.1 4.5 C 57.1 4.8 57.2 5.2 57.2 5.7 C 57.17 5.73 57.2 10.2 57.2 10.2 L 55.9 10.2 C 55.9 10.2 55.94 5.78 55.9 5.8 C 55.9 5.3 55.9 4.9 55.8 4.7 C 55.7 4.4 55.5 4.2 55.3 4.1 C 55 3.9 54.8 3.8 54.4 3.8 C 53.9 3.8 53.4 4 53.1 4.3 C 52.7 4.7 52.5 5.3 52.5 6.2 C 52.5 6.23 52.5 10.2 52.5 10.2 L 51.3 10.2 Z M 64 7.9 C 64 7.9 65.3 8 65.3 8 C 65.1 8.8 64.7 9.3 64.2 9.7 C 63.6 10.2 62.9 10.4 62.1 10.4 C 61 10.4 60.2 10 59.6 9.4 C 59 8.7 58.6 7.8 58.6 6.6 C 58.6 5.4 59 4.5 59.6 3.8 C 60.2 3.1 61 2.8 62 2.8 C 63 2.8 63.8 3.1 64.4 3.8 C 65 4.4 65.3 5.4 65.3 6.5 C 65.3 6.6 65.3 6.7 65.3 6.9 C 65.3 6.9 59.9 6.9 59.9 6.9 C 60 7.7 60.2 8.3 60.6 8.7 C 61 9.1 61.5 9.3 62.1 9.3 C 62.6 9.3 62.9 9.2 63.3 9 C 63.6 8.8 63.8 8.4 64 7.9 Z M 60 5.9 C 60 5.9 64 5.9 64 5.9 C 64 5.3 63.8 4.8 63.6 4.5 C 63.2 4 62.7 3.8 62 3.8 C 61.5 3.8 61 4 60.6 4.3 C 60.2 4.7 60 5.2 60 5.9 Z M 66.3 8 C 66.3 8 67.6 7.8 67.6 7.8 C 67.6 8.3 67.8 8.7 68.1 9 C 68.4 9.2 68.9 9.3 69.4 9.3 C 70 9.3 70.4 9.2 70.7 9 C 71 8.8 71.1 8.5 71.1 8.2 C 71.1 7.9 71 7.7 70.7 7.5 C 70.6 7.4 70.2 7.3 69.5 7.1 C 68.6 6.9 68 6.7 67.6 6.5 C 67.3 6.4 67 6.1 66.8 5.8 C 66.6 5.5 66.6 5.2 66.6 4.9 C 66.6 4.5 66.6 4.2 66.8 4 C 66.9 3.7 67.1 3.5 67.4 3.3 C 67.6 3.1 67.8 3 68.2 2.9 C 68.5 2.8 68.8 2.8 69.2 2.8 C 69.8 2.8 70.3 2.9 70.7 3 C 71.2 3.2 71.5 3.4 71.7 3.7 C 71.9 4 72 4.3 72.1 4.8 C 72.1 4.8 70.9 5 70.9 5 C 70.8 4.6 70.7 4.3 70.4 4.1 C 70.2 3.9 69.8 3.8 69.3 3.8 C 68.7 3.8 68.3 3.9 68.1 4.1 C 67.9 4.2 67.7 4.5 67.7 4.7 C 67.7 4.9 67.8 5 67.9 5.1 C 68 5.3 68.1 5.4 68.4 5.5 C 68.5 5.5 68.8 5.6 69.4 5.8 C 70.3 6 70.9 6.2 71.3 6.4 C 71.6 6.5 71.9 6.7 72.1 7 C 72.3 7.3 72.4 7.6 72.4 8.1 C 72.4 8.5 72.3 8.9 72 9.2 C 71.8 9.6 71.4 9.9 71 10.1 C 70.5 10.3 70 10.4 69.4 10.4 C 68.5 10.4 67.8 10.2 67.3 9.8 C 66.8 9.4 66.5 8.8 66.3 8 Z M 73.3 8 C 73.3 8 74.6 7.8 74.6 7.8 C 74.6 8.3 74.8 8.7 75.1 9 C 75.4 9.2 75.9 9.3 76.4 9.3 C 77 9.3 77.4 9.2 77.7 9 C 78 8.8 78.1 8.5 78.1 8.2 C 78.1 7.9 78 7.7 77.7 7.5 C 77.6 7.4 77.2 7.3 76.5 7.1 C 75.6 6.9 75 6.7 74.6 6.5 C 74.3 6.4 74 6.1 73.8 5.8 C 73.6 5.5 73.6 5.2 73.6 4.9 C 73.6 4.5 73.6 4.2 73.8 4 C 73.9 3.7 74.1 3.5 74.4 3.3 C 74.6 3.1 74.8 3 75.2 2.9 C 75.5 2.8 75.8 2.8 76.2 2.8 C 76.8 2.8 77.3 2.9 77.7 3 C 78.2 3.2 78.5 3.4 78.7 3.7 C 78.9 4 79 4.3 79.1 4.8 C 79.1 4.8 77.9 5 77.9 5 C 77.8 4.6 77.7 4.3 77.4 4.1 C 77.2 3.9 76.8 3.8 76.3 3.8 C 75.7 3.8 75.3 3.9 75.1 4.1 C 74.9 4.2 74.7 4.5 74.7 4.7 C 74.7 4.9 74.8 5 74.9 5.1 C 75 5.3 75.1 5.4 75.4 5.5 C 75.5 5.5 75.8 5.6 76.4 5.8 C 77.3 6 77.9 6.2 78.3 6.4 C 78.6 6.5 78.9 6.7 79.1 7 C 79.3 7.3 79.4 7.6 79.4 8.1 C 79.4 8.5 79.3 8.9 79 9.2 C 78.8 9.6 78.4 9.9 78 10.1 C 77.5 10.3 77 10.4 76.4 10.4 C 75.5 10.4 74.8 10.2 74.3 9.8 C 73.8 9.4 73.5 8.8 73.3 8 Z " stroke="none" fill="#fff"/>  </g></svg>