<?xml version="1.0" standalone="no"?><!DOCTYPE svg PUBLIC "-//W3C//DTD SVG 1.1//EN" "http://www.w3.org/Graphics/SVG/1.1/DTD/svg11.dtd"><svg xmlns="http://www.w3.org/2000/svg" version="1.1" width="93.4px" height="23.9px" viewBox="0 -5 93.4 23.9" style="top:-5px">  <desc>01302 760 008</desc>  <defs/>  <g id="Polygon107226">    <path d="M 1.6 9.3 C 0.9 8.5 0.6 7.1 0.6 5.3 C 0.6 4.1 0.7 3.1 0.9 2.4 C 1.2 1.7 1.6 1.1 2 0.7 C 2.5 0.3 3.1 0.1 3.8 0.1 C 4.4 0.1 4.9 0.2 5.3 0.5 C 5.7 0.7 6 1 6.3 1.4 C 6.5 1.8 6.7 2.3 6.9 2.9 C 7 3.5 7.1 4.3 7.1 5.3 C 7.1 6.4 7 7.4 6.8 8.1 C 6.5 8.8 6.2 9.4 5.7 9.8 C 5.2 10.2 4.6 10.4 3.8 10.4 C 2.9 10.4 2.1 10 1.6 9.3 C 1.6 9.3 1.6 9.3 1.6 9.3 Z M 2.5 1.9 C 2.1 2.5 1.8 3.6 1.8 5.3 C 1.8 6.9 2 8 2.4 8.5 C 2.8 9.1 3.3 9.4 3.8 9.4 C 4.4 9.4 4.9 9.1 5.3 8.5 C 5.7 8 5.9 6.9 5.9 5.3 C 5.9 3.6 5.7 2.5 5.3 2 C 4.9 1.4 4.4 1.1 3.8 1.1 C 3.3 1.1 2.8 1.4 2.5 1.9 C 2.5 1.9 2.5 1.9 2.5 1.9 Z M 13 10.2 L 11.8 10.2 C 11.8 10.2 11.77 2.35 11.8 2.4 C 11.5 2.6 11.1 2.9 10.6 3.2 C 10.1 3.5 9.7 3.7 9.3 3.8 C 9.3 3.8 9.3 2.6 9.3 2.6 C 10 2.3 10.6 1.9 11.1 1.5 C 11.6 1 12 0.6 12.2 0.1 C 12.21 0.13 13 0.1 13 0.1 L 13 10.2 Z M 16.2 7.5 C 16.2 7.5 17.4 7.4 17.4 7.4 C 17.5 8.1 17.8 8.6 18.1 8.9 C 18.5 9.2 18.9 9.4 19.4 9.4 C 19.9 9.4 20.4 9.2 20.8 8.8 C 21.2 8.3 21.4 7.9 21.4 7.3 C 21.4 6.7 21.2 6.2 20.9 5.9 C 20.5 5.5 20 5.3 19.5 5.3 C 19.2 5.3 18.9 5.4 18.6 5.4 C 18.6 5.4 18.7 4.4 18.7 4.4 C 18.8 4.4 18.9 4.4 18.9 4.4 C 19.4 4.4 19.9 4.2 20.3 4 C 20.8 3.7 21 3.3 21 2.7 C 21 2.3 20.8 1.9 20.5 1.6 C 20.2 1.3 19.8 1.1 19.3 1.1 C 18.8 1.1 18.4 1.3 18.1 1.6 C 17.8 1.9 17.6 2.3 17.5 2.9 C 17.5 2.9 16.3 2.7 16.3 2.7 C 16.4 1.9 16.8 1.3 17.3 0.8 C 17.8 0.4 18.5 0.1 19.3 0.1 C 19.8 0.1 20.3 0.2 20.8 0.5 C 21.3 0.7 21.6 1 21.9 1.4 C 22.1 1.8 22.2 2.3 22.2 2.7 C 22.2 3.2 22.1 3.6 21.9 3.9 C 21.6 4.3 21.3 4.6 20.8 4.8 C 21.4 4.9 21.9 5.2 22.2 5.6 C 22.6 6 22.7 6.6 22.7 7.2 C 22.7 8.1 22.4 8.8 21.8 9.5 C 21.1 10.1 20.3 10.4 19.3 10.4 C 18.5 10.4 17.7 10.1 17.2 9.6 C 16.6 9.1 16.2 8.4 16.2 7.5 Z M 24.9 9.3 C 24.3 8.5 23.9 7.1 23.9 5.3 C 23.9 4.1 24.1 3.1 24.3 2.4 C 24.5 1.7 24.9 1.1 25.4 0.7 C 25.9 0.3 26.5 0.1 27.2 0.1 C 27.7 0.1 28.2 0.2 28.6 0.5 C 29 0.7 29.4 1 29.6 1.4 C 29.9 1.8 30.1 2.3 30.2 2.9 C 30.4 3.5 30.5 4.3 30.5 5.3 C 30.5 6.4 30.4 7.4 30.1 8.1 C 29.9 8.8 29.5 9.4 29 9.8 C 28.5 10.2 27.9 10.4 27.2 10.4 C 26.2 10.4 25.5 10 24.9 9.3 C 24.9 9.3 24.9 9.3 24.9 9.3 Z M 25.8 1.9 C 25.4 2.5 25.2 3.6 25.2 5.3 C 25.2 6.9 25.4 8 25.8 8.5 C 26.2 9.1 26.6 9.4 27.2 9.4 C 27.8 9.4 28.2 9.1 28.6 8.5 C 29 8 29.2 6.9 29.2 5.3 C 29.2 3.6 29 2.5 28.6 2 C 28.2 1.4 27.8 1.1 27.2 1.1 C 26.6 1.1 26.2 1.4 25.8 1.9 C 25.8 1.9 25.8 1.9 25.8 1.9 Z M 38.2 9 L 38.2 10.2 C 38.2 10.2 31.57 10.19 31.6 10.2 C 31.6 9.9 31.6 9.6 31.7 9.3 C 31.9 8.9 32.2 8.4 32.5 8 C 32.9 7.6 33.4 7.1 34.1 6.5 C 35.2 5.6 36 4.9 36.3 4.4 C 36.7 3.8 36.9 3.3 36.9 2.9 C 36.9 2.4 36.7 2 36.4 1.7 C 36 1.3 35.6 1.1 35 1.1 C 34.4 1.1 34 1.3 33.6 1.7 C 33.2 2 33.1 2.5 33.1 3.2 C 33.1 3.2 31.8 3 31.8 3 C 31.9 2.1 32.2 1.4 32.8 0.9 C 33.3 0.4 34.1 0.1 35.1 0.1 C 36 0.1 36.8 0.4 37.3 0.9 C 37.9 1.5 38.2 2.1 38.2 2.9 C 38.2 3.3 38.1 3.7 37.9 4.1 C 37.8 4.5 37.5 4.9 37.1 5.3 C 36.7 5.7 36.1 6.3 35.2 7.1 C 34.5 7.7 34 8.1 33.8 8.3 C 33.6 8.6 33.4 8.8 33.3 9 C 33.28 9.01 38.2 9 38.2 9 Z M 43.5 1.5 L 43.5 0.3 L 50 0.3 C 50 0.3 49.97 1.26 50 1.3 C 49.3 1.9 48.7 2.8 48.1 4 C 47.4 5.1 47 6.2 46.6 7.4 C 46.4 8.3 46.2 9.2 46.1 10.2 C 46.1 10.2 44.9 10.2 44.9 10.2 C 44.9 9.4 45.1 8.5 45.3 7.3 C 45.6 6.2 46.1 5.1 46.6 4.1 C 47.2 3.1 47.8 2.2 48.4 1.5 C 48.39 1.48 43.5 1.5 43.5 1.5 Z M 57.6 2.6 C 57.6 2.6 56.3 2.7 56.3 2.7 C 56.2 2.2 56.1 1.9 55.9 1.7 C 55.6 1.3 55.1 1.1 54.7 1.1 C 54.3 1.1 53.9 1.3 53.6 1.5 C 53.2 1.8 52.9 2.2 52.7 2.7 C 52.5 3.2 52.4 4 52.4 5 C 52.7 4.6 53 4.2 53.4 4 C 53.9 3.8 54.3 3.7 54.8 3.7 C 55.6 3.7 56.3 4 56.9 4.6 C 57.5 5.2 57.7 6 57.7 6.9 C 57.7 7.6 57.6 8.2 57.3 8.7 C 57.1 9.2 56.7 9.6 56.2 9.9 C 55.8 10.2 55.2 10.4 54.6 10.4 C 53.6 10.4 52.8 10 52.1 9.2 C 51.5 8.5 51.1 7.2 51.1 5.5 C 51.1 3.6 51.5 2.2 52.2 1.3 C 52.8 0.5 53.7 0.1 54.7 0.1 C 55.5 0.1 56.2 0.4 56.7 0.8 C 57.2 1.2 57.5 1.8 57.6 2.6 Z M 52.5 6.9 C 52.5 7.4 52.6 7.8 52.8 8.2 C 53 8.5 53.2 8.8 53.6 9 C 53.9 9.3 54.2 9.4 54.6 9.4 C 55.1 9.4 55.6 9.1 55.9 8.7 C 56.3 8.3 56.5 7.7 56.5 7 C 56.5 6.3 56.3 5.8 55.9 5.4 C 55.6 5 55.1 4.8 54.5 4.8 C 54 4.8 53.5 5 53.1 5.4 C 52.7 5.8 52.5 6.3 52.5 6.9 Z M 60 9.3 C 59.3 8.5 59 7.1 59 5.3 C 59 4.1 59.1 3.1 59.3 2.4 C 59.6 1.7 59.9 1.1 60.4 0.7 C 60.9 0.3 61.5 0.1 62.2 0.1 C 62.8 0.1 63.3 0.2 63.7 0.5 C 64.1 0.7 64.4 1 64.7 1.4 C 64.9 1.8 65.1 2.3 65.3 2.9 C 65.4 3.5 65.5 4.3 65.5 5.3 C 65.5 6.4 65.4 7.4 65.1 8.1 C 64.9 8.8 64.5 9.4 64.1 9.8 C 63.6 10.2 63 10.4 62.2 10.4 C 61.3 10.4 60.5 10 60 9.3 C 60 9.3 60 9.3 60 9.3 Z M 60.9 1.9 C 60.5 2.5 60.2 3.6 60.2 5.3 C 60.2 6.9 60.4 8 60.8 8.5 C 61.2 9.1 61.7 9.4 62.2 9.4 C 62.8 9.4 63.3 9.1 63.7 8.5 C 64.1 8 64.2 6.9 64.2 5.3 C 64.2 3.6 64.1 2.5 63.7 2 C 63.3 1.4 62.8 1.1 62.2 1.1 C 61.7 1.1 61.2 1.4 60.9 1.9 C 60.9 1.9 60.9 1.9 60.9 1.9 Z M 71.6 9.3 C 71 8.5 70.6 7.1 70.6 5.3 C 70.6 4.1 70.8 3.1 71 2.4 C 71.3 1.7 71.6 1.1 72.1 0.7 C 72.6 0.3 73.2 0.1 73.9 0.1 C 74.5 0.1 74.9 0.2 75.3 0.5 C 75.7 0.7 76.1 1 76.3 1.4 C 76.6 1.8 76.8 2.3 77 2.9 C 77.1 3.5 77.2 4.3 77.2 5.3 C 77.2 6.4 77.1 7.4 76.8 8.1 C 76.6 8.8 76.2 9.4 75.7 9.8 C 75.3 10.2 74.7 10.4 73.9 10.4 C 73 10.4 72.2 10 71.6 9.3 C 71.6 9.3 71.6 9.3 71.6 9.3 Z M 72.5 1.9 C 72.1 2.5 71.9 3.6 71.9 5.3 C 71.9 6.9 72.1 8 72.5 8.5 C 72.9 9.1 73.4 9.4 73.9 9.4 C 74.5 9.4 75 9.1 75.3 8.5 C 75.7 8 75.9 6.9 75.9 5.3 C 75.9 3.6 75.7 2.5 75.3 2 C 75 1.4 74.5 1.1 73.9 1.1 C 73.3 1.1 72.9 1.4 72.5 1.9 C 72.5 1.9 72.5 1.9 72.5 1.9 Z M 79.4 9.3 C 78.8 8.5 78.4 7.1 78.4 5.3 C 78.4 4.1 78.6 3.1 78.8 2.4 C 79 1.7 79.4 1.1 79.9 0.7 C 80.4 0.3 81 0.1 81.7 0.1 C 82.2 0.1 82.7 0.2 83.1 0.5 C 83.5 0.7 83.9 1 84.1 1.4 C 84.4 1.8 84.6 2.3 84.7 2.9 C 84.9 3.5 85 4.3 85 5.3 C 85 6.4 84.8 7.4 84.6 8.1 C 84.4 8.8 84 9.4 83.5 9.8 C 83 10.2 82.4 10.4 81.7 10.4 C 80.7 10.4 80 10 79.4 9.3 C 79.4 9.3 79.4 9.3 79.4 9.3 Z M 80.3 1.9 C 79.9 2.5 79.7 3.6 79.7 5.3 C 79.7 6.9 79.9 8 80.3 8.5 C 80.7 9.1 81.1 9.4 81.7 9.4 C 82.3 9.4 82.7 9.1 83.1 8.5 C 83.5 8 83.7 6.9 83.7 5.3 C 83.7 3.6 83.5 2.5 83.1 2 C 82.7 1.4 82.3 1.1 81.7 1.1 C 81.1 1.1 80.7 1.4 80.3 1.9 C 80.3 1.9 80.3 1.9 80.3 1.9 Z M 88.1 4.8 C 87.6 4.6 87.2 4.3 87 4 C 86.7 3.6 86.6 3.2 86.6 2.7 C 86.6 2 86.9 1.4 87.4 0.9 C 87.9 0.4 88.6 0.1 89.5 0.1 C 90.4 0.1 91.1 0.4 91.6 0.9 C 92.1 1.4 92.4 2 92.4 2.7 C 92.4 3.2 92.3 3.6 92 4 C 91.8 4.3 91.4 4.6 90.9 4.8 C 91.5 5 92 5.3 92.3 5.7 C 92.7 6.2 92.8 6.7 92.8 7.3 C 92.8 8.2 92.5 8.9 91.9 9.5 C 91.3 10.1 90.5 10.4 89.5 10.4 C 88.5 10.4 87.7 10.1 87.1 9.5 C 86.5 8.9 86.2 8.2 86.2 7.3 C 86.2 6.6 86.4 6.1 86.7 5.7 C 87 5.2 87.5 4.9 88.1 4.8 Z M 87.9 2.7 C 87.9 3.1 88 3.5 88.3 3.8 C 88.6 4.1 89 4.3 89.5 4.3 C 90 4.3 90.4 4.1 90.7 3.8 C 91 3.5 91.1 3.2 91.1 2.7 C 91.1 2.3 91 1.9 90.7 1.6 C 90.4 1.3 90 1.1 89.5 1.1 C 89 1.1 88.6 1.3 88.3 1.6 C 88 1.9 87.9 2.3 87.9 2.7 Z M 87.5 7.3 C 87.5 7.7 87.6 8 87.7 8.3 C 87.9 8.6 88.1 8.9 88.5 9.1 C 88.8 9.3 89.1 9.4 89.5 9.4 C 90.1 9.4 90.6 9.2 91 8.8 C 91.4 8.4 91.6 7.9 91.6 7.3 C 91.6 6.7 91.4 6.3 91 5.9 C 90.6 5.5 90.1 5.3 89.5 5.3 C 88.9 5.3 88.4 5.5 88 5.9 C 87.7 6.2 87.5 6.7 87.5 7.3 Z " stroke="none" fill="#e4007e"/>  </g></svg>