<?xml version="1.0" standalone="no"?><!DOCTYPE svg PUBLIC "-//W3C//DTD SVG 1.1//EN" "http://www.w3.org/Graphics/SVG/1.1/DTD/svg11.dtd"><svg xmlns="http://www.w3.org/2000/svg" version="1.1" width="113.5px" height="40.9px" viewBox="0 -5 113.5 40.9" style="top:-5px">  <desc>Fast Gateway to Completion</desc>  <defs/>  <g id="Polygon106696">    <path d="M 14 19.7 L 14 21.3 L 12.7 21.3 C 12.7 21.3 12.71 24.19 12.7 24.2 C 12.7 24.8 12.7 25.1 12.7 25.2 C 12.8 25.3 12.8 25.4 12.9 25.5 C 13 25.5 13.1 25.6 13.2 25.6 C 13.4 25.6 13.7 25.5 14 25.4 C 14 25.4 14.2 26.9 14.2 26.9 C 13.7 27.1 13.2 27.2 12.7 27.2 C 12.3 27.2 12 27.1 11.7 27 C 11.4 26.9 11.2 26.7 11.1 26.5 C 11 26.3 10.9 26.1 10.8 25.8 C 10.8 25.6 10.8 25.1 10.8 24.4 C 10.78 24.43 10.8 21.3 10.8 21.3 L 9.9 21.3 L 9.9 19.7 L 10.8 19.7 L 10.8 18.3 L 12.7 17.2 L 12.7 19.7 L 14 19.7 Z M 14.9 23.3 C 14.9 22.6 15.1 22 15.4 21.4 C 15.7 20.8 16.1 20.4 16.7 20 C 17.3 19.7 17.9 19.6 18.7 19.6 C 19.8 19.6 20.7 19.9 21.4 20.6 C 22.1 21.4 22.4 22.3 22.4 23.3 C 22.4 24.4 22.1 25.4 21.3 26.1 C 20.6 26.8 19.7 27.2 18.7 27.2 C 18 27.2 17.4 27 16.8 26.7 C 16.2 26.4 15.7 26 15.4 25.4 C 15.1 24.8 14.9 24.1 14.9 23.3 Z M 16.9 23.4 C 16.9 24.1 17.1 24.6 17.4 25 C 17.7 25.4 18.2 25.6 18.7 25.6 C 19.2 25.6 19.6 25.4 19.9 25 C 20.3 24.6 20.4 24.1 20.4 23.3 C 20.4 22.6 20.3 22.1 19.9 21.7 C 19.6 21.3 19.2 21.1 18.7 21.1 C 18.2 21.1 17.7 21.3 17.4 21.7 C 17.1 22.1 16.9 22.6 16.9 23.4 Z M 34.2 23.3 C 34.2 23.3 36.2 23.9 36.2 23.9 C 35.9 25 35.4 25.8 34.7 26.4 C 34 26.9 33.1 27.2 32 27.2 C 30.7 27.2 29.6 26.7 28.7 25.8 C 27.9 24.9 27.5 23.6 27.5 22.1 C 27.5 20.4 27.9 19.1 28.7 18.2 C 29.6 17.3 30.7 16.8 32.1 16.8 C 33.4 16.8 34.4 17.2 35.1 17.9 C 35.6 18.3 35.9 18.9 36.2 19.7 C 36.2 19.7 34.2 20.2 34.2 20.2 C 34 19.7 33.8 19.3 33.4 19 C 33 18.7 32.6 18.5 32 18.5 C 31.3 18.5 30.7 18.8 30.2 19.3 C 29.8 19.9 29.5 20.7 29.5 21.9 C 29.5 23.2 29.8 24.1 30.2 24.6 C 30.7 25.2 31.3 25.4 32 25.4 C 32.5 25.4 33 25.3 33.4 24.9 C 33.8 24.6 34.1 24 34.2 23.3 Z M 37.5 23.3 C 37.5 22.6 37.6 22 37.9 21.4 C 38.3 20.8 38.7 20.4 39.3 20 C 39.8 19.7 40.5 19.6 41.2 19.6 C 42.3 19.6 43.2 19.9 43.9 20.6 C 44.6 21.4 45 22.3 45 23.3 C 45 24.4 44.6 25.4 43.9 26.1 C 43.2 26.8 42.3 27.2 41.2 27.2 C 40.6 27.2 39.9 27 39.3 26.7 C 38.7 26.4 38.3 26 37.9 25.4 C 37.6 24.8 37.5 24.1 37.5 23.3 Z M 39.4 23.4 C 39.4 24.1 39.6 24.6 39.9 25 C 40.3 25.4 40.7 25.6 41.2 25.6 C 41.7 25.6 42.1 25.4 42.5 25 C 42.8 24.6 43 24.1 43 23.3 C 43 22.6 42.8 22.1 42.5 21.7 C 42.1 21.3 41.7 21.1 41.2 21.1 C 40.7 21.1 40.3 21.3 39.9 21.7 C 39.6 22.1 39.4 22.6 39.4 23.4 Z M 46.3 19.7 L 48.1 19.7 C 48.1 19.7 48.09 20.72 48.1 20.7 C 48.7 20 49.5 19.6 50.4 19.6 C 50.8 19.6 51.2 19.7 51.6 19.9 C 51.9 20 52.2 20.3 52.4 20.7 C 52.7 20.3 53.1 20 53.4 19.9 C 53.8 19.7 54.2 19.6 54.6 19.6 C 55.1 19.6 55.6 19.7 56 19.9 C 56.3 20.1 56.6 20.4 56.8 20.8 C 56.9 21.2 57 21.7 57 22.4 C 56.99 22.35 57 27 57 27 L 55.1 27 C 55.1 27 55.07 22.84 55.1 22.8 C 55.1 22.1 55 21.7 54.9 21.4 C 54.7 21.2 54.4 21 54.1 21 C 53.8 21 53.5 21.1 53.3 21.3 C 53.1 21.4 52.9 21.7 52.8 22 C 52.7 22.3 52.6 22.8 52.6 23.5 C 52.63 23.51 52.6 27 52.6 27 L 50.7 27 C 50.7 27 50.71 23.01 50.7 23 C 50.7 22.3 50.7 21.9 50.6 21.6 C 50.5 21.4 50.4 21.3 50.3 21.2 C 50.1 21.1 49.9 21 49.7 21 C 49.4 21 49.1 21.1 48.9 21.3 C 48.7 21.4 48.5 21.7 48.4 22 C 48.3 22.3 48.2 22.8 48.2 23.5 C 48.24 23.47 48.2 27 48.2 27 L 46.3 27 L 46.3 19.7 Z M 58.9 19.7 L 60.6 19.7 C 60.6 19.7 60.65 20.8 60.6 20.8 C 60.9 20.4 61.2 20.1 61.6 19.9 C 62 19.7 62.4 19.6 62.9 19.6 C 63.8 19.6 64.5 19.9 65.1 20.6 C 65.6 21.2 65.9 22.1 65.9 23.3 C 65.9 24.5 65.6 25.5 65 26.1 C 64.5 26.8 63.7 27.2 62.9 27.2 C 62.5 27.2 62.1 27.1 61.8 26.9 C 61.5 26.8 61.1 26.5 60.8 26.1 C 60.78 26.1 60.8 29.8 60.8 29.8 L 58.9 29.8 L 58.9 19.7 Z M 60.8 23.2 C 60.8 24.1 60.9 24.7 61.2 25 C 61.6 25.4 62 25.6 62.4 25.6 C 62.9 25.6 63.2 25.5 63.5 25.1 C 63.8 24.7 64 24.2 64 23.3 C 64 22.6 63.8 22 63.5 21.6 C 63.2 21.3 62.8 21.1 62.4 21.1 C 61.9 21.1 61.5 21.3 61.2 21.6 C 60.9 22 60.8 22.5 60.8 23.2 Z M 67.5 27 L 67.5 17 L 69.4 17 L 69.4 27 L 67.5 27 Z M 75.6 24.7 C 75.6 24.7 77.5 25 77.5 25 C 77.2 25.7 76.8 26.2 76.3 26.6 C 75.8 27 75.1 27.2 74.3 27.2 C 73 27.2 72.1 26.7 71.5 25.9 C 71 25.3 70.8 24.4 70.8 23.4 C 70.8 22.2 71.1 21.3 71.7 20.6 C 72.4 19.9 73.2 19.6 74.1 19.6 C 75.2 19.6 76.1 19.9 76.7 20.6 C 77.3 21.4 77.6 22.4 77.6 23.9 C 77.6 23.9 72.8 23.9 72.8 23.9 C 72.8 24.5 72.9 24.9 73.2 25.2 C 73.5 25.6 73.9 25.7 74.3 25.7 C 74.6 25.7 74.9 25.6 75.1 25.5 C 75.3 25.3 75.4 25 75.6 24.7 Z M 75.7 22.7 C 75.7 22.2 75.5 21.8 75.2 21.5 C 75 21.2 74.6 21 74.2 21 C 73.8 21 73.5 21.2 73.2 21.5 C 72.9 21.8 72.8 22.2 72.8 22.7 C 72.8 22.7 75.7 22.7 75.7 22.7 Z M 82.5 19.7 L 82.5 21.3 L 81.2 21.3 C 81.2 21.3 81.15 24.19 81.2 24.2 C 81.2 24.8 81.2 25.1 81.2 25.2 C 81.2 25.3 81.3 25.4 81.4 25.5 C 81.5 25.5 81.6 25.6 81.7 25.6 C 81.9 25.6 82.1 25.5 82.5 25.4 C 82.5 25.4 82.6 26.9 82.6 26.9 C 82.2 27.1 81.7 27.2 81.1 27.2 C 80.8 27.2 80.4 27.1 80.2 27 C 79.9 26.9 79.7 26.7 79.6 26.5 C 79.4 26.3 79.3 26.1 79.3 25.8 C 79.2 25.6 79.2 25.1 79.2 24.4 C 79.23 24.43 79.2 21.3 79.2 21.3 L 78.3 21.3 L 78.3 19.7 L 79.2 19.7 L 79.2 18.3 L 81.2 17.2 L 81.2 19.7 L 82.5 19.7 Z M 83.8 18.7 L 83.8 17 L 85.7 17 L 85.7 18.7 L 83.8 18.7 Z M 83.8 27 L 83.8 19.7 L 85.7 19.7 L 85.7 27 L 83.8 27 Z M 87.2 23.3 C 87.2 22.6 87.4 22 87.7 21.4 C 88 20.8 88.5 20.4 89.1 20 C 89.6 19.7 90.3 19.6 91 19.6 C 92.1 19.6 93 19.9 93.7 20.6 C 94.4 21.4 94.7 22.3 94.7 23.3 C 94.7 24.4 94.4 25.4 93.7 26.1 C 93 26.8 92.1 27.2 91 27.2 C 90.3 27.2 89.7 27 89.1 26.7 C 88.5 26.4 88 26 87.7 25.4 C 87.4 24.8 87.2 24.1 87.2 23.3 Z M 89.2 23.4 C 89.2 24.1 89.4 24.6 89.7 25 C 90.1 25.4 90.5 25.6 91 25.6 C 91.5 25.6 91.9 25.4 92.3 25 C 92.6 24.6 92.8 24.1 92.8 23.3 C 92.8 22.6 92.6 22.1 92.3 21.7 C 91.9 21.3 91.5 21.1 91 21.1 C 90.5 21.1 90.1 21.3 89.7 21.7 C 89.4 22.1 89.2 22.6 89.2 23.4 Z M 102.8 27 L 100.9 27 C 100.9 27 100.92 23.29 100.9 23.3 C 100.9 22.5 100.9 22 100.8 21.8 C 100.7 21.5 100.6 21.4 100.4 21.2 C 100.2 21.1 100 21 99.7 21 C 99.4 21 99.1 21.1 98.8 21.3 C 98.6 21.5 98.4 21.7 98.3 22 C 98.2 22.3 98.1 22.9 98.1 23.7 C 98.15 23.7 98.1 27 98.1 27 L 96.2 27 L 96.2 19.7 L 98 19.7 C 98 19.7 98.01 20.8 98 20.8 C 98.6 20 99.4 19.6 100.4 19.6 C 100.8 19.6 101.2 19.6 101.6 19.8 C 101.9 20 102.2 20.1 102.4 20.4 C 102.5 20.6 102.7 20.9 102.7 21.2 C 102.8 21.5 102.8 21.9 102.8 22.5 C 102.84 22.48 102.8 27 102.8 27 Z " stroke="none" fill="#000"/>  </g>  <g id="Polygon106695">    <path d="M 12.6 10.2 L 12.6 0.2 L 19.5 0.2 L 19.5 1.9 L 14.7 1.9 L 14.7 4.2 L 18.8 4.2 L 18.8 5.9 L 14.7 5.9 L 14.7 10.2 L 12.6 10.2 Z M 22.6 5.1 C 22.6 5.1 20.9 4.8 20.9 4.8 C 21.1 4.1 21.4 3.6 21.9 3.3 C 22.3 2.9 23.1 2.8 24 2.8 C 24.9 2.8 25.5 2.9 25.9 3.1 C 26.3 3.3 26.6 3.5 26.8 3.8 C 27 4.2 27.1 4.7 27.1 5.6 C 27.1 5.6 27 7.8 27 7.8 C 27 8.4 27.1 8.9 27.1 9.2 C 27.2 9.5 27.3 9.8 27.5 10.2 C 27.5 10.2 25.6 10.2 25.6 10.2 C 25.5 10.1 25.5 9.9 25.4 9.6 C 25.4 9.5 25.3 9.4 25.3 9.4 C 25 9.7 24.6 10 24.3 10.1 C 23.9 10.3 23.5 10.4 23.1 10.4 C 22.3 10.4 21.7 10.2 21.3 9.7 C 20.9 9.3 20.7 8.8 20.7 8.2 C 20.7 7.8 20.8 7.4 21 7.1 C 21.1 6.8 21.4 6.5 21.8 6.4 C 22.1 6.2 22.6 6.1 23.3 5.9 C 24.2 5.8 24.8 5.6 25.2 5.5 C 25.2 5.5 25.2 5.3 25.2 5.3 C 25.2 4.9 25.1 4.6 24.9 4.5 C 24.7 4.3 24.4 4.2 23.9 4.2 C 23.5 4.2 23.3 4.3 23.1 4.4 C 22.9 4.6 22.7 4.8 22.6 5.1 Z M 25.2 6.7 C 24.9 6.8 24.5 6.9 24 7 C 23.5 7.1 23.1 7.2 23 7.3 C 22.7 7.5 22.6 7.7 22.6 8 C 22.6 8.3 22.7 8.5 22.9 8.7 C 23.1 8.9 23.3 9 23.6 9 C 24 9 24.3 8.9 24.6 8.7 C 24.9 8.5 25 8.3 25.1 8 C 25.1 7.9 25.2 7.5 25.2 7.1 C 25.2 7.1 25.2 6.7 25.2 6.7 Z M 28.3 8.1 C 28.3 8.1 30.2 7.8 30.2 7.8 C 30.3 8.2 30.4 8.5 30.7 8.7 C 31 8.9 31.3 9 31.8 9 C 32.2 9 32.6 8.9 32.9 8.7 C 33 8.6 33.1 8.4 33.1 8.2 C 33.1 8 33.1 7.9 33 7.8 C 32.9 7.7 32.7 7.6 32.3 7.6 C 30.8 7.2 29.8 6.9 29.4 6.6 C 28.8 6.2 28.5 5.7 28.5 5 C 28.5 4.4 28.8 3.8 29.3 3.4 C 29.8 3 30.6 2.8 31.6 2.8 C 32.6 2.8 33.3 2.9 33.8 3.3 C 34.3 3.6 34.6 4.1 34.8 4.7 C 34.8 4.7 33 5 33 5 C 32.9 4.7 32.8 4.5 32.6 4.4 C 32.3 4.2 32 4.1 31.6 4.1 C 31.1 4.1 30.8 4.2 30.5 4.4 C 30.4 4.5 30.3 4.6 30.3 4.8 C 30.3 4.9 30.4 5 30.5 5.1 C 30.7 5.2 31.3 5.4 32.3 5.6 C 33.3 5.9 34 6.2 34.5 6.5 C 34.9 6.8 35.1 7.3 35.1 7.9 C 35.1 8.6 34.8 9.2 34.2 9.6 C 33.7 10.1 32.8 10.4 31.8 10.4 C 30.8 10.4 30 10.2 29.4 9.8 C 28.8 9.4 28.5 8.8 28.3 8.1 Z M 40.1 2.9 L 40.1 4.5 L 38.8 4.5 C 38.8 4.5 38.75 7.39 38.8 7.4 C 38.8 8 38.8 8.3 38.8 8.4 C 38.8 8.5 38.9 8.6 39 8.7 C 39.1 8.7 39.2 8.8 39.3 8.8 C 39.5 8.8 39.7 8.7 40.1 8.6 C 40.1 8.6 40.2 10.1 40.2 10.1 C 39.8 10.3 39.3 10.4 38.7 10.4 C 38.4 10.4 38 10.3 37.8 10.2 C 37.5 10.1 37.3 9.9 37.2 9.7 C 37 9.5 36.9 9.3 36.9 9 C 36.8 8.8 36.8 8.3 36.8 7.6 C 36.83 7.63 36.8 4.5 36.8 4.5 L 35.9 4.5 L 35.9 2.9 L 36.8 2.9 L 36.8 1.5 L 38.8 0.4 L 38.8 2.9 L 40.1 2.9 Z M 50 6.5 L 50 4.8 L 54.3 4.8 C 54.3 4.8 54.33 8.81 54.3 8.8 C 53.9 9.2 53.3 9.6 52.5 9.9 C 51.7 10.2 50.9 10.4 50 10.4 C 49 10.4 48.1 10.1 47.3 9.7 C 46.5 9.3 45.9 8.6 45.5 7.8 C 45.1 7 45 6.1 45 5.1 C 45 4.1 45.2 3.2 45.6 2.4 C 46 1.6 46.7 0.9 47.5 0.5 C 48.2 0.2 49 0 49.9 0 C 51.2 0 52.1 0.3 52.8 0.8 C 53.5 1.3 54 2 54.2 2.9 C 54.2 2.9 52.2 3.3 52.2 3.3 C 52 2.8 51.8 2.4 51.4 2.2 C 51 1.9 50.5 1.7 49.9 1.7 C 49 1.7 48.3 2 47.8 2.6 C 47.3 3.1 47 4 47 5.1 C 47 6.3 47.3 7.1 47.8 7.7 C 48.4 8.3 49.1 8.6 49.9 8.6 C 50.3 8.6 50.8 8.6 51.2 8.4 C 51.6 8.2 52 8 52.3 7.8 C 52.28 7.78 52.3 6.5 52.3 6.5 L 50 6.5 Z M 57.6 5.1 C 57.6 5.1 55.9 4.8 55.9 4.8 C 56.1 4.1 56.4 3.6 56.9 3.3 C 57.4 2.9 58.1 2.8 59 2.8 C 59.9 2.8 60.5 2.9 60.9 3.1 C 61.3 3.3 61.6 3.5 61.8 3.8 C 62 4.2 62.1 4.7 62.1 5.6 C 62.1 5.6 62.1 7.8 62.1 7.8 C 62.1 8.4 62.1 8.9 62.1 9.2 C 62.2 9.5 62.3 9.8 62.5 10.2 C 62.5 10.2 60.6 10.2 60.6 10.2 C 60.5 10.1 60.5 9.9 60.4 9.6 C 60.4 9.5 60.3 9.4 60.3 9.4 C 60 9.7 59.7 10 59.3 10.1 C 58.9 10.3 58.5 10.4 58.1 10.4 C 57.3 10.4 56.7 10.2 56.3 9.7 C 55.9 9.3 55.7 8.8 55.7 8.2 C 55.7 7.8 55.8 7.4 56 7.1 C 56.2 6.8 56.4 6.5 56.8 6.4 C 57.1 6.2 57.7 6.1 58.3 5.9 C 59.2 5.8 59.8 5.6 60.2 5.5 C 60.2 5.5 60.2 5.3 60.2 5.3 C 60.2 4.9 60.1 4.6 59.9 4.5 C 59.7 4.3 59.4 4.2 58.9 4.2 C 58.5 4.2 58.3 4.3 58.1 4.4 C 57.9 4.6 57.7 4.8 57.6 5.1 Z M 60.2 6.7 C 59.9 6.8 59.5 6.9 59 7 C 58.5 7.1 58.1 7.2 58 7.3 C 57.7 7.5 57.6 7.7 57.6 8 C 57.6 8.3 57.7 8.5 57.9 8.7 C 58.1 8.9 58.3 9 58.7 9 C 59 9 59.3 8.9 59.7 8.7 C 59.9 8.5 60 8.3 60.1 8 C 60.2 7.9 60.2 7.5 60.2 7.1 C 60.2 7.1 60.2 6.7 60.2 6.7 Z M 67.3 2.9 L 67.3 4.5 L 66 4.5 C 66 4.5 65.98 7.39 66 7.4 C 66 8 66 8.3 66 8.4 C 66 8.5 66.1 8.6 66.2 8.7 C 66.3 8.7 66.4 8.8 66.5 8.8 C 66.7 8.8 66.9 8.7 67.3 8.6 C 67.3 8.6 67.5 10.1 67.5 10.1 C 67 10.3 66.5 10.4 65.9 10.4 C 65.6 10.4 65.3 10.3 65 10.2 C 64.7 10.1 64.5 9.9 64.4 9.7 C 64.3 9.5 64.2 9.3 64.1 9 C 64.1 8.8 64.1 8.3 64.1 7.6 C 64.05 7.63 64.1 4.5 64.1 4.5 L 63.2 4.5 L 63.2 2.9 L 64.1 2.9 L 64.1 1.5 L 66 0.4 L 66 2.9 L 67.3 2.9 Z M 72.8 7.9 C 72.8 7.9 74.7 8.2 74.7 8.2 C 74.5 8.9 74.1 9.4 73.6 9.8 C 73 10.2 72.4 10.4 71.6 10.4 C 70.3 10.4 69.4 9.9 68.8 9.1 C 68.3 8.5 68.1 7.6 68.1 6.6 C 68.1 5.4 68.4 4.5 69 3.8 C 69.6 3.1 70.4 2.8 71.4 2.8 C 72.5 2.8 73.3 3.1 74 3.8 C 74.6 4.6 74.9 5.6 74.8 7.1 C 74.8 7.1 70 7.1 70 7.1 C 70 7.7 70.2 8.1 70.5 8.4 C 70.8 8.8 71.2 8.9 71.6 8.9 C 71.9 8.9 72.2 8.8 72.4 8.7 C 72.6 8.5 72.7 8.2 72.8 7.9 Z M 72.9 5.9 C 72.9 5.4 72.8 5 72.5 4.7 C 72.2 4.4 71.9 4.2 71.5 4.2 C 71.1 4.2 70.7 4.4 70.5 4.7 C 70.2 5 70.1 5.4 70.1 5.9 C 70.1 5.9 72.9 5.9 72.9 5.9 Z M 77.8 10.2 L 75.5 2.9 L 77.3 2.9 L 78.7 7.7 L 79.9 2.9 L 81.8 2.9 L 83 7.7 L 84.4 2.9 L 86.3 2.9 L 84 10.2 L 82.1 10.2 L 80.9 5.5 L 79.6 10.2 L 77.8 10.2 Z M 88.7 5.1 C 88.7 5.1 87 4.8 87 4.8 C 87.2 4.1 87.5 3.6 88 3.3 C 88.5 2.9 89.2 2.8 90.1 2.8 C 91 2.8 91.6 2.9 92.1 3.1 C 92.5 3.3 92.8 3.5 92.9 3.8 C 93.1 4.2 93.2 4.7 93.2 5.6 C 93.2 5.6 93.2 7.8 93.2 7.8 C 93.2 8.4 93.2 8.9 93.3 9.2 C 93.3 9.5 93.4 9.8 93.6 10.2 C 93.6 10.2 91.7 10.2 91.7 10.2 C 91.7 10.1 91.6 9.9 91.5 9.6 C 91.5 9.5 91.5 9.4 91.5 9.4 C 91.1 9.7 90.8 10 90.4 10.1 C 90 10.3 89.6 10.4 89.2 10.4 C 88.5 10.4 87.9 10.2 87.4 9.7 C 87 9.3 86.8 8.8 86.8 8.2 C 86.8 7.8 86.9 7.4 87.1 7.1 C 87.3 6.8 87.6 6.5 87.9 6.4 C 88.3 6.2 88.8 6.1 89.4 5.9 C 90.3 5.8 91 5.6 91.3 5.5 C 91.3 5.5 91.3 5.3 91.3 5.3 C 91.3 4.9 91.2 4.6 91 4.5 C 90.9 4.3 90.5 4.2 90 4.2 C 89.7 4.2 89.4 4.3 89.2 4.4 C 89 4.6 88.9 4.8 88.7 5.1 Z M 91.3 6.7 C 91.1 6.8 90.7 6.9 90.1 7 C 89.6 7.1 89.3 7.2 89.1 7.3 C 88.8 7.5 88.7 7.7 88.7 8 C 88.7 8.3 88.8 8.5 89 8.7 C 89.2 8.9 89.5 9 89.8 9 C 90.1 9 90.5 8.9 90.8 8.7 C 91 8.5 91.2 8.3 91.2 8 C 91.3 7.9 91.3 7.5 91.3 7.1 C 91.3 7.1 91.3 6.7 91.3 6.7 Z M 94.2 2.9 L 96.2 2.9 L 98 8.1 L 99.7 2.9 L 101.6 2.9 L 99.1 9.9 C 99.1 9.9 98.62 11.18 98.6 11.2 C 98.5 11.6 98.3 11.9 98.1 12.2 C 98 12.4 97.8 12.6 97.6 12.7 C 97.4 12.8 97.2 12.9 96.9 13 C 96.6 13.1 96.3 13.1 95.9 13.1 C 95.5 13.1 95.2 13.1 94.8 13 C 94.8 13 94.6 11.5 94.6 11.5 C 94.9 11.6 95.2 11.6 95.5 11.6 C 95.9 11.6 96.2 11.5 96.4 11.2 C 96.7 11 96.8 10.6 96.9 10.2 C 96.94 10.21 94.2 2.9 94.2 2.9 Z " stroke="none" fill="#000"/>  </g></svg>