<?xml version="1.0" standalone="no"?><!DOCTYPE svg PUBLIC "-//W3C//DTD SVG 1.1//EN" "http://www.w3.org/Graphics/SVG/1.1/DTD/svg11.dtd"><svg xmlns="http://www.w3.org/2000/svg" version="1.1" width="19.5px" height="23.9px" viewBox="0 -5 19.5 23.9" style="top:-5px">  <desc>4.3</desc>  <defs/>  <g id="Polygon145030">    <path d="M 4.4 10.2 L 4.4 8.2 L 0.3 8.2 L 0.3 6.5 L 4.6 0.1 L 6.2 0.1 L 6.2 6.5 L 7.5 6.5 L 7.5 8.2 L 6.2 8.2 L 6.2 10.2 L 4.4 10.2 Z M 4.4 6.5 L 4.4 3.1 L 2.1 6.5 L 4.4 6.5 Z M 8.8 10.2 L 8.8 8.3 L 10.7 8.3 L 10.7 10.2 L 8.8 10.2 Z M 12.2 7.5 C 12.2 7.5 14.1 7.3 14.1 7.3 C 14.1 7.8 14.3 8.1 14.5 8.4 C 14.8 8.6 15.1 8.8 15.5 8.8 C 15.9 8.8 16.2 8.6 16.5 8.3 C 16.8 8 16.9 7.6 16.9 7.1 C 16.9 6.6 16.8 6.2 16.5 6 C 16.2 5.7 15.9 5.5 15.6 5.5 C 15.3 5.5 15 5.6 14.7 5.7 C 14.7 5.7 14.9 4.1 14.9 4.1 C 15.4 4.1 15.8 4 16.1 3.8 C 16.3 3.5 16.5 3.2 16.5 2.8 C 16.5 2.5 16.4 2.2 16.2 2 C 16 1.8 15.7 1.7 15.4 1.7 C 15.1 1.7 14.8 1.8 14.5 2.1 C 14.3 2.3 14.2 2.6 14.1 3 C 14.1 3 12.3 2.7 12.3 2.7 C 12.5 2.1 12.7 1.7 12.9 1.3 C 13.2 0.9 13.5 0.6 13.9 0.4 C 14.4 0.2 14.9 0.1 15.4 0.1 C 16.4 0.1 17.1 0.4 17.7 1 C 18.2 1.5 18.4 2.1 18.4 2.7 C 18.4 3.6 17.9 4.3 17 4.8 C 17.5 4.9 18 5.2 18.3 5.6 C 18.7 6.1 18.9 6.6 18.9 7.2 C 18.9 8.1 18.5 8.8 17.9 9.4 C 17.3 10.1 16.5 10.4 15.5 10.4 C 14.6 10.4 13.8 10.1 13.2 9.6 C 12.6 9.1 12.3 8.4 12.2 7.5 Z " stroke="none" fill="#ffffff"/>  </g></svg>