<?xml version="1.0" standalone="no"?><!DOCTYPE svg PUBLIC "-//W3C//DTD SVG 1.1//EN" "http://www.w3.org/Graphics/SVG/1.1/DTD/svg11.dtd"><svg xmlns="http://www.w3.org/2000/svg" version="1.1" width="173px" height="28.9px" viewBox="0 -5 173 28.9" style="top:-5px">  <desc>10,000+ Employers</desc>  <defs/>  <g id="Polygon141478">    <path d="M 7.3 0.7 L 7.3 13.1 L 4.4 13.1 L 4.4 4.7 L 2.7 6.1 L 1.1 4.2 L 5.4 0.7 L 7.3 0.7 Z M 15.3 11 C 16.3 11 16.8 9.9 16.8 7 C 16.8 4.4 16.4 3 15.3 3 C 14.4 3 13.7 4.1 13.7 7 C 13.7 9.7 14.1 11 15.3 11 Z M 19.8 7 C 19.8 11.1 17.8 13.3 15.3 13.3 C 12.7 13.3 10.8 11.1 10.8 7 C 10.8 2.8 12.9 0.7 15.3 0.7 C 17.8 0.7 19.8 3 19.8 7 Z M 24.6 12.3 C 24.6 13.9 23.4 15.5 21.1 15.9 C 21.1 15.9 21.1 15.4 21.1 15.4 C 21.9 15 22.3 14.3 22.3 13.1 C 21.4 12.9 21 12.3 21 11.5 C 21 10.6 21.8 9.9 22.7 9.9 C 23.9 9.9 24.6 11.1 24.6 12.3 Z M 30.5 11 C 31.4 11 32 9.9 32 7 C 32 4.4 31.6 3 30.4 3 C 29.5 3 28.9 4.1 28.9 7 C 28.9 9.7 29.3 11 30.5 11 Z M 35 7 C 35 11.1 33 13.3 30.5 13.3 C 27.9 13.3 25.9 11.1 25.9 7 C 25.9 2.8 28 0.7 30.5 0.7 C 33 0.7 35 3 35 7 Z M 40.6 11 C 41.6 11 42.2 9.9 42.2 7 C 42.2 4.4 41.8 3 40.6 3 C 39.7 3 39.1 4.1 39.1 7 C 39.1 9.7 39.5 11 40.6 11 Z M 45.2 7 C 45.2 11.1 43.1 13.3 40.6 13.3 C 38.1 13.3 36.1 11.1 36.1 7 C 36.1 2.8 38.2 0.7 40.7 0.7 C 43.2 0.7 45.2 3 45.2 7 Z M 50.8 11 C 51.8 11 52.4 9.9 52.4 7 C 52.4 4.4 51.9 3 50.8 3 C 49.9 3 49.3 4.1 49.3 7 C 49.3 9.7 49.7 11 50.8 11 Z M 55.3 7 C 55.3 11.1 53.3 13.3 50.8 13.3 C 48.3 13.3 46.3 11.1 46.3 7 C 46.3 2.8 48.4 0.7 50.8 0.7 C 53.4 0.7 55.3 3 55.3 7 Z M 56.7 5.8 L 60 5.8 L 60 2.4 L 62.3 2.4 L 62.3 5.8 L 65.6 5.8 L 65.6 8.1 L 62.3 8.1 L 62.3 11.5 L 60 11.5 L 60 8.1 L 56.7 8.1 L 56.7 5.8 Z M 81.3 0.8 L 81.3 3 L 76 3 L 76 5.7 L 81.1 5.7 L 81.1 7.9 L 76 7.9 L 76 10.9 L 81.5 10.9 L 81.5 13.1 L 72.9 13.1 L 72.9 0.8 L 81.3 0.8 Z M 91.9 5.9 C 92.9 4.7 93.9 4.2 95.1 4.2 C 97.1 4.2 98.1 5.5 98.1 7.7 C 98.13 7.74 98.1 13.1 98.1 13.1 L 95.5 13.1 C 95.5 13.1 95.45 8.23 95.5 8.2 C 95.5 7 95 6.4 94 6.4 C 93.4 6.4 92.7 6.8 92.1 7.6 C 92.14 7.65 92.1 13.1 92.1 13.1 L 89.5 13.1 C 89.5 13.1 89.46 8.26 89.5 8.3 C 89.5 7 89 6.4 88.1 6.4 C 87.5 6.4 86.9 6.6 86.1 7.6 C 86.15 7.65 86.1 13.1 86.1 13.1 L 83.5 13.1 L 83.5 4.4 L 86.1 4.4 C 86.1 4.4 86.15 5.62 86.1 5.6 C 87 4.7 87.9 4.2 89.1 4.2 C 90.4 4.2 91.4 4.8 91.9 5.9 Z M 105 13.3 C 104.2 13.3 103.6 13.2 102.8 12.7 C 102.83 12.69 102.8 17.2 102.8 17.2 L 100.1 17.2 L 100.1 4.4 C 100.1 4.4 104.04 4.39 104 4.4 C 106.8 4.4 109.2 5.1 109.2 8.8 C 109.2 11.1 107.8 13.3 105 13.3 Z M 102.8 10.7 C 103.3 11.1 103.9 11.2 104.4 11.2 C 105.6 11.2 106.4 10.3 106.4 8.9 C 106.4 7.3 105.5 6.5 104.1 6.5 C 104.07 6.46 102.8 6.5 102.8 6.5 C 102.8 6.5 102.83 10.69 102.8 10.7 Z M 113.6 0.8 L 113.6 13.1 L 110.9 13.1 L 110.9 0.8 L 113.6 0.8 Z M 118.1 8.7 C 118.1 10.3 118.9 11.2 120.2 11.2 C 121.5 11.2 122.3 10.2 122.3 8.7 C 122.3 7.2 121.4 6.3 120.1 6.3 C 118.9 6.3 118.1 7.2 118.1 8.7 Z M 125.1 8.7 C 125.1 11.5 123.1 13.3 120.2 13.3 C 117 13.3 115.3 11.2 115.3 8.8 C 115.3 6.2 117.1 4.2 120.2 4.2 C 123.3 4.2 125.1 6.1 125.1 8.7 Z M 128.3 4.4 L 130.3 8.9 L 132.3 4.4 L 135 4.4 L 129 17.2 L 126.3 17.2 L 128.8 11.8 L 125.4 4.4 L 128.3 4.4 Z M 144.2 8.8 C 144.18 8.82 144.2 9.3 144.2 9.3 C 144.2 9.3 138.06 9.32 138.1 9.3 C 138.3 10.6 139.3 11.4 140.6 11.4 C 141.7 11.4 142.9 11.1 144 10.5 C 144 10.5 144 12.3 144 12.3 C 142.9 13 141.6 13.3 140.1 13.3 C 137.2 13.3 135.3 11.5 135.3 8.7 C 135.3 6 137.1 4.2 140 4.2 C 142.3 4.2 144.2 5.8 144.2 8.8 Z M 141.6 8 C 141.6 6.7 141 6 139.9 6 C 138.8 6 138 6.8 138 8 C 138 8 141.6 8 141.6 8 Z M 153.1 5 C 153.1 5 152 7.6 152 7.6 C 151.5 7.1 151 6.9 150.5 6.9 C 149.6 6.9 148.9 7.6 148.5 9.1 C 148.46 9.11 148.5 13.1 148.5 13.1 L 145.8 13.1 L 145.8 4.4 L 148.5 4.4 C 148.5 4.4 148.46 6.46 148.5 6.5 C 149.1 5.1 150.1 4.2 151.2 4.2 C 151.8 4.2 152.3 4.4 153.1 5 Z M 157.2 4.2 C 158.2 4.2 159.2 4.5 160.1 4.9 C 160.1 4.9 160.1 7 160.1 7 C 159 6.3 158.3 6.1 157.6 6.1 C 156.9 6.1 156.6 6.4 156.6 6.7 C 156.6 7 156.7 7.2 158.2 7.9 C 159.7 8.6 160.5 9.4 160.5 10.6 C 160.5 12.1 159.4 13.3 157.2 13.3 C 156.2 13.3 155.3 13.1 154 12.6 C 154 12.6 154 10.5 154 10.5 C 154.9 11.1 155.8 11.4 156.6 11.4 C 157.4 11.4 157.8 11.2 157.8 10.8 C 157.8 10.3 157.5 10.1 156.1 9.4 C 154.5 8.7 153.9 7.8 153.9 6.7 C 153.9 5.4 155.1 4.2 157.2 4.2 Z " stroke="none" fill="#000"/>  </g></svg>