<?xml version="1.0" standalone="no"?><!DOCTYPE svg PUBLIC "-//W3C//DTD SVG 1.1//EN" "http://www.w3.org/Graphics/SVG/1.1/DTD/svg11.dtd"><svg xmlns="http://www.w3.org/2000/svg" version="1.1" width="280.3px" height="57.9px" viewBox="0 -5 280.3 57.9" style="top:-5px">  <desc>L3 Learning &amp; Development Practitioner L5 Learning &amp; Development Consultant L5 Partner</desc>  <defs/>  <g id="Polygon114904">    <path d="M 21.3 43.8 L 21.3 33.8 C 21.3 33.8 25.09 33.77 25.1 33.8 C 25.8 33.8 26.3 33.8 26.6 33.9 C 27.1 33.9 27.5 34.1 27.8 34.3 C 28.2 34.6 28.4 34.9 28.7 35.3 C 28.9 35.7 29 36.2 29 36.7 C 29 37.5 28.7 38.2 28.1 38.8 C 27.6 39.4 26.6 39.7 25.2 39.7 C 25.2 39.72 22.6 39.7 22.6 39.7 L 22.6 43.8 L 21.3 43.8 Z M 22.6 38.5 C 22.6 38.5 25.22 38.54 25.2 38.5 C 26.1 38.5 26.7 38.4 27 38.1 C 27.4 37.7 27.6 37.3 27.6 36.7 C 27.6 36.3 27.5 35.9 27.3 35.6 C 27.1 35.3 26.8 35.1 26.4 35 C 26.2 35 25.8 35 25.2 35 C 25.2 34.95 22.6 35 22.6 35 L 22.6 38.5 Z M 35.5 43.8 C 35.3 43.5 35.3 43.2 35.2 42.9 C 34.8 43.3 34.3 43.6 33.9 43.7 C 33.5 43.9 33 44 32.6 44 C 31.8 44 31.1 43.8 30.7 43.4 C 30.3 43 30.1 42.5 30.1 41.9 C 30.1 41.5 30.2 41.2 30.3 40.9 C 30.5 40.6 30.7 40.4 30.9 40.2 C 31.2 40 31.5 39.9 31.8 39.8 C 32.1 39.7 32.4 39.7 32.9 39.6 C 33.9 39.5 34.7 39.3 35.1 39.2 C 35.1 39 35.1 38.9 35.1 38.9 C 35.1 38.4 35 38 34.8 37.8 C 34.5 37.5 34 37.4 33.4 37.4 C 32.8 37.4 32.4 37.5 32.1 37.7 C 31.8 37.9 31.6 38.3 31.5 38.8 C 31.5 38.8 30.3 38.6 30.3 38.6 C 30.4 38.1 30.6 37.7 30.8 37.4 C 31.1 37 31.4 36.8 31.9 36.6 C 32.4 36.5 32.9 36.4 33.6 36.4 C 34.2 36.4 34.7 36.4 35.1 36.6 C 35.5 36.7 35.7 36.9 35.9 37.1 C 36.1 37.4 36.2 37.6 36.3 38 C 36.3 38.2 36.4 38.6 36.4 39.1 C 36.4 39.1 36.4 40.8 36.4 40.8 C 36.4 41.9 36.4 42.6 36.4 42.9 C 36.5 43.2 36.6 43.5 36.8 43.8 C 36.76 43.79 35.5 43.8 35.5 43.8 C 35.5 43.8 35.47 43.79 35.5 43.8 Z M 35.1 40.1 C 34.7 40.3 34 40.5 33.1 40.6 C 32.6 40.7 32.2 40.8 32 40.9 C 31.8 41 31.7 41.1 31.6 41.3 C 31.4 41.4 31.4 41.6 31.4 41.8 C 31.4 42.2 31.5 42.4 31.8 42.7 C 32 42.9 32.4 43 32.8 43 C 33.3 43 33.7 42.9 34.1 42.7 C 34.5 42.5 34.8 42.2 34.9 41.8 C 35.1 41.6 35.1 41.1 35.1 40.6 C 35.1 40.6 35.1 40.1 35.1 40.1 Z M 38.3 43.8 L 38.3 36.5 L 39.4 36.5 C 39.4 36.5 39.37 37.63 39.4 37.6 C 39.7 37.1 39.9 36.8 40.2 36.6 C 40.4 36.5 40.7 36.4 40.9 36.4 C 41.4 36.4 41.8 36.5 42.2 36.8 C 42.2 36.8 41.8 37.9 41.8 37.9 C 41.5 37.7 41.2 37.6 40.9 37.6 C 40.6 37.6 40.4 37.7 40.2 37.9 C 39.9 38 39.8 38.3 39.7 38.6 C 39.6 39 39.5 39.5 39.5 40 C 39.49 39.99 39.5 43.8 39.5 43.8 L 38.3 43.8 Z M 45.1 42.7 C 45.2 42.7 45.4 42.7 45.6 42.7 C 45.6 42.7 45.8 43.8 45.8 43.8 C 45.5 43.9 45.1 43.9 44.9 43.9 C 44.4 43.9 44.1 43.8 43.8 43.7 C 43.6 43.5 43.4 43.3 43.3 43.1 C 43.2 42.9 43.2 42.4 43.2 41.7 C 43.16 41.67 43.2 37.5 43.2 37.5 L 42.3 37.5 L 42.3 36.5 L 43.2 36.5 L 43.2 34.7 L 44.4 34 L 44.4 36.5 L 45.6 36.5 L 45.6 37.5 L 44.4 37.5 C 44.4 37.5 44.39 41.73 44.4 41.7 C 44.4 42.1 44.4 42.3 44.5 42.4 C 44.5 42.5 44.6 42.6 44.7 42.7 C 44.8 42.7 44.9 42.7 45.1 42.7 C 45.1 42.7 45.1 42.7 45.1 42.7 Z M 46.8 43.8 L 46.8 36.5 L 47.9 36.5 C 47.9 36.5 47.93 37.56 47.9 37.6 C 48.5 36.8 49.2 36.4 50.2 36.4 C 50.7 36.4 51.1 36.4 51.5 36.6 C 51.8 36.8 52.1 37 52.3 37.2 C 52.5 37.5 52.6 37.8 52.7 38.1 C 52.7 38.4 52.7 38.8 52.7 39.3 C 52.73 39.33 52.7 43.8 52.7 43.8 L 51.5 43.8 C 51.5 43.8 51.5 39.38 51.5 39.4 C 51.5 38.9 51.4 38.5 51.4 38.3 C 51.3 38 51.1 37.8 50.8 37.7 C 50.6 37.5 50.3 37.4 50 37.4 C 49.5 37.4 49 37.6 48.6 37.9 C 48.2 38.3 48.1 38.9 48.1 39.8 C 48.06 39.83 48.1 43.8 48.1 43.8 L 46.8 43.8 Z M 59.6 41.5 C 59.6 41.5 60.9 41.6 60.9 41.6 C 60.7 42.4 60.3 42.9 59.7 43.3 C 59.2 43.8 58.5 44 57.7 44 C 56.6 44 55.8 43.6 55.1 43 C 54.5 42.3 54.2 41.4 54.2 40.2 C 54.2 39 54.5 38.1 55.1 37.4 C 55.8 36.7 56.6 36.4 57.6 36.4 C 58.6 36.4 59.4 36.7 60 37.4 C 60.6 38 60.9 39 60.9 40.1 C 60.9 40.2 60.9 40.3 60.9 40.5 C 60.9 40.5 55.5 40.5 55.5 40.5 C 55.5 41.3 55.7 41.9 56.2 42.3 C 56.6 42.7 57.1 42.9 57.7 42.9 C 58.1 42.9 58.5 42.8 58.8 42.6 C 59.1 42.4 59.4 42 59.6 41.5 Z M 55.5 39.5 C 55.5 39.5 59.6 39.5 59.6 39.5 C 59.5 38.9 59.4 38.4 59.1 38.1 C 58.7 37.6 58.2 37.4 57.6 37.4 C 57 37.4 56.6 37.6 56.2 37.9 C 55.8 38.3 55.6 38.8 55.5 39.5 Z M 62.4 43.8 L 62.4 36.5 L 63.5 36.5 C 63.5 36.5 63.49 37.63 63.5 37.6 C 63.8 37.1 64 36.8 64.3 36.6 C 64.5 36.5 64.8 36.4 65.1 36.4 C 65.5 36.4 65.9 36.5 66.3 36.8 C 66.3 36.8 65.9 37.9 65.9 37.9 C 65.6 37.7 65.3 37.6 65 37.6 C 64.7 37.6 64.5 37.7 64.3 37.9 C 64.1 38 63.9 38.3 63.8 38.6 C 63.7 39 63.6 39.5 63.6 40 C 63.62 39.99 63.6 43.8 63.6 43.8 L 62.4 43.8 Z " stroke="none" fill="#000000"/>  </g>  <g id="Polygon114903">    <path d="M 1.1 27 L 1.1 17.1 L 3.1 17.1 L 3.1 25.3 L 8.1 25.3 L 8.1 27 L 1.1 27 Z M 9.2 24.4 C 9.2 24.4 11.1 24.2 11.1 24.2 C 11.1 24.7 11.3 25 11.6 25.2 C 11.8 25.5 12.2 25.6 12.5 25.6 C 12.9 25.6 13.2 25.5 13.5 25.1 C 13.8 24.8 13.9 24.3 13.9 23.7 C 13.9 23 13.8 22.6 13.5 22.3 C 13.2 22 12.9 21.8 12.4 21.8 C 11.9 21.8 11.4 22.1 11 22.5 C 10.96 22.55 9.4 22.3 9.4 22.3 L 10.4 17.1 L 15.5 17.1 L 15.5 18.9 L 11.8 18.9 C 11.8 18.9 11.55 20.61 11.5 20.6 C 12 20.4 12.4 20.3 12.9 20.3 C 13.7 20.3 14.4 20.6 15 21.2 C 15.6 21.8 15.9 22.6 15.9 23.6 C 15.9 24.5 15.7 25.2 15.2 25.8 C 14.5 26.7 13.6 27.2 12.5 27.2 C 11.6 27.2 10.8 26.9 10.2 26.4 C 9.6 25.9 9.3 25.3 9.2 24.4 Z M 21.3 27 L 21.3 17 L 22.6 17 L 22.6 25.8 L 27.5 25.8 L 27.5 27 L 21.3 27 Z M 33.9 24.7 C 33.9 24.7 35.2 24.8 35.2 24.8 C 35 25.6 34.6 26.1 34.1 26.5 C 33.5 27 32.8 27.2 32 27.2 C 30.9 27.2 30.1 26.8 29.5 26.2 C 28.8 25.5 28.5 24.6 28.5 23.4 C 28.5 22.2 28.8 21.3 29.5 20.6 C 30.1 19.9 30.9 19.6 31.9 19.6 C 32.9 19.6 33.7 19.9 34.3 20.6 C 34.9 21.2 35.2 22.2 35.2 23.3 C 35.2 23.4 35.2 23.5 35.2 23.7 C 35.2 23.7 29.8 23.7 29.8 23.7 C 29.8 24.5 30.1 25.1 30.5 25.5 C 30.9 25.9 31.4 26.1 32 26.1 C 32.4 26.1 32.8 26 33.1 25.8 C 33.5 25.6 33.7 25.2 33.9 24.7 Z M 29.9 22.7 C 29.9 22.7 33.9 22.7 33.9 22.7 C 33.9 22.1 33.7 21.6 33.5 21.3 C 33.1 20.8 32.6 20.6 31.9 20.6 C 31.4 20.6 30.9 20.8 30.5 21.1 C 30.1 21.5 29.9 22 29.9 22.7 Z M 41.7 27 C 41.6 26.7 41.5 26.4 41.5 26.1 C 41 26.5 40.6 26.8 40.1 26.9 C 39.7 27.1 39.3 27.2 38.8 27.2 C 38 27.2 37.4 27 36.9 26.6 C 36.5 26.2 36.3 25.7 36.3 25.1 C 36.3 24.7 36.4 24.4 36.5 24.1 C 36.7 23.8 36.9 23.6 37.2 23.4 C 37.4 23.2 37.7 23.1 38.1 23 C 38.3 22.9 38.7 22.9 39.2 22.8 C 40.2 22.7 40.9 22.5 41.4 22.4 C 41.4 22.2 41.4 22.1 41.4 22.1 C 41.4 21.6 41.2 21.2 41 21 C 40.7 20.7 40.2 20.6 39.6 20.6 C 39 20.6 38.6 20.7 38.3 20.9 C 38.1 21.1 37.9 21.5 37.7 22 C 37.7 22 36.5 21.8 36.5 21.8 C 36.6 21.3 36.8 20.9 37.1 20.6 C 37.3 20.2 37.7 20 38.1 19.8 C 38.6 19.7 39.2 19.6 39.8 19.6 C 40.4 19.6 40.9 19.6 41.3 19.8 C 41.7 19.9 42 20.1 42.2 20.3 C 42.3 20.6 42.5 20.8 42.5 21.2 C 42.6 21.4 42.6 21.8 42.6 22.3 C 42.6 22.3 42.6 24 42.6 24 C 42.6 25.1 42.6 25.8 42.7 26.1 C 42.7 26.4 42.8 26.7 43 27 C 42.99 26.99 41.7 27 41.7 27 C 41.7 27 41.71 26.99 41.7 27 Z M 41.4 23.3 C 40.9 23.5 40.2 23.7 39.3 23.8 C 38.8 23.9 38.5 24 38.3 24.1 C 38.1 24.2 37.9 24.3 37.8 24.5 C 37.7 24.6 37.6 24.8 37.6 25 C 37.6 25.4 37.7 25.6 38 25.9 C 38.2 26.1 38.6 26.2 39.1 26.2 C 39.6 26.2 40 26.1 40.3 25.9 C 40.7 25.7 41 25.4 41.2 25 C 41.3 24.8 41.4 24.3 41.4 23.8 C 41.4 23.8 41.4 23.3 41.4 23.3 Z M 44.5 27 L 44.5 19.7 L 45.6 19.7 C 45.6 19.7 45.6 20.83 45.6 20.8 C 45.9 20.3 46.1 20 46.4 19.8 C 46.6 19.7 46.9 19.6 47.2 19.6 C 47.6 19.6 48 19.7 48.4 20 C 48.4 20 48 21.1 48 21.1 C 47.7 20.9 47.4 20.8 47.1 20.8 C 46.8 20.8 46.6 20.9 46.4 21.1 C 46.2 21.2 46 21.5 45.9 21.8 C 45.8 22.2 45.7 22.7 45.7 23.2 C 45.73 23.19 45.7 27 45.7 27 L 44.5 27 Z M 49.2 27 L 49.2 19.7 L 50.3 19.7 C 50.3 19.7 50.28 20.76 50.3 20.8 C 50.8 20 51.6 19.6 52.6 19.6 C 53 19.6 53.4 19.6 53.8 19.8 C 54.2 20 54.4 20.2 54.6 20.4 C 54.8 20.7 54.9 21 55 21.3 C 55 21.6 55.1 22 55.1 22.5 C 55.07 22.53 55.1 27 55.1 27 L 53.8 27 C 53.8 27 53.84 22.58 53.8 22.6 C 53.8 22.1 53.8 21.7 53.7 21.5 C 53.6 21.2 53.4 21 53.2 20.9 C 52.9 20.7 52.7 20.6 52.3 20.6 C 51.8 20.6 51.4 20.8 51 21.1 C 50.6 21.5 50.4 22.1 50.4 23 C 50.4 23.03 50.4 27 50.4 27 L 49.2 27 Z M 57 18.4 L 57 17 L 58.2 17 L 58.2 18.4 L 57 18.4 Z M 57 27 L 57 19.7 L 58.2 19.7 L 58.2 27 L 57 27 Z M 60.1 27 L 60.1 19.7 L 61.2 19.7 C 61.2 19.7 61.17 20.76 61.2 20.8 C 61.7 20 62.5 19.6 63.5 19.6 C 63.9 19.6 64.3 19.6 64.7 19.8 C 65.1 20 65.3 20.2 65.5 20.4 C 65.7 20.7 65.8 21 65.9 21.3 C 65.9 21.6 66 22 66 22.5 C 65.97 22.53 66 27 66 27 L 64.7 27 C 64.7 27 64.74 22.58 64.7 22.6 C 64.7 22.1 64.7 21.7 64.6 21.5 C 64.5 21.2 64.3 21 64.1 20.9 C 63.8 20.7 63.6 20.6 63.2 20.6 C 62.7 20.6 62.2 20.8 61.9 21.1 C 61.5 21.5 61.3 22.1 61.3 23 C 61.3 23.03 61.3 27 61.3 27 L 60.1 27 Z M 67.6 27.6 C 67.6 27.6 68.8 27.8 68.8 27.8 C 68.9 28.1 69 28.4 69.2 28.6 C 69.5 28.8 70 28.9 70.5 28.9 C 71.1 28.9 71.5 28.8 71.8 28.6 C 72.1 28.4 72.3 28 72.4 27.6 C 72.5 27.4 72.5 26.8 72.5 26 C 72 26.7 71.3 27 70.5 27 C 69.5 27 68.7 26.6 68.2 25.9 C 67.7 25.2 67.4 24.3 67.4 23.3 C 67.4 22.6 67.5 22 67.8 21.4 C 68 20.8 68.4 20.4 68.8 20 C 69.3 19.7 69.9 19.6 70.5 19.6 C 71.4 19.6 72.1 19.9 72.6 20.6 C 72.65 20.61 72.6 19.7 72.6 19.7 L 73.8 19.7 C 73.8 19.7 73.78 26.01 73.8 26 C 73.8 27.1 73.7 27.9 73.4 28.4 C 73.2 28.9 72.8 29.3 72.3 29.5 C 71.8 29.8 71.2 29.9 70.5 29.9 C 69.6 29.9 68.9 29.7 68.4 29.4 C 67.9 29 67.6 28.4 67.6 27.6 Z M 68.6 23.2 C 68.6 24.2 68.8 24.9 69.2 25.3 C 69.6 25.8 70.1 26 70.6 26 C 71.2 26 71.7 25.8 72.1 25.3 C 72.4 24.9 72.6 24.2 72.6 23.3 C 72.6 22.4 72.4 21.7 72 21.3 C 71.6 20.8 71.2 20.6 70.6 20.6 C 70.1 20.6 69.6 20.8 69.2 21.3 C 68.8 21.7 68.6 22.4 68.6 23.2 Z M 86.8 27.2 C 86.3 26.9 85.8 26.4 85.3 25.8 C 84.9 26.3 84.4 26.6 83.9 26.8 C 83.5 27.1 82.9 27.2 82.4 27.2 C 81.4 27.2 80.5 26.8 79.9 26.1 C 79.5 25.6 79.2 24.9 79.2 24.2 C 79.2 23.6 79.4 23.1 79.8 22.6 C 80.2 22.1 80.8 21.6 81.6 21.2 C 81.1 20.7 80.8 20.3 80.7 20 C 80.5 19.6 80.5 19.3 80.5 19 C 80.5 18.4 80.7 17.9 81.2 17.5 C 81.6 17 82.2 16.8 83 16.8 C 83.6 16.8 84.2 17 84.6 17.4 C 85.1 17.8 85.3 18.4 85.3 18.9 C 85.3 19.9 84.7 20.7 83.4 21.4 C 83.4 21.4 85.2 23.7 85.2 23.7 C 85.4 23.3 85.6 22.8 85.7 22.3 C 85.7 22.3 86.9 22.5 86.9 22.5 C 86.7 23.4 86.4 24.1 86.1 24.7 C 86.5 25.3 87 25.8 87.6 26.2 C 87.62 26.25 86.8 27.2 86.8 27.2 C 86.8 27.2 86.8 27.22 86.8 27.2 Z M 82.8 20.6 C 83.3 20.3 83.6 20 83.8 19.8 C 83.9 19.5 84 19.3 84 19 C 84 18.6 83.9 18.4 83.7 18.1 C 83.5 17.9 83.2 17.8 82.9 17.8 C 82.6 17.8 82.3 17.9 82.1 18.1 C 81.8 18.3 81.7 18.6 81.7 18.9 C 81.7 19.1 81.8 19.2 81.9 19.4 C 81.9 19.6 82 19.8 82.2 20 C 82.2 20 82.8 20.6 82.8 20.6 Z M 84.5 24.8 C 84.5 24.8 82.2 22 82.2 22 C 81.6 22.4 81.1 22.8 80.9 23.1 C 80.7 23.5 80.5 23.8 80.5 24.2 C 80.5 24.6 80.7 25 81 25.4 C 81.3 25.9 81.8 26.1 82.4 26.1 C 82.8 26.1 83.1 26 83.5 25.7 C 83.9 25.5 84.2 25.2 84.5 24.8 Z M 92.9 27 L 92.9 17 C 92.9 17 96.37 16.97 96.4 17 C 97.1 17 97.7 17 98.2 17.1 C 98.7 17.2 99.2 17.5 99.6 17.8 C 100.1 18.3 100.5 18.8 100.8 19.5 C 101.1 20.2 101.2 21 101.2 21.9 C 101.2 22.7 101.1 23.4 100.9 24 C 100.8 24.5 100.5 25 100.2 25.4 C 100 25.8 99.7 26.1 99.3 26.3 C 99 26.5 98.6 26.7 98.1 26.8 C 97.7 26.9 97.1 27 96.5 27 C 96.53 26.99 92.9 27 92.9 27 Z M 94.2 25.8 C 94.2 25.8 96.38 25.81 96.4 25.8 C 97 25.8 97.6 25.7 97.9 25.6 C 98.3 25.5 98.6 25.3 98.8 25.1 C 99.1 24.8 99.4 24.4 99.6 23.8 C 99.7 23.3 99.8 22.7 99.8 21.9 C 99.8 20.9 99.7 20.1 99.3 19.5 C 99 18.9 98.6 18.5 98.1 18.4 C 97.7 18.2 97.1 18.2 96.3 18.2 C 96.35 18.15 94.2 18.2 94.2 18.2 L 94.2 25.8 Z M 107.8 24.7 C 107.8 24.7 109.1 24.8 109.1 24.8 C 108.9 25.6 108.5 26.1 108 26.5 C 107.5 27 106.8 27.2 105.9 27.2 C 104.9 27.2 104 26.8 103.4 26.2 C 102.8 25.5 102.5 24.6 102.5 23.4 C 102.5 22.2 102.8 21.3 103.4 20.6 C 104 19.9 104.8 19.6 105.8 19.6 C 106.8 19.6 107.6 19.9 108.2 20.6 C 108.8 21.2 109.1 22.2 109.1 23.3 C 109.1 23.4 109.1 23.5 109.1 23.7 C 109.1 23.7 103.7 23.7 103.7 23.7 C 103.8 24.5 104 25.1 104.4 25.5 C 104.8 25.9 105.3 26.1 105.9 26.1 C 106.4 26.1 106.8 26 107.1 25.8 C 107.4 25.6 107.6 25.2 107.8 24.7 Z M 103.8 22.7 C 103.8 22.7 107.9 22.7 107.9 22.7 C 107.8 22.1 107.6 21.6 107.4 21.3 C 107 20.8 106.5 20.6 105.9 20.6 C 105.3 20.6 104.8 20.8 104.4 21.1 C 104.1 21.5 103.8 22 103.8 22.7 Z M 112.7 27 L 109.9 19.7 L 111.2 19.7 C 111.2 19.7 112.77 24.08 112.8 24.1 C 112.9 24.5 113.1 25 113.2 25.5 C 113.3 25.2 113.5 24.7 113.7 24.2 C 113.69 24.16 115.3 19.7 115.3 19.7 L 116.6 19.7 L 113.8 27 L 112.7 27 Z M 122.6 24.7 C 122.6 24.7 123.9 24.8 123.9 24.8 C 123.7 25.6 123.3 26.1 122.8 26.5 C 122.2 27 121.5 27.2 120.7 27.2 C 119.6 27.2 118.8 26.8 118.2 26.2 C 117.6 25.5 117.2 24.6 117.2 23.4 C 117.2 22.2 117.6 21.3 118.2 20.6 C 118.8 19.9 119.6 19.6 120.6 19.6 C 121.6 19.6 122.4 19.9 123 20.6 C 123.6 21.2 123.9 22.2 123.9 23.3 C 123.9 23.4 123.9 23.5 123.9 23.7 C 123.9 23.7 118.5 23.7 118.5 23.7 C 118.6 24.5 118.8 25.1 119.2 25.5 C 119.6 25.9 120.1 26.1 120.7 26.1 C 121.2 26.1 121.5 26 121.9 25.8 C 122.2 25.6 122.4 25.2 122.6 24.7 Z M 118.6 22.7 C 118.6 22.7 122.6 22.7 122.6 22.7 C 122.6 22.1 122.4 21.6 122.2 21.3 C 121.8 20.8 121.3 20.6 120.6 20.6 C 120.1 20.6 119.6 20.8 119.2 21.1 C 118.8 21.5 118.6 22 118.6 22.7 Z M 125.4 27 L 125.4 17 L 126.6 17 L 126.6 27 L 125.4 27 Z M 128.1 23.4 C 128.1 22 128.5 21 129.2 20.4 C 129.8 19.8 130.6 19.6 131.5 19.6 C 132.5 19.6 133.3 19.9 133.9 20.5 C 134.6 21.2 134.9 22.1 134.9 23.3 C 134.9 24.2 134.8 24.9 134.5 25.5 C 134.2 26 133.8 26.4 133.2 26.7 C 132.7 27 132.1 27.2 131.5 27.2 C 130.5 27.2 129.7 26.8 129 26.2 C 128.4 25.5 128.1 24.6 128.1 23.4 Z M 129.4 23.4 C 129.4 24.3 129.6 25 130 25.5 C 130.4 25.9 130.9 26.1 131.5 26.1 C 132.1 26.1 132.6 25.9 133 25.4 C 133.4 25 133.6 24.3 133.6 23.3 C 133.6 22.4 133.4 21.7 133 21.3 C 132.6 20.8 132.1 20.6 131.5 20.6 C 130.9 20.6 130.4 20.8 130 21.3 C 129.6 21.7 129.4 22.4 129.4 23.4 Z M 136.3 29.8 L 136.3 19.7 L 137.5 19.7 C 137.5 19.7 137.46 20.68 137.5 20.7 C 137.7 20.3 138 20 138.4 19.8 C 138.7 19.7 139.1 19.6 139.6 19.6 C 140.2 19.6 140.7 19.7 141.2 20 C 141.7 20.4 142 20.8 142.3 21.4 C 142.5 22 142.6 22.6 142.6 23.3 C 142.6 24.1 142.5 24.7 142.2 25.3 C 142 25.9 141.6 26.4 141.1 26.7 C 140.6 27 140 27.2 139.5 27.2 C 139.1 27.2 138.7 27.1 138.4 26.9 C 138 26.7 137.8 26.5 137.6 26.2 C 137.57 26.24 137.6 29.8 137.6 29.8 L 136.3 29.8 Z M 137.5 23.4 C 137.5 24.3 137.6 25 138 25.5 C 138.4 25.9 138.9 26.1 139.4 26.1 C 139.9 26.1 140.4 25.9 140.8 25.5 C 141.2 25 141.4 24.3 141.4 23.3 C 141.4 22.4 141.2 21.7 140.8 21.2 C 140.4 20.8 140 20.5 139.4 20.5 C 138.9 20.5 138.5 20.8 138.1 21.3 C 137.7 21.8 137.5 22.5 137.5 23.4 Z M 144.1 27 L 144.1 19.7 L 145.2 19.7 C 145.2 19.7 145.22 20.75 145.2 20.8 C 145.5 20.4 145.8 20.1 146.1 19.9 C 146.5 19.7 146.9 19.6 147.4 19.6 C 148 19.6 148.4 19.7 148.7 19.9 C 149.1 20.1 149.3 20.4 149.5 20.8 C 150 20 150.8 19.6 151.7 19.6 C 152.4 19.6 153 19.8 153.4 20.2 C 153.8 20.6 154 21.2 154 22 C 153.96 22.01 154 27 154 27 L 152.7 27 C 152.7 27 152.74 22.42 152.7 22.4 C 152.7 21.9 152.7 21.6 152.6 21.4 C 152.5 21.1 152.4 21 152.2 20.8 C 152 20.7 151.7 20.6 151.4 20.6 C 150.9 20.6 150.5 20.8 150.2 21.1 C 149.8 21.5 149.7 22 149.7 22.8 C 149.67 22.77 149.7 27 149.7 27 L 148.4 27 C 148.4 27 148.44 22.28 148.4 22.3 C 148.4 21.7 148.3 21.3 148.1 21 C 147.9 20.8 147.6 20.6 147.2 20.6 C 146.8 20.6 146.5 20.7 146.2 20.9 C 145.9 21.1 145.7 21.4 145.6 21.7 C 145.4 22.1 145.4 22.6 145.4 23.2 C 145.35 23.23 145.4 27 145.4 27 L 144.1 27 Z M 160.8 24.7 C 160.8 24.7 162 24.8 162 24.8 C 161.8 25.6 161.5 26.1 160.9 26.5 C 160.4 27 159.7 27.2 158.8 27.2 C 157.8 27.2 156.9 26.8 156.3 26.2 C 155.7 25.5 155.4 24.6 155.4 23.4 C 155.4 22.2 155.7 21.3 156.3 20.6 C 156.9 19.9 157.8 19.6 158.8 19.6 C 159.7 19.6 160.5 19.9 161.1 20.6 C 161.8 21.2 162.1 22.2 162.1 23.3 C 162.1 23.4 162.1 23.5 162.1 23.7 C 162.1 23.7 156.6 23.7 156.6 23.7 C 156.7 24.5 156.9 25.1 157.3 25.5 C 157.7 25.9 158.2 26.1 158.8 26.1 C 159.3 26.1 159.7 26 160 25.8 C 160.3 25.6 160.6 25.2 160.8 24.7 Z M 156.7 22.7 C 156.7 22.7 160.8 22.7 160.8 22.7 C 160.7 22.1 160.6 21.6 160.3 21.3 C 159.9 20.8 159.4 20.6 158.8 20.6 C 158.2 20.6 157.7 20.8 157.4 21.1 C 157 21.5 156.8 22 156.7 22.7 Z M 163.6 27 L 163.6 19.7 L 164.7 19.7 C 164.7 19.7 164.68 20.76 164.7 20.8 C 165.2 20 166 19.6 167 19.6 C 167.4 19.6 167.8 19.6 168.2 19.8 C 168.6 20 168.8 20.2 169 20.4 C 169.2 20.7 169.3 21 169.4 21.3 C 169.4 21.6 169.5 22 169.5 22.5 C 169.47 22.53 169.5 27 169.5 27 L 168.2 27 C 168.2 27 168.24 22.58 168.2 22.6 C 168.2 22.1 168.2 21.7 168.1 21.5 C 168 21.2 167.8 21 167.6 20.9 C 167.3 20.7 167.1 20.6 166.7 20.6 C 166.2 20.6 165.8 20.8 165.4 21.1 C 165 21.5 164.8 22.1 164.8 23 C 164.8 23.03 164.8 27 164.8 27 L 163.6 27 Z M 173.5 25.9 C 173.6 25.9 173.8 25.9 174 25.9 C 174 25.9 174.2 27 174.2 27 C 173.9 27.1 173.6 27.1 173.3 27.1 C 172.8 27.1 172.5 27 172.3 26.9 C 172 26.7 171.8 26.5 171.7 26.3 C 171.6 26.1 171.6 25.6 171.6 24.9 C 171.58 24.87 171.6 20.7 171.6 20.7 L 170.7 20.7 L 170.7 19.7 L 171.6 19.7 L 171.6 17.9 L 172.8 17.2 L 172.8 19.7 L 174 19.7 L 174 20.7 L 172.8 20.7 C 172.8 20.7 172.81 24.93 172.8 24.9 C 172.8 25.3 172.8 25.5 172.9 25.6 C 172.9 25.7 173 25.8 173.1 25.9 C 173.2 25.9 173.3 25.9 173.5 25.9 C 173.5 25.9 173.5 25.9 173.5 25.9 Z M 186.4 23.5 C 186.4 23.5 187.8 23.8 187.8 23.8 C 187.5 24.9 187 25.7 186.3 26.3 C 185.5 26.9 184.7 27.2 183.6 27.2 C 182.5 27.2 181.7 26.9 181 26.5 C 180.3 26.1 179.8 25.4 179.4 24.6 C 179.1 23.8 178.9 22.9 178.9 21.9 C 178.9 20.9 179.1 20 179.5 19.2 C 179.9 18.4 180.5 17.8 181.2 17.4 C 181.9 17 182.8 16.8 183.6 16.8 C 184.6 16.8 185.5 17.1 186.2 17.6 C 186.9 18.1 187.3 18.8 187.6 19.7 C 187.6 19.7 186.3 20 186.3 20 C 186.1 19.3 185.7 18.8 185.3 18.4 C 184.8 18.1 184.3 17.9 183.6 17.9 C 182.8 17.9 182.2 18.1 181.7 18.5 C 181.2 18.9 180.8 19.4 180.6 20 C 180.4 20.6 180.3 21.2 180.3 21.9 C 180.3 22.8 180.4 23.5 180.6 24.1 C 180.9 24.8 181.3 25.2 181.8 25.6 C 182.3 25.9 182.9 26 183.5 26 C 184.3 26 184.9 25.8 185.4 25.4 C 185.9 25 186.3 24.3 186.4 23.5 Z M 188.8 23.4 C 188.8 22 189.2 21 189.9 20.4 C 190.5 19.8 191.3 19.6 192.2 19.6 C 193.2 19.6 194 19.9 194.6 20.5 C 195.3 21.2 195.6 22.1 195.6 23.3 C 195.6 24.2 195.4 24.9 195.2 25.5 C 194.9 26 194.5 26.4 193.9 26.7 C 193.4 27 192.8 27.2 192.2 27.2 C 191.2 27.2 190.4 26.8 189.7 26.2 C 189.1 25.5 188.8 24.6 188.8 23.4 Z M 190.1 23.4 C 190.1 24.3 190.3 25 190.7 25.5 C 191.1 25.9 191.6 26.1 192.2 26.1 C 192.8 26.1 193.3 25.9 193.7 25.4 C 194.1 25 194.3 24.3 194.3 23.3 C 194.3 22.4 194.1 21.7 193.7 21.3 C 193.3 20.8 192.8 20.6 192.2 20.6 C 191.6 20.6 191.1 20.8 190.7 21.3 C 190.3 21.7 190.1 22.4 190.1 23.4 Z M 197 27 L 197 19.7 L 198.1 19.7 C 198.1 19.7 198.14 20.76 198.1 20.8 C 198.7 20 199.4 19.6 200.5 19.6 C 200.9 19.6 201.3 19.6 201.7 19.8 C 202 20 202.3 20.2 202.5 20.4 C 202.7 20.7 202.8 21 202.9 21.3 C 202.9 21.6 202.9 22 202.9 22.5 C 202.93 22.53 202.9 27 202.9 27 L 201.7 27 C 201.7 27 201.7 22.58 201.7 22.6 C 201.7 22.1 201.7 21.7 201.6 21.5 C 201.5 21.2 201.3 21 201 20.9 C 200.8 20.7 200.5 20.6 200.2 20.6 C 199.7 20.6 199.2 20.8 198.8 21.1 C 198.5 21.5 198.3 22.1 198.3 23 C 198.26 23.03 198.3 27 198.3 27 L 197 27 Z M 204.3 24.8 C 204.3 24.8 205.5 24.6 205.5 24.6 C 205.6 25.1 205.8 25.5 206.1 25.8 C 206.4 26 206.9 26.1 207.4 26.1 C 208 26.1 208.4 26 208.7 25.8 C 209 25.6 209.1 25.3 209.1 25 C 209.1 24.7 209 24.5 208.7 24.3 C 208.6 24.2 208.1 24.1 207.5 23.9 C 206.6 23.7 205.9 23.5 205.6 23.3 C 205.2 23.2 205 22.9 204.8 22.6 C 204.6 22.3 204.5 22 204.5 21.7 C 204.5 21.3 204.6 21 204.8 20.8 C 204.9 20.5 205.1 20.3 205.4 20.1 C 205.5 19.9 205.8 19.8 206.1 19.7 C 206.5 19.6 206.8 19.6 207.2 19.6 C 207.8 19.6 208.3 19.7 208.7 19.8 C 209.1 20 209.5 20.2 209.7 20.5 C 209.9 20.8 210 21.1 210.1 21.6 C 210.1 21.6 208.9 21.8 208.9 21.8 C 208.8 21.4 208.7 21.1 208.4 20.9 C 208.1 20.7 207.8 20.6 207.3 20.6 C 206.7 20.6 206.3 20.7 206.1 20.9 C 205.8 21 205.7 21.3 205.7 21.5 C 205.7 21.7 205.8 21.8 205.9 21.9 C 206 22.1 206.1 22.2 206.3 22.3 C 206.5 22.3 206.8 22.4 207.4 22.6 C 208.3 22.8 208.9 23 209.3 23.2 C 209.6 23.3 209.9 23.5 210.1 23.8 C 210.3 24.1 210.4 24.4 210.4 24.9 C 210.4 25.3 210.2 25.7 210 26 C 209.8 26.4 209.4 26.7 209 26.9 C 208.5 27.1 208 27.2 207.4 27.2 C 206.5 27.2 205.8 27 205.3 26.6 C 204.8 26.2 204.5 25.6 204.3 24.8 Z M 216.6 27 C 216.6 27 216.58 25.93 216.6 25.9 C 216 26.7 215.2 27.2 214.3 27.2 C 213.8 27.2 213.4 27.1 213.1 26.9 C 212.7 26.7 212.4 26.5 212.2 26.3 C 212.1 26 211.9 25.7 211.9 25.4 C 211.8 25.1 211.8 24.8 211.8 24.2 C 211.79 24.23 211.8 19.7 211.8 19.7 L 213 19.7 C 213 19.7 213.02 23.76 213 23.8 C 213 24.4 213 24.8 213.1 25.1 C 213.2 25.4 213.3 25.6 213.6 25.8 C 213.8 26 214.1 26.1 214.5 26.1 C 214.9 26.1 215.2 26 215.6 25.8 C 215.9 25.6 216.1 25.4 216.2 25 C 216.4 24.7 216.4 24.2 216.4 23.6 C 216.45 23.62 216.4 19.7 216.4 19.7 L 217.7 19.7 L 217.7 27 L 216.6 27 Z M 219.6 27 L 219.6 17 L 220.8 17 L 220.8 27 L 219.6 27 Z M 224.9 25.9 C 225 25.9 225.2 25.9 225.4 25.9 C 225.4 25.9 225.6 27 225.6 27 C 225.2 27.1 224.9 27.1 224.6 27.1 C 224.2 27.1 223.9 27 223.6 26.9 C 223.4 26.7 223.2 26.5 223.1 26.3 C 223 26.1 222.9 25.6 222.9 24.9 C 222.94 24.87 222.9 20.7 222.9 20.7 L 222 20.7 L 222 19.7 L 222.9 19.7 L 222.9 17.9 L 224.2 17.2 L 224.2 19.7 L 225.4 19.7 L 225.4 20.7 L 224.2 20.7 C 224.2 20.7 224.16 24.93 224.2 24.9 C 224.2 25.3 224.2 25.5 224.2 25.6 C 224.3 25.7 224.3 25.8 224.4 25.9 C 224.5 25.9 224.7 25.9 224.9 25.9 C 224.9 25.9 224.9 25.9 224.9 25.9 Z M 231.6 27 C 231.5 26.7 231.4 26.4 231.3 26.1 C 230.9 26.5 230.4 26.8 230 26.9 C 229.6 27.1 229.2 27.2 228.7 27.2 C 227.9 27.2 227.3 27 226.8 26.6 C 226.4 26.2 226.2 25.7 226.2 25.1 C 226.2 24.7 226.3 24.4 226.4 24.1 C 226.6 23.8 226.8 23.6 227.1 23.4 C 227.3 23.2 227.6 23.1 228 23 C 228.2 22.9 228.6 22.9 229 22.8 C 230 22.7 230.8 22.5 231.2 22.4 C 231.2 22.2 231.2 22.1 231.2 22.1 C 231.2 21.6 231.1 21.2 230.9 21 C 230.6 20.7 230.1 20.6 229.5 20.6 C 228.9 20.6 228.5 20.7 228.2 20.9 C 227.9 21.1 227.7 21.5 227.6 22 C 227.6 22 226.4 21.8 226.4 21.8 C 226.5 21.3 226.7 20.9 226.9 20.6 C 227.2 20.2 227.6 20 228 19.8 C 228.5 19.7 229 19.6 229.7 19.6 C 230.3 19.6 230.8 19.6 231.2 19.8 C 231.6 19.9 231.9 20.1 232 20.3 C 232.2 20.6 232.3 20.8 232.4 21.2 C 232.5 21.4 232.5 21.8 232.5 22.3 C 232.5 22.3 232.5 24 232.5 24 C 232.5 25.1 232.5 25.8 232.6 26.1 C 232.6 26.4 232.7 26.7 232.9 27 C 232.87 26.99 231.6 27 231.6 27 C 231.6 27 231.59 26.99 231.6 27 Z M 231.2 23.3 C 230.8 23.5 230.1 23.7 229.2 23.8 C 228.7 23.9 228.4 24 228.2 24.1 C 227.9 24.2 227.8 24.3 227.7 24.5 C 227.6 24.6 227.5 24.8 227.5 25 C 227.5 25.4 227.6 25.6 227.9 25.9 C 228.1 26.1 228.5 26.2 229 26.2 C 229.4 26.2 229.9 26.1 230.2 25.9 C 230.6 25.7 230.9 25.4 231 25 C 231.2 24.8 231.2 24.3 231.2 23.8 C 231.2 23.8 231.2 23.3 231.2 23.3 Z M 234.4 27 L 234.4 19.7 L 235.5 19.7 C 235.5 19.7 235.5 20.76 235.5 20.8 C 236 20 236.8 19.6 237.8 19.6 C 238.2 19.6 238.6 19.6 239 19.8 C 239.4 20 239.7 20.2 239.8 20.4 C 240 20.7 240.1 21 240.2 21.3 C 240.3 21.6 240.3 22 240.3 22.5 C 240.29 22.53 240.3 27 240.3 27 L 239.1 27 C 239.1 27 239.06 22.58 239.1 22.6 C 239.1 22.1 239 21.7 238.9 21.5 C 238.8 21.2 238.7 21 238.4 20.9 C 238.2 20.7 237.9 20.6 237.5 20.6 C 237 20.6 236.6 20.8 236.2 21.1 C 235.8 21.5 235.6 22.1 235.6 23 C 235.62 23.03 235.6 27 235.6 27 L 234.4 27 Z M 244.3 25.9 C 244.5 25.9 244.6 25.9 244.9 25.9 C 244.9 25.9 245 27 245 27 C 244.7 27.1 244.4 27.1 244.1 27.1 C 243.7 27.1 243.3 27 243.1 26.9 C 242.8 26.7 242.7 26.5 242.6 26.3 C 242.5 26.1 242.4 25.6 242.4 24.9 C 242.4 24.87 242.4 20.7 242.4 20.7 L 241.5 20.7 L 241.5 19.7 L 242.4 19.7 L 242.4 17.9 L 243.6 17.2 L 243.6 19.7 L 244.9 19.7 L 244.9 20.7 L 243.6 20.7 C 243.6 20.7 243.63 24.93 243.6 24.9 C 243.6 25.3 243.6 25.5 243.7 25.6 C 243.7 25.7 243.8 25.8 243.9 25.9 C 244 25.9 244.1 25.9 244.3 25.9 C 244.3 25.9 244.3 25.9 244.3 25.9 Z " stroke="none" fill="#000000"/>  </g>  <g id="Polygon114902">    <path d="M 1.1 10.2 L 1.1 0.3 L 3.1 0.3 L 3.1 8.5 L 8.1 8.5 L 8.1 10.2 L 1.1 10.2 Z M 9.1 7.5 C 9.1 7.5 10.9 7.3 10.9 7.3 C 11 7.8 11.2 8.1 11.4 8.4 C 11.7 8.6 12 8.8 12.4 8.8 C 12.8 8.8 13.1 8.6 13.4 8.3 C 13.6 8 13.8 7.6 13.8 7.1 C 13.8 6.6 13.6 6.2 13.4 6 C 13.1 5.7 12.8 5.5 12.4 5.5 C 12.2 5.5 11.9 5.6 11.5 5.7 C 11.5 5.7 11.8 4.1 11.8 4.1 C 12.3 4.1 12.7 4 12.9 3.8 C 13.2 3.5 13.4 3.2 13.4 2.8 C 13.4 2.5 13.3 2.2 13.1 2 C 12.9 1.8 12.6 1.7 12.3 1.7 C 11.9 1.7 11.6 1.8 11.4 2.1 C 11.2 2.3 11 2.6 11 3 C 11 3 9.2 2.7 9.2 2.7 C 9.3 2.1 9.5 1.7 9.8 1.3 C 10 0.9 10.4 0.6 10.8 0.4 C 11.3 0.2 11.8 0.1 12.3 0.1 C 13.3 0.1 14 0.4 14.6 1 C 15.1 1.5 15.3 2.1 15.3 2.7 C 15.3 3.6 14.8 4.3 13.8 4.8 C 14.4 4.9 14.9 5.2 15.2 5.6 C 15.6 6.1 15.7 6.6 15.7 7.2 C 15.7 8.1 15.4 8.8 14.8 9.4 C 14.1 10.1 13.3 10.4 12.4 10.4 C 11.5 10.4 10.7 10.1 10.1 9.6 C 9.5 9.1 9.2 8.4 9.1 7.5 Z M 21.3 10.2 L 21.3 0.2 L 22.6 0.2 L 22.6 9 L 27.5 9 L 27.5 10.2 L 21.3 10.2 Z M 33.9 7.9 C 33.9 7.9 35.2 8 35.2 8 C 35 8.8 34.6 9.3 34.1 9.7 C 33.5 10.2 32.8 10.4 32 10.4 C 30.9 10.4 30.1 10 29.5 9.4 C 28.8 8.7 28.5 7.8 28.5 6.6 C 28.5 5.4 28.8 4.5 29.5 3.8 C 30.1 3.1 30.9 2.8 31.9 2.8 C 32.9 2.8 33.7 3.1 34.3 3.8 C 34.9 4.4 35.2 5.4 35.2 6.5 C 35.2 6.6 35.2 6.7 35.2 6.9 C 35.2 6.9 29.8 6.9 29.8 6.9 C 29.8 7.7 30.1 8.3 30.5 8.7 C 30.9 9.1 31.4 9.3 32 9.3 C 32.4 9.3 32.8 9.2 33.1 9 C 33.5 8.8 33.7 8.4 33.9 7.9 Z M 29.9 5.9 C 29.9 5.9 33.9 5.9 33.9 5.9 C 33.9 5.3 33.7 4.8 33.5 4.5 C 33.1 4 32.6 3.8 31.9 3.8 C 31.4 3.8 30.9 4 30.5 4.3 C 30.1 4.7 29.9 5.2 29.9 5.9 Z M 41.7 10.2 C 41.6 9.9 41.5 9.6 41.5 9.3 C 41 9.7 40.6 10 40.1 10.1 C 39.7 10.3 39.3 10.4 38.8 10.4 C 38 10.4 37.4 10.2 36.9 9.8 C 36.5 9.4 36.3 8.9 36.3 8.3 C 36.3 7.9 36.4 7.6 36.5 7.3 C 36.7 7 36.9 6.8 37.2 6.6 C 37.4 6.4 37.7 6.3 38.1 6.2 C 38.3 6.1 38.7 6.1 39.2 6 C 40.2 5.9 40.9 5.7 41.4 5.6 C 41.4 5.4 41.4 5.3 41.4 5.3 C 41.4 4.8 41.2 4.4 41 4.2 C 40.7 3.9 40.2 3.8 39.6 3.8 C 39 3.8 38.6 3.9 38.3 4.1 C 38.1 4.3 37.9 4.7 37.7 5.2 C 37.7 5.2 36.5 5 36.5 5 C 36.6 4.5 36.8 4.1 37.1 3.8 C 37.3 3.4 37.7 3.2 38.1 3 C 38.6 2.9 39.2 2.8 39.8 2.8 C 40.4 2.8 40.9 2.8 41.3 3 C 41.7 3.1 42 3.3 42.2 3.5 C 42.3 3.8 42.5 4 42.5 4.4 C 42.6 4.6 42.6 5 42.6 5.5 C 42.6 5.5 42.6 7.2 42.6 7.2 C 42.6 8.3 42.6 9 42.7 9.3 C 42.7 9.6 42.8 9.9 43 10.2 C 42.99 10.19 41.7 10.2 41.7 10.2 C 41.7 10.2 41.71 10.19 41.7 10.2 Z M 41.4 6.5 C 40.9 6.7 40.2 6.9 39.3 7 C 38.8 7.1 38.5 7.2 38.3 7.3 C 38.1 7.4 37.9 7.5 37.8 7.7 C 37.7 7.8 37.6 8 37.6 8.2 C 37.6 8.6 37.7 8.8 38 9.1 C 38.2 9.3 38.6 9.4 39.1 9.4 C 39.6 9.4 40 9.3 40.3 9.1 C 40.7 8.9 41 8.6 41.2 8.2 C 41.3 8 41.4 7.5 41.4 7 C 41.4 7 41.4 6.5 41.4 6.5 Z M 44.5 10.2 L 44.5 2.9 L 45.6 2.9 C 45.6 2.9 45.6 4.03 45.6 4 C 45.9 3.5 46.1 3.2 46.4 3 C 46.6 2.9 46.9 2.8 47.2 2.8 C 47.6 2.8 48 2.9 48.4 3.2 C 48.4 3.2 48 4.3 48 4.3 C 47.7 4.1 47.4 4 47.1 4 C 46.8 4 46.6 4.1 46.4 4.3 C 46.2 4.4 46 4.7 45.9 5 C 45.8 5.4 45.7 5.9 45.7 6.4 C 45.73 6.39 45.7 10.2 45.7 10.2 L 44.5 10.2 Z M 49.2 10.2 L 49.2 2.9 L 50.3 2.9 C 50.3 2.9 50.28 3.96 50.3 4 C 50.8 3.2 51.6 2.8 52.6 2.8 C 53 2.8 53.4 2.8 53.8 3 C 54.2 3.2 54.4 3.4 54.6 3.6 C 54.8 3.9 54.9 4.2 55 4.5 C 55 4.8 55.1 5.2 55.1 5.7 C 55.07 5.73 55.1 10.2 55.1 10.2 L 53.8 10.2 C 53.8 10.2 53.84 5.78 53.8 5.8 C 53.8 5.3 53.8 4.9 53.7 4.7 C 53.6 4.4 53.4 4.2 53.2 4.1 C 52.9 3.9 52.7 3.8 52.3 3.8 C 51.8 3.8 51.4 4 51 4.3 C 50.6 4.7 50.4 5.3 50.4 6.2 C 50.4 6.23 50.4 10.2 50.4 10.2 L 49.2 10.2 Z M 57 1.6 L 57 0.2 L 58.2 0.2 L 58.2 1.6 L 57 1.6 Z M 57 10.2 L 57 2.9 L 58.2 2.9 L 58.2 10.2 L 57 10.2 Z M 60.1 10.2 L 60.1 2.9 L 61.2 2.9 C 61.2 2.9 61.17 3.96 61.2 4 C 61.7 3.2 62.5 2.8 63.5 2.8 C 63.9 2.8 64.3 2.8 64.7 3 C 65.1 3.2 65.3 3.4 65.5 3.6 C 65.7 3.9 65.8 4.2 65.9 4.5 C 65.9 4.8 66 5.2 66 5.7 C 65.97 5.73 66 10.2 66 10.2 L 64.7 10.2 C 64.7 10.2 64.74 5.78 64.7 5.8 C 64.7 5.3 64.7 4.9 64.6 4.7 C 64.5 4.4 64.3 4.2 64.1 4.1 C 63.8 3.9 63.6 3.8 63.2 3.8 C 62.7 3.8 62.2 4 61.9 4.3 C 61.5 4.7 61.3 5.3 61.3 6.2 C 61.3 6.23 61.3 10.2 61.3 10.2 L 60.1 10.2 Z M 67.6 10.8 C 67.6 10.8 68.8 11 68.8 11 C 68.9 11.3 69 11.6 69.2 11.8 C 69.5 12 70 12.1 70.5 12.1 C 71.1 12.1 71.5 12 71.8 11.8 C 72.1 11.6 72.3 11.2 72.4 10.8 C 72.5 10.6 72.5 10 72.5 9.2 C 72 9.9 71.3 10.2 70.5 10.2 C 69.5 10.2 68.7 9.8 68.2 9.1 C 67.7 8.4 67.4 7.5 67.4 6.5 C 67.4 5.8 67.5 5.2 67.8 4.6 C 68 4 68.4 3.6 68.8 3.2 C 69.3 2.9 69.9 2.8 70.5 2.8 C 71.4 2.8 72.1 3.1 72.6 3.8 C 72.65 3.81 72.6 2.9 72.6 2.9 L 73.8 2.9 C 73.8 2.9 73.78 9.21 73.8 9.2 C 73.8 10.3 73.7 11.1 73.4 11.6 C 73.2 12.1 72.8 12.5 72.3 12.7 C 71.8 13 71.2 13.1 70.5 13.1 C 69.6 13.1 68.9 12.9 68.4 12.6 C 67.9 12.2 67.6 11.6 67.6 10.8 Z M 68.6 6.4 C 68.6 7.4 68.8 8.1 69.2 8.5 C 69.6 9 70.1 9.2 70.6 9.2 C 71.2 9.2 71.7 9 72.1 8.5 C 72.4 8.1 72.6 7.4 72.6 6.5 C 72.6 5.6 72.4 4.9 72 4.5 C 71.6 4 71.2 3.8 70.6 3.8 C 70.1 3.8 69.6 4 69.2 4.5 C 68.8 4.9 68.6 5.6 68.6 6.4 Z M 86.8 10.4 C 86.3 10.1 85.8 9.6 85.3 9 C 84.9 9.5 84.4 9.8 83.9 10 C 83.5 10.3 82.9 10.4 82.4 10.4 C 81.4 10.4 80.5 10 79.9 9.3 C 79.5 8.8 79.2 8.1 79.2 7.4 C 79.2 6.8 79.4 6.3 79.8 5.8 C 80.2 5.3 80.8 4.8 81.6 4.4 C 81.1 3.9 80.8 3.5 80.7 3.2 C 80.5 2.8 80.5 2.5 80.5 2.2 C 80.5 1.6 80.7 1.1 81.2 0.7 C 81.6 0.2 82.2 0 83 0 C 83.6 0 84.2 0.2 84.6 0.6 C 85.1 1 85.3 1.6 85.3 2.1 C 85.3 3.1 84.7 3.9 83.4 4.6 C 83.4 4.6 85.2 6.9 85.2 6.9 C 85.4 6.5 85.6 6 85.7 5.5 C 85.7 5.5 86.9 5.7 86.9 5.7 C 86.7 6.6 86.4 7.3 86.1 7.9 C 86.5 8.5 87 9 87.6 9.4 C 87.62 9.45 86.8 10.4 86.8 10.4 C 86.8 10.4 86.8 10.42 86.8 10.4 Z M 82.8 3.8 C 83.3 3.5 83.6 3.2 83.8 3 C 83.9 2.7 84 2.5 84 2.2 C 84 1.8 83.9 1.6 83.7 1.3 C 83.5 1.1 83.2 1 82.9 1 C 82.6 1 82.3 1.1 82.1 1.3 C 81.8 1.5 81.7 1.8 81.7 2.1 C 81.7 2.3 81.8 2.4 81.9 2.6 C 81.9 2.8 82 3 82.2 3.2 C 82.2 3.2 82.8 3.8 82.8 3.8 Z M 84.5 8 C 84.5 8 82.2 5.2 82.2 5.2 C 81.6 5.6 81.1 6 80.9 6.3 C 80.7 6.7 80.5 7 80.5 7.4 C 80.5 7.8 80.7 8.2 81 8.6 C 81.3 9.1 81.8 9.3 82.4 9.3 C 82.8 9.3 83.1 9.2 83.5 8.9 C 83.9 8.7 84.2 8.4 84.5 8 Z M 92.9 10.2 L 92.9 0.2 C 92.9 0.2 96.37 0.17 96.4 0.2 C 97.1 0.2 97.7 0.2 98.2 0.3 C 98.7 0.4 99.2 0.7 99.6 1 C 100.1 1.5 100.5 2 100.8 2.7 C 101.1 3.4 101.2 4.2 101.2 5.1 C 101.2 5.9 101.1 6.6 100.9 7.2 C 100.8 7.7 100.5 8.2 100.2 8.6 C 100 9 99.7 9.3 99.3 9.5 C 99 9.7 98.6 9.9 98.1 10 C 97.7 10.1 97.1 10.2 96.5 10.2 C 96.53 10.19 92.9 10.2 92.9 10.2 Z M 94.2 9 C 94.2 9 96.38 9.01 96.4 9 C 97 9 97.6 8.9 97.9 8.8 C 98.3 8.7 98.6 8.5 98.8 8.3 C 99.1 8 99.4 7.6 99.6 7 C 99.7 6.5 99.8 5.9 99.8 5.1 C 99.8 4.1 99.7 3.3 99.3 2.7 C 99 2.1 98.6 1.8 98.1 1.6 C 97.7 1.4 97.1 1.4 96.3 1.4 C 96.35 1.35 94.2 1.4 94.2 1.4 L 94.2 9 Z M 107.8 7.9 C 107.8 7.9 109.1 8 109.1 8 C 108.9 8.8 108.5 9.3 108 9.7 C 107.5 10.2 106.8 10.4 105.9 10.4 C 104.9 10.4 104 10 103.4 9.4 C 102.8 8.7 102.5 7.8 102.5 6.6 C 102.5 5.4 102.8 4.5 103.4 3.8 C 104 3.1 104.8 2.8 105.8 2.8 C 106.8 2.8 107.6 3.1 108.2 3.8 C 108.8 4.4 109.1 5.4 109.1 6.5 C 109.1 6.6 109.1 6.7 109.1 6.9 C 109.1 6.9 103.7 6.9 103.7 6.9 C 103.8 7.7 104 8.3 104.4 8.7 C 104.8 9.1 105.3 9.3 105.9 9.3 C 106.4 9.3 106.8 9.2 107.1 9 C 107.4 8.8 107.6 8.4 107.8 7.9 Z M 103.8 5.9 C 103.8 5.9 107.9 5.9 107.9 5.9 C 107.8 5.3 107.6 4.8 107.4 4.5 C 107 4 106.5 3.8 105.9 3.8 C 105.3 3.8 104.8 4 104.4 4.3 C 104.1 4.7 103.8 5.2 103.8 5.9 Z M 112.7 10.2 L 109.9 2.9 L 111.2 2.9 C 111.2 2.9 112.77 7.28 112.8 7.3 C 112.9 7.7 113.1 8.2 113.2 8.7 C 113.3 8.4 113.5 7.9 113.7 7.4 C 113.69 7.36 115.3 2.9 115.3 2.9 L 116.6 2.9 L 113.8 10.2 L 112.7 10.2 Z M 122.6 7.9 C 122.6 7.9 123.9 8 123.9 8 C 123.7 8.8 123.3 9.3 122.8 9.7 C 122.2 10.2 121.5 10.4 120.7 10.4 C 119.6 10.4 118.8 10 118.2 9.4 C 117.6 8.7 117.2 7.8 117.2 6.6 C 117.2 5.4 117.6 4.5 118.2 3.8 C 118.8 3.1 119.6 2.8 120.6 2.8 C 121.6 2.8 122.4 3.1 123 3.8 C 123.6 4.4 123.9 5.4 123.9 6.5 C 123.9 6.6 123.9 6.7 123.9 6.9 C 123.9 6.9 118.5 6.9 118.5 6.9 C 118.6 7.7 118.8 8.3 119.2 8.7 C 119.6 9.1 120.1 9.3 120.7 9.3 C 121.2 9.3 121.5 9.2 121.9 9 C 122.2 8.8 122.4 8.4 122.6 7.9 Z M 118.6 5.9 C 118.6 5.9 122.6 5.9 122.6 5.9 C 122.6 5.3 122.4 4.8 122.2 4.5 C 121.8 4 121.3 3.8 120.6 3.8 C 120.1 3.8 119.6 4 119.2 4.3 C 118.8 4.7 118.6 5.2 118.6 5.9 Z M 125.4 10.2 L 125.4 0.2 L 126.6 0.2 L 126.6 10.2 L 125.4 10.2 Z M 128.1 6.6 C 128.1 5.2 128.5 4.2 129.2 3.6 C 129.8 3 130.6 2.8 131.5 2.8 C 132.5 2.8 133.3 3.1 133.9 3.7 C 134.6 4.4 134.9 5.3 134.9 6.5 C 134.9 7.4 134.8 8.1 134.5 8.7 C 134.2 9.2 133.8 9.6 133.2 9.9 C 132.7 10.2 132.1 10.4 131.5 10.4 C 130.5 10.4 129.7 10 129 9.4 C 128.4 8.7 128.1 7.8 128.1 6.6 Z M 129.4 6.6 C 129.4 7.5 129.6 8.2 130 8.7 C 130.4 9.1 130.9 9.3 131.5 9.3 C 132.1 9.3 132.6 9.1 133 8.6 C 133.4 8.2 133.6 7.5 133.6 6.5 C 133.6 5.6 133.4 4.9 133 4.5 C 132.6 4 132.1 3.8 131.5 3.8 C 130.9 3.8 130.4 4 130 4.5 C 129.6 4.9 129.4 5.6 129.4 6.6 Z M 136.3 13 L 136.3 2.9 L 137.5 2.9 C 137.5 2.9 137.46 3.88 137.5 3.9 C 137.7 3.5 138 3.2 138.4 3 C 138.7 2.9 139.1 2.8 139.6 2.8 C 140.2 2.8 140.7 2.9 141.2 3.2 C 141.7 3.6 142 4 142.3 4.6 C 142.5 5.2 142.6 5.8 142.6 6.5 C 142.6 7.3 142.5 7.9 142.2 8.5 C 142 9.1 141.6 9.6 141.1 9.9 C 140.6 10.2 140 10.4 139.5 10.4 C 139.1 10.4 138.7 10.3 138.4 10.1 C 138 9.9 137.8 9.7 137.6 9.4 C 137.57 9.44 137.6 13 137.6 13 L 136.3 13 Z M 137.5 6.6 C 137.5 7.5 137.6 8.2 138 8.7 C 138.4 9.1 138.9 9.3 139.4 9.3 C 139.9 9.3 140.4 9.1 140.8 8.7 C 141.2 8.2 141.4 7.5 141.4 6.5 C 141.4 5.6 141.2 4.9 140.8 4.4 C 140.4 4 140 3.7 139.4 3.7 C 138.9 3.7 138.5 4 138.1 4.5 C 137.7 5 137.5 5.7 137.5 6.6 Z M 144.1 10.2 L 144.1 2.9 L 145.2 2.9 C 145.2 2.9 145.22 3.95 145.2 4 C 145.5 3.6 145.8 3.3 146.1 3.1 C 146.5 2.9 146.9 2.8 147.4 2.8 C 148 2.8 148.4 2.9 148.7 3.1 C 149.1 3.3 149.3 3.6 149.5 4 C 150 3.2 150.8 2.8 151.7 2.8 C 152.4 2.8 153 3 153.4 3.4 C 153.8 3.8 154 4.4 154 5.2 C 153.96 5.21 154 10.2 154 10.2 L 152.7 10.2 C 152.7 10.2 152.74 5.62 152.7 5.6 C 152.7 5.1 152.7 4.8 152.6 4.6 C 152.5 4.3 152.4 4.2 152.2 4 C 152 3.9 151.7 3.8 151.4 3.8 C 150.9 3.8 150.5 4 150.2 4.3 C 149.8 4.7 149.7 5.2 149.7 6 C 149.67 5.97 149.7 10.2 149.7 10.2 L 148.4 10.2 C 148.4 10.2 148.44 5.48 148.4 5.5 C 148.4 4.9 148.3 4.5 148.1 4.2 C 147.9 4 147.6 3.8 147.2 3.8 C 146.8 3.8 146.5 3.9 146.2 4.1 C 145.9 4.3 145.7 4.6 145.6 4.9 C 145.4 5.3 145.4 5.8 145.4 6.4 C 145.35 6.43 145.4 10.2 145.4 10.2 L 144.1 10.2 Z M 160.8 7.9 C 160.8 7.9 162 8 162 8 C 161.8 8.8 161.5 9.3 160.9 9.7 C 160.4 10.2 159.7 10.4 158.8 10.4 C 157.8 10.4 156.9 10 156.3 9.4 C 155.7 8.7 155.4 7.8 155.4 6.6 C 155.4 5.4 155.7 4.5 156.3 3.8 C 156.9 3.1 157.8 2.8 158.8 2.8 C 159.7 2.8 160.5 3.1 161.1 3.8 C 161.8 4.4 162.1 5.4 162.1 6.5 C 162.1 6.6 162.1 6.7 162.1 6.9 C 162.1 6.9 156.6 6.9 156.6 6.9 C 156.7 7.7 156.9 8.3 157.3 8.7 C 157.7 9.1 158.2 9.3 158.8 9.3 C 159.3 9.3 159.7 9.2 160 9 C 160.3 8.8 160.6 8.4 160.8 7.9 Z M 156.7 5.9 C 156.7 5.9 160.8 5.9 160.8 5.9 C 160.7 5.3 160.6 4.8 160.3 4.5 C 159.9 4 159.4 3.8 158.8 3.8 C 158.2 3.8 157.7 4 157.4 4.3 C 157 4.7 156.8 5.2 156.7 5.9 Z M 163.6 10.2 L 163.6 2.9 L 164.7 2.9 C 164.7 2.9 164.68 3.96 164.7 4 C 165.2 3.2 166 2.8 167 2.8 C 167.4 2.8 167.8 2.8 168.2 3 C 168.6 3.2 168.8 3.4 169 3.6 C 169.2 3.9 169.3 4.2 169.4 4.5 C 169.4 4.8 169.5 5.2 169.5 5.7 C 169.47 5.73 169.5 10.2 169.5 10.2 L 168.2 10.2 C 168.2 10.2 168.24 5.78 168.2 5.8 C 168.2 5.3 168.2 4.9 168.1 4.7 C 168 4.4 167.8 4.2 167.6 4.1 C 167.3 3.9 167.1 3.8 166.7 3.8 C 166.2 3.8 165.8 4 165.4 4.3 C 165 4.7 164.8 5.3 164.8 6.2 C 164.8 6.23 164.8 10.2 164.8 10.2 L 163.6 10.2 Z M 173.5 9.1 C 173.6 9.1 173.8 9.1 174 9.1 C 174 9.1 174.2 10.2 174.2 10.2 C 173.9 10.3 173.6 10.3 173.3 10.3 C 172.8 10.3 172.5 10.2 172.3 10.1 C 172 9.9 171.8 9.7 171.7 9.5 C 171.6 9.3 171.6 8.8 171.6 8.1 C 171.58 8.07 171.6 3.9 171.6 3.9 L 170.7 3.9 L 170.7 2.9 L 171.6 2.9 L 171.6 1.1 L 172.8 0.4 L 172.8 2.9 L 174 2.9 L 174 3.9 L 172.8 3.9 C 172.8 3.9 172.81 8.13 172.8 8.1 C 172.8 8.5 172.8 8.7 172.9 8.8 C 172.9 8.9 173 9 173.1 9.1 C 173.2 9.1 173.3 9.1 173.5 9.1 C 173.5 9.1 173.5 9.1 173.5 9.1 Z M 179.3 10.2 L 179.3 0.2 C 179.3 0.2 183.07 0.17 183.1 0.2 C 183.7 0.2 184.2 0.2 184.6 0.3 C 185.1 0.3 185.5 0.5 185.8 0.7 C 186.2 1 186.4 1.3 186.6 1.7 C 186.8 2.1 186.9 2.6 186.9 3.1 C 186.9 3.9 186.7 4.6 186.1 5.2 C 185.6 5.8 184.6 6.1 183.2 6.1 C 183.19 6.12 180.6 6.1 180.6 6.1 L 180.6 10.2 L 179.3 10.2 Z M 180.6 4.9 C 180.6 4.9 183.21 4.94 183.2 4.9 C 184.1 4.9 184.7 4.8 185 4.5 C 185.4 4.1 185.6 3.7 185.6 3.1 C 185.6 2.7 185.5 2.3 185.3 2 C 185 1.7 184.8 1.5 184.4 1.4 C 184.2 1.4 183.8 1.4 183.2 1.4 C 183.18 1.35 180.6 1.4 180.6 1.4 L 180.6 4.9 Z M 188.5 10.2 L 188.5 2.9 L 189.6 2.9 C 189.6 2.9 189.57 4.03 189.6 4 C 189.8 3.5 190.1 3.2 190.4 3 C 190.6 2.9 190.9 2.8 191.1 2.8 C 191.6 2.8 192 2.9 192.4 3.2 C 192.4 3.2 192 4.3 192 4.3 C 191.7 4.1 191.4 4 191.1 4 C 190.8 4 190.6 4.1 190.4 4.3 C 190.1 4.4 190 4.7 189.9 5 C 189.8 5.4 189.7 5.9 189.7 6.4 C 189.69 6.39 189.7 10.2 189.7 10.2 L 188.5 10.2 Z M 198.1 10.2 C 198 9.9 197.9 9.6 197.9 9.3 C 197.4 9.7 197 10 196.6 10.1 C 196.1 10.3 195.7 10.4 195.2 10.4 C 194.4 10.4 193.8 10.2 193.4 9.8 C 192.9 9.4 192.7 8.9 192.7 8.3 C 192.7 7.9 192.8 7.6 193 7.3 C 193.1 7 193.3 6.8 193.6 6.6 C 193.9 6.4 194.2 6.3 194.5 6.2 C 194.7 6.1 195.1 6.1 195.6 6 C 196.6 5.9 197.3 5.7 197.8 5.6 C 197.8 5.4 197.8 5.3 197.8 5.3 C 197.8 4.8 197.7 4.4 197.4 4.2 C 197.1 3.9 196.6 3.8 196 3.8 C 195.4 3.8 195 3.9 194.7 4.1 C 194.5 4.3 194.3 4.7 194.1 5.2 C 194.1 5.2 192.9 5 192.9 5 C 193 4.5 193.2 4.1 193.5 3.8 C 193.7 3.4 194.1 3.2 194.6 3 C 195 2.9 195.6 2.8 196.2 2.8 C 196.8 2.8 197.3 2.8 197.7 3 C 198.1 3.1 198.4 3.3 198.6 3.5 C 198.8 3.8 198.9 4 199 4.4 C 199 4.6 199 5 199 5.5 C 199 5.5 199 7.2 199 7.2 C 199 8.3 199 9 199.1 9.3 C 199.1 9.6 199.2 9.9 199.4 10.2 C 199.4 10.19 198.1 10.2 198.1 10.2 C 198.1 10.2 198.12 10.19 198.1 10.2 Z M 197.8 6.5 C 197.3 6.7 196.7 6.9 195.8 7 C 195.3 7.1 194.9 7.2 194.7 7.3 C 194.5 7.4 194.3 7.5 194.2 7.7 C 194.1 7.8 194 8 194 8.2 C 194 8.6 194.2 8.8 194.4 9.1 C 194.7 9.3 195 9.4 195.5 9.4 C 196 9.4 196.4 9.3 196.8 9.1 C 197.1 8.9 197.4 8.6 197.6 8.2 C 197.7 8 197.8 7.5 197.8 7 C 197.8 7 197.8 6.5 197.8 6.5 Z M 205.7 7.5 C 205.7 7.5 206.9 7.7 206.9 7.7 C 206.7 8.5 206.4 9.2 205.9 9.6 C 205.3 10.1 204.6 10.4 203.8 10.4 C 202.9 10.4 202.1 10 201.5 9.4 C 200.8 8.7 200.5 7.8 200.5 6.6 C 200.5 5.8 200.7 5.1 200.9 4.5 C 201.2 3.9 201.6 3.5 202.1 3.2 C 202.7 2.9 203.2 2.8 203.9 2.8 C 204.6 2.8 205.3 3 205.8 3.4 C 206.3 3.8 206.6 4.3 206.8 5.1 C 206.8 5.1 205.6 5.3 205.6 5.3 C 205.4 4.8 205.2 4.4 205 4.1 C 204.7 3.9 204.3 3.8 203.9 3.8 C 203.3 3.8 202.8 4 202.4 4.4 C 202 4.9 201.8 5.6 201.8 6.6 C 201.8 7.5 202 8.2 202.4 8.7 C 202.7 9.1 203.2 9.3 203.8 9.3 C 204.3 9.3 204.7 9.2 205 8.9 C 205.4 8.6 205.6 8.1 205.7 7.5 Z M 210.1 9.1 C 210.2 9.1 210.4 9.1 210.6 9.1 C 210.6 9.1 210.8 10.2 210.8 10.2 C 210.4 10.3 210.1 10.3 209.9 10.3 C 209.4 10.3 209.1 10.2 208.8 10.1 C 208.6 9.9 208.4 9.7 208.3 9.5 C 208.2 9.3 208.1 8.8 208.1 8.1 C 208.15 8.07 208.1 3.9 208.1 3.9 L 207.2 3.9 L 207.2 2.9 L 208.1 2.9 L 208.1 1.1 L 209.4 0.4 L 209.4 2.9 L 210.6 2.9 L 210.6 3.9 L 209.4 3.9 C 209.4 3.9 209.37 8.13 209.4 8.1 C 209.4 8.5 209.4 8.7 209.4 8.8 C 209.5 8.9 209.5 9 209.6 9.1 C 209.7 9.1 209.9 9.1 210.1 9.1 C 210.1 9.1 210.1 9.1 210.1 9.1 Z M 211.8 1.6 L 211.8 0.2 L 213 0.2 L 213 1.6 L 211.8 1.6 Z M 211.8 10.2 L 211.8 2.9 L 213 2.9 L 213 10.2 L 211.8 10.2 Z M 217.1 9.1 C 217.2 9.1 217.4 9.1 217.6 9.1 C 217.6 9.1 217.8 10.2 217.8 10.2 C 217.4 10.3 217.1 10.3 216.9 10.3 C 216.4 10.3 216.1 10.2 215.8 10.1 C 215.6 9.9 215.4 9.7 215.3 9.5 C 215.2 9.3 215.1 8.8 215.1 8.1 C 215.15 8.07 215.1 3.9 215.1 3.9 L 214.2 3.9 L 214.2 2.9 L 215.1 2.9 L 215.1 1.1 L 216.4 0.4 L 216.4 2.9 L 217.6 2.9 L 217.6 3.9 L 216.4 3.9 C 216.4 3.9 216.37 8.13 216.4 8.1 C 216.4 8.5 216.4 8.7 216.4 8.8 C 216.5 8.9 216.5 9 216.6 9.1 C 216.7 9.1 216.9 9.1 217.1 9.1 C 217.1 9.1 217.1 9.1 217.1 9.1 Z M 218.8 1.6 L 218.8 0.2 L 220 0.2 L 220 1.6 L 218.8 1.6 Z M 218.8 10.2 L 218.8 2.9 L 220 2.9 L 220 10.2 L 218.8 10.2 Z M 221.5 6.6 C 221.5 5.2 221.8 4.2 222.6 3.6 C 223.2 3 224 2.8 224.9 2.8 C 225.9 2.8 226.7 3.1 227.3 3.7 C 227.9 4.4 228.3 5.3 228.3 6.5 C 228.3 7.4 228.1 8.1 227.8 8.7 C 227.6 9.2 227.2 9.6 226.6 9.9 C 226.1 10.2 225.5 10.4 224.9 10.4 C 223.9 10.4 223 10 222.4 9.4 C 221.8 8.7 221.5 7.8 221.5 6.6 Z M 222.7 6.6 C 222.7 7.5 222.9 8.2 223.3 8.7 C 223.7 9.1 224.3 9.3 224.9 9.3 C 225.5 9.3 226 9.1 226.4 8.6 C 226.8 8.2 227 7.5 227 6.5 C 227 5.6 226.8 4.9 226.4 4.5 C 226 4 225.5 3.8 224.9 3.8 C 224.3 3.8 223.7 4 223.3 4.5 C 222.9 4.9 222.7 5.6 222.7 6.6 Z M 229.7 10.2 L 229.7 2.9 L 230.8 2.9 C 230.8 2.9 230.82 3.96 230.8 4 C 231.3 3.2 232.1 2.8 233.1 2.8 C 233.6 2.8 234 2.8 234.3 3 C 234.7 3.2 235 3.4 235.2 3.6 C 235.3 3.9 235.5 4.2 235.5 4.5 C 235.6 4.8 235.6 5.2 235.6 5.7 C 235.61 5.73 235.6 10.2 235.6 10.2 L 234.4 10.2 C 234.4 10.2 234.38 5.78 234.4 5.8 C 234.4 5.3 234.3 4.9 234.2 4.7 C 234.1 4.4 234 4.2 233.7 4.1 C 233.5 3.9 233.2 3.8 232.9 3.8 C 232.3 3.8 231.9 4 231.5 4.3 C 231.1 4.7 230.9 5.3 230.9 6.2 C 230.94 6.23 230.9 10.2 230.9 10.2 L 229.7 10.2 Z M 242.5 7.9 C 242.5 7.9 243.7 8 243.7 8 C 243.5 8.8 243.2 9.3 242.6 9.7 C 242.1 10.2 241.4 10.4 240.5 10.4 C 239.5 10.4 238.6 10 238 9.4 C 237.4 8.7 237.1 7.8 237.1 6.6 C 237.1 5.4 237.4 4.5 238 3.8 C 238.7 3.1 239.5 2.8 240.5 2.8 C 241.4 2.8 242.2 3.1 242.9 3.8 C 243.5 4.4 243.8 5.4 243.8 6.5 C 243.8 6.6 243.8 6.7 243.8 6.9 C 243.8 6.9 238.4 6.9 238.4 6.9 C 238.4 7.7 238.6 8.3 239 8.7 C 239.4 9.1 239.9 9.3 240.5 9.3 C 241 9.3 241.4 9.2 241.7 9 C 242 8.8 242.3 8.4 242.5 7.9 Z M 238.4 5.9 C 238.4 5.9 242.5 5.9 242.5 5.9 C 242.4 5.3 242.3 4.8 242 4.5 C 241.6 4 241.1 3.8 240.5 3.8 C 239.9 3.8 239.4 4 239.1 4.3 C 238.7 4.7 238.5 5.2 238.4 5.9 Z M 245.3 10.2 L 245.3 2.9 L 246.4 2.9 C 246.4 2.9 246.37 4.03 246.4 4 C 246.7 3.5 246.9 3.2 247.2 3 C 247.4 2.9 247.7 2.8 247.9 2.8 C 248.4 2.8 248.8 2.9 249.2 3.2 C 249.2 3.2 248.8 4.3 248.8 4.3 C 248.5 4.1 248.2 4 247.9 4 C 247.6 4 247.4 4.1 247.2 4.3 C 246.9 4.4 246.8 4.7 246.7 5 C 246.6 5.4 246.5 5.9 246.5 6.4 C 246.5 6.39 246.5 10.2 246.5 10.2 L 245.3 10.2 Z " stroke="none" fill="#000000"/>  </g></svg>