<?xml version="1.0" standalone="no"?><!DOCTYPE svg PUBLIC "-//W3C//DTD SVG 1.1//EN" "http://www.w3.org/Graphics/SVG/1.1/DTD/svg11.dtd"><svg xmlns="http://www.w3.org/2000/svg" version="1.1" width="82px" height="124.5px" viewBox="0 -11 82 124.5" style="top:-11px">  <desc>NPS 85</desc>  <defs/>  <g id="Polygon145396">    <path d="M 2.6 65.5 C 2.6 60.5 6.8 56.9 11.6 56.9 C 16.7 56.9 20.6 60.7 20.6 65.5 C 20.6 68.4 19.2 70.9 16.2 72.6 C 19.3 74.1 21.1 76.7 21.1 80.2 C 21.1 85.4 17.1 89.1 11.5 89.1 C 5.7 89.1 1.9 84.9 1.9 80.2 C 1.9 77 3.5 74.1 6.9 72.6 C 3.7 70.6 2.6 68.2 2.6 65.5 Z M 11.6 71 C 14.5 71 17.2 68.9 17.2 65.6 C 17.2 62.5 14.9 60.2 11.5 60.2 C 8.5 60.2 6 62.4 6 65.5 C 6 68.9 8.7 71 11.6 71 Z M 11.5 85.8 C 15.2 85.8 17.6 83.4 17.6 80 C 17.6 76.8 15.2 74.4 11.4 74.4 C 7.8 74.4 5.4 76.9 5.4 80 C 5.4 83.4 7.9 85.8 11.5 85.8 Z M 41.4 57.4 L 41.4 60.4 L 31 60.4 C 31 60.4 30.96 69.37 31 69.4 C 31.6 69.3 32.1 69.3 32.6 69.3 C 38.9 69.3 43.1 73.3 43.1 79.1 C 43.1 85 38.9 89.1 32.8 89.1 C 30 89.1 27.7 88.5 25.3 87.3 C 25.3 87.3 25.3 83.7 25.3 83.7 C 27.6 85.1 29.9 85.8 32.2 85.8 C 36.6 85.8 39.6 82.9 39.6 79.1 C 39.6 74.2 34.9 72.4 31.7 72.4 C 30.5 72.4 28.6 72.5 27.8 72.8 C 27.78 72.82 27.8 57.4 27.8 57.4 L 41.4 57.4 Z " stroke="none" fill="#fff"/>  </g>  <g id="Polygon145395">    <path d="M 6.4 2.2 L 28.6 28.1 L 28.6 2.2 L 31.9 2.2 L 31.9 33.5 L 28.9 33.5 L 6.9 7.7 L 6.9 33.5 L 3.5 33.5 L 3.5 2.2 L 6.4 2.2 Z M 47.9 2.2 C 54.1 2.2 58 5.3 58 10.8 C 58 16.7 54 19.4 47.3 19.4 C 47.29 19.41 42.4 19.4 42.4 19.4 L 42.4 33.5 L 39 33.5 L 39 2.2 C 39 2.2 47.89 2.16 47.9 2.2 Z M 42.4 16.4 C 42.4 16.4 47.2 16.38 47.2 16.4 C 52.5 16.4 54.4 14.3 54.4 10.7 C 54.4 7.2 52.3 5.2 47.2 5.2 C 47.2 5.2 42.4 5.2 42.4 5.2 L 42.4 16.4 Z M 77.4 3.8 C 77.4 3.8 77.4 7.7 77.4 7.7 C 75.2 5.8 72.9 4.9 70.3 4.9 C 67 4.9 64.8 6.7 64.8 9.4 C 64.8 11.5 65.3 13.3 70.5 15.9 C 77 19.3 78.6 21.5 78.6 25.8 C 78.6 30.5 75 33.9 69.6 33.9 C 66.6 33.9 63.8 33 61.5 31.2 C 61.5 31.2 61.5 26.9 61.5 26.9 C 63.8 29.4 66.6 30.9 69.6 30.9 C 72.8 30.9 75.1 28.9 75.1 25.9 C 75.1 23.2 74.2 21.6 68.1 18.4 C 63.2 15.9 61.3 13.5 61.3 9.5 C 61.3 5.1 65.1 1.7 70.4 1.7 C 72.8 1.7 75.3 2.4 77.4 3.8 Z " stroke="none" fill="#fff"/>  </g></svg>