<?xml version="1.0" standalone="no"?><!DOCTYPE svg PUBLIC "-//W3C//DTD SVG 1.1//EN" "http://www.w3.org/Graphics/SVG/1.1/DTD/svg11.dtd"><svg xmlns="http://www.w3.org/2000/svg" version="1.1" width="19.5px" height="23.9px" viewBox="0 -5 19.5 23.9" style="top:-5px">  <desc>4.6</desc>  <defs/>  <g id="Polygon139116">    <path d="M 4.4 10.2 L 4.4 8.2 L 0.3 8.2 L 0.3 6.5 L 4.6 0.1 L 6.2 0.1 L 6.2 6.5 L 7.5 6.5 L 7.5 8.2 L 6.2 8.2 L 6.2 10.2 L 4.4 10.2 Z M 4.4 6.5 L 4.4 3.1 L 2.1 6.5 L 4.4 6.5 Z M 8.8 10.2 L 8.8 8.3 L 10.7 8.3 L 10.7 10.2 L 8.8 10.2 Z M 18.8 2.6 C 18.8 2.6 16.9 2.8 16.9 2.8 C 16.9 2.4 16.8 2.2 16.6 2 C 16.4 1.8 16.1 1.7 15.8 1.7 C 15.4 1.7 15.1 1.9 14.8 2.3 C 14.5 2.6 14.3 3.4 14.3 4.5 C 14.7 4 15.3 3.7 16 3.7 C 16.8 3.7 17.5 4 18.1 4.6 C 18.7 5.2 19 6 19 7 C 19 8 18.7 8.8 18.1 9.4 C 17.5 10.1 16.7 10.4 15.7 10.4 C 14.7 10.4 13.9 10 13.2 9.2 C 12.6 8.4 12.3 7.1 12.3 5.3 C 12.3 3.5 12.6 2.2 13.3 1.3 C 14 0.5 14.8 0.1 15.9 0.1 C 16.7 0.1 17.3 0.3 17.8 0.8 C 18.3 1.2 18.6 1.8 18.8 2.6 Z M 14.4 6.8 C 14.4 7.4 14.6 7.9 14.9 8.3 C 15.1 8.6 15.5 8.8 15.8 8.8 C 16.2 8.8 16.5 8.6 16.7 8.4 C 17 8.1 17.1 7.6 17.1 7 C 17.1 6.3 17 5.9 16.7 5.6 C 16.4 5.3 16.1 5.1 15.7 5.1 C 15.4 5.1 15.1 5.2 14.8 5.5 C 14.6 5.8 14.4 6.3 14.4 6.8 Z " stroke="none" fill="#ffffff"/>  </g></svg>