<?xml version="1.0" standalone="no"?><!DOCTYPE svg PUBLIC "-//W3C//DTD SVG 1.1//EN" "http://www.w3.org/Graphics/SVG/1.1/DTD/svg11.dtd"><svg xmlns="http://www.w3.org/2000/svg" version="1.1" width="46.4px" height="64.1px" viewBox="0 -11 46.4 64.1" style="top:-11px">  <desc>85</desc>  <defs/>  <g id="Polygon140150">    <path d="M 11.6 13.7 C 13.4 13.7 15 12.1 15 9.9 C 15 7.9 13.8 6 11.7 6 C 9.3 6 8.3 8 8.3 9.8 C 8.3 12.1 9.9 13.7 11.6 13.7 Z M 11.6 26 C 13.9 26 15.7 24.2 15.7 21.7 C 15.7 19.3 13.8 17.5 11.6 17.5 C 9.3 17.5 7.5 19.3 7.5 21.8 C 7.5 24.3 9.3 26 11.6 26 Z M 21.1 9.4 C 21.1 11.9 20.1 13.9 17.5 15.5 C 20.3 17 21.9 19.6 21.9 22.3 C 21.9 25.6 19.4 30.3 11.6 30.3 C 3.9 30.3 1.4 25.7 1.4 22.3 C 1.4 19.6 2.8 17 5.7 15.5 C 3.1 13.7 2.2 11.9 2.2 9.5 C 2.2 5.9 5 1.6 11.6 1.6 C 18.3 1.6 21.1 5.8 21.1 9.4 Z M 42.3 1.9 L 42.3 7.1 L 32.7 7.1 C 32.7 7.1 32.72 12.59 32.7 12.6 C 33.4 12.5 33.6 12.5 34.2 12.5 C 39.8 12.5 43.5 16.4 43.5 21.2 C 43.5 26.2 40 30.3 33.8 30.3 C 30.8 30.3 27.9 29.5 25.4 27.9 C 25.4 27.9 25.4 22.4 25.4 22.4 C 27.3 23.7 30.4 25.1 32.5 25.1 C 35.5 25.1 36.9 23.1 36.9 21.2 C 36.9 18.4 34.3 17 31.2 17 C 29.8 17 28.4 17.3 27.3 17.7 C 27.31 17.71 27.3 1.9 27.3 1.9 L 42.3 1.9 Z " stroke="none" fill="#fff"/>  </g></svg>