<?xml version="1.0" standalone="no"?><!DOCTYPE svg PUBLIC "-//W3C//DTD SVG 1.1//EN" "http://www.w3.org/Graphics/SVG/1.1/DTD/svg11.dtd"><svg xmlns="http://www.w3.org/2000/svg" version="1.1" width="317px" height="42px" viewBox="0 -8 317 42" style="top:-8px">  <desc>End Point Assessment</desc>  <defs/>  <g id="Polygon106323">    <path d="M 12.7 1.3 L 12.7 3.2 L 4.3 3.2 L 4.3 9.9 L 12.4 9.9 L 12.4 11.8 L 4.3 11.8 L 4.3 18.7 L 12.9 18.7 L 12.9 20.6 L 2.2 20.6 L 2.2 1.3 L 12.7 1.3 Z M 18.1 1.3 L 31.7 17.2 L 31.7 1.3 L 33.8 1.3 L 33.8 20.6 L 31.9 20.6 L 18.4 4.7 L 18.4 20.6 L 16.3 20.6 L 16.3 1.3 L 18.1 1.3 Z M 38.1 1.3 C 38.1 1.3 45.16 1.33 45.2 1.3 C 51.4 1.3 55.5 5.2 55.5 10.8 C 55.5 16.7 51.3 20.6 45.2 20.6 C 45.16 20.57 38.1 20.6 38.1 20.6 L 38.1 1.3 Z M 45.1 18.7 C 50.2 18.7 53.3 15.7 53.3 10.9 C 53.3 6.3 50.3 3.2 44.8 3.2 C 44.82 3.22 40.2 3.2 40.2 3.2 L 40.2 18.7 C 40.2 18.7 45.13 18.65 45.1 18.7 Z M 65.5 13.2 L 65.5 15.2 L 58.6 15.2 L 58.6 13.2 L 65.5 13.2 Z M 74.7 1.3 C 78.5 1.3 80.9 3.3 80.9 6.6 C 80.9 10.2 78.4 11.9 74.3 11.9 C 74.31 11.91 71.3 11.9 71.3 11.9 L 71.3 20.6 L 69.2 20.6 L 69.2 1.3 C 69.2 1.3 74.67 1.33 74.7 1.3 Z M 71.3 10 C 71.3 10 74.25 10.05 74.3 10 C 77.5 10 78.7 8.8 78.7 6.6 C 78.7 4.4 77.4 3.2 74.3 3.2 C 74.25 3.19 71.3 3.2 71.3 3.2 L 71.3 10 Z M 103.3 10.9 C 103.3 16.3 99.3 20.8 93 20.8 C 87 20.8 83 16.3 83 11.1 C 83 5.7 86.8 1.1 93.1 1.1 C 99.2 1.1 103.3 5.5 103.3 10.9 Z M 85.2 11 C 85.2 15.5 88.7 18.9 93 18.8 C 98.7 18.8 101.1 14.4 101.1 10.9 C 101.1 7 98.2 3.1 93.2 3.1 C 87.9 3.1 85.2 7.1 85.2 11 Z M 108.9 1.3 L 108.9 20.6 L 106.8 20.6 L 106.8 1.3 L 108.9 1.3 Z M 114.9 1.3 L 128.6 17.2 L 128.6 1.3 L 130.6 1.3 L 130.6 20.6 L 128.7 20.6 L 115.2 4.7 L 115.2 20.6 L 113.2 20.6 L 113.2 1.3 L 114.9 1.3 Z M 149 1.3 L 149 3.2 L 142.1 3.2 L 142.1 20.6 L 140 20.6 L 140 3.2 L 133.2 3.2 L 133.2 1.3 L 149 1.3 Z M 167.1 1.2 L 175.7 20.6 L 173.5 20.6 L 170.8 14.5 L 162.1 14.5 L 159.5 20.6 L 157.3 20.6 L 165.6 1.2 L 167.1 1.2 Z M 162.9 12.6 L 170 12.6 L 166.3 4.5 L 162.9 12.6 Z M 187.3 2.3 C 187.3 2.3 187.3 4.7 187.3 4.7 C 186 3.6 184.5 3 182.9 3 C 180.9 3 179.6 4.1 179.6 5.8 C 179.6 7.1 179.9 8.2 183.1 9.8 C 187.1 11.8 188 13.2 188 15.8 C 188 18.7 185.8 20.8 182.5 20.8 C 180.7 20.8 179 20.2 177.5 19.1 C 177.5 19.1 177.5 16.5 177.5 16.5 C 179 18.1 180.6 18.9 182.5 18.9 C 184.5 18.9 185.9 17.7 185.9 15.9 C 185.9 14.2 185.3 13.3 181.6 11.3 C 178.6 9.8 177.4 8.3 177.4 5.8 C 177.4 3.1 179.8 1.1 183 1.1 C 184.5 1.1 186 1.5 187.3 2.3 Z M 200.2 2.3 C 200.2 2.3 200.2 4.7 200.2 4.7 C 198.9 3.6 197.5 3 195.9 3 C 193.9 3 192.5 4.1 192.5 5.8 C 192.5 7.1 192.8 8.2 196 9.8 C 200 11.8 201 13.2 201 15.8 C 201 18.7 198.8 20.8 195.5 20.8 C 193.6 20.8 191.9 20.2 190.5 19.1 C 190.5 19.1 190.5 16.5 190.5 16.5 C 191.9 18.1 193.6 18.9 195.5 18.9 C 197.4 18.9 198.8 17.7 198.8 15.9 C 198.8 14.2 198.3 13.3 194.6 11.3 C 191.5 9.8 190.4 8.3 190.4 5.8 C 190.4 3.1 192.7 1.1 195.9 1.1 C 197.4 1.1 198.9 1.5 200.2 2.3 Z M 214.8 1.3 L 214.8 3.2 L 206.4 3.2 L 206.4 9.9 L 214.5 9.9 L 214.5 11.8 L 206.4 11.8 L 206.4 18.7 L 215 18.7 L 215 20.6 L 204.3 20.6 L 204.3 1.3 L 214.8 1.3 Z M 227.4 2.3 C 227.4 2.3 227.4 4.7 227.4 4.7 C 226 3.6 224.6 3 223 3 C 221 3 219.7 4.1 219.7 5.8 C 219.7 7.1 220 8.2 223.2 9.8 C 227.1 11.8 228.1 13.2 228.1 15.8 C 228.1 18.7 225.9 20.8 222.6 20.8 C 220.8 20.8 219.1 20.2 217.6 19.1 C 217.6 19.1 217.6 16.5 217.6 16.5 C 219 18.1 220.7 18.9 222.6 18.9 C 224.5 18.9 225.9 17.7 225.9 15.9 C 225.9 14.2 225.4 13.3 221.7 11.3 C 218.7 9.8 217.5 8.3 217.5 5.8 C 217.5 3.1 219.8 1.1 223.1 1.1 C 224.6 1.1 226.1 1.5 227.4 2.3 Z M 240.3 2.3 C 240.3 2.3 240.3 4.7 240.3 4.7 C 239 3.6 237.5 3 236 3 C 233.9 3 232.6 4.1 232.6 5.8 C 232.6 7.1 232.9 8.2 236.1 9.8 C 240.1 11.8 241 13.2 241 15.8 C 241 18.7 238.8 20.8 235.5 20.8 C 233.7 20.8 232 20.2 230.5 19.1 C 230.5 19.1 230.5 16.5 230.5 16.5 C 232 18.1 233.7 18.9 235.5 18.9 C 237.5 18.9 238.9 17.7 238.9 15.9 C 238.9 14.2 238.4 13.3 234.6 11.3 C 231.6 9.8 230.5 8.3 230.5 5.8 C 230.5 3.1 232.8 1.1 236 1.1 C 237.5 1.1 239 1.5 240.3 2.3 Z M 244.3 1.3 L 246.3 1.3 L 253.2 9.8 L 259.9 1.3 L 261.9 1.3 L 261.9 20.6 L 259.8 20.6 L 259.8 4.7 L 259.8 4.7 L 253.3 12.7 L 253 12.7 L 246.5 4.7 L 246.5 4.7 L 246.5 20.6 L 244.3 20.6 L 244.3 1.3 Z M 276.8 1.3 L 276.8 3.2 L 268.4 3.2 L 268.4 9.9 L 276.5 9.9 L 276.5 11.8 L 268.4 11.8 L 268.4 18.7 L 277 18.7 L 277 20.6 L 266.3 20.6 L 266.3 1.3 L 276.8 1.3 Z M 282.2 1.3 L 295.8 17.2 L 295.8 1.3 L 297.9 1.3 L 297.9 20.6 L 296 20.6 L 282.5 4.7 L 282.5 20.6 L 280.4 20.6 L 280.4 1.3 L 282.2 1.3 Z M 316.2 1.3 L 316.2 3.2 L 309.3 3.2 L 309.3 20.6 L 307.2 20.6 L 307.2 3.2 L 300.4 3.2 L 300.4 1.3 L 316.2 1.3 Z " stroke="none" fill="#e4007e"/>  </g></svg>