<?xml version="1.0" standalone="no"?><!DOCTYPE svg PUBLIC "-//W3C//DTD SVG 1.1//EN" "http://www.w3.org/Graphics/SVG/1.1/DTD/svg11.dtd"><svg xmlns="http://www.w3.org/2000/svg" version="1.1" width="378.3px" height="42px" viewBox="0 -8 378.3 42" style="top:-8px">  <desc>Apprenticeship Assessment</desc>  <defs/>  <g id="Polygon107534">    <path d="M 9.9 1.2 L 18.5 20.6 L 16.3 20.6 L 13.6 14.5 L 4.8 14.5 L 2.2 20.6 L 0.1 20.6 L 8.4 1.2 L 9.9 1.2 Z M 5.6 12.6 L 12.7 12.6 L 9.1 4.5 L 5.6 12.6 Z M 26.1 1.3 C 30 1.3 32.3 3.3 32.3 6.6 C 32.3 10.2 29.9 11.9 25.8 11.9 C 25.77 11.91 22.8 11.9 22.8 11.9 L 22.8 20.6 L 20.7 20.6 L 20.7 1.3 C 20.7 1.3 26.13 1.33 26.1 1.3 Z M 22.8 10 C 22.8 10 25.71 10.05 25.7 10 C 29 10 30.1 8.8 30.1 6.6 C 30.1 4.4 28.8 3.2 25.7 3.2 C 25.71 3.19 22.8 3.2 22.8 3.2 L 22.8 10 Z M 40.8 1.3 C 44.6 1.3 47 3.3 47 6.6 C 47 10.2 44.5 11.9 40.4 11.9 C 40.41 11.91 37.4 11.9 37.4 11.9 L 37.4 20.6 L 35.3 20.6 L 35.3 1.3 C 35.3 1.3 40.78 1.33 40.8 1.3 Z M 37.4 10 C 37.4 10 40.36 10.05 40.4 10 C 43.6 10 44.8 8.8 44.8 6.6 C 44.8 4.4 43.5 3.2 40.4 3.2 C 40.36 3.19 37.4 3.2 37.4 3.2 L 37.4 10 Z M 50 1.3 C 50 1.3 55 1.33 55 1.3 C 58.9 1.3 60.9 3.6 60.9 6.5 C 60.9 8.9 59.6 10.5 57.2 11.2 C 58.5 11.9 59 12.4 60.6 14.8 C 60.62 14.82 64.3 20.6 64.3 20.6 L 61.8 20.6 C 61.8 20.6 58.45 15.27 58.4 15.3 C 56.7 12.4 55.5 11.8 53.8 11.8 C 53.85 11.82 52.1 11.8 52.1 11.8 L 52.1 20.6 L 50 20.6 L 50 1.3 Z M 54 10 C 56.7 10 58.7 9.3 58.7 6.5 C 58.7 4.1 57.2 3.2 54.7 3.2 C 54.72 3.19 52.1 3.2 52.1 3.2 L 52.1 10 C 52.1 10 54.05 9.96 54 10 Z M 77 1.3 L 77 3.2 L 68.6 3.2 L 68.6 9.9 L 76.7 9.9 L 76.7 11.8 L 68.6 11.8 L 68.6 18.7 L 77.2 18.7 L 77.2 20.6 L 66.5 20.6 L 66.5 1.3 L 77 1.3 Z M 82.4 1.3 L 96 17.2 L 96 1.3 L 98 1.3 L 98 20.6 L 96.2 20.6 L 82.7 4.7 L 82.7 20.6 L 80.6 20.6 L 80.6 1.3 L 82.4 1.3 Z M 116.4 1.3 L 116.4 3.2 L 109.5 3.2 L 109.5 20.6 L 107.4 20.6 L 107.4 3.2 L 100.6 3.2 L 100.6 1.3 L 116.4 1.3 Z M 121.1 1.3 L 121.1 20.6 L 119 20.6 L 119 1.3 L 121.1 1.3 Z M 141.3 2.6 C 141.3 2.6 141.3 4.9 141.3 4.9 C 139.3 3.7 137.1 3 134.8 3 C 129.9 3 126.8 6.7 126.8 11 C 126.8 15.3 129.9 18.9 134.8 18.9 C 137.2 18.9 139.4 18.2 141.5 16.9 C 141.5 16.9 141.5 19.2 141.5 19.2 C 139.3 20.3 137.1 20.8 134.7 20.8 C 128.1 20.8 124.6 15.8 124.6 11 C 124.6 5.3 129 1.1 134.8 1.1 C 137 1.1 139.2 1.6 141.3 2.6 Z M 155.3 1.3 L 155.3 3.2 L 146.9 3.2 L 146.9 9.9 L 155.1 9.9 L 155.1 11.8 L 146.9 11.8 L 146.9 18.7 L 155.6 18.7 L 155.6 20.6 L 144.8 20.6 L 144.8 1.3 L 155.3 1.3 Z M 167.9 2.3 C 167.9 2.3 167.9 4.7 167.9 4.7 C 166.6 3.6 165.1 3 163.5 3 C 161.5 3 160.2 4.1 160.2 5.8 C 160.2 7.1 160.5 8.2 163.7 9.8 C 167.7 11.8 168.6 13.2 168.6 15.8 C 168.6 18.7 166.4 20.8 163.1 20.8 C 161.3 20.8 159.6 20.2 158.1 19.1 C 158.1 19.1 158.1 16.5 158.1 16.5 C 159.6 18.1 161.3 18.9 163.1 18.9 C 165.1 18.9 166.5 17.7 166.5 15.9 C 166.5 14.2 165.9 13.3 162.2 11.3 C 159.2 9.8 158 8.3 158 5.8 C 158 3.1 160.4 1.1 163.6 1.1 C 165.1 1.1 166.6 1.5 167.9 2.3 Z M 174 1.3 L 174 9.9 L 185.7 9.9 L 185.7 1.3 L 187.8 1.3 L 187.8 20.6 L 185.7 20.6 L 185.7 11.9 L 174 11.9 L 174 20.6 L 171.9 20.6 L 171.9 1.3 L 174 1.3 Z M 194.3 1.3 L 194.3 20.6 L 192.2 20.6 L 192.2 1.3 L 194.3 1.3 Z M 204.1 1.3 C 207.9 1.3 210.3 3.3 210.3 6.6 C 210.3 10.2 207.8 11.9 203.7 11.9 C 203.71 11.91 200.7 11.9 200.7 11.9 L 200.7 20.6 L 198.6 20.6 L 198.6 1.3 C 198.6 1.3 204.07 1.33 204.1 1.3 Z M 200.7 10 C 200.7 10 203.65 10.05 203.7 10 C 206.9 10 208.1 8.8 208.1 6.6 C 208.1 4.4 206.8 3.2 203.7 3.2 C 203.65 3.19 200.7 3.2 200.7 3.2 L 200.7 10 Z M 228.8 1.2 L 237.4 20.6 L 235.2 20.6 L 232.5 14.5 L 223.7 14.5 L 221.1 20.6 L 219 20.6 L 227.3 1.2 L 228.8 1.2 Z M 224.6 12.6 L 231.6 12.6 L 228 4.5 L 224.6 12.6 Z M 248.9 2.3 C 248.9 2.3 248.9 4.7 248.9 4.7 C 247.6 3.6 246.2 3 244.6 3 C 242.6 3 241.2 4.1 241.2 5.8 C 241.2 7.1 241.6 8.2 244.7 9.8 C 248.7 11.8 249.7 13.2 249.7 15.8 C 249.7 18.7 247.5 20.8 244.2 20.8 C 242.3 20.8 240.6 20.2 239.2 19.1 C 239.2 19.1 239.2 16.5 239.2 16.5 C 240.6 18.1 242.3 18.9 244.2 18.9 C 246.1 18.9 247.5 17.7 247.5 15.9 C 247.5 14.2 247 13.3 243.3 11.3 C 240.3 9.8 239.1 8.3 239.1 5.8 C 239.1 3.1 241.4 1.1 244.7 1.1 C 246.2 1.1 247.6 1.5 248.9 2.3 Z M 261.9 2.3 C 261.9 2.3 261.9 4.7 261.9 4.7 C 260.6 3.6 259.1 3 257.6 3 C 255.5 3 254.2 4.1 254.2 5.8 C 254.2 7.1 254.5 8.2 257.7 9.8 C 261.7 11.8 262.6 13.2 262.6 15.8 C 262.6 18.7 260.4 20.8 257.1 20.8 C 255.3 20.8 253.6 20.2 252.1 19.1 C 252.1 19.1 252.1 16.5 252.1 16.5 C 253.6 18.1 255.3 18.9 257.1 18.9 C 259.1 18.9 260.5 17.7 260.5 15.9 C 260.5 14.2 260 13.3 256.2 11.3 C 253.2 9.8 252.1 8.3 252.1 5.8 C 252.1 3.1 254.4 1.1 257.6 1.1 C 259.1 1.1 260.6 1.5 261.9 2.3 Z M 276.5 1.3 L 276.5 3.2 L 268.1 3.2 L 268.1 9.9 L 276.2 9.9 L 276.2 11.8 L 268.1 11.8 L 268.1 18.7 L 276.7 18.7 L 276.7 20.6 L 265.9 20.6 L 265.9 1.3 L 276.5 1.3 Z M 289 2.3 C 289 2.3 289 4.7 289 4.7 C 287.7 3.6 286.3 3 284.7 3 C 282.6 3 281.3 4.1 281.3 5.8 C 281.3 7.1 281.6 8.2 284.8 9.8 C 288.8 11.8 289.8 13.2 289.8 15.8 C 289.8 18.7 287.6 20.8 284.3 20.8 C 282.4 20.8 280.7 20.2 279.3 19.1 C 279.3 19.1 279.3 16.5 279.3 16.5 C 280.7 18.1 282.4 18.9 284.3 18.9 C 286.2 18.9 287.6 17.7 287.6 15.9 C 287.6 14.2 287.1 13.3 283.3 11.3 C 280.3 9.8 279.2 8.3 279.2 5.8 C 279.2 3.1 281.5 1.1 284.7 1.1 C 286.2 1.1 287.7 1.5 289 2.3 Z M 302 2.3 C 302 2.3 302 4.7 302 4.7 C 300.6 3.6 299.2 3 297.6 3 C 295.6 3 294.3 4.1 294.3 5.8 C 294.3 7.1 294.6 8.2 297.8 9.8 C 301.8 11.8 302.7 13.2 302.7 15.8 C 302.7 18.7 300.5 20.8 297.2 20.8 C 295.4 20.8 293.7 20.2 292.2 19.1 C 292.2 19.1 292.2 16.5 292.2 16.5 C 293.7 18.1 295.3 18.9 297.2 18.9 C 299.2 18.9 300.6 17.7 300.6 15.9 C 300.6 14.2 300 13.3 296.3 11.3 C 293.3 9.8 292.1 8.3 292.1 5.8 C 292.1 3.1 294.5 1.1 297.7 1.1 C 299.2 1.1 300.7 1.5 302 2.3 Z M 306 1.3 L 308 1.3 L 314.8 9.8 L 321.6 1.3 L 323.6 1.3 L 323.6 20.6 L 321.5 20.6 L 321.5 4.7 L 321.4 4.7 L 315 12.7 L 314.6 12.7 L 308.2 4.7 L 308.1 4.7 L 308.1 20.6 L 306 20.6 L 306 1.3 Z M 338.5 1.3 L 338.5 3.2 L 330.1 3.2 L 330.1 9.9 L 338.2 9.9 L 338.2 11.8 L 330.1 11.8 L 330.1 18.7 L 338.7 18.7 L 338.7 20.6 L 327.9 20.6 L 327.9 1.3 L 338.5 1.3 Z M 343.9 1.3 L 357.5 17.2 L 357.5 1.3 L 359.5 1.3 L 359.5 20.6 L 357.7 20.6 L 344.1 4.7 L 344.1 20.6 L 342.1 20.6 L 342.1 1.3 L 343.9 1.3 Z M 377.9 1.3 L 377.9 3.2 L 371 3.2 L 371 20.6 L 368.9 20.6 L 368.9 3.2 L 362.1 3.2 L 362.1 1.3 L 377.9 1.3 Z " stroke="none" fill="#e4007e"/>  </g></svg>