<?xml version="1.0" standalone="no"?><!DOCTYPE svg PUBLIC "-//W3C//DTD SVG 1.1//EN" "http://www.w3.org/Graphics/SVG/1.1/DTD/svg11.dtd"><svg xmlns="http://www.w3.org/2000/svg" version="1.1" width="173px" height="28.9px" viewBox="0 -5 173 28.9" style="top:-5px">  <desc>3,000+ Employers</desc>  <defs/>  <g id="Polygon140415">    <path d="M 6.9 6.7 C 8.2 7.3 8.7 8.4 8.7 9.7 C 8.7 12.2 6.6 13.3 4.5 13.3 C 3.4 13.3 2.3 13 1.3 12.5 C 1.3 12.5 1.3 10 1.3 10 C 2.2 10.7 3.1 11.1 4 11.1 C 5.1 11.1 5.8 10.5 5.8 9.5 C 5.8 8.3 5 7.7 3.3 7.7 C 3.3 7.7 3.3 5.9 3.3 5.9 C 5 5.9 5.7 5.2 5.7 4.3 C 5.7 3.4 5 2.8 3.9 2.8 C 3.1 2.8 2.3 3.1 1.6 3.5 C 1.6 3.5 1.6 1.4 1.6 1.4 C 2.7 0.8 3.7 0.7 4.6 0.7 C 7 0.7 8.5 1.9 8.5 4 C 8.5 5.1 7.9 6.1 6.9 6.7 Z M 14.4 12.3 C 14.4 13.9 13.2 15.5 10.9 15.9 C 10.9 15.9 10.9 15.4 10.9 15.4 C 11.7 15 12.1 14.3 12.1 13.1 C 11.2 12.9 10.8 12.3 10.8 11.5 C 10.8 10.6 11.6 9.9 12.5 9.9 C 13.7 9.9 14.4 11.1 14.4 12.3 Z M 20.3 11 C 21.3 11 21.8 9.9 21.8 7 C 21.8 4.4 21.4 3 20.2 3 C 19.3 3 18.7 4.1 18.7 7 C 18.7 9.7 19.1 11 20.3 11 Z M 24.8 7 C 24.8 11.1 22.8 13.3 20.3 13.3 C 17.7 13.3 15.7 11.1 15.7 7 C 15.7 2.8 17.9 0.7 20.3 0.7 C 22.8 0.7 24.8 3 24.8 7 Z M 30.5 11 C 31.4 11 32 9.9 32 7 C 32 4.4 31.6 3 30.4 3 C 29.5 3 28.9 4.1 28.9 7 C 28.9 9.7 29.3 11 30.5 11 Z M 35 7 C 35 11.1 33 13.3 30.5 13.3 C 27.9 13.3 25.9 11.1 25.9 7 C 25.9 2.8 28 0.7 30.5 0.7 C 33 0.7 35 3 35 7 Z M 40.6 11 C 41.6 11 42.2 9.9 42.2 7 C 42.2 4.4 41.8 3 40.6 3 C 39.7 3 39.1 4.1 39.1 7 C 39.1 9.7 39.5 11 40.6 11 Z M 45.2 7 C 45.2 11.1 43.1 13.3 40.6 13.3 C 38.1 13.3 36.1 11.1 36.1 7 C 36.1 2.8 38.2 0.7 40.7 0.7 C 43.2 0.7 45.2 3 45.2 7 Z M 46.5 5.8 L 49.8 5.8 L 49.8 2.4 L 52.1 2.4 L 52.1 5.8 L 55.4 5.8 L 55.4 8.1 L 52.1 8.1 L 52.1 11.5 L 49.8 11.5 L 49.8 8.1 L 46.5 8.1 L 46.5 5.8 Z M 71.2 0.8 L 71.2 3 L 65.8 3 L 65.8 5.7 L 70.9 5.7 L 70.9 7.9 L 65.8 7.9 L 65.8 10.9 L 71.3 10.9 L 71.3 13.1 L 62.7 13.1 L 62.7 0.8 L 71.2 0.8 Z M 81.7 5.9 C 82.7 4.7 83.7 4.2 84.9 4.2 C 86.9 4.2 87.9 5.5 87.9 7.7 C 87.95 7.74 87.9 13.1 87.9 13.1 L 85.3 13.1 C 85.3 13.1 85.26 8.23 85.3 8.2 C 85.3 7 84.8 6.4 83.9 6.4 C 83.2 6.4 82.5 6.8 82 7.6 C 81.95 7.65 82 13.1 82 13.1 L 79.3 13.1 C 79.3 13.1 79.27 8.26 79.3 8.3 C 79.3 7 78.8 6.4 77.9 6.4 C 77.3 6.4 76.7 6.6 76 7.6 C 75.96 7.65 76 13.1 76 13.1 L 73.3 13.1 L 73.3 4.4 L 76 4.4 C 76 4.4 75.96 5.62 76 5.6 C 76.9 4.7 77.7 4.2 78.9 4.2 C 80.2 4.2 81.2 4.8 81.7 5.9 Z M 94.8 13.3 C 94 13.3 93.5 13.2 92.6 12.7 C 92.64 12.69 92.6 17.2 92.6 17.2 L 89.9 17.2 L 89.9 4.4 C 89.9 4.4 93.85 4.39 93.9 4.4 C 96.6 4.4 99 5.1 99 8.8 C 99 11.1 97.6 13.3 94.8 13.3 Z M 92.6 10.7 C 93.1 11.1 93.7 11.2 94.2 11.2 C 95.4 11.2 96.2 10.3 96.2 8.9 C 96.2 7.3 95.3 6.5 93.9 6.5 C 93.89 6.46 92.6 6.5 92.6 6.5 C 92.6 6.5 92.64 10.69 92.6 10.7 Z M 103.4 0.8 L 103.4 13.1 L 100.7 13.1 L 100.7 0.8 L 103.4 0.8 Z M 107.9 8.7 C 107.9 10.3 108.7 11.2 110 11.2 C 111.3 11.2 112.1 10.2 112.1 8.7 C 112.1 7.2 111.2 6.3 110 6.3 C 108.7 6.3 107.9 7.2 107.9 8.7 Z M 114.9 8.7 C 114.9 11.5 112.9 13.3 110 13.3 C 106.8 13.3 105.1 11.2 105.1 8.8 C 105.1 6.2 106.9 4.2 110 4.2 C 113.1 4.2 114.9 6.1 114.9 8.7 Z M 118.1 4.4 L 120.1 8.9 L 122.1 4.4 L 124.8 4.4 L 118.9 17.2 L 116.1 17.2 L 118.7 11.8 L 115.2 4.4 L 118.1 4.4 Z M 134 8.8 C 133.99 8.82 134 9.3 134 9.3 C 134 9.3 127.87 9.32 127.9 9.3 C 128.1 10.6 129.1 11.4 130.4 11.4 C 131.6 11.4 132.7 11.1 133.8 10.5 C 133.8 10.5 133.8 12.3 133.8 12.3 C 132.7 13 131.4 13.3 129.9 13.3 C 127 13.3 125.1 11.5 125.1 8.7 C 125.1 6 126.9 4.2 129.8 4.2 C 132.1 4.2 134 5.8 134 8.8 Z M 131.4 8 C 131.4 6.7 130.8 6 129.7 6 C 128.6 6 127.8 6.8 127.8 8 C 127.8 8 131.4 8 131.4 8 Z M 142.9 5 C 142.9 5 141.8 7.6 141.8 7.6 C 141.3 7.1 140.8 6.9 140.3 6.9 C 139.4 6.9 138.7 7.6 138.3 9.1 C 138.27 9.11 138.3 13.1 138.3 13.1 L 135.6 13.1 L 135.6 4.4 L 138.3 4.4 C 138.3 4.4 138.27 6.46 138.3 6.5 C 138.9 5.1 139.9 4.2 141 4.2 C 141.6 4.2 142.1 4.4 142.9 5 Z M 147 4.2 C 148 4.2 149 4.5 149.9 4.9 C 149.9 4.9 149.9 7 149.9 7 C 148.8 6.3 148.1 6.1 147.4 6.1 C 146.7 6.1 146.4 6.4 146.4 6.7 C 146.4 7 146.5 7.2 148 7.9 C 149.5 8.6 150.3 9.4 150.3 10.6 C 150.3 12.1 149.2 13.3 147 13.3 C 146 13.3 145.1 13.1 143.8 12.6 C 143.8 12.6 143.8 10.5 143.8 10.5 C 144.8 11.1 145.6 11.4 146.4 11.4 C 147.2 11.4 147.6 11.2 147.6 10.8 C 147.6 10.3 147.3 10.1 145.9 9.4 C 144.3 8.7 143.7 7.8 143.7 6.7 C 143.7 5.4 144.9 4.2 147 4.2 Z " stroke="none" fill="#000"/>  </g></svg>