<?xml version="1.0" standalone="no"?><!DOCTYPE svg PUBLIC "-//W3C//DTD SVG 1.1//EN" "http://www.w3.org/Graphics/SVG/1.1/DTD/svg11.dtd"><svg xmlns="http://www.w3.org/2000/svg" version="1.1" width="87px" height="39.9px" viewBox="0 -5 87 39.9" style="top:-5px">  <desc>Easy to Work With</desc>  <defs/>  <g id="Polygon142887">    <path d="M 14 27 L 11.4 17 L 12.7 17 C 12.7 17 14.25 23.54 14.2 23.5 C 14.4 24.2 14.6 24.9 14.7 25.6 C 14.9 24.5 15.1 23.9 15.1 23.7 C 15.12 23.74 17 17 17 17 L 18.6 17 C 18.6 17 20.06 22.04 20.1 22 C 20.4 23.3 20.7 24.5 20.8 25.6 C 21 25 21.1 24.2 21.3 23.4 C 21.34 23.41 22.9 17 22.9 17 L 24.2 17 L 21.5 27 L 20.2 27 C 20.2 27 18.11 19.36 18.1 19.4 C 17.9 18.7 17.8 18.3 17.8 18.2 C 17.7 18.6 17.6 19 17.5 19.4 C 17.5 19.36 15.4 27 15.4 27 L 14 27 Z M 24.6 23.4 C 24.6 22 25 21 25.7 20.4 C 26.4 19.8 27.1 19.6 28 19.6 C 29 19.6 29.8 19.9 30.5 20.5 C 31.1 21.2 31.4 22.1 31.4 23.3 C 31.4 24.2 31.3 24.9 31 25.5 C 30.7 26 30.3 26.4 29.8 26.7 C 29.2 27 28.7 27.2 28 27.2 C 27 27.2 26.2 26.8 25.6 26.2 C 24.9 25.5 24.6 24.6 24.6 23.4 Z M 25.9 23.4 C 25.9 24.3 26.1 25 26.5 25.5 C 26.9 25.9 27.4 26.1 28 26.1 C 28.6 26.1 29.1 25.9 29.5 25.4 C 30 25 30.2 24.3 30.2 23.3 C 30.2 22.4 29.9 21.7 29.5 21.3 C 29.1 20.8 28.6 20.6 28 20.6 C 27.4 20.6 26.9 20.8 26.5 21.3 C 26.1 21.7 25.9 22.4 25.9 23.4 Z M 32.8 27 L 32.8 19.7 L 34 19.7 C 34 19.7 33.95 20.83 34 20.8 C 34.2 20.3 34.5 20 34.7 19.8 C 35 19.7 35.2 19.6 35.5 19.6 C 35.9 19.6 36.4 19.7 36.8 20 C 36.8 20 36.4 21.1 36.4 21.1 C 36.1 20.9 35.8 20.8 35.5 20.8 C 35.2 20.8 35 20.9 34.7 21.1 C 34.5 21.2 34.4 21.5 34.3 21.8 C 34.1 22.2 34.1 22.7 34.1 23.2 C 34.08 23.19 34.1 27 34.1 27 L 32.8 27 Z M 37.5 27 L 37.5 17 L 38.8 17 L 38.8 22.7 L 41.7 19.7 L 43.3 19.7 L 40.5 22.4 L 43.5 27 L 42 27 L 39.6 23.3 L 38.8 24.1 L 38.8 27 L 37.5 27 Z M 50.3 27 L 47.7 17 L 49 17 C 49 17 50.55 23.54 50.5 23.5 C 50.7 24.2 50.9 24.9 51 25.6 C 51.2 24.5 51.4 23.9 51.4 23.7 C 51.42 23.74 53.3 17 53.3 17 L 54.9 17 C 54.9 17 56.36 22.04 56.4 22 C 56.7 23.3 57 24.5 57.1 25.6 C 57.3 25 57.4 24.2 57.6 23.4 C 57.64 23.41 59.2 17 59.2 17 L 60.5 17 L 57.8 27 L 56.5 27 C 56.5 27 54.41 19.36 54.4 19.4 C 54.2 18.7 54.1 18.3 54.1 18.2 C 54 18.6 53.9 19 53.8 19.4 C 53.8 19.36 51.7 27 51.7 27 L 50.3 27 Z M 61.6 18.4 L 61.6 17 L 62.9 17 L 62.9 18.4 L 61.6 18.4 Z M 61.6 27 L 61.6 19.7 L 62.9 19.7 L 62.9 27 L 61.6 27 Z M 66.9 25.9 C 67 25.9 67.2 25.9 67.4 25.9 C 67.4 25.9 67.6 27 67.6 27 C 67.3 27.1 66.9 27.1 66.7 27.1 C 66.2 27.1 65.9 27 65.6 26.9 C 65.4 26.7 65.2 26.5 65.1 26.3 C 65 26.1 65 25.6 65 24.9 C 64.96 24.87 65 20.7 65 20.7 L 64.1 20.7 L 64.1 19.7 L 65 19.7 L 65 17.9 L 66.2 17.2 L 66.2 19.7 L 67.4 19.7 L 67.4 20.7 L 66.2 20.7 C 66.2 20.7 66.19 24.93 66.2 24.9 C 66.2 25.3 66.2 25.5 66.3 25.6 C 66.3 25.7 66.4 25.8 66.5 25.9 C 66.6 25.9 66.7 25.9 66.9 25.9 C 66.9 25.9 66.9 25.9 66.9 25.9 Z M 68.6 27 L 68.6 17 L 69.9 17 C 69.9 17 69.86 20.57 69.9 20.6 C 70.4 19.9 71.2 19.6 72 19.6 C 72.6 19.6 73 19.7 73.4 19.9 C 73.8 20.1 74.1 20.4 74.3 20.8 C 74.5 21.1 74.5 21.7 74.5 22.4 C 74.54 22.39 74.5 27 74.5 27 L 73.3 27 C 73.3 27 73.31 22.39 73.3 22.4 C 73.3 21.8 73.2 21.3 72.9 21 C 72.6 20.8 72.3 20.6 71.8 20.6 C 71.4 20.6 71.1 20.7 70.7 20.9 C 70.4 21.1 70.2 21.4 70.1 21.7 C 69.9 22 69.9 22.5 69.9 23 C 69.86 23.02 69.9 27 69.9 27 L 68.6 27 Z " stroke="none" fill="#fff"/>  </g>  <g id="Polygon142886">    <path d="M 21.1 10.2 L 21.1 0.2 L 28.3 0.2 L 28.3 1.4 L 22.4 1.4 L 22.4 4.4 L 28 4.4 L 28 5.6 L 22.4 5.6 L 22.4 9 L 28.6 9 L 28.6 10.2 L 21.1 10.2 Z M 35.2 10.2 C 35.1 9.9 35 9.6 35 9.3 C 34.5 9.7 34.1 10 33.7 10.1 C 33.3 10.3 32.8 10.4 32.3 10.4 C 31.5 10.4 30.9 10.2 30.5 9.8 C 30.1 9.4 29.8 8.9 29.8 8.3 C 29.8 7.9 29.9 7.6 30.1 7.3 C 30.2 7 30.5 6.8 30.7 6.6 C 31 6.4 31.3 6.3 31.6 6.2 C 31.8 6.1 32.2 6.1 32.7 6 C 33.7 5.9 34.4 5.7 34.9 5.6 C 34.9 5.4 34.9 5.3 34.9 5.3 C 34.9 4.8 34.8 4.4 34.5 4.2 C 34.2 3.9 33.8 3.8 33.1 3.8 C 32.6 3.8 32.1 3.9 31.9 4.1 C 31.6 4.3 31.4 4.7 31.3 5.2 C 31.3 5.2 30.1 5 30.1 5 C 30.2 4.5 30.3 4.1 30.6 3.8 C 30.8 3.4 31.2 3.2 31.7 3 C 32.2 2.9 32.7 2.8 33.3 2.8 C 33.9 2.8 34.4 2.8 34.8 3 C 35.2 3.1 35.5 3.3 35.7 3.5 C 35.9 3.8 36 4 36.1 4.4 C 36.1 4.6 36.1 5 36.1 5.5 C 36.1 5.5 36.1 7.2 36.1 7.2 C 36.1 8.3 36.2 9 36.2 9.3 C 36.3 9.6 36.4 9.9 36.5 10.2 C 36.52 10.19 35.2 10.2 35.2 10.2 C 35.2 10.2 35.24 10.19 35.2 10.2 Z M 34.9 6.5 C 34.4 6.7 33.8 6.9 32.9 7 C 32.4 7.1 32 7.2 31.8 7.3 C 31.6 7.4 31.4 7.5 31.3 7.7 C 31.2 7.8 31.2 8 31.2 8.2 C 31.2 8.6 31.3 8.8 31.5 9.1 C 31.8 9.3 32.1 9.4 32.6 9.4 C 33.1 9.4 33.5 9.3 33.9 9.1 C 34.2 8.9 34.5 8.6 34.7 8.2 C 34.8 8 34.9 7.5 34.9 7 C 34.9 7 34.9 6.5 34.9 6.5 Z M 37.5 8 C 37.5 8 38.8 7.8 38.8 7.8 C 38.8 8.3 39 8.7 39.3 9 C 39.6 9.2 40.1 9.3 40.6 9.3 C 41.2 9.3 41.6 9.2 41.9 9 C 42.2 8.8 42.3 8.5 42.3 8.2 C 42.3 7.9 42.2 7.7 42 7.5 C 41.8 7.4 41.4 7.3 40.7 7.1 C 39.8 6.9 39.2 6.7 38.8 6.5 C 38.5 6.4 38.2 6.1 38 5.8 C 37.8 5.5 37.8 5.2 37.8 4.9 C 37.8 4.5 37.8 4.2 38 4 C 38.1 3.7 38.3 3.5 38.6 3.3 C 38.8 3.1 39 3 39.4 2.9 C 39.7 2.8 40 2.8 40.4 2.8 C 41 2.8 41.5 2.9 41.9 3 C 42.4 3.2 42.7 3.4 42.9 3.7 C 43.1 4 43.2 4.3 43.3 4.8 C 43.3 4.8 42.1 5 42.1 5 C 42 4.6 41.9 4.3 41.6 4.1 C 41.4 3.9 41 3.8 40.5 3.8 C 40 3.8 39.5 3.9 39.3 4.1 C 39.1 4.2 38.9 4.5 38.9 4.7 C 38.9 4.9 39 5 39.1 5.1 C 39.2 5.3 39.4 5.4 39.6 5.5 C 39.7 5.5 40.1 5.6 40.7 5.8 C 41.5 6 42.1 6.2 42.5 6.4 C 42.8 6.5 43.1 6.7 43.3 7 C 43.5 7.3 43.6 7.6 43.6 8.1 C 43.6 8.5 43.5 8.9 43.2 9.2 C 43 9.6 42.6 9.9 42.2 10.1 C 41.7 10.3 41.2 10.4 40.7 10.4 C 39.7 10.4 39 10.2 38.5 9.8 C 38 9.4 37.7 8.8 37.5 8 Z M 45.8 13.1 C 45.5 13.1 45.3 13.1 45 13 C 45 13 44.9 11.8 44.9 11.8 C 45.1 11.9 45.4 11.9 45.6 11.9 C 45.8 11.9 46 11.9 46.2 11.8 C 46.4 11.7 46.5 11.6 46.6 11.4 C 46.7 11.3 46.8 11 47 10.5 C 47 10.4 47 10.3 47.1 10.2 C 47.1 10.21 44.3 2.9 44.3 2.9 L 45.7 2.9 C 45.7 2.9 47.18 7.14 47.2 7.1 C 47.4 7.7 47.6 8.2 47.7 8.8 C 47.8 8.3 48 7.7 48.2 7.2 C 48.21 7.16 49.8 2.9 49.8 2.9 L 51 2.9 C 51 2.9 48.23 10.32 48.2 10.3 C 47.9 11.1 47.7 11.7 47.5 12 C 47.3 12.4 47.1 12.7 46.8 12.9 C 46.5 13 46.2 13.1 45.8 13.1 C 45.8 13.1 45.8 13.1 45.8 13.1 Z M 58.1 9.1 C 58.2 9.1 58.4 9.1 58.6 9.1 C 58.6 9.1 58.8 10.2 58.8 10.2 C 58.4 10.3 58.1 10.3 57.9 10.3 C 57.4 10.3 57.1 10.2 56.8 10.1 C 56.6 9.9 56.4 9.7 56.3 9.5 C 56.2 9.3 56.2 8.8 56.2 8.1 C 56.16 8.07 56.2 3.9 56.2 3.9 L 55.3 3.9 L 55.3 2.9 L 56.2 2.9 L 56.2 1.1 L 57.4 0.4 L 57.4 2.9 L 58.6 2.9 L 58.6 3.9 L 57.4 3.9 C 57.4 3.9 57.38 8.13 57.4 8.1 C 57.4 8.5 57.4 8.7 57.4 8.8 C 57.5 8.9 57.6 9 57.7 9.1 C 57.8 9.1 57.9 9.1 58.1 9.1 C 58.1 9.1 58.1 9.1 58.1 9.1 Z M 59.4 6.6 C 59.4 5.2 59.7 4.2 60.5 3.6 C 61.1 3 61.9 2.8 62.8 2.8 C 63.8 2.8 64.6 3.1 65.2 3.7 C 65.8 4.4 66.2 5.3 66.2 6.5 C 66.2 7.4 66 8.1 65.7 8.7 C 65.5 9.2 65.1 9.6 64.5 9.9 C 64 10.2 63.4 10.4 62.8 10.4 C 61.8 10.4 60.9 10 60.3 9.4 C 59.7 8.7 59.4 7.8 59.4 6.6 Z M 60.6 6.6 C 60.6 7.5 60.8 8.2 61.2 8.7 C 61.6 9.1 62.2 9.3 62.8 9.3 C 63.4 9.3 63.9 9.1 64.3 8.6 C 64.7 8.2 64.9 7.5 64.9 6.5 C 64.9 5.6 64.7 4.9 64.3 4.5 C 63.9 4 63.4 3.8 62.8 3.8 C 62.2 3.8 61.6 4 61.2 4.5 C 60.8 4.9 60.6 5.6 60.6 6.6 Z " stroke="none" fill="#fff"/>  </g></svg>