<?xml version="1.0" standalone="no"?><!DOCTYPE svg PUBLIC "-//W3C//DTD SVG 1.1//EN" "http://www.w3.org/Graphics/SVG/1.1/DTD/svg11.dtd"><svg xmlns="http://www.w3.org/2000/svg" version="1.1" width="237px" height="33.9px" viewBox="0 -1 237 33.9" style="top:-1px">  <desc>Creative &amp; Design</desc>  <defs/>  <g id="Polygon112445">    <path d="M 7.4 15.9 C 7.4 15.9 9.4 16.5 9.4 16.5 C 9.1 17.6 8.6 18.4 7.9 19 C 7.2 19.5 6.3 19.8 5.2 19.8 C 3.9 19.8 2.8 19.3 1.9 18.4 C 1.1 17.5 0.7 16.2 0.7 14.7 C 0.7 13 1.1 11.7 2 10.8 C 2.8 9.9 3.9 9.4 5.4 9.4 C 6.6 9.4 7.6 9.8 8.3 10.5 C 8.8 10.9 9.1 11.5 9.4 12.3 C 9.4 12.3 7.4 12.8 7.4 12.8 C 7.2 12.3 7 11.9 6.6 11.6 C 6.2 11.3 5.8 11.1 5.3 11.1 C 4.5 11.1 3.9 11.4 3.4 11.9 C 3 12.5 2.7 13.3 2.7 14.5 C 2.7 15.8 3 16.7 3.4 17.2 C 3.9 17.8 4.5 18 5.2 18 C 5.7 18 6.2 17.9 6.6 17.5 C 7 17.2 7.3 16.6 7.4 15.9 Z M 13 19.6 L 11 19.6 L 11 12.3 L 12.8 12.3 C 12.8 12.3 12.82 13.36 12.8 13.4 C 13.1 12.9 13.4 12.6 13.6 12.4 C 13.9 12.2 14.2 12.2 14.5 12.2 C 14.9 12.2 15.3 12.3 15.7 12.5 C 15.7 12.5 15.1 14.2 15.1 14.2 C 14.8 14 14.5 13.9 14.2 13.9 C 14 13.9 13.7 14 13.6 14.1 C 13.4 14.3 13.2 14.5 13.1 14.9 C 13 15.3 13 16.1 13 17.4 C 12.95 17.35 13 19.6 13 19.6 Z M 20.8 17.3 C 20.8 17.3 22.7 17.6 22.7 17.6 C 22.4 18.3 22 18.8 21.5 19.2 C 21 19.6 20.3 19.8 19.5 19.8 C 18.3 19.8 17.3 19.3 16.7 18.5 C 16.2 17.9 16 17 16 16 C 16 14.8 16.3 13.9 16.9 13.2 C 17.6 12.5 18.4 12.2 19.3 12.2 C 20.4 12.2 21.3 12.5 21.9 13.2 C 22.5 14 22.8 15 22.8 16.5 C 22.8 16.5 18 16.5 18 16.5 C 18 17.1 18.1 17.5 18.4 17.8 C 18.7 18.2 19.1 18.3 19.5 18.3 C 19.8 18.3 20.1 18.2 20.3 18.1 C 20.5 17.9 20.7 17.6 20.8 17.3 Z M 20.9 15.3 C 20.9 14.8 20.7 14.4 20.4 14.1 C 20.2 13.8 19.8 13.6 19.4 13.6 C 19 13.6 18.7 13.8 18.4 14.1 C 18.1 14.4 18 14.8 18 15.3 C 18 15.3 20.9 15.3 20.9 15.3 Z M 25.8 14.5 C 25.8 14.5 24 14.2 24 14.2 C 24.2 13.5 24.6 13 25.1 12.7 C 25.5 12.3 26.2 12.2 27.2 12.2 C 28 12.2 28.7 12.3 29.1 12.5 C 29.5 12.7 29.8 12.9 30 13.2 C 30.2 13.6 30.2 14.1 30.2 15 C 30.2 15 30.2 17.2 30.2 17.2 C 30.2 17.8 30.3 18.3 30.3 18.6 C 30.4 18.9 30.5 19.2 30.7 19.6 C 30.7 19.6 28.8 19.6 28.8 19.6 C 28.7 19.5 28.6 19.3 28.6 19 C 28.5 18.9 28.5 18.8 28.5 18.8 C 28.2 19.1 27.8 19.4 27.5 19.5 C 27.1 19.7 26.7 19.8 26.3 19.8 C 25.5 19.8 24.9 19.6 24.5 19.1 C 24.1 18.7 23.8 18.2 23.8 17.6 C 23.8 17.2 23.9 16.8 24.1 16.5 C 24.3 16.2 24.6 15.9 25 15.8 C 25.3 15.6 25.8 15.5 26.5 15.3 C 27.4 15.2 28 15 28.4 14.9 C 28.4 14.9 28.4 14.7 28.4 14.7 C 28.4 14.3 28.3 14 28.1 13.9 C 27.9 13.7 27.6 13.6 27 13.6 C 26.7 13.6 26.4 13.7 26.3 13.8 C 26.1 14 25.9 14.2 25.8 14.5 Z M 28.4 16.1 C 28.1 16.2 27.7 16.3 27.2 16.4 C 26.7 16.5 26.3 16.6 26.1 16.7 C 25.9 16.9 25.8 17.1 25.8 17.4 C 25.8 17.7 25.9 17.9 26.1 18.1 C 26.3 18.3 26.5 18.4 26.8 18.4 C 27.2 18.4 27.5 18.3 27.8 18.1 C 28.1 17.9 28.2 17.7 28.3 17.4 C 28.3 17.3 28.4 16.9 28.4 16.5 C 28.4 16.5 28.4 16.1 28.4 16.1 Z M 35.5 12.3 L 35.5 13.9 L 34.2 13.9 C 34.2 13.9 34.15 16.79 34.2 16.8 C 34.2 17.4 34.2 17.7 34.2 17.8 C 34.2 17.9 34.3 18 34.4 18.1 C 34.4 18.1 34.6 18.2 34.7 18.2 C 34.9 18.2 35.1 18.1 35.5 18 C 35.5 18 35.6 19.5 35.6 19.5 C 35.2 19.7 34.7 19.8 34.1 19.8 C 33.8 19.8 33.4 19.7 33.2 19.6 C 32.9 19.5 32.7 19.3 32.6 19.1 C 32.4 18.9 32.3 18.7 32.3 18.4 C 32.2 18.2 32.2 17.7 32.2 17 C 32.22 17.03 32.2 13.9 32.2 13.9 L 31.3 13.9 L 31.3 12.3 L 32.2 12.3 L 32.2 10.9 L 34.2 9.8 L 34.2 12.3 L 35.5 12.3 Z M 36.8 11.3 L 36.8 9.6 L 38.7 9.6 L 38.7 11.3 L 36.8 11.3 Z M 36.8 19.6 L 36.8 12.3 L 38.7 12.3 L 38.7 19.6 L 36.8 19.6 Z M 42.7 19.6 L 39.8 12.3 L 41.8 12.3 L 43.1 16 C 43.1 16 43.54 17.27 43.5 17.3 C 43.6 17 43.7 16.8 43.7 16.7 C 43.8 16.4 43.9 16.2 43.9 16 C 43.94 16.04 45.3 12.3 45.3 12.3 L 47.3 12.3 L 44.4 19.6 L 42.7 19.6 Z M 52.7 17.3 C 52.7 17.3 54.6 17.6 54.6 17.6 C 54.3 18.3 54 18.8 53.4 19.2 C 52.9 19.6 52.2 19.8 51.4 19.8 C 50.2 19.8 49.2 19.3 48.6 18.5 C 48.2 17.9 47.9 17 47.9 16 C 47.9 14.8 48.2 13.9 48.9 13.2 C 49.5 12.5 50.3 12.2 51.2 12.2 C 52.3 12.2 53.2 12.5 53.8 13.2 C 54.4 14 54.7 15 54.7 16.5 C 54.7 16.5 49.9 16.5 49.9 16.5 C 49.9 17.1 50.1 17.5 50.3 17.8 C 50.6 18.2 51 18.3 51.5 18.3 C 51.8 18.3 52 18.2 52.2 18.1 C 52.4 17.9 52.6 17.6 52.7 17.3 Z M 52.8 15.3 C 52.8 14.8 52.6 14.4 52.4 14.1 C 52.1 13.8 51.8 13.6 51.4 13.6 C 50.9 13.6 50.6 13.8 50.3 14.1 C 50 14.4 49.9 14.8 49.9 15.3 C 49.9 15.3 52.8 15.3 52.8 15.3 Z M 69 18.4 C 69 18.4 67.9 19.9 67.9 19.9 C 67.3 19.6 66.8 19.2 66.2 18.7 C 65.8 19.1 65.4 19.3 64.9 19.5 C 64.5 19.7 63.9 19.8 63.3 19.8 C 62.1 19.8 61.1 19.4 60.5 18.7 C 60 18.2 59.8 17.6 59.8 16.8 C 59.8 16.2 60 15.6 60.3 15.1 C 60.7 14.6 61.3 14.2 62 13.8 C 61.7 13.4 61.5 13 61.3 12.6 C 61.1 12.2 61 11.9 61 11.6 C 61 11 61.3 10.5 61.7 10 C 62.2 9.6 62.9 9.4 63.8 9.4 C 64.7 9.4 65.4 9.6 65.9 10.1 C 66.3 10.5 66.6 11 66.6 11.7 C 66.6 12.1 66.5 12.5 66.2 12.8 C 66 13.2 65.5 13.6 64.8 14.1 C 64.8 14.1 66.2 15.9 66.2 15.9 C 66.3 15.6 66.5 15.2 66.6 14.8 C 66.6 14.8 68.3 15.2 68.3 15.2 C 68.1 15.8 68 16.2 67.9 16.5 C 67.7 16.8 67.6 17 67.5 17.2 C 67.7 17.4 67.9 17.7 68.3 17.9 C 68.6 18.1 68.9 18.3 69 18.4 Z M 63.8 12.9 C 63.8 12.9 64.32 12.52 64.3 12.5 C 64.7 12.2 64.9 11.9 64.9 11.6 C 64.9 11.4 64.8 11.2 64.6 11 C 64.4 10.8 64.2 10.8 63.9 10.8 C 63.6 10.8 63.3 10.8 63.2 11 C 63 11.1 62.9 11.3 62.9 11.5 C 62.9 11.7 63 12 63.3 12.4 C 63.33 12.37 63.8 12.9 63.8 12.9 Z M 63 15 C 62.6 15.2 62.3 15.5 62.1 15.8 C 61.8 16.1 61.7 16.4 61.7 16.8 C 61.7 17.2 61.9 17.5 62.1 17.8 C 62.4 18.1 62.8 18.2 63.2 18.2 C 63.5 18.2 63.8 18.1 64.1 18 C 64.4 17.9 64.7 17.7 65 17.4 C 65 17.4 63 15 63 15 Z M 74.2 9.6 C 74.2 9.6 77.85 9.57 77.9 9.6 C 78.7 9.6 79.3 9.6 79.8 9.8 C 80.3 9.9 80.9 10.2 81.3 10.7 C 81.7 11.1 82 11.7 82.2 12.3 C 82.4 12.9 82.6 13.7 82.6 14.7 C 82.6 15.5 82.5 16.2 82.3 16.8 C 82 17.5 81.6 18.1 81.2 18.6 C 80.8 18.9 80.4 19.2 79.8 19.4 C 79.3 19.5 78.7 19.6 78 19.6 C 77.96 19.59 74.2 19.6 74.2 19.6 L 74.2 9.6 Z M 76.2 11.3 L 76.2 17.9 C 76.2 17.9 77.69 17.9 77.7 17.9 C 78.3 17.9 78.7 17.9 78.9 17.8 C 79.2 17.7 79.5 17.6 79.7 17.4 C 79.9 17.2 80.1 16.9 80.3 16.4 C 80.4 16 80.5 15.4 80.5 14.6 C 80.5 13.8 80.4 13.2 80.3 12.8 C 80.1 12.4 79.9 12.1 79.7 11.8 C 79.4 11.6 79.1 11.4 78.8 11.4 C 78.5 11.3 77.9 11.3 77.1 11.3 C 77.09 11.27 76.2 11.3 76.2 11.3 Z M 88.5 17.3 C 88.5 17.3 90.4 17.6 90.4 17.6 C 90.1 18.3 89.7 18.8 89.2 19.2 C 88.7 19.6 88 19.8 87.2 19.8 C 86 19.8 85 19.3 84.4 18.5 C 83.9 17.9 83.7 17 83.7 16 C 83.7 14.8 84 13.9 84.6 13.2 C 85.3 12.5 86.1 12.2 87 12.2 C 88.1 12.2 89 12.5 89.6 13.2 C 90.2 14 90.5 15 90.5 16.5 C 90.5 16.5 85.7 16.5 85.7 16.5 C 85.7 17.1 85.8 17.5 86.1 17.8 C 86.4 18.2 86.8 18.3 87.2 18.3 C 87.5 18.3 87.8 18.2 88 18.1 C 88.2 17.9 88.4 17.6 88.5 17.3 Z M 88.6 15.3 C 88.6 14.8 88.4 14.4 88.1 14.1 C 87.9 13.8 87.5 13.6 87.1 13.6 C 86.7 13.6 86.4 13.8 86.1 14.1 C 85.8 14.4 85.7 14.8 85.7 15.3 C 85.7 15.3 88.6 15.3 88.6 15.3 Z M 91.4 17.5 C 91.4 17.5 93.3 17.2 93.3 17.2 C 93.4 17.6 93.5 17.9 93.8 18.1 C 94 18.3 94.4 18.4 94.8 18.4 C 95.3 18.4 95.7 18.3 96 18.1 C 96.1 18 96.2 17.8 96.2 17.6 C 96.2 17.4 96.2 17.3 96.1 17.2 C 96 17.1 95.8 17 95.4 17 C 93.9 16.6 92.9 16.3 92.5 16 C 91.9 15.6 91.6 15.1 91.6 14.4 C 91.6 13.8 91.9 13.2 92.4 12.8 C 92.9 12.4 93.6 12.2 94.7 12.2 C 95.7 12.2 96.4 12.3 96.9 12.7 C 97.4 13 97.7 13.5 97.9 14.1 C 97.9 14.1 96.1 14.4 96.1 14.4 C 96 14.1 95.9 13.9 95.7 13.8 C 95.4 13.6 95.1 13.5 94.7 13.5 C 94.2 13.5 93.9 13.6 93.6 13.8 C 93.5 13.9 93.4 14 93.4 14.2 C 93.4 14.3 93.5 14.4 93.6 14.5 C 93.8 14.6 94.4 14.8 95.4 15 C 96.4 15.3 97.1 15.6 97.5 15.9 C 97.9 16.2 98.2 16.7 98.2 17.3 C 98.2 18 97.9 18.6 97.3 19 C 96.8 19.5 95.9 19.8 94.8 19.8 C 93.9 19.8 93.1 19.6 92.5 19.2 C 91.9 18.8 91.5 18.2 91.4 17.5 Z M 99.8 11.3 L 99.8 9.6 L 101.8 9.6 L 101.8 11.3 L 99.8 11.3 Z M 99.8 19.6 L 99.8 12.3 L 101.8 12.3 L 101.8 19.6 L 99.8 19.6 Z M 103.5 20.3 C 103.5 20.2 103.5 20.2 103.5 20.1 C 103.5 20.1 105.7 20.3 105.7 20.3 C 105.8 20.6 105.9 20.8 106 20.9 C 106.2 21 106.5 21.1 106.9 21.1 C 107.4 21.1 107.7 21 108 20.8 C 108.1 20.7 108.3 20.6 108.4 20.4 C 108.4 20.2 108.5 19.9 108.5 19.5 C 108.5 19.5 108.5 18.4 108.5 18.4 C 107.9 19.2 107.2 19.6 106.3 19.6 C 105.3 19.6 104.5 19.2 104 18.4 C 103.5 17.7 103.3 16.9 103.3 15.9 C 103.3 14.7 103.6 13.8 104.2 13.1 C 104.8 12.5 105.5 12.2 106.4 12.2 C 107.3 12.2 108 12.6 108.6 13.4 C 108.58 13.35 108.6 12.3 108.6 12.3 L 110.4 12.3 C 110.4 12.3 110.37 18.85 110.4 18.8 C 110.4 19.7 110.3 20.3 110.2 20.8 C 110 21.2 109.8 21.5 109.6 21.8 C 109.3 22 109 22.2 108.5 22.3 C 108.1 22.5 107.6 22.5 106.9 22.5 C 105.7 22.5 104.8 22.3 104.3 21.9 C 103.8 21.5 103.5 21 103.5 20.3 C 103.5 20.3 103.5 20.3 103.5 20.3 Z M 105.3 15.8 C 105.3 16.6 105.4 17.1 105.7 17.5 C 106 17.9 106.4 18 106.8 18 C 107.3 18 107.7 17.9 108 17.5 C 108.3 17.1 108.5 16.6 108.5 15.9 C 108.5 15.1 108.3 14.5 108 14.2 C 107.7 13.8 107.3 13.6 106.8 13.6 C 106.4 13.6 106 13.8 105.7 14.2 C 105.4 14.5 105.3 15.1 105.3 15.8 Z M 118.9 19.6 L 117 19.6 C 117 19.6 116.96 15.89 117 15.9 C 117 15.1 116.9 14.6 116.8 14.4 C 116.8 14.1 116.6 14 116.4 13.8 C 116.2 13.7 116 13.6 115.8 13.6 C 115.4 13.6 115.1 13.7 114.9 13.9 C 114.6 14.1 114.4 14.3 114.3 14.6 C 114.2 14.9 114.2 15.5 114.2 16.3 C 114.18 16.3 114.2 19.6 114.2 19.6 L 112.3 19.6 L 112.3 12.3 L 114 12.3 C 114 12.3 114.04 13.4 114 13.4 C 114.7 12.6 115.5 12.2 116.4 12.2 C 116.9 12.2 117.2 12.2 117.6 12.4 C 117.9 12.6 118.2 12.7 118.4 13 C 118.6 13.2 118.7 13.5 118.8 13.8 C 118.8 14.1 118.9 14.5 118.9 15.1 C 118.88 15.08 118.9 19.6 118.9 19.6 Z " stroke="none" fill="#fff"/>  </g></svg>