<?xml version="1.0" standalone="no"?><!DOCTYPE svg PUBLIC "-//W3C//DTD SVG 1.1//EN" "http://www.w3.org/Graphics/SVG/1.1/DTD/svg11.dtd"><svg xmlns="http://www.w3.org/2000/svg" version="1.1" width="136.2px" height="23.9px" viewBox="0 -5 136.2 23.9" style="top:-5px">  <desc>Account Management</desc>  <defs/>  <g id="Polygon138733">    <path d="M 0 10.2 L 3.8 0.2 L 5.3 0.2 L 9.4 10.2 L 7.8 10.2 L 6.7 7.2 L 2.5 7.2 L 1.4 10.2 L 0 10.2 Z M 2.9 6.1 L 6.3 6.1 C 6.3 6.1 5.22 3.3 5.2 3.3 C 4.9 2.5 4.7 1.8 4.5 1.2 C 4.4 1.9 4.2 2.5 4 3.1 C 3.97 3.14 2.9 6.1 2.9 6.1 Z M 15 7.5 C 15 7.5 16.2 7.7 16.2 7.7 C 16.1 8.5 15.7 9.2 15.2 9.6 C 14.6 10.1 14 10.4 13.2 10.4 C 12.2 10.4 11.4 10 10.8 9.4 C 10.2 8.7 9.9 7.8 9.9 6.6 C 9.9 5.8 10 5.1 10.3 4.5 C 10.5 3.9 10.9 3.5 11.5 3.2 C 12 2.9 12.6 2.8 13.2 2.8 C 14 2.8 14.6 3 15.1 3.4 C 15.6 3.8 16 4.3 16.1 5.1 C 16.1 5.1 14.9 5.3 14.9 5.3 C 14.8 4.8 14.6 4.4 14.3 4.1 C 14 3.9 13.7 3.8 13.2 3.8 C 12.6 3.8 12.1 4 11.7 4.4 C 11.3 4.9 11.1 5.6 11.1 6.6 C 11.1 7.5 11.3 8.2 11.7 8.7 C 12.1 9.1 12.6 9.3 13.2 9.3 C 13.7 9.3 14.1 9.2 14.4 8.9 C 14.7 8.6 14.9 8.1 15 7.5 Z M 22 7.5 C 22 7.5 23.2 7.7 23.2 7.7 C 23.1 8.5 22.7 9.2 22.2 9.6 C 21.6 10.1 21 10.4 20.2 10.4 C 19.2 10.4 18.4 10 17.8 9.4 C 17.2 8.7 16.9 7.8 16.9 6.6 C 16.9 5.8 17 5.1 17.3 4.5 C 17.5 3.9 17.9 3.5 18.5 3.2 C 19 2.9 19.6 2.8 20.2 2.8 C 21 2.8 21.6 3 22.1 3.4 C 22.6 3.8 23 4.3 23.1 5.1 C 23.1 5.1 21.9 5.3 21.9 5.3 C 21.8 4.8 21.6 4.4 21.3 4.1 C 21 3.9 20.7 3.8 20.2 3.8 C 19.6 3.8 19.1 4 18.7 4.4 C 18.3 4.9 18.1 5.6 18.1 6.6 C 18.1 7.5 18.3 8.2 18.7 8.7 C 19.1 9.1 19.6 9.3 20.2 9.3 C 20.7 9.3 21.1 9.2 21.4 8.9 C 21.7 8.6 21.9 8.1 22 7.5 Z M 23.8 6.6 C 23.8 5.2 24.2 4.2 24.9 3.6 C 25.5 3 26.3 2.8 27.2 2.8 C 28.2 2.8 29 3.1 29.7 3.7 C 30.3 4.4 30.6 5.3 30.6 6.5 C 30.6 7.4 30.5 8.1 30.2 8.7 C 29.9 9.2 29.5 9.6 29 9.9 C 28.4 10.2 27.8 10.4 27.2 10.4 C 26.2 10.4 25.4 10 24.7 9.4 C 24.1 8.7 23.8 7.8 23.8 6.6 Z M 25.1 6.6 C 25.1 7.5 25.3 8.2 25.7 8.7 C 26.1 9.1 26.6 9.3 27.2 9.3 C 27.8 9.3 28.3 9.1 28.7 8.6 C 29.1 8.2 29.3 7.5 29.3 6.5 C 29.3 5.6 29.1 4.9 28.7 4.5 C 28.3 4 27.8 3.8 27.2 3.8 C 26.6 3.8 26.1 4 25.7 4.5 C 25.3 4.9 25.1 5.6 25.1 6.6 Z M 36.8 10.2 C 36.8 10.2 36.8 9.13 36.8 9.1 C 36.2 9.9 35.5 10.4 34.5 10.4 C 34.1 10.4 33.7 10.3 33.3 10.1 C 32.9 9.9 32.7 9.7 32.5 9.5 C 32.3 9.2 32.2 8.9 32.1 8.6 C 32 8.3 32 8 32 7.4 C 32.02 7.43 32 2.9 32 2.9 L 33.3 2.9 C 33.3 2.9 33.25 6.96 33.3 7 C 33.3 7.6 33.3 8 33.3 8.3 C 33.4 8.6 33.6 8.8 33.8 9 C 34.1 9.2 34.4 9.3 34.7 9.3 C 35.1 9.3 35.5 9.2 35.8 9 C 36.1 8.8 36.3 8.6 36.5 8.2 C 36.6 7.9 36.7 7.4 36.7 6.8 C 36.67 6.82 36.7 2.9 36.7 2.9 L 37.9 2.9 L 37.9 10.2 L 36.8 10.2 Z M 39.8 10.2 L 39.8 2.9 L 40.9 2.9 C 40.9 2.9 40.94 3.96 40.9 4 C 41.5 3.2 42.2 2.8 43.3 2.8 C 43.7 2.8 44.1 2.8 44.5 3 C 44.8 3.2 45.1 3.4 45.3 3.6 C 45.5 3.9 45.6 4.2 45.7 4.5 C 45.7 4.8 45.7 5.2 45.7 5.7 C 45.73 5.73 45.7 10.2 45.7 10.2 L 44.5 10.2 C 44.5 10.2 44.5 5.78 44.5 5.8 C 44.5 5.3 44.5 4.9 44.4 4.7 C 44.3 4.4 44.1 4.2 43.8 4.1 C 43.6 3.9 43.3 3.8 43 3.8 C 42.5 3.8 42 4 41.6 4.3 C 41.3 4.7 41.1 5.3 41.1 6.2 C 41.06 6.23 41.1 10.2 41.1 10.2 L 39.8 10.2 Z M 49.8 9.1 C 49.9 9.1 50.1 9.1 50.3 9.1 C 50.3 9.1 50.5 10.2 50.5 10.2 C 50.1 10.3 49.8 10.3 49.6 10.3 C 49.1 10.3 48.8 10.2 48.5 10.1 C 48.3 9.9 48.1 9.7 48 9.5 C 47.9 9.3 47.8 8.8 47.8 8.1 C 47.84 8.07 47.8 3.9 47.8 3.9 L 46.9 3.9 L 46.9 2.9 L 47.8 2.9 L 47.8 1.1 L 49.1 0.4 L 49.1 2.9 L 50.3 2.9 L 50.3 3.9 L 49.1 3.9 C 49.1 3.9 49.07 8.13 49.1 8.1 C 49.1 8.5 49.1 8.7 49.1 8.8 C 49.2 8.9 49.2 9 49.3 9.1 C 49.4 9.1 49.6 9.1 49.8 9.1 C 49.8 9.1 49.8 9.1 49.8 9.1 Z M 55.5 10.2 L 55.5 0.2 L 57.5 0.2 C 57.5 0.2 59.88 7.27 59.9 7.3 C 60.1 7.9 60.3 8.4 60.4 8.8 C 60.5 8.4 60.7 7.9 60.9 7.1 C 60.89 7.14 63.3 0.2 63.3 0.2 L 65.1 0.2 L 65.1 10.2 L 63.8 10.2 L 63.8 1.8 L 60.9 10.2 L 59.7 10.2 L 56.8 1.7 L 56.8 10.2 L 55.5 10.2 Z M 72 10.2 C 71.9 9.9 71.8 9.6 71.8 9.3 C 71.3 9.7 70.9 10 70.5 10.1 C 70.1 10.3 69.6 10.4 69.1 10.4 C 68.3 10.4 67.7 10.2 67.3 9.8 C 66.9 9.4 66.6 8.9 66.6 8.3 C 66.6 7.9 66.7 7.6 66.9 7.3 C 67 7 67.3 6.8 67.5 6.6 C 67.8 6.4 68.1 6.3 68.4 6.2 C 68.6 6.1 69 6.1 69.5 6 C 70.5 5.9 71.2 5.7 71.7 5.6 C 71.7 5.4 71.7 5.3 71.7 5.3 C 71.7 4.8 71.6 4.4 71.4 4.2 C 71 3.9 70.6 3.8 70 3.8 C 69.4 3.8 68.9 3.9 68.7 4.1 C 68.4 4.3 68.2 4.7 68.1 5.2 C 68.1 5.2 66.9 5 66.9 5 C 67 4.5 67.1 4.1 67.4 3.8 C 67.6 3.4 68 3.2 68.5 3 C 69 2.9 69.5 2.8 70.1 2.8 C 70.7 2.8 71.3 2.8 71.6 3 C 72 3.1 72.3 3.3 72.5 3.5 C 72.7 3.8 72.8 4 72.9 4.4 C 72.9 4.6 72.9 5 72.9 5.5 C 72.9 5.5 72.9 7.2 72.9 7.2 C 72.9 8.3 73 9 73 9.3 C 73.1 9.6 73.2 9.9 73.3 10.2 C 73.33 10.19 72 10.2 72 10.2 C 72 10.2 72.04 10.19 72 10.2 Z M 71.7 6.5 C 71.2 6.7 70.6 6.9 69.7 7 C 69.2 7.1 68.8 7.2 68.6 7.3 C 68.4 7.4 68.2 7.5 68.1 7.7 C 68 7.8 68 8 68 8.2 C 68 8.6 68.1 8.8 68.3 9.1 C 68.6 9.3 68.9 9.4 69.4 9.4 C 69.9 9.4 70.3 9.3 70.7 9.1 C 71.1 8.9 71.3 8.6 71.5 8.2 C 71.6 8 71.7 7.5 71.7 7 C 71.7 7 71.7 6.5 71.7 6.5 Z M 74.8 10.2 L 74.8 2.9 L 76 2.9 C 76 2.9 75.95 3.96 76 4 C 76.5 3.2 77.3 2.8 78.3 2.8 C 78.7 2.8 79.1 2.8 79.5 3 C 79.8 3.2 80.1 3.4 80.3 3.6 C 80.5 3.9 80.6 4.2 80.7 4.5 C 80.7 4.8 80.7 5.2 80.7 5.7 C 80.75 5.73 80.7 10.2 80.7 10.2 L 79.5 10.2 C 79.5 10.2 79.52 5.78 79.5 5.8 C 79.5 5.3 79.5 4.9 79.4 4.7 C 79.3 4.4 79.1 4.2 78.9 4.1 C 78.6 3.9 78.3 3.8 78 3.8 C 77.5 3.8 77 4 76.6 4.3 C 76.3 4.7 76.1 5.3 76.1 6.2 C 76.08 6.23 76.1 10.2 76.1 10.2 L 74.8 10.2 Z M 87.6 10.2 C 87.5 9.9 87.4 9.6 87.4 9.3 C 86.9 9.7 86.5 10 86.1 10.1 C 85.6 10.3 85.2 10.4 84.7 10.4 C 83.9 10.4 83.3 10.2 82.9 9.8 C 82.4 9.4 82.2 8.9 82.2 8.3 C 82.2 7.9 82.3 7.6 82.5 7.3 C 82.6 7 82.8 6.8 83.1 6.6 C 83.4 6.4 83.7 6.3 84 6.2 C 84.2 6.1 84.6 6.1 85.1 6 C 86.1 5.9 86.8 5.7 87.3 5.6 C 87.3 5.4 87.3 5.3 87.3 5.3 C 87.3 4.8 87.2 4.4 86.9 4.2 C 86.6 3.9 86.1 3.8 85.5 3.8 C 84.9 3.8 84.5 3.9 84.2 4.1 C 84 4.3 83.8 4.7 83.6 5.2 C 83.6 5.2 82.4 5 82.4 5 C 82.5 4.5 82.7 4.1 83 3.8 C 83.2 3.4 83.6 3.2 84.1 3 C 84.5 2.9 85.1 2.8 85.7 2.8 C 86.3 2.8 86.8 2.8 87.2 3 C 87.6 3.1 87.9 3.3 88.1 3.5 C 88.2 3.8 88.4 4 88.5 4.4 C 88.5 4.6 88.5 5 88.5 5.5 C 88.5 5.5 88.5 7.2 88.5 7.2 C 88.5 8.3 88.5 9 88.6 9.3 C 88.6 9.6 88.7 9.9 88.9 10.2 C 88.9 10.19 87.6 10.2 87.6 10.2 C 87.6 10.2 87.62 10.19 87.6 10.2 Z M 87.3 6.5 C 86.8 6.7 86.2 6.9 85.3 7 C 84.8 7.1 84.4 7.2 84.2 7.3 C 84 7.4 83.8 7.5 83.7 7.7 C 83.6 7.8 83.5 8 83.5 8.2 C 83.5 8.6 83.7 8.8 83.9 9.1 C 84.1 9.3 84.5 9.4 85 9.4 C 85.5 9.4 85.9 9.3 86.3 9.1 C 86.6 8.9 86.9 8.6 87.1 8.2 C 87.2 8 87.3 7.5 87.3 7 C 87.3 7 87.3 6.5 87.3 6.5 Z M 90.2 10.8 C 90.2 10.8 91.4 11 91.4 11 C 91.4 11.3 91.6 11.6 91.8 11.8 C 92.1 12 92.5 12.1 93.1 12.1 C 93.6 12.1 94.1 12 94.4 11.8 C 94.7 11.6 94.9 11.2 95 10.8 C 95.1 10.6 95.1 10 95.1 9.2 C 94.6 9.9 93.9 10.2 93.1 10.2 C 92.1 10.2 91.3 9.8 90.8 9.1 C 90.2 8.4 89.9 7.5 89.9 6.5 C 89.9 5.8 90.1 5.2 90.3 4.6 C 90.6 4 90.9 3.6 91.4 3.2 C 91.9 2.9 92.4 2.8 93.1 2.8 C 93.9 2.8 94.7 3.1 95.2 3.8 C 95.21 3.81 95.2 2.9 95.2 2.9 L 96.3 2.9 C 96.3 2.9 96.35 9.21 96.3 9.2 C 96.3 10.3 96.2 11.1 96 11.6 C 95.8 12.1 95.4 12.5 94.9 12.7 C 94.4 13 93.8 13.1 93.1 13.1 C 92.2 13.1 91.5 12.9 91 12.6 C 90.4 12.2 90.2 11.6 90.2 10.8 Z M 91.2 6.4 C 91.2 7.4 91.4 8.1 91.8 8.5 C 92.2 9 92.6 9.2 93.2 9.2 C 93.8 9.2 94.2 9 94.6 8.5 C 95 8.1 95.2 7.4 95.2 6.5 C 95.2 5.6 95 4.9 94.6 4.5 C 94.2 4 93.7 3.8 93.2 3.8 C 92.6 3.8 92.2 4 91.8 4.5 C 91.4 4.9 91.2 5.6 91.2 6.4 Z M 103.2 7.9 C 103.2 7.9 104.4 8 104.4 8 C 104.2 8.8 103.9 9.3 103.3 9.7 C 102.8 10.2 102.1 10.4 101.3 10.4 C 100.2 10.4 99.4 10 98.7 9.4 C 98.1 8.7 97.8 7.8 97.8 6.6 C 97.8 5.4 98.1 4.5 98.7 3.8 C 99.4 3.1 100.2 2.8 101.2 2.8 C 102.2 2.8 102.9 3.1 103.6 3.8 C 104.2 4.4 104.5 5.4 104.5 6.5 C 104.5 6.6 104.5 6.7 104.5 6.9 C 104.5 6.9 99.1 6.9 99.1 6.9 C 99.1 7.7 99.3 8.3 99.7 8.7 C 100.1 9.1 100.7 9.3 101.3 9.3 C 101.7 9.3 102.1 9.2 102.4 9 C 102.7 8.8 103 8.4 103.2 7.9 Z M 99.1 5.9 C 99.1 5.9 103.2 5.9 103.2 5.9 C 103.1 5.3 103 4.8 102.7 4.5 C 102.3 4 101.8 3.8 101.2 3.8 C 100.6 3.8 100.2 4 99.8 4.3 C 99.4 4.7 99.2 5.2 99.1 5.9 Z M 106 10.2 L 106 2.9 L 107.1 2.9 C 107.1 2.9 107.09 3.95 107.1 4 C 107.3 3.6 107.6 3.3 108 3.1 C 108.4 2.9 108.8 2.8 109.3 2.8 C 109.8 2.8 110.3 2.9 110.6 3.1 C 111 3.3 111.2 3.6 111.3 4 C 111.9 3.2 112.7 2.8 113.6 2.8 C 114.3 2.8 114.9 3 115.2 3.4 C 115.6 3.8 115.8 4.4 115.8 5.2 C 115.83 5.21 115.8 10.2 115.8 10.2 L 114.6 10.2 C 114.6 10.2 114.6 5.62 114.6 5.6 C 114.6 5.1 114.6 4.8 114.5 4.6 C 114.4 4.3 114.3 4.2 114.1 4 C 113.8 3.9 113.6 3.8 113.3 3.8 C 112.8 3.8 112.4 4 112 4.3 C 111.7 4.7 111.5 5.2 111.5 6 C 111.54 5.97 111.5 10.2 111.5 10.2 L 110.3 10.2 C 110.3 10.2 110.3 5.48 110.3 5.5 C 110.3 4.9 110.2 4.5 110 4.2 C 109.8 4 109.5 3.8 109 3.8 C 108.7 3.8 108.4 3.9 108.1 4.1 C 107.8 4.3 107.6 4.6 107.4 4.9 C 107.3 5.3 107.2 5.8 107.2 6.4 C 107.22 6.43 107.2 10.2 107.2 10.2 L 106 10.2 Z M 122.6 7.9 C 122.6 7.9 123.9 8 123.9 8 C 123.7 8.8 123.3 9.3 122.8 9.7 C 122.2 10.2 121.5 10.4 120.7 10.4 C 119.6 10.4 118.8 10 118.2 9.4 C 117.6 8.7 117.2 7.8 117.2 6.6 C 117.2 5.4 117.6 4.5 118.2 3.8 C 118.8 3.1 119.6 2.8 120.6 2.8 C 121.6 2.8 122.4 3.1 123 3.8 C 123.6 4.4 123.9 5.4 123.9 6.5 C 123.9 6.6 123.9 6.7 123.9 6.9 C 123.9 6.9 118.5 6.9 118.5 6.9 C 118.6 7.7 118.8 8.3 119.2 8.7 C 119.6 9.1 120.1 9.3 120.7 9.3 C 121.2 9.3 121.5 9.2 121.9 9 C 122.2 8.8 122.4 8.4 122.6 7.9 Z M 118.6 5.9 C 118.6 5.9 122.6 5.9 122.6 5.9 C 122.6 5.3 122.4 4.8 122.2 4.5 C 121.8 4 121.3 3.8 120.6 3.8 C 120.1 3.8 119.6 4 119.2 4.3 C 118.8 4.7 118.6 5.2 118.6 5.9 Z M 125.4 10.2 L 125.4 2.9 L 126.5 2.9 C 126.5 2.9 126.55 3.96 126.5 4 C 127.1 3.2 127.9 2.8 128.9 2.8 C 129.3 2.8 129.7 2.8 130.1 3 C 130.4 3.2 130.7 3.4 130.9 3.6 C 131.1 3.9 131.2 4.2 131.3 4.5 C 131.3 4.8 131.3 5.2 131.3 5.7 C 131.34 5.73 131.3 10.2 131.3 10.2 L 130.1 10.2 C 130.1 10.2 130.11 5.78 130.1 5.8 C 130.1 5.3 130.1 4.9 130 4.7 C 129.9 4.4 129.7 4.2 129.5 4.1 C 129.2 3.9 128.9 3.8 128.6 3.8 C 128.1 3.8 127.6 4 127.2 4.3 C 126.9 4.7 126.7 5.3 126.7 6.2 C 126.67 6.23 126.7 10.2 126.7 10.2 L 125.4 10.2 Z M 135.4 9.1 C 135.5 9.1 135.7 9.1 135.9 9.1 C 135.9 9.1 136.1 10.2 136.1 10.2 C 135.7 10.3 135.4 10.3 135.2 10.3 C 134.7 10.3 134.4 10.2 134.1 10.1 C 133.9 9.9 133.7 9.7 133.6 9.5 C 133.5 9.3 133.5 8.8 133.5 8.1 C 133.45 8.07 133.5 3.9 133.5 3.9 L 132.5 3.9 L 132.5 2.9 L 133.5 2.9 L 133.5 1.1 L 134.7 0.4 L 134.7 2.9 L 135.9 2.9 L 135.9 3.9 L 134.7 3.9 C 134.7 3.9 134.67 8.13 134.7 8.1 C 134.7 8.5 134.7 8.7 134.7 8.8 C 134.8 8.9 134.9 9 135 9.1 C 135 9.1 135.2 9.1 135.4 9.1 C 135.4 9.1 135.4 9.1 135.4 9.1 Z " stroke="none" fill="#ffffff"/>  </g></svg>