<?xml version="1.0" standalone="no"?><!DOCTYPE svg PUBLIC "-//W3C//DTD SVG 1.1//EN" "http://www.w3.org/Graphics/SVG/1.1/DTD/svg11.dtd"><svg xmlns="http://www.w3.org/2000/svg" version="1.1" width="184.2px" height="123.9px" viewBox="0 -5 184.2 123.9" style="top:-5px">  <desc>DSW House Unit 3 Hayfield Business Park Field Lane Auckley Doncaster South Yorkshire DN9 3FL</desc>  <defs/>  <g id="Polygon106932">    <path d="M 1.1 111 L 1.1 101 C 1.1 101 4.53 100.97 4.5 101 C 5.3 101 5.9 101 6.3 101.1 C 6.9 101.2 7.4 101.5 7.8 101.8 C 8.3 102.3 8.7 102.8 9 103.5 C 9.2 104.2 9.4 105 9.4 105.9 C 9.4 106.7 9.3 107.4 9.1 108 C 8.9 108.5 8.7 109 8.4 109.4 C 8.1 109.8 7.8 110.1 7.5 110.3 C 7.2 110.5 6.8 110.7 6.3 110.8 C 5.8 110.9 5.3 111 4.7 111 C 4.7 110.99 1.1 111 1.1 111 Z M 2.4 109.8 C 2.4 109.8 4.55 109.81 4.5 109.8 C 5.2 109.8 5.7 109.7 6.1 109.6 C 6.5 109.5 6.8 109.3 7 109.1 C 7.3 108.8 7.6 108.4 7.7 107.8 C 7.9 107.3 8 106.7 8 105.9 C 8 104.9 7.8 104.1 7.5 103.5 C 7.1 102.9 6.7 102.6 6.2 102.4 C 5.9 102.2 5.3 102.2 4.5 102.2 C 4.51 102.15 2.4 102.2 2.4 102.2 L 2.4 109.8 Z M 11.2 111 L 11.2 101 L 12.5 101 L 17.8 108.8 L 17.8 101 L 19.1 101 L 19.1 111 L 17.7 111 L 12.4 103.1 L 12.4 111 L 11.2 111 Z M 21 108.7 C 21 108.7 22.2 108.6 22.2 108.6 C 22.3 109.1 22.5 109.5 22.7 109.8 C 23 110 23.4 110.2 23.8 110.2 C 24.2 110.2 24.5 110.1 24.8 109.9 C 25.1 109.7 25.3 109.5 25.5 109.2 C 25.7 108.9 25.9 108.5 26 108 C 26.1 107.5 26.2 107 26.2 106.5 C 26.2 106.5 26.2 106.4 26.2 106.3 C 25.9 106.7 25.6 107 25.2 107.2 C 24.7 107.5 24.3 107.6 23.8 107.6 C 22.9 107.6 22.2 107.3 21.7 106.7 C 21.1 106.1 20.8 105.3 20.8 104.3 C 20.8 103.3 21.1 102.5 21.7 101.9 C 22.3 101.2 23.1 100.9 24 100.9 C 24.6 100.9 25.2 101.1 25.7 101.5 C 26.3 101.8 26.7 102.3 27 103 C 27.3 103.6 27.4 104.5 27.4 105.8 C 27.4 107.1 27.3 108.1 27 108.8 C 26.7 109.6 26.3 110.2 25.7 110.6 C 25.2 111 24.5 111.2 23.8 111.2 C 23 111.2 22.4 110.9 21.9 110.5 C 21.4 110.1 21.1 109.5 21 108.7 Z M 26 104.3 C 26 103.5 25.8 103 25.5 102.6 C 25.1 102.2 24.6 101.9 24.1 101.9 C 23.6 101.9 23.1 102.2 22.7 102.6 C 22.3 103.1 22.1 103.6 22.1 104.4 C 22.1 105 22.3 105.5 22.6 105.9 C 23 106.3 23.5 106.5 24.1 106.5 C 24.6 106.5 25.1 106.3 25.5 105.9 C 25.8 105.5 26 105 26 104.3 Z M 32.5 108.3 C 32.5 108.3 33.7 108.2 33.7 108.2 C 33.9 108.9 34.1 109.4 34.4 109.7 C 34.8 110 35.2 110.2 35.7 110.2 C 36.3 110.2 36.7 110 37.1 109.6 C 37.5 109.1 37.7 108.7 37.7 108.1 C 37.7 107.5 37.6 107 37.2 106.7 C 36.8 106.3 36.3 106.1 35.8 106.1 C 35.5 106.1 35.3 106.2 34.9 106.2 C 34.9 106.2 35 105.2 35 105.2 C 35.1 105.2 35.2 105.2 35.2 105.2 C 35.8 105.2 36.2 105 36.7 104.8 C 37.1 104.5 37.3 104.1 37.3 103.5 C 37.3 103.1 37.1 102.7 36.8 102.4 C 36.5 102.1 36.1 101.9 35.6 101.9 C 35.2 101.9 34.8 102.1 34.5 102.4 C 34.1 102.7 33.9 103.1 33.8 103.7 C 33.8 103.7 32.6 103.5 32.6 103.5 C 32.8 102.7 33.1 102.1 33.6 101.6 C 34.2 101.2 34.8 100.9 35.6 100.9 C 36.2 100.9 36.7 101 37.1 101.3 C 37.6 101.5 37.9 101.8 38.2 102.2 C 38.4 102.6 38.6 103.1 38.6 103.5 C 38.6 104 38.4 104.4 38.2 104.7 C 38 105.1 37.6 105.4 37.2 105.6 C 37.8 105.7 38.2 106 38.6 106.4 C 38.9 106.8 39 107.4 39 108 C 39 108.9 38.7 109.6 38.1 110.3 C 37.5 110.9 36.6 111.2 35.7 111.2 C 34.8 111.2 34.1 110.9 33.5 110.4 C 32.9 109.9 32.6 109.2 32.5 108.3 Z M 40.8 111 L 40.8 101 L 47.6 101 L 47.6 102.2 L 42.2 102.2 L 42.2 105.3 L 46.9 105.3 L 46.9 106.4 L 42.2 106.4 L 42.2 111 L 40.8 111 Z M 49.3 111 L 49.3 101 L 50.6 101 L 50.6 109.8 L 55.5 109.8 L 55.5 111 L 49.3 111 Z " stroke="none" fill="#000"/>  </g>  <g id="Polygon106931">    <path d="M 0.6 91 C 0.6 91 1.9 90.9 1.9 90.9 C 1.9 91.4 2.1 91.8 2.3 92.1 C 2.5 92.4 2.8 92.7 3.3 92.9 C 3.8 93.1 4.3 93.2 4.8 93.2 C 5.3 93.2 5.8 93.1 6.2 92.9 C 6.6 92.8 6.9 92.6 7 92.3 C 7.2 92.1 7.3 91.8 7.3 91.5 C 7.3 91.2 7.2 90.9 7.1 90.6 C 6.9 90.4 6.6 90.2 6.2 90.1 C 5.9 90 5.3 89.8 4.4 89.6 C 3.4 89.3 2.8 89.1 2.4 88.9 C 2 88.7 1.6 88.4 1.4 88 C 1.1 87.6 1 87.2 1 86.8 C 1 86.3 1.2 85.8 1.4 85.3 C 1.7 84.9 2.1 84.6 2.7 84.3 C 3.3 84.1 3.9 84 4.5 84 C 5.3 84 5.9 84.1 6.5 84.4 C 7.1 84.6 7.5 85 7.8 85.4 C 8.1 85.9 8.3 86.4 8.3 87 C 8.3 87 7 87.1 7 87.1 C 7 86.5 6.7 86 6.3 85.7 C 5.9 85.3 5.4 85.2 4.6 85.2 C 3.8 85.2 3.2 85.3 2.8 85.6 C 2.5 85.9 2.3 86.3 2.3 86.7 C 2.3 87 2.4 87.3 2.7 87.6 C 2.9 87.8 3.6 88 4.7 88.3 C 5.8 88.5 6.5 88.7 6.9 88.9 C 7.5 89.2 7.9 89.5 8.2 89.9 C 8.5 90.3 8.6 90.8 8.6 91.4 C 8.6 91.9 8.5 92.4 8.1 92.9 C 7.8 93.3 7.4 93.7 6.8 94 C 6.3 94.2 5.6 94.4 4.9 94.4 C 4 94.4 3.2 94.2 2.6 94 C 2 93.7 1.5 93.3 1.2 92.8 C 0.8 92.2 0.6 91.6 0.6 91 Z M 9.8 90.6 C 9.8 89.2 10.2 88.2 10.9 87.6 C 11.5 87 12.3 86.8 13.2 86.8 C 14.2 86.8 15 87.1 15.7 87.7 C 16.3 88.4 16.6 89.3 16.6 90.5 C 16.6 91.4 16.5 92.1 16.2 92.7 C 15.9 93.2 15.5 93.6 15 93.9 C 14.4 94.2 13.8 94.4 13.2 94.4 C 12.2 94.4 11.4 94 10.7 93.4 C 10.1 92.7 9.8 91.8 9.8 90.6 Z M 11.1 90.6 C 11.1 91.5 11.3 92.2 11.7 92.7 C 12.1 93.1 12.6 93.3 13.2 93.3 C 13.8 93.3 14.3 93.1 14.7 92.6 C 15.1 92.2 15.3 91.5 15.3 90.5 C 15.3 89.6 15.1 88.9 14.7 88.5 C 14.3 88 13.8 87.8 13.2 87.8 C 12.6 87.8 12.1 88 11.7 88.5 C 11.3 88.9 11.1 89.6 11.1 90.6 Z M 22.8 94.2 C 22.8 94.2 22.8 93.13 22.8 93.1 C 22.2 93.9 21.5 94.4 20.5 94.4 C 20.1 94.4 19.7 94.3 19.3 94.1 C 18.9 93.9 18.7 93.7 18.5 93.5 C 18.3 93.2 18.2 92.9 18.1 92.6 C 18 92.3 18 92 18 91.4 C 18.02 91.43 18 86.9 18 86.9 L 19.3 86.9 C 19.3 86.9 19.25 90.96 19.3 91 C 19.3 91.6 19.3 92 19.3 92.3 C 19.4 92.6 19.6 92.8 19.8 93 C 20.1 93.2 20.4 93.3 20.7 93.3 C 21.1 93.3 21.5 93.2 21.8 93 C 22.1 92.8 22.3 92.6 22.5 92.2 C 22.6 91.9 22.7 91.4 22.7 90.8 C 22.67 90.82 22.7 86.9 22.7 86.9 L 23.9 86.9 L 23.9 94.2 L 22.8 94.2 Z M 28 93.1 C 28.1 93.1 28.3 93.1 28.5 93.1 C 28.5 93.1 28.7 94.2 28.7 94.2 C 28.4 94.3 28 94.3 27.8 94.3 C 27.3 94.3 27 94.2 26.7 94.1 C 26.5 93.9 26.3 93.7 26.2 93.5 C 26.1 93.3 26.1 92.8 26.1 92.1 C 26.06 92.07 26.1 87.9 26.1 87.9 L 25.2 87.9 L 25.2 86.9 L 26.1 86.9 L 26.1 85.1 L 27.3 84.4 L 27.3 86.9 L 28.5 86.9 L 28.5 87.9 L 27.3 87.9 C 27.3 87.9 27.28 92.13 27.3 92.1 C 27.3 92.5 27.3 92.7 27.3 92.8 C 27.4 92.9 27.5 93 27.6 93.1 C 27.7 93.1 27.8 93.1 28 93.1 C 28 93.1 28 93.1 28 93.1 Z M 29.7 94.2 L 29.7 84.2 L 31 84.2 C 31 84.2 30.95 87.77 31 87.8 C 31.5 87.1 32.3 86.8 33.1 86.8 C 33.7 86.8 34.1 86.9 34.5 87.1 C 34.9 87.3 35.2 87.6 35.4 88 C 35.6 88.3 35.6 88.9 35.6 89.6 C 35.64 89.59 35.6 94.2 35.6 94.2 L 34.4 94.2 C 34.4 94.2 34.41 89.59 34.4 89.6 C 34.4 89 34.3 88.5 34 88.2 C 33.7 88 33.4 87.8 32.9 87.8 C 32.5 87.8 32.2 87.9 31.8 88.1 C 31.5 88.3 31.3 88.6 31.2 88.9 C 31 89.2 31 89.7 31 90.2 C 30.95 90.22 31 94.2 31 94.2 L 29.7 94.2 Z M 44.1 94.2 L 44.1 89.9 L 40.3 84.2 L 41.9 84.2 C 41.9 84.2 43.85 87.19 43.9 87.2 C 44.2 87.8 44.6 88.3 44.9 88.9 C 45.2 88.4 45.5 87.8 46 87.1 C 45.96 87.12 47.9 84.2 47.9 84.2 L 49.5 84.2 L 45.5 89.9 L 45.5 94.2 L 44.1 94.2 Z M 48.7 90.6 C 48.7 89.2 49.1 88.2 49.9 87.6 C 50.5 87 51.2 86.8 52.1 86.8 C 53.1 86.8 54 87.1 54.6 87.7 C 55.2 88.4 55.5 89.3 55.5 90.5 C 55.5 91.4 55.4 92.1 55.1 92.7 C 54.8 93.2 54.4 93.6 53.9 93.9 C 53.4 94.2 52.8 94.4 52.1 94.4 C 51.1 94.4 50.3 94 49.7 93.4 C 49.1 92.7 48.7 91.8 48.7 90.6 Z M 50 90.6 C 50 91.5 50.2 92.2 50.6 92.7 C 51 93.1 51.5 93.3 52.1 93.3 C 52.8 93.3 53.3 93.1 53.7 92.6 C 54.1 92.2 54.3 91.5 54.3 90.5 C 54.3 89.6 54.1 88.9 53.7 88.5 C 53.3 88 52.8 87.8 52.1 87.8 C 51.5 87.8 51 88 50.6 88.5 C 50.2 88.9 50 89.6 50 90.6 Z M 57 94.2 L 57 86.9 L 58.1 86.9 C 58.1 86.9 58.08 88.03 58.1 88 C 58.4 87.5 58.6 87.2 58.9 87 C 59.1 86.9 59.4 86.8 59.7 86.8 C 60.1 86.8 60.5 86.9 60.9 87.2 C 60.9 87.2 60.5 88.3 60.5 88.3 C 60.2 88.1 59.9 88 59.6 88 C 59.3 88 59.1 88.1 58.9 88.3 C 58.6 88.4 58.5 88.7 58.4 89 C 58.3 89.4 58.2 89.9 58.2 90.4 C 58.2 90.39 58.2 94.2 58.2 94.2 L 57 94.2 Z M 61.7 94.2 L 61.7 84.2 L 62.9 84.2 L 62.9 89.9 L 65.8 86.9 L 67.4 86.9 L 64.6 89.6 L 67.7 94.2 L 66.2 94.2 L 63.8 90.5 L 62.9 91.3 L 62.9 94.2 L 61.7 94.2 Z M 68.2 92 C 68.2 92 69.4 91.8 69.4 91.8 C 69.4 92.3 69.6 92.7 69.9 93 C 70.3 93.2 70.7 93.3 71.3 93.3 C 71.8 93.3 72.2 93.2 72.5 93 C 72.8 92.8 72.9 92.5 72.9 92.2 C 72.9 91.9 72.8 91.7 72.6 91.5 C 72.4 91.4 72 91.3 71.3 91.1 C 70.4 90.9 69.8 90.7 69.4 90.5 C 69.1 90.4 68.8 90.1 68.6 89.8 C 68.4 89.5 68.4 89.2 68.4 88.9 C 68.4 88.5 68.4 88.2 68.6 88 C 68.7 87.7 68.9 87.5 69.2 87.3 C 69.4 87.1 69.6 87 70 86.9 C 70.3 86.8 70.7 86.8 71 86.8 C 71.6 86.8 72.1 86.9 72.5 87 C 73 87.2 73.3 87.4 73.5 87.7 C 73.7 88 73.8 88.3 73.9 88.8 C 73.9 88.8 72.7 89 72.7 89 C 72.7 88.6 72.5 88.3 72.2 88.1 C 72 87.9 71.6 87.8 71.1 87.8 C 70.6 87.8 70.2 87.9 69.9 88.1 C 69.7 88.2 69.5 88.5 69.5 88.7 C 69.5 88.9 69.6 89 69.7 89.1 C 69.8 89.3 70 89.4 70.2 89.5 C 70.3 89.5 70.7 89.6 71.3 89.8 C 72.1 90 72.7 90.2 73.1 90.4 C 73.4 90.5 73.7 90.7 73.9 91 C 74.1 91.3 74.2 91.6 74.2 92.1 C 74.2 92.5 74.1 92.9 73.8 93.2 C 73.6 93.6 73.2 93.9 72.8 94.1 C 72.3 94.3 71.8 94.4 71.3 94.4 C 70.3 94.4 69.6 94.2 69.1 93.8 C 68.6 93.4 68.3 92.8 68.2 92 Z M 75.6 94.2 L 75.6 84.2 L 76.9 84.2 C 76.9 84.2 76.88 87.77 76.9 87.8 C 77.5 87.1 78.2 86.8 79.1 86.8 C 79.6 86.8 80.1 86.9 80.5 87.1 C 80.8 87.3 81.1 87.6 81.3 88 C 81.5 88.3 81.6 88.9 81.6 89.6 C 81.56 89.59 81.6 94.2 81.6 94.2 L 80.3 94.2 C 80.3 94.2 80.33 89.59 80.3 89.6 C 80.3 89 80.2 88.5 79.9 88.2 C 79.7 88 79.3 87.8 78.8 87.8 C 78.4 87.8 78.1 87.9 77.8 88.1 C 77.4 88.3 77.2 88.6 77.1 88.9 C 76.9 89.2 76.9 89.7 76.9 90.2 C 76.88 90.22 76.9 94.2 76.9 94.2 L 75.6 94.2 Z M 83.4 85.6 L 83.4 84.2 L 84.7 84.2 L 84.7 85.6 L 83.4 85.6 Z M 83.4 94.2 L 83.4 86.9 L 84.7 86.9 L 84.7 94.2 L 83.4 94.2 Z M 86.5 94.2 L 86.5 86.9 L 87.6 86.9 C 87.6 86.9 87.64 88.03 87.6 88 C 87.9 87.5 88.2 87.2 88.4 87 C 88.7 86.9 88.9 86.8 89.2 86.8 C 89.6 86.8 90 86.9 90.5 87.2 C 90.5 87.2 90 88.3 90 88.3 C 89.7 88.1 89.4 88 89.1 88 C 88.9 88 88.6 88.1 88.4 88.3 C 88.2 88.4 88.1 88.7 88 89 C 87.8 89.4 87.8 89.9 87.8 90.4 C 87.76 90.39 87.8 94.2 87.8 94.2 L 86.5 94.2 Z M 96.2 91.9 C 96.2 91.9 97.4 92 97.4 92 C 97.2 92.8 96.9 93.3 96.3 93.7 C 95.8 94.2 95.1 94.4 94.3 94.4 C 93.2 94.4 92.4 94 91.7 93.4 C 91.1 92.7 90.8 91.8 90.8 90.6 C 90.8 89.4 91.1 88.5 91.7 87.8 C 92.4 87.1 93.2 86.8 94.2 86.8 C 95.2 86.8 95.9 87.1 96.6 87.8 C 97.2 88.4 97.5 89.4 97.5 90.5 C 97.5 90.6 97.5 90.7 97.5 90.9 C 97.5 90.9 92.1 90.9 92.1 90.9 C 92.1 91.7 92.3 92.3 92.7 92.7 C 93.1 93.1 93.7 93.3 94.3 93.3 C 94.7 93.3 95.1 93.2 95.4 93 C 95.7 92.8 96 92.4 96.2 91.9 Z M 92.1 89.9 C 92.1 89.9 96.2 89.9 96.2 89.9 C 96.1 89.3 96 88.8 95.7 88.5 C 95.3 88 94.8 87.8 94.2 87.8 C 93.6 87.8 93.2 88 92.8 88.3 C 92.4 88.7 92.2 89.2 92.1 89.9 Z " stroke="none" fill="#000"/>  </g>  <g id="Polygon106930">    <path d="M 1.1 77.4 L 1.1 67.4 C 1.1 67.4 4.53 67.37 4.5 67.4 C 5.3 67.4 5.9 67.4 6.3 67.5 C 6.9 67.6 7.4 67.9 7.8 68.2 C 8.3 68.7 8.7 69.2 9 69.9 C 9.2 70.6 9.4 71.4 9.4 72.3 C 9.4 73.1 9.3 73.8 9.1 74.4 C 8.9 74.9 8.7 75.4 8.4 75.8 C 8.1 76.2 7.8 76.5 7.5 76.7 C 7.2 76.9 6.8 77.1 6.3 77.2 C 5.8 77.3 5.3 77.4 4.7 77.4 C 4.7 77.39 1.1 77.4 1.1 77.4 Z M 2.4 76.2 C 2.4 76.2 4.55 76.21 4.5 76.2 C 5.2 76.2 5.7 76.1 6.1 76 C 6.5 75.9 6.8 75.7 7 75.5 C 7.3 75.2 7.6 74.8 7.7 74.2 C 7.9 73.7 8 73.1 8 72.3 C 8 71.3 7.8 70.5 7.5 69.9 C 7.1 69.3 6.7 68.9 6.2 68.8 C 5.9 68.6 5.3 68.6 4.5 68.6 C 4.51 68.55 2.4 68.6 2.4 68.6 L 2.4 76.2 Z M 10.6 73.8 C 10.6 72.4 10.9 71.4 11.7 70.8 C 12.3 70.2 13.1 70 14 70 C 15 70 15.8 70.3 16.4 70.9 C 17.1 71.6 17.4 72.5 17.4 73.7 C 17.4 74.6 17.2 75.3 17 75.9 C 16.7 76.4 16.3 76.8 15.7 77.1 C 15.2 77.4 14.6 77.6 14 77.6 C 13 77.6 12.1 77.2 11.5 76.6 C 10.9 75.9 10.6 75 10.6 73.8 Z M 11.8 73.8 C 11.8 74.7 12 75.4 12.4 75.9 C 12.9 76.3 13.4 76.5 14 76.5 C 14.6 76.5 15.1 76.3 15.5 75.8 C 15.9 75.4 16.1 74.7 16.1 73.7 C 16.1 72.8 15.9 72.1 15.5 71.7 C 15.1 71.2 14.6 71 14 71 C 13.4 71 12.9 71.2 12.4 71.7 C 12 72.1 11.8 72.8 11.8 73.8 Z M 18.8 77.4 L 18.8 70.1 L 19.9 70.1 C 19.9 70.1 19.93 71.16 19.9 71.2 C 20.5 70.4 21.2 70 22.2 70 C 22.7 70 23.1 70 23.4 70.2 C 23.8 70.4 24.1 70.6 24.3 70.8 C 24.4 71.1 24.6 71.4 24.7 71.7 C 24.7 72 24.7 72.4 24.7 72.9 C 24.72 72.93 24.7 77.4 24.7 77.4 L 23.5 77.4 C 23.5 77.4 23.49 72.98 23.5 73 C 23.5 72.5 23.4 72.1 23.3 71.9 C 23.2 71.6 23.1 71.4 22.8 71.3 C 22.6 71.1 22.3 71 22 71 C 21.5 71 21 71.2 20.6 71.5 C 20.2 71.9 20 72.5 20 73.4 C 20.05 73.43 20 77.4 20 77.4 L 18.8 77.4 Z M 31.3 74.7 C 31.3 74.7 32.6 74.9 32.6 74.9 C 32.4 75.7 32.1 76.4 31.5 76.8 C 31 77.3 30.3 77.6 29.5 77.6 C 28.5 77.6 27.7 77.2 27.1 76.6 C 26.5 75.9 26.2 75 26.2 73.8 C 26.2 73 26.4 72.3 26.6 71.7 C 26.9 71.1 27.3 70.7 27.8 70.4 C 28.3 70.1 28.9 70 29.5 70 C 30.3 70 31 70.2 31.5 70.6 C 32 71 32.3 71.5 32.4 72.3 C 32.4 72.3 31.2 72.4 31.2 72.4 C 31.1 72 30.9 71.6 30.6 71.3 C 30.3 71.1 30 71 29.6 71 C 29 71 28.5 71.2 28.1 71.6 C 27.7 72.1 27.5 72.8 27.5 73.8 C 27.5 74.7 27.7 75.4 28.1 75.9 C 28.4 76.3 28.9 76.5 29.5 76.5 C 30 76.5 30.4 76.4 30.7 76.1 C 31.1 75.8 31.3 75.3 31.3 74.7 Z M 38.6 77.4 C 38.5 77.1 38.4 76.8 38.3 76.5 C 37.9 76.9 37.4 77.2 37 77.3 C 36.6 77.5 36.2 77.6 35.7 77.6 C 34.9 77.6 34.3 77.4 33.8 77 C 33.4 76.6 33.2 76.1 33.2 75.5 C 33.2 75.1 33.3 74.8 33.4 74.5 C 33.6 74.2 33.8 74 34.1 73.8 C 34.3 73.6 34.6 73.5 35 73.4 C 35.2 73.3 35.6 73.3 36 73.2 C 37 73.1 37.8 72.9 38.2 72.8 C 38.2 72.6 38.2 72.5 38.2 72.5 C 38.2 72 38.1 71.6 37.9 71.4 C 37.6 71.1 37.1 71 36.5 71 C 35.9 71 35.5 71.1 35.2 71.3 C 34.9 71.5 34.7 71.9 34.6 72.4 C 34.6 72.4 33.4 72.2 33.4 72.2 C 33.5 71.7 33.7 71.3 33.9 71 C 34.2 70.6 34.6 70.4 35 70.2 C 35.5 70.1 36.1 70 36.7 70 C 37.3 70 37.8 70 38.2 70.2 C 38.6 70.3 38.9 70.5 39 70.7 C 39.2 71 39.3 71.2 39.4 71.6 C 39.5 71.8 39.5 72.2 39.5 72.7 C 39.5 72.7 39.5 74.4 39.5 74.4 C 39.5 75.5 39.5 76.2 39.6 76.5 C 39.6 76.8 39.7 77.1 39.9 77.4 C 39.87 77.39 38.6 77.4 38.6 77.4 C 38.6 77.4 38.59 77.39 38.6 77.4 Z M 38.2 73.7 C 37.8 73.9 37.1 74.1 36.2 74.2 C 35.7 74.3 35.4 74.4 35.2 74.5 C 34.9 74.6 34.8 74.7 34.7 74.9 C 34.6 75 34.5 75.2 34.5 75.4 C 34.5 75.8 34.6 76 34.9 76.3 C 35.1 76.5 35.5 76.6 36 76.6 C 36.4 76.6 36.9 76.5 37.2 76.3 C 37.6 76.1 37.9 75.8 38 75.4 C 38.2 75.2 38.2 74.7 38.2 74.2 C 38.2 74.2 38.2 73.7 38.2 73.7 Z M 40.9 75.2 C 40.9 75.2 42.1 75 42.1 75 C 42.2 75.5 42.4 75.9 42.7 76.2 C 43 76.4 43.4 76.5 44 76.5 C 44.6 76.5 45 76.4 45.3 76.2 C 45.5 76 45.7 75.7 45.7 75.4 C 45.7 75.1 45.5 74.9 45.3 74.7 C 45.1 74.6 44.7 74.5 44 74.3 C 43.1 74.1 42.5 73.9 42.2 73.7 C 41.8 73.6 41.6 73.3 41.4 73 C 41.2 72.7 41.1 72.4 41.1 72.1 C 41.1 71.7 41.2 71.4 41.3 71.2 C 41.5 70.9 41.7 70.7 41.9 70.5 C 42.1 70.3 42.4 70.2 42.7 70.1 C 43 70 43.4 70 43.8 70 C 44.3 70 44.8 70.1 45.3 70.2 C 45.7 70.4 46 70.6 46.2 70.9 C 46.4 71.2 46.6 71.5 46.7 72 C 46.7 72 45.5 72.2 45.5 72.2 C 45.4 71.8 45.2 71.5 45 71.3 C 44.7 71.1 44.3 71 43.9 71 C 43.3 71 42.9 71.1 42.7 71.3 C 42.4 71.4 42.3 71.7 42.3 71.9 C 42.3 72.1 42.3 72.2 42.4 72.3 C 42.5 72.5 42.7 72.6 42.9 72.7 C 43 72.7 43.4 72.8 44 73 C 44.9 73.2 45.5 73.4 45.8 73.6 C 46.2 73.7 46.4 73.9 46.6 74.2 C 46.8 74.5 46.9 74.8 46.9 75.3 C 46.9 75.7 46.8 76.1 46.6 76.4 C 46.3 76.8 46 77.1 45.5 77.3 C 45.1 77.5 44.6 77.6 44 77.6 C 43.1 77.6 42.3 77.4 41.8 77 C 41.4 76.6 41 76 40.9 75.2 Z M 50.5 76.3 C 50.7 76.3 50.9 76.3 51.1 76.3 C 51.1 76.3 51.3 77.4 51.3 77.4 C 50.9 77.5 50.6 77.5 50.3 77.5 C 49.9 77.5 49.5 77.4 49.3 77.3 C 49 77.1 48.9 76.9 48.8 76.7 C 48.7 76.5 48.6 76 48.6 75.3 C 48.62 75.27 48.6 71.1 48.6 71.1 L 47.7 71.1 L 47.7 70.1 L 48.6 70.1 L 48.6 68.3 L 49.8 67.6 L 49.8 70.1 L 51.1 70.1 L 51.1 71.1 L 49.8 71.1 C 49.8 71.1 49.84 75.33 49.8 75.3 C 49.8 75.7 49.9 75.9 49.9 76 C 49.9 76.1 50 76.2 50.1 76.3 C 50.2 76.3 50.4 76.3 50.5 76.3 C 50.5 76.3 50.5 76.3 50.5 76.3 Z M 57.3 75.1 C 57.3 75.1 58.5 75.2 58.5 75.2 C 58.3 76 58 76.5 57.4 76.9 C 56.9 77.4 56.2 77.6 55.3 77.6 C 54.3 77.6 53.4 77.2 52.8 76.6 C 52.2 75.9 51.9 75 51.9 73.8 C 51.9 72.6 52.2 71.7 52.8 71 C 53.4 70.3 54.3 70 55.3 70 C 56.2 70 57 70.3 57.6 71 C 58.3 71.6 58.6 72.6 58.6 73.7 C 58.6 73.8 58.6 73.9 58.6 74.1 C 58.6 74.1 53.1 74.1 53.1 74.1 C 53.2 74.9 53.4 75.5 53.8 75.9 C 54.2 76.3 54.7 76.5 55.3 76.5 C 55.8 76.5 56.2 76.4 56.5 76.2 C 56.8 76 57.1 75.6 57.3 75.1 Z M 53.2 73.1 C 53.2 73.1 57.3 73.1 57.3 73.1 C 57.2 72.5 57.1 72 56.8 71.7 C 56.4 71.2 55.9 71 55.3 71 C 54.7 71 54.2 71.2 53.9 71.5 C 53.5 71.9 53.3 72.4 53.2 73.1 Z M 60.1 77.4 L 60.1 70.1 L 61.2 70.1 C 61.2 70.1 61.16 71.23 61.2 71.2 C 61.4 70.7 61.7 70.4 61.9 70.2 C 62.2 70.1 62.4 70 62.7 70 C 63.1 70 63.6 70.1 64 70.4 C 64 70.4 63.6 71.5 63.6 71.5 C 63.3 71.3 63 71.2 62.7 71.2 C 62.4 71.2 62.2 71.3 61.9 71.5 C 61.7 71.6 61.6 71.9 61.5 72.2 C 61.4 72.6 61.3 73.1 61.3 73.6 C 61.28 73.59 61.3 77.4 61.3 77.4 L 60.1 77.4 Z " stroke="none" fill="#000"/>  </g>  <g id="Polygon106929">    <path d="M 0 60.6 L 3.8 50.6 L 5.3 50.6 L 9.4 60.6 L 7.8 60.6 L 6.7 57.6 L 2.5 57.6 L 1.4 60.6 L 0 60.6 Z M 2.9 56.5 L 6.3 56.5 C 6.3 56.5 5.22 53.7 5.2 53.7 C 4.9 52.9 4.7 52.2 4.5 51.6 C 4.4 52.3 4.2 52.9 4 53.5 C 3.97 53.54 2.9 56.5 2.9 56.5 Z M 15 60.6 C 15 60.6 15.02 59.53 15 59.5 C 14.5 60.3 13.7 60.8 12.7 60.8 C 12.3 60.8 11.9 60.7 11.5 60.5 C 11.1 60.3 10.9 60.1 10.7 59.9 C 10.5 59.6 10.4 59.3 10.3 59 C 10.3 58.7 10.2 58.4 10.2 57.8 C 10.23 57.83 10.2 53.3 10.2 53.3 L 11.5 53.3 C 11.5 53.3 11.46 57.36 11.5 57.4 C 11.5 58 11.5 58.4 11.5 58.7 C 11.6 59 11.8 59.2 12 59.4 C 12.3 59.6 12.6 59.7 13 59.7 C 13.3 59.7 13.7 59.6 14 59.4 C 14.3 59.2 14.6 59 14.7 58.6 C 14.8 58.3 14.9 57.8 14.9 57.2 C 14.89 57.22 14.9 53.3 14.9 53.3 L 16.1 53.3 L 16.1 60.6 L 15 60.6 Z M 22.8 57.9 C 22.8 57.9 24 58.1 24 58.1 C 23.9 58.9 23.5 59.6 23 60 C 22.4 60.5 21.8 60.8 21 60.8 C 20 60.8 19.2 60.4 18.6 59.8 C 18 59.1 17.7 58.2 17.7 57 C 17.7 56.2 17.8 55.5 18.1 54.9 C 18.3 54.3 18.7 53.9 19.2 53.6 C 19.8 53.3 20.4 53.2 21 53.2 C 21.8 53.2 22.4 53.4 22.9 53.8 C 23.4 54.2 23.7 54.7 23.9 55.5 C 23.9 55.5 22.7 55.6 22.7 55.6 C 22.6 55.2 22.4 54.8 22.1 54.5 C 21.8 54.3 21.4 54.2 21 54.2 C 20.4 54.2 19.9 54.4 19.5 54.8 C 19.1 55.3 18.9 56 18.9 57 C 18.9 57.9 19.1 58.6 19.5 59.1 C 19.9 59.5 20.4 59.7 21 59.7 C 21.4 59.7 21.8 59.6 22.2 59.3 C 22.5 59 22.7 58.5 22.8 57.9 Z M 25.1 60.6 L 25.1 50.6 L 26.3 50.6 L 26.3 56.3 L 29.2 53.3 L 30.8 53.3 L 28 56 L 31.1 60.6 L 29.6 60.6 L 27.2 56.9 L 26.3 57.7 L 26.3 60.6 L 25.1 60.6 Z M 32 60.6 L 32 50.6 L 33.3 50.6 L 33.3 60.6 L 32 60.6 Z M 40.1 58.3 C 40.1 58.3 41.4 58.4 41.4 58.4 C 41.2 59.2 40.8 59.7 40.3 60.1 C 39.7 60.6 39 60.8 38.2 60.8 C 37.1 60.8 36.3 60.4 35.7 59.8 C 35.1 59.1 34.7 58.2 34.7 57 C 34.7 55.8 35.1 54.9 35.7 54.2 C 36.3 53.5 37.1 53.2 38.1 53.2 C 39.1 53.2 39.9 53.5 40.5 54.2 C 41.1 54.8 41.4 55.8 41.4 56.9 C 41.4 57 41.4 57.1 41.4 57.3 C 41.4 57.3 36 57.3 36 57.3 C 36.1 58.1 36.3 58.7 36.7 59.1 C 37.1 59.5 37.6 59.7 38.2 59.7 C 38.7 59.7 39 59.6 39.4 59.4 C 39.7 59.2 39.9 58.8 40.1 58.3 Z M 36.1 56.3 C 36.1 56.3 40.1 56.3 40.1 56.3 C 40.1 55.7 39.9 55.2 39.7 54.9 C 39.3 54.4 38.8 54.2 38.2 54.2 C 37.6 54.2 37.1 54.4 36.7 54.7 C 36.3 55.1 36.1 55.6 36.1 56.3 Z M 43.7 63.5 C 43.4 63.5 43.2 63.5 42.9 63.4 C 42.9 63.4 42.8 62.2 42.8 62.2 C 43 62.3 43.3 62.3 43.5 62.3 C 43.7 62.3 43.9 62.3 44.1 62.2 C 44.3 62.1 44.4 62 44.5 61.8 C 44.6 61.7 44.7 61.4 44.9 60.9 C 44.9 60.8 45 60.7 45 60.6 C 45 60.61 42.2 53.3 42.2 53.3 L 43.6 53.3 C 43.6 53.3 45.08 57.54 45.1 57.5 C 45.3 58.1 45.5 58.6 45.6 59.2 C 45.8 58.7 45.9 58.1 46.1 57.6 C 46.12 57.56 47.7 53.3 47.7 53.3 L 48.9 53.3 C 48.9 53.3 46.14 60.72 46.1 60.7 C 45.8 61.5 45.6 62.1 45.4 62.4 C 45.2 62.8 45 63.1 44.7 63.3 C 44.4 63.4 44.1 63.5 43.7 63.5 C 43.7 63.5 43.7 63.5 43.7 63.5 Z " stroke="none" fill="#000"/>  </g>  <g id="Polygon106928">    <path d="M 1.1 43.8 L 1.1 33.8 L 7.9 33.8 L 7.9 35 L 2.5 35 L 2.5 38.1 L 7.2 38.1 L 7.2 39.2 L 2.5 39.2 L 2.5 43.8 L 1.1 43.8 Z M 9.5 35.2 L 9.5 33.8 L 10.7 33.8 L 10.7 35.2 L 9.5 35.2 Z M 9.5 43.8 L 9.5 36.5 L 10.7 36.5 L 10.7 43.8 L 9.5 43.8 Z M 17.6 41.5 C 17.6 41.5 18.8 41.6 18.8 41.6 C 18.6 42.4 18.3 42.9 17.7 43.3 C 17.2 43.8 16.5 44 15.6 44 C 14.6 44 13.7 43.6 13.1 43 C 12.5 42.3 12.2 41.4 12.2 40.2 C 12.2 39 12.5 38.1 13.1 37.4 C 13.7 36.7 14.6 36.4 15.6 36.4 C 16.5 36.4 17.3 36.7 17.9 37.4 C 18.6 38 18.9 39 18.9 40.1 C 18.9 40.2 18.9 40.3 18.9 40.5 C 18.9 40.5 13.4 40.5 13.4 40.5 C 13.5 41.3 13.7 41.9 14.1 42.3 C 14.5 42.7 15 42.9 15.6 42.9 C 16.1 42.9 16.5 42.8 16.8 42.6 C 17.1 42.4 17.4 42 17.6 41.5 Z M 13.5 39.5 C 13.5 39.5 17.6 39.5 17.6 39.5 C 17.5 38.9 17.4 38.4 17.1 38.1 C 16.7 37.6 16.2 37.4 15.6 37.4 C 15 37.4 14.5 37.6 14.2 37.9 C 13.8 38.3 13.6 38.8 13.5 39.5 Z M 20.3 43.8 L 20.3 33.8 L 21.6 33.8 L 21.6 43.8 L 20.3 43.8 Z M 28.2 43.8 C 28.2 43.8 28.19 42.88 28.2 42.9 C 27.7 43.6 27.1 44 26.2 44 C 25.6 44 25.1 43.8 24.6 43.5 C 24.1 43.2 23.7 42.7 23.4 42.1 C 23.2 41.6 23 40.9 23 40.2 C 23 39.4 23.2 38.8 23.4 38.2 C 23.6 37.6 24 37.2 24.5 36.8 C 25 36.5 25.5 36.4 26.1 36.4 C 26.5 36.4 26.9 36.5 27.3 36.6 C 27.6 36.8 27.9 37.1 28.1 37.4 C 28.11 37.37 28.1 33.8 28.1 33.8 L 29.3 33.8 L 29.3 43.8 L 28.2 43.8 Z M 24.3 40.2 C 24.3 41.1 24.5 41.8 24.9 42.3 C 25.3 42.7 25.7 42.9 26.3 42.9 C 26.8 42.9 27.3 42.7 27.6 42.3 C 28 41.8 28.2 41.2 28.2 40.3 C 28.2 39.3 28 38.5 27.6 38.1 C 27.3 37.6 26.8 37.4 26.2 37.4 C 25.7 37.4 25.2 37.6 24.9 38.1 C 24.5 38.5 24.3 39.2 24.3 40.2 Z M 35.3 43.8 L 35.3 33.8 L 36.6 33.8 L 36.6 42.6 L 41.5 42.6 L 41.5 43.8 L 35.3 43.8 Z M 47.9 43.8 C 47.8 43.5 47.7 43.2 47.7 42.9 C 47.2 43.3 46.8 43.6 46.4 43.7 C 45.9 43.9 45.5 44 45 44 C 44.2 44 43.6 43.8 43.2 43.4 C 42.7 43 42.5 42.5 42.5 41.9 C 42.5 41.5 42.6 41.2 42.8 40.9 C 42.9 40.6 43.1 40.4 43.4 40.2 C 43.7 40 44 39.9 44.3 39.8 C 44.5 39.7 44.9 39.7 45.4 39.6 C 46.4 39.5 47.1 39.3 47.6 39.2 C 47.6 39 47.6 38.9 47.6 38.9 C 47.6 38.4 47.5 38 47.2 37.8 C 46.9 37.5 46.5 37.4 45.8 37.4 C 45.3 37.4 44.8 37.5 44.6 37.7 C 44.3 37.9 44.1 38.3 43.9 38.8 C 43.9 38.8 42.7 38.6 42.7 38.6 C 42.8 38.1 43 37.7 43.3 37.4 C 43.5 37 43.9 36.8 44.4 36.6 C 44.8 36.5 45.4 36.4 46 36.4 C 46.6 36.4 47.1 36.4 47.5 36.6 C 47.9 36.7 48.2 36.9 48.4 37.1 C 48.6 37.4 48.7 37.6 48.8 38 C 48.8 38.2 48.8 38.6 48.8 39.1 C 48.8 39.1 48.8 40.8 48.8 40.8 C 48.8 41.9 48.8 42.6 48.9 42.9 C 49 43.2 49.1 43.5 49.2 43.8 C 49.21 43.79 47.9 43.8 47.9 43.8 C 47.9 43.8 47.93 43.79 47.9 43.8 Z M 47.6 40.1 C 47.1 40.3 46.5 40.5 45.6 40.6 C 45.1 40.7 44.7 40.8 44.5 40.9 C 44.3 41 44.1 41.1 44 41.3 C 43.9 41.4 43.8 41.6 43.8 41.8 C 43.8 42.2 44 42.4 44.2 42.7 C 44.5 42.9 44.8 43 45.3 43 C 45.8 43 46.2 42.9 46.6 42.7 C 46.9 42.5 47.2 42.2 47.4 41.8 C 47.5 41.6 47.6 41.1 47.6 40.6 C 47.6 40.6 47.6 40.1 47.6 40.1 Z M 50.7 43.8 L 50.7 36.5 L 51.8 36.5 C 51.8 36.5 51.84 37.56 51.8 37.6 C 52.4 36.8 53.1 36.4 54.1 36.4 C 54.6 36.4 55 36.4 55.4 36.6 C 55.7 36.8 56 37 56.2 37.2 C 56.4 37.5 56.5 37.8 56.6 38.1 C 56.6 38.4 56.6 38.8 56.6 39.3 C 56.63 39.33 56.6 43.8 56.6 43.8 L 55.4 43.8 C 55.4 43.8 55.4 39.38 55.4 39.4 C 55.4 38.9 55.4 38.5 55.3 38.3 C 55.2 38 55 37.8 54.7 37.7 C 54.5 37.5 54.2 37.4 53.9 37.4 C 53.4 37.4 52.9 37.6 52.5 37.9 C 52.2 38.3 52 38.9 52 39.8 C 51.96 39.83 52 43.8 52 43.8 L 50.7 43.8 Z M 63.5 41.5 C 63.5 41.5 64.8 41.6 64.8 41.6 C 64.6 42.4 64.2 42.9 63.6 43.3 C 63.1 43.8 62.4 44 61.6 44 C 60.5 44 59.7 43.6 59 43 C 58.4 42.3 58.1 41.4 58.1 40.2 C 58.1 39 58.4 38.1 59 37.4 C 59.7 36.7 60.5 36.4 61.5 36.4 C 62.5 36.4 63.3 36.7 63.9 37.4 C 64.5 38 64.8 39 64.8 40.1 C 64.8 40.2 64.8 40.3 64.8 40.5 C 64.8 40.5 59.4 40.5 59.4 40.5 C 59.4 41.3 59.6 41.9 60.1 42.3 C 60.5 42.7 61 42.9 61.6 42.9 C 62 42.9 62.4 42.8 62.7 42.6 C 63 42.4 63.3 42 63.5 41.5 Z M 59.4 39.5 C 59.4 39.5 63.5 39.5 63.5 39.5 C 63.4 38.9 63.3 38.4 63 38.1 C 62.6 37.6 62.1 37.4 61.5 37.4 C 60.9 37.4 60.5 37.6 60.1 37.9 C 59.7 38.3 59.5 38.8 59.4 39.5 Z " stroke="none" fill="#000"/>  </g>  <g id="Polygon106927">    <path d="M 7.7 17 L 9 17 C 9 17 8.98 22.76 9 22.8 C 9 23.8 8.9 24.6 8.6 25.2 C 8.4 25.8 8 26.2 7.4 26.6 C 6.8 27 6 27.2 5.1 27.2 C 4.1 27.2 3.4 27 2.8 26.7 C 2.2 26.4 1.7 25.9 1.5 25.3 C 1.2 24.7 1.1 23.8 1.1 22.8 C 1.1 22.76 1.1 17 1.1 17 L 2.4 17 C 2.4 17 2.43 22.75 2.4 22.8 C 2.4 23.6 2.5 24.3 2.7 24.7 C 2.8 25.1 3.1 25.4 3.5 25.6 C 3.9 25.9 4.4 26 4.9 26 C 5.9 26 6.6 25.7 7 25.3 C 7.4 24.9 7.7 24 7.7 22.8 C 7.66 22.75 7.7 17 7.7 17 Z M 11 27 L 11 19.7 L 12.1 19.7 C 12.1 19.7 12.14 20.76 12.1 20.8 C 12.7 20 13.4 19.6 14.5 19.6 C 14.9 19.6 15.3 19.6 15.7 19.8 C 16 20 16.3 20.2 16.5 20.4 C 16.7 20.7 16.8 21 16.9 21.3 C 16.9 21.6 16.9 22 16.9 22.5 C 16.93 22.53 16.9 27 16.9 27 L 15.7 27 C 15.7 27 15.7 22.58 15.7 22.6 C 15.7 22.1 15.7 21.7 15.6 21.5 C 15.5 21.2 15.3 21 15 20.9 C 14.8 20.7 14.5 20.6 14.2 20.6 C 13.7 20.6 13.2 20.8 12.8 21.1 C 12.5 21.5 12.3 22.1 12.3 23 C 12.26 23.03 12.3 27 12.3 27 L 11 27 Z M 18.8 18.4 L 18.8 17 L 20.1 17 L 20.1 18.4 L 18.8 18.4 Z M 18.8 27 L 18.8 19.7 L 20.1 19.7 L 20.1 27 L 18.8 27 Z M 24.1 25.9 C 24.2 25.9 24.4 25.9 24.6 25.9 C 24.6 25.9 24.8 27 24.8 27 C 24.4 27.1 24.1 27.1 23.9 27.1 C 23.4 27.1 23.1 27 22.8 26.9 C 22.6 26.7 22.4 26.5 22.3 26.3 C 22.2 26.1 22.2 25.6 22.2 24.9 C 22.16 24.87 22.2 20.7 22.2 20.7 L 21.3 20.7 L 21.3 19.7 L 22.2 19.7 L 22.2 17.9 L 23.4 17.2 L 23.4 19.7 L 24.6 19.7 L 24.6 20.7 L 23.4 20.7 C 23.4 20.7 23.38 24.93 23.4 24.9 C 23.4 25.3 23.4 25.5 23.4 25.6 C 23.5 25.7 23.6 25.8 23.7 25.9 C 23.8 25.9 23.9 25.9 24.1 25.9 C 24.1 25.9 24.1 25.9 24.1 25.9 Z M 29.3 24.3 C 29.3 24.3 30.5 24.2 30.5 24.2 C 30.7 24.9 30.9 25.4 31.3 25.7 C 31.6 26 32 26.2 32.5 26.2 C 33.1 26.2 33.6 26 34 25.5 C 34.4 25.1 34.6 24.7 34.6 24.1 C 34.6 23.5 34.4 23 34 22.7 C 33.6 22.3 33.2 22.1 32.6 22.1 C 32.4 22.1 32.1 22.2 31.7 22.2 C 31.7 22.2 31.9 21.2 31.9 21.2 C 32 21.2 32 21.2 32.1 21.2 C 32.6 21.2 33.1 21 33.5 20.8 C 33.9 20.5 34.1 20.1 34.1 19.5 C 34.1 19.1 34 18.7 33.7 18.4 C 33.4 18.1 33 17.9 32.5 17.9 C 32 17.9 31.6 18.1 31.3 18.4 C 31 18.7 30.8 19.1 30.7 19.7 C 30.7 19.7 29.4 19.5 29.4 19.5 C 29.6 18.7 29.9 18.1 30.5 17.6 C 31 17.2 31.7 16.9 32.4 16.9 C 33 16.9 33.5 17 34 17.3 C 34.4 17.5 34.8 17.8 35 18.2 C 35.3 18.6 35.4 19.1 35.4 19.5 C 35.4 20 35.3 20.4 35 20.7 C 34.8 21.1 34.5 21.4 34 21.6 C 34.6 21.7 35.1 22 35.4 22.4 C 35.7 22.8 35.9 23.4 35.9 24 C 35.9 24.9 35.6 25.6 34.9 26.3 C 34.3 26.9 33.5 27.2 32.5 27.2 C 31.6 27.2 30.9 26.9 30.3 26.4 C 29.7 25.9 29.4 25.2 29.3 24.3 Z M 41.5 27 L 41.5 17 L 42.8 17 L 42.8 21.1 L 48 21.1 L 48 17 L 49.3 17 L 49.3 27 L 48 27 L 48 22.3 L 42.8 22.3 L 42.8 27 L 41.5 27 Z M 56.4 27 C 56.2 26.7 56.1 26.4 56.1 26.1 C 55.6 26.5 55.2 26.8 54.8 26.9 C 54.4 27.1 53.9 27.2 53.4 27.2 C 52.6 27.2 52 27 51.6 26.6 C 51.2 26.2 51 25.7 51 25.1 C 51 24.7 51 24.4 51.2 24.1 C 51.4 23.8 51.6 23.6 51.8 23.4 C 52.1 23.2 52.4 23.1 52.7 23 C 53 22.9 53.3 22.9 53.8 22.8 C 54.8 22.7 55.5 22.5 56 22.4 C 56 22.2 56 22.1 56 22.1 C 56 21.6 55.9 21.2 55.7 21 C 55.3 20.7 54.9 20.6 54.3 20.6 C 53.7 20.6 53.3 20.7 53 20.9 C 52.7 21.1 52.5 21.5 52.4 22 C 52.4 22 51.2 21.8 51.2 21.8 C 51.3 21.3 51.5 20.9 51.7 20.6 C 52 20.2 52.3 20 52.8 19.8 C 53.3 19.7 53.8 19.6 54.4 19.6 C 55.1 19.6 55.6 19.6 55.9 19.8 C 56.3 19.9 56.6 20.1 56.8 20.3 C 57 20.6 57.1 20.8 57.2 21.2 C 57.2 21.4 57.2 21.8 57.2 22.3 C 57.2 22.3 57.2 24 57.2 24 C 57.2 25.1 57.3 25.8 57.3 26.1 C 57.4 26.4 57.5 26.7 57.6 27 C 57.64 26.99 56.4 27 56.4 27 C 56.4 27 56.35 26.99 56.4 27 Z M 56 23.3 C 55.6 23.5 54.9 23.7 54 23.8 C 53.5 23.9 53.1 24 52.9 24.1 C 52.7 24.2 52.5 24.3 52.4 24.5 C 52.3 24.6 52.3 24.8 52.3 25 C 52.3 25.4 52.4 25.6 52.6 25.9 C 52.9 26.1 53.2 26.2 53.7 26.2 C 54.2 26.2 54.6 26.1 55 25.9 C 55.4 25.7 55.6 25.4 55.8 25 C 55.9 24.8 56 24.3 56 23.8 C 56 23.8 56 23.3 56 23.3 Z M 59.9 29.9 C 59.7 29.9 59.4 29.9 59.1 29.8 C 59.1 29.8 59 28.6 59 28.6 C 59.2 28.7 59.5 28.7 59.7 28.7 C 59.9 28.7 60.2 28.7 60.3 28.6 C 60.5 28.5 60.6 28.4 60.7 28.2 C 60.8 28.1 60.9 27.8 61.1 27.3 C 61.1 27.2 61.2 27.1 61.2 27 C 61.21 27.01 58.5 19.7 58.5 19.7 L 59.8 19.7 C 59.8 19.7 61.29 23.94 61.3 23.9 C 61.5 24.5 61.7 25 61.8 25.6 C 62 25.1 62.1 24.5 62.3 24 C 62.33 23.96 63.9 19.7 63.9 19.7 L 65.1 19.7 C 65.1 19.7 62.35 27.12 62.3 27.1 C 62.1 27.9 61.8 28.5 61.7 28.8 C 61.4 29.2 61.2 29.5 60.9 29.7 C 60.6 29.8 60.3 29.9 59.9 29.9 C 59.9 29.9 59.9 29.9 59.9 29.9 Z M 66.5 27 L 66.5 20.7 L 65.4 20.7 L 65.4 19.7 L 66.5 19.7 C 66.5 19.7 66.48 19.03 66.5 19 C 66.5 18.3 66.6 17.8 66.9 17.4 C 67.3 17 67.7 16.8 68.4 16.8 C 68.9 16.8 69.3 16.9 69.7 17 C 69.7 17 69.5 18 69.5 18 C 69.2 18 69 17.9 68.8 17.9 C 68.4 17.9 68.1 18 67.9 18.2 C 67.8 18.4 67.7 18.7 67.7 19.3 C 67.71 19.26 67.7 19.7 67.7 19.7 L 69.1 19.7 L 69.1 20.7 L 67.7 20.7 L 67.7 27 L 66.5 27 Z M 70.1 18.4 L 70.1 17 L 71.3 17 L 71.3 18.4 L 70.1 18.4 Z M 70.1 27 L 70.1 19.7 L 71.3 19.7 L 71.3 27 L 70.1 27 Z M 78.1 24.7 C 78.1 24.7 79.4 24.8 79.4 24.8 C 79.2 25.6 78.8 26.1 78.3 26.5 C 77.7 27 77 27.2 76.2 27.2 C 75.1 27.2 74.3 26.8 73.7 26.2 C 73.1 25.5 72.7 24.6 72.7 23.4 C 72.7 22.2 73.1 21.3 73.7 20.6 C 74.3 19.9 75.1 19.6 76.1 19.6 C 77.1 19.6 77.9 19.9 78.5 20.6 C 79.1 21.2 79.4 22.2 79.4 23.3 C 79.4 23.4 79.4 23.5 79.4 23.7 C 79.4 23.7 74 23.7 74 23.7 C 74.1 24.5 74.3 25.1 74.7 25.5 C 75.1 25.9 75.6 26.1 76.2 26.1 C 76.7 26.1 77 26 77.4 25.8 C 77.7 25.6 77.9 25.2 78.1 24.7 Z M 74.1 22.7 C 74.1 22.7 78.1 22.7 78.1 22.7 C 78.1 22.1 77.9 21.6 77.7 21.3 C 77.3 20.8 76.8 20.6 76.1 20.6 C 75.6 20.6 75.1 20.8 74.7 21.1 C 74.3 21.5 74.1 22 74.1 22.7 Z M 80.9 27 L 80.9 17 L 82.1 17 L 82.1 27 L 80.9 27 Z M 88.8 27 C 88.8 27 88.76 26.08 88.8 26.1 C 88.3 26.8 87.6 27.2 86.7 27.2 C 86.2 27.2 85.6 27 85.1 26.7 C 84.6 26.4 84.3 25.9 84 25.3 C 83.7 24.8 83.6 24.1 83.6 23.4 C 83.6 22.6 83.7 22 84 21.4 C 84.2 20.8 84.6 20.4 85.1 20 C 85.5 19.7 86.1 19.6 86.7 19.6 C 87.1 19.6 87.5 19.7 87.8 19.8 C 88.2 20 88.5 20.3 88.7 20.6 C 88.68 20.57 88.7 17 88.7 17 L 89.9 17 L 89.9 27 L 88.8 27 Z M 84.9 23.4 C 84.9 24.3 85.1 25 85.5 25.5 C 85.9 25.9 86.3 26.1 86.8 26.1 C 87.4 26.1 87.8 25.9 88.2 25.5 C 88.6 25 88.8 24.4 88.8 23.5 C 88.8 22.5 88.6 21.7 88.2 21.3 C 87.8 20.8 87.4 20.6 86.8 20.6 C 86.2 20.6 85.8 20.8 85.4 21.3 C 85.1 21.7 84.9 22.4 84.9 23.4 Z M 95.8 27 L 95.8 17 C 95.8 17 99.53 16.97 99.5 17 C 100.3 17 100.9 17.1 101.4 17.3 C 101.8 17.5 102.2 17.8 102.5 18.2 C 102.7 18.6 102.8 19.1 102.8 19.5 C 102.8 20 102.7 20.4 102.5 20.7 C 102.3 21.1 101.9 21.4 101.4 21.7 C 102.1 21.8 102.5 22.1 102.8 22.6 C 103.2 23 103.3 23.5 103.3 24.1 C 103.3 24.6 103.2 25 103 25.4 C 102.8 25.8 102.6 26.1 102.3 26.3 C 102 26.5 101.6 26.7 101.2 26.8 C 100.8 26.9 100.2 27 99.6 27 C 99.59 26.99 95.8 27 95.8 27 Z M 97.1 21.2 C 97.1 21.2 99.26 21.18 99.3 21.2 C 99.8 21.2 100.3 21.1 100.5 21.1 C 100.9 21 101.1 20.8 101.3 20.6 C 101.5 20.3 101.5 20 101.5 19.7 C 101.5 19.4 101.5 19.1 101.3 18.8 C 101.1 18.6 100.9 18.4 100.6 18.3 C 100.3 18.2 99.8 18.2 99.1 18.2 C 99.09 18.15 97.1 18.2 97.1 18.2 L 97.1 21.2 Z M 97.1 25.8 C 97.1 25.8 99.59 25.81 99.6 25.8 C 100 25.8 100.3 25.8 100.5 25.8 C 100.8 25.7 101 25.6 101.3 25.5 C 101.5 25.4 101.6 25.2 101.8 24.9 C 101.9 24.7 102 24.4 102 24.1 C 102 23.7 101.9 23.4 101.7 23.1 C 101.5 22.8 101.2 22.6 100.9 22.5 C 100.5 22.4 100 22.4 99.4 22.4 C 99.41 22.36 97.1 22.4 97.1 22.4 L 97.1 25.8 Z M 109.8 27 C 109.8 27 109.76 25.93 109.8 25.9 C 109.2 26.7 108.4 27.2 107.5 27.2 C 107 27.2 106.6 27.1 106.3 26.9 C 105.9 26.7 105.6 26.5 105.4 26.3 C 105.2 26 105.1 25.7 105 25.4 C 105 25.1 105 24.8 105 24.2 C 104.97 24.23 105 19.7 105 19.7 L 106.2 19.7 C 106.2 19.7 106.2 23.76 106.2 23.8 C 106.2 24.4 106.2 24.8 106.3 25.1 C 106.4 25.4 106.5 25.6 106.8 25.8 C 107 26 107.3 26.1 107.7 26.1 C 108.1 26.1 108.4 26 108.7 25.8 C 109.1 25.6 109.3 25.4 109.4 25 C 109.6 24.7 109.6 24.2 109.6 23.6 C 109.63 23.62 109.6 19.7 109.6 19.7 L 110.9 19.7 L 110.9 27 L 109.8 27 Z M 112.3 24.8 C 112.3 24.8 113.5 24.6 113.5 24.6 C 113.6 25.1 113.8 25.5 114.1 25.8 C 114.4 26 114.8 26.1 115.4 26.1 C 116 26.1 116.4 26 116.6 25.8 C 116.9 25.6 117.1 25.3 117.1 25 C 117.1 24.7 116.9 24.5 116.7 24.3 C 116.5 24.2 116.1 24.1 115.4 23.9 C 114.5 23.7 113.9 23.5 113.6 23.3 C 113.2 23.2 113 22.9 112.8 22.6 C 112.6 22.3 112.5 22 112.5 21.7 C 112.5 21.3 112.6 21 112.7 20.8 C 112.9 20.5 113.1 20.3 113.3 20.1 C 113.5 19.9 113.8 19.8 114.1 19.7 C 114.4 19.6 114.8 19.6 115.2 19.6 C 115.7 19.6 116.2 19.7 116.7 19.8 C 117.1 20 117.4 20.2 117.6 20.5 C 117.8 20.8 118 21.1 118.1 21.6 C 118.1 21.6 116.8 21.8 116.8 21.8 C 116.8 21.4 116.6 21.1 116.4 20.9 C 116.1 20.7 115.7 20.6 115.3 20.6 C 114.7 20.6 114.3 20.7 114.1 20.9 C 113.8 21 113.7 21.3 113.7 21.5 C 113.7 21.7 113.7 21.8 113.8 21.9 C 113.9 22.1 114.1 22.2 114.3 22.3 C 114.4 22.3 114.8 22.4 115.4 22.6 C 116.3 22.8 116.9 23 117.2 23.2 C 117.6 23.3 117.8 23.5 118 23.8 C 118.2 24.1 118.3 24.4 118.3 24.9 C 118.3 25.3 118.2 25.7 118 26 C 117.7 26.4 117.4 26.7 116.9 26.9 C 116.5 27.1 116 27.2 115.4 27.2 C 114.5 27.2 113.7 27 113.2 26.6 C 112.7 26.2 112.4 25.6 112.3 24.8 Z M 119.8 18.4 L 119.8 17 L 121 17 L 121 18.4 L 119.8 18.4 Z M 119.8 27 L 119.8 19.7 L 121 19.7 L 121 27 L 119.8 27 Z M 122.9 27 L 122.9 19.7 L 124 19.7 C 124 19.7 124 20.76 124 20.8 C 124.5 20 125.3 19.6 126.3 19.6 C 126.8 19.6 127.2 19.6 127.5 19.8 C 127.9 20 128.2 20.2 128.3 20.4 C 128.5 20.7 128.7 21 128.7 21.3 C 128.8 21.6 128.8 22 128.8 22.5 C 128.8 22.53 128.8 27 128.8 27 L 127.6 27 C 127.6 27 127.57 22.58 127.6 22.6 C 127.6 22.1 127.5 21.7 127.4 21.5 C 127.3 21.2 127.2 21 126.9 20.9 C 126.7 20.7 126.4 20.6 126.1 20.6 C 125.5 20.6 125.1 20.8 124.7 21.1 C 124.3 21.5 124.1 22.1 124.1 23 C 124.13 23.03 124.1 27 124.1 27 L 122.9 27 Z M 135.7 24.7 C 135.7 24.7 136.9 24.8 136.9 24.8 C 136.7 25.6 136.4 26.1 135.8 26.5 C 135.3 27 134.6 27.2 133.7 27.2 C 132.7 27.2 131.8 26.8 131.2 26.2 C 130.6 25.5 130.3 24.6 130.3 23.4 C 130.3 22.2 130.6 21.3 131.2 20.6 C 131.8 19.9 132.7 19.6 133.7 19.6 C 134.6 19.6 135.4 19.9 136 20.6 C 136.7 21.2 137 22.2 137 23.3 C 137 23.4 137 23.5 137 23.7 C 137 23.7 131.5 23.7 131.5 23.7 C 131.6 24.5 131.8 25.1 132.2 25.5 C 132.6 25.9 133.1 26.1 133.7 26.1 C 134.2 26.1 134.6 26 134.9 25.8 C 135.2 25.6 135.5 25.2 135.7 24.7 Z M 131.6 22.7 C 131.6 22.7 135.7 22.7 135.7 22.7 C 135.6 22.1 135.5 21.6 135.2 21.3 C 134.8 20.8 134.3 20.6 133.7 20.6 C 133.1 20.6 132.6 20.8 132.3 21.1 C 131.9 21.5 131.7 22 131.6 22.7 Z M 138 24.8 C 138 24.8 139.2 24.6 139.2 24.6 C 139.3 25.1 139.5 25.5 139.8 25.8 C 140.1 26 140.5 26.1 141.1 26.1 C 141.6 26.1 142.1 26 142.3 25.8 C 142.6 25.6 142.7 25.3 142.7 25 C 142.7 24.7 142.6 24.5 142.4 24.3 C 142.2 24.2 141.8 24.1 141.1 23.9 C 140.2 23.7 139.6 23.5 139.2 23.3 C 138.9 23.2 138.6 22.9 138.5 22.6 C 138.3 22.3 138.2 22 138.2 21.7 C 138.2 21.3 138.3 21 138.4 20.8 C 138.6 20.5 138.8 20.3 139 20.1 C 139.2 19.9 139.5 19.8 139.8 19.7 C 140.1 19.6 140.5 19.6 140.9 19.6 C 141.4 19.6 141.9 19.7 142.4 19.8 C 142.8 20 143.1 20.2 143.3 20.5 C 143.5 20.8 143.7 21.1 143.7 21.6 C 143.7 21.6 142.5 21.8 142.5 21.8 C 142.5 21.4 142.3 21.1 142.1 20.9 C 141.8 20.7 141.4 20.6 140.9 20.6 C 140.4 20.6 140 20.7 139.7 20.9 C 139.5 21 139.4 21.3 139.4 21.5 C 139.4 21.7 139.4 21.8 139.5 21.9 C 139.6 22.1 139.8 22.2 140 22.3 C 140.1 22.3 140.5 22.4 141.1 22.6 C 142 22.8 142.6 23 142.9 23.2 C 143.2 23.3 143.5 23.5 143.7 23.8 C 143.9 24.1 144 24.4 144 24.9 C 144 25.3 143.9 25.7 143.6 26 C 143.4 26.4 143.1 26.7 142.6 26.9 C 142.2 27.1 141.7 27.2 141.1 27.2 C 140.1 27.2 139.4 27 138.9 26.6 C 138.4 26.2 138.1 25.6 138 24.8 Z M 145 24.8 C 145 24.8 146.2 24.6 146.2 24.6 C 146.3 25.1 146.5 25.5 146.8 25.8 C 147.1 26 147.5 26.1 148.1 26.1 C 148.6 26.1 149.1 26 149.3 25.8 C 149.6 25.6 149.7 25.3 149.7 25 C 149.7 24.7 149.6 24.5 149.4 24.3 C 149.2 24.2 148.8 24.1 148.1 23.9 C 147.2 23.7 146.6 23.5 146.2 23.3 C 145.9 23.2 145.6 22.9 145.5 22.6 C 145.3 22.3 145.2 22 145.2 21.7 C 145.2 21.3 145.3 21 145.4 20.8 C 145.6 20.5 145.8 20.3 146 20.1 C 146.2 19.9 146.5 19.8 146.8 19.7 C 147.1 19.6 147.5 19.6 147.9 19.6 C 148.4 19.6 148.9 19.7 149.4 19.8 C 149.8 20 150.1 20.2 150.3 20.5 C 150.5 20.8 150.7 21.1 150.7 21.6 C 150.7 21.6 149.5 21.8 149.5 21.8 C 149.5 21.4 149.3 21.1 149.1 20.9 C 148.8 20.7 148.4 20.6 147.9 20.6 C 147.4 20.6 147 20.7 146.7 20.9 C 146.5 21 146.4 21.3 146.4 21.5 C 146.4 21.7 146.4 21.8 146.5 21.9 C 146.6 22.1 146.8 22.2 147 22.3 C 147.1 22.3 147.5 22.4 148.1 22.6 C 149 22.8 149.6 23 149.9 23.2 C 150.2 23.3 150.5 23.5 150.7 23.8 C 150.9 24.1 151 24.4 151 24.9 C 151 25.3 150.9 25.7 150.6 26 C 150.4 26.4 150.1 26.7 149.6 26.9 C 149.2 27.1 148.7 27.2 148.1 27.2 C 147.1 27.2 146.4 27 145.9 26.6 C 145.4 26.2 145.1 25.6 145 24.8 Z M 156.5 27 L 156.5 17 C 156.5 17 160.23 16.97 160.2 17 C 160.9 17 161.4 17 161.8 17.1 C 162.3 17.1 162.7 17.3 163 17.5 C 163.3 17.8 163.6 18.1 163.8 18.5 C 164 18.9 164.1 19.4 164.1 19.9 C 164.1 20.7 163.8 21.4 163.3 22 C 162.7 22.6 161.8 22.9 160.3 22.9 C 160.35 22.92 157.8 22.9 157.8 22.9 L 157.8 27 L 156.5 27 Z M 157.8 21.7 C 157.8 21.7 160.37 21.74 160.4 21.7 C 161.2 21.7 161.8 21.6 162.2 21.3 C 162.6 20.9 162.7 20.5 162.7 19.9 C 162.7 19.5 162.6 19.1 162.4 18.8 C 162.2 18.5 161.9 18.3 161.6 18.2 C 161.4 18.2 160.9 18.2 160.3 18.2 C 160.34 18.15 157.8 18.2 157.8 18.2 L 157.8 21.7 Z M 170.6 27 C 170.5 26.7 170.4 26.4 170.4 26.1 C 169.9 26.5 169.5 26.8 169.1 26.9 C 168.6 27.1 168.2 27.2 167.7 27.2 C 166.9 27.2 166.3 27 165.9 26.6 C 165.4 26.2 165.2 25.7 165.2 25.1 C 165.2 24.7 165.3 24.4 165.5 24.1 C 165.6 23.8 165.8 23.6 166.1 23.4 C 166.4 23.2 166.7 23.1 167 23 C 167.2 22.9 167.6 22.9 168.1 22.8 C 169.1 22.7 169.8 22.5 170.3 22.4 C 170.3 22.2 170.3 22.1 170.3 22.1 C 170.3 21.6 170.2 21.2 169.9 21 C 169.6 20.7 169.1 20.6 168.5 20.6 C 167.9 20.6 167.5 20.7 167.2 20.9 C 167 21.1 166.8 21.5 166.6 22 C 166.6 22 165.4 21.8 165.4 21.8 C 165.5 21.3 165.7 20.9 166 20.6 C 166.2 20.2 166.6 20 167.1 19.8 C 167.5 19.7 168.1 19.6 168.7 19.6 C 169.3 19.6 169.8 19.6 170.2 19.8 C 170.6 19.9 170.9 20.1 171.1 20.3 C 171.3 20.6 171.4 20.8 171.5 21.2 C 171.5 21.4 171.5 21.8 171.5 22.3 C 171.5 22.3 171.5 24 171.5 24 C 171.5 25.1 171.5 25.8 171.6 26.1 C 171.6 26.4 171.7 26.7 171.9 27 C 171.9 26.99 170.6 27 170.6 27 C 170.6 27 170.62 26.99 170.6 27 Z M 170.3 23.3 C 169.8 23.5 169.2 23.7 168.3 23.8 C 167.8 23.9 167.4 24 167.2 24.1 C 167 24.2 166.8 24.3 166.7 24.5 C 166.6 24.6 166.5 24.8 166.5 25 C 166.5 25.4 166.7 25.6 166.9 25.9 C 167.2 26.1 167.5 26.2 168 26.2 C 168.5 26.2 168.9 26.1 169.3 25.9 C 169.6 25.7 169.9 25.4 170.1 25 C 170.2 24.8 170.3 24.3 170.3 23.8 C 170.3 23.8 170.3 23.3 170.3 23.3 Z M 173.4 27 L 173.4 19.7 L 174.5 19.7 C 174.5 19.7 174.51 20.83 174.5 20.8 C 174.8 20.3 175.1 20 175.3 19.8 C 175.5 19.7 175.8 19.6 176.1 19.6 C 176.5 19.6 176.9 19.7 177.4 20 C 177.4 20 176.9 21.1 176.9 21.1 C 176.6 20.9 176.3 20.8 176 20.8 C 175.8 20.8 175.5 20.9 175.3 21.1 C 175.1 21.2 174.9 21.5 174.8 21.8 C 174.7 22.2 174.6 22.7 174.6 23.2 C 174.64 23.19 174.6 27 174.6 27 L 173.4 27 Z M 178.1 27 L 178.1 17 L 179.3 17 L 179.3 22.7 L 182.2 19.7 L 183.8 19.7 L 181 22.4 L 184.1 27 L 182.6 27 L 180.2 23.3 L 179.3 24.1 L 179.3 27 L 178.1 27 Z " stroke="none" fill="#000"/>  </g>  <g id="Polygon106926">    <path d="M 1.1 10.2 L 1.1 0.2 C 1.1 0.2 4.53 0.17 4.5 0.2 C 5.3 0.2 5.9 0.2 6.3 0.3 C 6.9 0.4 7.4 0.7 7.8 1 C 8.3 1.5 8.7 2 9 2.7 C 9.2 3.4 9.4 4.2 9.4 5.1 C 9.4 5.9 9.3 6.6 9.1 7.2 C 8.9 7.7 8.7 8.2 8.4 8.6 C 8.1 9 7.8 9.3 7.5 9.5 C 7.2 9.7 6.8 9.9 6.3 10 C 5.8 10.1 5.3 10.2 4.7 10.2 C 4.7 10.19 1.1 10.2 1.1 10.2 Z M 2.4 9 C 2.4 9 4.55 9.01 4.5 9 C 5.2 9 5.7 8.9 6.1 8.8 C 6.5 8.7 6.8 8.5 7 8.3 C 7.3 8 7.6 7.6 7.7 7 C 7.9 6.5 8 5.9 8 5.1 C 8 4.1 7.8 3.3 7.5 2.7 C 7.1 2.1 6.7 1.8 6.2 1.6 C 5.9 1.4 5.3 1.4 4.5 1.4 C 4.51 1.35 2.4 1.4 2.4 1.4 L 2.4 9 Z M 10.7 7 C 10.7 7 12 6.9 12 6.9 C 12 7.4 12.2 7.8 12.4 8.1 C 12.6 8.4 13 8.7 13.4 8.9 C 13.9 9.1 14.4 9.2 15 9.2 C 15.5 9.2 15.9 9.1 16.3 8.9 C 16.7 8.8 17 8.6 17.2 8.3 C 17.3 8.1 17.4 7.8 17.4 7.5 C 17.4 7.2 17.3 6.9 17.2 6.6 C 17 6.4 16.7 6.2 16.3 6.1 C 16 6 15.4 5.8 14.5 5.6 C 13.6 5.3 12.9 5.1 12.5 4.9 C 12.1 4.7 11.7 4.4 11.5 4 C 11.2 3.6 11.1 3.2 11.1 2.8 C 11.1 2.3 11.3 1.8 11.6 1.3 C 11.8 0.9 12.3 0.6 12.8 0.3 C 13.4 0.1 14 0 14.6 0 C 15.4 0 16 0.1 16.6 0.4 C 17.2 0.6 17.6 1 17.9 1.4 C 18.2 1.9 18.4 2.4 18.4 3 C 18.4 3 17.1 3.1 17.1 3.1 C 17.1 2.5 16.8 2 16.5 1.7 C 16.1 1.3 15.5 1.2 14.7 1.2 C 13.9 1.2 13.3 1.3 13 1.6 C 12.6 1.9 12.4 2.3 12.4 2.7 C 12.4 3 12.5 3.3 12.8 3.6 C 13 3.8 13.7 4 14.8 4.3 C 15.9 4.5 16.6 4.7 17 4.9 C 17.6 5.2 18 5.5 18.3 5.9 C 18.6 6.3 18.7 6.8 18.7 7.4 C 18.7 7.9 18.6 8.4 18.3 8.9 C 18 9.3 17.5 9.7 16.9 10 C 16.4 10.2 15.7 10.4 15 10.4 C 14.1 10.4 13.3 10.2 12.7 10 C 12.1 9.7 11.6 9.3 11.3 8.8 C 10.9 8.2 10.8 7.6 10.7 7 Z M 22.3 10.2 L 19.6 0.2 L 21 0.2 C 21 0.2 22.5 6.74 22.5 6.7 C 22.7 7.4 22.8 8.1 22.9 8.8 C 23.2 7.7 23.3 7.1 23.4 6.9 C 23.38 6.94 25.3 0.2 25.3 0.2 L 26.9 0.2 C 26.9 0.2 28.32 5.24 28.3 5.2 C 28.7 6.5 28.9 7.7 29.1 8.8 C 29.2 8.2 29.4 7.4 29.6 6.6 C 29.6 6.61 31.2 0.2 31.2 0.2 L 32.5 0.2 L 29.8 10.2 L 28.5 10.2 C 28.5 10.2 26.37 2.56 26.4 2.6 C 26.2 1.9 26.1 1.5 26.1 1.4 C 25.9 1.8 25.8 2.2 25.8 2.6 C 25.76 2.56 23.6 10.2 23.6 10.2 L 22.3 10.2 Z M 37.7 10.2 L 37.7 0.2 L 39 0.2 L 39 4.3 L 44.2 4.3 L 44.2 0.2 L 45.5 0.2 L 45.5 10.2 L 44.2 10.2 L 44.2 5.5 L 39 5.5 L 39 10.2 L 37.7 10.2 Z M 47.1 6.6 C 47.1 5.2 47.5 4.2 48.2 3.6 C 48.9 3 49.6 2.8 50.5 2.8 C 51.5 2.8 52.3 3.1 53 3.7 C 53.6 4.4 53.9 5.3 53.9 6.5 C 53.9 7.4 53.8 8.1 53.5 8.7 C 53.2 9.2 52.8 9.6 52.3 9.9 C 51.7 10.2 51.2 10.4 50.5 10.4 C 49.5 10.4 48.7 10 48.1 9.4 C 47.4 8.7 47.1 7.8 47.1 6.6 Z M 48.4 6.6 C 48.4 7.5 48.6 8.2 49 8.7 C 49.4 9.1 49.9 9.3 50.5 9.3 C 51.1 9.3 51.6 9.1 52.1 8.6 C 52.5 8.2 52.7 7.5 52.7 6.5 C 52.7 5.6 52.5 4.9 52.1 4.5 C 51.6 4 51.1 3.8 50.5 3.8 C 49.9 3.8 49.4 4 49 4.5 C 48.6 4.9 48.4 5.6 48.4 6.6 Z M 60.1 10.2 C 60.1 10.2 60.13 9.13 60.1 9.1 C 59.6 9.9 58.8 10.4 57.8 10.4 C 57.4 10.4 57 10.3 56.6 10.1 C 56.3 9.9 56 9.7 55.8 9.5 C 55.6 9.2 55.5 8.9 55.4 8.6 C 55.4 8.3 55.3 8 55.3 7.4 C 55.34 7.43 55.3 2.9 55.3 2.9 L 56.6 2.9 C 56.6 2.9 56.57 6.96 56.6 7 C 56.6 7.6 56.6 8 56.6 8.3 C 56.7 8.6 56.9 8.8 57.1 9 C 57.4 9.2 57.7 9.3 58.1 9.3 C 58.4 9.3 58.8 9.2 59.1 9 C 59.4 8.8 59.7 8.6 59.8 8.2 C 59.9 7.9 60 7.4 60 6.8 C 60 6.82 60 2.9 60 2.9 L 61.2 2.9 L 61.2 10.2 L 60.1 10.2 Z M 62.7 8 C 62.7 8 63.9 7.8 63.9 7.8 C 64 8.3 64.1 8.7 64.5 9 C 64.8 9.2 65.2 9.3 65.8 9.3 C 66.3 9.3 66.7 9.2 67 9 C 67.3 8.8 67.4 8.5 67.4 8.2 C 67.4 7.9 67.3 7.7 67.1 7.5 C 66.9 7.4 66.5 7.3 65.8 7.1 C 64.9 6.9 64.3 6.7 63.9 6.5 C 63.6 6.4 63.3 6.1 63.1 5.8 C 63 5.5 62.9 5.2 62.9 4.9 C 62.9 4.5 62.9 4.2 63.1 4 C 63.2 3.7 63.4 3.5 63.7 3.3 C 63.9 3.1 64.1 3 64.5 2.9 C 64.8 2.8 65.2 2.8 65.5 2.8 C 66.1 2.8 66.6 2.9 67 3 C 67.5 3.2 67.8 3.4 68 3.7 C 68.2 4 68.3 4.3 68.4 4.8 C 68.4 4.8 67.2 5 67.2 5 C 67.2 4.6 67 4.3 66.7 4.1 C 66.5 3.9 66.1 3.8 65.6 3.8 C 65.1 3.8 64.7 3.9 64.4 4.1 C 64.2 4.2 64.1 4.5 64.1 4.7 C 64.1 4.9 64.1 5 64.2 5.1 C 64.3 5.3 64.5 5.4 64.7 5.5 C 64.8 5.5 65.2 5.6 65.8 5.8 C 66.6 6 67.2 6.2 67.6 6.4 C 67.9 6.5 68.2 6.7 68.4 7 C 68.6 7.3 68.7 7.6 68.7 8.1 C 68.7 8.5 68.6 8.9 68.3 9.2 C 68.1 9.6 67.8 9.9 67.3 10.1 C 66.8 10.3 66.3 10.4 65.8 10.4 C 64.8 10.4 64.1 10.2 63.6 9.8 C 63.1 9.4 62.8 8.8 62.7 8 Z M 75.1 7.9 C 75.1 7.9 76.4 8 76.4 8 C 76.2 8.8 75.8 9.3 75.3 9.7 C 74.7 10.2 74 10.4 73.2 10.4 C 72.1 10.4 71.3 10 70.7 9.4 C 70.1 8.7 69.7 7.8 69.7 6.6 C 69.7 5.4 70.1 4.5 70.7 3.8 C 71.3 3.1 72.1 2.8 73.1 2.8 C 74.1 2.8 74.9 3.1 75.5 3.8 C 76.1 4.4 76.4 5.4 76.4 6.5 C 76.4 6.6 76.4 6.7 76.4 6.9 C 76.4 6.9 71 6.9 71 6.9 C 71.1 7.7 71.3 8.3 71.7 8.7 C 72.1 9.1 72.6 9.3 73.2 9.3 C 73.7 9.3 74 9.2 74.4 9 C 74.7 8.8 74.9 8.4 75.1 7.9 Z M 71.1 5.9 C 71.1 5.9 75.1 5.9 75.1 5.9 C 75.1 5.3 74.9 4.8 74.7 4.5 C 74.3 4 73.8 3.8 73.2 3.8 C 72.6 3.8 72.1 4 71.7 4.3 C 71.3 4.7 71.1 5.2 71.1 5.9 Z " stroke="none" fill="#000"/>  </g></svg>