<?xml version="1.0" standalone="no"?><!DOCTYPE svg PUBLIC "-//W3C//DTD SVG 1.1//EN" "http://www.w3.org/Graphics/SVG/1.1/DTD/svg11.dtd"><svg xmlns="http://www.w3.org/2000/svg" version="1.1" width="87px" height="23.9px" viewBox="0 -5 87 23.9" style="top:-5px">  <desc>Reliability</desc>  <defs/>  <g id="Polygon138357">    <path d="M 14.5 10.2 L 14.5 0.2 C 14.5 0.2 18.93 0.17 18.9 0.2 C 19.8 0.2 20.5 0.3 21 0.4 C 21.4 0.6 21.8 0.9 22.1 1.4 C 22.4 1.9 22.5 2.4 22.5 2.9 C 22.5 3.6 22.3 4.2 21.8 4.7 C 21.3 5.2 20.6 5.5 19.7 5.6 C 20 5.8 20.3 6 20.5 6.1 C 20.9 6.5 21.2 6.9 21.6 7.5 C 21.57 7.46 23.3 10.2 23.3 10.2 L 21.6 10.2 C 21.6 10.2 20.32 8.11 20.3 8.1 C 19.9 7.5 19.6 7 19.4 6.7 C 19.1 6.4 18.9 6.2 18.7 6.1 C 18.5 5.9 18.3 5.8 18.1 5.8 C 17.9 5.8 17.7 5.7 17.3 5.7 C 17.35 5.74 15.8 5.7 15.8 5.7 L 15.8 10.2 L 14.5 10.2 Z M 15.8 4.6 C 15.8 4.6 18.66 4.59 18.7 4.6 C 19.3 4.6 19.7 4.5 20.1 4.4 C 20.4 4.3 20.7 4.1 20.9 3.8 C 21 3.5 21.1 3.2 21.1 2.9 C 21.1 2.4 21 2 20.6 1.7 C 20.3 1.4 19.7 1.3 19 1.3 C 18.98 1.28 15.8 1.3 15.8 1.3 L 15.8 4.6 Z M 29.4 7.9 C 29.4 7.9 30.7 8 30.7 8 C 30.5 8.8 30.1 9.3 29.5 9.7 C 29 10.2 28.3 10.4 27.5 10.4 C 26.4 10.4 25.6 10 24.9 9.4 C 24.3 8.7 24 7.8 24 6.6 C 24 5.4 24.3 4.5 25 3.8 C 25.6 3.1 26.4 2.8 27.4 2.8 C 28.4 2.8 29.2 3.1 29.8 3.8 C 30.4 4.4 30.7 5.4 30.7 6.5 C 30.7 6.6 30.7 6.7 30.7 6.9 C 30.7 6.9 25.3 6.9 25.3 6.9 C 25.3 7.7 25.6 8.3 26 8.7 C 26.4 9.1 26.9 9.3 27.5 9.3 C 27.9 9.3 28.3 9.2 28.6 9 C 28.9 8.8 29.2 8.4 29.4 7.9 Z M 25.3 5.9 C 25.3 5.9 29.4 5.9 29.4 5.9 C 29.3 5.3 29.2 4.8 28.9 4.5 C 28.5 4 28 3.8 27.4 3.8 C 26.8 3.8 26.4 4 26 4.3 C 25.6 4.7 25.4 5.2 25.3 5.9 Z M 32.2 10.2 L 32.2 0.2 L 33.4 0.2 L 33.4 10.2 L 32.2 10.2 Z M 35.3 1.6 L 35.3 0.2 L 36.6 0.2 L 36.6 1.6 L 35.3 1.6 Z M 35.3 10.2 L 35.3 2.9 L 36.6 2.9 L 36.6 10.2 L 35.3 10.2 Z M 43.4 10.2 C 43.3 9.9 43.2 9.6 43.2 9.3 C 42.7 9.7 42.3 10 41.8 10.1 C 41.4 10.3 41 10.4 40.5 10.4 C 39.7 10.4 39.1 10.2 38.7 9.8 C 38.2 9.4 38 8.9 38 8.3 C 38 7.9 38.1 7.6 38.3 7.3 C 38.4 7 38.6 6.8 38.9 6.6 C 39.1 6.4 39.4 6.3 39.8 6.2 C 40 6.1 40.4 6.1 40.9 6 C 41.9 5.9 42.6 5.7 43.1 5.6 C 43.1 5.4 43.1 5.3 43.1 5.3 C 43.1 4.8 43 4.4 42.7 4.2 C 42.4 3.9 41.9 3.8 41.3 3.8 C 40.7 3.8 40.3 3.9 40 4.1 C 39.8 4.3 39.6 4.7 39.4 5.2 C 39.4 5.2 38.2 5 38.2 5 C 38.3 4.5 38.5 4.1 38.8 3.8 C 39 3.4 39.4 3.2 39.8 3 C 40.3 2.9 40.9 2.8 41.5 2.8 C 42.1 2.8 42.6 2.8 43 3 C 43.4 3.1 43.7 3.3 43.9 3.5 C 44 3.8 44.2 4 44.2 4.4 C 44.3 4.6 44.3 5 44.3 5.5 C 44.3 5.5 44.3 7.2 44.3 7.2 C 44.3 8.3 44.3 9 44.4 9.3 C 44.4 9.6 44.5 9.9 44.7 10.2 C 44.69 10.19 43.4 10.2 43.4 10.2 C 43.4 10.2 43.41 10.19 43.4 10.2 Z M 43.1 6.5 C 42.6 6.7 41.9 6.9 41 7 C 40.5 7.1 40.2 7.2 40 7.3 C 39.8 7.4 39.6 7.5 39.5 7.7 C 39.4 7.8 39.3 8 39.3 8.2 C 39.3 8.6 39.4 8.8 39.7 9.1 C 39.9 9.3 40.3 9.4 40.8 9.4 C 41.3 9.4 41.7 9.3 42 9.1 C 42.4 8.9 42.7 8.6 42.9 8.2 C 43 8 43.1 7.5 43.1 7 C 43.1 7 43.1 6.5 43.1 6.5 Z M 47.3 10.2 L 46.2 10.2 L 46.2 0.2 L 47.4 0.2 C 47.4 0.2 47.43 3.75 47.4 3.7 C 48 3.1 48.6 2.8 49.4 2.8 C 49.9 2.8 50.3 2.9 50.7 3 C 51.1 3.2 51.4 3.5 51.7 3.8 C 51.9 4.1 52.1 4.5 52.3 5 C 52.4 5.4 52.5 5.9 52.5 6.5 C 52.5 7.7 52.2 8.7 51.6 9.3 C 51 10 50.2 10.4 49.4 10.4 C 48.5 10.4 47.8 10 47.3 9.3 C 47.35 9.28 47.3 10.2 47.3 10.2 Z M 47.3 6.5 C 47.3 7.4 47.5 8 47.7 8.4 C 48.1 9 48.6 9.3 49.3 9.3 C 49.8 9.3 50.3 9.1 50.7 8.6 C 51 8.2 51.2 7.5 51.2 6.6 C 51.2 5.6 51.1 4.9 50.7 4.5 C 50.3 4 49.8 3.8 49.3 3.8 C 48.8 3.8 48.3 4 47.9 4.5 C 47.5 4.9 47.3 5.6 47.3 6.5 Z M 54 1.6 L 54 0.2 L 55.2 0.2 L 55.2 1.6 L 54 1.6 Z M 54 10.2 L 54 2.9 L 55.2 2.9 L 55.2 10.2 L 54 10.2 Z M 57.1 10.2 L 57.1 0.2 L 58.3 0.2 L 58.3 10.2 L 57.1 10.2 Z M 60.2 1.6 L 60.2 0.2 L 61.5 0.2 L 61.5 1.6 L 60.2 1.6 Z M 60.2 10.2 L 60.2 2.9 L 61.5 2.9 L 61.5 10.2 L 60.2 10.2 Z M 65.5 9.1 C 65.6 9.1 65.8 9.1 66 9.1 C 66 9.1 66.2 10.2 66.2 10.2 C 65.8 10.3 65.5 10.3 65.3 10.3 C 64.8 10.3 64.5 10.2 64.2 10.1 C 64 9.9 63.8 9.7 63.7 9.5 C 63.6 9.3 63.6 8.8 63.6 8.1 C 63.55 8.07 63.6 3.9 63.6 3.9 L 62.7 3.9 L 62.7 2.9 L 63.6 2.9 L 63.6 1.1 L 64.8 0.4 L 64.8 2.9 L 66 2.9 L 66 3.9 L 64.8 3.9 C 64.8 3.9 64.78 8.13 64.8 8.1 C 64.8 8.5 64.8 8.7 64.8 8.8 C 64.9 8.9 65 9 65.1 9.1 C 65.2 9.1 65.3 9.1 65.5 9.1 C 65.5 9.1 65.5 9.1 65.5 9.1 Z M 68 13.1 C 67.7 13.1 67.5 13.1 67.2 13 C 67.2 13 67 11.8 67 11.8 C 67.3 11.9 67.5 11.9 67.7 11.9 C 68 11.9 68.2 11.9 68.4 11.8 C 68.6 11.7 68.7 11.6 68.8 11.4 C 68.9 11.3 69 11 69.2 10.5 C 69.2 10.4 69.2 10.3 69.3 10.2 C 69.28 10.21 66.5 2.9 66.5 2.9 L 67.8 2.9 C 67.8 2.9 69.36 7.14 69.4 7.1 C 69.6 7.7 69.7 8.2 69.9 8.8 C 70 8.3 70.2 7.7 70.4 7.2 C 70.39 7.16 71.9 2.9 71.9 2.9 L 73.2 2.9 C 73.2 2.9 70.41 10.32 70.4 10.3 C 70.1 11.1 69.9 11.7 69.7 12 C 69.5 12.4 69.3 12.7 69 12.9 C 68.7 13 68.3 13.1 68 13.1 C 68 13.1 68 13.1 68 13.1 Z " stroke="none" fill="#fff"/>  </g></svg>