<?xml version="1.0" standalone="no"?><!DOCTYPE svg PUBLIC "-//W3C//DTD SVG 1.1//EN" "http://www.w3.org/Graphics/SVG/1.1/DTD/svg11.dtd"><svg xmlns="http://www.w3.org/2000/svg" version="1.1" width="87px" height="23.9px" viewBox="0 -5 87 23.9" style="top:-5px">  <desc>Authenticity</desc>  <defs/>  <g id="Polygon143285">    <path d="M 7.1 10.2 L 11 0.2 L 12.4 0.2 L 16.5 10.2 L 15 10.2 L 13.8 7.2 L 9.6 7.2 L 8.5 10.2 L 7.1 10.2 Z M 10 6.1 L 13.4 6.1 C 13.4 6.1 12.38 3.3 12.4 3.3 C 12.1 2.5 11.8 1.8 11.7 1.2 C 11.5 1.9 11.4 2.5 11.1 3.1 C 11.13 3.14 10 6.1 10 6.1 Z M 22.2 10.2 C 22.2 10.2 22.17 9.13 22.2 9.1 C 21.6 9.9 20.8 10.4 19.9 10.4 C 19.4 10.4 19 10.3 18.7 10.1 C 18.3 9.9 18 9.7 17.8 9.5 C 17.7 9.2 17.5 8.9 17.5 8.6 C 17.4 8.3 17.4 8 17.4 7.4 C 17.39 7.43 17.4 2.9 17.4 2.9 L 18.6 2.9 C 18.6 2.9 18.62 6.96 18.6 7 C 18.6 7.6 18.6 8 18.7 8.3 C 18.8 8.6 18.9 8.8 19.2 9 C 19.4 9.2 19.7 9.3 20.1 9.3 C 20.5 9.3 20.8 9.2 21.2 9 C 21.5 8.8 21.7 8.6 21.8 8.2 C 22 7.9 22 7.4 22 6.8 C 22.04 6.82 22 2.9 22 2.9 L 23.3 2.9 L 23.3 10.2 L 22.2 10.2 Z M 27.3 9.1 C 27.5 9.1 27.7 9.1 27.9 9.1 C 27.9 9.1 28.1 10.2 28.1 10.2 C 27.7 10.3 27.4 10.3 27.1 10.3 C 26.7 10.3 26.3 10.2 26.1 10.1 C 25.9 9.9 25.7 9.7 25.6 9.5 C 25.5 9.3 25.4 8.8 25.4 8.1 C 25.43 8.07 25.4 3.9 25.4 3.9 L 24.5 3.9 L 24.5 2.9 L 25.4 2.9 L 25.4 1.1 L 26.7 0.4 L 26.7 2.9 L 27.9 2.9 L 27.9 3.9 L 26.7 3.9 C 26.7 3.9 26.65 8.13 26.7 8.1 C 26.7 8.5 26.7 8.7 26.7 8.8 C 26.8 8.9 26.8 9 26.9 9.1 C 27 9.1 27.2 9.1 27.3 9.1 C 27.3 9.1 27.3 9.1 27.3 9.1 Z M 29.1 10.2 L 29.1 0.2 L 30.3 0.2 C 30.3 0.2 30.32 3.77 30.3 3.8 C 30.9 3.1 31.6 2.8 32.5 2.8 C 33 2.8 33.5 2.9 33.9 3.1 C 34.3 3.3 34.6 3.6 34.7 4 C 34.9 4.3 35 4.9 35 5.6 C 35 5.59 35 10.2 35 10.2 L 33.8 10.2 C 33.8 10.2 33.77 5.59 33.8 5.6 C 33.8 5 33.6 4.5 33.4 4.2 C 33.1 4 32.7 3.8 32.2 3.8 C 31.9 3.8 31.5 3.9 31.2 4.1 C 30.9 4.3 30.7 4.6 30.5 4.9 C 30.4 5.2 30.3 5.7 30.3 6.2 C 30.32 6.22 30.3 10.2 30.3 10.2 L 29.1 10.2 Z M 41.8 7.9 C 41.8 7.9 43.1 8 43.1 8 C 42.9 8.8 42.5 9.3 42 9.7 C 41.5 10.2 40.8 10.4 39.9 10.4 C 38.9 10.4 38 10 37.4 9.4 C 36.8 8.7 36.5 7.8 36.5 6.6 C 36.5 5.4 36.8 4.5 37.4 3.8 C 38 3.1 38.9 2.8 39.9 2.8 C 40.8 2.8 41.6 3.1 42.2 3.8 C 42.9 4.4 43.2 5.4 43.2 6.5 C 43.2 6.6 43.2 6.7 43.2 6.9 C 43.2 6.9 37.7 6.9 37.7 6.9 C 37.8 7.7 38 8.3 38.4 8.7 C 38.8 9.1 39.3 9.3 39.9 9.3 C 40.4 9.3 40.8 9.2 41.1 9 C 41.4 8.8 41.7 8.4 41.8 7.9 Z M 37.8 5.9 C 37.8 5.9 41.9 5.9 41.9 5.9 C 41.8 5.3 41.7 4.8 41.4 4.5 C 41 4 40.5 3.8 39.9 3.8 C 39.3 3.8 38.8 4 38.4 4.3 C 38.1 4.7 37.8 5.2 37.8 5.9 Z M 44.7 10.2 L 44.7 2.9 L 45.8 2.9 C 45.8 2.9 45.77 3.96 45.8 4 C 46.3 3.2 47.1 2.8 48.1 2.8 C 48.5 2.8 48.9 2.8 49.3 3 C 49.7 3.2 49.9 3.4 50.1 3.6 C 50.3 3.9 50.4 4.2 50.5 4.5 C 50.5 4.8 50.6 5.2 50.6 5.7 C 50.56 5.73 50.6 10.2 50.6 10.2 L 49.3 10.2 C 49.3 10.2 49.33 5.78 49.3 5.8 C 49.3 5.3 49.3 4.9 49.2 4.7 C 49.1 4.4 48.9 4.2 48.7 4.1 C 48.4 3.9 48.1 3.8 47.8 3.8 C 47.3 3.8 46.8 4 46.5 4.3 C 46.1 4.7 45.9 5.3 45.9 6.2 C 45.89 6.23 45.9 10.2 45.9 10.2 L 44.7 10.2 Z M 54.6 9.1 C 54.7 9.1 54.9 9.1 55.1 9.1 C 55.1 9.1 55.3 10.2 55.3 10.2 C 55 10.3 54.7 10.3 54.4 10.3 C 53.9 10.3 53.6 10.2 53.3 10.1 C 53.1 9.9 52.9 9.7 52.8 9.5 C 52.7 9.3 52.7 8.8 52.7 8.1 C 52.67 8.07 52.7 3.9 52.7 3.9 L 51.8 3.9 L 51.8 2.9 L 52.7 2.9 L 52.7 1.1 L 53.9 0.4 L 53.9 2.9 L 55.1 2.9 L 55.1 3.9 L 53.9 3.9 C 53.9 3.9 53.9 8.13 53.9 8.1 C 53.9 8.5 53.9 8.7 54 8.8 C 54 8.9 54.1 9 54.2 9.1 C 54.3 9.1 54.4 9.1 54.6 9.1 C 54.6 9.1 54.6 9.1 54.6 9.1 Z M 56.3 1.6 L 56.3 0.2 L 57.6 0.2 L 57.6 1.6 L 56.3 1.6 Z M 56.3 10.2 L 56.3 2.9 L 57.6 2.9 L 57.6 10.2 L 56.3 10.2 Z M 64.2 7.5 C 64.2 7.5 65.4 7.7 65.4 7.7 C 65.3 8.5 64.9 9.2 64.4 9.6 C 63.8 10.1 63.2 10.4 62.4 10.4 C 61.4 10.4 60.6 10 60 9.4 C 59.4 8.7 59.1 7.8 59.1 6.6 C 59.1 5.8 59.2 5.1 59.5 4.5 C 59.7 3.9 60.1 3.5 60.6 3.2 C 61.2 2.9 61.8 2.8 62.4 2.8 C 63.2 2.8 63.8 3 64.3 3.4 C 64.8 3.8 65.1 4.3 65.3 5.1 C 65.3 5.1 64.1 5.3 64.1 5.3 C 64 4.8 63.8 4.4 63.5 4.1 C 63.2 3.9 62.8 3.8 62.4 3.8 C 61.8 3.8 61.3 4 60.9 4.4 C 60.5 4.9 60.3 5.6 60.3 6.6 C 60.3 7.5 60.5 8.2 60.9 8.7 C 61.3 9.1 61.8 9.3 62.4 9.3 C 62.8 9.3 63.2 9.2 63.6 8.9 C 63.9 8.6 64.1 8.1 64.2 7.5 Z M 66.5 1.6 L 66.5 0.2 L 67.7 0.2 L 67.7 1.6 L 66.5 1.6 Z M 66.5 10.2 L 66.5 2.9 L 67.7 2.9 L 67.7 10.2 L 66.5 10.2 Z M 71.7 9.1 C 71.8 9.1 72 9.1 72.2 9.1 C 72.2 9.1 72.4 10.2 72.4 10.2 C 72.1 10.3 71.8 10.3 71.5 10.3 C 71 10.3 70.7 10.2 70.5 10.1 C 70.2 9.9 70 9.7 69.9 9.5 C 69.8 9.3 69.8 8.8 69.8 8.1 C 69.78 8.07 69.8 3.9 69.8 3.9 L 68.9 3.9 L 68.9 2.9 L 69.8 2.9 L 69.8 1.1 L 71 0.4 L 71 2.9 L 72.2 2.9 L 72.2 3.9 L 71 3.9 C 71 3.9 71.01 8.13 71 8.1 C 71 8.5 71 8.7 71.1 8.8 C 71.1 8.9 71.2 9 71.3 9.1 C 71.4 9.1 71.5 9.1 71.7 9.1 C 71.7 9.1 71.7 9.1 71.7 9.1 Z M 74.2 13.1 C 74 13.1 73.7 13.1 73.4 13 C 73.4 13 73.3 11.8 73.3 11.8 C 73.5 11.9 73.8 11.9 74 11.9 C 74.2 11.9 74.5 11.9 74.6 11.8 C 74.8 11.7 74.9 11.6 75 11.4 C 75.1 11.3 75.2 11 75.4 10.5 C 75.4 10.4 75.5 10.3 75.5 10.2 C 75.51 10.21 72.8 2.9 72.8 2.9 L 74.1 2.9 C 74.1 2.9 75.59 7.14 75.6 7.1 C 75.8 7.7 76 8.2 76.1 8.8 C 76.3 8.3 76.4 7.7 76.6 7.2 C 76.62 7.16 78.2 2.9 78.2 2.9 L 79.4 2.9 C 79.4 2.9 76.64 10.32 76.6 10.3 C 76.3 11.1 76.1 11.7 76 12 C 75.7 12.4 75.5 12.7 75.2 12.9 C 74.9 13 74.6 13.1 74.2 13.1 C 74.2 13.1 74.2 13.1 74.2 13.1 Z " stroke="none" fill="#fff"/>  </g></svg>