<?xml version="1.0" standalone="no"?><!DOCTYPE svg PUBLIC "-//W3C//DTD SVG 1.1//EN" "http://www.w3.org/Graphics/SVG/1.1/DTD/svg11.dtd"><svg xmlns="http://www.w3.org/2000/svg" version="1.1" width="34.2px" height="23.9px" viewBox="0 -5 34.2 23.9" style="top:-5px">  <desc>Good</desc>  <defs/>  <g id="Polygon145756">    <path d="M 5.8 6.3 L 5.8 5.1 L 10 5.1 C 10 5.1 10.01 8.8 10 8.8 C 9.4 9.3 8.7 9.7 8 10 C 7.3 10.2 6.6 10.4 5.9 10.4 C 4.9 10.4 4 10.2 3.2 9.7 C 2.4 9.3 1.8 8.7 1.4 7.9 C 1 7.1 0.7 6.2 0.7 5.2 C 0.7 4.3 0.9 3.3 1.4 2.5 C 1.8 1.7 2.4 1 3.1 0.6 C 3.9 0.2 4.8 0 5.8 0 C 6.5 0 7.1 0.1 7.7 0.4 C 8.3 0.6 8.8 0.9 9.1 1.3 C 9.4 1.8 9.7 2.3 9.9 3 C 9.9 3 8.7 3.3 8.7 3.3 C 8.5 2.8 8.3 2.4 8.1 2.1 C 7.9 1.8 7.6 1.6 7.2 1.4 C 6.7 1.2 6.3 1.1 5.8 1.1 C 5.2 1.1 4.6 1.2 4.2 1.4 C 3.8 1.6 3.4 1.8 3.1 2.1 C 2.9 2.4 2.6 2.8 2.5 3.1 C 2.2 3.8 2.1 4.4 2.1 5.1 C 2.1 6 2.3 6.8 2.6 7.4 C 2.9 8 3.3 8.4 3.9 8.7 C 4.5 9 5.1 9.2 5.8 9.2 C 6.4 9.2 6.9 9.1 7.5 8.8 C 8 8.6 8.4 8.4 8.7 8.1 C 8.72 8.13 8.7 6.3 8.7 6.3 L 5.8 6.3 Z M 11.4 6.6 C 11.4 5.2 11.7 4.2 12.5 3.6 C 13.1 3 13.9 2.8 14.8 2.8 C 15.8 2.8 16.6 3.1 17.2 3.7 C 17.8 4.4 18.2 5.3 18.2 6.5 C 18.2 7.4 18 8.1 17.7 8.7 C 17.5 9.2 17 9.6 16.5 9.9 C 16 10.2 15.4 10.4 14.8 10.4 C 13.7 10.4 12.9 10 12.3 9.4 C 11.7 8.7 11.4 7.8 11.4 6.6 Z M 12.6 6.6 C 12.6 7.5 12.8 8.2 13.2 8.7 C 13.6 9.1 14.1 9.3 14.8 9.3 C 15.4 9.3 15.9 9.1 16.3 8.6 C 16.7 8.2 16.9 7.5 16.9 6.5 C 16.9 5.6 16.7 4.9 16.3 4.5 C 15.9 4 15.4 3.8 14.8 3.8 C 14.1 3.8 13.6 4 13.2 4.5 C 12.8 4.9 12.6 5.6 12.6 6.6 Z M 19.1 6.6 C 19.1 5.2 19.5 4.2 20.3 3.6 C 20.9 3 21.6 2.8 22.5 2.8 C 23.5 2.8 24.4 3.1 25 3.7 C 25.6 4.4 25.9 5.3 25.9 6.5 C 25.9 7.4 25.8 8.1 25.5 8.7 C 25.2 9.2 24.8 9.6 24.3 9.9 C 23.8 10.2 23.2 10.4 22.5 10.4 C 21.5 10.4 20.7 10 20.1 9.4 C 19.5 8.7 19.1 7.8 19.1 6.6 Z M 20.4 6.6 C 20.4 7.5 20.6 8.2 21 8.7 C 21.4 9.1 21.9 9.3 22.5 9.3 C 23.2 9.3 23.7 9.1 24.1 8.6 C 24.5 8.2 24.7 7.5 24.7 6.5 C 24.7 5.6 24.5 4.9 24.1 4.5 C 23.7 4 23.2 3.8 22.5 3.8 C 21.9 3.8 21.4 4 21 4.5 C 20.6 4.9 20.4 5.6 20.4 6.6 Z M 32.1 10.2 C 32.1 10.2 32.09 9.28 32.1 9.3 C 31.6 10 31 10.4 30.1 10.4 C 29.5 10.4 29 10.2 28.5 9.9 C 28 9.6 27.6 9.1 27.3 8.5 C 27.1 8 26.9 7.3 26.9 6.6 C 26.9 5.8 27.1 5.2 27.3 4.6 C 27.5 4 27.9 3.6 28.4 3.2 C 28.9 2.9 29.4 2.8 30 2.8 C 30.4 2.8 30.8 2.9 31.2 3 C 31.5 3.2 31.8 3.5 32 3.8 C 32.01 3.77 32 0.2 32 0.2 L 33.2 0.2 L 33.2 10.2 L 32.1 10.2 Z M 28.2 6.6 C 28.2 7.5 28.4 8.2 28.8 8.7 C 29.2 9.1 29.6 9.3 30.2 9.3 C 30.7 9.3 31.2 9.1 31.6 8.7 C 31.9 8.2 32.1 7.6 32.1 6.7 C 32.1 5.7 31.9 4.9 31.5 4.5 C 31.2 4 30.7 3.8 30.1 3.8 C 29.6 3.8 29.1 4 28.8 4.5 C 28.4 4.9 28.2 5.6 28.2 6.6 Z " stroke="none" fill="#ffffff"/>  </g></svg>