<?xml version="1.0" standalone="no"?><!DOCTYPE svg PUBLIC "-//W3C//DTD SVG 1.1//EN" "http://www.w3.org/Graphics/SVG/1.1/DTD/svg11.dtd"><svg xmlns="http://www.w3.org/2000/svg" version="1.1" width="113.5px" height="40.9px" viewBox="0 -5 113.5 40.9" style="top:-5px">  <desc>Streamlined Administration</desc>  <defs/>  <g id="Polygon106657">    <path d="M 17.4 27 L 15.2 27 L 14.3 24.7 L 10.3 24.7 L 9.5 27 L 7.3 27 L 11.3 17 L 13.4 17 L 17.4 27 Z M 13.7 23 L 12.3 19.3 L 10.9 23 L 13.7 23 Z M 25.1 27 L 23.3 27 C 23.3 27 23.34 25.93 23.3 25.9 C 23 26.3 22.7 26.6 22.3 26.9 C 21.9 27.1 21.5 27.2 21.1 27.2 C 20.2 27.2 19.5 26.8 18.9 26.1 C 18.3 25.5 18 24.5 18 23.3 C 18 22.1 18.3 21.2 18.9 20.5 C 19.5 19.9 20.2 19.6 21.1 19.6 C 21.9 19.6 22.6 19.9 23.2 20.6 C 23.2 20.58 23.2 17 23.2 17 L 25.1 17 L 25.1 27 Z M 20 23.2 C 20 24 20.1 24.5 20.3 24.9 C 20.6 25.4 21.1 25.6 21.6 25.6 C 22.1 25.6 22.4 25.5 22.7 25.1 C 23.1 24.7 23.2 24.1 23.2 23.4 C 23.2 22.6 23.1 22 22.8 21.6 C 22.5 21.2 22.1 21 21.6 21 C 21.1 21 20.8 21.2 20.5 21.6 C 20.1 21.9 20 22.5 20 23.2 Z M 26.9 19.7 L 28.6 19.7 C 28.6 19.7 28.64 20.72 28.6 20.7 C 29.3 20 30 19.6 30.9 19.6 C 31.4 19.6 31.8 19.7 32.1 19.9 C 32.5 20 32.7 20.3 33 20.7 C 33.3 20.3 33.6 20 34 19.9 C 34.4 19.7 34.8 19.6 35.2 19.6 C 35.7 19.6 36.2 19.7 36.5 19.9 C 36.9 20.1 37.2 20.4 37.4 20.8 C 37.5 21.2 37.6 21.7 37.6 22.4 C 37.55 22.35 37.6 27 37.6 27 L 35.6 27 C 35.6 27 35.63 22.84 35.6 22.8 C 35.6 22.1 35.6 21.7 35.4 21.4 C 35.3 21.2 35 21 34.6 21 C 34.3 21 34.1 21.1 33.9 21.3 C 33.6 21.4 33.4 21.7 33.3 22 C 33.2 22.3 33.2 22.8 33.2 23.5 C 33.18 23.51 33.2 27 33.2 27 L 31.3 27 C 31.3 27 31.26 23.01 31.3 23 C 31.3 22.3 31.2 21.9 31.2 21.6 C 31.1 21.4 31 21.3 30.8 21.2 C 30.7 21.1 30.5 21 30.3 21 C 30 21 29.7 21.1 29.5 21.3 C 29.2 21.4 29 21.7 28.9 22 C 28.8 22.3 28.8 22.8 28.8 23.5 C 28.79 23.47 28.8 27 28.8 27 L 26.9 27 L 26.9 19.7 Z M 39.5 18.7 L 39.5 17 L 41.4 17 L 41.4 18.7 L 39.5 18.7 Z M 39.5 27 L 39.5 19.7 L 41.4 19.7 L 41.4 27 L 39.5 27 Z M 50 27 L 48 27 C 48 27 48.04 23.29 48 23.3 C 48 22.5 48 22 47.9 21.8 C 47.8 21.5 47.7 21.4 47.5 21.2 C 47.3 21.1 47.1 21 46.8 21 C 46.5 21 46.2 21.1 46 21.3 C 45.7 21.5 45.5 21.7 45.4 22 C 45.3 22.3 45.3 22.9 45.3 23.7 C 45.26 23.7 45.3 27 45.3 27 L 43.3 27 L 43.3 19.7 L 45.1 19.7 C 45.1 19.7 45.12 20.8 45.1 20.8 C 45.8 20 46.6 19.6 47.5 19.6 C 47.9 19.6 48.3 19.6 48.7 19.8 C 49 20 49.3 20.1 49.5 20.4 C 49.7 20.6 49.8 20.9 49.9 21.2 C 49.9 21.5 50 21.9 50 22.5 C 49.96 22.48 50 27 50 27 Z M 51.9 18.7 L 51.9 17 L 53.8 17 L 53.8 18.7 L 51.9 18.7 Z M 51.9 27 L 51.9 19.7 L 53.8 19.7 L 53.8 27 L 51.9 27 Z M 55.1 24.9 C 55.1 24.9 57 24.6 57 24.6 C 57.1 25 57.3 25.3 57.5 25.5 C 57.8 25.7 58.1 25.8 58.6 25.8 C 59.1 25.8 59.5 25.7 59.7 25.5 C 59.9 25.4 60 25.2 60 25 C 60 24.8 59.9 24.7 59.8 24.6 C 59.7 24.5 59.5 24.4 59.2 24.4 C 57.6 24 56.7 23.7 56.2 23.4 C 55.7 23 55.4 22.5 55.4 21.8 C 55.4 21.2 55.6 20.6 56.1 20.2 C 56.6 19.8 57.4 19.6 58.4 19.6 C 59.4 19.6 60.2 19.7 60.7 20.1 C 61.1 20.4 61.5 20.9 61.7 21.5 C 61.7 21.5 59.8 21.8 59.8 21.8 C 59.8 21.5 59.6 21.3 59.4 21.2 C 59.2 21 58.9 20.9 58.5 20.9 C 58 20.9 57.6 21 57.4 21.2 C 57.2 21.3 57.2 21.4 57.2 21.6 C 57.2 21.7 57.2 21.8 57.4 21.9 C 57.5 22 58.1 22.2 59.2 22.4 C 60.2 22.7 60.9 23 61.3 23.3 C 61.7 23.6 61.9 24.1 61.9 24.7 C 61.9 25.4 61.6 26 61.1 26.4 C 60.5 26.9 59.7 27.2 58.6 27.2 C 57.6 27.2 56.8 27 56.2 26.6 C 55.7 26.2 55.3 25.6 55.1 24.9 Z M 66.9 19.7 L 66.9 21.3 L 65.6 21.3 C 65.6 21.3 65.6 24.19 65.6 24.2 C 65.6 24.8 65.6 25.1 65.6 25.2 C 65.7 25.3 65.7 25.4 65.8 25.5 C 65.9 25.5 66 25.6 66.1 25.6 C 66.3 25.6 66.6 25.5 66.9 25.4 C 66.9 25.4 67.1 26.9 67.1 26.9 C 66.6 27.1 66.1 27.2 65.6 27.2 C 65.2 27.2 64.9 27.1 64.6 27 C 64.3 26.9 64.1 26.7 64 26.5 C 63.9 26.3 63.8 26.1 63.7 25.8 C 63.7 25.6 63.7 25.1 63.7 24.4 C 63.67 24.43 63.7 21.3 63.7 21.3 L 62.8 21.3 L 62.8 19.7 L 63.7 19.7 L 63.7 18.3 L 65.6 17.2 L 65.6 19.7 L 66.9 19.7 Z M 70.1 27 L 68.2 27 L 68.2 19.7 L 69.9 19.7 C 69.9 19.7 69.95 20.76 69.9 20.8 C 70.3 20.3 70.5 20 70.8 19.8 C 71 19.6 71.3 19.6 71.6 19.6 C 72 19.6 72.5 19.7 72.9 19.9 C 72.9 19.9 72.3 21.6 72.3 21.6 C 71.9 21.4 71.6 21.3 71.4 21.3 C 71.1 21.3 70.9 21.4 70.7 21.5 C 70.5 21.7 70.3 21.9 70.2 22.3 C 70.1 22.7 70.1 23.5 70.1 24.8 C 70.08 24.75 70.1 27 70.1 27 Z M 75.1 21.9 C 75.1 21.9 73.4 21.6 73.4 21.6 C 73.6 20.9 73.9 20.4 74.4 20.1 C 74.9 19.7 75.6 19.6 76.5 19.6 C 77.4 19.6 78 19.7 78.4 19.9 C 78.9 20.1 79.2 20.3 79.3 20.6 C 79.5 21 79.6 21.5 79.6 22.4 C 79.6 22.4 79.6 24.6 79.6 24.6 C 79.6 25.2 79.6 25.7 79.7 26 C 79.7 26.3 79.8 26.6 80 27 C 80 27 78.1 27 78.1 27 C 78.1 26.9 78 26.7 77.9 26.4 C 77.9 26.3 77.9 26.2 77.8 26.2 C 77.5 26.5 77.2 26.8 76.8 26.9 C 76.4 27.1 76 27.2 75.6 27.2 C 74.9 27.2 74.3 27 73.8 26.5 C 73.4 26.1 73.2 25.6 73.2 25 C 73.2 24.6 73.3 24.2 73.5 23.9 C 73.7 23.6 74 23.3 74.3 23.2 C 74.7 23 75.2 22.9 75.8 22.7 C 76.7 22.6 77.4 22.4 77.7 22.3 C 77.7 22.3 77.7 22.1 77.7 22.1 C 77.7 21.7 77.6 21.4 77.4 21.3 C 77.2 21.1 76.9 21 76.4 21 C 76.1 21 75.8 21.1 75.6 21.2 C 75.4 21.4 75.2 21.6 75.1 21.9 Z M 77.7 23.5 C 77.5 23.6 77.1 23.7 76.5 23.8 C 76 23.9 75.6 24 75.5 24.1 C 75.2 24.3 75.1 24.5 75.1 24.8 C 75.1 25.1 75.2 25.3 75.4 25.5 C 75.6 25.7 75.9 25.8 76.2 25.8 C 76.5 25.8 76.8 25.7 77.2 25.5 C 77.4 25.3 77.5 25.1 77.6 24.8 C 77.7 24.7 77.7 24.3 77.7 23.9 C 77.7 23.9 77.7 23.5 77.7 23.5 Z M 84.8 19.7 L 84.8 21.3 L 83.5 21.3 C 83.5 21.3 83.49 24.19 83.5 24.2 C 83.5 24.8 83.5 25.1 83.5 25.2 C 83.6 25.3 83.6 25.4 83.7 25.5 C 83.8 25.5 83.9 25.6 84 25.6 C 84.2 25.6 84.5 25.5 84.8 25.4 C 84.8 25.4 85 26.9 85 26.9 C 84.5 27.1 84 27.2 83.4 27.2 C 83.1 27.2 82.8 27.1 82.5 27 C 82.2 26.9 82 26.7 81.9 26.5 C 81.8 26.3 81.7 26.1 81.6 25.8 C 81.6 25.6 81.6 25.1 81.6 24.4 C 81.57 24.43 81.6 21.3 81.6 21.3 L 80.7 21.3 L 80.7 19.7 L 81.6 19.7 L 81.6 18.3 L 83.5 17.2 L 83.5 19.7 L 84.8 19.7 Z M 86.1 18.7 L 86.1 17 L 88.1 17 L 88.1 18.7 L 86.1 18.7 Z M 86.1 27 L 86.1 19.7 L 88.1 19.7 L 88.1 27 L 86.1 27 Z M 89.6 23.3 C 89.6 22.6 89.7 22 90.1 21.4 C 90.4 20.8 90.8 20.4 91.4 20 C 92 19.7 92.6 19.6 93.3 19.6 C 94.4 19.6 95.3 19.9 96 20.6 C 96.7 21.4 97.1 22.3 97.1 23.3 C 97.1 24.4 96.7 25.4 96 26.1 C 95.3 26.8 94.4 27.2 93.3 27.2 C 92.7 27.2 92 27 91.4 26.7 C 90.8 26.4 90.4 26 90.1 25.4 C 89.7 24.8 89.6 24.1 89.6 23.3 Z M 91.6 23.4 C 91.6 24.1 91.7 24.6 92.1 25 C 92.4 25.4 92.8 25.6 93.3 25.6 C 93.8 25.6 94.3 25.4 94.6 25 C 94.9 24.6 95.1 24.1 95.1 23.3 C 95.1 22.6 94.9 22.1 94.6 21.7 C 94.3 21.3 93.8 21.1 93.3 21.1 C 92.8 21.1 92.4 21.3 92.1 21.7 C 91.7 22.1 91.6 22.6 91.6 23.4 Z M 105.2 27 L 103.3 27 C 103.3 27 103.26 23.29 103.3 23.3 C 103.3 22.5 103.2 22 103.1 21.8 C 103.1 21.5 102.9 21.4 102.7 21.2 C 102.6 21.1 102.3 21 102.1 21 C 101.7 21 101.4 21.1 101.2 21.3 C 100.9 21.5 100.7 21.7 100.6 22 C 100.5 22.3 100.5 22.9 100.5 23.7 C 100.49 23.7 100.5 27 100.5 27 L 98.6 27 L 98.6 19.7 L 100.4 19.7 C 100.4 19.7 100.35 20.8 100.4 20.8 C 101 20 101.8 19.6 102.7 19.6 C 103.2 19.6 103.6 19.6 103.9 19.8 C 104.3 20 104.5 20.1 104.7 20.4 C 104.9 20.6 105 20.9 105.1 21.2 C 105.1 21.5 105.2 21.9 105.2 22.5 C 105.18 22.48 105.2 27 105.2 27 Z " stroke="none" fill="#000"/>  </g>  <g id="Polygon106656">    <path d="M 17.2 6.9 C 17.2 6.9 19.1 6.7 19.1 6.7 C 19.3 7.4 19.5 7.9 19.9 8.2 C 20.2 8.5 20.7 8.7 21.3 8.7 C 22 8.7 22.5 8.5 22.8 8.2 C 23.1 8 23.3 7.6 23.3 7.3 C 23.3 7 23.2 6.8 23.1 6.7 C 23 6.5 22.7 6.4 22.4 6.2 C 22.1 6.2 21.6 6 20.7 5.8 C 19.7 5.5 18.9 5.2 18.5 4.8 C 17.8 4.3 17.5 3.6 17.5 2.8 C 17.5 2.3 17.7 1.8 18 1.4 C 18.3 0.9 18.7 0.6 19.2 0.3 C 19.8 0.1 20.4 0 21.2 0 C 22.5 0 23.4 0.3 24 0.8 C 24.7 1.4 25 2.1 25 3 C 25 3 23 3.1 23 3.1 C 22.9 2.6 22.7 2.2 22.5 2 C 22.2 1.8 21.7 1.7 21.2 1.7 C 20.6 1.7 20.1 1.8 19.8 2 C 19.6 2.2 19.5 2.4 19.5 2.7 C 19.5 2.9 19.6 3.1 19.8 3.3 C 20 3.5 20.6 3.7 21.6 3.9 C 22.6 4.2 23.3 4.4 23.8 4.7 C 24.3 4.9 24.7 5.2 24.9 5.7 C 25.2 6.1 25.3 6.6 25.3 7.3 C 25.3 7.8 25.2 8.4 24.8 8.9 C 24.5 9.4 24.1 9.8 23.5 10 C 22.9 10.2 22.2 10.4 21.3 10.4 C 20 10.4 19.1 10.1 18.4 9.5 C 17.7 8.9 17.3 8.1 17.2 6.9 Z M 30.3 2.9 L 30.3 4.5 L 29 4.5 C 29 4.5 29.03 7.39 29 7.4 C 29 8 29 8.3 29.1 8.4 C 29.1 8.5 29.1 8.6 29.2 8.7 C 29.3 8.7 29.4 8.8 29.6 8.8 C 29.7 8.8 30 8.7 30.3 8.6 C 30.3 8.6 30.5 10.1 30.5 10.1 C 30.1 10.3 29.5 10.4 29 10.4 C 28.6 10.4 28.3 10.3 28 10.2 C 27.8 10.1 27.6 9.9 27.4 9.7 C 27.3 9.5 27.2 9.3 27.2 9 C 27.1 8.8 27.1 8.3 27.1 7.6 C 27.1 7.63 27.1 4.5 27.1 4.5 L 26.2 4.5 L 26.2 2.9 L 27.1 2.9 L 27.1 1.5 L 29 0.4 L 29 2.9 L 30.3 2.9 Z M 33.5 10.2 L 31.6 10.2 L 31.6 2.9 L 33.4 2.9 C 33.4 2.9 33.38 3.96 33.4 4 C 33.7 3.5 34 3.2 34.2 3 C 34.4 2.8 34.7 2.8 35 2.8 C 35.5 2.8 35.9 2.9 36.3 3.1 C 36.3 3.1 35.7 4.8 35.7 4.8 C 35.4 4.6 35.1 4.5 34.8 4.5 C 34.5 4.5 34.3 4.6 34.1 4.7 C 33.9 4.9 33.8 5.1 33.7 5.5 C 33.6 5.9 33.5 6.7 33.5 8 C 33.51 7.95 33.5 10.2 33.5 10.2 Z M 41.3 7.9 C 41.3 7.9 43.2 8.2 43.2 8.2 C 43 8.9 42.6 9.4 42.1 9.8 C 41.5 10.2 40.9 10.4 40.1 10.4 C 38.8 10.4 37.9 9.9 37.3 9.1 C 36.8 8.5 36.6 7.6 36.6 6.6 C 36.6 5.4 36.9 4.5 37.5 3.8 C 38.1 3.1 38.9 2.8 39.9 2.8 C 41 2.8 41.8 3.1 42.4 3.8 C 43.1 4.6 43.4 5.6 43.3 7.1 C 43.3 7.1 38.5 7.1 38.5 7.1 C 38.5 7.7 38.7 8.1 39 8.4 C 39.3 8.8 39.7 8.9 40.1 8.9 C 40.4 8.9 40.7 8.8 40.9 8.7 C 41.1 8.5 41.2 8.2 41.3 7.9 Z M 41.4 5.9 C 41.4 5.4 41.3 5 41 4.7 C 40.7 4.4 40.4 4.2 40 4.2 C 39.6 4.2 39.2 4.4 39 4.7 C 38.7 5 38.6 5.4 38.6 5.9 C 38.6 5.9 41.4 5.9 41.4 5.9 Z M 46.3 5.1 C 46.3 5.1 44.6 4.8 44.6 4.8 C 44.8 4.1 45.1 3.6 45.6 3.3 C 46.1 2.9 46.8 2.8 47.7 2.8 C 48.6 2.8 49.2 2.9 49.7 3.1 C 50.1 3.3 50.4 3.5 50.5 3.8 C 50.7 4.2 50.8 4.7 50.8 5.6 C 50.8 5.6 50.8 7.8 50.8 7.8 C 50.8 8.4 50.8 8.9 50.9 9.2 C 50.9 9.5 51 9.8 51.2 10.2 C 51.2 10.2 49.3 10.2 49.3 10.2 C 49.3 10.1 49.2 9.9 49.1 9.6 C 49.1 9.5 49.1 9.4 49.1 9.4 C 48.7 9.7 48.4 10 48 10.1 C 47.6 10.3 47.2 10.4 46.8 10.4 C 46.1 10.4 45.5 10.2 45 9.7 C 44.6 9.3 44.4 8.8 44.4 8.2 C 44.4 7.8 44.5 7.4 44.7 7.1 C 44.9 6.8 45.2 6.5 45.5 6.4 C 45.9 6.2 46.4 6.1 47 5.9 C 47.9 5.8 48.6 5.6 48.9 5.5 C 48.9 5.5 48.9 5.3 48.9 5.3 C 48.9 4.9 48.8 4.6 48.6 4.5 C 48.5 4.3 48.1 4.2 47.6 4.2 C 47.3 4.2 47 4.3 46.8 4.4 C 46.6 4.6 46.5 4.8 46.3 5.1 Z M 48.9 6.7 C 48.7 6.8 48.3 6.9 47.7 7 C 47.2 7.1 46.9 7.2 46.7 7.3 C 46.4 7.5 46.3 7.7 46.3 8 C 46.3 8.3 46.4 8.5 46.6 8.7 C 46.8 8.9 47.1 9 47.4 9 C 47.7 9 48.1 8.9 48.4 8.7 C 48.6 8.5 48.8 8.3 48.8 8 C 48.9 7.9 48.9 7.5 48.9 7.1 C 48.9 7.1 48.9 6.7 48.9 6.7 Z M 52.6 2.9 L 54.3 2.9 C 54.3 2.9 54.32 3.92 54.3 3.9 C 55 3.2 55.7 2.8 56.6 2.8 C 57 2.8 57.5 2.9 57.8 3.1 C 58.1 3.2 58.4 3.5 58.6 3.9 C 59 3.5 59.3 3.2 59.7 3.1 C 60 2.9 60.4 2.8 60.9 2.8 C 61.4 2.8 61.8 2.9 62.2 3.1 C 62.6 3.3 62.8 3.6 63 4 C 63.2 4.4 63.2 4.9 63.2 5.6 C 63.23 5.55 63.2 10.2 63.2 10.2 L 61.3 10.2 C 61.3 10.2 61.31 6.04 61.3 6 C 61.3 5.3 61.2 4.9 61.1 4.6 C 60.9 4.4 60.7 4.2 60.3 4.2 C 60 4.2 59.8 4.3 59.5 4.5 C 59.3 4.6 59.1 4.9 59 5.2 C 58.9 5.5 58.9 6 58.9 6.7 C 58.86 6.71 58.9 10.2 58.9 10.2 L 56.9 10.2 C 56.9 10.2 56.94 6.21 56.9 6.2 C 56.9 5.5 56.9 5.1 56.8 4.8 C 56.8 4.6 56.7 4.5 56.5 4.4 C 56.4 4.3 56.2 4.2 55.9 4.2 C 55.6 4.2 55.4 4.3 55.1 4.5 C 54.9 4.6 54.7 4.9 54.6 5.2 C 54.5 5.5 54.5 6 54.5 6.7 C 54.47 6.67 54.5 10.2 54.5 10.2 L 52.6 10.2 L 52.6 2.9 Z M 65.1 10.2 L 65.1 0.2 L 67.1 0.2 L 67.1 10.2 L 65.1 10.2 Z M 69 1.9 L 69 0.2 L 71 0.2 L 71 1.9 L 69 1.9 Z M 69 10.2 L 69 2.9 L 71 2.9 L 71 10.2 L 69 10.2 Z M 79.5 10.2 L 77.6 10.2 C 77.6 10.2 77.61 6.49 77.6 6.5 C 77.6 5.7 77.6 5.2 77.5 5 C 77.4 4.7 77.3 4.6 77.1 4.4 C 76.9 4.3 76.7 4.2 76.4 4.2 C 76.1 4.2 75.8 4.3 75.5 4.5 C 75.3 4.7 75.1 4.9 75 5.2 C 74.9 5.5 74.8 6.1 74.8 6.9 C 74.83 6.9 74.8 10.2 74.8 10.2 L 72.9 10.2 L 72.9 2.9 L 74.7 2.9 C 74.7 2.9 74.69 4 74.7 4 C 75.3 3.2 76.1 2.8 77.1 2.8 C 77.5 2.8 77.9 2.8 78.2 3 C 78.6 3.2 78.9 3.3 79 3.6 C 79.2 3.8 79.3 4.1 79.4 4.4 C 79.5 4.7 79.5 5.1 79.5 5.7 C 79.53 5.68 79.5 10.2 79.5 10.2 Z M 85.7 7.9 C 85.7 7.9 87.6 8.2 87.6 8.2 C 87.3 8.9 87 9.4 86.4 9.8 C 85.9 10.2 85.2 10.4 84.4 10.4 C 83.2 10.4 82.2 9.9 81.6 9.1 C 81.2 8.5 80.9 7.6 80.9 6.6 C 80.9 5.4 81.2 4.5 81.9 3.8 C 82.5 3.1 83.3 2.8 84.2 2.8 C 85.3 2.8 86.2 3.1 86.8 3.8 C 87.4 4.6 87.7 5.6 87.7 7.1 C 87.7 7.1 82.9 7.1 82.9 7.1 C 82.9 7.7 83.1 8.1 83.3 8.4 C 83.6 8.8 84 8.9 84.5 8.9 C 84.8 8.9 85 8.8 85.2 8.7 C 85.4 8.5 85.6 8.2 85.7 7.9 Z M 85.8 5.9 C 85.8 5.4 85.6 5 85.4 4.7 C 85.1 4.4 84.8 4.2 84.4 4.2 C 83.9 4.2 83.6 4.4 83.3 4.7 C 83 5 82.9 5.4 82.9 5.9 C 82.9 5.9 85.8 5.9 85.8 5.9 Z M 95.9 10.2 L 94.1 10.2 C 94.1 10.2 94.13 9.13 94.1 9.1 C 93.8 9.5 93.5 9.8 93.1 10.1 C 92.7 10.3 92.3 10.4 91.9 10.4 C 91 10.4 90.3 10 89.7 9.3 C 89.1 8.7 88.8 7.7 88.8 6.5 C 88.8 5.3 89.1 4.4 89.7 3.7 C 90.3 3.1 91 2.8 91.9 2.8 C 92.7 2.8 93.4 3.1 94 3.8 C 94 3.78 94 0.2 94 0.2 L 95.9 0.2 L 95.9 10.2 Z M 90.8 6.4 C 90.8 7.2 90.9 7.7 91.1 8.1 C 91.4 8.6 91.9 8.8 92.4 8.8 C 92.9 8.8 93.2 8.7 93.5 8.3 C 93.8 7.9 94 7.3 94 6.6 C 94 5.8 93.9 5.2 93.6 4.8 C 93.3 4.4 92.9 4.2 92.4 4.2 C 91.9 4.2 91.6 4.4 91.3 4.8 C 90.9 5.1 90.8 5.7 90.8 6.4 Z " stroke="none" fill="#000"/>  </g></svg>