<?xml version="1.0" standalone="no"?><!DOCTYPE svg PUBLIC "-//W3C//DTD SVG 1.1//EN" "http://www.w3.org/Graphics/SVG/1.1/DTD/svg11.dtd"><svg xmlns="http://www.w3.org/2000/svg" version="1.1" width="237px" height="33.9px" viewBox="0 -1 237 33.9" style="top:-1px">  <desc>Learning &amp; Development</desc>  <defs/>  <g id="Polygon118512">    <path d="M 1.1 19.6 L 1.1 9.7 L 3.1 9.7 L 3.1 17.9 L 8.1 17.9 L 8.1 19.6 L 1.1 19.6 Z M 13.8 17.3 C 13.8 17.3 15.7 17.6 15.7 17.6 C 15.4 18.3 15 18.8 14.5 19.2 C 14 19.6 13.3 19.8 12.5 19.8 C 11.3 19.8 10.3 19.3 9.7 18.5 C 9.2 17.9 9 17 9 16 C 9 14.8 9.3 13.9 9.9 13.2 C 10.6 12.5 11.4 12.2 12.3 12.2 C 13.4 12.2 14.3 12.5 14.9 13.2 C 15.5 14 15.8 15 15.8 16.5 C 15.8 16.5 11 16.5 11 16.5 C 11 17.1 11.1 17.5 11.4 17.8 C 11.7 18.2 12.1 18.3 12.5 18.3 C 12.8 18.3 13.1 18.2 13.3 18.1 C 13.5 17.9 13.7 17.6 13.8 17.3 Z M 13.9 15.3 C 13.9 14.8 13.7 14.4 13.4 14.1 C 13.2 13.8 12.8 13.6 12.4 13.6 C 12 13.6 11.7 13.8 11.4 14.1 C 11.1 14.4 11 14.8 11 15.3 C 11 15.3 13.9 15.3 13.9 15.3 Z M 18.8 14.5 C 18.8 14.5 17 14.2 17 14.2 C 17.2 13.5 17.6 13 18 12.7 C 18.5 12.3 19.2 12.2 20.2 12.2 C 21 12.2 21.7 12.3 22.1 12.5 C 22.5 12.7 22.8 12.9 23 13.2 C 23.1 13.6 23.2 14.1 23.2 15 C 23.2 15 23.2 17.2 23.2 17.2 C 23.2 17.8 23.2 18.3 23.3 18.6 C 23.4 18.9 23.5 19.2 23.7 19.6 C 23.7 19.6 21.8 19.6 21.8 19.6 C 21.7 19.5 21.6 19.3 21.6 19 C 21.5 18.9 21.5 18.8 21.5 18.8 C 21.2 19.1 20.8 19.4 20.4 19.5 C 20.1 19.7 19.7 19.8 19.3 19.8 C 18.5 19.8 17.9 19.6 17.5 19.1 C 17.1 18.7 16.8 18.2 16.8 17.6 C 16.8 17.2 16.9 16.8 17.1 16.5 C 17.3 16.2 17.6 15.9 18 15.8 C 18.3 15.6 18.8 15.5 19.5 15.3 C 20.4 15.2 21 15 21.3 14.9 C 21.3 14.9 21.3 14.7 21.3 14.7 C 21.3 14.3 21.3 14 21.1 13.9 C 20.9 13.7 20.5 13.6 20 13.6 C 19.7 13.6 19.4 13.7 19.2 13.8 C 19.1 14 18.9 14.2 18.8 14.5 Z M 21.3 16.1 C 21.1 16.2 20.7 16.3 20.2 16.4 C 19.6 16.5 19.3 16.6 19.1 16.7 C 18.9 16.9 18.8 17.1 18.8 17.4 C 18.8 17.7 18.9 17.9 19.1 18.1 C 19.3 18.3 19.5 18.4 19.8 18.4 C 20.2 18.4 20.5 18.3 20.8 18.1 C 21 17.9 21.2 17.7 21.3 17.4 C 21.3 17.3 21.3 16.9 21.3 16.5 C 21.3 16.5 21.3 16.1 21.3 16.1 Z M 27 19.6 L 25 19.6 L 25 12.3 L 26.8 12.3 C 26.8 12.3 26.83 13.36 26.8 13.4 C 27.1 12.9 27.4 12.6 27.7 12.4 C 27.9 12.2 28.2 12.2 28.5 12.2 C 28.9 12.2 29.3 12.3 29.8 12.5 C 29.8 12.5 29.2 14.2 29.2 14.2 C 28.8 14 28.5 13.9 28.3 13.9 C 28 13.9 27.8 14 27.6 14.1 C 27.4 14.3 27.2 14.5 27.1 14.9 C 27 15.3 27 16.1 27 17.4 C 26.97 17.35 27 19.6 27 19.6 Z M 37.2 19.6 L 35.3 19.6 C 35.3 19.6 35.26 15.89 35.3 15.9 C 35.3 15.1 35.2 14.6 35.1 14.4 C 35.1 14.1 34.9 14 34.7 13.8 C 34.6 13.7 34.3 13.6 34.1 13.6 C 33.7 13.6 33.4 13.7 33.2 13.9 C 32.9 14.1 32.7 14.3 32.6 14.6 C 32.5 14.9 32.5 15.5 32.5 16.3 C 32.48 16.3 32.5 19.6 32.5 19.6 L 30.6 19.6 L 30.6 12.3 L 32.3 12.3 C 32.3 12.3 32.35 13.4 32.3 13.4 C 33 12.6 33.8 12.2 34.7 12.2 C 35.2 12.2 35.6 12.2 35.9 12.4 C 36.3 12.6 36.5 12.7 36.7 13 C 36.9 13.2 37 13.5 37.1 13.8 C 37.1 14.1 37.2 14.5 37.2 15.1 C 37.18 15.08 37.2 19.6 37.2 19.6 Z M 39.1 11.3 L 39.1 9.6 L 41 9.6 L 41 11.3 L 39.1 11.3 Z M 39.1 19.6 L 39.1 12.3 L 41 12.3 L 41 19.6 L 39.1 19.6 Z M 49.6 19.6 L 47.7 19.6 C 47.7 19.6 47.7 15.89 47.7 15.9 C 47.7 15.1 47.7 14.6 47.6 14.4 C 47.5 14.1 47.4 14 47.2 13.8 C 47 13.7 46.8 13.6 46.5 13.6 C 46.2 13.6 45.9 13.7 45.6 13.9 C 45.4 14.1 45.2 14.3 45.1 14.6 C 45 14.9 44.9 15.5 44.9 16.3 C 44.93 16.3 44.9 19.6 44.9 19.6 L 43 19.6 L 43 12.3 L 44.8 12.3 C 44.8 12.3 44.79 13.4 44.8 13.4 C 45.4 12.6 46.2 12.2 47.2 12.2 C 47.6 12.2 48 12.2 48.3 12.4 C 48.7 12.6 49 12.7 49.1 13 C 49.3 13.2 49.4 13.5 49.5 13.8 C 49.6 14.1 49.6 14.5 49.6 15.1 C 49.62 15.08 49.6 19.6 49.6 19.6 Z M 51.4 20.3 C 51.4 20.2 51.4 20.2 51.4 20.1 C 51.4 20.1 53.6 20.3 53.6 20.3 C 53.6 20.6 53.7 20.8 53.8 20.9 C 54 21 54.3 21.1 54.7 21.1 C 55.2 21.1 55.6 21 55.8 20.8 C 56 20.7 56.1 20.6 56.2 20.4 C 56.3 20.2 56.3 19.9 56.3 19.5 C 56.3 19.5 56.3 18.4 56.3 18.4 C 55.7 19.2 55 19.6 54.1 19.6 C 53.2 19.6 52.4 19.2 51.8 18.4 C 51.4 17.7 51.1 16.9 51.1 15.9 C 51.1 14.7 51.4 13.8 52 13.1 C 52.6 12.5 53.3 12.2 54.2 12.2 C 55.1 12.2 55.8 12.6 56.4 13.4 C 56.42 13.35 56.4 12.3 56.4 12.3 L 58.2 12.3 C 58.2 12.3 58.22 18.85 58.2 18.8 C 58.2 19.7 58.2 20.3 58 20.8 C 57.9 21.2 57.7 21.5 57.4 21.8 C 57.2 22 56.8 22.2 56.4 22.3 C 56 22.5 55.4 22.5 54.8 22.5 C 53.5 22.5 52.7 22.3 52.2 21.9 C 51.6 21.5 51.4 21 51.4 20.3 C 51.4 20.3 51.4 20.3 51.4 20.3 Z M 53.1 15.8 C 53.1 16.6 53.3 17.1 53.6 17.5 C 53.9 17.9 54.2 18 54.7 18 C 55.1 18 55.5 17.9 55.8 17.5 C 56.2 17.1 56.3 16.6 56.3 15.9 C 56.3 15.1 56.2 14.5 55.9 14.2 C 55.6 13.8 55.2 13.6 54.7 13.6 C 54.2 13.6 53.9 13.8 53.6 14.2 C 53.3 14.5 53.1 15.1 53.1 15.8 Z M 72.9 18.4 C 72.9 18.4 71.7 19.9 71.7 19.9 C 71.2 19.6 70.6 19.2 70.1 18.7 C 69.7 19.1 69.3 19.3 68.8 19.5 C 68.3 19.7 67.8 19.8 67.2 19.8 C 65.9 19.8 65 19.4 64.4 18.7 C 63.9 18.2 63.6 17.6 63.6 16.8 C 63.6 16.2 63.8 15.6 64.2 15.1 C 64.6 14.6 65.2 14.2 65.9 13.8 C 65.6 13.4 65.3 13 65.1 12.6 C 65 12.2 64.9 11.9 64.9 11.6 C 64.9 11 65.1 10.5 65.6 10 C 66.1 9.6 66.8 9.4 67.7 9.4 C 68.5 9.4 69.2 9.6 69.7 10.1 C 70.2 10.5 70.4 11 70.4 11.7 C 70.4 12.1 70.3 12.5 70.1 12.8 C 69.8 13.2 69.4 13.6 68.6 14.1 C 68.6 14.1 70 15.9 70 15.9 C 70.2 15.6 70.3 15.2 70.4 14.8 C 70.4 14.8 72.2 15.2 72.2 15.2 C 72 15.8 71.9 16.2 71.7 16.5 C 71.6 16.8 71.5 17 71.3 17.2 C 71.5 17.4 71.8 17.7 72.1 17.9 C 72.5 18.1 72.7 18.3 72.9 18.4 Z M 67.7 12.9 C 67.7 12.9 68.18 12.52 68.2 12.5 C 68.6 12.2 68.8 11.9 68.8 11.6 C 68.8 11.4 68.7 11.2 68.5 11 C 68.3 10.8 68 10.8 67.7 10.8 C 67.4 10.8 67.2 10.8 67 11 C 66.8 11.1 66.8 11.3 66.8 11.5 C 66.8 11.7 66.9 12 67.2 12.4 C 67.19 12.37 67.7 12.9 67.7 12.9 Z M 66.9 15 C 66.5 15.2 66.1 15.5 65.9 15.8 C 65.7 16.1 65.6 16.4 65.6 16.8 C 65.6 17.2 65.7 17.5 66 17.8 C 66.3 18.1 66.6 18.2 67.1 18.2 C 67.4 18.2 67.7 18.1 68 18 C 68.2 17.9 68.5 17.7 68.9 17.4 C 68.9 17.4 66.9 15 66.9 15 Z M 78 9.6 C 78 9.6 81.72 9.57 81.7 9.6 C 82.6 9.6 83.2 9.6 83.6 9.8 C 84.2 9.9 84.7 10.2 85.1 10.7 C 85.6 11.1 85.9 11.7 86.1 12.3 C 86.3 12.9 86.4 13.7 86.4 14.7 C 86.4 15.5 86.3 16.2 86.1 16.8 C 85.9 17.5 85.5 18.1 85 18.6 C 84.7 18.9 84.2 19.2 83.6 19.4 C 83.2 19.5 82.6 19.6 81.8 19.6 C 81.83 19.59 78 19.6 78 19.6 L 78 9.6 Z M 80 11.3 L 80 17.9 C 80 17.9 81.55 17.9 81.6 17.9 C 82.1 17.9 82.5 17.9 82.8 17.8 C 83.1 17.7 83.4 17.6 83.6 17.4 C 83.8 17.2 84 16.9 84.1 16.4 C 84.3 16 84.3 15.4 84.3 14.6 C 84.3 13.8 84.3 13.2 84.1 12.8 C 84 12.4 83.8 12.1 83.5 11.8 C 83.3 11.6 83 11.4 82.6 11.4 C 82.3 11.3 81.8 11.3 81 11.3 C 80.95 11.27 80 11.3 80 11.3 Z M 92.3 17.3 C 92.3 17.3 94.2 17.6 94.2 17.6 C 94 18.3 93.6 18.8 93.1 19.2 C 92.5 19.6 91.9 19.8 91.1 19.8 C 89.8 19.8 88.9 19.3 88.3 18.5 C 87.8 17.9 87.6 17 87.6 16 C 87.6 14.8 87.9 13.9 88.5 13.2 C 89.1 12.5 89.9 12.2 90.9 12.2 C 92 12.2 92.8 12.5 93.4 13.2 C 94.1 14 94.4 15 94.3 16.5 C 94.3 16.5 89.5 16.5 89.5 16.5 C 89.5 17.1 89.7 17.5 90 17.8 C 90.3 18.2 90.7 18.3 91.1 18.3 C 91.4 18.3 91.7 18.2 91.9 18.1 C 92.1 17.9 92.2 17.6 92.3 17.3 Z M 92.4 15.3 C 92.4 14.8 92.3 14.4 92 14.1 C 91.7 13.8 91.4 13.6 91 13.6 C 90.6 13.6 90.2 13.8 90 14.1 C 89.7 14.4 89.6 14.8 89.6 15.3 C 89.6 15.3 92.4 15.3 92.4 15.3 Z M 97.9 19.6 L 95 12.3 L 97 12.3 L 98.4 16 C 98.4 16 98.76 17.27 98.8 17.3 C 98.9 17 98.9 16.8 99 16.7 C 99 16.4 99.1 16.2 99.2 16 C 99.16 16.04 100.5 12.3 100.5 12.3 L 102.5 12.3 L 99.6 19.6 L 97.9 19.6 Z M 107.9 17.3 C 107.9 17.3 109.8 17.6 109.8 17.6 C 109.6 18.3 109.2 18.8 108.6 19.2 C 108.1 19.6 107.5 19.8 106.7 19.8 C 105.4 19.8 104.5 19.3 103.9 18.5 C 103.4 17.9 103.1 17 103.1 16 C 103.1 14.8 103.4 13.9 104.1 13.2 C 104.7 12.5 105.5 12.2 106.5 12.2 C 107.5 12.2 108.4 12.5 109 13.2 C 109.6 14 109.9 15 109.9 16.5 C 109.9 16.5 105.1 16.5 105.1 16.5 C 105.1 17.1 105.3 17.5 105.6 17.8 C 105.9 18.2 106.2 18.3 106.7 18.3 C 107 18.3 107.2 18.2 107.4 18.1 C 107.6 17.9 107.8 17.6 107.9 17.3 Z M 108 15.3 C 108 14.8 107.9 14.4 107.6 14.1 C 107.3 13.8 107 13.6 106.6 13.6 C 106.2 13.6 105.8 13.8 105.5 14.1 C 105.3 14.4 105.1 14.8 105.1 15.3 C 105.1 15.3 108 15.3 108 15.3 Z M 111.5 19.6 L 111.5 9.6 L 113.4 9.6 L 113.4 19.6 L 111.5 19.6 Z M 114.9 15.9 C 114.9 15.2 115.1 14.6 115.4 14 C 115.7 13.4 116.2 13 116.7 12.6 C 117.3 12.3 118 12.2 118.7 12.2 C 119.8 12.2 120.7 12.5 121.4 13.2 C 122.1 14 122.4 14.9 122.4 15.9 C 122.4 17 122.1 18 121.4 18.7 C 120.6 19.4 119.8 19.8 118.7 19.8 C 118 19.8 117.4 19.6 116.8 19.3 C 116.2 19 115.7 18.6 115.4 18 C 115.1 17.4 114.9 16.7 114.9 15.9 Z M 116.9 16 C 116.9 16.7 117.1 17.2 117.4 17.6 C 117.7 18 118.2 18.2 118.7 18.2 C 119.2 18.2 119.6 18 119.9 17.6 C 120.3 17.2 120.4 16.7 120.4 15.9 C 120.4 15.2 120.3 14.7 119.9 14.3 C 119.6 13.9 119.2 13.7 118.7 13.7 C 118.2 13.7 117.7 13.9 117.4 14.3 C 117.1 14.7 116.9 15.2 116.9 16 Z M 123.9 12.3 L 125.7 12.3 C 125.7 12.3 125.66 13.4 125.7 13.4 C 125.9 13 126.2 12.7 126.6 12.5 C 127 12.3 127.4 12.2 127.9 12.2 C 128.8 12.2 129.5 12.5 130.1 13.2 C 130.7 13.8 130.9 14.7 130.9 15.9 C 130.9 17.1 130.7 18.1 130.1 18.7 C 129.5 19.4 128.8 19.8 127.9 19.8 C 127.5 19.8 127.1 19.7 126.8 19.5 C 126.5 19.4 126.1 19.1 125.8 18.7 C 125.79 18.7 125.8 22.4 125.8 22.4 L 123.9 22.4 L 123.9 12.3 Z M 125.8 15.8 C 125.8 16.7 125.9 17.3 126.3 17.6 C 126.6 18 127 18.2 127.4 18.2 C 127.9 18.2 128.3 18.1 128.5 17.7 C 128.8 17.3 129 16.8 129 15.9 C 129 15.2 128.8 14.6 128.5 14.2 C 128.2 13.9 127.9 13.7 127.4 13.7 C 126.9 13.7 126.5 13.9 126.2 14.2 C 125.9 14.6 125.8 15.1 125.8 15.8 Z M 132.3 12.3 L 134.1 12.3 C 134.1 12.3 134.1 13.32 134.1 13.3 C 134.7 12.6 135.5 12.2 136.4 12.2 C 136.8 12.2 137.2 12.3 137.6 12.5 C 137.9 12.6 138.2 12.9 138.4 13.3 C 138.7 12.9 139.1 12.6 139.4 12.5 C 139.8 12.3 140.2 12.2 140.6 12.2 C 141.2 12.2 141.6 12.3 142 12.5 C 142.4 12.7 142.6 13 142.8 13.4 C 142.9 13.8 143 14.3 143 15 C 143.01 14.95 143 19.6 143 19.6 L 141.1 19.6 C 141.1 19.6 141.09 15.44 141.1 15.4 C 141.1 14.7 141 14.3 140.9 14 C 140.7 13.8 140.4 13.6 140.1 13.6 C 139.8 13.6 139.5 13.7 139.3 13.9 C 139.1 14 138.9 14.3 138.8 14.6 C 138.7 14.9 138.6 15.4 138.6 16.1 C 138.64 16.11 138.6 19.6 138.6 19.6 L 136.7 19.6 C 136.7 19.6 136.72 15.61 136.7 15.6 C 136.7 14.9 136.7 14.5 136.6 14.2 C 136.5 14 136.4 13.9 136.3 13.8 C 136.2 13.7 136 13.6 135.7 13.6 C 135.4 13.6 135.2 13.7 134.9 13.9 C 134.7 14 134.5 14.3 134.4 14.6 C 134.3 14.9 134.3 15.4 134.3 16.1 C 134.25 16.06 134.3 19.6 134.3 19.6 L 132.3 19.6 L 132.3 12.3 Z M 149.1 17.3 C 149.1 17.3 151 17.6 151 17.6 C 150.8 18.3 150.4 18.8 149.9 19.2 C 149.3 19.6 148.7 19.8 147.9 19.8 C 146.6 19.8 145.7 19.3 145.1 18.5 C 144.6 17.9 144.4 17 144.4 16 C 144.4 14.8 144.7 13.9 145.3 13.2 C 145.9 12.5 146.7 12.2 147.7 12.2 C 148.8 12.2 149.6 12.5 150.2 13.2 C 150.9 14 151.2 15 151.1 16.5 C 151.1 16.5 146.3 16.5 146.3 16.5 C 146.3 17.1 146.5 17.5 146.8 17.8 C 147.1 18.2 147.5 18.3 147.9 18.3 C 148.2 18.3 148.5 18.2 148.7 18.1 C 148.9 17.9 149 17.6 149.1 17.3 Z M 149.2 15.3 C 149.2 14.8 149.1 14.4 148.8 14.1 C 148.5 13.8 148.2 13.6 147.8 13.6 C 147.4 13.6 147 13.8 146.8 14.1 C 146.5 14.4 146.4 14.8 146.4 15.3 C 146.4 15.3 149.2 15.3 149.2 15.3 Z M 159.3 19.6 L 157.4 19.6 C 157.4 19.6 157.39 15.89 157.4 15.9 C 157.4 15.1 157.3 14.6 157.3 14.4 C 157.2 14.1 157.1 14 156.9 13.8 C 156.7 13.7 156.5 13.6 156.2 13.6 C 155.9 13.6 155.6 13.7 155.3 13.9 C 155 14.1 154.9 14.3 154.8 14.6 C 154.7 14.9 154.6 15.5 154.6 16.3 C 154.62 16.3 154.6 19.6 154.6 19.6 L 152.7 19.6 L 152.7 12.3 L 154.5 12.3 C 154.5 12.3 154.48 13.4 154.5 13.4 C 155.1 12.6 155.9 12.2 156.9 12.2 C 157.3 12.2 157.7 12.2 158 12.4 C 158.4 12.6 158.6 12.7 158.8 13 C 159 13.2 159.1 13.5 159.2 13.8 C 159.3 14.1 159.3 14.5 159.3 15.1 C 159.31 15.08 159.3 19.6 159.3 19.6 Z M 164.6 12.3 L 164.6 13.9 L 163.3 13.9 C 163.3 13.9 163.28 16.79 163.3 16.8 C 163.3 17.4 163.3 17.7 163.3 17.8 C 163.3 17.9 163.4 18 163.5 18.1 C 163.6 18.1 163.7 18.2 163.8 18.2 C 164 18.2 164.2 18.1 164.6 18 C 164.6 18 164.7 19.5 164.7 19.5 C 164.3 19.7 163.8 19.8 163.2 19.8 C 162.9 19.8 162.6 19.7 162.3 19.6 C 162 19.5 161.8 19.3 161.7 19.1 C 161.6 18.9 161.5 18.7 161.4 18.4 C 161.4 18.2 161.3 17.7 161.3 17 C 161.35 17.03 161.3 13.9 161.3 13.9 L 160.5 13.9 L 160.5 12.3 L 161.3 12.3 L 161.3 10.9 L 163.3 9.8 L 163.3 12.3 L 164.6 12.3 Z " stroke="none" fill="#fff"/>  </g></svg>