<?xml version="1.0" standalone="no"?><!DOCTYPE svg PUBLIC "-//W3C//DTD SVG 1.1//EN" "http://www.w3.org/Graphics/SVG/1.1/DTD/svg11.dtd"><svg xmlns="http://www.w3.org/2000/svg" version="1.1" width="192.3px" height="28.9px" viewBox="0 -5 192.3 28.9" style="top:-5px">  <desc>7th Largest AAO 2025</desc>  <defs/>  <g id="Polygon141499">    <path d="M 9.7 0.8 L 9.7 1.1 L 4.4 13.3 L 1.9 12.5 L 5.9 3.2 L 0.8 3.2 L 0.8 0.8 L 9.7 0.8 Z M 14.2 2 L 14.5 2 L 14.5 4.6 L 17.3 4.6 L 17.3 6.5 L 14.5 6.5 C 14.5 6.5 14.45 9.61 14.5 9.6 C 14.5 10.5 14.7 11.1 15.7 11.1 C 16.4 11.1 17 10.8 17.6 10.5 C 17.6 10.5 17.6 12.6 17.6 12.6 C 16.9 13 15.7 13.3 14.9 13.3 C 12.7 13.3 11.8 12.1 11.8 10 C 11.75 10.04 11.8 6.5 11.8 6.5 L 10.3 6.5 L 10.3 5.9 L 14.2 2 Z M 28 7.7 C 28.01 7.74 28 13.1 28 13.1 L 25.3 13.1 C 25.3 13.1 25.31 8.12 25.3 8.1 C 25.3 7 24.8 6.4 23.9 6.4 C 23.2 6.4 22.6 6.7 22 7.7 C 21.98 7.69 22 13.1 22 13.1 L 19.3 13.1 L 19.3 0.8 L 22 0.8 C 22 0.8 21.98 5.62 22 5.6 C 22.8 4.7 23.8 4.2 24.9 4.2 C 27.2 4.2 28 5.7 28 7.7 Z M 38.6 0.8 L 38.6 10.6 L 44.2 10.6 L 44.2 13.1 L 35.5 13.1 L 35.5 0.8 L 38.6 0.8 Z M 52.9 7 C 52.9 7 52.9 10.6 52.9 10.6 C 52.9 11 53 11.3 53.3 11.3 C 53.5 11.3 53.7 11.2 54.1 11 C 54.1 11 54.1 12.7 54.1 12.7 C 53.2 13.1 52.5 13.3 51.7 13.3 C 50.9 13.3 50.5 13 50.3 12.4 C 49.5 13 48.7 13.3 47.7 13.3 C 46.2 13.3 45.3 12.4 45.3 11.1 C 45.3 9.3 46.9 8.7 50.2 7.6 C 50.2 7.6 50.2 7.4 50.2 7.4 C 50.2 6.4 49.6 6.1 48.8 6.1 C 47.6 6.1 46.5 6.7 45.5 7.7 C 45.5 7.7 45.5 5.4 45.5 5.4 C 46.6 4.6 47.9 4.2 49.3 4.2 C 51.6 4.2 52.9 5.3 52.9 7 Z M 48.9 11.7 C 49.3 11.7 49.7 11.5 50.2 11.1 C 50.2 11.1 50.2 8.9 50.2 8.9 C 48.8 9.5 47.9 9.8 47.9 10.7 C 47.9 11.3 48.3 11.7 48.9 11.7 Z M 62.7 5 C 62.7 5 61.6 7.6 61.6 7.6 C 61.1 7.1 60.6 6.9 60.1 6.9 C 59.2 6.9 58.5 7.6 58.1 9.1 C 58.1 9.11 58.1 13.1 58.1 13.1 L 55.4 13.1 L 55.4 4.4 L 58.1 4.4 C 58.1 4.4 58.1 6.46 58.1 6.5 C 58.8 5.1 59.7 4.2 60.8 4.2 C 61.4 4.2 62 4.4 62.7 5 Z M 72 6.1 C 72 6.1 70.38 6.1 70.4 6.1 C 71 6.6 71.2 7.2 71.2 7.9 C 71.2 9.4 70 10.6 68 10.7 C 67.3 10.8 66.7 11 66.7 11.4 C 66.7 11.8 67.3 11.9 68.7 12.1 C 70.8 12.3 71.7 13.2 71.7 14.6 C 71.7 16.4 70.2 17.4 67.4 17.4 C 64.5 17.4 63 16.4 63 15 C 63 14.1 63.6 13.2 65.1 13 C 64.6 12.8 64.3 12.3 64.3 11.9 C 64.3 11.2 64.8 10.6 65.7 10.4 C 64.2 10 63.4 8.9 63.4 7.6 C 63.4 5.6 64.9 4.4 67.6 4.4 C 67.59 4.39 72 4.4 72 4.4 L 72 6.1 Z M 67.3 9.1 C 68.2 9.1 68.8 8.5 68.8 7.6 C 68.8 6.8 68.2 6.2 67.3 6.2 C 66.3 6.2 65.8 7 65.8 7.7 C 65.8 8.5 66.4 9.1 67.3 9.1 Z M 67.4 15.9 C 68.7 15.9 69.5 15.5 69.5 14.8 C 69.5 14.1 68.7 13.8 67.4 13.8 C 66.1 13.8 65.4 14.1 65.4 14.8 C 65.4 15.5 66.1 15.9 67.4 15.9 Z M 81.6 8.8 C 81.61 8.82 81.6 9.3 81.6 9.3 C 81.6 9.3 75.49 9.32 75.5 9.3 C 75.7 10.6 76.7 11.4 78 11.4 C 79.2 11.4 80.3 11.1 81.4 10.5 C 81.4 10.5 81.4 12.3 81.4 12.3 C 80.3 13 79.1 13.3 77.5 13.3 C 74.6 13.3 72.7 11.5 72.7 8.7 C 72.7 6 74.5 4.2 77.4 4.2 C 79.7 4.2 81.6 5.8 81.6 8.8 Z M 79.1 8 C 79 6.7 78.4 6 77.3 6 C 76.2 6 75.5 6.8 75.4 8 C 75.4 8 79.1 8 79.1 8 Z M 86.3 4.2 C 87.3 4.2 88.4 4.5 89.2 4.9 C 89.2 4.9 89.2 7 89.2 7 C 88.1 6.3 87.4 6.1 86.7 6.1 C 86 6.1 85.7 6.4 85.7 6.7 C 85.7 7 85.8 7.2 87.3 7.9 C 88.8 8.6 89.7 9.4 89.7 10.6 C 89.7 12.1 88.5 13.3 86.3 13.3 C 85.4 13.3 84.5 13.1 83.1 12.6 C 83.1 12.6 83.1 10.5 83.1 10.5 C 84.1 11.1 85 11.4 85.7 11.4 C 86.5 11.4 86.9 11.2 86.9 10.8 C 86.9 10.3 86.7 10.1 85.2 9.4 C 83.6 8.7 83 7.8 83 6.7 C 83 5.4 84.2 4.2 86.3 4.2 Z M 94.4 2 L 94.6 2 L 94.6 4.6 L 97.5 4.6 L 97.5 6.5 L 94.6 6.5 C 94.6 6.5 94.62 9.61 94.6 9.6 C 94.6 10.5 94.8 11.1 95.8 11.1 C 96.6 11.1 97.2 10.8 97.8 10.5 C 97.8 10.5 97.8 12.6 97.8 12.6 C 97 13 95.9 13.3 95.1 13.3 C 92.9 13.3 91.9 12.1 91.9 10 C 91.92 10.04 91.9 6.5 91.9 6.5 L 90.5 6.5 L 90.5 5.9 L 94.4 2 Z M 111.9 0.8 L 117.3 13.1 L 114.2 13.1 L 113 10.3 L 107.7 10.3 L 106.5 13.1 L 103.4 13.1 L 108.7 0.8 L 111.9 0.8 Z M 108.5 8.3 L 112.2 8.3 L 110.3 3.9 L 108.5 8.3 Z M 126.3 0.8 L 131.7 13.1 L 128.5 13.1 L 127.3 10.3 L 122 10.3 L 120.9 13.1 L 117.7 13.1 L 123 0.8 L 126.3 0.8 Z M 122.8 8.3 L 126.5 8.3 L 124.7 3.9 L 122.8 8.3 Z M 145.5 7 C 145.5 10.4 143.1 13.3 138.7 13.3 C 134.3 13.3 131.9 10.3 131.9 7 C 131.9 4 133.9 0.7 138.7 0.7 C 143 0.7 145.5 3.5 145.5 7 Z M 135.1 7 C 135.1 9.1 136.6 10.6 138.7 10.6 C 140.8 10.6 142.4 9.2 142.4 7 C 142.4 5 141.1 3.4 138.7 3.4 C 136.5 3.4 135.1 4.9 135.1 7 Z M 160.1 4.5 C 160.1 6.9 158 9.3 156.9 10.7 C 156.88 10.69 161 10.7 161 10.7 L 161 13.1 L 152.2 13.1 C 152.2 13.1 152.24 12.92 152.2 12.9 C 154.2 10.9 157.3 7.6 157.3 5.1 C 157.3 3.8 156.4 3.1 155.5 3.1 C 154.5 3.1 153.5 3.7 152.6 4.7 C 152.6 4.7 152.6 2 152.6 2 C 154 1 155 0.7 156.2 0.7 C 158.5 0.7 160.1 2.2 160.1 4.5 Z M 166.8 11 C 167.8 11 168.4 9.9 168.4 7 C 168.4 4.4 167.9 3 166.8 3 C 165.9 3 165.3 4.1 165.3 7 C 165.3 9.7 165.7 11 166.8 11 Z M 171.3 7 C 171.3 11.1 169.3 13.3 166.8 13.3 C 164.2 13.3 162.3 11.1 162.3 7 C 162.3 2.8 164.4 0.7 166.8 0.7 C 169.4 0.7 171.3 3 171.3 7 Z M 180.5 4.5 C 180.5 6.9 178.4 9.3 177.3 10.7 C 177.26 10.69 181.4 10.7 181.4 10.7 L 181.4 13.1 L 172.6 13.1 C 172.6 13.1 172.62 12.92 172.6 12.9 C 174.6 10.9 177.7 7.6 177.7 5.1 C 177.7 3.8 176.8 3.1 175.9 3.1 C 174.9 3.1 173.9 3.7 173 4.7 C 173 4.7 173 2 173 2 C 174.3 1 175.4 0.7 176.6 0.7 C 178.9 0.7 180.5 2.2 180.5 4.5 Z M 190.5 0.8 L 190.5 3.1 L 186.3 3.1 C 186.3 3.1 186.28 5.53 186.3 5.5 C 186.6 5.5 186.7 5.5 186.9 5.5 C 189.4 5.5 191 7.2 191 9.3 C 191 11.5 189.5 13.3 186.7 13.3 C 185.4 13.3 184.2 13 183.1 12.2 C 183.1 12.2 183.1 9.8 183.1 9.8 C 183.9 10.4 185.3 11 186.2 11 C 187.5 11 188.1 10.2 188.1 9.3 C 188.1 8.1 187 7.5 185.6 7.5 C 185 7.5 184.4 7.6 183.9 7.8 C 183.9 7.78 183.9 0.8 183.9 0.8 L 190.5 0.8 Z " stroke="none" fill="#000"/>  </g></svg>