<?xml version="1.0" standalone="no"?><!DOCTYPE svg PUBLIC "-//W3C//DTD SVG 1.1//EN" "http://www.w3.org/Graphics/SVG/1.1/DTD/svg11.dtd"><svg xmlns="http://www.w3.org/2000/svg" version="1.1" width="237px" height="33.9px" viewBox="0 -1 237 33.9" style="top:-1px">  <desc>Human Resources</desc>  <defs/>  <g id="Polygon127286">    <path d="M 1 19.6 L 1 9.6 L 3 9.6 L 3 13.5 L 7 13.5 L 7 9.6 L 9 9.6 L 9 19.6 L 7 19.6 L 7 15.2 L 3 15.2 L 3 19.6 L 1 19.6 Z M 15.9 19.6 C 15.9 19.6 15.89 18.51 15.9 18.5 C 15.6 18.9 15.3 19.2 14.9 19.4 C 14.4 19.6 14 19.8 13.5 19.8 C 13 19.8 12.6 19.6 12.2 19.4 C 11.8 19.2 11.5 18.9 11.3 18.5 C 11.2 18.1 11.1 17.6 11.1 16.9 C 11.07 16.93 11.1 12.3 11.1 12.3 L 13 12.3 C 13 12.3 13 15.67 13 15.7 C 13 16.7 13 17.3 13.1 17.5 C 13.2 17.8 13.3 18 13.5 18.1 C 13.7 18.2 13.9 18.3 14.2 18.3 C 14.5 18.3 14.8 18.2 15.1 18 C 15.3 17.8 15.5 17.6 15.6 17.4 C 15.7 17.1 15.8 16.4 15.8 15.4 C 15.76 15.39 15.8 12.3 15.8 12.3 L 17.7 12.3 L 17.7 19.6 L 15.9 19.6 Z M 19.5 12.3 L 21.3 12.3 C 21.3 12.3 21.29 13.32 21.3 13.3 C 21.9 12.6 22.7 12.2 23.6 12.2 C 24 12.2 24.4 12.3 24.8 12.5 C 25.1 12.6 25.4 12.9 25.6 13.3 C 25.9 12.9 26.3 12.6 26.6 12.5 C 27 12.3 27.4 12.2 27.8 12.2 C 28.4 12.2 28.8 12.3 29.2 12.5 C 29.5 12.7 29.8 13 30 13.4 C 30.1 13.8 30.2 14.3 30.2 15 C 30.2 14.95 30.2 19.6 30.2 19.6 L 28.3 19.6 C 28.3 19.6 28.28 15.44 28.3 15.4 C 28.3 14.7 28.2 14.3 28.1 14 C 27.9 13.8 27.6 13.6 27.3 13.6 C 27 13.6 26.7 13.7 26.5 13.9 C 26.3 14 26.1 14.3 26 14.6 C 25.9 14.9 25.8 15.4 25.8 16.1 C 25.83 16.11 25.8 19.6 25.8 19.6 L 23.9 19.6 C 23.9 19.6 23.91 15.61 23.9 15.6 C 23.9 14.9 23.9 14.5 23.8 14.2 C 23.7 14 23.6 13.9 23.5 13.8 C 23.3 13.7 23.2 13.6 22.9 13.6 C 22.6 13.6 22.3 13.7 22.1 13.9 C 21.9 14 21.7 14.3 21.6 14.6 C 21.5 14.9 21.4 15.4 21.4 16.1 C 21.44 16.06 21.4 19.6 21.4 19.6 L 19.5 19.6 L 19.5 12.3 Z M 33.6 14.5 C 33.6 14.5 31.8 14.2 31.8 14.2 C 32 13.5 32.3 13 32.8 12.7 C 33.3 12.3 34 12.2 35 12.2 C 35.8 12.2 36.4 12.3 36.9 12.5 C 37.3 12.7 37.6 12.9 37.8 13.2 C 37.9 13.6 38 14.1 38 15 C 38 15 38 17.2 38 17.2 C 38 17.8 38 18.3 38.1 18.6 C 38.1 18.9 38.3 19.2 38.4 19.6 C 38.4 19.6 36.5 19.6 36.5 19.6 C 36.5 19.5 36.4 19.3 36.3 19 C 36.3 18.9 36.3 18.8 36.3 18.8 C 35.9 19.1 35.6 19.4 35.2 19.5 C 34.8 19.7 34.4 19.8 34 19.8 C 33.3 19.8 32.7 19.6 32.3 19.1 C 31.8 18.7 31.6 18.2 31.6 17.6 C 31.6 17.2 31.7 16.8 31.9 16.5 C 32.1 16.2 32.4 15.9 32.7 15.8 C 33.1 15.6 33.6 15.5 34.3 15.3 C 35.2 15.2 35.8 15 36.1 14.9 C 36.1 14.9 36.1 14.7 36.1 14.7 C 36.1 14.3 36 14 35.8 13.9 C 35.7 13.7 35.3 13.6 34.8 13.6 C 34.5 13.6 34.2 13.7 34 13.8 C 33.8 14 33.7 14.2 33.6 14.5 Z M 36.1 16.1 C 35.9 16.2 35.5 16.3 35 16.4 C 34.4 16.5 34.1 16.6 33.9 16.7 C 33.7 16.9 33.5 17.1 33.5 17.4 C 33.5 17.7 33.6 17.9 33.8 18.1 C 34 18.3 34.3 18.4 34.6 18.4 C 34.9 18.4 35.3 18.3 35.6 18.1 C 35.8 17.9 36 17.7 36 17.4 C 36.1 17.3 36.1 16.9 36.1 16.5 C 36.1 16.5 36.1 16.1 36.1 16.1 Z M 46.5 19.6 L 44.6 19.6 C 44.6 19.6 44.58 15.89 44.6 15.9 C 44.6 15.1 44.5 14.6 44.5 14.4 C 44.4 14.1 44.2 14 44.1 13.8 C 43.9 13.7 43.7 13.6 43.4 13.6 C 43.1 13.6 42.8 13.7 42.5 13.9 C 42.2 14.1 42.1 14.3 42 14.6 C 41.9 14.9 41.8 15.5 41.8 16.3 C 41.81 16.3 41.8 19.6 41.8 19.6 L 39.9 19.6 L 39.9 12.3 L 41.7 12.3 C 41.7 12.3 41.67 13.4 41.7 13.4 C 42.3 12.6 43.1 12.2 44.1 12.2 C 44.5 12.2 44.9 12.2 45.2 12.4 C 45.6 12.6 45.8 12.7 46 13 C 46.2 13.2 46.3 13.5 46.4 13.8 C 46.5 14.1 46.5 14.5 46.5 15.1 C 46.5 15.08 46.5 19.6 46.5 19.6 Z M 52.4 19.6 L 52.4 9.6 C 52.4 9.6 56.62 9.57 56.6 9.6 C 57.7 9.6 58.5 9.7 59 9.8 C 59.4 10 59.8 10.3 60.1 10.8 C 60.4 11.3 60.6 11.8 60.6 12.4 C 60.6 13.1 60.3 13.8 59.9 14.2 C 59.5 14.7 58.8 15 57.9 15.2 C 58.4 15.4 58.7 15.7 59 16 C 59.3 16.3 59.7 16.9 60.1 17.6 C 60.15 17.64 61.4 19.6 61.4 19.6 L 59 19.6 C 59 19.6 57.49 17.41 57.5 17.4 C 57 16.6 56.6 16.1 56.4 15.9 C 56.2 15.7 56 15.6 55.8 15.5 C 55.6 15.4 55.3 15.4 54.8 15.4 C 54.8 15.41 54.4 15.4 54.4 15.4 L 54.4 19.6 L 52.4 19.6 Z M 54.4 13.8 C 54.4 13.8 55.88 13.81 55.9 13.8 C 56.9 13.8 57.5 13.8 57.7 13.7 C 57.9 13.6 58.1 13.5 58.3 13.3 C 58.4 13.1 58.5 12.8 58.5 12.5 C 58.5 12.2 58.4 11.9 58.2 11.7 C 58 11.5 57.8 11.4 57.4 11.3 C 57.3 11.3 56.8 11.3 56 11.3 C 55.97 11.27 54.4 11.3 54.4 11.3 L 54.4 13.8 Z M 66.7 17.3 C 66.7 17.3 68.6 17.6 68.6 17.6 C 68.3 18.3 67.9 18.8 67.4 19.2 C 66.9 19.6 66.2 19.8 65.4 19.8 C 64.2 19.8 63.2 19.3 62.6 18.5 C 62.1 17.9 61.9 17 61.9 16 C 61.9 14.8 62.2 13.9 62.8 13.2 C 63.5 12.5 64.3 12.2 65.2 12.2 C 66.3 12.2 67.2 12.5 67.8 13.2 C 68.4 14 68.7 15 68.7 16.5 C 68.7 16.5 63.9 16.5 63.9 16.5 C 63.9 17.1 64 17.5 64.3 17.8 C 64.6 18.2 65 18.3 65.4 18.3 C 65.7 18.3 66 18.2 66.2 18.1 C 66.4 17.9 66.6 17.6 66.7 17.3 Z M 66.8 15.3 C 66.8 14.8 66.6 14.4 66.3 14.1 C 66.1 13.8 65.7 13.6 65.3 13.6 C 64.9 13.6 64.6 13.8 64.3 14.1 C 64 14.4 63.9 14.8 63.9 15.3 C 63.9 15.3 66.8 15.3 66.8 15.3 Z M 69.6 17.5 C 69.6 17.5 71.5 17.2 71.5 17.2 C 71.6 17.6 71.7 17.9 72 18.1 C 72.2 18.3 72.6 18.4 73 18.4 C 73.5 18.4 73.9 18.3 74.2 18.1 C 74.3 18 74.4 17.8 74.4 17.6 C 74.4 17.4 74.4 17.3 74.3 17.2 C 74.2 17.1 74 17 73.6 17 C 72.1 16.6 71.1 16.3 70.7 16 C 70.1 15.6 69.8 15.1 69.8 14.4 C 69.8 13.8 70.1 13.2 70.6 12.8 C 71.1 12.4 71.8 12.2 72.9 12.2 C 73.9 12.2 74.6 12.3 75.1 12.7 C 75.6 13 75.9 13.5 76.1 14.1 C 76.1 14.1 74.3 14.4 74.3 14.4 C 74.2 14.1 74.1 13.9 73.8 13.8 C 73.6 13.6 73.3 13.5 72.9 13.5 C 72.4 13.5 72.1 13.6 71.8 13.8 C 71.7 13.9 71.6 14 71.6 14.2 C 71.6 14.3 71.7 14.4 71.8 14.5 C 72 14.6 72.6 14.8 73.6 15 C 74.6 15.3 75.3 15.6 75.7 15.9 C 76.1 16.2 76.3 16.7 76.3 17.3 C 76.3 18 76.1 18.6 75.5 19 C 75 19.5 74.1 19.8 73 19.8 C 72.1 19.8 71.3 19.6 70.7 19.2 C 70.1 18.8 69.7 18.2 69.6 17.5 Z M 77.6 15.9 C 77.6 15.2 77.7 14.6 78.1 14 C 78.4 13.4 78.8 13 79.4 12.6 C 80 12.3 80.6 12.2 81.3 12.2 C 82.4 12.2 83.3 12.5 84 13.2 C 84.7 14 85.1 14.9 85.1 15.9 C 85.1 17 84.7 18 84 18.7 C 83.3 19.4 82.4 19.8 81.3 19.8 C 80.7 19.8 80 19.6 79.4 19.3 C 78.8 19 78.4 18.6 78.1 18 C 77.7 17.4 77.6 16.7 77.6 15.9 Z M 79.5 16 C 79.5 16.7 79.7 17.2 80.1 17.6 C 80.4 18 80.8 18.2 81.3 18.2 C 81.8 18.2 82.2 18 82.6 17.6 C 82.9 17.2 83.1 16.7 83.1 15.9 C 83.1 15.2 82.9 14.7 82.6 14.3 C 82.2 13.9 81.8 13.7 81.3 13.7 C 80.8 13.7 80.4 13.9 80.1 14.3 C 79.7 14.7 79.5 15.2 79.5 16 Z M 91.4 19.6 C 91.4 19.6 91.36 18.51 91.4 18.5 C 91.1 18.9 90.7 19.2 90.3 19.4 C 89.9 19.6 89.4 19.8 88.9 19.8 C 88.5 19.8 88 19.6 87.6 19.4 C 87.2 19.2 87 18.9 86.8 18.5 C 86.6 18.1 86.5 17.6 86.5 16.9 C 86.54 16.93 86.5 12.3 86.5 12.3 L 88.5 12.3 C 88.5 12.3 88.46 15.67 88.5 15.7 C 88.5 16.7 88.5 17.3 88.6 17.5 C 88.6 17.8 88.8 18 88.9 18.1 C 89.1 18.2 89.4 18.3 89.7 18.3 C 90 18.3 90.3 18.2 90.5 18 C 90.8 17.8 91 17.6 91.1 17.4 C 91.2 17.1 91.2 16.4 91.2 15.4 C 91.22 15.39 91.2 12.3 91.2 12.3 L 93.1 12.3 L 93.1 19.6 L 91.4 19.6 Z M 97 19.6 L 95 19.6 L 95 12.3 L 96.8 12.3 C 96.8 12.3 96.83 13.36 96.8 13.4 C 97.1 12.9 97.4 12.6 97.7 12.4 C 97.9 12.2 98.2 12.2 98.5 12.2 C 98.9 12.2 99.3 12.3 99.7 12.5 C 99.7 12.5 99.2 14.2 99.2 14.2 C 98.8 14 98.5 13.9 98.3 13.9 C 98 13.9 97.8 14 97.6 14.1 C 97.4 14.3 97.2 14.5 97.1 14.9 C 97 15.3 97 16.1 97 17.4 C 96.97 17.35 97 19.6 97 19.6 Z M 106.9 14.5 C 106.9 14.5 105 14.8 105 14.8 C 104.9 14.4 104.8 14.2 104.6 14 C 104.4 13.8 104.1 13.7 103.7 13.7 C 103.2 13.7 102.8 13.8 102.6 14.2 C 102.3 14.5 102.1 15.1 102.1 15.8 C 102.1 16.7 102.3 17.3 102.6 17.7 C 102.9 18 103.2 18.2 103.7 18.2 C 104.1 18.2 104.4 18.1 104.6 17.9 C 104.9 17.7 105 17.3 105.1 16.8 C 105.1 16.8 107 17.1 107 17.1 C 106.8 18 106.4 18.7 105.9 19.1 C 105.3 19.5 104.6 19.8 103.6 19.8 C 102.6 19.8 101.7 19.4 101.1 18.8 C 100.5 18.1 100.2 17.2 100.2 16 C 100.2 14.8 100.5 13.8 101.1 13.2 C 101.7 12.5 102.6 12.2 103.7 12.2 C 104.6 12.2 105.3 12.4 105.8 12.7 C 106.3 13.1 106.7 13.7 106.9 14.5 Z M 112.6 17.3 C 112.6 17.3 114.5 17.6 114.5 17.6 C 114.2 18.3 113.8 18.8 113.3 19.2 C 112.8 19.6 112.1 19.8 111.3 19.8 C 110.1 19.8 109.1 19.3 108.5 18.5 C 108 17.9 107.8 17 107.8 16 C 107.8 14.8 108.1 13.9 108.7 13.2 C 109.4 12.5 110.2 12.2 111.1 12.2 C 112.2 12.2 113.1 12.5 113.7 13.2 C 114.3 14 114.6 15 114.6 16.5 C 114.6 16.5 109.8 16.5 109.8 16.5 C 109.8 17.1 109.9 17.5 110.2 17.8 C 110.5 18.2 110.9 18.3 111.3 18.3 C 111.6 18.3 111.9 18.2 112.1 18.1 C 112.3 17.9 112.5 17.6 112.6 17.3 Z M 112.7 15.3 C 112.7 14.8 112.5 14.4 112.2 14.1 C 112 13.8 111.6 13.6 111.2 13.6 C 110.8 13.6 110.5 13.8 110.2 14.1 C 109.9 14.4 109.8 14.8 109.8 15.3 C 109.8 15.3 112.7 15.3 112.7 15.3 Z M 115.5 17.5 C 115.5 17.5 117.4 17.2 117.4 17.2 C 117.5 17.6 117.6 17.9 117.9 18.1 C 118.1 18.3 118.5 18.4 119 18.4 C 119.4 18.4 119.8 18.3 120.1 18.1 C 120.2 18 120.3 17.8 120.3 17.6 C 120.3 17.4 120.3 17.3 120.2 17.2 C 120.1 17.1 119.9 17 119.5 17 C 118 16.6 117 16.3 116.6 16 C 116 15.6 115.7 15.1 115.7 14.4 C 115.7 13.8 116 13.2 116.5 12.8 C 117 12.4 117.8 12.2 118.8 12.2 C 119.8 12.2 120.5 12.3 121 12.7 C 121.5 13 121.8 13.5 122 14.1 C 122 14.1 120.2 14.4 120.2 14.4 C 120.1 14.1 120 13.9 119.8 13.8 C 119.5 13.6 119.2 13.5 118.8 13.5 C 118.3 13.5 118 13.6 117.7 13.8 C 117.6 13.9 117.5 14 117.5 14.2 C 117.5 14.3 117.6 14.4 117.7 14.5 C 117.9 14.6 118.5 14.8 119.5 15 C 120.5 15.3 121.2 15.6 121.7 15.9 C 122.1 16.2 122.3 16.7 122.3 17.3 C 122.3 18 122 18.6 121.4 19 C 120.9 19.5 120 19.8 119 19.8 C 118 19.8 117.2 19.6 116.6 19.2 C 116 18.8 115.7 18.2 115.5 17.5 Z " stroke="none" fill="#fff"/>  </g></svg>