<?xml version="1.0" standalone="no"?><!DOCTYPE svg PUBLIC "-//W3C//DTD SVG 1.1//EN" "http://www.w3.org/Graphics/SVG/1.1/DTD/svg11.dtd"><svg xmlns="http://www.w3.org/2000/svg" version="1.1" width="87px" height="39.9px" viewBox="0 -5 87 39.9" style="top:-5px">  <desc>Honesty &amp; Integrity</desc>  <defs/>  <g id="Polygon143020">    <path d="M 19.7 27 L 19.7 17 L 21.1 17 L 21.1 27 L 19.7 27 Z M 23.3 27 L 23.3 19.7 L 24.4 19.7 C 24.4 19.7 24.36 20.76 24.4 20.8 C 24.9 20 25.7 19.6 26.7 19.6 C 27.1 19.6 27.5 19.6 27.9 19.8 C 28.2 20 28.5 20.2 28.7 20.4 C 28.9 20.7 29 21 29.1 21.3 C 29.1 21.6 29.2 22 29.2 22.5 C 29.15 22.53 29.2 27 29.2 27 L 27.9 27 C 27.9 27 27.92 22.58 27.9 22.6 C 27.9 22.1 27.9 21.7 27.8 21.5 C 27.7 21.2 27.5 21 27.3 20.9 C 27 20.7 26.7 20.6 26.4 20.6 C 25.9 20.6 25.4 20.8 25.1 21.1 C 24.7 21.5 24.5 22.1 24.5 23 C 24.48 23.03 24.5 27 24.5 27 L 23.3 27 Z M 33.2 25.9 C 33.3 25.9 33.5 25.9 33.7 25.9 C 33.7 25.9 33.9 27 33.9 27 C 33.6 27.1 33.2 27.1 33 27.1 C 32.5 27.1 32.2 27 31.9 26.9 C 31.7 26.7 31.5 26.5 31.4 26.3 C 31.3 26.1 31.3 25.6 31.3 24.9 C 31.26 24.87 31.3 20.7 31.3 20.7 L 30.4 20.7 L 30.4 19.7 L 31.3 19.7 L 31.3 17.9 L 32.5 17.2 L 32.5 19.7 L 33.7 19.7 L 33.7 20.7 L 32.5 20.7 C 32.5 20.7 32.49 24.93 32.5 24.9 C 32.5 25.3 32.5 25.5 32.6 25.6 C 32.6 25.7 32.7 25.8 32.8 25.9 C 32.9 25.9 33 25.9 33.2 25.9 C 33.2 25.9 33.2 25.9 33.2 25.9 Z M 39.9 24.7 C 39.9 24.7 41.2 24.8 41.2 24.8 C 41 25.6 40.6 26.1 40.1 26.5 C 39.5 27 38.8 27.2 38 27.2 C 36.9 27.2 36.1 26.8 35.5 26.2 C 34.8 25.5 34.5 24.6 34.5 23.4 C 34.5 22.2 34.8 21.3 35.5 20.6 C 36.1 19.9 36.9 19.6 37.9 19.6 C 38.9 19.6 39.7 19.9 40.3 20.6 C 40.9 21.2 41.2 22.2 41.2 23.3 C 41.2 23.4 41.2 23.5 41.2 23.7 C 41.2 23.7 35.8 23.7 35.8 23.7 C 35.8 24.5 36.1 25.1 36.5 25.5 C 36.9 25.9 37.4 26.1 38 26.1 C 38.4 26.1 38.8 26 39.1 25.8 C 39.5 25.6 39.7 25.2 39.9 24.7 Z M 35.9 22.7 C 35.9 22.7 39.9 22.7 39.9 22.7 C 39.9 22.1 39.7 21.6 39.4 21.3 C 39.1 20.8 38.5 20.6 37.9 20.6 C 37.4 20.6 36.9 20.8 36.5 21.1 C 36.1 21.5 35.9 22 35.9 22.7 Z M 42.5 27.6 C 42.5 27.6 43.7 27.8 43.7 27.8 C 43.7 28.1 43.9 28.4 44.1 28.6 C 44.4 28.8 44.8 28.9 45.4 28.9 C 45.9 28.9 46.4 28.8 46.7 28.6 C 47 28.4 47.2 28 47.3 27.6 C 47.4 27.4 47.4 26.8 47.4 26 C 46.9 26.7 46.2 27 45.4 27 C 44.4 27 43.6 26.6 43.1 25.9 C 42.5 25.2 42.2 24.3 42.2 23.3 C 42.2 22.6 42.4 22 42.6 21.4 C 42.9 20.8 43.2 20.4 43.7 20 C 44.2 19.7 44.7 19.6 45.4 19.6 C 46.2 19.6 47 19.9 47.5 20.6 C 47.51 20.61 47.5 19.7 47.5 19.7 L 48.6 19.7 C 48.6 19.7 48.64 26.01 48.6 26 C 48.6 27.1 48.5 27.9 48.3 28.4 C 48.1 28.9 47.7 29.3 47.2 29.5 C 46.7 29.8 46.1 29.9 45.4 29.9 C 44.5 29.9 43.8 29.7 43.3 29.4 C 42.7 29 42.5 28.4 42.5 27.6 Z M 43.5 23.2 C 43.5 24.2 43.7 24.9 44.1 25.3 C 44.5 25.8 44.9 26 45.5 26 C 46.1 26 46.5 25.8 46.9 25.3 C 47.3 24.9 47.5 24.2 47.5 23.3 C 47.5 22.4 47.3 21.7 46.9 21.3 C 46.5 20.8 46 20.6 45.5 20.6 C 44.9 20.6 44.5 20.8 44.1 21.3 C 43.7 21.7 43.5 22.4 43.5 23.2 Z M 50.5 27 L 50.5 19.7 L 51.6 19.7 C 51.6 19.7 51.59 20.83 51.6 20.8 C 51.9 20.3 52.1 20 52.4 19.8 C 52.6 19.7 52.9 19.6 53.2 19.6 C 53.6 19.6 54 19.7 54.4 20 C 54.4 20 54 21.1 54 21.1 C 53.7 20.9 53.4 20.8 53.1 20.8 C 52.8 20.8 52.6 20.9 52.4 21.1 C 52.2 21.2 52 21.5 51.9 21.8 C 51.8 22.2 51.7 22.7 51.7 23.2 C 51.72 23.19 51.7 27 51.7 27 L 50.5 27 Z M 55.2 18.4 L 55.2 17 L 56.4 17 L 56.4 18.4 L 55.2 18.4 Z M 55.2 27 L 55.2 19.7 L 56.4 19.7 L 56.4 27 L 55.2 27 Z M 60.4 25.9 C 60.6 25.9 60.7 25.9 61 25.9 C 61 25.9 61.1 27 61.1 27 C 60.8 27.1 60.5 27.1 60.2 27.1 C 59.8 27.1 59.4 27 59.2 26.9 C 58.9 26.7 58.7 26.5 58.6 26.3 C 58.5 26.1 58.5 25.6 58.5 24.9 C 58.5 24.87 58.5 20.7 58.5 20.7 L 57.6 20.7 L 57.6 19.7 L 58.5 19.7 L 58.5 17.9 L 59.7 17.2 L 59.7 19.7 L 61 19.7 L 61 20.7 L 59.7 20.7 C 59.7 20.7 59.72 24.93 59.7 24.9 C 59.7 25.3 59.7 25.5 59.8 25.6 C 59.8 25.7 59.9 25.8 60 25.9 C 60.1 25.9 60.2 25.9 60.4 25.9 C 60.4 25.9 60.4 25.9 60.4 25.9 Z M 62.9 29.9 C 62.7 29.9 62.4 29.9 62.1 29.8 C 62.1 29.8 62 28.6 62 28.6 C 62.2 28.7 62.5 28.7 62.7 28.7 C 62.9 28.7 63.2 28.7 63.3 28.6 C 63.5 28.5 63.6 28.4 63.7 28.2 C 63.8 28.1 63.9 27.8 64.1 27.3 C 64.1 27.2 64.2 27.1 64.2 27 C 64.22 27.01 61.5 19.7 61.5 19.7 L 62.8 19.7 C 62.8 19.7 64.3 23.94 64.3 23.9 C 64.5 24.5 64.7 25 64.8 25.6 C 65 25.1 65.1 24.5 65.3 24 C 65.33 23.96 66.9 19.7 66.9 19.7 L 68.1 19.7 C 68.1 19.7 65.36 27.12 65.4 27.1 C 65.1 27.9 64.8 28.5 64.7 28.8 C 64.4 29.2 64.2 29.5 63.9 29.7 C 63.6 29.8 63.3 29.9 62.9 29.9 C 62.9 29.9 62.9 29.9 62.9 29.9 Z " stroke="none" fill="#fff"/>  </g>  <g id="Polygon143019">    <path d="M 12.2 10.2 L 12.2 0.2 L 13.5 0.2 L 13.5 4.3 L 18.7 4.3 L 18.7 0.2 L 20 0.2 L 20 10.2 L 18.7 10.2 L 18.7 5.5 L 13.5 5.5 L 13.5 10.2 L 12.2 10.2 Z M 21.6 6.6 C 21.6 5.2 22 4.2 22.7 3.6 C 23.4 3 24.1 2.8 25 2.8 C 26 2.8 26.8 3.1 27.5 3.7 C 28.1 4.4 28.4 5.3 28.4 6.5 C 28.4 7.4 28.3 8.1 28 8.7 C 27.7 9.2 27.3 9.6 26.8 9.9 C 26.2 10.2 25.7 10.4 25 10.4 C 24 10.4 23.2 10 22.6 9.4 C 21.9 8.7 21.6 7.8 21.6 6.6 Z M 22.9 6.6 C 22.9 7.5 23.1 8.2 23.5 8.7 C 23.9 9.1 24.4 9.3 25 9.3 C 25.6 9.3 26.1 9.1 26.6 8.6 C 27 8.2 27.2 7.5 27.2 6.5 C 27.2 5.6 27 4.9 26.5 4.5 C 26.1 4 25.6 3.8 25 3.8 C 24.4 3.8 23.9 4 23.5 4.5 C 23.1 4.9 22.9 5.6 22.9 6.6 Z M 29.9 10.2 L 29.9 2.9 L 31 2.9 C 31 2.9 30.97 3.96 31 4 C 31.5 3.2 32.3 2.8 33.3 2.8 C 33.7 2.8 34.1 2.8 34.5 3 C 34.9 3.2 35.1 3.4 35.3 3.6 C 35.5 3.9 35.6 4.2 35.7 4.5 C 35.7 4.8 35.8 5.2 35.8 5.7 C 35.77 5.73 35.8 10.2 35.8 10.2 L 34.5 10.2 C 34.5 10.2 34.54 5.78 34.5 5.8 C 34.5 5.3 34.5 4.9 34.4 4.7 C 34.3 4.4 34.1 4.2 33.9 4.1 C 33.6 3.9 33.4 3.8 33 3.8 C 32.5 3.8 32 4 31.7 4.3 C 31.3 4.7 31.1 5.3 31.1 6.2 C 31.1 6.23 31.1 10.2 31.1 10.2 L 29.9 10.2 Z M 42.6 7.9 C 42.6 7.9 43.9 8 43.9 8 C 43.7 8.8 43.3 9.3 42.8 9.7 C 42.2 10.2 41.5 10.4 40.7 10.4 C 39.6 10.4 38.8 10 38.2 9.4 C 37.6 8.7 37.2 7.8 37.2 6.6 C 37.2 5.4 37.6 4.5 38.2 3.8 C 38.8 3.1 39.6 2.8 40.6 2.8 C 41.6 2.8 42.4 3.1 43 3.8 C 43.6 4.4 43.9 5.4 43.9 6.5 C 43.9 6.6 43.9 6.7 43.9 6.9 C 43.9 6.9 38.5 6.9 38.5 6.9 C 38.6 7.7 38.8 8.3 39.2 8.7 C 39.6 9.1 40.1 9.3 40.7 9.3 C 41.2 9.3 41.5 9.2 41.9 9 C 42.2 8.8 42.4 8.4 42.6 7.9 Z M 38.6 5.9 C 38.6 5.9 42.6 5.9 42.6 5.9 C 42.6 5.3 42.4 4.8 42.2 4.5 C 41.8 4 41.3 3.8 40.6 3.8 C 40.1 3.8 39.6 4 39.2 4.3 C 38.8 4.7 38.6 5.2 38.6 5.9 Z M 44.9 8 C 44.9 8 46.2 7.8 46.2 7.8 C 46.2 8.3 46.4 8.7 46.7 9 C 47 9.2 47.5 9.3 48 9.3 C 48.6 9.3 49 9.2 49.3 9 C 49.6 8.8 49.7 8.5 49.7 8.2 C 49.7 7.9 49.6 7.7 49.3 7.5 C 49.2 7.4 48.8 7.3 48.1 7.1 C 47.2 6.9 46.6 6.7 46.2 6.5 C 45.9 6.4 45.6 6.1 45.4 5.8 C 45.2 5.5 45.2 5.2 45.2 4.9 C 45.2 4.5 45.2 4.2 45.4 4 C 45.5 3.7 45.7 3.5 46 3.3 C 46.2 3.1 46.4 3 46.8 2.9 C 47.1 2.8 47.4 2.8 47.8 2.8 C 48.4 2.8 48.9 2.9 49.3 3 C 49.8 3.2 50.1 3.4 50.3 3.7 C 50.5 4 50.6 4.3 50.7 4.8 C 50.7 4.8 49.5 5 49.5 5 C 49.4 4.6 49.3 4.3 49 4.1 C 48.8 3.9 48.4 3.8 47.9 3.8 C 47.3 3.8 46.9 3.9 46.7 4.1 C 46.5 4.2 46.3 4.5 46.3 4.7 C 46.3 4.9 46.4 5 46.5 5.1 C 46.6 5.3 46.7 5.4 47 5.5 C 47.1 5.5 47.4 5.6 48 5.8 C 48.9 6 49.5 6.2 49.9 6.4 C 50.2 6.5 50.5 6.7 50.7 7 C 50.9 7.3 51 7.6 51 8.1 C 51 8.5 50.9 8.9 50.6 9.2 C 50.4 9.6 50 9.9 49.6 10.1 C 49.1 10.3 48.6 10.4 48 10.4 C 47.1 10.4 46.4 10.2 45.9 9.8 C 45.4 9.4 45.1 8.8 44.9 8 Z M 54.6 9.1 C 54.7 9.1 54.9 9.1 55.1 9.1 C 55.1 9.1 55.3 10.2 55.3 10.2 C 55 10.3 54.6 10.3 54.4 10.3 C 53.9 10.3 53.6 10.2 53.3 10.1 C 53.1 9.9 52.9 9.7 52.8 9.5 C 52.7 9.3 52.7 8.8 52.7 8.1 C 52.66 8.07 52.7 3.9 52.7 3.9 L 51.8 3.9 L 51.8 2.9 L 52.7 2.9 L 52.7 1.1 L 53.9 0.4 L 53.9 2.9 L 55.1 2.9 L 55.1 3.9 L 53.9 3.9 C 53.9 3.9 53.89 8.13 53.9 8.1 C 53.9 8.5 53.9 8.7 54 8.8 C 54 8.9 54.1 9 54.2 9.1 C 54.3 9.1 54.4 9.1 54.6 9.1 C 54.6 9.1 54.6 9.1 54.6 9.1 Z M 57.1 13.1 C 56.8 13.1 56.6 13.1 56.3 13 C 56.3 13 56.1 11.8 56.1 11.8 C 56.4 11.9 56.6 11.9 56.8 11.9 C 57.1 11.9 57.3 11.9 57.5 11.8 C 57.7 11.7 57.8 11.6 57.9 11.4 C 58 11.3 58.1 11 58.3 10.5 C 58.3 10.4 58.3 10.3 58.4 10.2 C 58.39 10.21 55.6 2.9 55.6 2.9 L 57 2.9 C 57 2.9 58.47 7.14 58.5 7.1 C 58.7 7.7 58.8 8.2 59 8.8 C 59.1 8.3 59.3 7.7 59.5 7.2 C 59.5 7.16 61.1 2.9 61.1 2.9 L 62.3 2.9 C 62.3 2.9 59.52 10.32 59.5 10.3 C 59.2 11.1 59 11.7 58.8 12 C 58.6 12.4 58.4 12.7 58.1 12.9 C 57.8 13 57.5 13.1 57.1 13.1 C 57.1 13.1 57.1 13.1 57.1 13.1 Z M 74.5 10.4 C 74 10.1 73.5 9.6 72.9 9 C 72.5 9.5 72.1 9.8 71.6 10 C 71.1 10.3 70.6 10.4 70.1 10.4 C 69 10.4 68.2 10 67.6 9.3 C 67.1 8.8 66.9 8.1 66.9 7.4 C 66.9 6.8 67.1 6.3 67.5 5.8 C 67.9 5.3 68.5 4.8 69.3 4.4 C 68.8 3.9 68.5 3.5 68.4 3.2 C 68.2 2.8 68.2 2.5 68.2 2.2 C 68.2 1.6 68.4 1.1 68.9 0.7 C 69.3 0.2 69.9 0 70.6 0 C 71.3 0 71.9 0.2 72.3 0.6 C 72.8 1 73 1.6 73 2.1 C 73 3.1 72.3 3.9 71.1 4.6 C 71.1 4.6 72.9 6.9 72.9 6.9 C 73.1 6.5 73.2 6 73.4 5.5 C 73.4 5.5 74.6 5.7 74.6 5.7 C 74.4 6.6 74.1 7.3 73.7 7.9 C 74.2 8.5 74.7 9 75.3 9.4 C 75.31 9.45 74.5 10.4 74.5 10.4 C 74.5 10.4 74.48 10.42 74.5 10.4 Z M 70.4 3.8 C 71 3.5 71.3 3.2 71.5 3 C 71.6 2.7 71.7 2.5 71.7 2.2 C 71.7 1.8 71.6 1.6 71.4 1.3 C 71.2 1.1 70.9 1 70.6 1 C 70.2 1 70 1.1 69.8 1.3 C 69.5 1.5 69.4 1.8 69.4 2.1 C 69.4 2.3 69.5 2.4 69.5 2.6 C 69.6 2.8 69.7 3 69.9 3.2 C 69.9 3.2 70.4 3.8 70.4 3.8 Z M 72.2 8 C 72.2 8 69.9 5.2 69.9 5.2 C 69.3 5.6 68.8 6 68.6 6.3 C 68.3 6.7 68.2 7 68.2 7.4 C 68.2 7.8 68.4 8.2 68.7 8.6 C 69 9.1 69.5 9.3 70.1 9.3 C 70.5 9.3 70.8 9.2 71.2 8.9 C 71.6 8.7 71.9 8.4 72.2 8 Z " stroke="none" fill="#fff"/>  </g></svg>