<?xml version="1.0" standalone="no"?><!DOCTYPE svg PUBLIC "-//W3C//DTD SVG 1.1//EN" "http://www.w3.org/Graphics/SVG/1.1/DTD/svg11.dtd"><svg xmlns="http://www.w3.org/2000/svg" version="1.1" width="178px" height="28.9px" viewBox="0 -5 178 28.9" style="top:-5px">  <desc>25 Years’ Experience</desc>  <defs/>  <g id="Polygon140362">    <path d="M 8.6 4.5 C 8.6 6.9 6.5 9.3 5.3 10.7 C 5.35 10.69 9.5 10.7 9.5 10.7 L 9.5 13.1 L 0.7 13.1 C 0.7 13.1 0.7 12.92 0.7 12.9 C 2.6 10.9 5.8 7.6 5.8 5.1 C 5.8 3.8 4.9 3.1 4 3.1 C 3 3.1 2 3.7 1 4.7 C 1 4.7 1 2 1 2 C 2.4 1 3.5 0.7 4.7 0.7 C 6.9 0.7 8.6 2.2 8.6 4.5 Z M 18.6 0.8 L 18.6 3.1 L 14.4 3.1 C 14.4 3.1 14.36 5.53 14.4 5.5 C 14.7 5.5 14.8 5.5 15 5.5 C 17.5 5.5 19.1 7.2 19.1 9.3 C 19.1 11.5 17.6 13.3 14.8 13.3 C 13.5 13.3 12.3 13 11.1 12.2 C 11.1 12.2 11.1 9.8 11.1 9.8 C 12 10.4 13.3 11 14.3 11 C 15.6 11 16.2 10.2 16.2 9.3 C 16.2 8.1 15 7.5 13.7 7.5 C 13.1 7.5 12.5 7.6 12 7.8 C 11.99 7.78 12 0.8 12 0.8 L 18.6 0.8 Z M 28.9 0.8 L 31.9 4.8 L 34.8 0.8 L 38.2 0.8 L 33.5 7.2 L 33.5 13.1 L 30.4 13.1 L 30.4 7.3 L 25.6 0.8 L 28.9 0.8 Z M 45.6 8.8 C 45.63 8.82 45.6 9.3 45.6 9.3 C 45.6 9.3 39.51 9.32 39.5 9.3 C 39.7 10.6 40.8 11.4 42.1 11.4 C 43.2 11.4 44.3 11.1 45.4 10.5 C 45.4 10.5 45.4 12.3 45.4 12.3 C 44.3 13 43.1 13.3 41.5 13.3 C 38.6 13.3 36.7 11.5 36.7 8.7 C 36.7 6 38.5 4.2 41.5 4.2 C 43.7 4.2 45.6 5.8 45.6 8.8 Z M 43.1 8 C 43.1 6.7 42.4 6 41.3 6 C 40.3 6 39.5 6.8 39.5 8 C 39.5 8 43.1 8 43.1 8 Z M 54.4 7 C 54.4 7 54.4 10.6 54.4 10.6 C 54.4 11 54.5 11.3 54.8 11.3 C 55 11.3 55.3 11.2 55.6 11 C 55.6 11 55.6 12.7 55.6 12.7 C 54.7 13.1 54 13.3 53.3 13.3 C 52.5 13.3 52 13 51.9 12.4 C 51.1 13 50.2 13.3 49.3 13.3 C 47.7 13.3 46.8 12.4 46.8 11.1 C 46.8 9.3 48.4 8.7 51.7 7.6 C 51.7 7.6 51.7 7.4 51.7 7.4 C 51.7 6.4 51.2 6.1 50.3 6.1 C 49.2 6.1 48 6.7 47.1 7.7 C 47.1 7.7 47.1 5.4 47.1 5.4 C 48.1 4.6 49.4 4.2 50.8 4.2 C 53.2 4.2 54.4 5.3 54.4 7 Z M 50.4 11.7 C 50.8 11.7 51.3 11.5 51.7 11.1 C 51.7 11.1 51.7 8.9 51.7 8.9 C 50.3 9.5 49.5 9.8 49.5 10.7 C 49.5 11.3 49.9 11.7 50.4 11.7 Z M 64.2 5 C 64.2 5 63.2 7.6 63.2 7.6 C 62.7 7.1 62.2 6.9 61.7 6.9 C 60.7 6.9 60 7.6 59.7 9.1 C 59.65 9.11 59.7 13.1 59.7 13.1 L 57 13.1 L 57 4.4 L 59.7 4.4 C 59.7 4.4 59.65 6.46 59.7 6.5 C 60.3 5.1 61.3 4.2 62.4 4.2 C 63 4.2 63.5 4.4 64.2 5 Z M 68.4 4.2 C 69.4 4.2 70.4 4.5 71.3 4.9 C 71.3 4.9 71.3 7 71.3 7 C 70.2 6.3 69.5 6.1 68.7 6.1 C 68.1 6.1 67.8 6.4 67.8 6.7 C 67.8 7 67.9 7.2 69.4 7.9 C 70.9 8.6 71.7 9.4 71.7 10.6 C 71.7 12.1 70.6 13.3 68.4 13.3 C 67.4 13.3 66.5 13.1 65.1 12.6 C 65.1 12.6 65.1 10.5 65.1 10.5 C 66.1 11.1 67 11.4 67.8 11.4 C 68.6 11.4 69 11.2 69 10.8 C 69 10.3 68.7 10.1 67.3 9.4 C 65.7 8.7 65.1 7.8 65.1 6.7 C 65.1 5.4 66.3 4.2 68.4 4.2 Z M 76.6 3.1 C 76.6 4.7 75.5 6.3 73.1 6.7 C 73.1 6.7 73.1 6.2 73.1 6.2 C 73.9 5.8 74.3 5.1 74.3 3.9 C 73.5 3.7 73.1 3.1 73.1 2.3 C 73.1 1.4 73.8 0.7 74.7 0.7 C 76 0.7 76.6 1.9 76.6 3.1 Z M 92.4 0.8 L 92.4 3 L 87 3 L 87 5.7 L 92.1 5.7 L 92.1 7.9 L 87 7.9 L 87 10.9 L 92.5 10.9 L 92.5 13.1 L 84 13.1 L 84 0.8 L 92.4 0.8 Z M 96.8 4.4 L 98.7 6.9 L 100.6 4.4 L 103.6 4.4 L 100.2 8.6 L 103.8 13.1 L 100.5 13.1 L 98.5 10.5 L 96.6 13.1 L 93.5 13.1 L 97 8.8 L 93.5 4.4 L 96.8 4.4 Z M 109.8 13.3 C 109 13.3 108.4 13.2 107.6 12.7 C 107.62 12.69 107.6 17.2 107.6 17.2 L 104.9 17.2 L 104.9 4.4 C 104.9 4.4 108.83 4.39 108.8 4.4 C 111.6 4.4 114 5.1 114 8.8 C 114 11.1 112.6 13.3 109.8 13.3 Z M 107.6 10.7 C 108.1 11.1 108.7 11.2 109.2 11.2 C 110.4 11.2 111.2 10.3 111.2 8.9 C 111.2 7.3 110.3 6.5 108.9 6.5 C 108.86 6.46 107.6 6.5 107.6 6.5 C 107.6 6.5 107.62 10.69 107.6 10.7 Z M 124.2 8.8 C 124.18 8.82 124.2 9.3 124.2 9.3 C 124.2 9.3 118.06 9.32 118.1 9.3 C 118.3 10.6 119.3 11.4 120.6 11.4 C 121.8 11.4 122.9 11.1 124 10.5 C 124 10.5 124 12.3 124 12.3 C 122.9 13 121.6 13.3 120.1 13.3 C 117.2 13.3 115.3 11.5 115.3 8.7 C 115.3 6 117.1 4.2 120 4.2 C 122.3 4.2 124.2 5.8 124.2 8.8 Z M 121.6 8 C 121.6 6.7 121 6 119.9 6 C 118.8 6 118 6.8 118 8 C 118 8 121.6 8 121.6 8 Z M 133.1 5 C 133.1 5 132 7.6 132 7.6 C 131.5 7.1 131 6.9 130.5 6.9 C 129.6 6.9 128.9 7.6 128.5 9.1 C 128.46 9.11 128.5 13.1 128.5 13.1 L 125.8 13.1 L 125.8 4.4 L 128.5 4.4 C 128.5 4.4 128.46 6.46 128.5 6.5 C 129.1 5.1 130.1 4.2 131.2 4.2 C 131.8 4.2 132.3 4.4 133.1 5 Z M 136.7 2.2 C 136.7 2.9 136.1 3.4 135.4 3.4 C 134.8 3.4 134.2 2.9 134.2 2.2 C 134.2 1.5 134.7 1 135.4 1 C 136.1 1 136.7 1.5 136.7 2.2 Z M 136.8 4.4 L 136.8 13.1 L 134.1 13.1 L 134.1 4.4 L 136.8 4.4 Z M 147.4 8.8 C 147.36 8.82 147.4 9.3 147.4 9.3 C 147.4 9.3 141.24 9.32 141.2 9.3 C 141.4 10.6 142.5 11.4 143.8 11.4 C 144.9 11.4 146.1 11.1 147.1 10.5 C 147.1 10.5 147.1 12.3 147.1 12.3 C 146.1 13 144.8 13.3 143.3 13.3 C 140.4 13.3 138.5 11.5 138.5 8.7 C 138.5 6 140.3 4.2 143.2 4.2 C 145.5 4.2 147.4 5.8 147.4 8.8 Z M 144.8 8 C 144.8 6.7 144.1 6 143.1 6 C 142 6 141.2 6.8 141.2 8 C 141.2 8 144.8 8 144.8 8 Z M 157.7 7.8 C 157.71 7.79 157.7 13.1 157.7 13.1 L 155 13.1 C 155 13.1 155.01 8.19 155 8.2 C 155 6.9 154.5 6.4 153.6 6.4 C 152.9 6.4 152.3 6.7 151.7 7.7 C 151.68 7.69 151.7 13.1 151.7 13.1 L 149 13.1 L 149 4.4 L 151.7 4.4 C 151.7 4.4 151.68 5.6 151.7 5.6 C 152.5 4.6 153.5 4.2 154.6 4.2 C 156.8 4.2 157.7 5.7 157.7 7.8 Z M 166.7 4.8 C 166.7 4.8 166.7 7 166.7 7 C 165.8 6.6 165 6.4 164.4 6.4 C 163.1 6.4 162.1 7.4 162.1 8.7 C 162.1 10.1 163 11.1 164.5 11.1 C 165.1 11.1 165.8 10.9 166.9 10.5 C 166.9 10.5 166.9 12.7 166.9 12.7 C 165.8 13.1 165 13.3 164.1 13.3 C 160.3 13.3 159.3 10.4 159.3 8.8 C 159.3 6.9 160.4 4.2 164 4.2 C 164.9 4.2 165.7 4.4 166.7 4.8 Z M 177 8.8 C 176.97 8.82 177 9.3 177 9.3 C 177 9.3 170.85 9.32 170.9 9.3 C 171.1 10.6 172.1 11.4 173.4 11.4 C 174.5 11.4 175.7 11.1 176.8 10.5 C 176.8 10.5 176.8 12.3 176.8 12.3 C 175.7 13 174.4 13.3 172.9 13.3 C 170 13.3 168.1 11.5 168.1 8.7 C 168.1 6 169.9 4.2 172.8 4.2 C 175.1 4.2 177 5.8 177 8.8 Z M 174.4 8 C 174.4 6.7 173.8 6 172.7 6 C 171.6 6 170.8 6.8 170.8 8 C 170.8 8 174.4 8 174.4 8 Z " stroke="none" fill="#000"/>  </g></svg>