<?xml version="1.0" standalone="no"?><!DOCTYPE svg PUBLIC "-//W3C//DTD SVG 1.1//EN" "http://www.w3.org/Graphics/SVG/1.1/DTD/svg11.dtd"><svg xmlns="http://www.w3.org/2000/svg" version="1.1" width="87px" height="39.9px" viewBox="0 -5 87 39.9" style="top:-5px">  <desc>Honisty &amp; Integrity</desc>  <defs/>  <g id="Polygon139089">    <path d="M 19.7 27 L 19.7 17 L 21.1 17 L 21.1 27 L 19.7 27 Z M 23.3 27 L 23.3 19.7 L 24.4 19.7 C 24.4 19.7 24.36 20.76 24.4 20.8 C 24.9 20 25.7 19.6 26.7 19.6 C 27.1 19.6 27.5 19.6 27.9 19.8 C 28.2 20 28.5 20.2 28.7 20.4 C 28.9 20.7 29 21 29.1 21.3 C 29.1 21.6 29.2 22 29.2 22.5 C 29.15 22.53 29.2 27 29.2 27 L 27.9 27 C 27.9 27 27.92 22.58 27.9 22.6 C 27.9 22.1 27.9 21.7 27.8 21.5 C 27.7 21.2 27.5 21 27.3 20.9 C 27 20.7 26.7 20.6 26.4 20.6 C 25.9 20.6 25.4 20.8 25.1 21.1 C 24.7 21.5 24.5 22.1 24.5 23 C 24.48 23.03 24.5 27 24.5 27 L 23.3 27 Z M 33.2 25.9 C 33.3 25.9 33.5 25.9 33.7 25.9 C 33.7 25.9 33.9 27 33.9 27 C 33.6 27.1 33.2 27.1 33 27.1 C 32.5 27.1 32.2 27 31.9 26.9 C 31.7 26.7 31.5 26.5 31.4 26.3 C 31.3 26.1 31.3 25.6 31.3 24.9 C 31.26 24.87 31.3 20.7 31.3 20.7 L 30.4 20.7 L 30.4 19.7 L 31.3 19.7 L 31.3 17.9 L 32.5 17.2 L 32.5 19.7 L 33.7 19.7 L 33.7 20.7 L 32.5 20.7 C 32.5 20.7 32.49 24.93 32.5 24.9 C 32.5 25.3 32.5 25.5 32.6 25.6 C 32.6 25.7 32.7 25.8 32.8 25.9 C 32.9 25.9 33 25.9 33.2 25.9 C 33.2 25.9 33.2 25.9 33.2 25.9 Z M 39.9 24.7 C 39.9 24.7 41.2 24.8 41.2 24.8 C 41 25.6 40.6 26.1 40.1 26.5 C 39.5 27 38.8 27.2 38 27.2 C 36.9 27.2 36.1 26.8 35.5 26.2 C 34.8 25.5 34.5 24.6 34.5 23.4 C 34.5 22.2 34.8 21.3 35.5 20.6 C 36.1 19.9 36.9 19.6 37.9 19.6 C 38.9 19.6 39.7 19.9 40.3 20.6 C 40.9 21.2 41.2 22.2 41.2 23.3 C 41.2 23.4 41.2 23.5 41.2 23.7 C 41.2 23.7 35.8 23.7 35.8 23.7 C 35.8 24.5 36.1 25.1 36.5 25.5 C 36.9 25.9 37.4 26.1 38 26.1 C 38.4 26.1 38.8 26 39.1 25.8 C 39.5 25.6 39.7 25.2 39.9 24.7 Z M 35.9 22.7 C 35.9 22.7 39.9 22.7 39.9 22.7 C 39.9 22.1 39.7 21.6 39.4 21.3 C 39.1 20.8 38.5 20.6 37.9 20.6 C 37.4 20.6 36.9 20.8 36.5 21.1 C 36.1 21.5 35.9 22 35.9 22.7 Z M 42.5 27.6 C 42.5 27.6 43.7 27.8 43.7 27.8 C 43.7 28.1 43.9 28.4 44.1 28.6 C 44.4 28.8 44.8 28.9 45.4 28.9 C 45.9 28.9 46.4 28.8 46.7 28.6 C 47 28.4 47.2 28 47.3 27.6 C 47.4 27.4 47.4 26.8 47.4 26 C 46.9 26.7 46.2 27 45.4 27 C 44.4 27 43.6 26.6 43.1 25.9 C 42.5 25.2 42.2 24.3 42.2 23.3 C 42.2 22.6 42.4 22 42.6 21.4 C 42.9 20.8 43.2 20.4 43.7 20 C 44.2 19.7 44.7 19.6 45.4 19.6 C 46.2 19.6 47 19.9 47.5 20.6 C 47.51 20.61 47.5 19.7 47.5 19.7 L 48.6 19.7 C 48.6 19.7 48.64 26.01 48.6 26 C 48.6 27.1 48.5 27.9 48.3 28.4 C 48.1 28.9 47.7 29.3 47.2 29.5 C 46.7 29.8 46.1 29.9 45.4 29.9 C 44.5 29.9 43.8 29.7 43.3 29.4 C 42.7 29 42.5 28.4 42.5 27.6 Z M 43.5 23.2 C 43.5 24.2 43.7 24.9 44.1 25.3 C 44.5 25.8 44.9 26 45.5 26 C 46.1 26 46.5 25.8 46.9 25.3 C 47.3 24.9 47.5 24.2 47.5 23.3 C 47.5 22.4 47.3 21.7 46.9 21.3 C 46.5 20.8 46 20.6 45.5 20.6 C 44.9 20.6 44.5 20.8 44.1 21.3 C 43.7 21.7 43.5 22.4 43.5 23.2 Z M 50.5 27 L 50.5 19.7 L 51.6 19.7 C 51.6 19.7 51.59 20.83 51.6 20.8 C 51.9 20.3 52.1 20 52.4 19.8 C 52.6 19.7 52.9 19.6 53.2 19.6 C 53.6 19.6 54 19.7 54.4 20 C 54.4 20 54 21.1 54 21.1 C 53.7 20.9 53.4 20.8 53.1 20.8 C 52.8 20.8 52.6 20.9 52.4 21.1 C 52.2 21.2 52 21.5 51.9 21.8 C 51.8 22.2 51.7 22.7 51.7 23.2 C 51.72 23.19 51.7 27 51.7 27 L 50.5 27 Z M 55.2 18.4 L 55.2 17 L 56.4 17 L 56.4 18.4 L 55.2 18.4 Z M 55.2 27 L 55.2 19.7 L 56.4 19.7 L 56.4 27 L 55.2 27 Z M 60.4 25.9 C 60.6 25.9 60.7 25.9 61 25.9 C 61 25.9 61.1 27 61.1 27 C 60.8 27.1 60.5 27.1 60.2 27.1 C 59.8 27.1 59.4 27 59.2 26.9 C 58.9 26.7 58.7 26.5 58.6 26.3 C 58.5 26.1 58.5 25.6 58.5 24.9 C 58.5 24.87 58.5 20.7 58.5 20.7 L 57.6 20.7 L 57.6 19.7 L 58.5 19.7 L 58.5 17.9 L 59.7 17.2 L 59.7 19.7 L 61 19.7 L 61 20.7 L 59.7 20.7 C 59.7 20.7 59.72 24.93 59.7 24.9 C 59.7 25.3 59.7 25.5 59.8 25.6 C 59.8 25.7 59.9 25.8 60 25.9 C 60.1 25.9 60.2 25.9 60.4 25.9 C 60.4 25.9 60.4 25.9 60.4 25.9 Z M 62.9 29.9 C 62.7 29.9 62.4 29.9 62.1 29.8 C 62.1 29.8 62 28.6 62 28.6 C 62.2 28.7 62.5 28.7 62.7 28.7 C 62.9 28.7 63.2 28.7 63.3 28.6 C 63.5 28.5 63.6 28.4 63.7 28.2 C 63.8 28.1 63.9 27.8 64.1 27.3 C 64.1 27.2 64.2 27.1 64.2 27 C 64.22 27.01 61.5 19.7 61.5 19.7 L 62.8 19.7 C 62.8 19.7 64.3 23.94 64.3 23.9 C 64.5 24.5 64.7 25 64.8 25.6 C 65 25.1 65.1 24.5 65.3 24 C 65.33 23.96 66.9 19.7 66.9 19.7 L 68.1 19.7 C 68.1 19.7 65.36 27.12 65.4 27.1 C 65.1 27.9 64.8 28.5 64.7 28.8 C 64.4 29.2 64.2 29.5 63.9 29.7 C 63.6 29.8 63.3 29.9 62.9 29.9 C 62.9 29.9 62.9 29.9 62.9 29.9 Z " stroke="none" fill="#fff"/>  </g>  <g id="Polygon139088">    <path d="M 14.5 10.2 L 14.5 0.2 L 15.8 0.2 L 15.8 4.3 L 21 4.3 L 21 0.2 L 22.4 0.2 L 22.4 10.2 L 21 10.2 L 21 5.5 L 15.8 5.5 L 15.8 10.2 L 14.5 10.2 Z M 24 6.6 C 24 5.2 24.3 4.2 25.1 3.6 C 25.7 3 26.5 2.8 27.4 2.8 C 28.4 2.8 29.2 3.1 29.8 3.7 C 30.4 4.4 30.8 5.3 30.8 6.5 C 30.8 7.4 30.6 8.1 30.3 8.7 C 30.1 9.2 29.7 9.6 29.1 9.9 C 28.6 10.2 28 10.4 27.4 10.4 C 26.3 10.4 25.5 10 24.9 9.4 C 24.3 8.7 24 7.8 24 6.6 Z M 25.2 6.6 C 25.2 7.5 25.4 8.2 25.8 8.7 C 26.2 9.1 26.7 9.3 27.4 9.3 C 28 9.3 28.5 9.1 28.9 8.6 C 29.3 8.2 29.5 7.5 29.5 6.5 C 29.5 5.6 29.3 4.9 28.9 4.5 C 28.5 4 28 3.8 27.4 3.8 C 26.7 3.8 26.2 4 25.8 4.5 C 25.4 4.9 25.2 5.6 25.2 6.6 Z M 32.2 10.2 L 32.2 2.9 L 33.3 2.9 C 33.3 2.9 33.31 3.96 33.3 4 C 33.8 3.2 34.6 2.8 35.6 2.8 C 36.1 2.8 36.5 2.8 36.8 3 C 37.2 3.2 37.5 3.4 37.7 3.6 C 37.8 3.9 38 4.2 38 4.5 C 38.1 4.8 38.1 5.2 38.1 5.7 C 38.1 5.73 38.1 10.2 38.1 10.2 L 36.9 10.2 C 36.9 10.2 36.87 5.78 36.9 5.8 C 36.9 5.3 36.8 4.9 36.7 4.7 C 36.6 4.4 36.5 4.2 36.2 4.1 C 36 3.9 35.7 3.8 35.4 3.8 C 34.8 3.8 34.4 4 34 4.3 C 33.6 4.7 33.4 5.3 33.4 6.2 C 33.43 6.23 33.4 10.2 33.4 10.2 L 32.2 10.2 Z M 40 1.6 L 40 0.2 L 41.2 0.2 L 41.2 1.6 L 40 1.6 Z M 40 10.2 L 40 2.9 L 41.2 2.9 L 41.2 10.2 L 40 10.2 Z M 42.6 8 C 42.6 8 43.8 7.8 43.8 7.8 C 43.9 8.3 44.1 8.7 44.4 9 C 44.7 9.2 45.1 9.3 45.7 9.3 C 46.3 9.3 46.7 9.2 47 9 C 47.2 8.8 47.4 8.5 47.4 8.2 C 47.4 7.9 47.3 7.7 47 7.5 C 46.8 7.4 46.4 7.3 45.8 7.1 C 44.9 6.9 44.2 6.7 43.9 6.5 C 43.5 6.4 43.3 6.1 43.1 5.8 C 42.9 5.5 42.8 5.2 42.8 4.9 C 42.8 4.5 42.9 4.2 43 4 C 43.2 3.7 43.4 3.5 43.6 3.3 C 43.8 3.1 44.1 3 44.4 2.9 C 44.8 2.8 45.1 2.8 45.5 2.8 C 46.1 2.8 46.6 2.9 47 3 C 47.4 3.2 47.7 3.4 47.9 3.7 C 48.1 4 48.3 4.3 48.4 4.8 C 48.4 4.8 47.2 5 47.2 5 C 47.1 4.6 46.9 4.3 46.7 4.1 C 46.4 3.9 46.1 3.8 45.6 3.8 C 45 3.8 44.6 3.9 44.4 4.1 C 44.1 4.2 44 4.5 44 4.7 C 44 4.9 44.1 5 44.2 5.1 C 44.3 5.3 44.4 5.4 44.6 5.5 C 44.7 5.5 45.1 5.6 45.7 5.8 C 46.6 6 47.2 6.2 47.5 6.4 C 47.9 6.5 48.1 6.7 48.3 7 C 48.5 7.3 48.6 7.6 48.6 8.1 C 48.6 8.5 48.5 8.9 48.3 9.2 C 48 9.6 47.7 9.9 47.2 10.1 C 46.8 10.3 46.3 10.4 45.7 10.4 C 44.8 10.4 44 10.2 43.6 9.8 C 43.1 9.4 42.7 8.8 42.6 8 Z M 52.2 9.1 C 52.4 9.1 52.6 9.1 52.8 9.1 C 52.8 9.1 53 10.2 53 10.2 C 52.6 10.3 52.3 10.3 52 10.3 C 51.6 10.3 51.2 10.2 51 10.1 C 50.8 9.9 50.6 9.7 50.5 9.5 C 50.4 9.3 50.3 8.8 50.3 8.1 C 50.33 8.07 50.3 3.9 50.3 3.9 L 49.4 3.9 L 49.4 2.9 L 50.3 2.9 L 50.3 1.1 L 51.5 0.4 L 51.5 2.9 L 52.8 2.9 L 52.8 3.9 L 51.5 3.9 C 51.5 3.9 51.55 8.13 51.5 8.1 C 51.5 8.5 51.6 8.7 51.6 8.8 C 51.7 8.9 51.7 9 51.8 9.1 C 51.9 9.1 52.1 9.1 52.2 9.1 C 52.2 9.1 52.2 9.1 52.2 9.1 Z M 54.7 13.1 C 54.5 13.1 54.2 13.1 53.9 13 C 53.9 13 53.8 11.8 53.8 11.8 C 54.1 11.9 54.3 11.9 54.5 11.9 C 54.8 11.9 55 11.9 55.2 11.8 C 55.3 11.7 55.5 11.6 55.6 11.4 C 55.6 11.3 55.8 11 55.9 10.5 C 56 10.4 56 10.3 56 10.2 C 56.05 10.21 53.3 2.9 53.3 2.9 L 54.6 2.9 C 54.6 2.9 56.13 7.14 56.1 7.1 C 56.3 7.7 56.5 8.2 56.7 8.8 C 56.8 8.3 57 7.7 57.2 7.2 C 57.16 7.16 58.7 2.9 58.7 2.9 L 59.9 2.9 C 59.9 2.9 57.18 10.32 57.2 10.3 C 56.9 11.1 56.7 11.7 56.5 12 C 56.3 12.4 56 12.7 55.7 12.9 C 55.5 13 55.1 13.1 54.7 13.1 C 54.7 13.1 54.7 13.1 54.7 13.1 Z M 72.1 10.4 C 71.6 10.1 71.1 9.6 70.6 9 C 70.2 9.5 69.8 9.8 69.3 10 C 68.8 10.3 68.3 10.4 67.7 10.4 C 66.7 10.4 65.9 10 65.3 9.3 C 64.8 8.8 64.6 8.1 64.6 7.4 C 64.6 6.8 64.8 6.3 65.2 5.8 C 65.6 5.3 66.2 4.8 66.9 4.4 C 66.5 3.9 66.2 3.5 66 3.2 C 65.9 2.8 65.8 2.5 65.8 2.2 C 65.8 1.6 66.1 1.1 66.5 0.7 C 67 0.2 67.6 0 68.3 0 C 69 0 69.5 0.2 70 0.6 C 70.4 1 70.6 1.6 70.6 2.1 C 70.6 3.1 70 3.9 68.7 4.6 C 68.7 4.6 70.5 6.9 70.5 6.9 C 70.7 6.5 70.9 6 71 5.5 C 71 5.5 72.3 5.7 72.3 5.7 C 72.1 6.6 71.8 7.3 71.4 7.9 C 71.9 8.5 72.4 9 73 9.4 C 72.97 9.45 72.1 10.4 72.1 10.4 C 72.1 10.4 72.15 10.42 72.1 10.4 Z M 68.1 3.8 C 68.6 3.5 69 3.2 69.1 3 C 69.3 2.7 69.4 2.5 69.4 2.2 C 69.4 1.8 69.3 1.6 69.1 1.3 C 68.8 1.1 68.6 1 68.2 1 C 67.9 1 67.6 1.1 67.4 1.3 C 67.2 1.5 67.1 1.8 67.1 2.1 C 67.1 2.3 67.1 2.4 67.2 2.6 C 67.3 2.8 67.4 3 67.6 3.2 C 67.6 3.2 68.1 3.8 68.1 3.8 Z M 69.8 8 C 69.8 8 67.6 5.2 67.6 5.2 C 66.9 5.6 66.5 6 66.2 6.3 C 66 6.7 65.9 7 65.9 7.4 C 65.9 7.8 66 8.2 66.4 8.6 C 66.7 9.1 67.2 9.3 67.7 9.3 C 68.1 9.3 68.5 9.2 68.9 8.9 C 69.3 8.7 69.6 8.4 69.8 8 Z " stroke="none" fill="#fff"/>  </g></svg>