<?xml version="1.0" standalone="no"?><!DOCTYPE svg PUBLIC "-//W3C//DTD SVG 1.1//EN" "http://www.w3.org/Graphics/SVG/1.1/DTD/svg11.dtd"><svg xmlns="http://www.w3.org/2000/svg" version="1.1" width="309px" height="31.4px" viewBox="0 -5 309 31.4" style="top:-5px">  <desc>2024 Annual Survey Results</desc>  <defs/>  <g id="Polygon139960">    <path d="M 8.4 4.8 C 8.4 7.7 5.9 10.5 3.6 13.1 C 3.56 13.14 9.3 13.1 9.3 13.1 L 9.3 14.6 L 0.9 14.6 C 0.9 14.6 1.24 14.1 1.2 14.1 C 2.9 12.3 6.9 8.3 6.9 5 C 6.9 2.9 5.4 2.2 4.2 2.2 C 3.1 2.2 2 2.8 1.1 3.9 C 1.1 3.9 1.1 2 1.1 2 C 2.1 1.2 3.2 0.8 4.4 0.8 C 6.8 0.8 8.4 2.5 8.4 4.8 Z M 10.6 7.8 C 10.6 3.2 12.7 0.8 15.1 0.8 C 17.7 0.8 19.4 3.7 19.4 7.7 C 19.4 12.1 17.5 14.8 15 14.8 C 12.3 14.8 10.6 12 10.6 7.8 Z M 17.9 7.8 C 17.9 4.2 16.7 2.1 15 2.1 C 13.3 2.1 12.1 4.2 12.1 7.7 C 12.1 11.3 13.2 13.4 15 13.4 C 16.8 13.4 17.9 11.3 17.9 7.8 Z M 28.4 4.8 C 28.4 7.7 25.9 10.5 23.6 13.1 C 23.56 13.14 29.3 13.1 29.3 13.1 L 29.3 14.6 L 20.9 14.6 C 20.9 14.6 21.24 14.1 21.2 14.1 C 22.9 12.3 26.9 8.3 26.9 5 C 26.9 2.9 25.4 2.2 24.2 2.2 C 23.1 2.2 22 2.8 21.1 3.9 C 21.1 3.9 21.1 2 21.1 2 C 22.1 1.2 23.2 0.8 24.4 0.8 C 26.8 0.8 28.4 2.5 28.4 4.8 Z M 30.3 9.1 L 37.1 0.8 L 37.8 0.8 L 37.8 8.5 L 39.4 8.5 L 39.4 9.8 L 37.8 9.8 L 37.8 14.6 L 36.3 14.6 L 36.3 9.8 L 30.3 9.8 L 30.3 9.1 Z M 36.3 8.5 L 36.3 3.6 L 32.3 8.5 L 36.3 8.5 Z M 52.6 0.9 L 58.6 14.6 L 57.1 14.6 L 55.2 10.3 L 49 10.3 L 47.1 14.6 L 45.6 14.6 L 51.5 0.9 L 52.6 0.9 Z M 49.6 9 L 54.6 9 L 52 3.2 L 49.6 9 Z M 61.4 0.9 L 71.1 12.2 L 71.1 0.9 L 72.5 0.9 L 72.5 14.6 L 71.2 14.6 L 61.6 3.3 L 61.6 14.6 L 60.2 14.6 L 60.2 0.9 L 61.4 0.9 Z M 76.8 0.9 L 86.5 12.2 L 86.5 0.9 L 87.9 0.9 L 87.9 14.6 L 86.6 14.6 L 77 3.3 L 77 14.6 L 75.6 14.6 L 75.6 0.9 L 76.8 0.9 Z M 92.3 0.9 C 92.3 0.9 92.32 8.8 92.3 8.8 C 92.3 11.8 93.7 13.4 96.5 13.4 C 99.4 13.4 100.8 11.8 100.8 8.8 C 100.76 8.8 100.8 0.9 100.8 0.9 L 102.3 0.9 C 102.3 0.9 102.26 8.8 102.3 8.8 C 102.3 12.4 100.4 14.8 96.6 14.8 C 92.8 14.8 90.8 12.6 90.8 8.8 C 90.82 8.8 90.8 0.9 90.8 0.9 L 92.3 0.9 Z M 110.1 0.9 L 116.2 14.6 L 114.6 14.6 L 112.7 10.3 L 106.5 10.3 L 104.7 14.6 L 103.1 14.6 L 109 0.9 L 110.1 0.9 Z M 107.1 9 L 112.1 9 L 109.5 3.2 L 107.1 9 Z M 119.2 0.9 L 119.2 13.2 L 125.7 13.2 L 125.7 14.6 L 117.7 14.6 L 117.7 0.9 L 119.2 0.9 Z M 139.3 1.6 C 139.3 1.6 139.3 3.3 139.3 3.3 C 138.3 2.5 137.3 2.1 136.2 2.1 C 134.8 2.1 133.8 2.9 133.8 4.1 C 133.8 5 134 5.8 136.3 6.9 C 139.1 8.4 139.8 9.4 139.8 11.2 C 139.8 13.2 138.2 14.8 135.9 14.8 C 134.6 14.8 133.4 14.3 132.4 13.6 C 132.4 13.6 132.4 11.7 132.4 11.7 C 133.4 12.8 134.6 13.4 135.9 13.4 C 137.3 13.4 138.3 12.6 138.3 11.2 C 138.3 10.1 137.9 9.4 135.3 8 C 133.1 6.9 132.3 5.9 132.3 4.1 C 132.3 2.2 134 0.8 136.2 0.8 C 137.3 0.8 138.4 1.1 139.3 1.6 Z M 143.5 0.9 C 143.5 0.9 143.46 8.8 143.5 8.8 C 143.5 11.8 144.9 13.4 147.7 13.4 C 150.5 13.4 151.9 11.8 151.9 8.8 C 151.9 8.8 151.9 0.9 151.9 0.9 L 153.4 0.9 C 153.4 0.9 153.4 8.8 153.4 8.8 C 153.4 12.4 151.5 14.8 147.7 14.8 C 144 14.8 142 12.6 142 8.8 C 141.96 8.8 142 0.9 142 0.9 L 143.5 0.9 Z M 156.3 0.9 C 156.3 0.9 159.88 0.94 159.9 0.9 C 162.6 0.9 164 2.5 164 4.6 C 164 6.3 163.1 7.5 161.5 8 C 162.3 8.4 162.7 8.8 163.9 10.5 C 163.86 10.5 166.5 14.6 166.5 14.6 L 164.7 14.6 C 164.7 14.6 162.32 10.82 162.3 10.8 C 161.1 8.8 160.2 8.4 159.1 8.4 C 159.06 8.38 157.8 8.4 157.8 8.4 L 157.8 14.6 L 156.3 14.6 L 156.3 0.9 Z M 159.2 7.1 C 161.1 7.1 162.5 6.6 162.5 4.6 C 162.5 2.9 161.4 2.3 159.7 2.3 C 159.68 2.26 157.8 2.3 157.8 2.3 L 157.8 7.1 C 157.8 7.1 159.2 7.06 159.2 7.1 Z M 165.8 0.9 L 167.3 0.9 L 171.7 11.6 L 171.8 11.6 L 176.2 0.9 L 177.7 0.9 L 171.9 14.7 L 171.6 14.7 L 165.8 0.9 Z M 186.7 0.9 L 186.7 2.3 L 180.7 2.3 L 180.7 7 L 186.5 7 L 186.5 8.4 L 180.7 8.4 L 180.7 13.2 L 186.9 13.2 L 186.9 14.6 L 179.2 14.6 L 179.2 0.9 L 186.7 0.9 Z M 190 0.9 L 194 6 L 198.1 0.9 L 199.9 0.9 L 194.8 7.3 L 194.8 14.6 L 193.3 14.6 L 193.3 7.3 L 188.2 0.9 L 190 0.9 Z M 207 0.9 C 207 0.9 210.6 0.94 210.6 0.9 C 213.3 0.9 214.8 2.5 214.8 4.6 C 214.8 6.3 213.8 7.5 212.2 8 C 213.1 8.4 213.5 8.8 214.6 10.5 C 214.58 10.5 217.2 14.6 217.2 14.6 L 215.4 14.6 C 215.4 14.6 213.04 10.82 213 10.8 C 211.8 8.8 210.9 8.4 209.8 8.4 C 209.78 8.38 208.5 8.4 208.5 8.4 L 208.5 14.6 L 207 14.6 L 207 0.9 Z M 209.9 7.1 C 211.8 7.1 213.2 6.6 213.2 4.6 C 213.2 2.9 212.1 2.3 210.4 2.3 C 210.4 2.26 208.5 2.3 208.5 2.3 L 208.5 7.1 C 208.5 7.1 209.92 7.06 209.9 7.1 Z M 226.2 0.9 L 226.2 2.3 L 220.2 2.3 L 220.2 7 L 226 7 L 226 8.4 L 220.2 8.4 L 220.2 13.2 L 226.3 13.2 L 226.3 14.6 L 218.7 14.6 L 218.7 0.9 L 226.2 0.9 Z M 235.1 1.6 C 235.1 1.6 235.1 3.3 235.1 3.3 C 234.1 2.5 233.1 2.1 232 2.1 C 230.6 2.1 229.6 2.9 229.6 4.1 C 229.6 5 229.8 5.8 232.1 6.9 C 234.9 8.4 235.6 9.4 235.6 11.2 C 235.6 13.2 234 14.8 231.7 14.8 C 230.4 14.8 229.2 14.3 228.2 13.6 C 228.2 13.6 228.2 11.7 228.2 11.7 C 229.2 12.8 230.4 13.4 231.7 13.4 C 233.1 13.4 234.1 12.6 234.1 11.2 C 234.1 10.1 233.7 9.4 231.1 8 C 228.9 6.9 228.1 5.9 228.1 4.1 C 228.1 2.2 229.8 0.8 232 0.8 C 233.1 0.8 234.2 1.1 235.1 1.6 Z M 239.3 0.9 C 239.3 0.9 239.26 8.8 239.3 8.8 C 239.3 11.8 240.7 13.4 243.5 13.4 C 246.3 13.4 247.7 11.8 247.7 8.8 C 247.7 8.8 247.7 0.9 247.7 0.9 L 249.2 0.9 C 249.2 0.9 249.2 8.8 249.2 8.8 C 249.2 12.4 247.3 14.8 243.5 14.8 C 239.8 14.8 237.8 12.6 237.8 8.8 C 237.76 8.8 237.8 0.9 237.8 0.9 L 239.3 0.9 Z M 253.6 0.9 L 253.6 13.2 L 260 13.2 L 260 14.6 L 252.1 14.6 L 252.1 0.9 L 253.6 0.9 Z M 269.5 0.9 L 269.5 2.3 L 264.6 2.3 L 264.6 14.6 L 263.1 14.6 L 263.1 2.3 L 258.3 2.3 L 258.3 0.9 L 269.5 0.9 Z M 277.7 1.6 C 277.7 1.6 277.7 3.3 277.7 3.3 C 276.7 2.5 275.7 2.1 274.6 2.1 C 273.1 2.1 272.2 2.9 272.2 4.1 C 272.2 5 272.4 5.8 274.7 6.9 C 277.5 8.4 278.2 9.4 278.2 11.2 C 278.2 13.2 276.6 14.8 274.3 14.8 C 273 14.8 271.8 14.3 270.7 13.6 C 270.7 13.6 270.7 11.7 270.7 11.7 C 271.8 12.8 273 13.4 274.3 13.4 C 275.7 13.4 276.7 12.6 276.7 11.2 C 276.7 10.1 276.3 9.4 273.6 8 C 271.5 6.9 270.7 5.9 270.7 4.1 C 270.7 2.2 272.3 0.8 274.6 0.8 C 275.7 0.8 276.7 1.1 277.7 1.6 Z " stroke="none" fill="#ffffff"/>  </g></svg>