<?xml version="1.0" standalone="no"?><!DOCTYPE svg PUBLIC "-//W3C//DTD SVG 1.1//EN" "http://www.w3.org/Graphics/SVG/1.1/DTD/svg11.dtd"><svg xmlns="http://www.w3.org/2000/svg" version="1.1" width="280.3px" height="23.9px" viewBox="0 -5 280.3 23.9" style="top:-5px">  <desc>L3 Content Creator</desc>  <defs/>  <g id="Polygon114933">    <path d="M 1.1 10.2 L 1.1 0.3 L 3.1 0.3 L 3.1 8.5 L 8.1 8.5 L 8.1 10.2 L 1.1 10.2 Z M 9.1 7.5 C 9.1 7.5 10.9 7.3 10.9 7.3 C 11 7.8 11.2 8.1 11.4 8.4 C 11.7 8.6 12 8.8 12.4 8.8 C 12.8 8.8 13.1 8.6 13.4 8.3 C 13.6 8 13.8 7.6 13.8 7.1 C 13.8 6.6 13.6 6.2 13.4 6 C 13.1 5.7 12.8 5.5 12.4 5.5 C 12.2 5.5 11.9 5.6 11.5 5.7 C 11.5 5.7 11.8 4.1 11.8 4.1 C 12.3 4.1 12.7 4 12.9 3.8 C 13.2 3.5 13.4 3.2 13.4 2.8 C 13.4 2.5 13.3 2.2 13.1 2 C 12.9 1.8 12.6 1.7 12.3 1.7 C 11.9 1.7 11.6 1.8 11.4 2.1 C 11.2 2.3 11 2.6 11 3 C 11 3 9.2 2.7 9.2 2.7 C 9.3 2.1 9.5 1.7 9.8 1.3 C 10 0.9 10.4 0.6 10.8 0.4 C 11.3 0.2 11.8 0.1 12.3 0.1 C 13.3 0.1 14 0.4 14.6 1 C 15.1 1.5 15.3 2.1 15.3 2.7 C 15.3 3.6 14.8 4.3 13.8 4.8 C 14.4 4.9 14.9 5.2 15.2 5.6 C 15.6 6.1 15.7 6.6 15.7 7.2 C 15.7 8.1 15.4 8.8 14.8 9.4 C 14.1 10.1 13.3 10.4 12.4 10.4 C 11.5 10.4 10.7 10.1 10.1 9.6 C 9.5 9.1 9.2 8.4 9.1 7.5 Z M 28.5 6.7 C 28.5 6.7 29.8 7 29.8 7 C 29.5 8.1 29 8.9 28.3 9.5 C 27.6 10.1 26.7 10.4 25.6 10.4 C 24.6 10.4 23.7 10.1 23 9.7 C 22.3 9.3 21.8 8.6 21.5 7.8 C 21.1 7 20.9 6.1 20.9 5.1 C 20.9 4.1 21.1 3.2 21.5 2.4 C 21.9 1.6 22.5 1 23.2 0.6 C 24 0.2 24.8 0 25.7 0 C 26.7 0 27.5 0.3 28.2 0.8 C 28.9 1.3 29.3 2 29.6 2.9 C 29.6 2.9 28.3 3.2 28.3 3.2 C 28.1 2.5 27.7 2 27.3 1.6 C 26.9 1.3 26.3 1.1 25.6 1.1 C 24.9 1.1 24.2 1.3 23.7 1.7 C 23.2 2.1 22.8 2.6 22.6 3.2 C 22.4 3.8 22.3 4.4 22.3 5.1 C 22.3 6 22.4 6.7 22.7 7.3 C 22.9 8 23.3 8.4 23.8 8.8 C 24.3 9.1 24.9 9.2 25.5 9.2 C 26.3 9.2 26.9 9 27.4 8.6 C 27.9 8.2 28.3 7.5 28.5 6.7 Z M 30.8 6.6 C 30.8 5.2 31.2 4.2 31.9 3.6 C 32.5 3 33.3 2.8 34.2 2.8 C 35.2 2.8 36 3.1 36.7 3.7 C 37.3 4.4 37.6 5.3 37.6 6.5 C 37.6 7.4 37.5 8.1 37.2 8.7 C 36.9 9.2 36.5 9.6 36 9.9 C 35.4 10.2 34.8 10.4 34.2 10.4 C 33.2 10.4 32.4 10 31.7 9.4 C 31.1 8.7 30.8 7.8 30.8 6.6 Z M 32.1 6.6 C 32.1 7.5 32.3 8.2 32.7 8.7 C 33.1 9.1 33.6 9.3 34.2 9.3 C 34.8 9.3 35.3 9.1 35.7 8.6 C 36.1 8.2 36.3 7.5 36.3 6.5 C 36.3 5.6 36.1 4.9 35.7 4.5 C 35.3 4 34.8 3.8 34.2 3.8 C 33.6 3.8 33.1 4 32.7 4.5 C 32.3 4.9 32.1 5.6 32.1 6.6 Z M 39 10.2 L 39 2.9 L 40.2 2.9 C 40.2 2.9 40.15 3.96 40.2 4 C 40.7 3.2 41.5 2.8 42.5 2.8 C 42.9 2.8 43.3 2.8 43.7 3 C 44 3.2 44.3 3.4 44.5 3.6 C 44.7 3.9 44.8 4.2 44.9 4.5 C 44.9 4.8 44.9 5.2 44.9 5.7 C 44.95 5.73 44.9 10.2 44.9 10.2 L 43.7 10.2 C 43.7 10.2 43.72 5.78 43.7 5.8 C 43.7 5.3 43.7 4.9 43.6 4.7 C 43.5 4.4 43.3 4.2 43.1 4.1 C 42.8 3.9 42.5 3.8 42.2 3.8 C 41.7 3.8 41.2 4 40.8 4.3 C 40.5 4.7 40.3 5.3 40.3 6.2 C 40.28 6.23 40.3 10.2 40.3 10.2 L 39 10.2 Z M 49 9.1 C 49.1 9.1 49.3 9.1 49.5 9.1 C 49.5 9.1 49.7 10.2 49.7 10.2 C 49.4 10.3 49 10.3 48.8 10.3 C 48.3 10.3 48 10.2 47.7 10.1 C 47.5 9.9 47.3 9.7 47.2 9.5 C 47.1 9.3 47.1 8.8 47.1 8.1 C 47.06 8.07 47.1 3.9 47.1 3.9 L 46.2 3.9 L 46.2 2.9 L 47.1 2.9 L 47.1 1.1 L 48.3 0.4 L 48.3 2.9 L 49.5 2.9 L 49.5 3.9 L 48.3 3.9 C 48.3 3.9 48.28 8.13 48.3 8.1 C 48.3 8.5 48.3 8.7 48.3 8.8 C 48.4 8.9 48.5 9 48.6 9.1 C 48.7 9.1 48.8 9.1 49 9.1 C 49 9.1 49 9.1 49 9.1 Z M 55.7 7.9 C 55.7 7.9 57 8 57 8 C 56.8 8.8 56.4 9.3 55.8 9.7 C 55.3 10.2 54.6 10.4 53.8 10.4 C 52.7 10.4 51.9 10 51.2 9.4 C 50.6 8.7 50.3 7.8 50.3 6.6 C 50.3 5.4 50.6 4.5 51.3 3.8 C 51.9 3.1 52.7 2.8 53.7 2.8 C 54.7 2.8 55.5 3.1 56.1 3.8 C 56.7 4.4 57 5.4 57 6.5 C 57 6.6 57 6.7 57 6.9 C 57 6.9 51.6 6.9 51.6 6.9 C 51.6 7.7 51.9 8.3 52.3 8.7 C 52.7 9.1 53.2 9.3 53.8 9.3 C 54.2 9.3 54.6 9.2 54.9 9 C 55.3 8.8 55.5 8.4 55.7 7.9 Z M 51.7 5.9 C 51.7 5.9 55.7 5.9 55.7 5.9 C 55.7 5.3 55.5 4.8 55.2 4.5 C 54.8 4 54.3 3.8 53.7 3.8 C 53.2 3.8 52.7 4 52.3 4.3 C 51.9 4.7 51.7 5.2 51.7 5.9 Z M 58.5 10.2 L 58.5 2.9 L 59.6 2.9 C 59.6 2.9 59.62 3.96 59.6 4 C 60.1 3.2 60.9 2.8 61.9 2.8 C 62.4 2.8 62.8 2.8 63.1 3 C 63.5 3.2 63.8 3.4 64 3.6 C 64.1 3.9 64.3 4.2 64.3 4.5 C 64.4 4.8 64.4 5.2 64.4 5.7 C 64.41 5.73 64.4 10.2 64.4 10.2 L 63.2 10.2 C 63.2 10.2 63.18 5.78 63.2 5.8 C 63.2 5.3 63.1 4.9 63 4.7 C 62.9 4.4 62.8 4.2 62.5 4.1 C 62.3 3.9 62 3.8 61.7 3.8 C 61.1 3.8 60.7 4 60.3 4.3 C 59.9 4.7 59.7 5.3 59.7 6.2 C 59.74 6.23 59.7 10.2 59.7 10.2 L 58.5 10.2 Z M 68.4 9.1 C 68.6 9.1 68.8 9.1 69 9.1 C 69 9.1 69.2 10.2 69.2 10.2 C 68.8 10.3 68.5 10.3 68.2 10.3 C 67.8 10.3 67.4 10.2 67.2 10.1 C 66.9 9.9 66.8 9.7 66.7 9.5 C 66.6 9.3 66.5 8.8 66.5 8.1 C 66.52 8.07 66.5 3.9 66.5 3.9 L 65.6 3.9 L 65.6 2.9 L 66.5 2.9 L 66.5 1.1 L 67.7 0.4 L 67.7 2.9 L 69 2.9 L 69 3.9 L 67.7 3.9 C 67.7 3.9 67.74 8.13 67.7 8.1 C 67.7 8.5 67.8 8.7 67.8 8.8 C 67.9 8.9 67.9 9 68 9.1 C 68.1 9.1 68.3 9.1 68.4 9.1 C 68.4 9.1 68.4 9.1 68.4 9.1 Z M 81.4 6.7 C 81.4 6.7 82.7 7 82.7 7 C 82.4 8.1 81.9 8.9 81.2 9.5 C 80.5 10.1 79.6 10.4 78.6 10.4 C 77.5 10.4 76.6 10.1 75.9 9.7 C 75.2 9.3 74.7 8.6 74.4 7.8 C 74 7 73.8 6.1 73.8 5.1 C 73.8 4.1 74 3.2 74.4 2.4 C 74.8 1.6 75.4 1 76.1 0.6 C 76.9 0.2 77.7 0 78.6 0 C 79.6 0 80.4 0.3 81.1 0.8 C 81.8 1.3 82.3 2 82.5 2.9 C 82.5 2.9 81.2 3.2 81.2 3.2 C 81 2.5 80.7 2 80.2 1.6 C 79.8 1.3 79.2 1.1 78.6 1.1 C 77.8 1.1 77.1 1.3 76.6 1.7 C 76.1 2.1 75.7 2.6 75.5 3.2 C 75.3 3.8 75.2 4.4 75.2 5.1 C 75.2 6 75.3 6.7 75.6 7.3 C 75.8 8 76.2 8.4 76.7 8.8 C 77.3 9.1 77.8 9.2 78.4 9.2 C 79.2 9.2 79.8 9 80.3 8.6 C 80.9 8.2 81.2 7.5 81.4 6.7 Z M 84.2 10.2 L 84.2 2.9 L 85.3 2.9 C 85.3 2.9 85.28 4.03 85.3 4 C 85.6 3.5 85.8 3.2 86.1 3 C 86.3 2.9 86.6 2.8 86.9 2.8 C 87.3 2.8 87.7 2.9 88.1 3.2 C 88.1 3.2 87.7 4.3 87.7 4.3 C 87.4 4.1 87.1 4 86.8 4 C 86.5 4 86.3 4.1 86.1 4.3 C 85.9 4.4 85.7 4.7 85.6 5 C 85.5 5.4 85.4 5.9 85.4 6.4 C 85.4 6.39 85.4 10.2 85.4 10.2 L 84.2 10.2 Z M 93.8 7.9 C 93.8 7.9 95.1 8 95.1 8 C 94.9 8.8 94.5 9.3 94 9.7 C 93.4 10.2 92.7 10.4 91.9 10.4 C 90.8 10.4 90 10 89.4 9.4 C 88.7 8.7 88.4 7.8 88.4 6.6 C 88.4 5.4 88.8 4.5 89.4 3.8 C 90 3.1 90.8 2.8 91.8 2.8 C 92.8 2.8 93.6 3.1 94.2 3.8 C 94.8 4.4 95.1 5.4 95.1 6.5 C 95.1 6.6 95.1 6.7 95.1 6.9 C 95.1 6.9 89.7 6.9 89.7 6.9 C 89.8 7.7 90 8.3 90.4 8.7 C 90.8 9.1 91.3 9.3 91.9 9.3 C 92.4 9.3 92.7 9.2 93.1 9 C 93.4 8.8 93.6 8.4 93.8 7.9 Z M 89.8 5.9 C 89.8 5.9 93.8 5.9 93.8 5.9 C 93.8 5.3 93.6 4.8 93.4 4.5 C 93 4 92.5 3.8 91.8 3.8 C 91.3 3.8 90.8 4 90.4 4.3 C 90 4.7 89.8 5.2 89.8 5.9 Z M 101.6 10.2 C 101.5 9.9 101.4 9.6 101.4 9.3 C 100.9 9.7 100.5 10 100.1 10.1 C 99.6 10.3 99.2 10.4 98.7 10.4 C 97.9 10.4 97.3 10.2 96.9 9.8 C 96.4 9.4 96.2 8.9 96.2 8.3 C 96.2 7.9 96.3 7.6 96.5 7.3 C 96.6 7 96.8 6.8 97.1 6.6 C 97.4 6.4 97.7 6.3 98 6.2 C 98.2 6.1 98.6 6.1 99.1 6 C 100.1 5.9 100.8 5.7 101.3 5.6 C 101.3 5.4 101.3 5.3 101.3 5.3 C 101.3 4.8 101.2 4.4 100.9 4.2 C 100.6 3.9 100.1 3.8 99.5 3.8 C 98.9 3.8 98.5 3.9 98.2 4.1 C 98 4.3 97.8 4.7 97.6 5.2 C 97.6 5.2 96.4 5 96.4 5 C 96.5 4.5 96.7 4.1 97 3.8 C 97.2 3.4 97.6 3.2 98.1 3 C 98.5 2.9 99.1 2.8 99.7 2.8 C 100.3 2.8 100.8 2.8 101.2 3 C 101.6 3.1 101.9 3.3 102.1 3.5 C 102.2 3.8 102.4 4 102.5 4.4 C 102.5 4.6 102.5 5 102.5 5.5 C 102.5 5.5 102.5 7.2 102.5 7.2 C 102.5 8.3 102.5 9 102.6 9.3 C 102.6 9.6 102.7 9.9 102.9 10.2 C 102.9 10.19 101.6 10.2 101.6 10.2 C 101.6 10.2 101.62 10.19 101.6 10.2 Z M 101.3 6.5 C 100.8 6.7 100.2 6.9 99.3 7 C 98.8 7.1 98.4 7.2 98.2 7.3 C 98 7.4 97.8 7.5 97.7 7.7 C 97.6 7.8 97.5 8 97.5 8.2 C 97.5 8.6 97.7 8.8 97.9 9.1 C 98.1 9.3 98.5 9.4 99 9.4 C 99.5 9.4 99.9 9.3 100.3 9.1 C 100.6 8.9 100.9 8.6 101.1 8.2 C 101.2 8 101.3 7.5 101.3 7 C 101.3 7 101.3 6.5 101.3 6.5 Z M 106.6 9.1 C 106.7 9.1 106.9 9.1 107.1 9.1 C 107.1 9.1 107.3 10.2 107.3 10.2 C 106.9 10.3 106.6 10.3 106.4 10.3 C 105.9 10.3 105.6 10.2 105.3 10.1 C 105.1 9.9 104.9 9.7 104.8 9.5 C 104.7 9.3 104.6 8.8 104.6 8.1 C 104.64 8.07 104.6 3.9 104.6 3.9 L 103.7 3.9 L 103.7 2.9 L 104.6 2.9 L 104.6 1.1 L 105.9 0.4 L 105.9 2.9 L 107.1 2.9 L 107.1 3.9 L 105.9 3.9 C 105.9 3.9 105.87 8.13 105.9 8.1 C 105.9 8.5 105.9 8.7 105.9 8.8 C 106 8.9 106 9 106.1 9.1 C 106.2 9.1 106.4 9.1 106.6 9.1 C 106.6 9.1 106.6 9.1 106.6 9.1 Z M 107.9 6.6 C 107.9 5.2 108.2 4.2 109 3.6 C 109.6 3 110.4 2.8 111.3 2.8 C 112.3 2.8 113.1 3.1 113.7 3.7 C 114.3 4.4 114.7 5.3 114.7 6.5 C 114.7 7.4 114.5 8.1 114.2 8.7 C 114 9.2 113.5 9.6 113 9.9 C 112.5 10.2 111.9 10.4 111.3 10.4 C 110.2 10.4 109.4 10 108.8 9.4 C 108.2 8.7 107.9 7.8 107.9 6.6 Z M 109.1 6.6 C 109.1 7.5 109.3 8.2 109.7 8.7 C 110.1 9.1 110.6 9.3 111.3 9.3 C 111.9 9.3 112.4 9.1 112.8 8.6 C 113.2 8.2 113.4 7.5 113.4 6.5 C 113.4 5.6 113.2 4.9 112.8 4.5 C 112.4 4 111.9 3.8 111.3 3.8 C 110.6 3.8 110.1 4 109.7 4.5 C 109.3 4.9 109.1 5.6 109.1 6.6 Z M 116.1 10.2 L 116.1 2.9 L 117.2 2.9 C 117.2 2.9 117.19 4.03 117.2 4 C 117.5 3.5 117.7 3.2 118 3 C 118.2 2.9 118.5 2.8 118.8 2.8 C 119.2 2.8 119.6 2.9 120 3.2 C 120 3.2 119.6 4.3 119.6 4.3 C 119.3 4.1 119 4 118.7 4 C 118.4 4 118.2 4.1 118 4.3 C 117.8 4.4 117.6 4.7 117.5 5 C 117.4 5.4 117.3 5.9 117.3 6.4 C 117.31 6.39 117.3 10.2 117.3 10.2 L 116.1 10.2 Z " stroke="none" fill="#000000"/>  </g></svg>