<?xml version="1.0" standalone="no"?><!DOCTYPE svg PUBLIC "-//W3C//DTD SVG 1.1//EN" "http://www.w3.org/Graphics/SVG/1.1/DTD/svg11.dtd"><svg xmlns="http://www.w3.org/2000/svg" version="1.1" width="267px" height="40.9px" viewBox="0 -5 267 40.9" style="top:-5px">  <desc>L3 Business Administrator L5 Improvement Specialist</desc>  <defs/>  <g id="Polygon122617">    <path d="M 1.1 27 L 1.1 17.1 L 3.1 17.1 L 3.1 25.3 L 8.1 25.3 L 8.1 27 L 1.1 27 Z M 9.2 24.4 C 9.2 24.4 11.1 24.2 11.1 24.2 C 11.1 24.7 11.3 25 11.6 25.2 C 11.8 25.5 12.2 25.6 12.5 25.6 C 12.9 25.6 13.2 25.5 13.5 25.1 C 13.8 24.8 13.9 24.3 13.9 23.7 C 13.9 23 13.8 22.6 13.5 22.3 C 13.2 22 12.9 21.8 12.4 21.8 C 11.9 21.8 11.4 22.1 11 22.5 C 10.96 22.55 9.4 22.3 9.4 22.3 L 10.4 17.1 L 15.5 17.1 L 15.5 18.9 L 11.8 18.9 C 11.8 18.9 11.55 20.61 11.5 20.6 C 12 20.4 12.4 20.3 12.9 20.3 C 13.7 20.3 14.4 20.6 15 21.2 C 15.6 21.8 15.9 22.6 15.9 23.6 C 15.9 24.5 15.7 25.2 15.2 25.8 C 14.5 26.7 13.6 27.2 12.5 27.2 C 11.6 27.2 10.8 26.9 10.2 26.4 C 9.6 25.9 9.3 25.3 9.2 24.4 Z M 21.5 27 L 21.5 17 L 22.9 17 L 22.9 27 L 21.5 27 Z M 25 27 L 25 19.7 L 26.1 19.7 C 26.1 19.7 26.14 20.75 26.1 20.8 C 26.4 20.4 26.7 20.1 27 19.9 C 27.4 19.7 27.9 19.6 28.3 19.6 C 28.9 19.6 29.3 19.7 29.7 19.9 C 30 20.1 30.3 20.4 30.4 20.8 C 31 20 31.7 19.6 32.6 19.6 C 33.4 19.6 33.9 19.8 34.3 20.2 C 34.7 20.6 34.9 21.2 34.9 22 C 34.88 22.01 34.9 27 34.9 27 L 33.7 27 C 33.7 27 33.65 22.42 33.7 22.4 C 33.7 21.9 33.6 21.6 33.5 21.4 C 33.5 21.1 33.3 21 33.1 20.8 C 32.9 20.7 32.6 20.6 32.4 20.6 C 31.9 20.6 31.4 20.8 31.1 21.1 C 30.8 21.5 30.6 22 30.6 22.8 C 30.58 22.77 30.6 27 30.6 27 L 29.4 27 C 29.4 27 29.35 22.28 29.4 22.3 C 29.4 21.7 29.3 21.3 29.1 21 C 28.9 20.8 28.5 20.6 28.1 20.6 C 27.7 20.6 27.4 20.7 27.1 20.9 C 26.8 21.1 26.6 21.4 26.5 21.7 C 26.3 22.1 26.3 22.6 26.3 23.2 C 26.27 23.23 26.3 27 26.3 27 L 25 27 Z M 36.7 29.8 L 36.7 19.7 L 37.8 19.7 C 37.8 19.7 37.82 20.68 37.8 20.7 C 38.1 20.3 38.4 20 38.7 19.8 C 39.1 19.7 39.5 19.6 39.9 19.6 C 40.5 19.6 41.1 19.7 41.6 20 C 42 20.4 42.4 20.8 42.6 21.4 C 42.9 22 43 22.6 43 23.3 C 43 24.1 42.9 24.7 42.6 25.3 C 42.3 25.9 42 26.4 41.4 26.7 C 40.9 27 40.4 27.2 39.8 27.2 C 39.4 27.2 39.1 27.1 38.7 26.9 C 38.4 26.7 38.1 26.5 37.9 26.2 C 37.93 26.24 37.9 29.8 37.9 29.8 L 36.7 29.8 Z M 37.8 23.4 C 37.8 24.3 38 25 38.4 25.5 C 38.8 25.9 39.2 26.1 39.8 26.1 C 40.3 26.1 40.8 25.9 41.2 25.5 C 41.6 25 41.7 24.3 41.7 23.3 C 41.7 22.4 41.6 21.7 41.2 21.2 C 40.8 20.8 40.3 20.5 39.8 20.5 C 39.3 20.5 38.8 20.8 38.4 21.3 C 38 21.8 37.8 22.5 37.8 23.4 Z M 44.5 27 L 44.5 19.7 L 45.6 19.7 C 45.6 19.7 45.58 20.83 45.6 20.8 C 45.9 20.3 46.1 20 46.4 19.8 C 46.6 19.7 46.9 19.6 47.2 19.6 C 47.6 19.6 48 19.7 48.4 20 C 48.4 20 48 21.1 48 21.1 C 47.7 20.9 47.4 20.8 47.1 20.8 C 46.8 20.8 46.6 20.9 46.4 21.1 C 46.2 21.2 46 21.5 45.9 21.8 C 45.8 22.2 45.7 22.7 45.7 23.2 C 45.71 23.19 45.7 27 45.7 27 L 44.5 27 Z M 48.7 23.4 C 48.7 22 49.1 21 49.8 20.4 C 50.4 19.8 51.2 19.6 52.1 19.6 C 53.1 19.6 53.9 19.9 54.5 20.5 C 55.2 21.2 55.5 22.1 55.5 23.3 C 55.5 24.2 55.4 24.9 55.1 25.5 C 54.8 26 54.4 26.4 53.9 26.7 C 53.3 27 52.7 27.2 52.1 27.2 C 51.1 27.2 50.3 26.8 49.6 26.2 C 49 25.5 48.7 24.6 48.7 23.4 Z M 50 23.4 C 50 24.3 50.2 25 50.6 25.5 C 51 25.9 51.5 26.1 52.1 26.1 C 52.7 26.1 53.2 25.9 53.6 25.4 C 54 25 54.2 24.3 54.2 23.3 C 54.2 22.4 54 21.7 53.6 21.3 C 53.2 20.8 52.7 20.6 52.1 20.6 C 51.5 20.6 51 20.8 50.6 21.3 C 50.2 21.7 50 22.4 50 23.4 Z M 59 27 L 56.2 19.7 L 57.5 19.7 C 57.5 19.7 59.05 24.08 59 24.1 C 59.2 24.5 59.4 25 59.5 25.5 C 59.6 25.2 59.8 24.7 60 24.2 C 59.97 24.16 61.6 19.7 61.6 19.7 L 62.8 19.7 L 60.1 27 L 59 27 Z M 68.9 24.7 C 68.9 24.7 70.2 24.8 70.2 24.8 C 70 25.6 69.6 26.1 69.1 26.5 C 68.5 27 67.8 27.2 67 27.2 C 65.9 27.2 65.1 26.8 64.5 26.2 C 63.8 25.5 63.5 24.6 63.5 23.4 C 63.5 22.2 63.8 21.3 64.5 20.6 C 65.1 19.9 65.9 19.6 66.9 19.6 C 67.9 19.6 68.7 19.9 69.3 20.6 C 69.9 21.2 70.2 22.2 70.2 23.3 C 70.2 23.4 70.2 23.5 70.2 23.7 C 70.2 23.7 64.8 23.7 64.8 23.7 C 64.8 24.5 65.1 25.1 65.5 25.5 C 65.9 25.9 66.4 26.1 67 26.1 C 67.4 26.1 67.8 26 68.1 25.8 C 68.5 25.6 68.7 25.2 68.9 24.7 Z M 64.9 22.7 C 64.9 22.7 68.9 22.7 68.9 22.7 C 68.9 22.1 68.7 21.6 68.5 21.3 C 68.1 20.8 67.6 20.6 66.9 20.6 C 66.4 20.6 65.9 20.8 65.5 21.1 C 65.1 21.5 64.9 22 64.9 22.7 Z M 71.7 27 L 71.7 19.7 L 72.8 19.7 C 72.8 19.7 72.82 20.75 72.8 20.8 C 73.1 20.4 73.4 20.1 73.7 19.9 C 74.1 19.7 74.5 19.6 75 19.6 C 75.6 19.6 76 19.7 76.3 19.9 C 76.7 20.1 76.9 20.4 77.1 20.8 C 77.6 20 78.4 19.6 79.3 19.6 C 80 19.6 80.6 19.8 81 20.2 C 81.4 20.6 81.6 21.2 81.6 22 C 81.56 22.01 81.6 27 81.6 27 L 80.3 27 C 80.3 27 80.34 22.42 80.3 22.4 C 80.3 21.9 80.3 21.6 80.2 21.4 C 80.1 21.1 80 21 79.8 20.8 C 79.6 20.7 79.3 20.6 79 20.6 C 78.5 20.6 78.1 20.8 77.8 21.1 C 77.4 21.5 77.3 22 77.3 22.8 C 77.27 22.77 77.3 27 77.3 27 L 76 27 C 76 27 76.04 22.28 76 22.3 C 76 21.7 75.9 21.3 75.7 21 C 75.5 20.8 75.2 20.6 74.8 20.6 C 74.4 20.6 74.1 20.7 73.8 20.9 C 73.5 21.1 73.3 21.4 73.2 21.7 C 73 22.1 73 22.6 73 23.2 C 72.95 23.23 73 27 73 27 L 71.7 27 Z M 88.4 24.7 C 88.4 24.7 89.6 24.8 89.6 24.8 C 89.4 25.6 89.1 26.1 88.5 26.5 C 88 27 87.3 27.2 86.4 27.2 C 85.4 27.2 84.5 26.8 83.9 26.2 C 83.3 25.5 83 24.6 83 23.4 C 83 22.2 83.3 21.3 83.9 20.6 C 84.5 19.9 85.4 19.6 86.4 19.6 C 87.3 19.6 88.1 19.9 88.7 20.6 C 89.4 21.2 89.7 22.2 89.7 23.3 C 89.7 23.4 89.7 23.5 89.7 23.7 C 89.7 23.7 84.2 23.7 84.2 23.7 C 84.3 24.5 84.5 25.1 84.9 25.5 C 85.3 25.9 85.8 26.1 86.4 26.1 C 86.9 26.1 87.3 26 87.6 25.8 C 87.9 25.6 88.2 25.2 88.4 24.7 Z M 84.3 22.7 C 84.3 22.7 88.4 22.7 88.4 22.7 C 88.3 22.1 88.2 21.6 87.9 21.3 C 87.5 20.8 87 20.6 86.4 20.6 C 85.8 20.6 85.3 20.8 85 21.1 C 84.6 21.5 84.4 22 84.3 22.7 Z M 91.2 27 L 91.2 19.7 L 92.3 19.7 C 92.3 19.7 92.28 20.76 92.3 20.8 C 92.8 20 93.6 19.6 94.6 19.6 C 95 19.6 95.4 19.6 95.8 19.8 C 96.2 20 96.4 20.2 96.6 20.4 C 96.8 20.7 96.9 21 97 21.3 C 97 21.6 97.1 22 97.1 22.5 C 97.07 22.53 97.1 27 97.1 27 L 95.8 27 C 95.8 27 95.84 22.58 95.8 22.6 C 95.8 22.1 95.8 21.7 95.7 21.5 C 95.6 21.2 95.4 21 95.2 20.9 C 94.9 20.7 94.7 20.6 94.3 20.6 C 93.8 20.6 93.4 20.8 93 21.1 C 92.6 21.5 92.4 22.1 92.4 23 C 92.4 23.03 92.4 27 92.4 27 L 91.2 27 Z M 101.1 25.9 C 101.2 25.9 101.4 25.9 101.6 25.9 C 101.6 25.9 101.8 27 101.8 27 C 101.5 27.1 101.2 27.1 100.9 27.1 C 100.4 27.1 100.1 27 99.9 26.9 C 99.6 26.7 99.4 26.5 99.3 26.3 C 99.2 26.1 99.2 25.6 99.2 24.9 C 99.18 24.87 99.2 20.7 99.2 20.7 L 98.3 20.7 L 98.3 19.7 L 99.2 19.7 L 99.2 17.9 L 100.4 17.2 L 100.4 19.7 L 101.6 19.7 L 101.6 20.7 L 100.4 20.7 C 100.4 20.7 100.41 24.93 100.4 24.9 C 100.4 25.3 100.4 25.5 100.5 25.6 C 100.5 25.7 100.6 25.8 100.7 25.9 C 100.8 25.9 100.9 25.9 101.1 25.9 C 101.1 25.9 101.1 25.9 101.1 25.9 Z M 106.4 23.8 C 106.4 23.8 107.7 23.7 107.7 23.7 C 107.8 24.2 107.9 24.6 108.1 24.9 C 108.3 25.2 108.7 25.5 109.1 25.7 C 109.6 25.9 110.1 26 110.7 26 C 111.2 26 111.6 25.9 112 25.7 C 112.4 25.6 112.7 25.4 112.9 25.1 C 113 24.9 113.1 24.6 113.1 24.3 C 113.1 24 113.1 23.7 112.9 23.4 C 112.7 23.2 112.4 23 112 22.9 C 111.7 22.8 111.1 22.6 110.2 22.4 C 109.3 22.1 108.6 21.9 108.2 21.7 C 107.8 21.5 107.4 21.2 107.2 20.8 C 106.9 20.4 106.8 20 106.8 19.6 C 106.8 19.1 107 18.6 107.3 18.1 C 107.5 17.7 108 17.4 108.5 17.1 C 109.1 16.9 109.7 16.8 110.4 16.8 C 111.1 16.8 111.8 16.9 112.3 17.2 C 112.9 17.4 113.3 17.8 113.6 18.2 C 113.9 18.7 114.1 19.2 114.1 19.8 C 114.1 19.8 112.8 19.9 112.8 19.9 C 112.8 19.3 112.5 18.8 112.2 18.5 C 111.8 18.1 111.2 18 110.4 18 C 109.6 18 109 18.1 108.7 18.4 C 108.3 18.7 108.1 19.1 108.1 19.5 C 108.1 19.8 108.2 20.1 108.5 20.4 C 108.7 20.6 109.4 20.8 110.5 21.1 C 111.6 21.3 112.3 21.5 112.7 21.7 C 113.3 22 113.7 22.3 114 22.7 C 114.3 23.1 114.4 23.6 114.4 24.2 C 114.4 24.7 114.3 25.2 114 25.7 C 113.7 26.1 113.2 26.5 112.6 26.8 C 112.1 27 111.4 27.2 110.7 27.2 C 109.8 27.2 109 27 108.4 26.8 C 107.8 26.5 107.3 26.1 107 25.6 C 106.6 25 106.5 24.4 106.4 23.8 Z M 116.1 29.8 L 116.1 19.7 L 117.2 19.7 C 117.2 19.7 117.2 20.68 117.2 20.7 C 117.5 20.3 117.8 20 118.1 19.8 C 118.4 19.7 118.8 19.6 119.3 19.6 C 119.9 19.6 120.5 19.7 120.9 20 C 121.4 20.4 121.8 20.8 122 21.4 C 122.3 22 122.4 22.6 122.4 23.3 C 122.4 24.1 122.2 24.7 122 25.3 C 121.7 25.9 121.3 26.4 120.8 26.7 C 120.3 27 119.8 27.2 119.2 27.2 C 118.8 27.2 118.4 27.1 118.1 26.9 C 117.8 26.7 117.5 26.5 117.3 26.2 C 117.3 26.24 117.3 29.8 117.3 29.8 L 116.1 29.8 Z M 117.2 23.4 C 117.2 24.3 117.4 25 117.8 25.5 C 118.1 25.9 118.6 26.1 119.1 26.1 C 119.7 26.1 120.1 25.9 120.5 25.5 C 120.9 25 121.1 24.3 121.1 23.3 C 121.1 22.4 120.9 21.7 120.5 21.2 C 120.2 20.8 119.7 20.5 119.2 20.5 C 118.7 20.5 118.2 20.8 117.8 21.3 C 117.4 21.8 117.2 22.5 117.2 23.4 Z M 128.8 24.7 C 128.8 24.7 130.1 24.8 130.1 24.8 C 129.9 25.6 129.5 26.1 129 26.5 C 128.4 27 127.8 27.2 126.9 27.2 C 125.8 27.2 125 26.8 124.4 26.2 C 123.8 25.5 123.5 24.6 123.5 23.4 C 123.5 22.2 123.8 21.3 124.4 20.6 C 125 19.9 125.8 19.6 126.8 19.6 C 127.8 19.6 128.6 19.9 129.2 20.6 C 129.8 21.2 130.1 22.2 130.1 23.3 C 130.1 23.4 130.1 23.5 130.1 23.7 C 130.1 23.7 124.7 23.7 124.7 23.7 C 124.8 24.5 125 25.1 125.4 25.5 C 125.8 25.9 126.3 26.1 126.9 26.1 C 127.4 26.1 127.8 26 128.1 25.8 C 128.4 25.6 128.6 25.2 128.8 24.7 Z M 124.8 22.7 C 124.8 22.7 128.8 22.7 128.8 22.7 C 128.8 22.1 128.6 21.6 128.4 21.3 C 128 20.8 127.5 20.6 126.9 20.6 C 126.3 20.6 125.8 20.8 125.4 21.1 C 125 21.5 124.8 22 124.8 22.7 Z M 136.4 24.3 C 136.4 24.3 137.6 24.5 137.6 24.5 C 137.5 25.3 137.1 26 136.6 26.4 C 136 26.9 135.4 27.2 134.6 27.2 C 133.6 27.2 132.8 26.8 132.2 26.2 C 131.6 25.5 131.3 24.6 131.3 23.4 C 131.3 22.6 131.4 21.9 131.7 21.3 C 131.9 20.7 132.3 20.3 132.8 20 C 133.4 19.7 134 19.6 134.6 19.6 C 135.4 19.6 136 19.8 136.5 20.2 C 137 20.6 137.3 21.1 137.5 21.9 C 137.5 21.9 136.3 22 136.3 22 C 136.2 21.6 136 21.2 135.7 20.9 C 135.4 20.7 135 20.6 134.6 20.6 C 134 20.6 133.5 20.8 133.1 21.2 C 132.7 21.7 132.5 22.4 132.5 23.4 C 132.5 24.3 132.7 25 133.1 25.5 C 133.5 25.9 134 26.1 134.6 26.1 C 135 26.1 135.4 26 135.8 25.7 C 136.1 25.4 136.3 24.9 136.4 24.3 Z M 138.7 18.4 L 138.7 17 L 139.9 17 L 139.9 18.4 L 138.7 18.4 Z M 138.7 27 L 138.7 19.7 L 139.9 19.7 L 139.9 27 L 138.7 27 Z M 146.7 27 C 146.6 26.7 146.5 26.4 146.5 26.1 C 146 26.5 145.6 26.8 145.2 26.9 C 144.8 27.1 144.3 27.2 143.8 27.2 C 143 27.2 142.4 27 142 26.6 C 141.6 26.2 141.3 25.7 141.3 25.1 C 141.3 24.7 141.4 24.4 141.6 24.1 C 141.7 23.8 142 23.6 142.2 23.4 C 142.5 23.2 142.8 23.1 143.1 23 C 143.3 22.9 143.7 22.9 144.2 22.8 C 145.2 22.7 145.9 22.5 146.4 22.4 C 146.4 22.2 146.4 22.1 146.4 22.1 C 146.4 21.6 146.3 21.2 146 21 C 145.7 20.7 145.3 20.6 144.6 20.6 C 144.1 20.6 143.6 20.7 143.4 20.9 C 143.1 21.1 142.9 21.5 142.8 22 C 142.8 22 141.6 21.8 141.6 21.8 C 141.7 21.3 141.8 20.9 142.1 20.6 C 142.3 20.2 142.7 20 143.2 19.8 C 143.7 19.7 144.2 19.6 144.8 19.6 C 145.4 19.6 145.9 19.6 146.3 19.8 C 146.7 19.9 147 20.1 147.2 20.3 C 147.4 20.6 147.5 20.8 147.6 21.2 C 147.6 21.4 147.6 21.8 147.6 22.3 C 147.6 22.3 147.6 24 147.6 24 C 147.6 25.1 147.7 25.8 147.7 26.1 C 147.8 26.4 147.9 26.7 148 27 C 148.03 26.99 146.7 27 146.7 27 C 146.7 27 146.74 26.99 146.7 27 Z M 146.4 23.3 C 145.9 23.5 145.3 23.7 144.4 23.8 C 143.9 23.9 143.5 24 143.3 24.1 C 143.1 24.2 142.9 24.3 142.8 24.5 C 142.7 24.6 142.7 24.8 142.7 25 C 142.7 25.4 142.8 25.6 143 25.9 C 143.3 26.1 143.6 26.2 144.1 26.2 C 144.6 26.2 145 26.1 145.4 25.9 C 145.7 25.7 146 25.4 146.2 25 C 146.3 24.8 146.4 24.3 146.4 23.8 C 146.4 23.8 146.4 23.3 146.4 23.3 Z M 149.5 27 L 149.5 17 L 150.7 17 L 150.7 27 L 149.5 27 Z M 152.7 18.4 L 152.7 17 L 153.9 17 L 153.9 18.4 L 152.7 18.4 Z M 152.7 27 L 152.7 19.7 L 153.9 19.7 L 153.9 27 L 152.7 27 Z M 155.3 24.8 C 155.3 24.8 156.5 24.6 156.5 24.6 C 156.6 25.1 156.7 25.5 157.1 25.8 C 157.4 26 157.8 26.1 158.4 26.1 C 158.9 26.1 159.4 26 159.6 25.8 C 159.9 25.6 160 25.3 160 25 C 160 24.7 159.9 24.5 159.7 24.3 C 159.5 24.2 159.1 24.1 158.4 23.9 C 157.5 23.7 156.9 23.5 156.5 23.3 C 156.2 23.2 155.9 22.9 155.7 22.6 C 155.6 22.3 155.5 22 155.5 21.7 C 155.5 21.3 155.6 21 155.7 20.8 C 155.8 20.5 156 20.3 156.3 20.1 C 156.5 19.9 156.8 19.8 157.1 19.7 C 157.4 19.6 157.8 19.6 158.1 19.6 C 158.7 19.6 159.2 19.7 159.6 19.8 C 160.1 20 160.4 20.2 160.6 20.5 C 160.8 20.8 160.9 21.1 161 21.6 C 161 21.6 159.8 21.8 159.8 21.8 C 159.8 21.4 159.6 21.1 159.3 20.9 C 159.1 20.7 158.7 20.6 158.2 20.6 C 157.7 20.6 157.3 20.7 157 20.9 C 156.8 21 156.7 21.3 156.7 21.5 C 156.7 21.7 156.7 21.8 156.8 21.9 C 156.9 22.1 157.1 22.2 157.3 22.3 C 157.4 22.3 157.8 22.4 158.4 22.6 C 159.2 22.8 159.9 23 160.2 23.2 C 160.5 23.3 160.8 23.5 161 23.8 C 161.2 24.1 161.3 24.4 161.3 24.9 C 161.3 25.3 161.2 25.7 160.9 26 C 160.7 26.4 160.4 26.7 159.9 26.9 C 159.5 27.1 158.9 27.2 158.4 27.2 C 157.4 27.2 156.7 27 156.2 26.6 C 155.7 26.2 155.4 25.6 155.3 24.8 Z M 164.9 25.9 C 165 25.9 165.2 25.9 165.5 25.9 C 165.5 25.9 165.6 27 165.6 27 C 165.3 27.1 165 27.1 164.7 27.1 C 164.3 27.1 163.9 27 163.7 26.9 C 163.4 26.7 163.2 26.5 163.1 26.3 C 163 26.1 163 25.6 163 24.9 C 162.99 24.87 163 20.7 163 20.7 L 162.1 20.7 L 162.1 19.7 L 163 19.7 L 163 17.9 L 164.2 17.2 L 164.2 19.7 L 165.5 19.7 L 165.5 20.7 L 164.2 20.7 C 164.2 20.7 164.21 24.93 164.2 24.9 C 164.2 25.3 164.2 25.5 164.3 25.6 C 164.3 25.7 164.4 25.8 164.5 25.9 C 164.6 25.9 164.7 25.9 164.9 25.9 C 164.9 25.9 164.9 25.9 164.9 25.9 Z " stroke="none" fill="#010102"/>  </g>  <g id="Polygon122616">    <path d="M 1.1 10.2 L 1.1 0.3 L 3.1 0.3 L 3.1 8.5 L 8.1 8.5 L 8.1 10.2 L 1.1 10.2 Z M 9.1 7.5 C 9.1 7.5 10.9 7.3 10.9 7.3 C 11 7.8 11.2 8.1 11.4 8.4 C 11.7 8.6 12 8.8 12.4 8.8 C 12.8 8.8 13.1 8.6 13.4 8.3 C 13.6 8 13.8 7.6 13.8 7.1 C 13.8 6.6 13.6 6.2 13.4 6 C 13.1 5.7 12.8 5.5 12.4 5.5 C 12.2 5.5 11.9 5.6 11.5 5.7 C 11.5 5.7 11.8 4.1 11.8 4.1 C 12.3 4.1 12.7 4 12.9 3.8 C 13.2 3.5 13.4 3.2 13.4 2.8 C 13.4 2.5 13.3 2.2 13.1 2 C 12.9 1.8 12.6 1.7 12.3 1.7 C 11.9 1.7 11.6 1.8 11.4 2.1 C 11.2 2.3 11 2.6 11 3 C 11 3 9.2 2.7 9.2 2.7 C 9.3 2.1 9.5 1.7 9.8 1.3 C 10 0.9 10.4 0.6 10.8 0.4 C 11.3 0.2 11.8 0.1 12.3 0.1 C 13.3 0.1 14 0.4 14.6 1 C 15.1 1.5 15.3 2.1 15.3 2.7 C 15.3 3.6 14.8 4.3 13.8 4.8 C 14.4 4.9 14.9 5.2 15.2 5.6 C 15.6 6.1 15.7 6.6 15.7 7.2 C 15.7 8.1 15.4 8.8 14.8 9.4 C 14.1 10.1 13.3 10.4 12.4 10.4 C 11.5 10.4 10.7 10.1 10.1 9.6 C 9.5 9.1 9.2 8.4 9.1 7.5 Z M 21.3 10.2 L 21.3 0.2 C 21.3 0.2 25.01 0.17 25 0.2 C 25.8 0.2 26.4 0.3 26.9 0.5 C 27.3 0.7 27.7 1 27.9 1.4 C 28.2 1.8 28.3 2.3 28.3 2.7 C 28.3 3.2 28.2 3.6 28 3.9 C 27.8 4.3 27.4 4.6 26.9 4.9 C 27.5 5 28 5.3 28.3 5.8 C 28.7 6.2 28.8 6.7 28.8 7.3 C 28.8 7.8 28.7 8.2 28.5 8.6 C 28.3 9 28.1 9.3 27.8 9.5 C 27.5 9.7 27.1 9.9 26.7 10 C 26.3 10.1 25.7 10.2 25.1 10.2 C 25.07 10.19 21.3 10.2 21.3 10.2 Z M 22.6 4.4 C 22.6 4.4 24.75 4.38 24.7 4.4 C 25.3 4.4 25.8 4.3 26 4.3 C 26.3 4.2 26.6 4 26.8 3.8 C 26.9 3.5 27 3.2 27 2.9 C 27 2.6 26.9 2.3 26.8 2 C 26.6 1.8 26.4 1.6 26.1 1.5 C 25.8 1.4 25.3 1.4 24.6 1.4 C 24.58 1.35 22.6 1.4 22.6 1.4 L 22.6 4.4 Z M 22.6 9 C 22.6 9 25.07 9.01 25.1 9 C 25.5 9 25.8 9 26 9 C 26.3 8.9 26.5 8.8 26.7 8.7 C 26.9 8.6 27.1 8.4 27.2 8.1 C 27.4 7.9 27.4 7.6 27.4 7.3 C 27.4 6.9 27.4 6.6 27.2 6.3 C 27 6 26.7 5.8 26.4 5.7 C 26 5.6 25.5 5.6 24.9 5.6 C 24.9 5.56 22.6 5.6 22.6 5.6 L 22.6 9 Z M 35.2 10.2 C 35.2 10.2 35.25 9.13 35.2 9.1 C 34.7 9.9 33.9 10.4 32.9 10.4 C 32.5 10.4 32.1 10.3 31.7 10.1 C 31.4 9.9 31.1 9.7 30.9 9.5 C 30.7 9.2 30.6 8.9 30.5 8.6 C 30.5 8.3 30.5 8 30.5 7.4 C 30.46 7.43 30.5 2.9 30.5 2.9 L 31.7 2.9 C 31.7 2.9 31.69 6.96 31.7 7 C 31.7 7.6 31.7 8 31.8 8.3 C 31.8 8.6 32 8.8 32.3 9 C 32.5 9.2 32.8 9.3 33.2 9.3 C 33.6 9.3 33.9 9.2 34.2 9 C 34.6 8.8 34.8 8.6 34.9 8.2 C 35 7.9 35.1 7.4 35.1 6.8 C 35.12 6.82 35.1 2.9 35.1 2.9 L 36.3 2.9 L 36.3 10.2 L 35.2 10.2 Z M 37.8 8 C 37.8 8 39 7.8 39 7.8 C 39.1 8.3 39.3 8.7 39.6 9 C 39.9 9.2 40.3 9.3 40.9 9.3 C 41.4 9.3 41.9 9.2 42.1 9 C 42.4 8.8 42.5 8.5 42.5 8.2 C 42.5 7.9 42.4 7.7 42.2 7.5 C 42 7.4 41.6 7.3 40.9 7.1 C 40 6.9 39.4 6.7 39.1 6.5 C 38.7 6.4 38.4 6.1 38.3 5.8 C 38.1 5.5 38 5.2 38 4.9 C 38 4.5 38.1 4.2 38.2 4 C 38.4 3.7 38.6 3.5 38.8 3.3 C 39 3.1 39.3 3 39.6 2.9 C 39.9 2.8 40.3 2.8 40.7 2.8 C 41.2 2.8 41.7 2.9 42.2 3 C 42.6 3.2 42.9 3.4 43.1 3.7 C 43.3 4 43.5 4.3 43.5 4.8 C 43.5 4.8 42.3 5 42.3 5 C 42.3 4.6 42.1 4.3 41.9 4.1 C 41.6 3.9 41.2 3.8 40.7 3.8 C 40.2 3.8 39.8 3.9 39.5 4.1 C 39.3 4.2 39.2 4.5 39.2 4.7 C 39.2 4.9 39.2 5 39.3 5.1 C 39.4 5.3 39.6 5.4 39.8 5.5 C 39.9 5.5 40.3 5.6 40.9 5.8 C 41.8 6 42.4 6.2 42.7 6.4 C 43.1 6.5 43.3 6.7 43.5 7 C 43.7 7.3 43.8 7.6 43.8 8.1 C 43.8 8.5 43.7 8.9 43.5 9.2 C 43.2 9.6 42.9 9.9 42.4 10.1 C 42 10.3 41.5 10.4 40.9 10.4 C 39.9 10.4 39.2 10.2 38.7 9.8 C 38.2 9.4 37.9 8.8 37.8 8 Z M 45.3 1.6 L 45.3 0.2 L 46.5 0.2 L 46.5 1.6 L 45.3 1.6 Z M 45.3 10.2 L 45.3 2.9 L 46.5 2.9 L 46.5 10.2 L 45.3 10.2 Z M 48.4 10.2 L 48.4 2.9 L 49.5 2.9 C 49.5 2.9 49.49 3.96 49.5 4 C 50 3.2 50.8 2.8 51.8 2.8 C 52.2 2.8 52.6 2.8 53 3 C 53.4 3.2 53.7 3.4 53.8 3.6 C 54 3.9 54.1 4.2 54.2 4.5 C 54.3 4.8 54.3 5.2 54.3 5.7 C 54.28 5.73 54.3 10.2 54.3 10.2 L 53.1 10.2 C 53.1 10.2 53.05 5.78 53.1 5.8 C 53.1 5.3 53 4.9 52.9 4.7 C 52.8 4.4 52.6 4.2 52.4 4.1 C 52.2 3.9 51.9 3.8 51.5 3.8 C 51 3.8 50.6 4 50.2 4.3 C 49.8 4.7 49.6 5.3 49.6 6.2 C 49.62 6.23 49.6 10.2 49.6 10.2 L 48.4 10.2 Z M 61.1 7.9 C 61.1 7.9 62.4 8 62.4 8 C 62.2 8.8 61.8 9.3 61.3 9.7 C 60.8 10.2 60.1 10.4 59.2 10.4 C 58.2 10.4 57.3 10 56.7 9.4 C 56.1 8.7 55.8 7.8 55.8 6.6 C 55.8 5.4 56.1 4.5 56.7 3.8 C 57.3 3.1 58.1 2.8 59.2 2.8 C 60.1 2.8 60.9 3.1 61.5 3.8 C 62.1 4.4 62.5 5.4 62.5 6.5 C 62.5 6.6 62.5 6.7 62.4 6.9 C 62.4 6.9 57 6.9 57 6.9 C 57.1 7.7 57.3 8.3 57.7 8.7 C 58.1 9.1 58.6 9.3 59.2 9.3 C 59.7 9.3 60.1 9.2 60.4 9 C 60.7 8.8 61 8.4 61.1 7.9 Z M 57.1 5.9 C 57.1 5.9 61.2 5.9 61.2 5.9 C 61.1 5.3 60.9 4.8 60.7 4.5 C 60.3 4 59.8 3.8 59.2 3.8 C 58.6 3.8 58.1 4 57.7 4.3 C 57.4 4.7 57.1 5.2 57.1 5.9 Z M 63.5 8 C 63.5 8 64.7 7.8 64.7 7.8 C 64.8 8.3 64.9 8.7 65.3 9 C 65.6 9.2 66 9.3 66.6 9.3 C 67.1 9.3 67.5 9.2 67.8 9 C 68.1 8.8 68.2 8.5 68.2 8.2 C 68.2 7.9 68.1 7.7 67.9 7.5 C 67.7 7.4 67.3 7.3 66.6 7.1 C 65.7 6.9 65.1 6.7 64.7 6.5 C 64.4 6.4 64.1 6.1 63.9 5.8 C 63.8 5.5 63.7 5.2 63.7 4.9 C 63.7 4.5 63.7 4.2 63.9 4 C 64 3.7 64.2 3.5 64.5 3.3 C 64.7 3.1 64.9 3 65.3 2.9 C 65.6 2.8 66 2.8 66.3 2.8 C 66.9 2.8 67.4 2.9 67.8 3 C 68.3 3.2 68.6 3.4 68.8 3.7 C 69 4 69.1 4.3 69.2 4.8 C 69.2 4.8 68 5 68 5 C 68 4.6 67.8 4.3 67.5 4.1 C 67.3 3.9 66.9 3.8 66.4 3.8 C 65.9 3.8 65.5 3.9 65.2 4.1 C 65 4.2 64.9 4.5 64.9 4.7 C 64.9 4.9 64.9 5 65 5.1 C 65.1 5.3 65.3 5.4 65.5 5.5 C 65.6 5.5 66 5.6 66.6 5.8 C 67.4 6 68 6.2 68.4 6.4 C 68.7 6.5 69 6.7 69.2 7 C 69.4 7.3 69.5 7.6 69.5 8.1 C 69.5 8.5 69.4 8.9 69.1 9.2 C 68.9 9.6 68.6 9.9 68.1 10.1 C 67.6 10.3 67.1 10.4 66.6 10.4 C 65.6 10.4 64.9 10.2 64.4 9.8 C 63.9 9.4 63.6 8.8 63.5 8 Z M 70.5 8 C 70.5 8 71.7 7.8 71.7 7.8 C 71.8 8.3 71.9 8.7 72.3 9 C 72.6 9.2 73 9.3 73.6 9.3 C 74.1 9.3 74.5 9.2 74.8 9 C 75.1 8.8 75.2 8.5 75.2 8.2 C 75.2 7.9 75.1 7.7 74.9 7.5 C 74.7 7.4 74.3 7.3 73.6 7.1 C 72.7 6.9 72.1 6.7 71.7 6.5 C 71.4 6.4 71.1 6.1 70.9 5.8 C 70.8 5.5 70.7 5.2 70.7 4.9 C 70.7 4.5 70.7 4.2 70.9 4 C 71 3.7 71.2 3.5 71.5 3.3 C 71.7 3.1 71.9 3 72.3 2.9 C 72.6 2.8 73 2.8 73.3 2.8 C 73.9 2.8 74.4 2.9 74.8 3 C 75.3 3.2 75.6 3.4 75.8 3.7 C 76 4 76.1 4.3 76.2 4.8 C 76.2 4.8 75 5 75 5 C 75 4.6 74.8 4.3 74.5 4.1 C 74.3 3.9 73.9 3.8 73.4 3.8 C 72.9 3.8 72.5 3.9 72.2 4.1 C 72 4.2 71.9 4.5 71.9 4.7 C 71.9 4.9 71.9 5 72 5.1 C 72.1 5.3 72.3 5.4 72.5 5.5 C 72.6 5.5 73 5.6 73.6 5.8 C 74.4 6 75 6.2 75.4 6.4 C 75.7 6.5 76 6.7 76.2 7 C 76.4 7.3 76.5 7.6 76.5 8.1 C 76.5 8.5 76.4 8.9 76.1 9.2 C 75.9 9.6 75.6 9.9 75.1 10.1 C 74.6 10.3 74.1 10.4 73.6 10.4 C 72.6 10.4 71.9 10.2 71.4 9.8 C 70.9 9.4 70.6 8.8 70.5 8 Z M 80.1 10.2 L 84 0.2 L 85.4 0.2 L 89.5 10.2 L 88 10.2 L 86.8 7.2 L 82.6 7.2 L 81.5 10.2 L 80.1 10.2 Z M 83 6.1 L 86.4 6.1 C 86.4 6.1 85.37 3.3 85.4 3.3 C 85.1 2.5 84.8 1.8 84.7 1.2 C 84.5 1.9 84.4 2.5 84.1 3.1 C 84.12 3.14 83 6.1 83 6.1 Z M 95.1 10.2 C 95.1 10.2 95.12 9.28 95.1 9.3 C 94.7 10 94 10.4 93.1 10.4 C 92.5 10.4 92 10.2 91.5 9.9 C 91 9.6 90.6 9.1 90.4 8.5 C 90.1 8 90 7.3 90 6.6 C 90 5.8 90.1 5.2 90.3 4.6 C 90.6 4 90.9 3.6 91.4 3.2 C 91.9 2.9 92.4 2.8 93 2.8 C 93.5 2.8 93.9 2.9 94.2 3 C 94.5 3.2 94.8 3.5 95 3.8 C 95.04 3.77 95 0.2 95 0.2 L 96.3 0.2 L 96.3 10.2 L 95.1 10.2 Z M 91.2 6.6 C 91.2 7.5 91.4 8.2 91.8 8.7 C 92.2 9.1 92.7 9.3 93.2 9.3 C 93.7 9.3 94.2 9.1 94.6 8.7 C 95 8.2 95.1 7.6 95.1 6.7 C 95.1 5.7 95 4.9 94.6 4.5 C 94.2 4 93.7 3.8 93.2 3.8 C 92.6 3.8 92.1 4 91.8 4.5 C 91.4 4.9 91.2 5.6 91.2 6.6 Z M 98.2 10.2 L 98.2 2.9 L 99.3 2.9 C 99.3 2.9 99.3 3.95 99.3 4 C 99.5 3.6 99.8 3.3 100.2 3.1 C 100.6 2.9 101 2.8 101.5 2.8 C 102 2.8 102.5 2.9 102.8 3.1 C 103.2 3.3 103.4 3.6 103.6 4 C 104.1 3.2 104.9 2.8 105.8 2.8 C 106.5 2.8 107.1 3 107.5 3.4 C 107.8 3.8 108 4.4 108 5.2 C 108.04 5.21 108 10.2 108 10.2 L 106.8 10.2 C 106.8 10.2 106.81 5.62 106.8 5.6 C 106.8 5.1 106.8 4.8 106.7 4.6 C 106.6 4.3 106.5 4.2 106.3 4 C 106 3.9 105.8 3.8 105.5 3.8 C 105 3.8 104.6 4 104.2 4.3 C 103.9 4.7 103.7 5.2 103.7 6 C 103.74 5.97 103.7 10.2 103.7 10.2 L 102.5 10.2 C 102.5 10.2 102.51 5.48 102.5 5.5 C 102.5 4.9 102.4 4.5 102.2 4.2 C 102 4 101.7 3.8 101.2 3.8 C 100.9 3.8 100.6 3.9 100.3 4.1 C 100 4.3 99.8 4.6 99.6 4.9 C 99.5 5.3 99.4 5.8 99.4 6.4 C 99.43 6.43 99.4 10.2 99.4 10.2 L 98.2 10.2 Z M 109.9 1.6 L 109.9 0.2 L 111.1 0.2 L 111.1 1.6 L 109.9 1.6 Z M 109.9 10.2 L 109.9 2.9 L 111.1 2.9 L 111.1 10.2 L 109.9 10.2 Z M 113 10.2 L 113 2.9 L 114.1 2.9 C 114.1 2.9 114.08 3.96 114.1 4 C 114.6 3.2 115.4 2.8 116.4 2.8 C 116.8 2.8 117.2 2.8 117.6 3 C 118 3.2 118.2 3.4 118.4 3.6 C 118.6 3.9 118.7 4.2 118.8 4.5 C 118.8 4.8 118.9 5.2 118.9 5.7 C 118.87 5.73 118.9 10.2 118.9 10.2 L 117.6 10.2 C 117.6 10.2 117.64 5.78 117.6 5.8 C 117.6 5.3 117.6 4.9 117.5 4.7 C 117.4 4.4 117.2 4.2 117 4.1 C 116.7 3.9 116.5 3.8 116.1 3.8 C 115.6 3.8 115.2 4 114.8 4.3 C 114.4 4.7 114.2 5.3 114.2 6.2 C 114.2 6.23 114.2 10.2 114.2 10.2 L 113 10.2 Z M 120.8 1.6 L 120.8 0.2 L 122 0.2 L 122 1.6 L 120.8 1.6 Z M 120.8 10.2 L 120.8 2.9 L 122 2.9 L 122 10.2 L 120.8 10.2 Z M 123.4 8 C 123.4 8 124.6 7.8 124.6 7.8 C 124.7 8.3 124.9 8.7 125.2 9 C 125.5 9.2 125.9 9.3 126.5 9.3 C 127 9.3 127.5 9.2 127.7 9 C 128 8.8 128.1 8.5 128.1 8.2 C 128.1 7.9 128 7.7 127.8 7.5 C 127.6 7.4 127.2 7.3 126.5 7.1 C 125.6 6.9 125 6.7 124.6 6.5 C 124.3 6.4 124 6.1 123.9 5.8 C 123.7 5.5 123.6 5.2 123.6 4.9 C 123.6 4.5 123.7 4.2 123.8 4 C 124 3.7 124.2 3.5 124.4 3.3 C 124.6 3.1 124.9 3 125.2 2.9 C 125.5 2.8 125.9 2.8 126.3 2.8 C 126.8 2.8 127.3 2.9 127.8 3 C 128.2 3.2 128.5 3.4 128.7 3.7 C 128.9 4 129.1 4.3 129.1 4.8 C 129.1 4.8 127.9 5 127.9 5 C 127.9 4.6 127.7 4.3 127.5 4.1 C 127.2 3.9 126.8 3.8 126.3 3.8 C 125.8 3.8 125.4 3.9 125.1 4.1 C 124.9 4.2 124.8 4.5 124.8 4.7 C 124.8 4.9 124.8 5 124.9 5.1 C 125 5.3 125.2 5.4 125.4 5.5 C 125.5 5.5 125.9 5.6 126.5 5.8 C 127.3 6 128 6.2 128.3 6.4 C 128.6 6.5 128.9 6.7 129.1 7 C 129.3 7.3 129.4 7.6 129.4 8.1 C 129.4 8.5 129.3 8.9 129 9.2 C 128.8 9.6 128.5 9.9 128 10.1 C 127.6 10.3 127 10.4 126.5 10.4 C 125.5 10.4 124.8 10.2 124.3 9.8 C 123.8 9.4 123.5 8.8 123.4 8 Z M 133 9.1 C 133.2 9.1 133.3 9.1 133.6 9.1 C 133.6 9.1 133.7 10.2 133.7 10.2 C 133.4 10.3 133.1 10.3 132.8 10.3 C 132.4 10.3 132 10.2 131.8 10.1 C 131.5 9.9 131.3 9.7 131.2 9.5 C 131.1 9.3 131.1 8.8 131.1 8.1 C 131.09 8.07 131.1 3.9 131.1 3.9 L 130.2 3.9 L 130.2 2.9 L 131.1 2.9 L 131.1 1.1 L 132.3 0.4 L 132.3 2.9 L 133.6 2.9 L 133.6 3.9 L 132.3 3.9 C 132.3 3.9 132.32 8.13 132.3 8.1 C 132.3 8.5 132.3 8.7 132.4 8.8 C 132.4 8.9 132.5 9 132.6 9.1 C 132.7 9.1 132.8 9.1 133 9.1 C 133 9.1 133 9.1 133 9.1 Z M 134.7 10.2 L 134.7 2.9 L 135.9 2.9 C 135.9 2.9 135.85 4.03 135.9 4 C 136.1 3.5 136.4 3.2 136.6 3 C 136.9 2.9 137.1 2.8 137.4 2.8 C 137.8 2.8 138.3 2.9 138.7 3.2 C 138.7 3.2 138.3 4.3 138.3 4.3 C 138 4.1 137.7 4 137.4 4 C 137.1 4 136.9 4.1 136.6 4.3 C 136.4 4.4 136.3 4.7 136.2 5 C 136 5.4 136 5.9 136 6.4 C 135.97 6.39 136 10.2 136 10.2 L 134.7 10.2 Z M 144.4 10.2 C 144.3 9.9 144.2 9.6 144.2 9.3 C 143.7 9.7 143.3 10 142.8 10.1 C 142.4 10.3 142 10.4 141.5 10.4 C 140.7 10.4 140.1 10.2 139.6 9.8 C 139.2 9.4 139 8.9 139 8.3 C 139 7.9 139.1 7.6 139.2 7.3 C 139.4 7 139.6 6.8 139.9 6.6 C 140.1 6.4 140.4 6.3 140.8 6.2 C 141 6.1 141.4 6.1 141.9 6 C 142.9 5.9 143.6 5.7 144.1 5.6 C 144.1 5.4 144.1 5.3 144.1 5.3 C 144.1 4.8 143.9 4.4 143.7 4.2 C 143.4 3.9 142.9 3.8 142.3 3.8 C 141.7 3.8 141.3 3.9 141 4.1 C 140.8 4.3 140.5 4.7 140.4 5.2 C 140.4 5.2 139.2 5 139.2 5 C 139.3 4.5 139.5 4.1 139.8 3.8 C 140 3.4 140.4 3.2 140.8 3 C 141.3 2.9 141.9 2.8 142.5 2.8 C 143.1 2.8 143.6 2.8 144 3 C 144.4 3.1 144.7 3.3 144.9 3.5 C 145 3.8 145.2 4 145.2 4.4 C 145.3 4.6 145.3 5 145.3 5.5 C 145.3 5.5 145.3 7.2 145.3 7.2 C 145.3 8.3 145.3 9 145.4 9.3 C 145.4 9.6 145.5 9.9 145.7 10.2 C 145.69 10.19 144.4 10.2 144.4 10.2 C 144.4 10.2 144.4 10.19 144.4 10.2 Z M 144.1 6.5 C 143.6 6.7 142.9 6.9 142 7 C 141.5 7.1 141.2 7.2 141 7.3 C 140.8 7.4 140.6 7.5 140.5 7.7 C 140.4 7.8 140.3 8 140.3 8.2 C 140.3 8.6 140.4 8.8 140.7 9.1 C 140.9 9.3 141.3 9.4 141.8 9.4 C 142.3 9.4 142.7 9.3 143 9.1 C 143.4 8.9 143.7 8.6 143.9 8.2 C 144 8 144.1 7.5 144.1 7 C 144.1 7 144.1 6.5 144.1 6.5 Z M 149.4 9.1 C 149.5 9.1 149.7 9.1 149.9 9.1 C 149.9 9.1 150.1 10.2 150.1 10.2 C 149.7 10.3 149.4 10.3 149.1 10.3 C 148.7 10.3 148.3 10.2 148.1 10.1 C 147.9 9.9 147.7 9.7 147.6 9.5 C 147.5 9.3 147.4 8.8 147.4 8.1 C 147.43 8.07 147.4 3.9 147.4 3.9 L 146.5 3.9 L 146.5 2.9 L 147.4 2.9 L 147.4 1.1 L 148.7 0.4 L 148.7 2.9 L 149.9 2.9 L 149.9 3.9 L 148.7 3.9 C 148.7 3.9 148.65 8.13 148.7 8.1 C 148.7 8.5 148.7 8.7 148.7 8.8 C 148.8 8.9 148.8 9 148.9 9.1 C 149 9.1 149.2 9.1 149.4 9.1 C 149.4 9.1 149.4 9.1 149.4 9.1 Z M 150.6 6.6 C 150.6 5.2 151 4.2 151.8 3.6 C 152.4 3 153.1 2.8 154 2.8 C 155 2.8 155.9 3.1 156.5 3.7 C 157.1 4.4 157.4 5.3 157.4 6.5 C 157.4 7.4 157.3 8.1 157 8.7 C 156.7 9.2 156.3 9.6 155.8 9.9 C 155.3 10.2 154.7 10.4 154 10.4 C 153 10.4 152.2 10 151.6 9.4 C 150.9 8.7 150.6 7.8 150.6 6.6 Z M 151.9 6.6 C 151.9 7.5 152.1 8.2 152.5 8.7 C 152.9 9.1 153.4 9.3 154 9.3 C 154.7 9.3 155.2 9.1 155.6 8.6 C 156 8.2 156.2 7.5 156.2 6.5 C 156.2 5.6 156 4.9 155.6 4.5 C 155.2 4 154.6 3.8 154 3.8 C 153.4 3.8 152.9 4 152.5 4.5 C 152.1 4.9 151.9 5.6 151.9 6.6 Z M 158.9 10.2 L 158.9 2.9 L 160 2.9 C 160 2.9 159.97 4.03 160 4 C 160.3 3.5 160.5 3.2 160.8 3 C 161 2.9 161.3 2.8 161.5 2.8 C 162 2.8 162.4 2.9 162.8 3.2 C 162.8 3.2 162.4 4.3 162.4 4.3 C 162.1 4.1 161.8 4 161.5 4 C 161.2 4 161 4.1 160.8 4.3 C 160.5 4.4 160.4 4.7 160.3 5 C 160.2 5.4 160.1 5.9 160.1 6.4 C 160.1 6.39 160.1 10.2 160.1 10.2 L 158.9 10.2 Z " stroke="none" fill="#010102"/>  </g></svg>