<?xml version="1.0" standalone="no"?><!DOCTYPE svg PUBLIC "-//W3C//DTD SVG 1.1//EN" "http://www.w3.org/Graphics/SVG/1.1/DTD/svg11.dtd"><svg xmlns="http://www.w3.org/2000/svg" version="1.1" width="48.2px" height="23.9px" viewBox="0 -5 48.2 23.9" style="top:-5px">  <desc>100 0</desc>  <defs/>  <g id="Polygon145585">    <path d="M 0.4 7.2 L 0.4 5.9 L 4.2 5.9 L 4.2 7.2 L 0.4 7.2 Z M 9.9 10.2 L 8.6 10.2 C 8.6 10.2 8.65 2.35 8.6 2.4 C 8.4 2.6 8 2.9 7.5 3.2 C 7 3.5 6.6 3.7 6.2 3.8 C 6.2 3.8 6.2 2.6 6.2 2.6 C 6.9 2.3 7.5 1.9 8 1.5 C 8.5 1 8.9 0.6 9.1 0.1 C 9.08 0.13 9.9 0.1 9.9 0.1 L 9.9 10.2 Z M 14 9.3 C 13.4 8.5 13 7.1 13 5.3 C 13 4.1 13.2 3.1 13.4 2.4 C 13.6 1.7 14 1.1 14.5 0.7 C 15 0.3 15.6 0.1 16.3 0.1 C 16.8 0.1 17.3 0.2 17.7 0.5 C 18.1 0.7 18.5 1 18.7 1.4 C 19 1.8 19.2 2.3 19.3 2.9 C 19.5 3.5 19.6 4.3 19.6 5.3 C 19.6 6.4 19.4 7.4 19.2 8.1 C 19 8.8 18.6 9.4 18.1 9.8 C 17.6 10.2 17 10.4 16.3 10.4 C 15.3 10.4 14.6 10 14 9.3 C 14 9.3 14 9.3 14 9.3 Z M 14.9 1.9 C 14.5 2.5 14.3 3.6 14.3 5.3 C 14.3 6.9 14.5 8 14.9 8.5 C 15.3 9.1 15.7 9.4 16.3 9.4 C 16.9 9.4 17.3 9.1 17.7 8.5 C 18.1 8 18.3 6.9 18.3 5.3 C 18.3 3.6 18.1 2.5 17.7 2 C 17.3 1.4 16.9 1.1 16.3 1.1 C 15.7 1.1 15.3 1.4 14.9 1.9 C 14.9 1.9 14.9 1.9 14.9 1.9 Z M 21.8 9.3 C 21.1 8.5 20.8 7.1 20.8 5.3 C 20.8 4.1 20.9 3.1 21.2 2.4 C 21.4 1.7 21.8 1.1 22.3 0.7 C 22.7 0.3 23.4 0.1 24.1 0.1 C 24.6 0.1 25.1 0.2 25.5 0.5 C 25.9 0.7 26.2 1 26.5 1.4 C 26.8 1.8 27 2.3 27.1 2.9 C 27.3 3.5 27.4 4.3 27.4 5.3 C 27.4 6.4 27.2 7.4 27 8.1 C 26.7 8.8 26.4 9.4 25.9 9.8 C 25.4 10.2 24.8 10.4 24.1 10.4 C 23.1 10.4 22.4 10 21.8 9.3 C 21.8 9.3 21.8 9.3 21.8 9.3 Z M 22.7 1.9 C 22.3 2.5 22.1 3.6 22.1 5.3 C 22.1 6.9 22.3 8 22.7 8.5 C 23 9.1 23.5 9.4 24.1 9.4 C 24.6 9.4 25.1 9.1 25.5 8.5 C 25.9 8 26.1 6.9 26.1 5.3 C 26.1 3.6 25.9 2.5 25.5 2 C 25.1 1.4 24.6 1.1 24.1 1.1 C 23.5 1.1 23.1 1.4 22.7 1.9 C 22.7 1.9 22.7 1.9 22.7 1.9 Z M 32.4 7.2 L 32.4 5.9 L 36.1 5.9 L 36.1 7.2 L 32.4 7.2 Z M 42 9.3 C 41.4 8.5 41 7.1 41 5.3 C 41 4.1 41.2 3.1 41.4 2.4 C 41.7 1.7 42 1.1 42.5 0.7 C 43 0.3 43.6 0.1 44.3 0.1 C 44.8 0.1 45.3 0.2 45.7 0.5 C 46.1 0.7 46.5 1 46.7 1.4 C 47 1.8 47.2 2.3 47.4 2.9 C 47.5 3.5 47.6 4.3 47.6 5.3 C 47.6 6.4 47.5 7.4 47.2 8.1 C 47 8.8 46.6 9.4 46.1 9.8 C 45.7 10.2 45 10.4 44.3 10.4 C 43.3 10.4 42.6 10 42 9.3 C 42 9.3 42 9.3 42 9.3 Z M 42.9 1.9 C 42.5 2.5 42.3 3.6 42.3 5.3 C 42.3 6.9 42.5 8 42.9 8.5 C 43.3 9.1 43.7 9.4 44.3 9.4 C 44.9 9.4 45.4 9.1 45.7 8.5 C 46.1 8 46.3 6.9 46.3 5.3 C 46.3 3.6 46.1 2.5 45.7 2 C 45.4 1.4 44.9 1.1 44.3 1.1 C 43.7 1.1 43.3 1.4 42.9 1.9 C 42.9 1.9 42.9 1.9 42.9 1.9 Z " stroke="none" fill="#ffffff"/>  </g></svg>