<?xml version="1.0" standalone="no"?><!DOCTYPE svg PUBLIC "-//W3C//DTD SVG 1.1//EN" "http://www.w3.org/Graphics/SVG/1.1/DTD/svg11.dtd"><svg xmlns="http://www.w3.org/2000/svg" version="1.1" width="307.3px" height="55.9px" viewBox="0 -1 307.3 55.9" style="top:-1px">  <desc>Explore the Reforms Hub</desc>  <defs/>  <g id="Polygon142986">    <path d="M 70.7 30.6 L 70.7 20.6 L 78.1 20.6 L 78.1 22.3 L 72.7 22.3 L 72.7 24.5 L 77.7 24.5 L 77.7 26.2 L 72.7 26.2 L 72.7 28.9 L 78.3 28.9 L 78.3 30.6 L 70.7 30.6 Z M 79.1 30.6 L 81.7 26.9 L 79.2 23.4 L 81.5 23.4 L 82.8 25.4 L 84.2 23.4 L 86.4 23.4 L 83.9 26.8 L 86.6 30.6 L 84.3 30.6 L 82.8 28.4 L 81.3 30.6 L 79.1 30.6 Z M 87.7 23.4 L 89.5 23.4 C 89.5 23.4 89.5 24.42 89.5 24.4 C 89.7 24.1 90.1 23.8 90.4 23.5 C 90.8 23.3 91.3 23.2 91.8 23.2 C 92.6 23.2 93.3 23.5 93.9 24.2 C 94.5 24.8 94.8 25.8 94.8 26.9 C 94.8 28.2 94.5 29.1 93.9 29.8 C 93.3 30.4 92.6 30.8 91.8 30.8 C 91.4 30.8 91 30.7 90.7 30.5 C 90.3 30.4 90 30.1 89.6 29.7 C 89.63 29.72 89.6 33.4 89.6 33.4 L 87.7 33.4 L 87.7 23.4 Z M 89.6 26.9 C 89.6 27.7 89.8 28.3 90.1 28.7 C 90.4 29.1 90.8 29.3 91.3 29.3 C 91.7 29.3 92.1 29.1 92.4 28.7 C 92.7 28.4 92.8 27.8 92.8 27 C 92.8 26.2 92.7 25.6 92.4 25.3 C 92.1 24.9 91.7 24.7 91.2 24.7 C 90.8 24.7 90.4 24.9 90.1 25.3 C 89.8 25.6 89.6 26.2 89.6 26.9 Z M 96.3 30.6 L 96.3 20.6 L 98.2 20.6 L 98.2 30.6 L 96.3 30.6 Z M 99.8 26.9 C 99.8 26.2 99.9 25.6 100.2 25 C 100.6 24.4 101 24 101.6 23.7 C 102.2 23.4 102.8 23.2 103.5 23.2 C 104.6 23.2 105.5 23.6 106.2 24.3 C 106.9 25 107.3 25.9 107.3 27 C 107.3 28.1 106.9 29 106.2 29.7 C 105.5 30.4 104.6 30.8 103.5 30.8 C 102.9 30.8 102.2 30.6 101.6 30.3 C 101 30 100.6 29.6 100.2 29 C 99.9 28.4 99.8 27.7 99.8 26.9 Z M 101.7 27 C 101.7 27.7 101.9 28.3 102.2 28.6 C 102.6 29 103 29.2 103.5 29.2 C 104 29.2 104.4 29 104.8 28.6 C 105.1 28.3 105.3 27.7 105.3 27 C 105.3 26.3 105.1 25.7 104.8 25.3 C 104.4 25 104 24.8 103.5 24.8 C 103 24.8 102.6 25 102.2 25.3 C 101.9 25.7 101.7 26.3 101.7 27 Z M 110.6 30.6 L 108.7 30.6 L 108.7 23.4 L 110.5 23.4 C 110.5 23.4 110.46 24.39 110.5 24.4 C 110.8 23.9 111 23.6 111.3 23.4 C 111.5 23.3 111.8 23.2 112.1 23.2 C 112.6 23.2 113 23.3 113.4 23.6 C 113.4 23.6 112.8 25.2 112.8 25.2 C 112.5 25 112.2 24.9 111.9 24.9 C 111.6 24.9 111.4 25 111.2 25.1 C 111 25.3 110.9 25.6 110.8 25.9 C 110.7 26.3 110.6 27.1 110.6 28.4 C 110.6 28.38 110.6 30.6 110.6 30.6 Z M 118.4 28.3 C 118.4 28.3 120.3 28.6 120.3 28.6 C 120.1 29.3 119.7 29.9 119.2 30.2 C 118.6 30.6 118 30.8 117.2 30.8 C 115.9 30.8 115 30.4 114.4 29.5 C 113.9 28.9 113.6 28.1 113.6 27 C 113.6 25.8 114 24.9 114.6 24.2 C 115.2 23.5 116 23.2 117 23.2 C 118.1 23.2 118.9 23.6 119.5 24.3 C 120.2 25 120.5 26.1 120.4 27.5 C 120.4 27.5 115.6 27.5 115.6 27.5 C 115.6 28.1 115.8 28.6 116.1 28.9 C 116.4 29.2 116.7 29.3 117.2 29.3 C 117.5 29.3 117.7 29.3 117.9 29.1 C 118.2 28.9 118.3 28.7 118.4 28.3 Z M 118.5 26.4 C 118.5 25.8 118.4 25.4 118.1 25.1 C 117.8 24.8 117.5 24.7 117.1 24.7 C 116.7 24.7 116.3 24.8 116.1 25.1 C 115.8 25.4 115.6 25.8 115.7 26.4 C 115.7 26.4 118.5 26.4 118.5 26.4 Z M 129.2 23.4 L 129.2 24.9 L 127.9 24.9 C 127.9 24.9 127.9 27.82 127.9 27.8 C 127.9 28.4 127.9 28.8 127.9 28.9 C 128 28.9 128 29 128.1 29.1 C 128.2 29.2 128.3 29.2 128.4 29.2 C 128.6 29.2 128.9 29.1 129.2 29 C 129.2 29 129.4 30.5 129.4 30.5 C 128.9 30.7 128.4 30.8 127.9 30.8 C 127.5 30.8 127.2 30.7 126.9 30.6 C 126.6 30.5 126.4 30.3 126.3 30.2 C 126.2 30 126.1 29.7 126 29.4 C 126 29.2 126 28.7 126 28.1 C 125.97 28.05 126 24.9 126 24.9 L 125.1 24.9 L 125.1 23.4 L 126 23.4 L 126 21.9 L 127.9 20.8 L 127.9 23.4 L 129.2 23.4 Z M 132.5 20.6 C 132.5 20.6 132.46 24.28 132.5 24.3 C 133.1 23.6 133.8 23.2 134.7 23.2 C 135.1 23.2 135.5 23.3 135.9 23.4 C 136.2 23.6 136.5 23.8 136.7 24.1 C 136.9 24.3 137 24.6 137.1 24.9 C 137.1 25.2 137.2 25.7 137.2 26.4 C 137.15 26.36 137.2 30.6 137.2 30.6 L 135.2 30.6 C 135.2 30.6 135.23 26.78 135.2 26.8 C 135.2 26 135.2 25.5 135.1 25.3 C 135 25.1 134.9 25 134.7 24.8 C 134.6 24.7 134.3 24.7 134 24.7 C 133.7 24.7 133.4 24.7 133.2 24.9 C 132.9 25.1 132.8 25.3 132.6 25.6 C 132.5 25.9 132.5 26.4 132.5 27 C 132.46 26.98 132.5 30.6 132.5 30.6 L 130.5 30.6 L 130.5 20.6 L 132.5 20.6 Z M 143.3 28.3 C 143.3 28.3 145.2 28.6 145.2 28.6 C 145 29.3 144.6 29.9 144.1 30.2 C 143.5 30.6 142.9 30.8 142.1 30.8 C 140.8 30.8 139.9 30.4 139.3 29.5 C 138.8 28.9 138.5 28.1 138.5 27 C 138.5 25.8 138.9 24.9 139.5 24.2 C 140.1 23.5 140.9 23.2 141.9 23.2 C 142.9 23.2 143.8 23.6 144.4 24.3 C 145 25 145.3 26.1 145.3 27.5 C 145.3 27.5 140.5 27.5 140.5 27.5 C 140.5 28.1 140.7 28.6 141 28.9 C 141.3 29.2 141.6 29.3 142.1 29.3 C 142.4 29.3 142.6 29.3 142.8 29.1 C 143 28.9 143.2 28.7 143.3 28.3 Z M 143.4 26.4 C 143.4 25.8 143.3 25.4 143 25.1 C 142.7 24.8 142.4 24.7 142 24.7 C 141.6 24.7 141.2 24.8 140.9 25.1 C 140.7 25.4 140.5 25.8 140.5 26.4 C 140.5 26.4 143.4 26.4 143.4 26.4 Z M 150.8 30.6 L 150.8 20.6 C 150.8 20.6 155.05 20.6 155.1 20.6 C 156.1 20.6 156.9 20.7 157.4 20.9 C 157.9 21 158.3 21.4 158.6 21.8 C 158.8 22.3 159 22.8 159 23.4 C 159 24.2 158.8 24.8 158.3 25.3 C 157.9 25.8 157.2 26.1 156.3 26.2 C 156.8 26.5 157.1 26.7 157.4 27 C 157.7 27.3 158.1 27.9 158.6 28.7 C 158.58 28.66 159.8 30.6 159.8 30.6 L 157.4 30.6 C 157.4 30.6 155.92 28.44 155.9 28.4 C 155.4 27.7 155 27.2 154.9 27 C 154.7 26.8 154.5 26.6 154.2 26.5 C 154 26.5 153.7 26.4 153.2 26.4 C 153.23 26.43 152.8 26.4 152.8 26.4 L 152.8 30.6 L 150.8 30.6 Z M 152.8 24.8 C 152.8 24.8 154.32 24.83 154.3 24.8 C 155.3 24.8 155.9 24.8 156.1 24.7 C 156.4 24.6 156.6 24.5 156.7 24.3 C 156.8 24.1 156.9 23.8 156.9 23.5 C 156.9 23.2 156.8 22.9 156.6 22.7 C 156.5 22.5 156.2 22.4 155.9 22.3 C 155.7 22.3 155.2 22.3 154.4 22.3 C 154.4 22.29 152.8 22.3 152.8 22.3 L 152.8 24.8 Z M 165.1 28.3 C 165.1 28.3 167 28.6 167 28.6 C 166.8 29.3 166.4 29.9 165.8 30.2 C 165.3 30.6 164.6 30.8 163.8 30.8 C 162.6 30.8 161.6 30.4 161 29.5 C 160.6 28.9 160.3 28.1 160.3 27 C 160.3 25.8 160.6 24.9 161.3 24.2 C 161.9 23.5 162.7 23.2 163.7 23.2 C 164.7 23.2 165.6 23.6 166.2 24.3 C 166.8 25 167.1 26.1 167.1 27.5 C 167.1 27.5 162.3 27.5 162.3 27.5 C 162.3 28.1 162.5 28.6 162.8 28.9 C 163.1 29.2 163.4 29.3 163.9 29.3 C 164.2 29.3 164.4 29.3 164.6 29.1 C 164.8 28.9 165 28.7 165.1 28.3 Z M 165.2 26.4 C 165.2 25.8 165 25.4 164.8 25.1 C 164.5 24.8 164.2 24.7 163.8 24.7 C 163.4 24.7 163 24.8 162.7 25.1 C 162.5 25.4 162.3 25.8 162.3 26.4 C 162.3 26.4 165.2 26.4 165.2 26.4 Z M 167.8 23.4 L 168.9 23.4 C 168.9 23.4 168.9 22.81 168.9 22.8 C 168.9 22.2 169 21.7 169.1 21.4 C 169.2 21.1 169.5 20.9 169.8 20.7 C 170.2 20.5 170.6 20.4 171.1 20.4 C 171.7 20.4 172.2 20.5 172.7 20.7 C 172.7 20.7 172.5 22 172.5 22 C 172.2 21.9 171.9 21.9 171.6 21.9 C 171.3 21.9 171.1 22 171 22.1 C 170.9 22.2 170.8 22.5 170.8 22.8 C 170.82 22.85 170.8 23.4 170.8 23.4 L 172.3 23.4 L 172.3 24.9 L 170.8 24.9 L 170.8 30.6 L 168.9 30.6 L 168.9 24.9 L 167.8 24.9 L 167.8 23.4 Z M 172.9 26.9 C 172.9 26.2 173 25.6 173.4 25 C 173.7 24.4 174.1 24 174.7 23.7 C 175.3 23.4 175.9 23.2 176.6 23.2 C 177.7 23.2 178.6 23.6 179.3 24.3 C 180 25 180.4 25.9 180.4 27 C 180.4 28.1 180 29 179.3 29.7 C 178.6 30.4 177.7 30.8 176.6 30.8 C 176 30.8 175.3 30.6 174.7 30.3 C 174.1 30 173.7 29.6 173.4 29 C 173 28.4 172.9 27.7 172.9 26.9 Z M 174.9 27 C 174.9 27.7 175 28.3 175.4 28.6 C 175.7 29 176.1 29.2 176.6 29.2 C 177.1 29.2 177.6 29 177.9 28.6 C 178.2 28.3 178.4 27.7 178.4 27 C 178.4 26.3 178.2 25.7 177.9 25.3 C 177.6 25 177.1 24.8 176.6 24.8 C 176.1 24.8 175.7 25 175.4 25.3 C 175 25.7 174.9 26.3 174.9 27 Z M 183.7 30.6 L 181.8 30.6 L 181.8 23.4 L 183.6 23.4 C 183.6 23.4 183.59 24.39 183.6 24.4 C 183.9 23.9 184.2 23.6 184.4 23.4 C 184.7 23.3 184.9 23.2 185.2 23.2 C 185.7 23.2 186.1 23.3 186.5 23.6 C 186.5 23.6 185.9 25.2 185.9 25.2 C 185.6 25 185.3 24.9 185 24.9 C 184.7 24.9 184.5 25 184.3 25.1 C 184.1 25.3 184 25.6 183.9 25.9 C 183.8 26.3 183.7 27.1 183.7 28.4 C 183.72 28.38 183.7 30.6 183.7 30.6 Z M 187.2 23.4 L 189 23.4 C 189 23.4 188.96 24.35 189 24.3 C 189.6 23.6 190.3 23.2 191.2 23.2 C 191.7 23.2 192.1 23.3 192.4 23.5 C 192.8 23.7 193.1 24 193.3 24.3 C 193.6 24 193.9 23.7 194.3 23.5 C 194.7 23.3 195.1 23.2 195.5 23.2 C 196 23.2 196.5 23.3 196.8 23.5 C 197.2 23.7 197.5 24.1 197.7 24.5 C 197.8 24.8 197.9 25.3 197.9 26 C 197.87 25.98 197.9 30.6 197.9 30.6 L 195.9 30.6 C 195.9 30.6 195.95 26.47 195.9 26.5 C 195.9 25.7 195.9 25.3 195.7 25.1 C 195.6 24.8 195.3 24.7 194.9 24.7 C 194.7 24.7 194.4 24.7 194.2 24.9 C 193.9 25.1 193.8 25.3 193.7 25.6 C 193.6 25.9 193.5 26.4 193.5 27.1 C 193.5 27.13 193.5 30.6 193.5 30.6 L 191.6 30.6 C 191.6 30.6 191.58 26.64 191.6 26.6 C 191.6 25.9 191.5 25.5 191.5 25.3 C 191.4 25.1 191.3 24.9 191.2 24.8 C 191 24.7 190.8 24.7 190.6 24.7 C 190.3 24.7 190 24.7 189.8 24.9 C 189.5 25.1 189.4 25.3 189.3 25.6 C 189.2 25.9 189.1 26.4 189.1 27.1 C 189.11 27.09 189.1 30.6 189.1 30.6 L 187.2 30.6 L 187.2 23.4 Z M 199.1 28.5 C 199.1 28.5 201 28.3 201 28.3 C 201.1 28.6 201.3 28.9 201.5 29.1 C 201.8 29.3 202.1 29.4 202.6 29.4 C 203.1 29.4 203.5 29.3 203.7 29.1 C 203.9 29 204 28.8 204 28.6 C 204 28.5 203.9 28.3 203.8 28.2 C 203.7 28.2 203.5 28.1 203.2 28 C 201.6 27.7 200.6 27.3 200.2 27.1 C 199.7 26.7 199.4 26.1 199.4 25.4 C 199.4 24.8 199.6 24.3 200.1 23.8 C 200.6 23.4 201.4 23.2 202.4 23.2 C 203.4 23.2 204.2 23.4 204.6 23.7 C 205.1 24 205.5 24.5 205.6 25.1 C 205.6 25.1 203.8 25.5 203.8 25.5 C 203.8 25.2 203.6 25 203.4 24.8 C 203.2 24.7 202.9 24.6 202.5 24.6 C 202 24.6 201.6 24.6 201.4 24.8 C 201.2 24.9 201.2 25 201.2 25.2 C 201.2 25.3 201.2 25.4 201.3 25.5 C 201.5 25.7 202.1 25.8 203.1 26.1 C 204.2 26.3 204.9 26.6 205.3 26.9 C 205.7 27.3 205.9 27.7 205.9 28.3 C 205.9 29 205.6 29.6 205.1 30.1 C 204.5 30.5 203.7 30.8 202.6 30.8 C 201.6 30.8 200.8 30.6 200.2 30.2 C 199.7 29.8 199.3 29.2 199.1 28.5 Z M 211.5 30.6 L 211.5 20.6 L 213.5 20.6 L 213.5 24.5 L 217.5 24.5 L 217.5 20.6 L 219.5 20.6 L 219.5 30.6 L 217.5 30.6 L 217.5 26.2 L 213.5 26.2 L 213.5 30.6 L 211.5 30.6 Z M 226.3 30.6 C 226.3 30.6 226.35 29.53 226.3 29.5 C 226.1 29.9 225.7 30.2 225.3 30.4 C 224.9 30.7 224.4 30.8 223.9 30.8 C 223.5 30.8 223 30.7 222.6 30.5 C 222.2 30.2 222 29.9 221.8 29.6 C 221.6 29.2 221.5 28.6 221.5 28 C 221.53 27.95 221.5 23.4 221.5 23.4 L 223.4 23.4 C 223.4 23.4 223.45 26.69 223.4 26.7 C 223.4 27.7 223.5 28.3 223.6 28.6 C 223.6 28.8 223.8 29 223.9 29.1 C 224.1 29.3 224.4 29.3 224.7 29.3 C 225 29.3 225.3 29.2 225.5 29 C 225.8 28.9 226 28.6 226.1 28.4 C 226.2 28.1 226.2 27.5 226.2 26.4 C 226.21 26.42 226.2 23.4 226.2 23.4 L 228.1 23.4 L 228.1 30.6 L 226.3 30.6 Z M 230 30.6 L 230 20.6 L 232 20.6 C 232 20.6 231.96 24.21 232 24.2 C 232.6 23.5 233.3 23.2 234.1 23.2 C 234.9 23.2 235.7 23.5 236.3 24.2 C 236.8 24.8 237.1 25.7 237.1 26.9 C 237.1 28.2 236.8 29.1 236.2 29.8 C 235.7 30.4 234.9 30.8 234.1 30.8 C 233.7 30.8 233.3 30.7 232.9 30.5 C 232.5 30.3 232.1 30 231.8 29.6 C 231.82 29.55 231.8 30.6 231.8 30.6 L 230 30.6 Z M 231.9 26.8 C 231.9 27.6 232.1 28.1 232.3 28.5 C 232.6 29 233.1 29.3 233.6 29.3 C 234.1 29.3 234.4 29.1 234.7 28.7 C 235 28.4 235.2 27.8 235.2 27 C 235.2 26.2 235 25.6 234.7 25.2 C 234.4 24.8 234 24.7 233.6 24.7 C 233.1 24.7 232.7 24.8 232.4 25.2 C 232.1 25.6 231.9 26.1 231.9 26.8 Z " stroke="none" fill="#e4007e"/>  </g></svg>