<?xml version="1.0" standalone="no"?><!DOCTYPE svg PUBLIC "-//W3C//DTD SVG 1.1//EN" "http://www.w3.org/Graphics/SVG/1.1/DTD/svg11.dtd"><svg xmlns="http://www.w3.org/2000/svg" version="1.1" width="192.3px" height="28.9px" viewBox="0 -5 192.3 28.9" style="top:-5px">  <desc>7th Largest AAO 2025</desc>  <defs/>  <g id="Polygon142665">    <path d="M 9.7 0.8 L 9.7 1.1 L 4.4 13.3 L 1.9 12.5 L 5.9 3.2 L 0.8 3.2 L 0.8 0.8 L 9.7 0.8 Z M 12.5 0.6 L 12.7 0.6 L 12.7 2.1 L 14.4 2.1 L 14.4 3.3 L 12.7 3.3 C 12.7 3.3 12.67 5.08 12.7 5.1 C 12.7 5.6 12.8 5.9 13.4 5.9 C 13.8 5.9 14.2 5.8 14.5 5.6 C 14.5 5.6 14.5 6.8 14.5 6.8 C 14.1 7.1 13.4 7.2 12.9 7.2 C 11.6 7.2 11.1 6.6 11.1 5.3 C 11.1 5.33 11.1 3.3 11.1 3.3 L 10.3 3.3 L 10.3 2.9 L 12.5 0.6 Z M 20.6 4 C 20.58 3.99 20.6 7.1 20.6 7.1 L 19 7.1 C 19 7.1 19 4.21 19 4.2 C 19 3.5 18.7 3.2 18.2 3.2 C 17.8 3.2 17.4 3.4 17.1 4 C 17.06 3.96 17.1 7.1 17.1 7.1 L 15.5 7.1 L 15.5 0 L 17.1 0 C 17.1 0 17.06 2.75 17.1 2.8 C 17.6 2.2 18.1 1.9 18.8 1.9 C 20.1 1.9 20.6 2.8 20.6 4 Z M 30.8 0.8 L 30.8 10.6 L 36.3 10.6 L 36.3 13.1 L 27.7 13.1 L 27.7 0.8 L 30.8 0.8 Z M 45.1 7 C 45.1 7 45.1 10.6 45.1 10.6 C 45.1 11 45.1 11.3 45.5 11.3 C 45.7 11.3 45.9 11.2 46.3 11 C 46.3 11 46.3 12.7 46.3 12.7 C 45.3 13.1 44.6 13.3 43.9 13.3 C 43.1 13.3 42.7 13 42.5 12.4 C 41.7 13 40.9 13.3 39.9 13.3 C 38.3 13.3 37.4 12.4 37.4 11.1 C 37.4 9.3 39 8.7 42.4 7.6 C 42.4 7.6 42.4 7.4 42.4 7.4 C 42.4 6.4 41.8 6.1 40.9 6.1 C 39.8 6.1 38.6 6.7 37.7 7.7 C 37.7 7.7 37.7 5.4 37.7 5.4 C 38.7 4.6 40 4.2 41.4 4.2 C 43.8 4.2 45.1 5.3 45.1 7 Z M 41 11.7 C 41.4 11.7 41.9 11.5 42.4 11.1 C 42.4 11.1 42.4 8.9 42.4 8.9 C 41 9.5 40.1 9.8 40.1 10.7 C 40.1 11.3 40.5 11.7 41 11.7 Z M 54.9 5 C 54.9 5 53.8 7.6 53.8 7.6 C 53.3 7.1 52.8 6.9 52.3 6.9 C 51.4 6.9 50.7 7.6 50.3 9.1 C 50.27 9.11 50.3 13.1 50.3 13.1 L 47.6 13.1 L 47.6 4.4 L 50.3 4.4 C 50.3 4.4 50.27 6.46 50.3 6.5 C 50.9 5.1 51.9 4.2 53 4.2 C 53.6 4.2 54.1 4.4 54.9 5 Z M 64.1 6.1 C 64.1 6.1 62.55 6.1 62.6 6.1 C 63.1 6.6 63.4 7.2 63.4 7.9 C 63.4 9.4 62.1 10.6 60.1 10.7 C 59.4 10.8 58.9 11 58.9 11.4 C 58.9 11.8 59.5 11.9 60.8 12.1 C 63 12.3 63.9 13.2 63.9 14.6 C 63.9 16.4 62.3 17.4 59.5 17.4 C 56.6 17.4 55.2 16.4 55.2 15 C 55.2 14.1 55.7 13.2 57.3 13 C 56.8 12.8 56.5 12.3 56.5 11.9 C 56.5 11.2 57 10.6 57.8 10.4 C 56.4 10 55.6 8.9 55.6 7.6 C 55.6 5.6 57.1 4.4 59.8 4.4 C 59.76 4.39 64.1 4.4 64.1 4.4 L 64.1 6.1 Z M 59.4 9.1 C 60.4 9.1 61 8.5 61 7.6 C 61 6.8 60.3 6.2 59.5 6.2 C 58.5 6.2 57.9 7 57.9 7.7 C 57.9 8.5 58.6 9.1 59.4 9.1 Z M 59.6 15.9 C 60.9 15.9 61.7 15.5 61.7 14.8 C 61.7 14.1 60.9 13.8 59.5 13.8 C 58.3 13.8 57.5 14.1 57.5 14.8 C 57.5 15.5 58.2 15.9 59.6 15.9 Z M 73.8 8.8 C 73.78 8.82 73.8 9.3 73.8 9.3 C 73.8 9.3 67.66 9.32 67.7 9.3 C 67.9 10.6 68.9 11.4 70.2 11.4 C 71.4 11.4 72.5 11.1 73.6 10.5 C 73.6 10.5 73.6 12.3 73.6 12.3 C 72.5 13 71.2 13.3 69.7 13.3 C 66.8 13.3 64.9 11.5 64.9 8.7 C 64.9 6 66.7 4.2 69.6 4.2 C 71.9 4.2 73.8 5.8 73.8 8.8 Z M 71.2 8 C 71.2 6.7 70.6 6 69.5 6 C 68.4 6 67.6 6.8 67.6 8 C 67.6 8 71.2 8 71.2 8 Z M 78.5 4.2 C 79.5 4.2 80.5 4.5 81.4 4.9 C 81.4 4.9 81.4 7 81.4 7 C 80.3 6.3 79.6 6.1 78.9 6.1 C 78.2 6.1 77.9 6.4 77.9 6.7 C 77.9 7 78 7.2 79.5 7.9 C 81 8.6 81.8 9.4 81.8 10.6 C 81.8 12.1 80.7 13.3 78.5 13.3 C 77.5 13.3 76.6 13.1 75.3 12.6 C 75.3 12.6 75.3 10.5 75.3 10.5 C 76.2 11.1 77.1 11.4 77.9 11.4 C 78.7 11.4 79.1 11.2 79.1 10.8 C 79.1 10.3 78.8 10.1 77.4 9.4 C 75.8 8.7 75.2 7.8 75.2 6.7 C 75.2 5.4 76.4 4.2 78.5 4.2 Z M 86.5 2 L 86.8 2 L 86.8 4.6 L 89.7 4.6 L 89.7 6.5 L 86.8 6.5 C 86.8 6.5 86.8 9.61 86.8 9.6 C 86.8 10.5 87 11.1 88 11.1 C 88.7 11.1 89.4 10.8 90 10.5 C 90 10.5 90 12.6 90 12.6 C 89.2 13 88.1 13.3 87.2 13.3 C 85 13.3 84.1 12.1 84.1 10 C 84.1 10.04 84.1 6.5 84.1 6.5 L 82.7 6.5 L 82.7 5.9 L 86.5 2 Z M 104.1 0.8 L 109.5 13.1 L 106.3 13.1 L 105.2 10.3 L 99.9 10.3 L 98.7 13.1 L 95.5 13.1 L 100.9 0.8 L 104.1 0.8 Z M 100.7 8.3 L 104.3 8.3 L 102.5 3.9 L 100.7 8.3 Z M 118.4 0.8 L 123.8 13.1 L 120.7 13.1 L 119.5 10.3 L 114.2 10.3 L 113 13.1 L 109.9 13.1 L 115.2 0.8 L 118.4 0.8 Z M 115 8.3 L 118.7 8.3 L 116.8 3.9 L 115 8.3 Z M 137.7 7 C 137.7 10.4 135.3 13.3 130.9 13.3 C 126.4 13.3 124.1 10.3 124.1 7 C 124.1 4 126.1 0.7 130.9 0.7 C 135.1 0.7 137.7 3.5 137.7 7 Z M 127.2 7 C 127.2 9.1 128.7 10.6 130.9 10.6 C 133 10.6 134.5 9.2 134.5 7 C 134.5 5 133.2 3.4 130.9 3.4 C 128.6 3.4 127.2 4.9 127.2 7 Z M 152.3 4.5 C 152.3 6.9 150.2 9.3 149.1 10.7 C 149.06 10.69 153.2 10.7 153.2 10.7 L 153.2 13.1 L 144.4 13.1 C 144.4 13.1 144.41 12.92 144.4 12.9 C 146.4 10.9 149.5 7.6 149.5 5.1 C 149.5 3.8 148.6 3.1 147.7 3.1 C 146.7 3.1 145.7 3.7 144.8 4.7 C 144.8 4.7 144.8 2 144.8 2 C 146.1 1 147.2 0.7 148.4 0.7 C 150.7 0.7 152.3 2.2 152.3 4.5 Z M 159 11 C 160 11 160.5 9.9 160.5 7 C 160.5 4.4 160.1 3 159 3 C 158.1 3 157.4 4.1 157.4 7 C 157.4 9.7 157.9 11 159 11 Z M 163.5 7 C 163.5 11.1 161.5 13.3 159 13.3 C 156.4 13.3 154.5 11.1 154.5 7 C 154.5 2.8 156.6 0.7 159 0.7 C 161.5 0.7 163.5 3 163.5 7 Z M 172.7 4.5 C 172.7 6.9 170.6 9.3 169.4 10.7 C 169.43 10.69 173.6 10.7 173.6 10.7 L 173.6 13.1 L 164.8 13.1 C 164.8 13.1 164.79 12.92 164.8 12.9 C 166.7 10.9 169.9 7.6 169.9 5.1 C 169.9 3.8 169 3.1 168 3.1 C 167.1 3.1 166 3.7 165.1 4.7 C 165.1 4.7 165.1 2 165.1 2 C 166.5 1 167.6 0.7 168.8 0.7 C 171 0.7 172.7 2.2 172.7 4.5 Z M 182.6 0.8 L 182.6 3.1 L 178.4 3.1 C 178.4 3.1 178.45 5.53 178.4 5.5 C 178.8 5.5 178.8 5.5 179.1 5.5 C 181.6 5.5 183.2 7.2 183.2 9.3 C 183.2 11.5 181.7 13.3 178.9 13.3 C 177.6 13.3 176.3 13 175.2 12.2 C 175.2 12.2 175.2 9.8 175.2 9.8 C 176.1 10.4 177.4 11 178.4 11 C 179.7 11 180.3 10.2 180.3 9.3 C 180.3 8.1 179.1 7.5 177.8 7.5 C 177.2 7.5 176.5 7.6 176.1 7.8 C 176.07 7.78 176.1 0.8 176.1 0.8 L 182.6 0.8 Z " stroke="none" fill="#000"/>  </g></svg>