<?xml version="1.0" standalone="no"?><!DOCTYPE svg PUBLIC "-//W3C//DTD SVG 1.1//EN" "http://www.w3.org/Graphics/SVG/1.1/DTD/svg11.dtd"><svg xmlns="http://www.w3.org/2000/svg" version="1.1" width="237px" height="35.9px" viewBox="0 -1 237 35.9" style="top:-1px">  <desc>Business &amp; Administration</desc>  <defs/>  <g id="Polygon112339">    <path d="M 1 10.5 C 1 10.5 5.03 10.51 5 10.5 C 5.8 10.5 6.4 10.5 6.8 10.6 C 7.2 10.7 7.5 10.8 7.9 11 C 8.2 11.2 8.4 11.5 8.6 11.9 C 8.8 12.2 8.9 12.6 8.9 13 C 8.9 13.5 8.8 13.9 8.5 14.3 C 8.3 14.7 8 15 7.5 15.2 C 8.1 15.4 8.6 15.7 8.9 16.1 C 9.3 16.5 9.4 17 9.4 17.6 C 9.4 18.1 9.3 18.5 9.1 19 C 8.9 19.4 8.6 19.7 8.2 20 C 7.9 20.2 7.4 20.4 6.9 20.5 C 6.5 20.5 5.7 20.5 4.4 20.5 C 4.44 20.53 1 20.5 1 20.5 L 1 10.5 Z M 3 12.2 L 3 14.5 C 3 14.5 4.38 14.49 4.4 14.5 C 5.2 14.5 5.7 14.5 5.8 14.5 C 6.2 14.4 6.5 14.3 6.7 14.1 C 6.9 13.9 7 13.6 7 13.3 C 7 13 6.9 12.8 6.7 12.6 C 6.5 12.4 6.3 12.2 5.9 12.2 C 5.7 12.2 5.2 12.2 4.2 12.2 C 4.21 12.17 3 12.2 3 12.2 Z M 3 16.2 L 3 18.8 C 3 18.8 4.92 18.84 4.9 18.8 C 5.7 18.8 6.1 18.8 6.3 18.8 C 6.6 18.7 6.9 18.6 7 18.4 C 7.2 18.2 7.3 17.9 7.3 17.5 C 7.3 17.2 7.3 17 7.1 16.8 C 7 16.6 6.8 16.4 6.5 16.3 C 6.2 16.2 5.6 16.2 4.7 16.2 C 4.68 16.16 3 16.2 3 16.2 Z M 15.9 20.5 C 15.9 20.5 15.89 19.44 15.9 19.4 C 15.6 19.8 15.3 20.1 14.9 20.4 C 14.4 20.6 14 20.7 13.5 20.7 C 13 20.7 12.6 20.6 12.2 20.4 C 11.8 20.2 11.5 19.9 11.3 19.5 C 11.2 19.1 11.1 18.5 11.1 17.9 C 11.07 17.86 11.1 13.3 11.1 13.3 L 13 13.3 C 13 13.3 13 16.6 13 16.6 C 13 17.6 13 18.3 13.1 18.5 C 13.2 18.7 13.3 18.9 13.5 19 C 13.7 19.2 13.9 19.2 14.2 19.2 C 14.5 19.2 14.8 19.1 15.1 19 C 15.3 18.8 15.5 18.6 15.6 18.3 C 15.7 18 15.8 17.4 15.8 16.3 C 15.76 16.33 15.8 13.3 15.8 13.3 L 17.7 13.3 L 17.7 20.5 L 15.9 20.5 Z M 19 18.5 C 19 18.5 20.9 18.2 20.9 18.2 C 21 18.5 21.2 18.8 21.4 19 C 21.7 19.2 22 19.3 22.5 19.3 C 23 19.3 23.3 19.2 23.6 19 C 23.8 18.9 23.8 18.7 23.8 18.5 C 23.8 18.4 23.8 18.3 23.7 18.2 C 23.6 18.1 23.4 18 23.1 17.9 C 21.5 17.6 20.5 17.2 20.1 17 C 19.5 16.6 19.3 16 19.3 15.3 C 19.3 14.7 19.5 14.2 20 13.7 C 20.5 13.3 21.3 13.1 22.3 13.1 C 23.3 13.1 24 13.3 24.5 13.6 C 25 13.9 25.3 14.4 25.5 15 C 25.5 15 23.7 15.4 23.7 15.4 C 23.6 15.1 23.5 14.9 23.3 14.7 C 23.1 14.6 22.7 14.5 22.3 14.5 C 21.8 14.5 21.5 14.6 21.3 14.7 C 21.1 14.8 21 14.9 21 15.1 C 21 15.2 21.1 15.3 21.2 15.4 C 21.4 15.6 22 15.7 23 16 C 24 16.2 24.8 16.5 25.2 16.8 C 25.6 17.2 25.8 17.6 25.8 18.3 C 25.8 18.9 25.5 19.5 24.9 20 C 24.4 20.5 23.6 20.7 22.5 20.7 C 21.5 20.7 20.7 20.5 20.1 20.1 C 19.5 19.7 19.2 19.1 19 18.5 Z M 27.5 12.3 L 27.5 10.5 L 29.4 10.5 L 29.4 12.3 L 27.5 12.3 Z M 27.5 20.5 L 27.5 13.3 L 29.4 13.3 L 29.4 20.5 L 27.5 20.5 Z M 37.9 20.5 L 36 20.5 C 36 20.5 36.03 16.82 36 16.8 C 36 16 36 15.5 35.9 15.3 C 35.8 15.1 35.7 14.9 35.5 14.8 C 35.3 14.6 35.1 14.6 34.8 14.6 C 34.5 14.6 34.2 14.7 33.9 14.8 C 33.7 15 33.5 15.3 33.4 15.6 C 33.3 15.9 33.3 16.4 33.3 17.2 C 33.25 17.24 33.3 20.5 33.3 20.5 L 31.3 20.5 L 31.3 13.3 L 33.1 13.3 C 33.1 13.3 33.11 14.33 33.1 14.3 C 33.7 13.5 34.5 13.1 35.5 13.1 C 35.9 13.1 36.3 13.2 36.7 13.3 C 37 13.5 37.3 13.7 37.5 13.9 C 37.6 14.2 37.8 14.4 37.8 14.7 C 37.9 15 37.9 15.5 37.9 16 C 37.95 16.02 37.9 20.5 37.9 20.5 Z M 44.1 18.2 C 44.1 18.2 46 18.5 46 18.5 C 45.8 19.2 45.4 19.8 44.8 20.1 C 44.3 20.5 43.7 20.7 42.9 20.7 C 41.6 20.7 40.7 20.3 40.1 19.5 C 39.6 18.8 39.3 18 39.3 17 C 39.3 15.7 39.6 14.8 40.3 14.1 C 40.9 13.4 41.7 13.1 42.7 13.1 C 43.7 13.1 44.6 13.5 45.2 14.2 C 45.8 14.9 46.1 16 46.1 17.5 C 46.1 17.5 41.3 17.5 41.3 17.5 C 41.3 18 41.5 18.5 41.8 18.8 C 42.1 19.1 42.4 19.3 42.9 19.3 C 43.2 19.3 43.4 19.2 43.6 19 C 43.8 18.8 44 18.6 44.1 18.2 Z M 44.2 16.3 C 44.2 15.7 44.1 15.3 43.8 15 C 43.5 14.7 43.2 14.6 42.8 14.6 C 42.4 14.6 42 14.7 41.7 15 C 41.5 15.3 41.3 15.8 41.3 16.3 C 41.3 16.3 44.2 16.3 44.2 16.3 Z M 47 18.5 C 47 18.5 48.9 18.2 48.9 18.2 C 49 18.5 49.2 18.8 49.4 19 C 49.7 19.2 50 19.3 50.5 19.3 C 51 19.3 51.4 19.2 51.6 19 C 51.8 18.9 51.9 18.7 51.9 18.5 C 51.9 18.4 51.8 18.3 51.7 18.2 C 51.6 18.1 51.4 18 51.1 17.9 C 49.5 17.6 48.5 17.2 48.1 17 C 47.6 16.6 47.3 16 47.3 15.3 C 47.3 14.7 47.5 14.2 48 13.7 C 48.5 13.3 49.3 13.1 50.3 13.1 C 51.3 13.1 52.1 13.3 52.5 13.6 C 53 13.9 53.4 14.4 53.5 15 C 53.5 15 51.7 15.4 51.7 15.4 C 51.6 15.1 51.5 14.9 51.3 14.7 C 51.1 14.6 50.8 14.5 50.4 14.5 C 49.9 14.5 49.5 14.6 49.3 14.7 C 49.1 14.8 49.1 14.9 49.1 15.1 C 49.1 15.2 49.1 15.3 49.2 15.4 C 49.4 15.6 50 15.7 51 16 C 52.1 16.2 52.8 16.5 53.2 16.8 C 53.6 17.2 53.8 17.6 53.8 18.3 C 53.8 18.9 53.5 19.5 53 20 C 52.4 20.5 51.6 20.7 50.5 20.7 C 49.5 20.7 48.7 20.5 48.1 20.1 C 47.6 19.7 47.2 19.1 47 18.5 Z M 54.8 18.5 C 54.8 18.5 56.7 18.2 56.7 18.2 C 56.8 18.5 57 18.8 57.2 19 C 57.5 19.2 57.8 19.3 58.3 19.3 C 58.8 19.3 59.1 19.2 59.4 19 C 59.6 18.9 59.6 18.7 59.6 18.5 C 59.6 18.4 59.6 18.3 59.5 18.2 C 59.4 18.1 59.2 18 58.9 17.9 C 57.3 17.6 56.3 17.2 55.9 17 C 55.3 16.6 55.1 16 55.1 15.3 C 55.1 14.7 55.3 14.2 55.8 13.7 C 56.3 13.3 57.1 13.1 58.1 13.1 C 59.1 13.1 59.8 13.3 60.3 13.6 C 60.8 13.9 61.1 14.4 61.3 15 C 61.3 15 59.5 15.4 59.5 15.4 C 59.4 15.1 59.3 14.9 59.1 14.7 C 58.9 14.6 58.5 14.5 58.1 14.5 C 57.6 14.5 57.3 14.6 57.1 14.7 C 56.9 14.8 56.8 14.9 56.8 15.1 C 56.8 15.2 56.9 15.3 57 15.4 C 57.2 15.6 57.8 15.7 58.8 16 C 59.8 16.2 60.6 16.5 61 16.8 C 61.4 17.2 61.6 17.6 61.6 18.3 C 61.6 18.9 61.3 19.5 60.7 20 C 60.2 20.5 59.4 20.7 58.3 20.7 C 57.3 20.7 56.5 20.5 55.9 20.1 C 55.3 19.7 55 19.1 54.8 18.5 Z M 76 19.3 C 76 19.3 74.9 20.8 74.9 20.8 C 74.3 20.5 73.7 20.1 73.2 19.6 C 72.8 20 72.4 20.3 71.9 20.4 C 71.5 20.6 70.9 20.7 70.3 20.7 C 69.1 20.7 68.1 20.4 67.5 19.7 C 67 19.1 66.8 18.5 66.8 17.8 C 66.8 17.1 66.9 16.6 67.3 16 C 67.7 15.5 68.3 15.1 69 14.7 C 68.7 14.3 68.4 13.9 68.3 13.6 C 68.1 13.2 68 12.8 68 12.5 C 68 11.9 68.3 11.4 68.7 11 C 69.2 10.5 69.9 10.3 70.8 10.3 C 71.7 10.3 72.4 10.6 72.8 11 C 73.3 11.4 73.6 12 73.6 12.6 C 73.6 13 73.5 13.4 73.2 13.8 C 73 14.1 72.5 14.6 71.8 15 C 71.8 15 73.1 16.9 73.1 16.9 C 73.3 16.6 73.4 16.2 73.6 15.7 C 73.6 15.7 75.3 16.1 75.3 16.1 C 75.1 16.7 75 17.2 74.9 17.5 C 74.7 17.7 74.6 18 74.4 18.2 C 74.7 18.4 74.9 18.6 75.3 18.8 C 75.6 19.1 75.9 19.2 76 19.3 Z M 70.8 13.9 C 70.8 13.9 71.31 13.46 71.3 13.5 C 71.7 13.2 71.9 12.9 71.9 12.6 C 71.9 12.3 71.8 12.1 71.6 11.9 C 71.4 11.8 71.2 11.7 70.9 11.7 C 70.6 11.7 70.3 11.8 70.1 11.9 C 70 12.1 69.9 12.2 69.9 12.4 C 69.9 12.7 70 13 70.3 13.3 C 70.32 13.31 70.8 13.9 70.8 13.9 Z M 70 15.9 C 69.6 16.2 69.3 16.4 69 16.7 C 68.8 17.1 68.7 17.4 68.7 17.7 C 68.7 18.1 68.9 18.5 69.1 18.7 C 69.4 19 69.8 19.1 70.2 19.1 C 70.5 19.1 70.8 19.1 71.1 18.9 C 71.4 18.8 71.7 18.6 72 18.4 C 72 18.4 70 15.9 70 15.9 Z M 89.7 20.5 L 87.5 20.5 L 86.6 18.3 L 82.6 18.3 L 81.8 20.5 L 79.6 20.5 L 83.5 10.5 L 85.7 10.5 L 89.7 20.5 Z M 85.9 16.6 L 84.6 12.8 L 83.2 16.6 L 85.9 16.6 Z M 97.4 20.5 L 95.6 20.5 C 95.6 20.5 95.61 19.46 95.6 19.5 C 95.3 19.9 95 20.2 94.6 20.4 C 94.2 20.6 93.7 20.7 93.3 20.7 C 92.5 20.7 91.8 20.4 91.2 19.7 C 90.6 19 90.3 18.1 90.3 16.9 C 90.3 15.6 90.6 14.7 91.2 14.1 C 91.7 13.4 92.5 13.1 93.4 13.1 C 94.2 13.1 94.9 13.4 95.5 14.1 C 95.47 14.12 95.5 10.5 95.5 10.5 L 97.4 10.5 L 97.4 20.5 Z M 92.3 16.7 C 92.3 17.5 92.4 18.1 92.6 18.4 C 92.9 18.9 93.3 19.2 93.9 19.2 C 94.3 19.2 94.7 19 95 18.6 C 95.3 18.2 95.5 17.7 95.5 16.9 C 95.5 16.1 95.3 15.5 95 15.1 C 94.7 14.8 94.3 14.6 93.9 14.6 C 93.4 14.6 93 14.8 92.7 15.1 C 92.4 15.5 92.3 16 92.3 16.7 Z M 99.1 13.3 L 100.9 13.3 C 100.9 13.3 100.91 14.26 100.9 14.3 C 101.5 13.5 102.3 13.1 103.2 13.1 C 103.6 13.1 104 13.2 104.4 13.4 C 104.7 13.6 105 13.9 105.2 14.3 C 105.5 13.9 105.9 13.6 106.3 13.4 C 106.6 13.2 107 13.1 107.4 13.1 C 108 13.1 108.4 13.2 108.8 13.4 C 109.2 13.6 109.4 14 109.6 14.4 C 109.8 14.7 109.8 15.2 109.8 15.9 C 109.82 15.89 109.8 20.5 109.8 20.5 L 107.9 20.5 C 107.9 20.5 107.9 16.38 107.9 16.4 C 107.9 15.7 107.8 15.2 107.7 15 C 107.5 14.7 107.2 14.6 106.9 14.6 C 106.6 14.6 106.4 14.7 106.1 14.8 C 105.9 15 105.7 15.2 105.6 15.5 C 105.5 15.9 105.5 16.4 105.5 17 C 105.45 17.04 105.5 20.5 105.5 20.5 L 103.5 20.5 C 103.5 20.5 103.53 16.55 103.5 16.5 C 103.5 15.8 103.5 15.4 103.4 15.2 C 103.4 15 103.3 14.8 103.1 14.7 C 103 14.6 102.8 14.6 102.5 14.6 C 102.2 14.6 102 14.7 101.7 14.8 C 101.5 15 101.3 15.2 101.2 15.5 C 101.1 15.8 101.1 16.3 101.1 17 C 101.06 17 101.1 20.5 101.1 20.5 L 99.1 20.5 L 99.1 13.3 Z M 111.7 12.3 L 111.7 10.5 L 113.7 10.5 L 113.7 12.3 L 111.7 12.3 Z M 111.7 20.5 L 111.7 13.3 L 113.7 13.3 L 113.7 20.5 L 111.7 20.5 Z M 122.2 20.5 L 120.3 20.5 C 120.3 20.5 120.31 16.82 120.3 16.8 C 120.3 16 120.3 15.5 120.2 15.3 C 120.1 15.1 120 14.9 119.8 14.8 C 119.6 14.6 119.4 14.6 119.1 14.6 C 118.8 14.6 118.5 14.7 118.2 14.8 C 118 15 117.8 15.3 117.7 15.6 C 117.6 15.9 117.5 16.4 117.5 17.2 C 117.53 17.24 117.5 20.5 117.5 20.5 L 115.6 20.5 L 115.6 13.3 L 117.4 13.3 C 117.4 13.3 117.39 14.33 117.4 14.3 C 118 13.5 118.8 13.1 119.8 13.1 C 120.2 13.1 120.6 13.2 120.9 13.3 C 121.3 13.5 121.6 13.7 121.7 13.9 C 121.9 14.2 122 14.4 122.1 14.7 C 122.2 15 122.2 15.5 122.2 16 C 122.23 16.02 122.2 20.5 122.2 20.5 Z M 124.2 12.3 L 124.2 10.5 L 126.1 10.5 L 126.1 12.3 L 124.2 12.3 Z M 124.2 20.5 L 124.2 13.3 L 126.1 13.3 L 126.1 20.5 L 124.2 20.5 Z M 127.4 18.5 C 127.4 18.5 129.3 18.2 129.3 18.2 C 129.4 18.5 129.6 18.8 129.8 19 C 130.1 19.2 130.4 19.3 130.9 19.3 C 131.4 19.3 131.7 19.2 132 19 C 132.2 18.9 132.2 18.7 132.2 18.5 C 132.2 18.4 132.2 18.3 132.1 18.2 C 132 18.1 131.8 18 131.5 17.9 C 129.9 17.6 128.9 17.2 128.5 17 C 127.9 16.6 127.7 16 127.7 15.3 C 127.7 14.7 127.9 14.2 128.4 13.7 C 128.9 13.3 129.7 13.1 130.7 13.1 C 131.7 13.1 132.4 13.3 132.9 13.6 C 133.4 13.9 133.7 14.4 133.9 15 C 133.9 15 132.1 15.4 132.1 15.4 C 132 15.1 131.9 14.9 131.7 14.7 C 131.5 14.6 131.1 14.5 130.7 14.5 C 130.2 14.5 129.9 14.6 129.7 14.7 C 129.5 14.8 129.4 14.9 129.4 15.1 C 129.4 15.2 129.5 15.3 129.6 15.4 C 129.8 15.6 130.4 15.7 131.4 16 C 132.4 16.2 133.2 16.5 133.6 16.8 C 134 17.2 134.2 17.6 134.2 18.3 C 134.2 18.9 133.9 19.5 133.3 20 C 132.8 20.5 132 20.7 130.9 20.7 C 129.9 20.7 129.1 20.5 128.5 20.1 C 127.9 19.7 127.6 19.1 127.4 18.5 Z M 139.2 13.3 L 139.2 14.8 L 137.9 14.8 C 137.9 14.8 137.87 17.73 137.9 17.7 C 137.9 18.3 137.9 18.7 137.9 18.8 C 137.9 18.9 138 18.9 138.1 19 C 138.2 19.1 138.3 19.1 138.4 19.1 C 138.6 19.1 138.8 19 139.2 18.9 C 139.2 18.9 139.3 20.4 139.3 20.4 C 138.9 20.6 138.4 20.7 137.8 20.7 C 137.5 20.7 137.2 20.6 136.9 20.5 C 136.6 20.4 136.4 20.3 136.3 20.1 C 136.1 19.9 136.1 19.6 136 19.3 C 136 19.1 135.9 18.6 135.9 18 C 135.94 17.96 135.9 14.8 135.9 14.8 L 135.1 14.8 L 135.1 13.3 L 135.9 13.3 L 135.9 11.8 L 137.9 10.7 L 137.9 13.3 L 139.2 13.3 Z M 142.4 20.5 L 140.4 20.5 L 140.4 13.3 L 142.2 13.3 C 142.2 13.3 142.21 14.3 142.2 14.3 C 142.5 13.8 142.8 13.5 143 13.3 C 143.3 13.2 143.6 13.1 143.9 13.1 C 144.3 13.1 144.7 13.2 145.1 13.5 C 145.1 13.5 144.5 15.1 144.5 15.1 C 144.2 14.9 143.9 14.8 143.6 14.8 C 143.4 14.8 143.1 14.9 143 15 C 142.8 15.2 142.6 15.5 142.5 15.9 C 142.4 16.2 142.4 17.1 142.4 18.3 C 142.35 18.29 142.4 20.5 142.4 20.5 Z M 147.4 15.5 C 147.4 15.5 145.7 15.2 145.7 15.2 C 145.8 14.5 146.2 13.9 146.7 13.6 C 147.1 13.3 147.9 13.1 148.8 13.1 C 149.7 13.1 150.3 13.2 150.7 13.4 C 151.1 13.6 151.4 13.9 151.6 14.2 C 151.8 14.5 151.9 15.1 151.9 15.9 C 151.9 15.9 151.8 18.1 151.8 18.1 C 151.8 18.8 151.9 19.3 151.9 19.6 C 152 19.9 152.1 20.2 152.3 20.5 C 152.3 20.5 150.4 20.5 150.4 20.5 C 150.3 20.4 150.3 20.2 150.2 20 C 150.2 19.8 150.1 19.8 150.1 19.7 C 149.8 20.1 149.4 20.3 149.1 20.5 C 148.7 20.6 148.3 20.7 147.9 20.7 C 147.1 20.7 146.5 20.5 146.1 20.1 C 145.7 19.7 145.5 19.2 145.5 18.5 C 145.5 18.1 145.6 17.8 145.7 17.4 C 145.9 17.1 146.2 16.9 146.6 16.7 C 146.9 16.5 147.4 16.4 148.1 16.3 C 149 16.1 149.6 15.9 150 15.8 C 150 15.8 150 15.6 150 15.6 C 150 15.2 149.9 15 149.7 14.8 C 149.5 14.7 149.2 14.6 148.7 14.6 C 148.3 14.6 148.1 14.6 147.9 14.8 C 147.7 14.9 147.5 15.1 147.4 15.5 Z M 150 17 C 149.7 17.1 149.3 17.2 148.8 17.3 C 148.3 17.4 147.9 17.6 147.8 17.7 C 147.5 17.8 147.4 18.1 147.4 18.3 C 147.4 18.6 147.5 18.8 147.7 19 C 147.9 19.2 148.1 19.3 148.4 19.3 C 148.8 19.3 149.1 19.2 149.4 19 C 149.7 18.8 149.8 18.6 149.9 18.4 C 149.9 18.2 150 17.9 150 17.4 C 150 17.4 150 17 150 17 Z M 157.1 13.3 L 157.1 14.8 L 155.8 14.8 C 155.8 14.8 155.76 17.73 155.8 17.7 C 155.8 18.3 155.8 18.7 155.8 18.8 C 155.8 18.9 155.9 18.9 156 19 C 156.1 19.1 156.2 19.1 156.3 19.1 C 156.5 19.1 156.7 19 157.1 18.9 C 157.1 18.9 157.2 20.4 157.2 20.4 C 156.8 20.6 156.3 20.7 155.7 20.7 C 155.4 20.7 155.1 20.6 154.8 20.5 C 154.5 20.4 154.3 20.3 154.2 20.1 C 154 19.9 153.9 19.6 153.9 19.3 C 153.9 19.1 153.8 18.6 153.8 18 C 153.84 17.96 153.8 14.8 153.8 14.8 L 153 14.8 L 153 13.3 L 153.8 13.3 L 153.8 11.8 L 155.8 10.7 L 155.8 13.3 L 157.1 13.3 Z M 158.4 12.3 L 158.4 10.5 L 160.3 10.5 L 160.3 12.3 L 158.4 12.3 Z M 158.4 20.5 L 158.4 13.3 L 160.3 13.3 L 160.3 20.5 L 158.4 20.5 Z M 161.9 16.8 C 161.9 16.2 162 15.5 162.3 14.9 C 162.6 14.3 163.1 13.9 163.7 13.6 C 164.2 13.3 164.9 13.1 165.6 13.1 C 166.7 13.1 167.6 13.5 168.3 14.2 C 169 14.9 169.3 15.8 169.3 16.9 C 169.3 18 169 18.9 168.3 19.6 C 167.6 20.3 166.7 20.7 165.6 20.7 C 164.9 20.7 164.3 20.5 163.7 20.2 C 163.1 19.9 162.6 19.5 162.3 18.9 C 162 18.3 161.9 17.6 161.9 16.8 Z M 163.8 16.9 C 163.8 17.6 164 18.2 164.3 18.6 C 164.7 18.9 165.1 19.1 165.6 19.1 C 166.1 19.1 166.5 18.9 166.9 18.6 C 167.2 18.2 167.4 17.6 167.4 16.9 C 167.4 16.2 167.2 15.6 166.9 15.2 C 166.5 14.9 166.1 14.7 165.6 14.7 C 165.1 14.7 164.7 14.9 164.3 15.2 C 164 15.6 163.8 16.2 163.8 16.9 Z M 177.5 20.5 L 175.5 20.5 C 175.5 20.5 175.53 16.82 175.5 16.8 C 175.5 16 175.5 15.5 175.4 15.3 C 175.3 15.1 175.2 14.9 175 14.8 C 174.8 14.6 174.6 14.6 174.3 14.6 C 174 14.6 173.7 14.7 173.4 14.8 C 173.2 15 173 15.3 172.9 15.6 C 172.8 15.9 172.8 16.4 172.8 17.2 C 172.76 17.24 172.8 20.5 172.8 20.5 L 170.8 20.5 L 170.8 13.3 L 172.6 13.3 C 172.6 13.3 172.62 14.33 172.6 14.3 C 173.3 13.5 174.1 13.1 175 13.1 C 175.4 13.1 175.8 13.2 176.2 13.3 C 176.5 13.5 176.8 13.7 177 13.9 C 177.2 14.2 177.3 14.4 177.3 14.7 C 177.4 15 177.5 15.5 177.5 16 C 177.45 16.02 177.5 20.5 177.5 20.5 Z " stroke="none" fill="#fff"/>  </g></svg>