<?xml version="1.0" standalone="no"?><!DOCTYPE svg PUBLIC "-//W3C//DTD SVG 1.1//EN" "http://www.w3.org/Graphics/SVG/1.1/DTD/svg11.dtd"><svg xmlns="http://www.w3.org/2000/svg" version="1.1" width="125.5px" height="40.9px" viewBox="0 -5 125.5 40.9" style="top:-5px">  <desc>Dedicated Account Manager</desc>  <defs/>  <g id="Polygon106712">    <path d="M 14.1 27 L 11.9 27 L 11 24.7 L 7 24.7 L 6.2 27 L 4 27 L 7.9 17 L 10.1 17 L 14.1 27 Z M 10.3 23 L 9 19.3 L 7.6 23 L 10.3 23 Z M 21.5 21.9 C 21.5 21.9 19.6 22.2 19.6 22.2 C 19.5 21.8 19.4 21.6 19.1 21.4 C 18.9 21.2 18.6 21.1 18.3 21.1 C 17.8 21.1 17.4 21.2 17.1 21.6 C 16.8 21.9 16.7 22.5 16.7 23.2 C 16.7 24.1 16.8 24.7 17.1 25.1 C 17.4 25.4 17.8 25.6 18.3 25.6 C 18.6 25.6 18.9 25.5 19.2 25.3 C 19.4 25.1 19.6 24.7 19.7 24.2 C 19.7 24.2 21.6 24.5 21.6 24.5 C 21.4 25.4 21 26.1 20.4 26.5 C 19.9 26.9 19.1 27.2 18.2 27.2 C 17.1 27.2 16.3 26.8 15.6 26.2 C 15 25.5 14.7 24.6 14.7 23.4 C 14.7 22.2 15 21.2 15.7 20.6 C 16.3 19.9 17.1 19.6 18.2 19.6 C 19.1 19.6 19.8 19.8 20.3 20.1 C 20.9 20.5 21.2 21.1 21.5 21.9 Z M 29.2 21.9 C 29.2 21.9 27.3 22.2 27.3 22.2 C 27.3 21.8 27.1 21.6 26.9 21.4 C 26.7 21.2 26.4 21.1 26 21.1 C 25.6 21.1 25.2 21.2 24.9 21.6 C 24.6 21.9 24.5 22.5 24.5 23.2 C 24.5 24.1 24.6 24.7 24.9 25.1 C 25.2 25.4 25.6 25.6 26.1 25.6 C 26.4 25.6 26.7 25.5 27 25.3 C 27.2 25.1 27.4 24.7 27.5 24.2 C 27.5 24.2 29.3 24.5 29.3 24.5 C 29.1 25.4 28.8 26.1 28.2 26.5 C 27.7 26.9 26.9 27.2 26 27.2 C 24.9 27.2 24.1 26.8 23.4 26.2 C 22.8 25.5 22.5 24.6 22.5 23.4 C 22.5 22.2 22.8 21.2 23.4 20.6 C 24.1 19.9 24.9 19.6 26 19.6 C 26.9 19.6 27.6 19.8 28.1 20.1 C 28.6 20.5 29 21.1 29.2 21.9 Z M 30.3 23.3 C 30.3 22.6 30.4 22 30.7 21.4 C 31 20.8 31.5 20.4 32.1 20 C 32.6 19.7 33.3 19.6 34 19.6 C 35.1 19.6 36 19.9 36.7 20.6 C 37.4 21.4 37.7 22.3 37.7 23.3 C 37.7 24.4 37.4 25.4 36.7 26.1 C 36 26.8 35.1 27.2 34 27.2 C 33.3 27.2 32.7 27 32.1 26.7 C 31.5 26.4 31 26 30.7 25.4 C 30.4 24.8 30.3 24.1 30.3 23.3 Z M 32.2 23.4 C 32.2 24.1 32.4 24.6 32.7 25 C 33.1 25.4 33.5 25.6 34 25.6 C 34.5 25.6 34.9 25.4 35.3 25 C 35.6 24.6 35.8 24.1 35.8 23.3 C 35.8 22.6 35.6 22.1 35.3 21.7 C 34.9 21.3 34.5 21.1 34 21.1 C 33.5 21.1 33.1 21.3 32.7 21.7 C 32.4 22.1 32.2 22.6 32.2 23.4 Z M 44 27 C 44 27 44.03 25.91 44 25.9 C 43.8 26.3 43.4 26.6 43 26.8 C 42.6 27 42.1 27.2 41.6 27.2 C 41.1 27.2 40.7 27 40.3 26.8 C 39.9 26.6 39.6 26.3 39.5 25.9 C 39.3 25.5 39.2 25 39.2 24.3 C 39.21 24.33 39.2 19.7 39.2 19.7 L 41.1 19.7 C 41.1 19.7 41.13 23.07 41.1 23.1 C 41.1 24.1 41.2 24.7 41.2 24.9 C 41.3 25.2 41.4 25.4 41.6 25.5 C 41.8 25.6 42 25.7 42.3 25.7 C 42.7 25.7 43 25.6 43.2 25.4 C 43.5 25.2 43.7 25 43.7 24.8 C 43.8 24.5 43.9 23.8 43.9 22.8 C 43.89 22.8 43.9 19.7 43.9 19.7 L 45.8 19.7 L 45.8 27 L 44 27 Z M 54.4 27 L 52.5 27 C 52.5 27 52.49 23.29 52.5 23.3 C 52.5 22.5 52.4 22 52.4 21.8 C 52.3 21.5 52.1 21.4 52 21.2 C 51.8 21.1 51.6 21 51.3 21 C 51 21 50.7 21.1 50.4 21.3 C 50.1 21.5 50 21.7 49.9 22 C 49.8 22.3 49.7 22.9 49.7 23.7 C 49.71 23.7 49.7 27 49.7 27 L 47.8 27 L 47.8 19.7 L 49.6 19.7 C 49.6 19.7 49.57 20.8 49.6 20.8 C 50.2 20 51 19.6 52 19.6 C 52.4 19.6 52.8 19.6 53.1 19.8 C 53.5 20 53.7 20.1 53.9 20.4 C 54.1 20.6 54.2 20.9 54.3 21.2 C 54.4 21.5 54.4 21.9 54.4 22.5 C 54.41 22.48 54.4 27 54.4 27 Z M 59.7 19.7 L 59.7 21.3 L 58.4 21.3 C 58.4 21.3 58.37 24.19 58.4 24.2 C 58.4 24.8 58.4 25.1 58.4 25.2 C 58.4 25.3 58.5 25.4 58.6 25.5 C 58.7 25.5 58.8 25.6 58.9 25.6 C 59.1 25.6 59.3 25.5 59.7 25.4 C 59.7 25.4 59.8 26.9 59.8 26.9 C 59.4 27.1 58.9 27.2 58.3 27.2 C 58 27.2 57.7 27.1 57.4 27 C 57.1 26.9 56.9 26.7 56.8 26.5 C 56.6 26.3 56.6 26.1 56.5 25.8 C 56.5 25.6 56.4 25.1 56.4 24.4 C 56.44 24.43 56.4 21.3 56.4 21.3 L 55.6 21.3 L 55.6 19.7 L 56.4 19.7 L 56.4 18.3 L 58.4 17.2 L 58.4 19.7 L 59.7 19.7 Z M 64.9 27 L 64.9 17 L 67.9 17 L 69.7 23.8 L 71.5 17 L 74.6 17 L 74.6 27 L 72.7 27 L 72.7 19.1 L 70.7 27 L 68.8 27 L 66.8 19.1 L 66.8 27 L 64.9 27 Z M 78 21.9 C 78 21.9 76.3 21.6 76.3 21.6 C 76.5 20.9 76.8 20.4 77.3 20.1 C 77.8 19.7 78.5 19.6 79.4 19.6 C 80.3 19.6 80.9 19.7 81.3 19.9 C 81.7 20.1 82 20.3 82.2 20.6 C 82.4 21 82.5 21.5 82.5 22.4 C 82.5 22.4 82.4 24.6 82.4 24.6 C 82.4 25.2 82.5 25.7 82.5 26 C 82.6 26.3 82.7 26.6 82.9 27 C 82.9 27 81 27 81 27 C 80.9 26.9 80.9 26.7 80.8 26.4 C 80.8 26.3 80.7 26.2 80.7 26.2 C 80.4 26.5 80 26.8 79.7 26.9 C 79.3 27.1 78.9 27.2 78.5 27.2 C 77.7 27.2 77.1 27 76.7 26.5 C 76.3 26.1 76.1 25.6 76.1 25 C 76.1 24.6 76.2 24.2 76.4 23.9 C 76.6 23.6 76.8 23.3 77.2 23.2 C 77.5 23 78 22.9 78.7 22.7 C 79.6 22.6 80.2 22.4 80.6 22.3 C 80.6 22.3 80.6 22.1 80.6 22.1 C 80.6 21.7 80.5 21.4 80.3 21.3 C 80.1 21.1 79.8 21 79.3 21 C 78.9 21 78.7 21.1 78.5 21.2 C 78.3 21.4 78.1 21.6 78 21.9 Z M 80.6 23.5 C 80.3 23.6 79.9 23.7 79.4 23.8 C 78.9 23.9 78.5 24 78.4 24.1 C 78.1 24.3 78 24.5 78 24.8 C 78 25.1 78.1 25.3 78.3 25.5 C 78.5 25.7 78.7 25.8 79 25.8 C 79.4 25.8 79.7 25.7 80 25.5 C 80.3 25.3 80.4 25.1 80.5 24.8 C 80.5 24.7 80.6 24.3 80.6 23.9 C 80.6 23.9 80.6 23.5 80.6 23.5 Z M 91 27 L 89 27 C 89 27 89.04 23.29 89 23.3 C 89 22.5 89 22 88.9 21.8 C 88.8 21.5 88.7 21.4 88.5 21.2 C 88.3 21.1 88.1 21 87.8 21 C 87.5 21 87.2 21.1 87 21.3 C 86.7 21.5 86.5 21.7 86.4 22 C 86.3 22.3 86.3 22.9 86.3 23.7 C 86.26 23.7 86.3 27 86.3 27 L 84.3 27 L 84.3 19.7 L 86.1 19.7 C 86.1 19.7 86.12 20.8 86.1 20.8 C 86.8 20 87.6 19.6 88.5 19.6 C 88.9 19.6 89.3 19.6 89.7 19.8 C 90 20 90.3 20.1 90.5 20.4 C 90.7 20.6 90.8 20.9 90.9 21.2 C 90.9 21.5 91 21.9 91 22.5 C 90.96 22.48 91 27 91 27 Z M 94.3 21.9 C 94.3 21.9 92.6 21.6 92.6 21.6 C 92.8 20.9 93.1 20.4 93.6 20.1 C 94.1 19.7 94.8 19.6 95.7 19.6 C 96.6 19.6 97.2 19.7 97.7 19.9 C 98.1 20.1 98.4 20.3 98.5 20.6 C 98.7 21 98.8 21.5 98.8 22.4 C 98.8 22.4 98.8 24.6 98.8 24.6 C 98.8 25.2 98.8 25.7 98.9 26 C 98.9 26.3 99 26.6 99.2 27 C 99.2 27 97.3 27 97.3 27 C 97.3 26.9 97.2 26.7 97.1 26.4 C 97.1 26.3 97.1 26.2 97.1 26.2 C 96.7 26.5 96.4 26.8 96 26.9 C 95.6 27.1 95.2 27.2 94.8 27.2 C 94.1 27.2 93.5 27 93 26.5 C 92.6 26.1 92.4 25.6 92.4 25 C 92.4 24.6 92.5 24.2 92.7 23.9 C 92.9 23.6 93.2 23.3 93.5 23.2 C 93.9 23 94.4 22.9 95 22.7 C 95.9 22.6 96.6 22.4 96.9 22.3 C 96.9 22.3 96.9 22.1 96.9 22.1 C 96.9 21.7 96.8 21.4 96.6 21.3 C 96.5 21.1 96.1 21 95.6 21 C 95.3 21 95 21.1 94.8 21.2 C 94.6 21.4 94.5 21.6 94.3 21.9 Z M 96.9 23.5 C 96.7 23.6 96.3 23.7 95.7 23.8 C 95.2 23.9 94.9 24 94.7 24.1 C 94.4 24.3 94.3 24.5 94.3 24.8 C 94.3 25.1 94.4 25.3 94.6 25.5 C 94.8 25.7 95.1 25.8 95.4 25.8 C 95.7 25.8 96.1 25.7 96.4 25.5 C 96.6 25.3 96.8 25.1 96.8 24.8 C 96.9 24.7 96.9 24.3 96.9 23.9 C 96.9 23.9 96.9 23.5 96.9 23.5 Z M 100.5 27.7 C 100.5 27.6 100.5 27.6 100.5 27.5 C 100.5 27.5 102.7 27.7 102.7 27.7 C 102.7 28 102.8 28.2 103 28.3 C 103.1 28.4 103.4 28.5 103.8 28.5 C 104.3 28.5 104.7 28.4 105 28.2 C 105.1 28.1 105.2 28 105.3 27.8 C 105.4 27.6 105.4 27.3 105.4 26.9 C 105.4 26.9 105.4 25.8 105.4 25.8 C 104.8 26.6 104.1 27 103.2 27 C 102.3 27 101.5 26.6 100.9 25.8 C 100.5 25.1 100.3 24.3 100.3 23.3 C 100.3 22.1 100.6 21.2 101.1 20.5 C 101.7 19.9 102.5 19.6 103.3 19.6 C 104.2 19.6 105 20 105.5 20.8 C 105.55 20.75 105.5 19.7 105.5 19.7 L 107.3 19.7 C 107.3 19.7 107.34 26.25 107.3 26.2 C 107.3 27.1 107.3 27.7 107.1 28.2 C 107 28.6 106.8 28.9 106.5 29.2 C 106.3 29.4 105.9 29.6 105.5 29.7 C 105.1 29.9 104.5 29.9 103.9 29.9 C 102.7 29.9 101.8 29.7 101.3 29.3 C 100.8 28.9 100.5 28.4 100.5 27.7 C 100.5 27.7 100.5 27.7 100.5 27.7 Z M 102.2 23.2 C 102.2 24 102.4 24.5 102.7 24.9 C 103 25.3 103.3 25.4 103.8 25.4 C 104.3 25.4 104.6 25.3 105 24.9 C 105.3 24.5 105.5 24 105.5 23.3 C 105.5 22.5 105.3 21.9 105 21.6 C 104.7 21.2 104.3 21 103.8 21 C 103.4 21 103 21.2 102.7 21.6 C 102.4 21.9 102.2 22.5 102.2 23.2 Z M 113.4 24.7 C 113.4 24.7 115.4 25 115.4 25 C 115.1 25.7 114.7 26.2 114.2 26.6 C 113.7 27 113 27.2 112.2 27.2 C 110.9 27.2 110 26.7 109.4 25.9 C 108.9 25.3 108.7 24.4 108.7 23.4 C 108.7 22.2 109 21.3 109.6 20.6 C 110.3 19.9 111.1 19.6 112 19.6 C 113.1 19.6 113.9 19.9 114.6 20.6 C 115.2 21.4 115.5 22.4 115.5 23.9 C 115.5 23.9 110.7 23.9 110.7 23.9 C 110.7 24.5 110.8 24.9 111.1 25.2 C 111.4 25.6 111.8 25.7 112.2 25.7 C 112.5 25.7 112.8 25.6 113 25.5 C 113.2 25.3 113.3 25 113.4 24.7 Z M 113.6 22.7 C 113.5 22.2 113.4 21.8 113.1 21.5 C 112.9 21.2 112.5 21 112.1 21 C 111.7 21 111.4 21.2 111.1 21.5 C 110.8 21.8 110.7 22.2 110.7 22.7 C 110.7 22.7 113.6 22.7 113.6 22.7 Z M 118.9 27 L 116.9 27 L 116.9 19.7 L 118.7 19.7 C 118.7 19.7 118.73 20.76 118.7 20.8 C 119 20.3 119.3 20 119.6 19.8 C 119.8 19.6 120.1 19.6 120.4 19.6 C 120.8 19.6 121.2 19.7 121.7 19.9 C 121.7 19.9 121.1 21.6 121.1 21.6 C 120.7 21.4 120.4 21.3 120.2 21.3 C 119.9 21.3 119.7 21.4 119.5 21.5 C 119.3 21.7 119.1 21.9 119 22.3 C 118.9 22.7 118.9 23.5 118.9 24.8 C 118.87 24.75 118.9 27 118.9 27 Z " stroke="none" fill="#000"/>  </g>  <g id="Polygon106711">    <path d="M 30.3 0.2 C 30.3 0.2 34 0.17 34 0.2 C 34.8 0.2 35.5 0.2 35.9 0.4 C 36.5 0.5 37 0.8 37.4 1.3 C 37.8 1.7 38.2 2.3 38.4 2.9 C 38.6 3.5 38.7 4.3 38.7 5.3 C 38.7 6.1 38.6 6.8 38.4 7.4 C 38.1 8.1 37.8 8.7 37.3 9.2 C 37 9.5 36.5 9.8 35.9 10 C 35.5 10.1 34.9 10.2 34.1 10.2 C 34.11 10.19 30.3 10.2 30.3 10.2 L 30.3 0.2 Z M 32.3 1.9 L 32.3 8.5 C 32.3 8.5 33.83 8.5 33.8 8.5 C 34.4 8.5 34.8 8.5 35.1 8.4 C 35.4 8.3 35.7 8.2 35.9 8 C 36.1 7.8 36.3 7.5 36.4 7 C 36.5 6.6 36.6 6 36.6 5.2 C 36.6 4.4 36.5 3.8 36.4 3.4 C 36.3 3 36.1 2.7 35.8 2.4 C 35.6 2.2 35.3 2 34.9 2 C 34.6 1.9 34.1 1.9 33.2 1.9 C 33.23 1.87 32.3 1.9 32.3 1.9 Z M 44.6 7.9 C 44.6 7.9 46.5 8.2 46.5 8.2 C 46.3 8.9 45.9 9.4 45.4 9.8 C 44.8 10.2 44.2 10.4 43.4 10.4 C 42.1 10.4 41.2 9.9 40.6 9.1 C 40.1 8.5 39.8 7.6 39.8 6.6 C 39.8 5.4 40.2 4.5 40.8 3.8 C 41.4 3.1 42.2 2.8 43.2 2.8 C 44.3 2.8 45.1 3.1 45.7 3.8 C 46.4 4.6 46.7 5.6 46.6 7.1 C 46.6 7.1 41.8 7.1 41.8 7.1 C 41.8 7.7 42 8.1 42.3 8.4 C 42.6 8.8 42.9 8.9 43.4 8.9 C 43.7 8.9 43.9 8.8 44.1 8.7 C 44.3 8.5 44.5 8.2 44.6 7.9 Z M 44.7 5.9 C 44.7 5.4 44.6 5 44.3 4.7 C 44 4.4 43.7 4.2 43.3 4.2 C 42.9 4.2 42.5 4.4 42.2 4.7 C 42 5 41.8 5.4 41.8 5.9 C 41.8 5.9 44.7 5.9 44.7 5.9 Z M 54.8 10.2 L 53.1 10.2 C 53.1 10.2 53.06 9.13 53.1 9.1 C 52.8 9.5 52.4 9.8 52 10.1 C 51.6 10.3 51.2 10.4 50.8 10.4 C 50 10.4 49.2 10 48.7 9.3 C 48.1 8.7 47.8 7.7 47.8 6.5 C 47.8 5.3 48 4.4 48.6 3.7 C 49.2 3.1 49.9 2.8 50.8 2.8 C 51.6 2.8 52.3 3.1 52.9 3.8 C 52.93 3.78 52.9 0.2 52.9 0.2 L 54.8 0.2 L 54.8 10.2 Z M 49.7 6.4 C 49.7 7.2 49.8 7.7 50 8.1 C 50.4 8.6 50.8 8.8 51.3 8.8 C 51.8 8.8 52.2 8.7 52.5 8.3 C 52.8 7.9 52.9 7.3 52.9 6.6 C 52.9 5.8 52.8 5.2 52.5 4.8 C 52.2 4.4 51.8 4.2 51.3 4.2 C 50.9 4.2 50.5 4.4 50.2 4.8 C 49.9 5.1 49.7 5.7 49.7 6.4 Z M 56.7 1.9 L 56.7 0.2 L 58.7 0.2 L 58.7 1.9 L 56.7 1.9 Z M 56.7 10.2 L 56.7 2.9 L 58.7 2.9 L 58.7 10.2 L 56.7 10.2 Z M 67 5.1 C 67 5.1 65.1 5.4 65.1 5.4 C 65 5 64.9 4.8 64.6 4.6 C 64.4 4.4 64.1 4.3 63.8 4.3 C 63.3 4.3 62.9 4.4 62.6 4.8 C 62.3 5.1 62.2 5.7 62.2 6.4 C 62.2 7.3 62.3 7.9 62.6 8.3 C 62.9 8.6 63.3 8.8 63.8 8.8 C 64.1 8.8 64.4 8.7 64.7 8.5 C 64.9 8.3 65.1 7.9 65.2 7.4 C 65.2 7.4 67.1 7.7 67.1 7.7 C 66.9 8.6 66.5 9.3 65.9 9.7 C 65.4 10.1 64.6 10.4 63.7 10.4 C 62.6 10.4 61.8 10 61.2 9.4 C 60.5 8.7 60.2 7.8 60.2 6.6 C 60.2 5.4 60.5 4.4 61.2 3.8 C 61.8 3.1 62.6 2.8 63.7 2.8 C 64.6 2.8 65.3 3 65.8 3.3 C 66.4 3.7 66.7 4.3 67 5.1 Z M 69.9 5.1 C 69.9 5.1 68.1 4.8 68.1 4.8 C 68.3 4.1 68.6 3.6 69.1 3.3 C 69.6 2.9 70.3 2.8 71.3 2.8 C 72.1 2.8 72.7 2.9 73.2 3.1 C 73.6 3.3 73.9 3.5 74.1 3.8 C 74.2 4.2 74.3 4.7 74.3 5.6 C 74.3 5.6 74.3 7.8 74.3 7.8 C 74.3 8.4 74.3 8.9 74.4 9.2 C 74.4 9.5 74.6 9.8 74.7 10.2 C 74.7 10.2 72.8 10.2 72.8 10.2 C 72.8 10.1 72.7 9.9 72.6 9.6 C 72.6 9.5 72.6 9.4 72.6 9.4 C 72.2 9.7 71.9 10 71.5 10.1 C 71.1 10.3 70.7 10.4 70.3 10.4 C 69.6 10.4 69 10.2 68.6 9.7 C 68.1 9.3 67.9 8.8 67.9 8.2 C 67.9 7.8 68 7.4 68.2 7.1 C 68.4 6.8 68.7 6.5 69 6.4 C 69.4 6.2 69.9 6.1 70.6 5.9 C 71.5 5.8 72.1 5.6 72.4 5.5 C 72.4 5.5 72.4 5.3 72.4 5.3 C 72.4 4.9 72.3 4.6 72.1 4.5 C 72 4.3 71.6 4.2 71.1 4.2 C 70.8 4.2 70.5 4.3 70.3 4.4 C 70.1 4.6 70 4.8 69.9 5.1 Z M 72.4 6.7 C 72.2 6.8 71.8 6.9 71.3 7 C 70.7 7.1 70.4 7.2 70.2 7.3 C 70 7.5 69.8 7.7 69.8 8 C 69.8 8.3 69.9 8.5 70.1 8.7 C 70.3 8.9 70.6 9 70.9 9 C 71.2 9 71.6 8.9 71.9 8.7 C 72.1 8.5 72.3 8.3 72.3 8 C 72.4 7.9 72.4 7.5 72.4 7.1 C 72.4 7.1 72.4 6.7 72.4 6.7 Z M 79.5 2.9 L 79.5 4.5 L 78.2 4.5 C 78.2 4.5 78.22 7.39 78.2 7.4 C 78.2 8 78.2 8.3 78.3 8.4 C 78.3 8.5 78.3 8.6 78.4 8.7 C 78.5 8.7 78.6 8.8 78.8 8.8 C 78.9 8.8 79.2 8.7 79.5 8.6 C 79.5 8.6 79.7 10.1 79.7 10.1 C 79.2 10.3 78.7 10.4 78.2 10.4 C 77.8 10.4 77.5 10.3 77.2 10.2 C 77 10.1 76.8 9.9 76.6 9.7 C 76.5 9.5 76.4 9.3 76.4 9 C 76.3 8.8 76.3 8.3 76.3 7.6 C 76.29 7.63 76.3 4.5 76.3 4.5 L 75.4 4.5 L 75.4 2.9 L 76.3 2.9 L 76.3 1.5 L 78.2 0.4 L 78.2 2.9 L 79.5 2.9 Z M 85.1 7.9 C 85.1 7.9 87 8.2 87 8.2 C 86.7 8.9 86.3 9.4 85.8 9.8 C 85.3 10.2 84.6 10.4 83.8 10.4 C 82.6 10.4 81.6 9.9 81 9.1 C 80.5 8.5 80.3 7.6 80.3 6.6 C 80.3 5.4 80.6 4.5 81.2 3.8 C 81.9 3.1 82.7 2.8 83.6 2.8 C 84.7 2.8 85.6 3.1 86.2 3.8 C 86.8 4.6 87.1 5.6 87.1 7.1 C 87.1 7.1 82.3 7.1 82.3 7.1 C 82.3 7.7 82.4 8.1 82.7 8.4 C 83 8.8 83.4 8.9 83.8 8.9 C 84.1 8.9 84.4 8.8 84.6 8.7 C 84.8 8.5 85 8.2 85.1 7.9 Z M 85.2 5.9 C 85.2 5.4 85 5 84.7 4.7 C 84.5 4.4 84.1 4.2 83.7 4.2 C 83.3 4.2 83 4.4 82.7 4.7 C 82.4 5 82.3 5.4 82.3 5.9 C 82.3 5.9 85.2 5.9 85.2 5.9 Z M 95.3 10.2 L 93.5 10.2 C 93.5 10.2 93.52 9.13 93.5 9.1 C 93.2 9.5 92.9 9.8 92.5 10.1 C 92.1 10.3 91.7 10.4 91.3 10.4 C 90.4 10.4 89.7 10 89.1 9.3 C 88.5 8.7 88.2 7.7 88.2 6.5 C 88.2 5.3 88.5 4.4 89.1 3.7 C 89.7 3.1 90.4 2.8 91.3 2.8 C 92.1 2.8 92.8 3.1 93.4 3.8 C 93.39 3.78 93.4 0.2 93.4 0.2 L 95.3 0.2 L 95.3 10.2 Z M 90.2 6.4 C 90.2 7.2 90.3 7.7 90.5 8.1 C 90.8 8.6 91.2 8.8 91.8 8.8 C 92.2 8.8 92.6 8.7 92.9 8.3 C 93.2 7.9 93.4 7.3 93.4 6.6 C 93.4 5.8 93.2 5.2 92.9 4.8 C 92.6 4.4 92.3 4.2 91.8 4.2 C 91.3 4.2 91 4.4 90.6 4.8 C 90.3 5.1 90.2 5.7 90.2 6.4 Z " stroke="none" fill="#000"/>  </g></svg>