<?xml version="1.0" standalone="no"?><!DOCTYPE svg PUBLIC "-//W3C//DTD SVG 1.1//EN" "http://www.w3.org/Graphics/SVG/1.1/DTD/svg11.dtd"><svg xmlns="http://www.w3.org/2000/svg" version="1.1" width="122.2px" height="31.4px" viewBox="0 -5 122.2 31.4" style="top:-5px">  <desc>Contact Us</desc>  <defs/>  <g id="Polygon107079">    <path d="M 12.8 1.8 C 12.8 1.8 12.8 3.5 12.8 3.5 C 11.4 2.6 9.8 2.2 8.2 2.2 C 4.7 2.2 2.5 4.8 2.5 7.8 C 2.5 10.8 4.7 13.4 8.2 13.4 C 9.9 13.4 11.4 12.9 12.9 12 C 12.9 12 12.9 13.6 12.9 13.6 C 11.4 14.4 9.8 14.8 8.1 14.8 C 3.4 14.8 0.9 11.2 0.9 7.8 C 0.9 3.8 4.1 0.8 8.2 0.8 C 9.7 0.8 11.3 1.1 12.8 1.8 Z M 28.6 7.7 C 28.6 11.5 25.8 14.8 21.3 14.8 C 17 14.8 14.2 11.5 14.2 7.8 C 14.2 4 16.9 0.8 21.3 0.8 C 25.7 0.8 28.6 3.9 28.6 7.7 Z M 15.7 7.8 C 15.7 11 18.2 13.4 21.3 13.3 C 25.3 13.3 27 10.2 27 7.7 C 27 5 25 2.2 21.4 2.2 C 17.7 2.2 15.7 5 15.7 7.8 Z M 32.3 0.9 L 41.9 12.2 L 41.9 0.9 L 43.4 0.9 L 43.4 14.6 L 42 14.6 L 32.5 3.3 L 32.5 14.6 L 31 14.6 L 31 0.9 L 32.3 0.9 Z M 56.4 0.9 L 56.4 2.3 L 51.5 2.3 L 51.5 14.6 L 50 14.6 L 50 2.3 L 45.2 2.3 L 45.2 0.9 L 56.4 0.9 Z M 62 0.9 L 68.1 14.6 L 66.5 14.6 L 64.6 10.3 L 58.4 10.3 L 56.6 14.6 L 55 14.6 L 60.9 0.9 L 62 0.9 Z M 59 9 L 64 9 L 61.4 3.2 L 59 9 Z M 80.3 1.8 C 80.3 1.8 80.3 3.5 80.3 3.5 C 78.9 2.6 77.3 2.2 75.7 2.2 C 72.2 2.2 70 4.8 70 7.8 C 70 10.8 72.2 13.4 75.7 13.4 C 77.4 13.4 78.9 12.9 80.4 12 C 80.4 12 80.4 13.6 80.4 13.6 C 78.9 14.4 77.3 14.8 75.6 14.8 C 70.9 14.8 68.4 11.2 68.4 7.8 C 68.4 3.8 71.6 0.8 75.7 0.8 C 77.2 0.8 78.8 1.1 80.3 1.8 Z M 93 0.9 L 93 2.3 L 88.2 2.3 L 88.2 14.6 L 86.7 14.6 L 86.7 2.3 L 81.8 2.3 L 81.8 0.9 L 93 0.9 Z M 101.8 0.9 C 101.8 0.9 101.76 8.8 101.8 8.8 C 101.8 11.8 103.2 13.4 106 13.4 C 108.8 13.4 110.2 11.8 110.2 8.8 C 110.2 8.8 110.2 0.9 110.2 0.9 L 111.7 0.9 C 111.7 0.9 111.7 8.8 111.7 8.8 C 111.7 12.4 109.8 14.8 106 14.8 C 102.3 14.8 100.3 12.6 100.3 8.8 C 100.26 8.8 100.3 0.9 100.3 0.9 L 101.8 0.9 Z M 120.9 1.6 C 120.9 1.6 120.9 3.3 120.9 3.3 C 120 2.5 119 2.1 117.8 2.1 C 116.4 2.1 115.5 2.9 115.5 4.1 C 115.5 5 115.7 5.8 117.9 6.9 C 120.8 8.4 121.4 9.4 121.4 11.2 C 121.4 13.2 119.9 14.8 117.5 14.8 C 116.2 14.8 115 14.3 114 13.6 C 114 13.6 114 11.7 114 11.7 C 115 12.8 116.2 13.4 117.5 13.4 C 118.9 13.4 119.9 12.6 119.9 11.2 C 119.9 10.1 119.5 9.4 116.9 8 C 114.8 6.9 113.9 5.9 113.9 4.1 C 113.9 2.2 115.6 0.8 117.9 0.8 C 118.9 0.8 120 1.1 120.9 1.6 Z " stroke="none" fill="#e4007e"/>  </g></svg>