<?xml version="1.0" standalone="no"?><!DOCTYPE svg PUBLIC "-//W3C//DTD SVG 1.1//EN" "http://www.w3.org/Graphics/SVG/1.1/DTD/svg11.dtd"><svg xmlns="http://www.w3.org/2000/svg" version="1.1" width="150px" height="23.9px" viewBox="0 -5 150 23.9" style="top:-5px">  <desc>epa@dswlearning.co.uk</desc>  <defs/>  <g id="Polygon107157">    <path d="M 5.9 7.9 C 5.9 7.9 7.2 8 7.2 8 C 7 8.8 6.6 9.3 6 9.7 C 5.5 10.2 4.8 10.4 4 10.4 C 2.9 10.4 2.1 10 1.4 9.4 C 0.8 8.7 0.5 7.8 0.5 6.6 C 0.5 5.4 0.8 4.5 1.5 3.8 C 2.1 3.1 2.9 2.8 3.9 2.8 C 4.9 2.8 5.7 3.1 6.3 3.8 C 6.9 4.4 7.2 5.4 7.2 6.5 C 7.2 6.6 7.2 6.7 7.2 6.9 C 7.2 6.9 1.8 6.9 1.8 6.9 C 1.8 7.7 2.1 8.3 2.5 8.7 C 2.9 9.1 3.4 9.3 4 9.3 C 4.4 9.3 4.8 9.2 5.1 9 C 5.5 8.8 5.7 8.4 5.9 7.9 Z M 1.9 5.9 C 1.9 5.9 5.9 5.9 5.9 5.9 C 5.9 5.3 5.7 4.8 5.4 4.5 C 5 4 4.5 3.8 3.9 3.8 C 3.4 3.8 2.9 4 2.5 4.3 C 2.1 4.7 1.9 5.2 1.9 5.9 Z M 8.7 13 L 8.7 2.9 L 9.8 2.9 C 9.8 2.9 9.83 3.88 9.8 3.9 C 10.1 3.5 10.4 3.2 10.7 3 C 11.1 2.9 11.5 2.8 11.9 2.8 C 12.6 2.8 13.1 2.9 13.6 3.2 C 14.1 3.6 14.4 4 14.6 4.6 C 14.9 5.2 15 5.8 15 6.5 C 15 7.3 14.9 7.9 14.6 8.5 C 14.3 9.1 14 9.6 13.4 9.9 C 12.9 10.2 12.4 10.4 11.8 10.4 C 11.4 10.4 11.1 10.3 10.7 10.1 C 10.4 9.9 10.1 9.7 9.9 9.4 C 9.94 9.44 9.9 13 9.9 13 L 8.7 13 Z M 9.8 6.6 C 9.8 7.5 10 8.2 10.4 8.7 C 10.8 9.1 11.2 9.3 11.8 9.3 C 12.3 9.3 12.8 9.1 13.2 8.7 C 13.6 8.2 13.8 7.5 13.8 6.5 C 13.8 5.6 13.6 4.9 13.2 4.4 C 12.8 4 12.3 3.7 11.8 3.7 C 11.3 3.7 10.8 4 10.4 4.5 C 10 5 9.8 5.7 9.8 6.6 Z M 21.5 10.2 C 21.4 9.9 21.3 9.6 21.2 9.3 C 20.8 9.7 20.3 10 19.9 10.1 C 19.5 10.3 19 10.4 18.6 10.4 C 17.8 10.4 17.1 10.2 16.7 9.8 C 16.3 9.4 16.1 8.9 16.1 8.3 C 16.1 7.9 16.2 7.6 16.3 7.3 C 16.5 7 16.7 6.8 17 6.6 C 17.2 6.4 17.5 6.3 17.8 6.2 C 18.1 6.1 18.4 6.1 18.9 6 C 19.9 5.9 20.7 5.7 21.1 5.6 C 21.1 5.4 21.1 5.3 21.1 5.3 C 21.1 4.8 21 4.4 20.8 4.2 C 20.5 3.9 20 3.8 19.4 3.8 C 18.8 3.8 18.4 3.9 18.1 4.1 C 17.8 4.3 17.6 4.7 17.5 5.2 C 17.5 5.2 16.3 5 16.3 5 C 16.4 4.5 16.6 4.1 16.8 3.8 C 17.1 3.4 17.4 3.2 17.9 3 C 18.4 2.9 18.9 2.8 19.6 2.8 C 20.2 2.8 20.7 2.8 21.1 3 C 21.5 3.1 21.7 3.3 21.9 3.5 C 22.1 3.8 22.2 4 22.3 4.4 C 22.4 4.6 22.4 5 22.4 5.5 C 22.4 5.5 22.4 7.2 22.4 7.2 C 22.4 8.3 22.4 9 22.5 9.3 C 22.5 9.6 22.6 9.9 22.8 10.2 C 22.76 10.19 21.5 10.2 21.5 10.2 C 21.5 10.2 21.48 10.19 21.5 10.2 Z M 21.1 6.5 C 20.7 6.7 20 6.9 19.1 7 C 18.6 7.1 18.3 7.2 18 7.3 C 17.8 7.4 17.7 7.5 17.6 7.7 C 17.4 7.8 17.4 8 17.4 8.2 C 17.4 8.6 17.5 8.8 17.8 9.1 C 18 9.3 18.4 9.4 18.9 9.4 C 19.3 9.4 19.7 9.3 20.1 9.1 C 20.5 8.9 20.8 8.6 20.9 8.2 C 21.1 8 21.1 7.5 21.1 7 C 21.1 7 21.1 6.5 21.1 6.5 Z M 31.4 9.7 C 31.4 9.6 31.3 9.4 31.3 9.1 C 31 9.4 30.7 9.7 30.3 9.9 C 29.9 10.1 29.6 10.2 29.2 10.2 C 28.8 10.2 28.4 10.1 28 9.9 C 27.6 9.6 27.3 9.3 27.1 8.8 C 26.8 8.3 26.7 7.7 26.7 7.1 C 26.7 6.4 26.9 5.7 27.3 5 C 27.7 4.2 28.1 3.7 28.7 3.3 C 29.2 3 29.7 2.8 30.3 2.8 C 30.7 2.8 31 2.9 31.4 3.1 C 31.8 3.3 32.1 3.6 32.3 4 C 32.33 4.04 32.6 3 32.6 3 L 33.8 3 C 33.8 3 32.81 7.57 32.8 7.6 C 32.7 8.2 32.6 8.6 32.6 8.6 C 32.6 8.8 32.6 8.9 32.7 8.9 C 32.8 9 32.9 9.1 33.1 9.1 C 33.3 9.1 33.6 8.9 34 8.7 C 34.5 8.3 35 7.8 35.3 7.2 C 35.6 6.6 35.7 5.9 35.7 5.3 C 35.7 4.5 35.5 3.8 35.1 3.2 C 34.7 2.5 34.2 2 33.4 1.6 C 32.6 1.2 31.8 1 30.8 1 C 29.8 1 28.8 1.2 27.9 1.7 C 27 2.2 26.3 2.9 25.9 3.9 C 25.4 4.8 25.1 5.8 25.1 6.9 C 25.1 8 25.4 9 25.9 9.8 C 26.3 10.6 27 11.2 28 11.5 C 28.9 11.9 29.9 12.1 31 12.1 C 32.2 12.1 33.2 11.9 34 11.5 C 34.8 11.1 35.4 10.6 35.8 10.1 C 35.8 10.1 37.1 10.1 37.1 10.1 C 36.8 10.5 36.4 11 35.9 11.5 C 35.3 12 34.6 12.4 33.9 12.7 C 33.1 13 32.1 13.1 31 13.1 C 30 13.1 29.1 13 28.2 12.7 C 27.4 12.5 26.7 12.1 26.1 11.6 C 25.5 11.1 25 10.5 24.7 9.8 C 24.3 8.9 24.1 8 24.1 7 C 24.1 5.9 24.3 4.8 24.8 3.8 C 25.4 2.6 26.1 1.6 27.2 1 C 28.2 0.3 29.4 0 30.9 0 C 32 0 33 0.2 33.9 0.7 C 34.8 1.1 35.5 1.8 36.1 2.7 C 36.5 3.5 36.7 4.4 36.7 5.3 C 36.7 6.6 36.3 7.8 35.3 8.8 C 34.5 9.8 33.6 10.2 32.6 10.2 C 32.3 10.2 32 10.2 31.9 10.1 C 31.7 10 31.5 9.8 31.4 9.7 C 31.4 9.7 31.4 9.7 31.4 9.7 Z M 28 7.2 C 28 7.9 28.1 8.3 28.4 8.7 C 28.7 9 29.1 9.2 29.4 9.2 C 29.7 9.2 30 9.1 30.3 9 C 30.5 8.8 30.8 8.6 31.1 8.3 C 31.3 8 31.5 7.6 31.7 7.1 C 31.9 6.7 31.9 6.2 31.9 5.8 C 31.9 5.1 31.8 4.7 31.5 4.3 C 31.2 4 30.8 3.8 30.4 3.8 C 30.1 3.8 29.8 3.9 29.5 4 C 29.3 4.2 29 4.4 28.8 4.7 C 28.5 5.1 28.4 5.5 28.2 5.9 C 28.1 6.4 28 6.8 28 7.2 Z M 43.2 10.2 C 43.2 10.2 43.2 9.28 43.2 9.3 C 42.7 10 42.1 10.4 41.2 10.4 C 40.6 10.4 40.1 10.2 39.6 9.9 C 39.1 9.6 38.7 9.1 38.4 8.5 C 38.2 8 38 7.3 38 6.6 C 38 5.8 38.2 5.2 38.4 4.6 C 38.7 4 39 3.6 39.5 3.2 C 40 2.9 40.5 2.8 41.1 2.8 C 41.6 2.8 41.9 2.9 42.3 3 C 42.6 3.2 42.9 3.5 43.1 3.8 C 43.12 3.77 43.1 0.2 43.1 0.2 L 44.3 0.2 L 44.3 10.2 L 43.2 10.2 Z M 39.3 6.6 C 39.3 7.5 39.5 8.2 39.9 8.7 C 40.3 9.1 40.8 9.3 41.3 9.3 C 41.8 9.3 42.3 9.1 42.7 8.7 C 43 8.2 43.2 7.6 43.2 6.7 C 43.2 5.7 43 4.9 42.6 4.5 C 42.3 4 41.8 3.8 41.2 3.8 C 40.7 3.8 40.2 4 39.9 4.5 C 39.5 4.9 39.3 5.6 39.3 6.6 Z M 45.8 8 C 45.8 8 47 7.8 47 7.8 C 47.1 8.3 47.3 8.7 47.6 9 C 47.9 9.2 48.3 9.3 48.9 9.3 C 49.4 9.3 49.9 9.2 50.1 9 C 50.4 8.8 50.6 8.5 50.6 8.2 C 50.6 7.9 50.4 7.7 50.2 7.5 C 50 7.4 49.6 7.3 48.9 7.1 C 48 6.9 47.4 6.7 47.1 6.5 C 46.7 6.4 46.4 6.1 46.3 5.8 C 46.1 5.5 46 5.2 46 4.9 C 46 4.5 46.1 4.2 46.2 4 C 46.4 3.7 46.6 3.5 46.8 3.3 C 47 3.1 47.3 3 47.6 2.9 C 47.9 2.8 48.3 2.8 48.7 2.8 C 49.2 2.8 49.7 2.9 50.2 3 C 50.6 3.2 50.9 3.4 51.1 3.7 C 51.3 4 51.5 4.3 51.5 4.8 C 51.5 4.8 50.3 5 50.3 5 C 50.3 4.6 50.1 4.3 49.9 4.1 C 49.6 3.9 49.2 3.8 48.8 3.8 C 48.2 3.8 47.8 3.9 47.5 4.1 C 47.3 4.2 47.2 4.5 47.2 4.7 C 47.2 4.9 47.2 5 47.3 5.1 C 47.4 5.3 47.6 5.4 47.8 5.5 C 47.9 5.5 48.3 5.6 48.9 5.8 C 49.8 6 50.4 6.2 50.7 6.4 C 51.1 6.5 51.3 6.7 51.5 7 C 51.7 7.3 51.8 7.6 51.8 8.1 C 51.8 8.5 51.7 8.9 51.5 9.2 C 51.2 9.6 50.9 9.9 50.4 10.1 C 50 10.3 49.5 10.4 48.9 10.4 C 47.9 10.4 47.2 10.2 46.7 9.8 C 46.2 9.4 45.9 8.8 45.8 8 Z M 54.6 10.2 L 52.4 2.9 L 53.7 2.9 L 54.8 7.1 C 54.8 7.1 55.25 8.68 55.3 8.7 C 55.3 8.6 55.4 8.1 55.6 7.2 C 55.63 7.18 56.8 2.9 56.8 2.9 L 58.1 2.9 L 59.1 7.1 L 59.5 8.5 L 59.9 7.1 L 61.2 2.9 L 62.4 2.9 L 60.1 10.2 L 58.8 10.2 L 57.7 5.8 L 57.4 4.6 L 55.9 10.2 L 54.6 10.2 Z M 63.4 10.2 L 63.4 0.2 L 64.6 0.2 L 64.6 10.2 L 63.4 10.2 Z M 71.5 7.9 C 71.5 7.9 72.7 8 72.7 8 C 72.5 8.8 72.2 9.3 71.6 9.7 C 71.1 10.2 70.4 10.4 69.5 10.4 C 68.5 10.4 67.6 10 67 9.4 C 66.4 8.7 66.1 7.8 66.1 6.6 C 66.1 5.4 66.4 4.5 67 3.8 C 67.7 3.1 68.5 2.8 69.5 2.8 C 70.5 2.8 71.2 3.1 71.9 3.8 C 72.5 4.4 72.8 5.4 72.8 6.5 C 72.8 6.6 72.8 6.7 72.8 6.9 C 72.8 6.9 67.4 6.9 67.4 6.9 C 67.4 7.7 67.6 8.3 68 8.7 C 68.4 9.1 68.9 9.3 69.6 9.3 C 70 9.3 70.4 9.2 70.7 9 C 71 8.8 71.3 8.4 71.5 7.9 Z M 67.4 5.9 C 67.4 5.9 71.5 5.9 71.5 5.9 C 71.4 5.3 71.3 4.8 71 4.5 C 70.6 4 70.1 3.8 69.5 3.8 C 68.9 3.8 68.5 4 68.1 4.3 C 67.7 4.7 67.5 5.2 67.4 5.9 Z M 79.3 10.2 C 79.1 9.9 79.1 9.6 79 9.3 C 78.6 9.7 78.1 10 77.7 10.1 C 77.3 10.3 76.8 10.4 76.4 10.4 C 75.6 10.4 74.9 10.2 74.5 9.8 C 74.1 9.4 73.9 8.9 73.9 8.3 C 73.9 7.9 73.9 7.6 74.1 7.3 C 74.3 7 74.5 6.8 74.7 6.6 C 75 6.4 75.3 6.3 75.6 6.2 C 75.9 6.1 76.2 6.1 76.7 6 C 77.7 5.9 78.5 5.7 78.9 5.6 C 78.9 5.4 78.9 5.3 78.9 5.3 C 78.9 4.8 78.8 4.4 78.6 4.2 C 78.3 3.9 77.8 3.8 77.2 3.8 C 76.6 3.8 76.2 3.9 75.9 4.1 C 75.6 4.3 75.4 4.7 75.3 5.2 C 75.3 5.2 74.1 5 74.1 5 C 74.2 4.5 74.4 4.1 74.6 3.8 C 74.9 3.4 75.2 3.2 75.7 3 C 76.2 2.9 76.7 2.8 77.4 2.8 C 78 2.8 78.5 2.8 78.9 3 C 79.3 3.1 79.5 3.3 79.7 3.5 C 79.9 3.8 80 4 80.1 4.4 C 80.1 4.6 80.2 5 80.2 5.5 C 80.2 5.5 80.2 7.2 80.2 7.2 C 80.2 8.3 80.2 9 80.2 9.3 C 80.3 9.6 80.4 9.9 80.6 10.2 C 80.55 10.19 79.3 10.2 79.3 10.2 C 79.3 10.2 79.27 10.19 79.3 10.2 Z M 78.9 6.5 C 78.5 6.7 77.8 6.9 76.9 7 C 76.4 7.1 76 7.2 75.8 7.3 C 75.6 7.4 75.5 7.5 75.4 7.7 C 75.2 7.8 75.2 8 75.2 8.2 C 75.2 8.6 75.3 8.8 75.6 9.1 C 75.8 9.3 76.2 9.4 76.6 9.4 C 77.1 9.4 77.5 9.3 77.9 9.1 C 78.3 8.9 78.5 8.6 78.7 8.2 C 78.9 8 78.9 7.5 78.9 7 C 78.9 7 78.9 6.5 78.9 6.5 Z M 82.1 10.2 L 82.1 2.9 L 83.2 2.9 C 83.2 2.9 83.17 4.03 83.2 4 C 83.4 3.5 83.7 3.2 83.9 3 C 84.2 2.9 84.5 2.8 84.7 2.8 C 85.2 2.8 85.6 2.9 86 3.2 C 86 3.2 85.6 4.3 85.6 4.3 C 85.3 4.1 85 4 84.7 4 C 84.4 4 84.2 4.1 84 4.3 C 83.7 4.4 83.6 4.7 83.5 5 C 83.4 5.4 83.3 5.9 83.3 6.4 C 83.29 6.39 83.3 10.2 83.3 10.2 L 82.1 10.2 Z M 86.7 10.2 L 86.7 2.9 L 87.8 2.9 C 87.8 2.9 87.84 3.96 87.8 4 C 88.4 3.2 89.1 2.8 90.2 2.8 C 90.6 2.8 91 2.8 91.4 3 C 91.7 3.2 92 3.4 92.2 3.6 C 92.4 3.9 92.5 4.2 92.6 4.5 C 92.6 4.8 92.6 5.2 92.6 5.7 C 92.63 5.73 92.6 10.2 92.6 10.2 L 91.4 10.2 C 91.4 10.2 91.4 5.78 91.4 5.8 C 91.4 5.3 91.4 4.9 91.3 4.7 C 91.2 4.4 91 4.2 90.8 4.1 C 90.5 3.9 90.2 3.8 89.9 3.8 C 89.4 3.8 88.9 4 88.5 4.3 C 88.2 4.7 88 5.3 88 6.2 C 87.96 6.23 88 10.2 88 10.2 L 86.7 10.2 Z M 94.5 1.6 L 94.5 0.2 L 95.8 0.2 L 95.8 1.6 L 94.5 1.6 Z M 94.5 10.2 L 94.5 2.9 L 95.8 2.9 L 95.8 10.2 L 94.5 10.2 Z M 97.6 10.2 L 97.6 2.9 L 98.7 2.9 C 98.7 2.9 98.74 3.96 98.7 4 C 99.3 3.2 100 2.8 101 2.8 C 101.5 2.8 101.9 2.8 102.3 3 C 102.6 3.2 102.9 3.4 103.1 3.6 C 103.3 3.9 103.4 4.2 103.5 4.5 C 103.5 4.8 103.5 5.2 103.5 5.7 C 103.53 5.73 103.5 10.2 103.5 10.2 L 102.3 10.2 C 102.3 10.2 102.3 5.78 102.3 5.8 C 102.3 5.3 102.3 4.9 102.2 4.7 C 102.1 4.4 101.9 4.2 101.6 4.1 C 101.4 3.9 101.1 3.8 100.8 3.8 C 100.3 3.8 99.8 4 99.4 4.3 C 99.1 4.7 98.9 5.3 98.9 6.2 C 98.86 6.23 98.9 10.2 98.9 10.2 L 97.6 10.2 Z M 105.2 10.8 C 105.2 10.8 106.4 11 106.4 11 C 106.4 11.3 106.6 11.6 106.8 11.8 C 107.1 12 107.5 12.1 108.1 12.1 C 108.6 12.1 109.1 12 109.4 11.8 C 109.7 11.6 109.9 11.2 110 10.8 C 110.1 10.6 110.1 10 110.1 9.2 C 109.6 9.9 108.9 10.2 108.1 10.2 C 107.1 10.2 106.3 9.8 105.8 9.1 C 105.2 8.4 104.9 7.5 104.9 6.5 C 104.9 5.8 105.1 5.2 105.3 4.6 C 105.6 4 105.9 3.6 106.4 3.2 C 106.9 2.9 107.4 2.8 108.1 2.8 C 108.9 2.8 109.7 3.1 110.2 3.8 C 110.21 3.81 110.2 2.9 110.2 2.9 L 111.3 2.9 C 111.3 2.9 111.34 9.21 111.3 9.2 C 111.3 10.3 111.2 11.1 111 11.6 C 110.8 12.1 110.4 12.5 109.9 12.7 C 109.4 13 108.8 13.1 108.1 13.1 C 107.2 13.1 106.5 12.9 106 12.6 C 105.4 12.2 105.2 11.6 105.2 10.8 Z M 106.2 6.4 C 106.2 7.4 106.4 8.1 106.8 8.5 C 107.2 9 107.6 9.2 108.2 9.2 C 108.8 9.2 109.2 9 109.6 8.5 C 110 8.1 110.2 7.4 110.2 6.5 C 110.2 5.6 110 4.9 109.6 4.5 C 109.2 4 108.7 3.8 108.2 3.8 C 107.6 3.8 107.2 4 106.8 4.5 C 106.4 4.9 106.2 5.6 106.2 6.4 Z M 113.6 10.2 L 113.6 8.8 L 115 8.8 L 115 10.2 L 113.6 10.2 Z M 121.8 7.5 C 121.8 7.5 123 7.7 123 7.7 C 122.9 8.5 122.6 9.2 122 9.6 C 121.5 10.1 120.8 10.4 120 10.4 C 119 10.4 118.2 10 117.6 9.4 C 117 8.7 116.7 7.8 116.7 6.6 C 116.7 5.8 116.8 5.1 117.1 4.5 C 117.4 3.9 117.8 3.5 118.3 3.2 C 118.8 2.9 119.4 2.8 120 2.8 C 120.8 2.8 121.5 3 122 3.4 C 122.5 3.8 122.8 4.3 122.9 5.1 C 122.9 5.1 121.7 5.3 121.7 5.3 C 121.6 4.8 121.4 4.4 121.1 4.1 C 120.8 3.9 120.5 3.8 120.1 3.8 C 119.5 3.8 118.9 4 118.6 4.4 C 118.2 4.9 118 5.6 118 6.6 C 118 7.5 118.2 8.2 118.5 8.7 C 118.9 9.1 119.4 9.3 120 9.3 C 120.5 9.3 120.9 9.2 121.2 8.9 C 121.5 8.6 121.7 8.1 121.8 7.5 Z M 123.6 6.6 C 123.6 5.2 124 4.2 124.8 3.6 C 125.4 3 126.1 2.8 127 2.8 C 128 2.8 128.9 3.1 129.5 3.7 C 130.1 4.4 130.4 5.3 130.4 6.5 C 130.4 7.4 130.3 8.1 130 8.7 C 129.7 9.2 129.3 9.6 128.8 9.9 C 128.3 10.2 127.7 10.4 127 10.4 C 126 10.4 125.2 10 124.6 9.4 C 123.9 8.7 123.6 7.8 123.6 6.6 Z M 124.9 6.6 C 124.9 7.5 125.1 8.2 125.5 8.7 C 125.9 9.1 126.4 9.3 127 9.3 C 127.6 9.3 128.2 9.1 128.6 8.6 C 129 8.2 129.2 7.5 129.2 6.5 C 129.2 5.6 129 4.9 128.6 4.5 C 128.2 4 127.6 3.8 127 3.8 C 126.4 3.8 125.9 4 125.5 4.5 C 125.1 4.9 124.9 5.6 124.9 6.6 Z M 132.2 10.2 L 132.2 8.8 L 133.6 8.8 L 133.6 10.2 L 132.2 10.2 Z M 140.5 10.2 C 140.5 10.2 140.53 9.13 140.5 9.1 C 140 9.9 139.2 10.4 138.2 10.4 C 137.8 10.4 137.4 10.3 137 10.1 C 136.7 9.9 136.4 9.7 136.2 9.5 C 136 9.2 135.9 8.9 135.8 8.6 C 135.8 8.3 135.7 8 135.7 7.4 C 135.74 7.43 135.7 2.9 135.7 2.9 L 137 2.9 C 137 2.9 136.97 6.96 137 7 C 137 7.6 137 8 137 8.3 C 137.1 8.6 137.3 8.8 137.5 9 C 137.8 9.2 138.1 9.3 138.5 9.3 C 138.8 9.3 139.2 9.2 139.5 9 C 139.8 8.8 140.1 8.6 140.2 8.2 C 140.3 7.9 140.4 7.4 140.4 6.8 C 140.4 6.82 140.4 2.9 140.4 2.9 L 141.6 2.9 L 141.6 10.2 L 140.5 10.2 Z M 143.6 10.2 L 143.6 0.2 L 144.8 0.2 L 144.8 5.9 L 147.7 2.9 L 149.3 2.9 L 146.5 5.6 L 149.6 10.2 L 148.1 10.2 L 145.7 6.5 L 144.8 7.3 L 144.8 10.2 L 143.6 10.2 Z " stroke="none" fill="#e4007e"/>  </g></svg>