<?xml version="1.0" standalone="no"?><!DOCTYPE svg PUBLIC "-//W3C//DTD SVG 1.1//EN" "http://www.w3.org/Graphics/SVG/1.1/DTD/svg11.dtd"><svg xmlns="http://www.w3.org/2000/svg" version="1.1" width="267px" height="107.9px" viewBox="0 -5 267 107.9" style="top:-5px">  <desc>L3 Business Administrator L3 Improvement Technician L3 Learning &amp; Development Practitioner L5 Learning &amp; Development ...</desc>  <defs/>  <g id="Polygon124083">    <path d="M 1.1 94.2 L 1.1 84.3 L 3.1 84.3 L 3.1 92.5 L 8.1 92.5 L 8.1 94.2 L 1.1 94.2 Z M 15.7 86.6 C 15.7 86.6 13.8 86.8 13.8 86.8 C 13.7 86.4 13.6 86.2 13.4 86 C 13.2 85.8 13 85.7 12.7 85.7 C 12.3 85.7 11.9 85.9 11.7 86.3 C 11.4 86.6 11.2 87.4 11.1 88.5 C 11.6 88 12.2 87.7 12.9 87.7 C 13.7 87.7 14.4 88 15 88.6 C 15.6 89.2 15.8 90 15.8 91 C 15.8 92 15.5 92.8 14.9 93.4 C 14.3 94.1 13.6 94.4 12.6 94.4 C 11.6 94.4 10.8 94 10.1 93.2 C 9.5 92.4 9.1 91.1 9.1 89.3 C 9.1 87.5 9.5 86.2 10.2 85.3 C 10.8 84.5 11.7 84.1 12.8 84.1 C 13.6 84.1 14.2 84.3 14.7 84.8 C 15.2 85.2 15.5 85.8 15.7 86.6 Z M 11.3 90.8 C 11.3 91.4 11.4 91.9 11.7 92.3 C 12 92.6 12.3 92.8 12.7 92.8 C 13.1 92.8 13.4 92.6 13.6 92.4 C 13.8 92.1 14 91.6 14 91 C 14 90.3 13.8 89.9 13.6 89.6 C 13.3 89.3 13 89.1 12.6 89.1 C 12.2 89.1 11.9 89.2 11.7 89.5 C 11.4 89.8 11.3 90.3 11.3 90.8 Z M 20.9 91 C 20.9 91 22.1 90.9 22.1 90.9 C 22.2 91.4 22.3 91.8 22.5 92.1 C 22.7 92.4 23.1 92.7 23.5 92.9 C 24 93.1 24.5 93.2 25.1 93.2 C 25.6 93.2 26 93.1 26.4 92.9 C 26.8 92.8 27.1 92.6 27.3 92.3 C 27.5 92.1 27.6 91.8 27.6 91.5 C 27.6 91.2 27.5 90.9 27.3 90.6 C 27.1 90.4 26.8 90.2 26.4 90.1 C 26.1 90 25.5 89.8 24.6 89.6 C 23.7 89.3 23 89.1 22.7 88.9 C 22.2 88.7 21.8 88.4 21.6 88 C 21.4 87.6 21.2 87.2 21.2 86.8 C 21.2 86.3 21.4 85.8 21.7 85.3 C 22 84.9 22.4 84.6 22.9 84.3 C 23.5 84.1 24.1 84 24.8 84 C 25.5 84 26.2 84.1 26.7 84.4 C 27.3 84.6 27.7 85 28 85.4 C 28.3 85.9 28.5 86.4 28.5 87 C 28.5 87 27.3 87.1 27.3 87.1 C 27.2 86.5 27 86 26.6 85.7 C 26.2 85.3 25.6 85.2 24.8 85.2 C 24 85.2 23.4 85.3 23.1 85.6 C 22.7 85.9 22.5 86.3 22.5 86.7 C 22.5 87 22.6 87.3 22.9 87.6 C 23.2 87.8 23.8 88 24.9 88.3 C 26 88.5 26.7 88.7 27.1 88.9 C 27.7 89.2 28.1 89.5 28.4 89.9 C 28.7 90.3 28.8 90.8 28.8 91.4 C 28.8 91.9 28.7 92.4 28.4 92.9 C 28.1 93.3 27.6 93.7 27.1 94 C 26.5 94.2 25.8 94.4 25.1 94.4 C 24.2 94.4 23.5 94.2 22.8 94 C 22.2 93.7 21.8 93.3 21.4 92.8 C 21.1 92.2 20.9 91.6 20.9 91 Z M 35.5 91.9 C 35.5 91.9 36.7 92 36.7 92 C 36.5 92.8 36.2 93.3 35.6 93.7 C 35.1 94.2 34.4 94.4 33.5 94.4 C 32.5 94.4 31.6 94 31 93.4 C 30.4 92.7 30.1 91.8 30.1 90.6 C 30.1 89.4 30.4 88.5 31 87.8 C 31.7 87.1 32.5 86.8 33.5 86.8 C 34.4 86.8 35.2 87.1 35.8 87.8 C 36.5 88.4 36.8 89.4 36.8 90.5 C 36.8 90.6 36.8 90.7 36.8 90.9 C 36.8 90.9 31.3 90.9 31.3 90.9 C 31.4 91.7 31.6 92.3 32 92.7 C 32.4 93.1 32.9 93.3 33.5 93.3 C 34 93.3 34.4 93.2 34.7 93 C 35 92.8 35.3 92.4 35.5 91.9 Z M 31.4 89.9 C 31.4 89.9 35.5 89.9 35.5 89.9 C 35.4 89.3 35.3 88.8 35 88.5 C 34.6 88 34.1 87.8 33.5 87.8 C 32.9 87.8 32.4 88 32.1 88.3 C 31.7 88.7 31.5 89.2 31.4 89.9 Z M 38.3 94.2 L 38.3 86.9 L 39.4 86.9 C 39.4 86.9 39.37 88.03 39.4 88 C 39.7 87.5 39.9 87.2 40.2 87 C 40.4 86.9 40.7 86.8 40.9 86.8 C 41.4 86.8 41.8 86.9 42.2 87.2 C 42.2 87.2 41.8 88.3 41.8 88.3 C 41.5 88.1 41.2 88 40.9 88 C 40.6 88 40.4 88.1 40.2 88.3 C 39.9 88.4 39.8 88.7 39.7 89 C 39.6 89.4 39.5 89.9 39.5 90.4 C 39.49 90.39 39.5 94.2 39.5 94.2 L 38.3 94.2 Z M 45 94.2 L 42.2 86.9 L 43.5 86.9 C 43.5 86.9 45.05 91.28 45 91.3 C 45.2 91.7 45.4 92.2 45.5 92.7 C 45.6 92.4 45.8 91.9 46 91.4 C 45.97 91.36 47.6 86.9 47.6 86.9 L 48.8 86.9 L 46.1 94.2 L 45 94.2 Z M 49.9 85.6 L 49.9 84.2 L 51.2 84.2 L 51.2 85.6 L 49.9 85.6 Z M 49.9 94.2 L 49.9 86.9 L 51.2 86.9 L 51.2 94.2 L 49.9 94.2 Z M 57.8 91.5 C 57.8 91.5 59 91.7 59 91.7 C 58.9 92.5 58.5 93.2 58 93.6 C 57.4 94.1 56.8 94.4 56 94.4 C 55 94.4 54.2 94 53.6 93.4 C 53 92.7 52.7 91.8 52.7 90.6 C 52.7 89.8 52.8 89.1 53.1 88.5 C 53.3 87.9 53.7 87.5 54.2 87.2 C 54.8 86.9 55.4 86.8 56 86.8 C 56.8 86.8 57.4 87 57.9 87.4 C 58.4 87.8 58.7 88.3 58.9 89.1 C 58.9 89.1 57.7 89.3 57.7 89.3 C 57.6 88.8 57.4 88.4 57.1 88.1 C 56.8 87.9 56.4 87.8 56 87.8 C 55.4 87.8 54.9 88 54.5 88.4 C 54.1 88.9 53.9 89.6 53.9 90.6 C 53.9 91.5 54.1 92.2 54.5 92.7 C 54.9 93.1 55.4 93.3 56 93.3 C 56.4 93.3 56.8 93.2 57.2 92.9 C 57.5 92.6 57.7 92.1 57.8 91.5 Z M 65 91.9 C 65 91.9 66.3 92 66.3 92 C 66.1 92.8 65.7 93.3 65.2 93.7 C 64.6 94.2 63.9 94.4 63.1 94.4 C 62 94.4 61.2 94 60.6 93.4 C 59.9 92.7 59.6 91.8 59.6 90.6 C 59.6 89.4 60 88.5 60.6 87.8 C 61.2 87.1 62 86.8 63 86.8 C 64 86.8 64.8 87.1 65.4 87.8 C 66 88.4 66.3 89.4 66.3 90.5 C 66.3 90.6 66.3 90.7 66.3 90.9 C 66.3 90.9 60.9 90.9 60.9 90.9 C 61 91.7 61.2 92.3 61.6 92.7 C 62 93.1 62.5 93.3 63.1 93.3 C 63.6 93.3 63.9 93.2 64.3 93 C 64.6 92.8 64.8 92.4 65 91.9 Z M 61 89.9 C 61 89.9 65 89.9 65 89.9 C 65 89.3 64.8 88.8 64.6 88.5 C 64.2 88 63.7 87.8 63 87.8 C 62.5 87.8 62 88 61.6 88.3 C 61.2 88.7 61 89.2 61 89.9 Z M 71.9 94.2 L 71.9 84.2 C 71.9 84.2 75.33 84.17 75.3 84.2 C 76.1 84.2 76.7 84.2 77.1 84.3 C 77.7 84.4 78.2 84.7 78.6 85 C 79.1 85.5 79.5 86 79.8 86.7 C 80 87.4 80.2 88.2 80.2 89.1 C 80.2 89.9 80.1 90.6 79.9 91.2 C 79.7 91.7 79.5 92.2 79.2 92.6 C 78.9 93 78.6 93.3 78.3 93.5 C 78 93.7 77.6 93.9 77.1 94 C 76.6 94.1 76.1 94.2 75.5 94.2 C 75.5 94.19 71.9 94.2 71.9 94.2 Z M 73.2 93 C 73.2 93 75.35 93.01 75.3 93 C 76 93 76.5 92.9 76.9 92.8 C 77.3 92.7 77.6 92.5 77.8 92.3 C 78.1 92 78.4 91.6 78.5 91 C 78.7 90.5 78.8 89.9 78.8 89.1 C 78.8 88.1 78.6 87.3 78.3 86.7 C 77.9 86.1 77.5 85.8 77 85.6 C 76.7 85.4 76.1 85.4 75.3 85.4 C 75.31 85.35 73.2 85.4 73.2 85.4 L 73.2 93 Z M 86.8 91.9 C 86.8 91.9 88.1 92 88.1 92 C 87.9 92.8 87.5 93.3 87 93.7 C 86.4 94.2 85.7 94.4 84.9 94.4 C 83.8 94.4 83 94 82.4 93.4 C 81.7 92.7 81.4 91.8 81.4 90.6 C 81.4 89.4 81.7 88.5 82.4 87.8 C 83 87.1 83.8 86.8 84.8 86.8 C 85.8 86.8 86.6 87.1 87.2 87.8 C 87.8 88.4 88.1 89.4 88.1 90.5 C 88.1 90.6 88.1 90.7 88.1 90.9 C 88.1 90.9 82.7 90.9 82.7 90.9 C 82.7 91.7 83 92.3 83.4 92.7 C 83.8 93.1 84.3 93.3 84.9 93.3 C 85.3 93.3 85.7 93.2 86 93 C 86.4 92.8 86.6 92.4 86.8 91.9 Z M 82.8 89.9 C 82.8 89.9 86.8 89.9 86.8 89.9 C 86.8 89.3 86.6 88.8 86.4 88.5 C 86 88 85.5 87.8 84.8 87.8 C 84.3 87.8 83.8 88 83.4 88.3 C 83 88.7 82.8 89.2 82.8 89.9 Z M 89.1 92 C 89.1 92 90.3 91.8 90.3 91.8 C 90.4 92.3 90.6 92.7 90.9 93 C 91.2 93.2 91.7 93.3 92.2 93.3 C 92.8 93.3 93.2 93.2 93.5 93 C 93.8 92.8 93.9 92.5 93.9 92.2 C 93.9 91.9 93.8 91.7 93.5 91.5 C 93.4 91.4 92.9 91.3 92.3 91.1 C 91.4 90.9 90.7 90.7 90.4 90.5 C 90 90.4 89.8 90.1 89.6 89.8 C 89.4 89.5 89.3 89.2 89.3 88.9 C 89.3 88.5 89.4 88.2 89.6 88 C 89.7 87.7 89.9 87.5 90.2 87.3 C 90.4 87.1 90.6 87 90.9 86.9 C 91.3 86.8 91.6 86.8 92 86.8 C 92.6 86.8 93.1 86.9 93.5 87 C 93.9 87.2 94.3 87.4 94.5 87.7 C 94.7 88 94.8 88.3 94.9 88.8 C 94.9 88.8 93.7 89 93.7 89 C 93.6 88.6 93.5 88.3 93.2 88.1 C 92.9 87.9 92.6 87.8 92.1 87.8 C 91.5 87.8 91.1 87.9 90.9 88.1 C 90.6 88.2 90.5 88.5 90.5 88.7 C 90.5 88.9 90.6 89 90.7 89.1 C 90.8 89.3 90.9 89.4 91.1 89.5 C 91.3 89.5 91.6 89.6 92.2 89.8 C 93.1 90 93.7 90.2 94.1 90.4 C 94.4 90.5 94.7 90.7 94.9 91 C 95.1 91.3 95.2 91.6 95.2 92.1 C 95.2 92.5 95 92.9 94.8 93.2 C 94.6 93.6 94.2 93.9 93.8 94.1 C 93.3 94.3 92.8 94.4 92.2 94.4 C 91.3 94.4 90.6 94.2 90.1 93.8 C 89.6 93.4 89.3 92.8 89.1 92 Z M 96.6 85.6 L 96.6 84.2 L 97.9 84.2 L 97.9 85.6 L 96.6 85.6 Z M 96.6 94.2 L 96.6 86.9 L 97.9 86.9 L 97.9 94.2 L 96.6 94.2 Z M 99.5 94.8 C 99.5 94.8 100.7 95 100.7 95 C 100.8 95.3 100.9 95.6 101.1 95.8 C 101.4 96 101.8 96.1 102.4 96.1 C 102.9 96.1 103.4 96 103.7 95.8 C 104 95.6 104.2 95.2 104.3 94.8 C 104.4 94.6 104.4 94 104.4 93.2 C 103.9 93.9 103.2 94.2 102.4 94.2 C 101.4 94.2 100.6 93.8 100.1 93.1 C 99.5 92.4 99.3 91.5 99.3 90.5 C 99.3 89.8 99.4 89.2 99.6 88.6 C 99.9 88 100.2 87.6 100.7 87.2 C 101.2 86.9 101.8 86.8 102.4 86.8 C 103.3 86.8 104 87.1 104.5 87.8 C 104.52 87.81 104.5 86.9 104.5 86.9 L 105.7 86.9 C 105.7 86.9 105.66 93.21 105.7 93.2 C 105.7 94.3 105.5 95.1 105.3 95.6 C 105.1 96.1 104.7 96.5 104.2 96.7 C 103.7 97 103.1 97.1 102.4 97.1 C 101.5 97.1 100.8 96.9 100.3 96.6 C 99.7 96.2 99.5 95.6 99.5 94.8 Z M 100.5 90.4 C 100.5 91.4 100.7 92.1 101.1 92.5 C 101.5 93 101.9 93.2 102.5 93.2 C 103.1 93.2 103.6 93 103.9 92.5 C 104.3 92.1 104.5 91.4 104.5 90.5 C 104.5 89.6 104.3 88.9 103.9 88.5 C 103.5 88 103 87.8 102.5 87.8 C 101.9 87.8 101.5 88 101.1 88.5 C 100.7 88.9 100.5 89.6 100.5 90.4 Z M 107.5 94.2 L 107.5 86.9 L 108.6 86.9 C 108.6 86.9 108.62 87.96 108.6 88 C 109.2 87.2 109.9 86.8 110.9 86.8 C 111.4 86.8 111.8 86.8 112.1 87 C 112.5 87.2 112.8 87.4 113 87.6 C 113.1 87.9 113.3 88.2 113.3 88.5 C 113.4 88.8 113.4 89.2 113.4 89.7 C 113.42 89.73 113.4 94.2 113.4 94.2 L 112.2 94.2 C 112.2 94.2 112.18 89.78 112.2 89.8 C 112.2 89.3 112.1 88.9 112 88.7 C 111.9 88.4 111.8 88.2 111.5 88.1 C 111.3 87.9 111 87.8 110.7 87.8 C 110.1 87.8 109.7 88 109.3 88.3 C 108.9 88.7 108.7 89.3 108.7 90.2 C 108.75 90.23 108.7 94.2 108.7 94.2 L 107.5 94.2 Z M 120.3 91.9 C 120.3 91.9 121.5 92 121.5 92 C 121.3 92.8 121 93.3 120.4 93.7 C 119.9 94.2 119.2 94.4 118.4 94.4 C 117.3 94.4 116.4 94 115.8 93.4 C 115.2 92.7 114.9 91.8 114.9 90.6 C 114.9 89.4 115.2 88.5 115.8 87.8 C 116.5 87.1 117.3 86.8 118.3 86.8 C 119.3 86.8 120 87.1 120.7 87.8 C 121.3 88.4 121.6 89.4 121.6 90.5 C 121.6 90.6 121.6 90.7 121.6 90.9 C 121.6 90.9 116.2 90.9 116.2 90.9 C 116.2 91.7 116.4 92.3 116.8 92.7 C 117.2 93.1 117.8 93.3 118.4 93.3 C 118.8 93.3 119.2 93.2 119.5 93 C 119.8 92.8 120.1 92.4 120.3 91.9 Z M 116.2 89.9 C 116.2 89.9 120.3 89.9 120.3 89.9 C 120.2 89.3 120.1 88.8 119.8 88.5 C 119.4 88 118.9 87.8 118.3 87.8 C 117.7 87.8 117.3 88 116.9 88.3 C 116.5 88.7 116.3 89.2 116.2 89.9 Z M 123.1 94.2 L 123.1 86.9 L 124.2 86.9 C 124.2 86.9 124.18 88.03 124.2 88 C 124.5 87.5 124.7 87.2 125 87 C 125.2 86.9 125.5 86.8 125.8 86.8 C 126.2 86.8 126.6 86.9 127 87.2 C 127 87.2 126.6 88.3 126.6 88.3 C 126.3 88.1 126 88 125.7 88 C 125.4 88 125.2 88.1 125 88.3 C 124.8 88.4 124.6 88.7 124.5 89 C 124.4 89.4 124.3 89.9 124.3 90.4 C 124.3 90.39 124.3 94.2 124.3 94.2 L 123.1 94.2 Z " stroke="none" fill="#000000"/>  </g>  <g id="Polygon124082">    <path d="M 28.5 73.9 C 28.5 73.9 29.8 74.2 29.8 74.2 C 29.5 75.3 29 76.1 28.3 76.7 C 27.6 77.3 26.7 77.6 25.6 77.6 C 24.6 77.6 23.7 77.3 23 76.9 C 22.3 76.5 21.8 75.8 21.5 75 C 21.1 74.2 20.9 73.3 20.9 72.3 C 20.9 71.3 21.1 70.4 21.5 69.6 C 21.9 68.8 22.5 68.2 23.2 67.8 C 24 67.4 24.8 67.2 25.7 67.2 C 26.7 67.2 27.5 67.5 28.2 68 C 28.9 68.5 29.3 69.2 29.6 70.1 C 29.6 70.1 28.3 70.4 28.3 70.4 C 28.1 69.7 27.7 69.2 27.3 68.8 C 26.9 68.5 26.3 68.3 25.6 68.3 C 24.9 68.3 24.2 68.5 23.7 68.9 C 23.2 69.3 22.8 69.8 22.6 70.4 C 22.4 71 22.3 71.6 22.3 72.3 C 22.3 73.2 22.4 73.9 22.7 74.5 C 22.9 75.2 23.3 75.6 23.8 76 C 24.3 76.3 24.9 76.4 25.5 76.4 C 26.3 76.4 26.9 76.2 27.4 75.8 C 27.9 75.4 28.3 74.7 28.5 73.9 Z M 30.8 73.8 C 30.8 72.4 31.2 71.4 31.9 70.8 C 32.5 70.2 33.3 70 34.2 70 C 35.2 70 36 70.3 36.7 70.9 C 37.3 71.6 37.6 72.5 37.6 73.7 C 37.6 74.6 37.5 75.3 37.2 75.9 C 36.9 76.4 36.5 76.8 36 77.1 C 35.4 77.4 34.8 77.6 34.2 77.6 C 33.2 77.6 32.4 77.2 31.7 76.6 C 31.1 75.9 30.8 75 30.8 73.8 Z M 32.1 73.8 C 32.1 74.7 32.3 75.4 32.7 75.9 C 33.1 76.3 33.6 76.5 34.2 76.5 C 34.8 76.5 35.3 76.3 35.7 75.8 C 36.1 75.4 36.3 74.7 36.3 73.7 C 36.3 72.8 36.1 72.1 35.7 71.7 C 35.3 71.2 34.8 71 34.2 71 C 33.6 71 33.1 71.2 32.7 71.7 C 32.3 72.1 32.1 72.8 32.1 73.8 Z M 39 77.4 L 39 70.1 L 40.2 70.1 C 40.2 70.1 40.15 71.16 40.2 71.2 C 40.7 70.4 41.5 70 42.5 70 C 42.9 70 43.3 70 43.7 70.2 C 44 70.4 44.3 70.6 44.5 70.8 C 44.7 71.1 44.8 71.4 44.9 71.7 C 44.9 72 44.9 72.4 44.9 72.9 C 44.95 72.93 44.9 77.4 44.9 77.4 L 43.7 77.4 C 43.7 77.4 43.72 72.98 43.7 73 C 43.7 72.5 43.7 72.1 43.6 71.9 C 43.5 71.6 43.3 71.4 43.1 71.3 C 42.8 71.1 42.5 71 42.2 71 C 41.7 71 41.2 71.2 40.8 71.5 C 40.5 71.9 40.3 72.5 40.3 73.4 C 40.28 73.43 40.3 77.4 40.3 77.4 L 39 77.4 Z M 46.3 75.2 C 46.3 75.2 47.6 75 47.6 75 C 47.6 75.5 47.8 75.9 48.1 76.2 C 48.4 76.4 48.9 76.5 49.4 76.5 C 50 76.5 50.4 76.4 50.7 76.2 C 51 76 51.1 75.7 51.1 75.4 C 51.1 75.1 51 74.9 50.7 74.7 C 50.6 74.6 50.2 74.5 49.5 74.3 C 48.6 74.1 48 73.9 47.6 73.7 C 47.3 73.6 47 73.3 46.8 73 C 46.6 72.7 46.5 72.4 46.5 72.1 C 46.5 71.7 46.6 71.4 46.8 71.2 C 46.9 70.9 47.1 70.7 47.4 70.5 C 47.6 70.3 47.8 70.2 48.2 70.1 C 48.5 70 48.8 70 49.2 70 C 49.8 70 50.3 70.1 50.7 70.2 C 51.1 70.4 51.5 70.6 51.7 70.9 C 51.9 71.2 52 71.5 52.1 72 C 52.1 72 50.9 72.2 50.9 72.2 C 50.8 71.8 50.7 71.5 50.4 71.3 C 50.2 71.1 49.8 71 49.3 71 C 48.7 71 48.3 71.1 48.1 71.3 C 47.9 71.4 47.7 71.7 47.7 71.9 C 47.7 72.1 47.8 72.2 47.9 72.3 C 48 72.5 48.1 72.6 48.4 72.7 C 48.5 72.7 48.8 72.8 49.4 73 C 50.3 73.2 50.9 73.4 51.3 73.6 C 51.6 73.7 51.9 73.9 52.1 74.2 C 52.3 74.5 52.4 74.8 52.4 75.3 C 52.4 75.7 52.3 76.1 52 76.4 C 51.8 76.8 51.4 77.1 51 77.3 C 50.5 77.5 50 77.6 49.4 77.6 C 48.5 77.6 47.8 77.4 47.3 77 C 46.8 76.6 46.5 76 46.3 75.2 Z M 58.6 77.4 C 58.6 77.4 58.59 76.33 58.6 76.3 C 58 77.1 57.3 77.6 56.3 77.6 C 55.9 77.6 55.5 77.5 55.1 77.3 C 54.7 77.1 54.4 76.9 54.3 76.7 C 54.1 76.4 54 76.1 53.9 75.8 C 53.8 75.5 53.8 75.2 53.8 74.6 C 53.81 74.63 53.8 70.1 53.8 70.1 L 55 70.1 C 55 70.1 55.04 74.16 55 74.2 C 55 74.8 55.1 75.2 55.1 75.5 C 55.2 75.8 55.4 76 55.6 76.2 C 55.9 76.4 56.2 76.5 56.5 76.5 C 56.9 76.5 57.2 76.4 57.6 76.2 C 57.9 76 58.1 75.8 58.3 75.4 C 58.4 75.1 58.5 74.6 58.5 74 C 58.46 74.02 58.5 70.1 58.5 70.1 L 59.7 70.1 L 59.7 77.4 L 58.6 77.4 Z M 61.6 77.4 L 61.6 67.4 L 62.8 67.4 L 62.8 77.4 L 61.6 77.4 Z M 66.9 76.3 C 67 76.3 67.2 76.3 67.4 76.3 C 67.4 76.3 67.6 77.4 67.6 77.4 C 67.2 77.5 66.9 77.5 66.7 77.5 C 66.2 77.5 65.9 77.4 65.6 77.3 C 65.4 77.1 65.2 76.9 65.1 76.7 C 65 76.5 65 76 65 75.3 C 64.96 75.27 65 71.1 65 71.1 L 64.1 71.1 L 64.1 70.1 L 65 70.1 L 65 68.3 L 66.2 67.6 L 66.2 70.1 L 67.4 70.1 L 67.4 71.1 L 66.2 71.1 C 66.2 71.1 66.18 75.33 66.2 75.3 C 66.2 75.7 66.2 75.9 66.2 76 C 66.3 76.1 66.4 76.2 66.5 76.3 C 66.6 76.3 66.7 76.3 66.9 76.3 C 66.9 76.3 66.9 76.3 66.9 76.3 Z M 73.6 77.4 C 73.5 77.1 73.4 76.8 73.4 76.5 C 72.9 76.9 72.5 77.2 72 77.3 C 71.6 77.5 71.2 77.6 70.7 77.6 C 69.9 77.6 69.3 77.4 68.8 77 C 68.4 76.6 68.2 76.1 68.2 75.5 C 68.2 75.1 68.3 74.8 68.4 74.5 C 68.6 74.2 68.8 74 69.1 73.8 C 69.3 73.6 69.6 73.5 70 73.4 C 70.2 73.3 70.6 73.3 71.1 73.2 C 72.1 73.1 72.8 72.9 73.3 72.8 C 73.3 72.6 73.3 72.5 73.3 72.5 C 73.3 72 73.1 71.6 72.9 71.4 C 72.6 71.1 72.1 71 71.5 71 C 70.9 71 70.5 71.1 70.2 71.3 C 70 71.5 69.7 71.9 69.6 72.4 C 69.6 72.4 68.4 72.2 68.4 72.2 C 68.5 71.7 68.7 71.3 69 71 C 69.2 70.6 69.6 70.4 70 70.2 C 70.5 70.1 71.1 70 71.7 70 C 72.3 70 72.8 70 73.2 70.2 C 73.6 70.3 73.9 70.5 74.1 70.7 C 74.2 71 74.4 71.2 74.4 71.6 C 74.5 71.8 74.5 72.2 74.5 72.7 C 74.5 72.7 74.5 74.4 74.5 74.4 C 74.5 75.5 74.5 76.2 74.6 76.5 C 74.6 76.8 74.7 77.1 74.9 77.4 C 74.89 77.39 73.6 77.4 73.6 77.4 C 73.6 77.4 73.6 77.39 73.6 77.4 Z M 73.3 73.7 C 72.8 73.9 72.1 74.1 71.2 74.2 C 70.7 74.3 70.4 74.4 70.2 74.5 C 70 74.6 69.8 74.7 69.7 74.9 C 69.6 75 69.5 75.2 69.5 75.4 C 69.5 75.8 69.6 76 69.9 76.3 C 70.1 76.5 70.5 76.6 71 76.6 C 71.5 76.6 71.9 76.5 72.2 76.3 C 72.6 76.1 72.9 75.8 73.1 75.4 C 73.2 75.2 73.3 74.7 73.3 74.2 C 73.3 74.2 73.3 73.7 73.3 73.7 Z M 76.4 77.4 L 76.4 70.1 L 77.5 70.1 C 77.5 70.1 77.51 71.16 77.5 71.2 C 78 70.4 78.8 70 79.8 70 C 80.3 70 80.7 70 81 70.2 C 81.4 70.4 81.7 70.6 81.9 70.8 C 82 71.1 82.2 71.4 82.2 71.7 C 82.3 72 82.3 72.4 82.3 72.9 C 82.3 72.93 82.3 77.4 82.3 77.4 L 81.1 77.4 C 81.1 77.4 81.07 72.98 81.1 73 C 81.1 72.5 81 72.1 80.9 71.9 C 80.8 71.6 80.7 71.4 80.4 71.3 C 80.2 71.1 79.9 71 79.6 71 C 79 71 78.6 71.2 78.2 71.5 C 77.8 71.9 77.6 72.5 77.6 73.4 C 77.64 73.43 77.6 77.4 77.6 77.4 L 76.4 77.4 Z M 86.3 76.3 C 86.5 76.3 86.7 76.3 86.9 76.3 C 86.9 76.3 87.1 77.4 87.1 77.4 C 86.7 77.5 86.4 77.5 86.1 77.5 C 85.7 77.5 85.3 77.4 85.1 77.3 C 84.8 77.1 84.7 76.9 84.6 76.7 C 84.5 76.5 84.4 76 84.4 75.3 C 84.42 75.27 84.4 71.1 84.4 71.1 L 83.5 71.1 L 83.5 70.1 L 84.4 70.1 L 84.4 68.3 L 85.6 67.6 L 85.6 70.1 L 86.9 70.1 L 86.9 71.1 L 85.6 71.1 C 85.6 71.1 85.64 75.33 85.6 75.3 C 85.6 75.7 85.7 75.9 85.7 76 C 85.7 76.1 85.8 76.2 85.9 76.3 C 86 76.3 86.2 76.3 86.3 76.3 C 86.3 76.3 86.3 76.3 86.3 76.3 Z M 91 77.6 L 94 67.2 L 94.9 67.2 L 92 77.6 L 91 77.6 Z M 99.9 77.4 L 99.9 67.4 C 99.9 67.4 103.69 67.37 103.7 67.4 C 104.4 67.4 104.9 67.4 105.2 67.5 C 105.7 67.5 106.1 67.7 106.4 67.9 C 106.8 68.2 107 68.5 107.3 68.9 C 107.5 69.3 107.6 69.8 107.6 70.3 C 107.6 71.1 107.3 71.8 106.7 72.4 C 106.2 73 105.2 73.3 103.8 73.3 C 103.8 73.32 101.2 73.3 101.2 73.3 L 101.2 77.4 L 99.9 77.4 Z M 101.2 72.1 C 101.2 72.1 103.82 72.14 103.8 72.1 C 104.7 72.1 105.3 72 105.6 71.7 C 106 71.3 106.2 70.9 106.2 70.3 C 106.2 69.9 106.1 69.5 105.9 69.2 C 105.7 68.9 105.4 68.7 105 68.6 C 104.8 68.6 104.4 68.6 103.8 68.6 C 103.8 68.55 101.2 68.6 101.2 68.6 L 101.2 72.1 Z M 114.1 77.4 C 113.9 77.1 113.9 76.8 113.8 76.5 C 113.4 76.9 112.9 77.2 112.5 77.3 C 112.1 77.5 111.6 77.6 111.2 77.6 C 110.4 77.6 109.7 77.4 109.3 77 C 108.9 76.6 108.7 76.1 108.7 75.5 C 108.7 75.1 108.8 74.8 108.9 74.5 C 109.1 74.2 109.3 74 109.5 73.8 C 109.8 73.6 110.1 73.5 110.4 73.4 C 110.7 73.3 111 73.3 111.5 73.2 C 112.5 73.1 113.3 72.9 113.7 72.8 C 113.7 72.6 113.7 72.5 113.7 72.5 C 113.7 72 113.6 71.6 113.4 71.4 C 113.1 71.1 112.6 71 112 71 C 111.4 71 111 71.1 110.7 71.3 C 110.4 71.5 110.2 71.9 110.1 72.4 C 110.1 72.4 108.9 72.2 108.9 72.2 C 109 71.7 109.2 71.3 109.4 71 C 109.7 70.6 110 70.4 110.5 70.2 C 111 70.1 111.5 70 112.2 70 C 112.8 70 113.3 70 113.7 70.2 C 114.1 70.3 114.3 70.5 114.5 70.7 C 114.7 71 114.8 71.2 114.9 71.6 C 114.9 71.8 115 72.2 115 72.7 C 115 72.7 115 74.4 115 74.4 C 115 75.5 115 76.2 115 76.5 C 115.1 76.8 115.2 77.1 115.4 77.4 C 115.36 77.39 114.1 77.4 114.1 77.4 C 114.1 77.4 114.07 77.39 114.1 77.4 Z M 113.7 73.7 C 113.3 73.9 112.6 74.1 111.7 74.2 C 111.2 74.3 110.8 74.4 110.6 74.5 C 110.4 74.6 110.3 74.7 110.2 74.9 C 110 75 110 75.2 110 75.4 C 110 75.8 110.1 76 110.4 76.3 C 110.6 76.5 111 76.6 111.4 76.6 C 111.9 76.6 112.3 76.5 112.7 76.3 C 113.1 76.1 113.4 75.8 113.5 75.4 C 113.7 75.2 113.7 74.7 113.7 74.2 C 113.7 74.2 113.7 73.7 113.7 73.7 Z M 116.9 77.4 L 116.9 70.1 L 118 70.1 C 118 70.1 117.97 71.23 118 71.2 C 118.3 70.7 118.5 70.4 118.8 70.2 C 119 70.1 119.3 70 119.5 70 C 120 70 120.4 70.1 120.8 70.4 C 120.8 70.4 120.4 71.5 120.4 71.5 C 120.1 71.3 119.8 71.2 119.5 71.2 C 119.2 71.2 119 71.3 118.8 71.5 C 118.5 71.6 118.4 71.9 118.3 72.2 C 118.2 72.6 118.1 73.1 118.1 73.6 C 118.09 73.59 118.1 77.4 118.1 77.4 L 116.9 77.4 Z M 123.7 76.3 C 123.8 76.3 124 76.3 124.2 76.3 C 124.2 76.3 124.4 77.4 124.4 77.4 C 124.1 77.5 123.7 77.5 123.5 77.5 C 123 77.5 122.7 77.4 122.4 77.3 C 122.2 77.1 122 76.9 121.9 76.7 C 121.8 76.5 121.8 76 121.8 75.3 C 121.76 75.27 121.8 71.1 121.8 71.1 L 120.9 71.1 L 120.9 70.1 L 121.8 70.1 L 121.8 68.3 L 123 67.6 L 123 70.1 L 124.2 70.1 L 124.2 71.1 L 123 71.1 C 123 71.1 122.99 75.33 123 75.3 C 123 75.7 123 75.9 123.1 76 C 123.1 76.1 123.2 76.2 123.3 76.3 C 123.4 76.3 123.5 76.3 123.7 76.3 C 123.7 76.3 123.7 76.3 123.7 76.3 Z M 125.4 77.4 L 125.4 70.1 L 126.5 70.1 C 126.5 70.1 126.53 71.16 126.5 71.2 C 127.1 70.4 127.8 70 128.8 70 C 129.3 70 129.7 70 130.1 70.2 C 130.4 70.4 130.7 70.6 130.9 70.8 C 131.1 71.1 131.2 71.4 131.3 71.7 C 131.3 72 131.3 72.4 131.3 72.9 C 131.33 72.93 131.3 77.4 131.3 77.4 L 130.1 77.4 C 130.1 77.4 130.09 72.98 130.1 73 C 130.1 72.5 130 72.1 130 71.9 C 129.9 71.6 129.7 71.4 129.4 71.3 C 129.2 71.1 128.9 71 128.6 71 C 128.1 71 127.6 71.2 127.2 71.5 C 126.8 71.9 126.7 72.5 126.7 73.4 C 126.66 73.43 126.7 77.4 126.7 77.4 L 125.4 77.4 Z M 138.2 75.1 C 138.2 75.1 139.5 75.2 139.5 75.2 C 139.3 76 138.9 76.5 138.3 76.9 C 137.8 77.4 137.1 77.6 136.3 77.6 C 135.2 77.6 134.4 77.2 133.7 76.6 C 133.1 75.9 132.8 75 132.8 73.8 C 132.8 72.6 133.1 71.7 133.7 71 C 134.4 70.3 135.2 70 136.2 70 C 137.2 70 138 70.3 138.6 71 C 139.2 71.6 139.5 72.6 139.5 73.7 C 139.5 73.8 139.5 73.9 139.5 74.1 C 139.5 74.1 134.1 74.1 134.1 74.1 C 134.1 74.9 134.3 75.5 134.7 75.9 C 135.2 76.3 135.7 76.5 136.3 76.5 C 136.7 76.5 137.1 76.4 137.4 76.2 C 137.7 76 138 75.6 138.2 75.1 Z M 134.1 73.1 C 134.1 73.1 138.2 73.1 138.2 73.1 C 138.1 72.5 138 72 137.7 71.7 C 137.3 71.2 136.8 71 136.2 71 C 135.6 71 135.2 71.2 134.8 71.5 C 134.4 71.9 134.2 72.4 134.1 73.1 Z M 141 77.4 L 141 70.1 L 142.1 70.1 C 142.1 70.1 142.09 71.23 142.1 71.2 C 142.4 70.7 142.6 70.4 142.9 70.2 C 143.1 70.1 143.4 70 143.7 70 C 144.1 70 144.5 70.1 144.9 70.4 C 144.9 70.4 144.5 71.5 144.5 71.5 C 144.2 71.3 143.9 71.2 143.6 71.2 C 143.3 71.2 143.1 71.3 142.9 71.5 C 142.7 71.6 142.5 71.9 142.4 72.2 C 142.3 72.6 142.2 73.1 142.2 73.6 C 142.21 73.59 142.2 77.4 142.2 77.4 L 141 77.4 Z " stroke="none" fill="#000000"/>  </g>  <g id="Polygon124081">    <path d="M 1.1 60.6 L 1.1 50.7 L 3.1 50.7 L 3.1 58.9 L 8.1 58.9 L 8.1 60.6 L 1.1 60.6 Z M 9.2 58 C 9.2 58 11.1 57.8 11.1 57.8 C 11.1 58.3 11.3 58.6 11.6 58.8 C 11.8 59.1 12.2 59.2 12.5 59.2 C 12.9 59.2 13.2 59.1 13.5 58.7 C 13.8 58.4 13.9 57.9 13.9 57.3 C 13.9 56.6 13.8 56.2 13.5 55.9 C 13.2 55.6 12.9 55.4 12.4 55.4 C 11.9 55.4 11.4 55.7 11 56.1 C 10.96 56.15 9.4 55.9 9.4 55.9 L 10.4 50.7 L 15.5 50.7 L 15.5 52.5 L 11.8 52.5 C 11.8 52.5 11.55 54.21 11.5 54.2 C 12 54 12.4 53.9 12.9 53.9 C 13.7 53.9 14.4 54.2 15 54.8 C 15.6 55.4 15.9 56.2 15.9 57.2 C 15.9 58.1 15.7 58.8 15.2 59.4 C 14.5 60.3 13.6 60.8 12.5 60.8 C 11.6 60.8 10.8 60.5 10.2 60 C 9.6 59.5 9.3 58.9 9.2 58 Z M 21.3 60.6 L 21.3 50.6 L 22.6 50.6 L 22.6 59.4 L 27.5 59.4 L 27.5 60.6 L 21.3 60.6 Z M 33.9 58.3 C 33.9 58.3 35.2 58.4 35.2 58.4 C 35 59.2 34.6 59.7 34.1 60.1 C 33.5 60.6 32.8 60.8 32 60.8 C 30.9 60.8 30.1 60.4 29.5 59.8 C 28.8 59.1 28.5 58.2 28.5 57 C 28.5 55.8 28.8 54.9 29.5 54.2 C 30.1 53.5 30.9 53.2 31.9 53.2 C 32.9 53.2 33.7 53.5 34.3 54.2 C 34.9 54.8 35.2 55.8 35.2 56.9 C 35.2 57 35.2 57.1 35.2 57.3 C 35.2 57.3 29.8 57.3 29.8 57.3 C 29.8 58.1 30.1 58.7 30.5 59.1 C 30.9 59.5 31.4 59.7 32 59.7 C 32.4 59.7 32.8 59.6 33.1 59.4 C 33.5 59.2 33.7 58.8 33.9 58.3 Z M 29.9 56.3 C 29.9 56.3 33.9 56.3 33.9 56.3 C 33.9 55.7 33.7 55.2 33.5 54.9 C 33.1 54.4 32.6 54.2 31.9 54.2 C 31.4 54.2 30.9 54.4 30.5 54.7 C 30.1 55.1 29.9 55.6 29.9 56.3 Z M 41.7 60.6 C 41.6 60.3 41.5 60 41.5 59.7 C 41 60.1 40.6 60.4 40.1 60.5 C 39.7 60.7 39.3 60.8 38.8 60.8 C 38 60.8 37.4 60.6 36.9 60.2 C 36.5 59.8 36.3 59.3 36.3 58.7 C 36.3 58.3 36.4 58 36.5 57.7 C 36.7 57.4 36.9 57.2 37.2 57 C 37.4 56.8 37.7 56.7 38.1 56.6 C 38.3 56.5 38.7 56.5 39.2 56.4 C 40.2 56.3 40.9 56.1 41.4 56 C 41.4 55.8 41.4 55.7 41.4 55.7 C 41.4 55.2 41.2 54.8 41 54.6 C 40.7 54.3 40.2 54.2 39.6 54.2 C 39 54.2 38.6 54.3 38.3 54.5 C 38.1 54.7 37.9 55.1 37.7 55.6 C 37.7 55.6 36.5 55.4 36.5 55.4 C 36.6 54.9 36.8 54.5 37.1 54.2 C 37.3 53.8 37.7 53.6 38.1 53.4 C 38.6 53.3 39.2 53.2 39.8 53.2 C 40.4 53.2 40.9 53.2 41.3 53.4 C 41.7 53.5 42 53.7 42.2 53.9 C 42.3 54.2 42.5 54.4 42.5 54.8 C 42.6 55 42.6 55.4 42.6 55.9 C 42.6 55.9 42.6 57.6 42.6 57.6 C 42.6 58.7 42.6 59.4 42.7 59.7 C 42.7 60 42.8 60.3 43 60.6 C 42.99 60.59 41.7 60.6 41.7 60.6 C 41.7 60.6 41.71 60.59 41.7 60.6 Z M 41.4 56.9 C 40.9 57.1 40.2 57.3 39.3 57.4 C 38.8 57.5 38.5 57.6 38.3 57.7 C 38.1 57.8 37.9 57.9 37.8 58.1 C 37.7 58.2 37.6 58.4 37.6 58.6 C 37.6 59 37.7 59.2 38 59.5 C 38.2 59.7 38.6 59.8 39.1 59.8 C 39.6 59.8 40 59.7 40.3 59.5 C 40.7 59.3 41 59 41.2 58.6 C 41.3 58.4 41.4 57.9 41.4 57.4 C 41.4 57.4 41.4 56.9 41.4 56.9 Z M 44.5 60.6 L 44.5 53.3 L 45.6 53.3 C 45.6 53.3 45.6 54.43 45.6 54.4 C 45.9 53.9 46.1 53.6 46.4 53.4 C 46.6 53.3 46.9 53.2 47.2 53.2 C 47.6 53.2 48 53.3 48.4 53.6 C 48.4 53.6 48 54.7 48 54.7 C 47.7 54.5 47.4 54.4 47.1 54.4 C 46.8 54.4 46.6 54.5 46.4 54.7 C 46.2 54.8 46 55.1 45.9 55.4 C 45.8 55.8 45.7 56.3 45.7 56.8 C 45.73 56.79 45.7 60.6 45.7 60.6 L 44.5 60.6 Z M 49.2 60.6 L 49.2 53.3 L 50.3 53.3 C 50.3 53.3 50.28 54.36 50.3 54.4 C 50.8 53.6 51.6 53.2 52.6 53.2 C 53 53.2 53.4 53.2 53.8 53.4 C 54.2 53.6 54.4 53.8 54.6 54 C 54.8 54.3 54.9 54.6 55 54.9 C 55 55.2 55.1 55.6 55.1 56.1 C 55.07 56.13 55.1 60.6 55.1 60.6 L 53.8 60.6 C 53.8 60.6 53.84 56.18 53.8 56.2 C 53.8 55.7 53.8 55.3 53.7 55.1 C 53.6 54.8 53.4 54.6 53.2 54.5 C 52.9 54.3 52.7 54.2 52.3 54.2 C 51.8 54.2 51.4 54.4 51 54.7 C 50.6 55.1 50.4 55.7 50.4 56.6 C 50.4 56.63 50.4 60.6 50.4 60.6 L 49.2 60.6 Z M 57 52 L 57 50.6 L 58.2 50.6 L 58.2 52 L 57 52 Z M 57 60.6 L 57 53.3 L 58.2 53.3 L 58.2 60.6 L 57 60.6 Z M 60.1 60.6 L 60.1 53.3 L 61.2 53.3 C 61.2 53.3 61.17 54.36 61.2 54.4 C 61.7 53.6 62.5 53.2 63.5 53.2 C 63.9 53.2 64.3 53.2 64.7 53.4 C 65.1 53.6 65.3 53.8 65.5 54 C 65.7 54.3 65.8 54.6 65.9 54.9 C 65.9 55.2 66 55.6 66 56.1 C 65.97 56.13 66 60.6 66 60.6 L 64.7 60.6 C 64.7 60.6 64.74 56.18 64.7 56.2 C 64.7 55.7 64.7 55.3 64.6 55.1 C 64.5 54.8 64.3 54.6 64.1 54.5 C 63.8 54.3 63.6 54.2 63.2 54.2 C 62.7 54.2 62.2 54.4 61.9 54.7 C 61.5 55.1 61.3 55.7 61.3 56.6 C 61.3 56.63 61.3 60.6 61.3 60.6 L 60.1 60.6 Z M 67.6 61.2 C 67.6 61.2 68.8 61.4 68.8 61.4 C 68.9 61.7 69 62 69.2 62.2 C 69.5 62.4 70 62.5 70.5 62.5 C 71.1 62.5 71.5 62.4 71.8 62.2 C 72.1 62 72.3 61.6 72.4 61.2 C 72.5 61 72.5 60.4 72.5 59.6 C 72 60.3 71.3 60.6 70.5 60.6 C 69.5 60.6 68.7 60.2 68.2 59.5 C 67.7 58.8 67.4 57.9 67.4 56.9 C 67.4 56.2 67.5 55.6 67.8 55 C 68 54.4 68.4 54 68.8 53.6 C 69.3 53.3 69.9 53.2 70.5 53.2 C 71.4 53.2 72.1 53.5 72.6 54.2 C 72.65 54.21 72.6 53.3 72.6 53.3 L 73.8 53.3 C 73.8 53.3 73.78 59.61 73.8 59.6 C 73.8 60.7 73.7 61.5 73.4 62 C 73.2 62.5 72.8 62.9 72.3 63.1 C 71.8 63.4 71.2 63.5 70.5 63.5 C 69.6 63.5 68.9 63.3 68.4 63 C 67.9 62.6 67.6 62 67.6 61.2 Z M 68.6 56.8 C 68.6 57.8 68.8 58.5 69.2 58.9 C 69.6 59.4 70.1 59.6 70.6 59.6 C 71.2 59.6 71.7 59.4 72.1 58.9 C 72.4 58.5 72.6 57.8 72.6 56.9 C 72.6 56 72.4 55.3 72 54.9 C 71.6 54.4 71.2 54.2 70.6 54.2 C 70.1 54.2 69.6 54.4 69.2 54.9 C 68.8 55.3 68.6 56 68.6 56.8 Z M 86.8 60.8 C 86.3 60.5 85.8 60 85.3 59.4 C 84.9 59.9 84.4 60.2 83.9 60.4 C 83.5 60.7 82.9 60.8 82.4 60.8 C 81.4 60.8 80.5 60.4 79.9 59.7 C 79.5 59.2 79.2 58.5 79.2 57.8 C 79.2 57.2 79.4 56.7 79.8 56.2 C 80.2 55.7 80.8 55.2 81.6 54.8 C 81.1 54.3 80.8 53.9 80.7 53.6 C 80.5 53.2 80.5 52.9 80.5 52.6 C 80.5 52 80.7 51.5 81.2 51.1 C 81.6 50.6 82.2 50.4 83 50.4 C 83.6 50.4 84.2 50.6 84.6 51 C 85.1 51.4 85.3 52 85.3 52.5 C 85.3 53.5 84.7 54.3 83.4 55 C 83.4 55 85.2 57.3 85.2 57.3 C 85.4 56.9 85.6 56.4 85.7 55.9 C 85.7 55.9 86.9 56.1 86.9 56.1 C 86.7 57 86.4 57.7 86.1 58.3 C 86.5 58.9 87 59.4 87.6 59.8 C 87.62 59.85 86.8 60.8 86.8 60.8 C 86.8 60.8 86.8 60.82 86.8 60.8 Z M 82.8 54.2 C 83.3 53.9 83.6 53.6 83.8 53.4 C 83.9 53.1 84 52.9 84 52.6 C 84 52.2 83.9 52 83.7 51.7 C 83.5 51.5 83.2 51.4 82.9 51.4 C 82.6 51.4 82.3 51.5 82.1 51.7 C 81.8 51.9 81.7 52.2 81.7 52.5 C 81.7 52.7 81.8 52.8 81.9 53 C 81.9 53.2 82 53.4 82.2 53.6 C 82.2 53.6 82.8 54.2 82.8 54.2 Z M 84.5 58.4 C 84.5 58.4 82.2 55.6 82.2 55.6 C 81.6 56 81.1 56.4 80.9 56.7 C 80.7 57.1 80.5 57.4 80.5 57.8 C 80.5 58.2 80.7 58.6 81 59 C 81.3 59.5 81.8 59.7 82.4 59.7 C 82.8 59.7 83.1 59.6 83.5 59.3 C 83.9 59.1 84.2 58.8 84.5 58.4 Z M 92.9 60.6 L 92.9 50.6 C 92.9 50.6 96.37 50.57 96.4 50.6 C 97.1 50.6 97.7 50.6 98.2 50.7 C 98.7 50.8 99.2 51.1 99.6 51.4 C 100.1 51.9 100.5 52.4 100.8 53.1 C 101.1 53.8 101.2 54.6 101.2 55.5 C 101.2 56.3 101.1 57 100.9 57.6 C 100.8 58.1 100.5 58.6 100.2 59 C 100 59.4 99.7 59.7 99.3 59.9 C 99 60.1 98.6 60.3 98.1 60.4 C 97.7 60.5 97.1 60.6 96.5 60.6 C 96.53 60.59 92.9 60.6 92.9 60.6 Z M 94.2 59.4 C 94.2 59.4 96.38 59.41 96.4 59.4 C 97 59.4 97.6 59.3 97.9 59.2 C 98.3 59.1 98.6 58.9 98.8 58.7 C 99.1 58.4 99.4 58 99.6 57.4 C 99.7 56.9 99.8 56.3 99.8 55.5 C 99.8 54.5 99.7 53.7 99.3 53.1 C 99 52.5 98.6 52.1 98.1 52 C 97.7 51.8 97.1 51.8 96.3 51.8 C 96.35 51.75 94.2 51.8 94.2 51.8 L 94.2 59.4 Z M 107.8 58.3 C 107.8 58.3 109.1 58.4 109.1 58.4 C 108.9 59.2 108.5 59.7 108 60.1 C 107.5 60.6 106.8 60.8 105.9 60.8 C 104.9 60.8 104 60.4 103.4 59.8 C 102.8 59.1 102.5 58.2 102.5 57 C 102.5 55.8 102.8 54.9 103.4 54.2 C 104 53.5 104.8 53.2 105.8 53.2 C 106.8 53.2 107.6 53.5 108.2 54.2 C 108.8 54.8 109.1 55.8 109.1 56.9 C 109.1 57 109.1 57.1 109.1 57.3 C 109.1 57.3 103.7 57.3 103.7 57.3 C 103.8 58.1 104 58.7 104.4 59.1 C 104.8 59.5 105.3 59.7 105.9 59.7 C 106.4 59.7 106.8 59.6 107.1 59.4 C 107.4 59.2 107.6 58.8 107.8 58.3 Z M 103.8 56.3 C 103.8 56.3 107.9 56.3 107.9 56.3 C 107.8 55.7 107.6 55.2 107.4 54.9 C 107 54.4 106.5 54.2 105.9 54.2 C 105.3 54.2 104.8 54.4 104.4 54.7 C 104.1 55.1 103.8 55.6 103.8 56.3 Z M 112.7 60.6 L 109.9 53.3 L 111.2 53.3 C 111.2 53.3 112.77 57.68 112.8 57.7 C 112.9 58.1 113.1 58.6 113.2 59.1 C 113.3 58.8 113.5 58.3 113.7 57.8 C 113.69 57.76 115.3 53.3 115.3 53.3 L 116.6 53.3 L 113.8 60.6 L 112.7 60.6 Z M 122.6 58.3 C 122.6 58.3 123.9 58.4 123.9 58.4 C 123.7 59.2 123.3 59.7 122.8 60.1 C 122.2 60.6 121.5 60.8 120.7 60.8 C 119.6 60.8 118.8 60.4 118.2 59.8 C 117.6 59.1 117.2 58.2 117.2 57 C 117.2 55.8 117.6 54.9 118.2 54.2 C 118.8 53.5 119.6 53.2 120.6 53.2 C 121.6 53.2 122.4 53.5 123 54.2 C 123.6 54.8 123.9 55.8 123.9 56.9 C 123.9 57 123.9 57.1 123.9 57.3 C 123.9 57.3 118.5 57.3 118.5 57.3 C 118.6 58.1 118.8 58.7 119.2 59.1 C 119.6 59.5 120.1 59.7 120.7 59.7 C 121.2 59.7 121.5 59.6 121.9 59.4 C 122.2 59.2 122.4 58.8 122.6 58.3 Z M 118.6 56.3 C 118.6 56.3 122.6 56.3 122.6 56.3 C 122.6 55.7 122.4 55.2 122.2 54.9 C 121.8 54.4 121.3 54.2 120.6 54.2 C 120.1 54.2 119.6 54.4 119.2 54.7 C 118.8 55.1 118.6 55.6 118.6 56.3 Z M 125.4 60.6 L 125.4 50.6 L 126.6 50.6 L 126.6 60.6 L 125.4 60.6 Z M 128.1 57 C 128.1 55.6 128.5 54.6 129.2 54 C 129.8 53.4 130.6 53.2 131.5 53.2 C 132.5 53.2 133.3 53.5 133.9 54.1 C 134.6 54.8 134.9 55.7 134.9 56.9 C 134.9 57.8 134.8 58.5 134.5 59.1 C 134.2 59.6 133.8 60 133.2 60.3 C 132.7 60.6 132.1 60.8 131.5 60.8 C 130.5 60.8 129.7 60.4 129 59.8 C 128.4 59.1 128.1 58.2 128.1 57 Z M 129.4 57 C 129.4 57.9 129.6 58.6 130 59.1 C 130.4 59.5 130.9 59.7 131.5 59.7 C 132.1 59.7 132.6 59.5 133 59 C 133.4 58.6 133.6 57.9 133.6 56.9 C 133.6 56 133.4 55.3 133 54.9 C 132.6 54.4 132.1 54.2 131.5 54.2 C 130.9 54.2 130.4 54.4 130 54.9 C 129.6 55.3 129.4 56 129.4 57 Z M 136.3 63.4 L 136.3 53.3 L 137.5 53.3 C 137.5 53.3 137.46 54.28 137.5 54.3 C 137.7 53.9 138 53.6 138.4 53.4 C 138.7 53.3 139.1 53.2 139.6 53.2 C 140.2 53.2 140.7 53.3 141.2 53.6 C 141.7 54 142 54.4 142.3 55 C 142.5 55.6 142.6 56.2 142.6 56.9 C 142.6 57.7 142.5 58.3 142.2 58.9 C 142 59.5 141.6 60 141.1 60.3 C 140.6 60.6 140 60.8 139.5 60.8 C 139.1 60.8 138.7 60.7 138.4 60.5 C 138 60.3 137.8 60.1 137.6 59.8 C 137.57 59.84 137.6 63.4 137.6 63.4 L 136.3 63.4 Z M 137.5 57 C 137.5 57.9 137.6 58.6 138 59.1 C 138.4 59.5 138.9 59.7 139.4 59.7 C 139.9 59.7 140.4 59.5 140.8 59.1 C 141.2 58.6 141.4 57.9 141.4 56.9 C 141.4 56 141.2 55.3 140.8 54.8 C 140.4 54.4 140 54.1 139.4 54.1 C 138.9 54.1 138.5 54.4 138.1 54.9 C 137.7 55.4 137.5 56.1 137.5 57 Z M 144.1 60.6 L 144.1 53.3 L 145.2 53.3 C 145.2 53.3 145.22 54.35 145.2 54.4 C 145.5 54 145.8 53.7 146.1 53.5 C 146.5 53.3 146.9 53.2 147.4 53.2 C 148 53.2 148.4 53.3 148.7 53.5 C 149.1 53.7 149.3 54 149.5 54.4 C 150 53.6 150.8 53.2 151.7 53.2 C 152.4 53.2 153 53.4 153.4 53.8 C 153.8 54.2 154 54.8 154 55.6 C 153.96 55.61 154 60.6 154 60.6 L 152.7 60.6 C 152.7 60.6 152.74 56.02 152.7 56 C 152.7 55.5 152.7 55.2 152.6 55 C 152.5 54.7 152.4 54.6 152.2 54.4 C 152 54.3 151.7 54.2 151.4 54.2 C 150.9 54.2 150.5 54.4 150.2 54.7 C 149.8 55.1 149.7 55.6 149.7 56.4 C 149.67 56.37 149.7 60.6 149.7 60.6 L 148.4 60.6 C 148.4 60.6 148.44 55.88 148.4 55.9 C 148.4 55.3 148.3 54.9 148.1 54.6 C 147.9 54.4 147.6 54.2 147.2 54.2 C 146.8 54.2 146.5 54.3 146.2 54.5 C 145.9 54.7 145.7 55 145.6 55.3 C 145.4 55.7 145.4 56.2 145.4 56.8 C 145.35 56.83 145.4 60.6 145.4 60.6 L 144.1 60.6 Z M 160.8 58.3 C 160.8 58.3 162 58.4 162 58.4 C 161.8 59.2 161.5 59.7 160.9 60.1 C 160.4 60.6 159.7 60.8 158.8 60.8 C 157.8 60.8 156.9 60.4 156.3 59.8 C 155.7 59.1 155.4 58.2 155.4 57 C 155.4 55.8 155.7 54.9 156.3 54.2 C 156.9 53.5 157.8 53.2 158.8 53.2 C 159.7 53.2 160.5 53.5 161.1 54.2 C 161.8 54.8 162.1 55.8 162.1 56.9 C 162.1 57 162.1 57.1 162.1 57.3 C 162.1 57.3 156.6 57.3 156.6 57.3 C 156.7 58.1 156.9 58.7 157.3 59.1 C 157.7 59.5 158.2 59.7 158.8 59.7 C 159.3 59.7 159.7 59.6 160 59.4 C 160.3 59.2 160.6 58.8 160.8 58.3 Z M 156.7 56.3 C 156.7 56.3 160.8 56.3 160.8 56.3 C 160.7 55.7 160.6 55.2 160.3 54.9 C 159.9 54.4 159.4 54.2 158.8 54.2 C 158.2 54.2 157.7 54.4 157.4 54.7 C 157 55.1 156.8 55.6 156.7 56.3 Z M 163.6 60.6 L 163.6 53.3 L 164.7 53.3 C 164.7 53.3 164.68 54.36 164.7 54.4 C 165.2 53.6 166 53.2 167 53.2 C 167.4 53.2 167.8 53.2 168.2 53.4 C 168.6 53.6 168.8 53.8 169 54 C 169.2 54.3 169.3 54.6 169.4 54.9 C 169.4 55.2 169.5 55.6 169.5 56.1 C 169.47 56.13 169.5 60.6 169.5 60.6 L 168.2 60.6 C 168.2 60.6 168.24 56.18 168.2 56.2 C 168.2 55.7 168.2 55.3 168.1 55.1 C 168 54.8 167.8 54.6 167.6 54.5 C 167.3 54.3 167.1 54.2 166.7 54.2 C 166.2 54.2 165.8 54.4 165.4 54.7 C 165 55.1 164.8 55.7 164.8 56.6 C 164.8 56.63 164.8 60.6 164.8 60.6 L 163.6 60.6 Z M 173.5 59.5 C 173.6 59.5 173.8 59.5 174 59.5 C 174 59.5 174.2 60.6 174.2 60.6 C 173.9 60.7 173.6 60.7 173.3 60.7 C 172.8 60.7 172.5 60.6 172.3 60.5 C 172 60.3 171.8 60.1 171.7 59.9 C 171.6 59.7 171.6 59.2 171.6 58.5 C 171.58 58.47 171.6 54.3 171.6 54.3 L 170.7 54.3 L 170.7 53.3 L 171.6 53.3 L 171.6 51.5 L 172.8 50.8 L 172.8 53.3 L 174 53.3 L 174 54.3 L 172.8 54.3 C 172.8 54.3 172.81 58.53 172.8 58.5 C 172.8 58.9 172.8 59.1 172.9 59.2 C 172.9 59.3 173 59.4 173.1 59.5 C 173.2 59.5 173.3 59.5 173.5 59.5 C 173.5 59.5 173.5 59.5 173.5 59.5 Z " stroke="none" fill="#000000"/>  </g>  <g id="Polygon124080">    <path d="M 1.1 43.8 L 1.1 33.9 L 3.1 33.9 L 3.1 42.1 L 8.1 42.1 L 8.1 43.8 L 1.1 43.8 Z M 9.1 41.1 C 9.1 41.1 10.9 40.9 10.9 40.9 C 11 41.4 11.2 41.7 11.4 42 C 11.7 42.2 12 42.4 12.4 42.4 C 12.8 42.4 13.1 42.2 13.4 41.9 C 13.6 41.6 13.8 41.2 13.8 40.7 C 13.8 40.2 13.6 39.8 13.4 39.6 C 13.1 39.3 12.8 39.1 12.4 39.1 C 12.2 39.1 11.9 39.2 11.5 39.3 C 11.5 39.3 11.8 37.7 11.8 37.7 C 12.3 37.7 12.7 37.6 12.9 37.4 C 13.2 37.1 13.4 36.8 13.4 36.4 C 13.4 36.1 13.3 35.8 13.1 35.6 C 12.9 35.4 12.6 35.3 12.3 35.3 C 11.9 35.3 11.6 35.4 11.4 35.7 C 11.2 35.9 11 36.2 11 36.6 C 11 36.6 9.2 36.3 9.2 36.3 C 9.3 35.7 9.5 35.3 9.8 34.9 C 10 34.5 10.4 34.2 10.8 34 C 11.3 33.8 11.8 33.7 12.3 33.7 C 13.3 33.7 14 34 14.6 34.6 C 15.1 35.1 15.3 35.7 15.3 36.3 C 15.3 37.2 14.8 37.9 13.8 38.4 C 14.4 38.5 14.9 38.8 15.2 39.2 C 15.6 39.7 15.7 40.2 15.7 40.8 C 15.7 41.7 15.4 42.4 14.8 43 C 14.1 43.7 13.3 44 12.4 44 C 11.5 44 10.7 43.7 10.1 43.2 C 9.5 42.7 9.2 42 9.1 41.1 Z M 21.3 43.8 L 21.3 33.8 L 22.6 33.8 L 22.6 42.6 L 27.5 42.6 L 27.5 43.8 L 21.3 43.8 Z M 33.9 41.5 C 33.9 41.5 35.2 41.6 35.2 41.6 C 35 42.4 34.6 42.9 34.1 43.3 C 33.5 43.8 32.8 44 32 44 C 30.9 44 30.1 43.6 29.5 43 C 28.8 42.3 28.5 41.4 28.5 40.2 C 28.5 39 28.8 38.1 29.5 37.4 C 30.1 36.7 30.9 36.4 31.9 36.4 C 32.9 36.4 33.7 36.7 34.3 37.4 C 34.9 38 35.2 39 35.2 40.1 C 35.2 40.2 35.2 40.3 35.2 40.5 C 35.2 40.5 29.8 40.5 29.8 40.5 C 29.8 41.3 30.1 41.9 30.5 42.3 C 30.9 42.7 31.4 42.9 32 42.9 C 32.4 42.9 32.8 42.8 33.1 42.6 C 33.5 42.4 33.7 42 33.9 41.5 Z M 29.9 39.5 C 29.9 39.5 33.9 39.5 33.9 39.5 C 33.9 38.9 33.7 38.4 33.5 38.1 C 33.1 37.6 32.6 37.4 31.9 37.4 C 31.4 37.4 30.9 37.6 30.5 37.9 C 30.1 38.3 29.9 38.8 29.9 39.5 Z M 41.7 43.8 C 41.6 43.5 41.5 43.2 41.5 42.9 C 41 43.3 40.6 43.6 40.1 43.7 C 39.7 43.9 39.3 44 38.8 44 C 38 44 37.4 43.8 36.9 43.4 C 36.5 43 36.3 42.5 36.3 41.9 C 36.3 41.5 36.4 41.2 36.5 40.9 C 36.7 40.6 36.9 40.4 37.2 40.2 C 37.4 40 37.7 39.9 38.1 39.8 C 38.3 39.7 38.7 39.7 39.2 39.6 C 40.2 39.5 40.9 39.3 41.4 39.2 C 41.4 39 41.4 38.9 41.4 38.9 C 41.4 38.4 41.2 38 41 37.8 C 40.7 37.5 40.2 37.4 39.6 37.4 C 39 37.4 38.6 37.5 38.3 37.7 C 38.1 37.9 37.9 38.3 37.7 38.8 C 37.7 38.8 36.5 38.6 36.5 38.6 C 36.6 38.1 36.8 37.7 37.1 37.4 C 37.3 37 37.7 36.8 38.1 36.6 C 38.6 36.5 39.2 36.4 39.8 36.4 C 40.4 36.4 40.9 36.4 41.3 36.6 C 41.7 36.7 42 36.9 42.2 37.1 C 42.3 37.4 42.5 37.6 42.5 38 C 42.6 38.2 42.6 38.6 42.6 39.1 C 42.6 39.1 42.6 40.8 42.6 40.8 C 42.6 41.9 42.6 42.6 42.7 42.9 C 42.7 43.2 42.8 43.5 43 43.8 C 42.99 43.79 41.7 43.8 41.7 43.8 C 41.7 43.8 41.71 43.79 41.7 43.8 Z M 41.4 40.1 C 40.9 40.3 40.2 40.5 39.3 40.6 C 38.8 40.7 38.5 40.8 38.3 40.9 C 38.1 41 37.9 41.1 37.8 41.3 C 37.7 41.4 37.6 41.6 37.6 41.8 C 37.6 42.2 37.7 42.4 38 42.7 C 38.2 42.9 38.6 43 39.1 43 C 39.6 43 40 42.9 40.3 42.7 C 40.7 42.5 41 42.2 41.2 41.8 C 41.3 41.6 41.4 41.1 41.4 40.6 C 41.4 40.6 41.4 40.1 41.4 40.1 Z M 44.5 43.8 L 44.5 36.5 L 45.6 36.5 C 45.6 36.5 45.6 37.63 45.6 37.6 C 45.9 37.1 46.1 36.8 46.4 36.6 C 46.6 36.5 46.9 36.4 47.2 36.4 C 47.6 36.4 48 36.5 48.4 36.8 C 48.4 36.8 48 37.9 48 37.9 C 47.7 37.7 47.4 37.6 47.1 37.6 C 46.8 37.6 46.6 37.7 46.4 37.9 C 46.2 38 46 38.3 45.9 38.6 C 45.8 39 45.7 39.5 45.7 40 C 45.73 39.99 45.7 43.8 45.7 43.8 L 44.5 43.8 Z M 49.2 43.8 L 49.2 36.5 L 50.3 36.5 C 50.3 36.5 50.28 37.56 50.3 37.6 C 50.8 36.8 51.6 36.4 52.6 36.4 C 53 36.4 53.4 36.4 53.8 36.6 C 54.2 36.8 54.4 37 54.6 37.2 C 54.8 37.5 54.9 37.8 55 38.1 C 55 38.4 55.1 38.8 55.1 39.3 C 55.07 39.33 55.1 43.8 55.1 43.8 L 53.8 43.8 C 53.8 43.8 53.84 39.38 53.8 39.4 C 53.8 38.9 53.8 38.5 53.7 38.3 C 53.6 38 53.4 37.8 53.2 37.7 C 52.9 37.5 52.7 37.4 52.3 37.4 C 51.8 37.4 51.4 37.6 51 37.9 C 50.6 38.3 50.4 38.9 50.4 39.8 C 50.4 39.83 50.4 43.8 50.4 43.8 L 49.2 43.8 Z M 57 35.2 L 57 33.8 L 58.2 33.8 L 58.2 35.2 L 57 35.2 Z M 57 43.8 L 57 36.5 L 58.2 36.5 L 58.2 43.8 L 57 43.8 Z M 60.1 43.8 L 60.1 36.5 L 61.2 36.5 C 61.2 36.5 61.17 37.56 61.2 37.6 C 61.7 36.8 62.5 36.4 63.5 36.4 C 63.9 36.4 64.3 36.4 64.7 36.6 C 65.1 36.8 65.3 37 65.5 37.2 C 65.7 37.5 65.8 37.8 65.9 38.1 C 65.9 38.4 66 38.8 66 39.3 C 65.97 39.33 66 43.8 66 43.8 L 64.7 43.8 C 64.7 43.8 64.74 39.38 64.7 39.4 C 64.7 38.9 64.7 38.5 64.6 38.3 C 64.5 38 64.3 37.8 64.1 37.7 C 63.8 37.5 63.6 37.4 63.2 37.4 C 62.7 37.4 62.2 37.6 61.9 37.9 C 61.5 38.3 61.3 38.9 61.3 39.8 C 61.3 39.83 61.3 43.8 61.3 43.8 L 60.1 43.8 Z M 67.6 44.4 C 67.6 44.4 68.8 44.6 68.8 44.6 C 68.9 44.9 69 45.2 69.2 45.4 C 69.5 45.6 70 45.7 70.5 45.7 C 71.1 45.7 71.5 45.6 71.8 45.4 C 72.1 45.2 72.3 44.8 72.4 44.4 C 72.5 44.2 72.5 43.6 72.5 42.8 C 72 43.5 71.3 43.8 70.5 43.8 C 69.5 43.8 68.7 43.4 68.2 42.7 C 67.7 42 67.4 41.1 67.4 40.1 C 67.4 39.4 67.5 38.8 67.8 38.2 C 68 37.6 68.4 37.2 68.8 36.8 C 69.3 36.5 69.9 36.4 70.5 36.4 C 71.4 36.4 72.1 36.7 72.6 37.4 C 72.65 37.41 72.6 36.5 72.6 36.5 L 73.8 36.5 C 73.8 36.5 73.78 42.81 73.8 42.8 C 73.8 43.9 73.7 44.7 73.4 45.2 C 73.2 45.7 72.8 46.1 72.3 46.3 C 71.8 46.6 71.2 46.7 70.5 46.7 C 69.6 46.7 68.9 46.5 68.4 46.2 C 67.9 45.8 67.6 45.2 67.6 44.4 Z M 68.6 40 C 68.6 41 68.8 41.7 69.2 42.1 C 69.6 42.6 70.1 42.8 70.6 42.8 C 71.2 42.8 71.7 42.6 72.1 42.1 C 72.4 41.7 72.6 41 72.6 40.1 C 72.6 39.2 72.4 38.5 72 38.1 C 71.6 37.6 71.2 37.4 70.6 37.4 C 70.1 37.4 69.6 37.6 69.2 38.1 C 68.8 38.5 68.6 39.2 68.6 40 Z M 86.8 44 C 86.3 43.7 85.8 43.2 85.3 42.6 C 84.9 43.1 84.4 43.4 83.9 43.6 C 83.5 43.9 82.9 44 82.4 44 C 81.4 44 80.5 43.6 79.9 42.9 C 79.5 42.4 79.2 41.7 79.2 41 C 79.2 40.4 79.4 39.9 79.8 39.4 C 80.2 38.9 80.8 38.4 81.6 38 C 81.1 37.5 80.8 37.1 80.7 36.8 C 80.5 36.4 80.5 36.1 80.5 35.8 C 80.5 35.2 80.7 34.7 81.2 34.3 C 81.6 33.8 82.2 33.6 83 33.6 C 83.6 33.6 84.2 33.8 84.6 34.2 C 85.1 34.6 85.3 35.2 85.3 35.7 C 85.3 36.7 84.7 37.5 83.4 38.2 C 83.4 38.2 85.2 40.5 85.2 40.5 C 85.4 40.1 85.6 39.6 85.7 39.1 C 85.7 39.1 86.9 39.3 86.9 39.3 C 86.7 40.2 86.4 40.9 86.1 41.5 C 86.5 42.1 87 42.6 87.6 43 C 87.62 43.05 86.8 44 86.8 44 C 86.8 44 86.8 44.02 86.8 44 Z M 82.8 37.4 C 83.3 37.1 83.6 36.8 83.8 36.6 C 83.9 36.3 84 36.1 84 35.8 C 84 35.4 83.9 35.2 83.7 34.9 C 83.5 34.7 83.2 34.6 82.9 34.6 C 82.6 34.6 82.3 34.7 82.1 34.9 C 81.8 35.1 81.7 35.4 81.7 35.7 C 81.7 35.9 81.8 36 81.9 36.2 C 81.9 36.4 82 36.6 82.2 36.8 C 82.2 36.8 82.8 37.4 82.8 37.4 Z M 84.5 41.6 C 84.5 41.6 82.2 38.8 82.2 38.8 C 81.6 39.2 81.1 39.6 80.9 39.9 C 80.7 40.3 80.5 40.6 80.5 41 C 80.5 41.4 80.7 41.8 81 42.2 C 81.3 42.7 81.8 42.9 82.4 42.9 C 82.8 42.9 83.1 42.8 83.5 42.5 C 83.9 42.3 84.2 42 84.5 41.6 Z M 92.9 43.8 L 92.9 33.8 C 92.9 33.8 96.37 33.77 96.4 33.8 C 97.1 33.8 97.7 33.8 98.2 33.9 C 98.7 34 99.2 34.3 99.6 34.6 C 100.1 35.1 100.5 35.6 100.8 36.3 C 101.1 37 101.2 37.8 101.2 38.7 C 101.2 39.5 101.1 40.2 100.9 40.8 C 100.8 41.3 100.5 41.8 100.2 42.2 C 100 42.6 99.7 42.9 99.3 43.1 C 99 43.3 98.6 43.5 98.1 43.6 C 97.7 43.7 97.1 43.8 96.5 43.8 C 96.53 43.79 92.9 43.8 92.9 43.8 Z M 94.2 42.6 C 94.2 42.6 96.38 42.61 96.4 42.6 C 97 42.6 97.6 42.5 97.9 42.4 C 98.3 42.3 98.6 42.1 98.8 41.9 C 99.1 41.6 99.4 41.2 99.6 40.6 C 99.7 40.1 99.8 39.5 99.8 38.7 C 99.8 37.7 99.7 36.9 99.3 36.3 C 99 35.7 98.6 35.4 98.1 35.2 C 97.7 35 97.1 35 96.3 35 C 96.35 34.95 94.2 35 94.2 35 L 94.2 42.6 Z M 107.8 41.5 C 107.8 41.5 109.1 41.6 109.1 41.6 C 108.9 42.4 108.5 42.9 108 43.3 C 107.5 43.8 106.8 44 105.9 44 C 104.9 44 104 43.6 103.4 43 C 102.8 42.3 102.5 41.4 102.5 40.2 C 102.5 39 102.8 38.1 103.4 37.4 C 104 36.7 104.8 36.4 105.8 36.4 C 106.8 36.4 107.6 36.7 108.2 37.4 C 108.8 38 109.1 39 109.1 40.1 C 109.1 40.2 109.1 40.3 109.1 40.5 C 109.1 40.5 103.7 40.5 103.7 40.5 C 103.8 41.3 104 41.9 104.4 42.3 C 104.8 42.7 105.3 42.9 105.9 42.9 C 106.4 42.9 106.8 42.8 107.1 42.6 C 107.4 42.4 107.6 42 107.8 41.5 Z M 103.8 39.5 C 103.8 39.5 107.9 39.5 107.9 39.5 C 107.8 38.9 107.6 38.4 107.4 38.1 C 107 37.6 106.5 37.4 105.9 37.4 C 105.3 37.4 104.8 37.6 104.4 37.9 C 104.1 38.3 103.8 38.8 103.8 39.5 Z M 112.7 43.8 L 109.9 36.5 L 111.2 36.5 C 111.2 36.5 112.77 40.88 112.8 40.9 C 112.9 41.3 113.1 41.8 113.2 42.3 C 113.3 42 113.5 41.5 113.7 41 C 113.69 40.96 115.3 36.5 115.3 36.5 L 116.6 36.5 L 113.8 43.8 L 112.7 43.8 Z M 122.6 41.5 C 122.6 41.5 123.9 41.6 123.9 41.6 C 123.7 42.4 123.3 42.9 122.8 43.3 C 122.2 43.8 121.5 44 120.7 44 C 119.6 44 118.8 43.6 118.2 43 C 117.6 42.3 117.2 41.4 117.2 40.2 C 117.2 39 117.6 38.1 118.2 37.4 C 118.8 36.7 119.6 36.4 120.6 36.4 C 121.6 36.4 122.4 36.7 123 37.4 C 123.6 38 123.9 39 123.9 40.1 C 123.9 40.2 123.9 40.3 123.9 40.5 C 123.9 40.5 118.5 40.5 118.5 40.5 C 118.6 41.3 118.8 41.9 119.2 42.3 C 119.6 42.7 120.1 42.9 120.7 42.9 C 121.2 42.9 121.5 42.8 121.9 42.6 C 122.2 42.4 122.4 42 122.6 41.5 Z M 118.6 39.5 C 118.6 39.5 122.6 39.5 122.6 39.5 C 122.6 38.9 122.4 38.4 122.2 38.1 C 121.8 37.6 121.3 37.4 120.6 37.4 C 120.1 37.4 119.6 37.6 119.2 37.9 C 118.8 38.3 118.6 38.8 118.6 39.5 Z M 125.4 43.8 L 125.4 33.8 L 126.6 33.8 L 126.6 43.8 L 125.4 43.8 Z M 128.1 40.2 C 128.1 38.8 128.5 37.8 129.2 37.2 C 129.8 36.6 130.6 36.4 131.5 36.4 C 132.5 36.4 133.3 36.7 133.9 37.3 C 134.6 38 134.9 38.9 134.9 40.1 C 134.9 41 134.8 41.7 134.5 42.3 C 134.2 42.8 133.8 43.2 133.2 43.5 C 132.7 43.8 132.1 44 131.5 44 C 130.5 44 129.7 43.6 129 43 C 128.4 42.3 128.1 41.4 128.1 40.2 Z M 129.4 40.2 C 129.4 41.1 129.6 41.8 130 42.3 C 130.4 42.7 130.9 42.9 131.5 42.9 C 132.1 42.9 132.6 42.7 133 42.2 C 133.4 41.8 133.6 41.1 133.6 40.1 C 133.6 39.2 133.4 38.5 133 38.1 C 132.6 37.6 132.1 37.4 131.5 37.4 C 130.9 37.4 130.4 37.6 130 38.1 C 129.6 38.5 129.4 39.2 129.4 40.2 Z M 136.3 46.6 L 136.3 36.5 L 137.5 36.5 C 137.5 36.5 137.46 37.48 137.5 37.5 C 137.7 37.1 138 36.8 138.4 36.6 C 138.7 36.5 139.1 36.4 139.6 36.4 C 140.2 36.4 140.7 36.5 141.2 36.8 C 141.7 37.2 142 37.6 142.3 38.2 C 142.5 38.8 142.6 39.4 142.6 40.1 C 142.6 40.9 142.5 41.5 142.2 42.1 C 142 42.7 141.6 43.2 141.1 43.5 C 140.6 43.8 140 44 139.5 44 C 139.1 44 138.7 43.9 138.4 43.7 C 138 43.5 137.8 43.3 137.6 43 C 137.57 43.04 137.6 46.6 137.6 46.6 L 136.3 46.6 Z M 137.5 40.2 C 137.5 41.1 137.6 41.8 138 42.3 C 138.4 42.7 138.9 42.9 139.4 42.9 C 139.9 42.9 140.4 42.7 140.8 42.3 C 141.2 41.8 141.4 41.1 141.4 40.1 C 141.4 39.2 141.2 38.5 140.8 38 C 140.4 37.6 140 37.3 139.4 37.3 C 138.9 37.3 138.5 37.6 138.1 38.1 C 137.7 38.6 137.5 39.3 137.5 40.2 Z M 144.1 43.8 L 144.1 36.5 L 145.2 36.5 C 145.2 36.5 145.22 37.55 145.2 37.6 C 145.5 37.2 145.8 36.9 146.1 36.7 C 146.5 36.5 146.9 36.4 147.4 36.4 C 148 36.4 148.4 36.5 148.7 36.7 C 149.1 36.9 149.3 37.2 149.5 37.6 C 150 36.8 150.8 36.4 151.7 36.4 C 152.4 36.4 153 36.6 153.4 37 C 153.8 37.4 154 38 154 38.8 C 153.96 38.81 154 43.8 154 43.8 L 152.7 43.8 C 152.7 43.8 152.74 39.22 152.7 39.2 C 152.7 38.7 152.7 38.4 152.6 38.2 C 152.5 37.9 152.4 37.8 152.2 37.6 C 152 37.5 151.7 37.4 151.4 37.4 C 150.9 37.4 150.5 37.6 150.2 37.9 C 149.8 38.3 149.7 38.8 149.7 39.6 C 149.67 39.57 149.7 43.8 149.7 43.8 L 148.4 43.8 C 148.4 43.8 148.44 39.08 148.4 39.1 C 148.4 38.5 148.3 38.1 148.1 37.8 C 147.9 37.6 147.6 37.4 147.2 37.4 C 146.8 37.4 146.5 37.5 146.2 37.7 C 145.9 37.9 145.7 38.2 145.6 38.5 C 145.4 38.9 145.4 39.4 145.4 40 C 145.35 40.03 145.4 43.8 145.4 43.8 L 144.1 43.8 Z M 160.8 41.5 C 160.8 41.5 162 41.6 162 41.6 C 161.8 42.4 161.5 42.9 160.9 43.3 C 160.4 43.8 159.7 44 158.8 44 C 157.8 44 156.9 43.6 156.3 43 C 155.7 42.3 155.4 41.4 155.4 40.2 C 155.4 39 155.7 38.1 156.3 37.4 C 156.9 36.7 157.8 36.4 158.8 36.4 C 159.7 36.4 160.5 36.7 161.1 37.4 C 161.8 38 162.1 39 162.1 40.1 C 162.1 40.2 162.1 40.3 162.1 40.5 C 162.1 40.5 156.6 40.5 156.6 40.5 C 156.7 41.3 156.9 41.9 157.3 42.3 C 157.7 42.7 158.2 42.9 158.8 42.9 C 159.3 42.9 159.7 42.8 160 42.6 C 160.3 42.4 160.6 42 160.8 41.5 Z M 156.7 39.5 C 156.7 39.5 160.8 39.5 160.8 39.5 C 160.7 38.9 160.6 38.4 160.3 38.1 C 159.9 37.6 159.4 37.4 158.8 37.4 C 158.2 37.4 157.7 37.6 157.4 37.9 C 157 38.3 156.8 38.8 156.7 39.5 Z M 163.6 43.8 L 163.6 36.5 L 164.7 36.5 C 164.7 36.5 164.68 37.56 164.7 37.6 C 165.2 36.8 166 36.4 167 36.4 C 167.4 36.4 167.8 36.4 168.2 36.6 C 168.6 36.8 168.8 37 169 37.2 C 169.2 37.5 169.3 37.8 169.4 38.1 C 169.4 38.4 169.5 38.8 169.5 39.3 C 169.47 39.33 169.5 43.8 169.5 43.8 L 168.2 43.8 C 168.2 43.8 168.24 39.38 168.2 39.4 C 168.2 38.9 168.2 38.5 168.1 38.3 C 168 38 167.8 37.8 167.6 37.7 C 167.3 37.5 167.1 37.4 166.7 37.4 C 166.2 37.4 165.8 37.6 165.4 37.9 C 165 38.3 164.8 38.9 164.8 39.8 C 164.8 39.83 164.8 43.8 164.8 43.8 L 163.6 43.8 Z M 173.5 42.7 C 173.6 42.7 173.8 42.7 174 42.7 C 174 42.7 174.2 43.8 174.2 43.8 C 173.9 43.9 173.6 43.9 173.3 43.9 C 172.8 43.9 172.5 43.8 172.3 43.7 C 172 43.5 171.8 43.3 171.7 43.1 C 171.6 42.9 171.6 42.4 171.6 41.7 C 171.58 41.67 171.6 37.5 171.6 37.5 L 170.7 37.5 L 170.7 36.5 L 171.6 36.5 L 171.6 34.7 L 172.8 34 L 172.8 36.5 L 174 36.5 L 174 37.5 L 172.8 37.5 C 172.8 37.5 172.81 41.73 172.8 41.7 C 172.8 42.1 172.8 42.3 172.9 42.4 C 172.9 42.5 173 42.6 173.1 42.7 C 173.2 42.7 173.3 42.7 173.5 42.7 C 173.5 42.7 173.5 42.7 173.5 42.7 Z M 179.3 43.8 L 179.3 33.8 C 179.3 33.8 183.07 33.77 183.1 33.8 C 183.7 33.8 184.2 33.8 184.6 33.9 C 185.1 33.9 185.5 34.1 185.8 34.3 C 186.2 34.6 186.4 34.9 186.6 35.3 C 186.8 35.7 186.9 36.2 186.9 36.7 C 186.9 37.5 186.7 38.2 186.1 38.8 C 185.6 39.4 184.6 39.7 183.2 39.7 C 183.19 39.72 180.6 39.7 180.6 39.7 L 180.6 43.8 L 179.3 43.8 Z M 180.6 38.5 C 180.6 38.5 183.21 38.54 183.2 38.5 C 184.1 38.5 184.7 38.4 185 38.1 C 185.4 37.7 185.6 37.3 185.6 36.7 C 185.6 36.3 185.5 35.9 185.3 35.6 C 185 35.3 184.8 35.1 184.4 35 C 184.2 35 183.8 35 183.2 35 C 183.18 34.95 180.6 35 180.6 35 L 180.6 38.5 Z M 188.5 43.8 L 188.5 36.5 L 189.6 36.5 C 189.6 36.5 189.57 37.63 189.6 37.6 C 189.8 37.1 190.1 36.8 190.4 36.6 C 190.6 36.5 190.9 36.4 191.1 36.4 C 191.6 36.4 192 36.5 192.4 36.8 C 192.4 36.8 192 37.9 192 37.9 C 191.7 37.7 191.4 37.6 191.1 37.6 C 190.8 37.6 190.6 37.7 190.4 37.9 C 190.1 38 190 38.3 189.9 38.6 C 189.8 39 189.7 39.5 189.7 40 C 189.69 39.99 189.7 43.8 189.7 43.8 L 188.5 43.8 Z M 198.1 43.8 C 198 43.5 197.9 43.2 197.9 42.9 C 197.4 43.3 197 43.6 196.6 43.7 C 196.1 43.9 195.7 44 195.2 44 C 194.4 44 193.8 43.8 193.4 43.4 C 192.9 43 192.7 42.5 192.7 41.9 C 192.7 41.5 192.8 41.2 193 40.9 C 193.1 40.6 193.3 40.4 193.6 40.2 C 193.9 40 194.2 39.9 194.5 39.8 C 194.7 39.7 195.1 39.7 195.6 39.6 C 196.6 39.5 197.3 39.3 197.8 39.2 C 197.8 39 197.8 38.9 197.8 38.9 C 197.8 38.4 197.7 38 197.4 37.8 C 197.1 37.5 196.6 37.4 196 37.4 C 195.4 37.4 195 37.5 194.7 37.7 C 194.5 37.9 194.3 38.3 194.1 38.8 C 194.1 38.8 192.9 38.6 192.9 38.6 C 193 38.1 193.2 37.7 193.5 37.4 C 193.7 37 194.1 36.8 194.6 36.6 C 195 36.5 195.6 36.4 196.2 36.4 C 196.8 36.4 197.3 36.4 197.7 36.6 C 198.1 36.7 198.4 36.9 198.6 37.1 C 198.8 37.4 198.9 37.6 199 38 C 199 38.2 199 38.6 199 39.1 C 199 39.1 199 40.8 199 40.8 C 199 41.9 199 42.6 199.1 42.9 C 199.1 43.2 199.2 43.5 199.4 43.8 C 199.4 43.79 198.1 43.8 198.1 43.8 C 198.1 43.8 198.12 43.79 198.1 43.8 Z M 197.8 40.1 C 197.3 40.3 196.7 40.5 195.8 40.6 C 195.3 40.7 194.9 40.8 194.7 40.9 C 194.5 41 194.3 41.1 194.2 41.3 C 194.1 41.4 194 41.6 194 41.8 C 194 42.2 194.2 42.4 194.4 42.7 C 194.7 42.9 195 43 195.5 43 C 196 43 196.4 42.9 196.8 42.7 C 197.1 42.5 197.4 42.2 197.6 41.8 C 197.7 41.6 197.8 41.1 197.8 40.6 C 197.8 40.6 197.8 40.1 197.8 40.1 Z M 205.7 41.1 C 205.7 41.1 206.9 41.3 206.9 41.3 C 206.7 42.1 206.4 42.8 205.9 43.2 C 205.3 43.7 204.6 44 203.8 44 C 202.9 44 202.1 43.6 201.5 43 C 200.8 42.3 200.5 41.4 200.5 40.2 C 200.5 39.4 200.7 38.7 200.9 38.1 C 201.2 37.5 201.6 37.1 202.1 36.8 C 202.7 36.5 203.2 36.4 203.9 36.4 C 204.6 36.4 205.3 36.6 205.8 37 C 206.3 37.4 206.6 37.9 206.8 38.7 C 206.8 38.7 205.6 38.9 205.6 38.9 C 205.4 38.4 205.2 38 205 37.7 C 204.7 37.5 204.3 37.4 203.9 37.4 C 203.3 37.4 202.8 37.6 202.4 38 C 202 38.5 201.8 39.2 201.8 40.2 C 201.8 41.1 202 41.8 202.4 42.3 C 202.7 42.7 203.2 42.9 203.8 42.9 C 204.3 42.9 204.7 42.8 205 42.5 C 205.4 42.2 205.6 41.7 205.7 41.1 Z M 210.1 42.7 C 210.2 42.7 210.4 42.7 210.6 42.7 C 210.6 42.7 210.8 43.8 210.8 43.8 C 210.4 43.9 210.1 43.9 209.9 43.9 C 209.4 43.9 209.1 43.8 208.8 43.7 C 208.6 43.5 208.4 43.3 208.3 43.1 C 208.2 42.9 208.1 42.4 208.1 41.7 C 208.15 41.67 208.1 37.5 208.1 37.5 L 207.2 37.5 L 207.2 36.5 L 208.1 36.5 L 208.1 34.7 L 209.4 34 L 209.4 36.5 L 210.6 36.5 L 210.6 37.5 L 209.4 37.5 C 209.4 37.5 209.37 41.73 209.4 41.7 C 209.4 42.1 209.4 42.3 209.4 42.4 C 209.5 42.5 209.5 42.6 209.6 42.7 C 209.7 42.7 209.9 42.7 210.1 42.7 C 210.1 42.7 210.1 42.7 210.1 42.7 Z M 211.8 35.2 L 211.8 33.8 L 213 33.8 L 213 35.2 L 211.8 35.2 Z M 211.8 43.8 L 211.8 36.5 L 213 36.5 L 213 43.8 L 211.8 43.8 Z M 217.1 42.7 C 217.2 42.7 217.4 42.7 217.6 42.7 C 217.6 42.7 217.8 43.8 217.8 43.8 C 217.4 43.9 217.1 43.9 216.9 43.9 C 216.4 43.9 216.1 43.8 215.8 43.7 C 215.6 43.5 215.4 43.3 215.3 43.1 C 215.2 42.9 215.1 42.4 215.1 41.7 C 215.15 41.67 215.1 37.5 215.1 37.5 L 214.2 37.5 L 214.2 36.5 L 215.1 36.5 L 215.1 34.7 L 216.4 34 L 216.4 36.5 L 217.6 36.5 L 217.6 37.5 L 216.4 37.5 C 216.4 37.5 216.37 41.73 216.4 41.7 C 216.4 42.1 216.4 42.3 216.4 42.4 C 216.5 42.5 216.5 42.6 216.6 42.7 C 216.7 42.7 216.9 42.7 217.1 42.7 C 217.1 42.7 217.1 42.7 217.1 42.7 Z M 218.8 35.2 L 218.8 33.8 L 220 33.8 L 220 35.2 L 218.8 35.2 Z M 218.8 43.8 L 218.8 36.5 L 220 36.5 L 220 43.8 L 218.8 43.8 Z M 221.5 40.2 C 221.5 38.8 221.8 37.8 222.6 37.2 C 223.2 36.6 224 36.4 224.9 36.4 C 225.9 36.4 226.7 36.7 227.3 37.3 C 227.9 38 228.3 38.9 228.3 40.1 C 228.3 41 228.1 41.7 227.8 42.3 C 227.6 42.8 227.2 43.2 226.6 43.5 C 226.1 43.8 225.5 44 224.9 44 C 223.9 44 223 43.6 222.4 43 C 221.8 42.3 221.5 41.4 221.5 40.2 Z M 222.7 40.2 C 222.7 41.1 222.9 41.8 223.3 42.3 C 223.7 42.7 224.3 42.9 224.9 42.9 C 225.5 42.9 226 42.7 226.4 42.2 C 226.8 41.8 227 41.1 227 40.1 C 227 39.2 226.8 38.5 226.4 38.1 C 226 37.6 225.5 37.4 224.9 37.4 C 224.3 37.4 223.7 37.6 223.3 38.1 C 222.9 38.5 222.7 39.2 222.7 40.2 Z M 229.7 43.8 L 229.7 36.5 L 230.8 36.5 C 230.8 36.5 230.82 37.56 230.8 37.6 C 231.3 36.8 232.1 36.4 233.1 36.4 C 233.6 36.4 234 36.4 234.3 36.6 C 234.7 36.8 235 37 235.2 37.2 C 235.3 37.5 235.5 37.8 235.5 38.1 C 235.6 38.4 235.6 38.8 235.6 39.3 C 235.61 39.33 235.6 43.8 235.6 43.8 L 234.4 43.8 C 234.4 43.8 234.38 39.38 234.4 39.4 C 234.4 38.9 234.3 38.5 234.2 38.3 C 234.1 38 234 37.8 233.7 37.7 C 233.5 37.5 233.2 37.4 232.9 37.4 C 232.3 37.4 231.9 37.6 231.5 37.9 C 231.1 38.3 230.9 38.9 230.9 39.8 C 230.94 39.83 230.9 43.8 230.9 43.8 L 229.7 43.8 Z M 242.5 41.5 C 242.5 41.5 243.7 41.6 243.7 41.6 C 243.5 42.4 243.2 42.9 242.6 43.3 C 242.1 43.8 241.4 44 240.5 44 C 239.5 44 238.6 43.6 238 43 C 237.4 42.3 237.1 41.4 237.1 40.2 C 237.1 39 237.4 38.1 238 37.4 C 238.7 36.7 239.5 36.4 240.5 36.4 C 241.4 36.4 242.2 36.7 242.9 37.4 C 243.5 38 243.8 39 243.8 40.1 C 243.8 40.2 243.8 40.3 243.8 40.5 C 243.8 40.5 238.4 40.5 238.4 40.5 C 238.4 41.3 238.6 41.9 239 42.3 C 239.4 42.7 239.9 42.9 240.5 42.9 C 241 42.9 241.4 42.8 241.7 42.6 C 242 42.4 242.3 42 242.5 41.5 Z M 238.4 39.5 C 238.4 39.5 242.5 39.5 242.5 39.5 C 242.4 38.9 242.3 38.4 242 38.1 C 241.6 37.6 241.1 37.4 240.5 37.4 C 239.9 37.4 239.4 37.6 239.1 37.9 C 238.7 38.3 238.5 38.8 238.4 39.5 Z M 245.3 43.8 L 245.3 36.5 L 246.4 36.5 C 246.4 36.5 246.37 37.63 246.4 37.6 C 246.7 37.1 246.9 36.8 247.2 36.6 C 247.4 36.5 247.7 36.4 247.9 36.4 C 248.4 36.4 248.8 36.5 249.2 36.8 C 249.2 36.8 248.8 37.9 248.8 37.9 C 248.5 37.7 248.2 37.6 247.9 37.6 C 247.6 37.6 247.4 37.7 247.2 37.9 C 246.9 38 246.8 38.3 246.7 38.6 C 246.6 39 246.5 39.5 246.5 40 C 246.5 39.99 246.5 43.8 246.5 43.8 L 245.3 43.8 Z " stroke="none" fill="#000000"/>  </g>  <g id="Polygon124079">    <path d="M 1.1 27 L 1.1 17.1 L 3.1 17.1 L 3.1 25.3 L 8.1 25.3 L 8.1 27 L 1.1 27 Z M 9.1 24.3 C 9.1 24.3 10.9 24.1 10.9 24.1 C 11 24.6 11.2 24.9 11.4 25.2 C 11.7 25.4 12 25.6 12.4 25.6 C 12.8 25.6 13.1 25.4 13.4 25.1 C 13.6 24.8 13.8 24.4 13.8 23.9 C 13.8 23.4 13.6 23 13.4 22.8 C 13.1 22.5 12.8 22.3 12.4 22.3 C 12.2 22.3 11.9 22.4 11.5 22.5 C 11.5 22.5 11.8 20.9 11.8 20.9 C 12.3 20.9 12.7 20.8 12.9 20.6 C 13.2 20.3 13.4 20 13.4 19.6 C 13.4 19.3 13.3 19 13.1 18.8 C 12.9 18.6 12.6 18.5 12.3 18.5 C 11.9 18.5 11.6 18.6 11.4 18.9 C 11.2 19.1 11 19.4 11 19.8 C 11 19.8 9.2 19.5 9.2 19.5 C 9.3 18.9 9.5 18.5 9.8 18.1 C 10 17.7 10.4 17.4 10.8 17.2 C 11.3 17 11.8 16.9 12.3 16.9 C 13.3 16.9 14 17.2 14.6 17.8 C 15.1 18.3 15.3 18.9 15.3 19.5 C 15.3 20.4 14.8 21.1 13.8 21.6 C 14.4 21.7 14.9 22 15.2 22.4 C 15.6 22.9 15.7 23.4 15.7 24 C 15.7 24.9 15.4 25.6 14.8 26.2 C 14.1 26.9 13.3 27.2 12.4 27.2 C 11.5 27.2 10.7 26.9 10.1 26.4 C 9.5 25.9 9.2 25.2 9.1 24.3 Z M 21.5 27 L 21.5 17 L 22.9 17 L 22.9 27 L 21.5 27 Z M 25 27 L 25 19.7 L 26.1 19.7 C 26.1 19.7 26.14 20.75 26.1 20.8 C 26.4 20.4 26.7 20.1 27 19.9 C 27.4 19.7 27.9 19.6 28.3 19.6 C 28.9 19.6 29.3 19.7 29.7 19.9 C 30 20.1 30.3 20.4 30.4 20.8 C 31 20 31.7 19.6 32.6 19.6 C 33.4 19.6 33.9 19.8 34.3 20.2 C 34.7 20.6 34.9 21.2 34.9 22 C 34.88 22.01 34.9 27 34.9 27 L 33.7 27 C 33.7 27 33.65 22.42 33.7 22.4 C 33.7 21.9 33.6 21.6 33.5 21.4 C 33.5 21.1 33.3 21 33.1 20.8 C 32.9 20.7 32.6 20.6 32.4 20.6 C 31.9 20.6 31.4 20.8 31.1 21.1 C 30.8 21.5 30.6 22 30.6 22.8 C 30.58 22.77 30.6 27 30.6 27 L 29.4 27 C 29.4 27 29.35 22.28 29.4 22.3 C 29.4 21.7 29.3 21.3 29.1 21 C 28.9 20.8 28.5 20.6 28.1 20.6 C 27.7 20.6 27.4 20.7 27.1 20.9 C 26.8 21.1 26.6 21.4 26.5 21.7 C 26.3 22.1 26.3 22.6 26.3 23.2 C 26.27 23.23 26.3 27 26.3 27 L 25 27 Z M 36.7 29.8 L 36.7 19.7 L 37.8 19.7 C 37.8 19.7 37.82 20.68 37.8 20.7 C 38.1 20.3 38.4 20 38.7 19.8 C 39.1 19.7 39.5 19.6 39.9 19.6 C 40.5 19.6 41.1 19.7 41.6 20 C 42 20.4 42.4 20.8 42.6 21.4 C 42.9 22 43 22.6 43 23.3 C 43 24.1 42.9 24.7 42.6 25.3 C 42.3 25.9 42 26.4 41.4 26.7 C 40.9 27 40.4 27.2 39.8 27.2 C 39.4 27.2 39.1 27.1 38.7 26.9 C 38.4 26.7 38.1 26.5 37.9 26.2 C 37.93 26.24 37.9 29.8 37.9 29.8 L 36.7 29.8 Z M 37.8 23.4 C 37.8 24.3 38 25 38.4 25.5 C 38.8 25.9 39.2 26.1 39.8 26.1 C 40.3 26.1 40.8 25.9 41.2 25.5 C 41.6 25 41.7 24.3 41.7 23.3 C 41.7 22.4 41.6 21.7 41.2 21.2 C 40.8 20.8 40.3 20.5 39.8 20.5 C 39.3 20.5 38.8 20.8 38.4 21.3 C 38 21.8 37.8 22.5 37.8 23.4 Z M 44.5 27 L 44.5 19.7 L 45.6 19.7 C 45.6 19.7 45.58 20.83 45.6 20.8 C 45.9 20.3 46.1 20 46.4 19.8 C 46.6 19.7 46.9 19.6 47.2 19.6 C 47.6 19.6 48 19.7 48.4 20 C 48.4 20 48 21.1 48 21.1 C 47.7 20.9 47.4 20.8 47.1 20.8 C 46.8 20.8 46.6 20.9 46.4 21.1 C 46.2 21.2 46 21.5 45.9 21.8 C 45.8 22.2 45.7 22.7 45.7 23.2 C 45.71 23.19 45.7 27 45.7 27 L 44.5 27 Z M 48.7 23.4 C 48.7 22 49.1 21 49.8 20.4 C 50.4 19.8 51.2 19.6 52.1 19.6 C 53.1 19.6 53.9 19.9 54.5 20.5 C 55.2 21.2 55.5 22.1 55.5 23.3 C 55.5 24.2 55.4 24.9 55.1 25.5 C 54.8 26 54.4 26.4 53.9 26.7 C 53.3 27 52.7 27.2 52.1 27.2 C 51.1 27.2 50.3 26.8 49.6 26.2 C 49 25.5 48.7 24.6 48.7 23.4 Z M 50 23.4 C 50 24.3 50.2 25 50.6 25.5 C 51 25.9 51.5 26.1 52.1 26.1 C 52.7 26.1 53.2 25.9 53.6 25.4 C 54 25 54.2 24.3 54.2 23.3 C 54.2 22.4 54 21.7 53.6 21.3 C 53.2 20.8 52.7 20.6 52.1 20.6 C 51.5 20.6 51 20.8 50.6 21.3 C 50.2 21.7 50 22.4 50 23.4 Z M 59 27 L 56.2 19.7 L 57.5 19.7 C 57.5 19.7 59.05 24.08 59 24.1 C 59.2 24.5 59.4 25 59.5 25.5 C 59.6 25.2 59.8 24.7 60 24.2 C 59.97 24.16 61.6 19.7 61.6 19.7 L 62.8 19.7 L 60.1 27 L 59 27 Z M 68.9 24.7 C 68.9 24.7 70.2 24.8 70.2 24.8 C 70 25.6 69.6 26.1 69.1 26.5 C 68.5 27 67.8 27.2 67 27.2 C 65.9 27.2 65.1 26.8 64.5 26.2 C 63.8 25.5 63.5 24.6 63.5 23.4 C 63.5 22.2 63.8 21.3 64.5 20.6 C 65.1 19.9 65.9 19.6 66.9 19.6 C 67.9 19.6 68.7 19.9 69.3 20.6 C 69.9 21.2 70.2 22.2 70.2 23.3 C 70.2 23.4 70.2 23.5 70.2 23.7 C 70.2 23.7 64.8 23.7 64.8 23.7 C 64.8 24.5 65.1 25.1 65.5 25.5 C 65.9 25.9 66.4 26.1 67 26.1 C 67.4 26.1 67.8 26 68.1 25.8 C 68.5 25.6 68.7 25.2 68.9 24.7 Z M 64.9 22.7 C 64.9 22.7 68.9 22.7 68.9 22.7 C 68.9 22.1 68.7 21.6 68.5 21.3 C 68.1 20.8 67.6 20.6 66.9 20.6 C 66.4 20.6 65.9 20.8 65.5 21.1 C 65.1 21.5 64.9 22 64.9 22.7 Z M 71.7 27 L 71.7 19.7 L 72.8 19.7 C 72.8 19.7 72.82 20.75 72.8 20.8 C 73.1 20.4 73.4 20.1 73.7 19.9 C 74.1 19.7 74.5 19.6 75 19.6 C 75.6 19.6 76 19.7 76.3 19.9 C 76.7 20.1 76.9 20.4 77.1 20.8 C 77.6 20 78.4 19.6 79.3 19.6 C 80 19.6 80.6 19.8 81 20.2 C 81.4 20.6 81.6 21.2 81.6 22 C 81.56 22.01 81.6 27 81.6 27 L 80.3 27 C 80.3 27 80.34 22.42 80.3 22.4 C 80.3 21.9 80.3 21.6 80.2 21.4 C 80.1 21.1 80 21 79.8 20.8 C 79.6 20.7 79.3 20.6 79 20.6 C 78.5 20.6 78.1 20.8 77.8 21.1 C 77.4 21.5 77.3 22 77.3 22.8 C 77.27 22.77 77.3 27 77.3 27 L 76 27 C 76 27 76.04 22.28 76 22.3 C 76 21.7 75.9 21.3 75.7 21 C 75.5 20.8 75.2 20.6 74.8 20.6 C 74.4 20.6 74.1 20.7 73.8 20.9 C 73.5 21.1 73.3 21.4 73.2 21.7 C 73 22.1 73 22.6 73 23.2 C 72.95 23.23 73 27 73 27 L 71.7 27 Z M 88.4 24.7 C 88.4 24.7 89.6 24.8 89.6 24.8 C 89.4 25.6 89.1 26.1 88.5 26.5 C 88 27 87.3 27.2 86.4 27.2 C 85.4 27.2 84.5 26.8 83.9 26.2 C 83.3 25.5 83 24.6 83 23.4 C 83 22.2 83.3 21.3 83.9 20.6 C 84.5 19.9 85.4 19.6 86.4 19.6 C 87.3 19.6 88.1 19.9 88.7 20.6 C 89.4 21.2 89.7 22.2 89.7 23.3 C 89.7 23.4 89.7 23.5 89.7 23.7 C 89.7 23.7 84.2 23.7 84.2 23.7 C 84.3 24.5 84.5 25.1 84.9 25.5 C 85.3 25.9 85.8 26.1 86.4 26.1 C 86.9 26.1 87.3 26 87.6 25.8 C 87.9 25.6 88.2 25.2 88.4 24.7 Z M 84.3 22.7 C 84.3 22.7 88.4 22.7 88.4 22.7 C 88.3 22.1 88.2 21.6 87.9 21.3 C 87.5 20.8 87 20.6 86.4 20.6 C 85.8 20.6 85.3 20.8 85 21.1 C 84.6 21.5 84.4 22 84.3 22.7 Z M 91.2 27 L 91.2 19.7 L 92.3 19.7 C 92.3 19.7 92.28 20.76 92.3 20.8 C 92.8 20 93.6 19.6 94.6 19.6 C 95 19.6 95.4 19.6 95.8 19.8 C 96.2 20 96.4 20.2 96.6 20.4 C 96.8 20.7 96.9 21 97 21.3 C 97 21.6 97.1 22 97.1 22.5 C 97.07 22.53 97.1 27 97.1 27 L 95.8 27 C 95.8 27 95.84 22.58 95.8 22.6 C 95.8 22.1 95.8 21.7 95.7 21.5 C 95.6 21.2 95.4 21 95.2 20.9 C 94.9 20.7 94.7 20.6 94.3 20.6 C 93.8 20.6 93.4 20.8 93 21.1 C 92.6 21.5 92.4 22.1 92.4 23 C 92.4 23.03 92.4 27 92.4 27 L 91.2 27 Z M 101.1 25.9 C 101.2 25.9 101.4 25.9 101.6 25.9 C 101.6 25.9 101.8 27 101.8 27 C 101.5 27.1 101.2 27.1 100.9 27.1 C 100.4 27.1 100.1 27 99.9 26.9 C 99.6 26.7 99.4 26.5 99.3 26.3 C 99.2 26.1 99.2 25.6 99.2 24.9 C 99.18 24.87 99.2 20.7 99.2 20.7 L 98.3 20.7 L 98.3 19.7 L 99.2 19.7 L 99.2 17.9 L 100.4 17.2 L 100.4 19.7 L 101.6 19.7 L 101.6 20.7 L 100.4 20.7 C 100.4 20.7 100.41 24.93 100.4 24.9 C 100.4 25.3 100.4 25.5 100.5 25.6 C 100.5 25.7 100.6 25.8 100.7 25.9 C 100.8 25.9 100.9 25.9 101.1 25.9 C 101.1 25.9 101.1 25.9 101.1 25.9 Z M 109.2 27 L 109.2 18.2 L 105.9 18.2 L 105.9 17 L 113.8 17 L 113.8 18.2 L 110.5 18.2 L 110.5 27 L 109.2 27 Z M 118.5 24.7 C 118.5 24.7 119.7 24.8 119.7 24.8 C 119.5 25.6 119.2 26.1 118.6 26.5 C 118.1 27 117.4 27.2 116.5 27.2 C 115.5 27.2 114.6 26.8 114 26.2 C 113.4 25.5 113.1 24.6 113.1 23.4 C 113.1 22.2 113.4 21.3 114 20.6 C 114.6 19.9 115.5 19.6 116.5 19.6 C 117.4 19.6 118.2 19.9 118.8 20.6 C 119.5 21.2 119.8 22.2 119.8 23.3 C 119.8 23.4 119.8 23.5 119.8 23.7 C 119.8 23.7 114.3 23.7 114.3 23.7 C 114.4 24.5 114.6 25.1 115 25.5 C 115.4 25.9 115.9 26.1 116.5 26.1 C 117 26.1 117.4 26 117.7 25.8 C 118 25.6 118.3 25.2 118.5 24.7 Z M 114.4 22.7 C 114.4 22.7 118.5 22.7 118.5 22.7 C 118.4 22.1 118.3 21.6 118 21.3 C 117.6 20.8 117.1 20.6 116.5 20.6 C 115.9 20.6 115.4 20.8 115.1 21.1 C 114.7 21.5 114.5 22 114.4 22.7 Z M 126 24.3 C 126 24.3 127.2 24.5 127.2 24.5 C 127.1 25.3 126.7 26 126.2 26.4 C 125.7 26.9 125 27.2 124.2 27.2 C 123.2 27.2 122.4 26.8 121.8 26.2 C 121.2 25.5 120.9 24.6 120.9 23.4 C 120.9 22.6 121 21.9 121.3 21.3 C 121.5 20.7 121.9 20.3 122.5 20 C 123 19.7 123.6 19.6 124.2 19.6 C 125 19.6 125.6 19.8 126.1 20.2 C 126.6 20.6 127 21.1 127.1 21.9 C 127.1 21.9 125.9 22 125.9 22 C 125.8 21.6 125.6 21.2 125.3 20.9 C 125 20.7 124.7 20.6 124.2 20.6 C 123.6 20.6 123.1 20.8 122.7 21.2 C 122.4 21.7 122.2 22.4 122.2 23.4 C 122.2 24.3 122.3 25 122.7 25.5 C 123.1 25.9 123.6 26.1 124.2 26.1 C 124.7 26.1 125.1 26 125.4 25.7 C 125.7 25.4 125.9 24.9 126 24.3 Z M 128.3 27 L 128.3 17 L 129.5 17 C 129.5 17 129.5 20.57 129.5 20.6 C 130.1 19.9 130.8 19.6 131.7 19.6 C 132.2 19.6 132.7 19.7 133.1 19.9 C 133.5 20.1 133.8 20.4 133.9 20.8 C 134.1 21.1 134.2 21.7 134.2 22.4 C 134.18 22.39 134.2 27 134.2 27 L 133 27 C 133 27 132.95 22.39 133 22.4 C 133 21.8 132.8 21.3 132.6 21 C 132.3 20.8 131.9 20.6 131.4 20.6 C 131.1 20.6 130.7 20.7 130.4 20.9 C 130.1 21.1 129.8 21.4 129.7 21.7 C 129.6 22 129.5 22.5 129.5 23 C 129.5 23.02 129.5 27 129.5 27 L 128.3 27 Z M 136.1 27 L 136.1 19.7 L 137.2 19.7 C 137.2 19.7 137.16 20.76 137.2 20.8 C 137.7 20 138.5 19.6 139.5 19.6 C 139.9 19.6 140.3 19.6 140.7 19.8 C 141 20 141.3 20.2 141.5 20.4 C 141.7 20.7 141.8 21 141.9 21.3 C 141.9 21.6 142 22 142 22.5 C 141.96 22.53 142 27 142 27 L 140.7 27 C 140.7 27 140.72 22.58 140.7 22.6 C 140.7 22.1 140.7 21.7 140.6 21.5 C 140.5 21.2 140.3 21 140.1 20.9 C 139.8 20.7 139.5 20.6 139.2 20.6 C 138.7 20.6 138.2 20.8 137.9 21.1 C 137.5 21.5 137.3 22.1 137.3 23 C 137.29 23.03 137.3 27 137.3 27 L 136.1 27 Z M 143.8 18.4 L 143.8 17 L 145.1 17 L 145.1 18.4 L 143.8 18.4 Z M 143.8 27 L 143.8 19.7 L 145.1 19.7 L 145.1 27 L 143.8 27 Z M 151.7 24.3 C 151.7 24.3 152.9 24.5 152.9 24.5 C 152.8 25.3 152.4 26 151.9 26.4 C 151.3 26.9 150.7 27.2 149.9 27.2 C 148.9 27.2 148.1 26.8 147.5 26.2 C 146.9 25.5 146.6 24.6 146.6 23.4 C 146.6 22.6 146.7 21.9 147 21.3 C 147.2 20.7 147.6 20.3 148.2 20 C 148.7 19.7 149.3 19.6 149.9 19.6 C 150.7 19.6 151.3 19.8 151.8 20.2 C 152.3 20.6 152.6 21.1 152.8 21.9 C 152.8 21.9 151.6 22 151.6 22 C 151.5 21.6 151.3 21.2 151 20.9 C 150.7 20.7 150.3 20.6 149.9 20.6 C 149.3 20.6 148.8 20.8 148.4 21.2 C 148 21.7 147.8 22.4 147.8 23.4 C 147.8 24.3 148 25 148.4 25.5 C 148.8 25.9 149.3 26.1 149.9 26.1 C 150.3 26.1 150.8 26 151.1 25.7 C 151.4 25.4 151.6 24.9 151.7 24.3 Z M 154 18.4 L 154 17 L 155.2 17 L 155.2 18.4 L 154 18.4 Z M 154 27 L 154 19.7 L 155.2 19.7 L 155.2 27 L 154 27 Z M 162 27 C 161.9 26.7 161.8 26.4 161.8 26.1 C 161.3 26.5 160.9 26.8 160.5 26.9 C 160.1 27.1 159.6 27.2 159.1 27.2 C 158.3 27.2 157.7 27 157.3 26.6 C 156.9 26.2 156.6 25.7 156.6 25.1 C 156.6 24.7 156.7 24.4 156.9 24.1 C 157 23.8 157.3 23.6 157.5 23.4 C 157.8 23.2 158.1 23.1 158.4 23 C 158.7 22.9 159 22.9 159.5 22.8 C 160.5 22.7 161.2 22.5 161.7 22.4 C 161.7 22.2 161.7 22.1 161.7 22.1 C 161.7 21.6 161.6 21.2 161.4 21 C 161 20.7 160.6 20.6 160 20.6 C 159.4 20.6 158.9 20.7 158.7 20.9 C 158.4 21.1 158.2 21.5 158.1 22 C 158.1 22 156.9 21.8 156.9 21.8 C 157 21.3 157.1 20.9 157.4 20.6 C 157.6 20.2 158 20 158.5 19.8 C 159 19.7 159.5 19.6 160.1 19.6 C 160.8 19.6 161.3 19.6 161.6 19.8 C 162 19.9 162.3 20.1 162.5 20.3 C 162.7 20.6 162.8 20.8 162.9 21.2 C 162.9 21.4 162.9 21.8 162.9 22.3 C 162.9 22.3 162.9 24 162.9 24 C 162.9 25.1 163 25.8 163 26.1 C 163.1 26.4 163.2 26.7 163.3 27 C 163.33 26.99 162 27 162 27 C 162 27 162.05 26.99 162 27 Z M 161.7 23.3 C 161.3 23.5 160.6 23.7 159.7 23.8 C 159.2 23.9 158.8 24 158.6 24.1 C 158.4 24.2 158.2 24.3 158.1 24.5 C 158 24.6 158 24.8 158 25 C 158 25.4 158.1 25.6 158.3 25.9 C 158.6 26.1 158.9 26.2 159.4 26.2 C 159.9 26.2 160.3 26.1 160.7 25.9 C 161.1 25.7 161.3 25.4 161.5 25 C 161.6 24.8 161.7 24.3 161.7 23.8 C 161.7 23.8 161.7 23.3 161.7 23.3 Z M 164.8 27 L 164.8 19.7 L 166 19.7 C 166 19.7 165.96 20.76 166 20.8 C 166.5 20 167.3 19.6 168.3 19.6 C 168.7 19.6 169.1 19.6 169.5 19.8 C 169.8 20 170.1 20.2 170.3 20.4 C 170.5 20.7 170.6 21 170.7 21.3 C 170.7 21.6 170.7 22 170.7 22.5 C 170.75 22.53 170.7 27 170.7 27 L 169.5 27 C 169.5 27 169.52 22.58 169.5 22.6 C 169.5 22.1 169.5 21.7 169.4 21.5 C 169.3 21.2 169.1 21 168.9 20.9 C 168.6 20.7 168.3 20.6 168 20.6 C 167.5 20.6 167 20.8 166.6 21.1 C 166.3 21.5 166.1 22.1 166.1 23 C 166.08 23.03 166.1 27 166.1 27 L 164.8 27 Z " stroke="none" fill="#000000"/>  </g>  <g id="Polygon124078">    <path d="M 1.1 10.2 L 1.1 0.3 L 3.1 0.3 L 3.1 8.5 L 8.1 8.5 L 8.1 10.2 L 1.1 10.2 Z M 9.1 7.5 C 9.1 7.5 10.9 7.3 10.9 7.3 C 11 7.8 11.2 8.1 11.4 8.4 C 11.7 8.6 12 8.8 12.4 8.8 C 12.8 8.8 13.1 8.6 13.4 8.3 C 13.6 8 13.8 7.6 13.8 7.1 C 13.8 6.6 13.6 6.2 13.4 6 C 13.1 5.7 12.8 5.5 12.4 5.5 C 12.2 5.5 11.9 5.6 11.5 5.7 C 11.5 5.7 11.8 4.1 11.8 4.1 C 12.3 4.1 12.7 4 12.9 3.8 C 13.2 3.5 13.4 3.2 13.4 2.8 C 13.4 2.5 13.3 2.2 13.1 2 C 12.9 1.8 12.6 1.7 12.3 1.7 C 11.9 1.7 11.6 1.8 11.4 2.1 C 11.2 2.3 11 2.6 11 3 C 11 3 9.2 2.7 9.2 2.7 C 9.3 2.1 9.5 1.7 9.8 1.3 C 10 0.9 10.4 0.6 10.8 0.4 C 11.3 0.2 11.8 0.1 12.3 0.1 C 13.3 0.1 14 0.4 14.6 1 C 15.1 1.5 15.3 2.1 15.3 2.7 C 15.3 3.6 14.8 4.3 13.8 4.8 C 14.4 4.9 14.9 5.2 15.2 5.6 C 15.6 6.1 15.7 6.6 15.7 7.2 C 15.7 8.1 15.4 8.8 14.8 9.4 C 14.1 10.1 13.3 10.4 12.4 10.4 C 11.5 10.4 10.7 10.1 10.1 9.6 C 9.5 9.1 9.2 8.4 9.1 7.5 Z M 21.3 10.2 L 21.3 0.2 C 21.3 0.2 25.01 0.17 25 0.2 C 25.8 0.2 26.4 0.3 26.9 0.5 C 27.3 0.7 27.7 1 27.9 1.4 C 28.2 1.8 28.3 2.3 28.3 2.7 C 28.3 3.2 28.2 3.6 28 3.9 C 27.8 4.3 27.4 4.6 26.9 4.9 C 27.5 5 28 5.3 28.3 5.8 C 28.7 6.2 28.8 6.7 28.8 7.3 C 28.8 7.8 28.7 8.2 28.5 8.6 C 28.3 9 28.1 9.3 27.8 9.5 C 27.5 9.7 27.1 9.9 26.7 10 C 26.3 10.1 25.7 10.2 25.1 10.2 C 25.07 10.19 21.3 10.2 21.3 10.2 Z M 22.6 4.4 C 22.6 4.4 24.75 4.38 24.7 4.4 C 25.3 4.4 25.8 4.3 26 4.3 C 26.3 4.2 26.6 4 26.8 3.8 C 26.9 3.5 27 3.2 27 2.9 C 27 2.6 26.9 2.3 26.8 2 C 26.6 1.8 26.4 1.6 26.1 1.5 C 25.8 1.4 25.3 1.4 24.6 1.4 C 24.58 1.35 22.6 1.4 22.6 1.4 L 22.6 4.4 Z M 22.6 9 C 22.6 9 25.07 9.01 25.1 9 C 25.5 9 25.8 9 26 9 C 26.3 8.9 26.5 8.8 26.7 8.7 C 26.9 8.6 27.1 8.4 27.2 8.1 C 27.4 7.9 27.4 7.6 27.4 7.3 C 27.4 6.9 27.4 6.6 27.2 6.3 C 27 6 26.7 5.8 26.4 5.7 C 26 5.6 25.5 5.6 24.9 5.6 C 24.9 5.56 22.6 5.6 22.6 5.6 L 22.6 9 Z M 35.2 10.2 C 35.2 10.2 35.25 9.13 35.2 9.1 C 34.7 9.9 33.9 10.4 32.9 10.4 C 32.5 10.4 32.1 10.3 31.7 10.1 C 31.4 9.9 31.1 9.7 30.9 9.5 C 30.7 9.2 30.6 8.9 30.5 8.6 C 30.5 8.3 30.5 8 30.5 7.4 C 30.46 7.43 30.5 2.9 30.5 2.9 L 31.7 2.9 C 31.7 2.9 31.69 6.96 31.7 7 C 31.7 7.6 31.7 8 31.8 8.3 C 31.8 8.6 32 8.8 32.3 9 C 32.5 9.2 32.8 9.3 33.2 9.3 C 33.6 9.3 33.9 9.2 34.2 9 C 34.6 8.8 34.8 8.6 34.9 8.2 C 35 7.9 35.1 7.4 35.1 6.8 C 35.12 6.82 35.1 2.9 35.1 2.9 L 36.3 2.9 L 36.3 10.2 L 35.2 10.2 Z M 37.8 8 C 37.8 8 39 7.8 39 7.8 C 39.1 8.3 39.3 8.7 39.6 9 C 39.9 9.2 40.3 9.3 40.9 9.3 C 41.4 9.3 41.9 9.2 42.1 9 C 42.4 8.8 42.5 8.5 42.5 8.2 C 42.5 7.9 42.4 7.7 42.2 7.5 C 42 7.4 41.6 7.3 40.9 7.1 C 40 6.9 39.4 6.7 39.1 6.5 C 38.7 6.4 38.4 6.1 38.3 5.8 C 38.1 5.5 38 5.2 38 4.9 C 38 4.5 38.1 4.2 38.2 4 C 38.4 3.7 38.6 3.5 38.8 3.3 C 39 3.1 39.3 3 39.6 2.9 C 39.9 2.8 40.3 2.8 40.7 2.8 C 41.2 2.8 41.7 2.9 42.2 3 C 42.6 3.2 42.9 3.4 43.1 3.7 C 43.3 4 43.5 4.3 43.5 4.8 C 43.5 4.8 42.3 5 42.3 5 C 42.3 4.6 42.1 4.3 41.9 4.1 C 41.6 3.9 41.2 3.8 40.7 3.8 C 40.2 3.8 39.8 3.9 39.5 4.1 C 39.3 4.2 39.2 4.5 39.2 4.7 C 39.2 4.9 39.2 5 39.3 5.1 C 39.4 5.3 39.6 5.4 39.8 5.5 C 39.9 5.5 40.3 5.6 40.9 5.8 C 41.8 6 42.4 6.2 42.7 6.4 C 43.1 6.5 43.3 6.7 43.5 7 C 43.7 7.3 43.8 7.6 43.8 8.1 C 43.8 8.5 43.7 8.9 43.5 9.2 C 43.2 9.6 42.9 9.9 42.4 10.1 C 42 10.3 41.5 10.4 40.9 10.4 C 39.9 10.4 39.2 10.2 38.7 9.8 C 38.2 9.4 37.9 8.8 37.8 8 Z M 45.3 1.6 L 45.3 0.2 L 46.5 0.2 L 46.5 1.6 L 45.3 1.6 Z M 45.3 10.2 L 45.3 2.9 L 46.5 2.9 L 46.5 10.2 L 45.3 10.2 Z M 48.4 10.2 L 48.4 2.9 L 49.5 2.9 C 49.5 2.9 49.49 3.96 49.5 4 C 50 3.2 50.8 2.8 51.8 2.8 C 52.2 2.8 52.6 2.8 53 3 C 53.4 3.2 53.7 3.4 53.8 3.6 C 54 3.9 54.1 4.2 54.2 4.5 C 54.3 4.8 54.3 5.2 54.3 5.7 C 54.28 5.73 54.3 10.2 54.3 10.2 L 53.1 10.2 C 53.1 10.2 53.05 5.78 53.1 5.8 C 53.1 5.3 53 4.9 52.9 4.7 C 52.8 4.4 52.6 4.2 52.4 4.1 C 52.2 3.9 51.9 3.8 51.5 3.8 C 51 3.8 50.6 4 50.2 4.3 C 49.8 4.7 49.6 5.3 49.6 6.2 C 49.62 6.23 49.6 10.2 49.6 10.2 L 48.4 10.2 Z M 61.1 7.9 C 61.1 7.9 62.4 8 62.4 8 C 62.2 8.8 61.8 9.3 61.3 9.7 C 60.8 10.2 60.1 10.4 59.2 10.4 C 58.2 10.4 57.3 10 56.7 9.4 C 56.1 8.7 55.8 7.8 55.8 6.6 C 55.8 5.4 56.1 4.5 56.7 3.8 C 57.3 3.1 58.1 2.8 59.2 2.8 C 60.1 2.8 60.9 3.1 61.5 3.8 C 62.1 4.4 62.5 5.4 62.5 6.5 C 62.5 6.6 62.5 6.7 62.4 6.9 C 62.4 6.9 57 6.9 57 6.9 C 57.1 7.7 57.3 8.3 57.7 8.7 C 58.1 9.1 58.6 9.3 59.2 9.3 C 59.7 9.3 60.1 9.2 60.4 9 C 60.7 8.8 61 8.4 61.1 7.9 Z M 57.1 5.9 C 57.1 5.9 61.2 5.9 61.2 5.9 C 61.1 5.3 60.9 4.8 60.7 4.5 C 60.3 4 59.8 3.8 59.2 3.8 C 58.6 3.8 58.1 4 57.7 4.3 C 57.4 4.7 57.1 5.2 57.1 5.9 Z M 63.5 8 C 63.5 8 64.7 7.8 64.7 7.8 C 64.7 8.3 64.9 8.7 65.3 9 C 65.6 9.2 66 9.3 66.6 9.3 C 67.1 9.3 67.5 9.2 67.8 9 C 68.1 8.8 68.2 8.5 68.2 8.2 C 68.2 7.9 68.1 7.7 67.9 7.5 C 67.7 7.4 67.3 7.3 66.6 7.1 C 65.7 6.9 65.1 6.7 64.7 6.5 C 64.4 6.4 64.1 6.1 63.9 5.8 C 63.8 5.5 63.7 5.2 63.7 4.9 C 63.7 4.5 63.7 4.2 63.9 4 C 64 3.7 64.2 3.5 64.5 3.3 C 64.7 3.1 64.9 3 65.3 2.9 C 65.6 2.8 66 2.8 66.3 2.8 C 66.9 2.8 67.4 2.9 67.8 3 C 68.3 3.2 68.6 3.4 68.8 3.7 C 69 4 69.1 4.3 69.2 4.8 C 69.2 4.8 68 5 68 5 C 68 4.6 67.8 4.3 67.5 4.1 C 67.3 3.9 66.9 3.8 66.4 3.8 C 65.9 3.8 65.5 3.9 65.2 4.1 C 65 4.2 64.9 4.5 64.9 4.7 C 64.9 4.9 64.9 5 65 5.1 C 65.1 5.3 65.3 5.4 65.5 5.5 C 65.6 5.5 66 5.6 66.6 5.8 C 67.4 6 68 6.2 68.4 6.4 C 68.7 6.5 69 6.7 69.2 7 C 69.4 7.3 69.5 7.6 69.5 8.1 C 69.5 8.5 69.4 8.9 69.1 9.2 C 68.9 9.6 68.6 9.9 68.1 10.1 C 67.6 10.3 67.1 10.4 66.6 10.4 C 65.6 10.4 64.9 10.2 64.4 9.8 C 63.9 9.4 63.6 8.8 63.5 8 Z M 70.5 8 C 70.5 8 71.7 7.8 71.7 7.8 C 71.7 8.3 71.9 8.7 72.3 9 C 72.6 9.2 73 9.3 73.6 9.3 C 74.1 9.3 74.5 9.2 74.8 9 C 75.1 8.8 75.2 8.5 75.2 8.2 C 75.2 7.9 75.1 7.7 74.9 7.5 C 74.7 7.4 74.3 7.3 73.6 7.1 C 72.7 6.9 72.1 6.7 71.7 6.5 C 71.4 6.4 71.1 6.1 70.9 5.8 C 70.8 5.5 70.7 5.2 70.7 4.9 C 70.7 4.5 70.7 4.2 70.9 4 C 71 3.7 71.2 3.5 71.5 3.3 C 71.7 3.1 71.9 3 72.3 2.9 C 72.6 2.8 73 2.8 73.3 2.8 C 73.9 2.8 74.4 2.9 74.8 3 C 75.3 3.2 75.6 3.4 75.8 3.7 C 76 4 76.1 4.3 76.2 4.8 C 76.2 4.8 75 5 75 5 C 75 4.6 74.8 4.3 74.5 4.1 C 74.3 3.9 73.9 3.8 73.4 3.8 C 72.9 3.8 72.5 3.9 72.2 4.1 C 72 4.2 71.9 4.5 71.9 4.7 C 71.9 4.9 71.9 5 72 5.1 C 72.1 5.3 72.3 5.4 72.5 5.5 C 72.6 5.5 73 5.6 73.6 5.8 C 74.4 6 75 6.2 75.4 6.4 C 75.7 6.5 76 6.7 76.2 7 C 76.4 7.3 76.5 7.6 76.5 8.1 C 76.5 8.5 76.4 8.9 76.1 9.2 C 75.9 9.6 75.6 9.9 75.1 10.1 C 74.6 10.3 74.1 10.4 73.6 10.4 C 72.6 10.4 71.9 10.2 71.4 9.8 C 70.9 9.4 70.6 8.8 70.5 8 Z M 80.1 10.2 L 84 0.2 L 85.4 0.2 L 89.5 10.2 L 88 10.2 L 86.8 7.2 L 82.6 7.2 L 81.5 10.2 L 80.1 10.2 Z M 83 6.1 L 86.4 6.1 C 86.4 6.1 85.37 3.3 85.4 3.3 C 85.1 2.5 84.8 1.8 84.7 1.2 C 84.5 1.9 84.4 2.5 84.1 3.1 C 84.12 3.14 83 6.1 83 6.1 Z M 95.1 10.2 C 95.1 10.2 95.12 9.28 95.1 9.3 C 94.7 10 94 10.4 93.1 10.4 C 92.5 10.4 92 10.2 91.5 9.9 C 91 9.6 90.6 9.1 90.4 8.5 C 90.1 8 90 7.3 90 6.6 C 90 5.8 90.1 5.2 90.3 4.6 C 90.6 4 90.9 3.6 91.4 3.2 C 91.9 2.9 92.4 2.8 93 2.8 C 93.5 2.8 93.9 2.9 94.2 3 C 94.5 3.2 94.8 3.5 95 3.8 C 95.04 3.77 95 0.2 95 0.2 L 96.3 0.2 L 96.3 10.2 L 95.1 10.2 Z M 91.2 6.6 C 91.2 7.5 91.4 8.2 91.8 8.7 C 92.2 9.1 92.7 9.3 93.2 9.3 C 93.7 9.3 94.2 9.1 94.6 8.7 C 95 8.2 95.1 7.6 95.1 6.7 C 95.1 5.7 95 4.9 94.6 4.5 C 94.2 4 93.7 3.8 93.2 3.8 C 92.6 3.8 92.1 4 91.8 4.5 C 91.4 4.9 91.2 5.6 91.2 6.6 Z M 98.2 10.2 L 98.2 2.9 L 99.3 2.9 C 99.3 2.9 99.3 3.95 99.3 4 C 99.5 3.6 99.8 3.3 100.2 3.1 C 100.6 2.9 101 2.8 101.5 2.8 C 102 2.8 102.5 2.9 102.8 3.1 C 103.2 3.3 103.4 3.6 103.6 4 C 104.1 3.2 104.9 2.8 105.8 2.8 C 106.5 2.8 107.1 3 107.5 3.4 C 107.8 3.8 108 4.4 108 5.2 C 108.04 5.21 108 10.2 108 10.2 L 106.8 10.2 C 106.8 10.2 106.81 5.62 106.8 5.6 C 106.8 5.1 106.8 4.8 106.7 4.6 C 106.6 4.3 106.5 4.2 106.3 4 C 106 3.9 105.8 3.8 105.5 3.8 C 105 3.8 104.6 4 104.2 4.3 C 103.9 4.7 103.7 5.2 103.7 6 C 103.74 5.97 103.7 10.2 103.7 10.2 L 102.5 10.2 C 102.5 10.2 102.51 5.48 102.5 5.5 C 102.5 4.9 102.4 4.5 102.2 4.2 C 102 4 101.7 3.8 101.2 3.8 C 100.9 3.8 100.6 3.9 100.3 4.1 C 100 4.3 99.8 4.6 99.6 4.9 C 99.5 5.3 99.4 5.8 99.4 6.4 C 99.43 6.43 99.4 10.2 99.4 10.2 L 98.2 10.2 Z M 109.9 1.6 L 109.9 0.2 L 111.1 0.2 L 111.1 1.6 L 109.9 1.6 Z M 109.9 10.2 L 109.9 2.9 L 111.1 2.9 L 111.1 10.2 L 109.9 10.2 Z M 113 10.2 L 113 2.9 L 114.1 2.9 C 114.1 2.9 114.08 3.96 114.1 4 C 114.6 3.2 115.4 2.8 116.4 2.8 C 116.8 2.8 117.2 2.8 117.6 3 C 118 3.2 118.2 3.4 118.4 3.6 C 118.6 3.9 118.7 4.2 118.8 4.5 C 118.8 4.8 118.9 5.2 118.9 5.7 C 118.87 5.73 118.9 10.2 118.9 10.2 L 117.6 10.2 C 117.6 10.2 117.64 5.78 117.6 5.8 C 117.6 5.3 117.6 4.9 117.5 4.7 C 117.4 4.4 117.2 4.2 117 4.1 C 116.7 3.9 116.5 3.8 116.1 3.8 C 115.6 3.8 115.2 4 114.8 4.3 C 114.4 4.7 114.2 5.3 114.2 6.2 C 114.2 6.23 114.2 10.2 114.2 10.2 L 113 10.2 Z M 120.8 1.6 L 120.8 0.2 L 122 0.2 L 122 1.6 L 120.8 1.6 Z M 120.8 10.2 L 120.8 2.9 L 122 2.9 L 122 10.2 L 120.8 10.2 Z M 123.4 8 C 123.4 8 124.6 7.8 124.6 7.8 C 124.7 8.3 124.9 8.7 125.2 9 C 125.5 9.2 125.9 9.3 126.5 9.3 C 127 9.3 127.5 9.2 127.7 9 C 128 8.8 128.1 8.5 128.1 8.2 C 128.1 7.9 128 7.7 127.8 7.5 C 127.6 7.4 127.2 7.3 126.5 7.1 C 125.6 6.9 125 6.7 124.6 6.5 C 124.3 6.4 124 6.1 123.9 5.8 C 123.7 5.5 123.6 5.2 123.6 4.9 C 123.6 4.5 123.7 4.2 123.8 4 C 124 3.7 124.2 3.5 124.4 3.3 C 124.6 3.1 124.9 3 125.2 2.9 C 125.5 2.8 125.9 2.8 126.3 2.8 C 126.8 2.8 127.3 2.9 127.8 3 C 128.2 3.2 128.5 3.4 128.7 3.7 C 128.9 4 129.1 4.3 129.1 4.8 C 129.1 4.8 127.9 5 127.9 5 C 127.9 4.6 127.7 4.3 127.5 4.1 C 127.2 3.9 126.8 3.8 126.3 3.8 C 125.8 3.8 125.4 3.9 125.1 4.1 C 124.9 4.2 124.8 4.5 124.8 4.7 C 124.8 4.9 124.8 5 124.9 5.1 C 125 5.3 125.2 5.4 125.4 5.5 C 125.5 5.5 125.9 5.6 126.5 5.8 C 127.3 6 128 6.2 128.3 6.4 C 128.6 6.5 128.9 6.7 129.1 7 C 129.3 7.3 129.4 7.6 129.4 8.1 C 129.4 8.5 129.3 8.9 129 9.2 C 128.8 9.6 128.5 9.9 128 10.1 C 127.6 10.3 127 10.4 126.5 10.4 C 125.5 10.4 124.8 10.2 124.3 9.8 C 123.8 9.4 123.5 8.8 123.4 8 Z M 133 9.1 C 133.2 9.1 133.3 9.1 133.6 9.1 C 133.6 9.1 133.7 10.2 133.7 10.2 C 133.4 10.3 133.1 10.3 132.8 10.3 C 132.4 10.3 132 10.2 131.8 10.1 C 131.5 9.9 131.3 9.7 131.2 9.5 C 131.1 9.3 131.1 8.8 131.1 8.1 C 131.09 8.07 131.1 3.9 131.1 3.9 L 130.2 3.9 L 130.2 2.9 L 131.1 2.9 L 131.1 1.1 L 132.3 0.4 L 132.3 2.9 L 133.6 2.9 L 133.6 3.9 L 132.3 3.9 C 132.3 3.9 132.32 8.13 132.3 8.1 C 132.3 8.5 132.3 8.7 132.4 8.8 C 132.4 8.9 132.5 9 132.6 9.1 C 132.7 9.1 132.8 9.1 133 9.1 C 133 9.1 133 9.1 133 9.1 Z M 134.7 10.2 L 134.7 2.9 L 135.9 2.9 C 135.9 2.9 135.85 4.03 135.9 4 C 136.1 3.5 136.4 3.2 136.6 3 C 136.9 2.9 137.1 2.8 137.4 2.8 C 137.8 2.8 138.3 2.9 138.7 3.2 C 138.7 3.2 138.3 4.3 138.3 4.3 C 138 4.1 137.7 4 137.4 4 C 137.1 4 136.9 4.1 136.6 4.3 C 136.4 4.4 136.3 4.7 136.2 5 C 136 5.4 136 5.9 136 6.4 C 135.97 6.39 136 10.2 136 10.2 L 134.7 10.2 Z M 144.4 10.2 C 144.3 9.9 144.2 9.6 144.2 9.3 C 143.7 9.7 143.3 10 142.8 10.1 C 142.4 10.3 142 10.4 141.5 10.4 C 140.7 10.4 140.1 10.2 139.6 9.8 C 139.2 9.4 139 8.9 139 8.3 C 139 7.9 139.1 7.6 139.2 7.3 C 139.4 7 139.6 6.8 139.9 6.6 C 140.1 6.4 140.4 6.3 140.8 6.2 C 141 6.1 141.4 6.1 141.9 6 C 142.9 5.9 143.6 5.7 144.1 5.6 C 144.1 5.4 144.1 5.3 144.1 5.3 C 144.1 4.8 143.9 4.4 143.7 4.2 C 143.4 3.9 142.9 3.8 142.3 3.8 C 141.7 3.8 141.3 3.9 141 4.1 C 140.8 4.3 140.5 4.7 140.4 5.2 C 140.4 5.2 139.2 5 139.2 5 C 139.3 4.5 139.5 4.1 139.8 3.8 C 140 3.4 140.4 3.2 140.8 3 C 141.3 2.9 141.9 2.8 142.5 2.8 C 143.1 2.8 143.6 2.8 144 3 C 144.4 3.1 144.7 3.3 144.9 3.5 C 145 3.8 145.2 4 145.2 4.4 C 145.3 4.6 145.3 5 145.3 5.5 C 145.3 5.5 145.3 7.2 145.3 7.2 C 145.3 8.3 145.3 9 145.4 9.3 C 145.4 9.6 145.5 9.9 145.7 10.2 C 145.69 10.19 144.4 10.2 144.4 10.2 C 144.4 10.2 144.4 10.19 144.4 10.2 Z M 144.1 6.5 C 143.6 6.7 142.9 6.9 142 7 C 141.5 7.1 141.2 7.2 141 7.3 C 140.8 7.4 140.6 7.5 140.5 7.7 C 140.4 7.8 140.3 8 140.3 8.2 C 140.3 8.6 140.4 8.8 140.7 9.1 C 140.9 9.3 141.3 9.4 141.8 9.4 C 142.3 9.4 142.7 9.3 143 9.1 C 143.4 8.9 143.7 8.6 143.9 8.2 C 144 8 144.1 7.5 144.1 7 C 144.1 7 144.1 6.5 144.1 6.5 Z M 149.4 9.1 C 149.5 9.1 149.7 9.1 149.9 9.1 C 149.9 9.1 150.1 10.2 150.1 10.2 C 149.7 10.3 149.4 10.3 149.1 10.3 C 148.7 10.3 148.3 10.2 148.1 10.1 C 147.9 9.9 147.7 9.7 147.6 9.5 C 147.5 9.3 147.4 8.8 147.4 8.1 C 147.43 8.07 147.4 3.9 147.4 3.9 L 146.5 3.9 L 146.5 2.9 L 147.4 2.9 L 147.4 1.1 L 148.7 0.4 L 148.7 2.9 L 149.9 2.9 L 149.9 3.9 L 148.7 3.9 C 148.7 3.9 148.65 8.13 148.7 8.1 C 148.7 8.5 148.7 8.7 148.7 8.8 C 148.8 8.9 148.8 9 148.9 9.1 C 149 9.1 149.2 9.1 149.4 9.1 C 149.4 9.1 149.4 9.1 149.4 9.1 Z M 150.6 6.6 C 150.6 5.2 151 4.2 151.8 3.6 C 152.4 3 153.1 2.8 154 2.8 C 155 2.8 155.9 3.1 156.5 3.7 C 157.1 4.4 157.4 5.3 157.4 6.5 C 157.4 7.4 157.3 8.1 157 8.7 C 156.7 9.2 156.3 9.6 155.8 9.9 C 155.3 10.2 154.7 10.4 154 10.4 C 153 10.4 152.2 10 151.6 9.4 C 150.9 8.7 150.6 7.8 150.6 6.6 Z M 151.9 6.6 C 151.9 7.5 152.1 8.2 152.5 8.7 C 152.9 9.1 153.4 9.3 154 9.3 C 154.7 9.3 155.2 9.1 155.6 8.6 C 156 8.2 156.2 7.5 156.2 6.5 C 156.2 5.6 156 4.9 155.6 4.5 C 155.2 4 154.6 3.8 154 3.8 C 153.4 3.8 152.9 4 152.5 4.5 C 152.1 4.9 151.9 5.6 151.9 6.6 Z M 158.9 10.2 L 158.9 2.9 L 160 2.9 C 160 2.9 159.97 4.03 160 4 C 160.3 3.5 160.5 3.2 160.8 3 C 161 2.9 161.3 2.8 161.5 2.8 C 162 2.8 162.4 2.9 162.8 3.2 C 162.8 3.2 162.4 4.3 162.4 4.3 C 162.1 4.1 161.8 4 161.5 4 C 161.2 4 161 4.1 160.8 4.3 C 160.5 4.4 160.4 4.7 160.3 5 C 160.2 5.4 160.1 5.9 160.1 6.4 C 160.1 6.39 160.1 10.2 160.1 10.2 L 158.9 10.2 Z " stroke="none" fill="#000000"/>  </g></svg>