<?xml version="1.0" standalone="no"?><!DOCTYPE svg PUBLIC "-//W3C//DTD SVG 1.1//EN" "http://www.w3.org/Graphics/SVG/1.1/DTD/svg11.dtd"><svg xmlns="http://www.w3.org/2000/svg" version="1.1" width="237px" height="33.9px" viewBox="0 -1 237 33.9" style="top:-1px">  <desc>Health &amp; Science</desc>  <defs/>  <g id="Polygon108400">    <path d="M 1 19.6 L 1 9.6 L 3 9.6 L 3 13.5 L 7 13.5 L 7 9.6 L 9 9.6 L 9 19.6 L 7 19.6 L 7 15.2 L 3 15.2 L 3 19.6 L 1 19.6 Z M 15.3 17.3 C 15.3 17.3 17.2 17.6 17.2 17.6 C 17 18.3 16.6 18.8 16.1 19.2 C 15.5 19.6 14.9 19.8 14.1 19.8 C 12.8 19.8 11.9 19.3 11.3 18.5 C 10.8 17.9 10.6 17 10.6 16 C 10.6 14.8 10.9 13.9 11.5 13.2 C 12.1 12.5 12.9 12.2 13.9 12.2 C 15 12.2 15.8 12.5 16.4 13.2 C 17.1 14 17.4 15 17.3 16.5 C 17.3 16.5 12.5 16.5 12.5 16.5 C 12.5 17.1 12.7 17.5 13 17.8 C 13.3 18.2 13.7 18.3 14.1 18.3 C 14.4 18.3 14.6 18.2 14.9 18.1 C 15.1 17.9 15.2 17.6 15.3 17.3 Z M 15.4 15.3 C 15.4 14.8 15.3 14.4 15 14.1 C 14.7 13.8 14.4 13.6 14 13.6 C 13.6 13.6 13.2 13.8 13 14.1 C 12.7 14.4 12.6 14.8 12.6 15.3 C 12.6 15.3 15.4 15.3 15.4 15.3 Z M 20.3 14.5 C 20.3 14.5 18.6 14.2 18.6 14.2 C 18.8 13.5 19.1 13 19.6 12.7 C 20.1 12.3 20.8 12.2 21.7 12.2 C 22.6 12.2 23.2 12.3 23.7 12.5 C 24.1 12.7 24.4 12.9 24.5 13.2 C 24.7 13.6 24.8 14.1 24.8 15 C 24.8 15 24.8 17.2 24.8 17.2 C 24.8 17.8 24.8 18.3 24.9 18.6 C 24.9 18.9 25 19.2 25.2 19.6 C 25.2 19.6 23.3 19.6 23.3 19.6 C 23.3 19.5 23.2 19.3 23.1 19 C 23.1 18.9 23.1 18.8 23.1 18.8 C 22.7 19.1 22.4 19.4 22 19.5 C 21.6 19.7 21.2 19.8 20.8 19.8 C 20.1 19.8 19.5 19.6 19 19.1 C 18.6 18.7 18.4 18.2 18.4 17.6 C 18.4 17.2 18.5 16.8 18.7 16.5 C 18.9 16.2 19.2 15.9 19.5 15.8 C 19.9 15.6 20.4 15.5 21 15.3 C 21.9 15.2 22.6 15 22.9 14.9 C 22.9 14.9 22.9 14.7 22.9 14.7 C 22.9 14.3 22.8 14 22.6 13.9 C 22.5 13.7 22.1 13.6 21.6 13.6 C 21.3 13.6 21 13.7 20.8 13.8 C 20.6 14 20.5 14.2 20.3 14.5 Z M 22.9 16.1 C 22.7 16.2 22.3 16.3 21.7 16.4 C 21.2 16.5 20.9 16.6 20.7 16.7 C 20.4 16.9 20.3 17.1 20.3 17.4 C 20.3 17.7 20.4 17.9 20.6 18.1 C 20.8 18.3 21.1 18.4 21.4 18.4 C 21.7 18.4 22.1 18.3 22.4 18.1 C 22.6 17.9 22.8 17.7 22.8 17.4 C 22.9 17.3 22.9 16.9 22.9 16.5 C 22.9 16.5 22.9 16.1 22.9 16.1 Z M 26.7 19.6 L 26.7 9.6 L 28.6 9.6 L 28.6 19.6 L 26.7 19.6 Z M 33.9 12.3 L 33.9 13.9 L 32.6 13.9 C 32.6 13.9 32.59 16.79 32.6 16.8 C 32.6 17.4 32.6 17.7 32.6 17.8 C 32.7 17.9 32.7 18 32.8 18.1 C 32.9 18.1 33 18.2 33.1 18.2 C 33.3 18.2 33.6 18.1 33.9 18 C 33.9 18 34.1 19.5 34.1 19.5 C 33.6 19.7 33.1 19.8 32.5 19.8 C 32.2 19.8 31.9 19.7 31.6 19.6 C 31.3 19.5 31.1 19.3 31 19.1 C 30.9 18.9 30.8 18.7 30.7 18.4 C 30.7 18.2 30.7 17.7 30.7 17 C 30.67 17.03 30.7 13.9 30.7 13.9 L 29.8 13.9 L 29.8 12.3 L 30.7 12.3 L 30.7 10.9 L 32.6 9.8 L 32.6 12.3 L 33.9 12.3 Z M 37.2 9.6 C 37.2 9.6 37.15 13.26 37.2 13.3 C 37.8 12.5 38.5 12.2 39.4 12.2 C 39.8 12.2 40.2 12.3 40.6 12.4 C 40.9 12.6 41.2 12.8 41.4 13 C 41.6 13.3 41.7 13.6 41.7 13.9 C 41.8 14.2 41.8 14.7 41.8 15.3 C 41.84 15.33 41.8 19.6 41.8 19.6 L 39.9 19.6 C 39.9 19.6 39.92 15.76 39.9 15.8 C 39.9 15 39.9 14.5 39.8 14.3 C 39.7 14.1 39.6 13.9 39.4 13.8 C 39.2 13.7 39 13.6 38.7 13.6 C 38.4 13.6 38.1 13.7 37.9 13.9 C 37.6 14 37.4 14.3 37.3 14.6 C 37.2 14.9 37.2 15.3 37.2 16 C 37.15 15.96 37.2 19.6 37.2 19.6 L 35.2 19.6 L 35.2 9.6 L 37.2 9.6 Z M 56.6 18.4 C 56.6 18.4 55.4 19.9 55.4 19.9 C 54.8 19.6 54.3 19.2 53.8 18.7 C 53.4 19.1 52.9 19.3 52.5 19.5 C 52 19.7 51.5 19.8 50.8 19.8 C 49.6 19.8 48.7 19.4 48 18.7 C 47.5 18.2 47.3 17.6 47.3 16.8 C 47.3 16.2 47.5 15.6 47.9 15.1 C 48.2 14.6 48.8 14.2 49.6 13.8 C 49.2 13.4 49 13 48.8 12.6 C 48.6 12.2 48.5 11.9 48.5 11.6 C 48.5 11 48.8 10.5 49.3 10 C 49.8 9.6 50.5 9.4 51.4 9.4 C 52.2 9.4 52.9 9.6 53.4 10.1 C 53.9 10.5 54.1 11 54.1 11.7 C 54.1 12.1 54 12.5 53.8 12.8 C 53.5 13.2 53 13.6 52.3 14.1 C 52.3 14.1 53.7 15.9 53.7 15.9 C 53.8 15.6 54 15.2 54.1 14.8 C 54.1 14.8 55.8 15.2 55.8 15.2 C 55.7 15.8 55.5 16.2 55.4 16.5 C 55.3 16.8 55.1 17 55 17.2 C 55.2 17.4 55.5 17.7 55.8 17.9 C 56.2 18.1 56.4 18.3 56.6 18.4 Z M 51.3 12.9 C 51.3 12.9 51.85 12.52 51.9 12.5 C 52.2 12.2 52.4 11.9 52.4 11.6 C 52.4 11.4 52.3 11.2 52.1 11 C 52 10.8 51.7 10.8 51.4 10.8 C 51.1 10.8 50.9 10.8 50.7 11 C 50.5 11.1 50.4 11.3 50.4 11.5 C 50.4 11.7 50.6 12 50.9 12.4 C 50.86 12.37 51.3 12.9 51.3 12.9 Z M 50.6 15 C 50.1 15.2 49.8 15.5 49.6 15.8 C 49.4 16.1 49.3 16.4 49.3 16.8 C 49.3 17.2 49.4 17.5 49.7 17.8 C 49.9 18.1 50.3 18.2 50.8 18.2 C 51.1 18.2 51.3 18.1 51.6 18 C 51.9 17.9 52.2 17.7 52.5 17.4 C 52.5 17.4 50.6 15 50.6 15 Z M 61.2 16.3 C 61.2 16.3 63.2 16.1 63.2 16.1 C 63.3 16.8 63.5 17.3 63.9 17.6 C 64.2 17.9 64.7 18.1 65.3 18.1 C 66 18.1 66.5 17.9 66.8 17.6 C 67.1 17.4 67.3 17 67.3 16.7 C 67.3 16.4 67.2 16.2 67.1 16.1 C 67 15.9 66.7 15.8 66.4 15.6 C 66.1 15.6 65.6 15.4 64.8 15.2 C 63.7 14.9 62.9 14.6 62.5 14.2 C 61.9 13.7 61.5 13 61.5 12.2 C 61.5 11.7 61.7 11.2 62 10.8 C 62.3 10.3 62.7 10 63.2 9.7 C 63.8 9.5 64.4 9.4 65.2 9.4 C 66.5 9.4 67.4 9.7 68 10.2 C 68.7 10.8 69 11.5 69 12.4 C 69 12.4 67 12.5 67 12.5 C 66.9 12 66.7 11.6 66.5 11.4 C 66.2 11.2 65.8 11.1 65.2 11.1 C 64.6 11.1 64.1 11.2 63.8 11.4 C 63.6 11.6 63.5 11.8 63.5 12.1 C 63.5 12.3 63.6 12.5 63.8 12.7 C 64 12.9 64.7 13.1 65.6 13.3 C 66.6 13.6 67.4 13.8 67.8 14.1 C 68.3 14.3 68.7 14.6 68.9 15.1 C 69.2 15.5 69.3 16 69.3 16.7 C 69.3 17.2 69.2 17.8 68.9 18.3 C 68.5 18.8 68.1 19.2 67.5 19.4 C 66.9 19.6 66.2 19.8 65.3 19.8 C 64.1 19.8 63.1 19.5 62.4 18.9 C 61.7 18.3 61.3 17.5 61.2 16.3 Z M 77.3 14.5 C 77.3 14.5 75.5 14.8 75.5 14.8 C 75.4 14.4 75.2 14.2 75 14 C 74.8 13.8 74.5 13.7 74.1 13.7 C 73.7 13.7 73.3 13.8 73 14.2 C 72.7 14.5 72.6 15.1 72.6 15.8 C 72.6 16.7 72.7 17.3 73 17.7 C 73.3 18 73.7 18.2 74.2 18.2 C 74.5 18.2 74.8 18.1 75.1 17.9 C 75.3 17.7 75.5 17.3 75.6 16.8 C 75.6 16.8 77.4 17.1 77.4 17.1 C 77.2 18 76.9 18.7 76.3 19.1 C 75.8 19.5 75 19.8 74.1 19.8 C 73 19.8 72.2 19.4 71.5 18.8 C 70.9 18.1 70.6 17.2 70.6 16 C 70.6 14.8 70.9 13.8 71.5 13.2 C 72.2 12.5 73 12.2 74.1 12.2 C 75 12.2 75.7 12.4 76.2 12.7 C 76.7 13.1 77.1 13.7 77.3 14.5 Z M 78.8 11.3 L 78.8 9.6 L 80.7 9.6 L 80.7 11.3 L 78.8 11.3 Z M 78.8 19.6 L 78.8 12.3 L 80.7 12.3 L 80.7 19.6 L 78.8 19.6 Z M 86.9 17.3 C 86.9 17.3 88.8 17.6 88.8 17.6 C 88.6 18.3 88.2 18.8 87.6 19.2 C 87.1 19.6 86.5 19.8 85.7 19.8 C 84.4 19.8 83.5 19.3 82.9 18.5 C 82.4 17.9 82.1 17 82.1 16 C 82.1 14.8 82.4 13.9 83.1 13.2 C 83.7 12.5 84.5 12.2 85.5 12.2 C 86.5 12.2 87.4 12.5 88 13.2 C 88.6 14 88.9 15 88.9 16.5 C 88.9 16.5 84.1 16.5 84.1 16.5 C 84.1 17.1 84.3 17.5 84.6 17.8 C 84.9 18.2 85.2 18.3 85.7 18.3 C 86 18.3 86.2 18.2 86.4 18.1 C 86.6 17.9 86.8 17.6 86.9 17.3 Z M 87 15.3 C 87 14.8 86.9 14.4 86.6 14.1 C 86.3 13.8 86 13.6 85.6 13.6 C 85.2 13.6 84.8 13.8 84.5 14.1 C 84.3 14.4 84.1 14.8 84.1 15.3 C 84.1 15.3 87 15.3 87 15.3 Z M 97.1 19.6 L 95.2 19.6 C 95.2 19.6 95.16 15.89 95.2 15.9 C 95.2 15.1 95.1 14.6 95 14.4 C 95 14.1 94.8 14 94.6 13.8 C 94.5 13.7 94.2 13.6 94 13.6 C 93.6 13.6 93.3 13.7 93.1 13.9 C 92.8 14.1 92.6 14.3 92.5 14.6 C 92.4 14.9 92.4 15.5 92.4 16.3 C 92.39 16.3 92.4 19.6 92.4 19.6 L 90.5 19.6 L 90.5 12.3 L 92.3 12.3 C 92.3 12.3 92.25 13.4 92.3 13.4 C 92.9 12.6 93.7 12.2 94.6 12.2 C 95.1 12.2 95.5 12.2 95.8 12.4 C 96.2 12.6 96.4 12.7 96.6 13 C 96.8 13.2 96.9 13.5 97 13.8 C 97 14.1 97.1 14.5 97.1 15.1 C 97.08 15.08 97.1 19.6 97.1 19.6 Z M 105.4 14.5 C 105.4 14.5 103.5 14.8 103.5 14.8 C 103.4 14.4 103.3 14.2 103 14 C 102.8 13.8 102.5 13.7 102.2 13.7 C 101.7 13.7 101.3 13.8 101 14.2 C 100.7 14.5 100.6 15.1 100.6 15.8 C 100.6 16.7 100.7 17.3 101 17.7 C 101.3 18 101.7 18.2 102.2 18.2 C 102.5 18.2 102.8 18.1 103.1 17.9 C 103.3 17.7 103.5 17.3 103.6 16.8 C 103.6 16.8 105.5 17.1 105.5 17.1 C 105.3 18 104.9 18.7 104.3 19.1 C 103.8 19.5 103 19.8 102.1 19.8 C 101 19.8 100.2 19.4 99.6 18.8 C 98.9 18.1 98.6 17.2 98.6 16 C 98.6 14.8 98.9 13.8 99.6 13.2 C 100.2 12.5 101 12.2 102.1 12.2 C 103 12.2 103.7 12.4 104.2 12.7 C 104.8 13.1 105.1 13.7 105.4 14.5 Z M 111 17.3 C 111 17.3 112.9 17.6 112.9 17.6 C 112.7 18.3 112.3 18.8 111.8 19.2 C 111.2 19.6 110.6 19.8 109.8 19.8 C 108.5 19.8 107.6 19.3 107 18.5 C 106.5 17.9 106.3 17 106.3 16 C 106.3 14.8 106.6 13.9 107.2 13.2 C 107.8 12.5 108.6 12.2 109.6 12.2 C 110.7 12.2 111.5 12.5 112.1 13.2 C 112.8 14 113.1 15 113 16.5 C 113 16.5 108.2 16.5 108.2 16.5 C 108.2 17.1 108.4 17.5 108.7 17.8 C 109 18.2 109.4 18.3 109.8 18.3 C 110.1 18.3 110.4 18.2 110.6 18.1 C 110.8 17.9 110.9 17.6 111 17.3 Z M 111.1 15.3 C 111.1 14.8 111 14.4 110.7 14.1 C 110.4 13.8 110.1 13.6 109.7 13.6 C 109.3 13.6 108.9 13.8 108.7 14.1 C 108.4 14.4 108.3 14.8 108.3 15.3 C 108.3 15.3 111.1 15.3 111.1 15.3 Z " stroke="none" fill="#fff"/>  </g></svg>