<?xml version="1.0" standalone="no"?><!DOCTYPE svg PUBLIC "-//W3C//DTD SVG 1.1//EN" "http://www.w3.org/Graphics/SVG/1.1/DTD/svg11.dtd"><svg xmlns="http://www.w3.org/2000/svg" version="1.1" width="29.4px" height="23.9px" viewBox="0 -5 29.4 23.9" style="top:-5px">  <desc>Next</desc>  <defs/>  <g id="Polygon139804">    <path d="M 1.1 10.2 L 1.1 0.2 L 2.4 0.2 L 7.7 8 L 7.7 0.2 L 9 0.2 L 9 10.2 L 7.6 10.2 L 2.3 2.3 L 2.3 10.2 L 1.1 10.2 Z M 16 7.9 C 16 7.9 17.3 8 17.3 8 C 17.1 8.8 16.7 9.3 16.2 9.7 C 15.6 10.2 14.9 10.4 14.1 10.4 C 13 10.4 12.2 10 11.6 9.4 C 10.9 8.7 10.6 7.8 10.6 6.6 C 10.6 5.4 10.9 4.5 11.6 3.8 C 12.2 3.1 13 2.8 14 2.8 C 15 2.8 15.8 3.1 16.4 3.8 C 17 4.4 17.3 5.4 17.3 6.5 C 17.3 6.6 17.3 6.7 17.3 6.9 C 17.3 6.9 11.9 6.9 11.9 6.9 C 11.9 7.7 12.2 8.3 12.6 8.7 C 13 9.1 13.5 9.3 14.1 9.3 C 14.5 9.3 14.9 9.2 15.2 9 C 15.6 8.8 15.8 8.4 16 7.9 Z M 12 5.9 C 12 5.9 16 5.9 16 5.9 C 16 5.3 15.8 4.8 15.6 4.5 C 15.2 4 14.7 3.8 14 3.8 C 13.5 3.8 13 4 12.6 4.3 C 12.2 4.7 12 5.2 12 5.9 Z M 18 10.2 L 20.7 6.4 L 18.2 2.9 L 19.7 2.9 C 19.7 2.9 20.85 4.63 20.8 4.6 C 21.1 5 21.2 5.2 21.4 5.4 C 21.6 5.1 21.7 4.9 21.9 4.6 C 21.91 4.65 23.1 2.9 23.1 2.9 L 24.6 2.9 L 22.1 6.4 L 24.8 10.2 L 23.3 10.2 L 21.8 7.9 L 21.4 7.3 L 19.5 10.2 L 18 10.2 Z M 28 9.1 C 28.1 9.1 28.3 9.1 28.5 9.1 C 28.5 9.1 28.7 10.2 28.7 10.2 C 28.3 10.3 28 10.3 27.8 10.3 C 27.3 10.3 27 10.2 26.7 10.1 C 26.5 9.9 26.3 9.7 26.2 9.5 C 26.1 9.3 26 8.8 26 8.1 C 26.04 8.07 26 3.9 26 3.9 L 25.1 3.9 L 25.1 2.9 L 26 2.9 L 26 1.1 L 27.3 0.4 L 27.3 2.9 L 28.5 2.9 L 28.5 3.9 L 27.3 3.9 C 27.3 3.9 27.27 8.13 27.3 8.1 C 27.3 8.5 27.3 8.7 27.3 8.8 C 27.4 8.9 27.4 9 27.5 9.1 C 27.6 9.1 27.8 9.1 28 9.1 C 28 9.1 28 9.1 28 9.1 Z " stroke="none" fill="#e4007e"/>  </g></svg>