<?xml version="1.0" standalone="no"?><!DOCTYPE svg PUBLIC "-//W3C//DTD SVG 1.1//EN" "http://www.w3.org/Graphics/SVG/1.1/DTD/svg11.dtd"><svg xmlns="http://www.w3.org/2000/svg" version="1.1" width="167.1px" height="23.9px" viewBox="0 -5 167.1 23.9" style="top:-5px">  <desc>Operations / Support Team</desc>  <defs/>  <g id="Polygon141264">    <path d="M 0.7 5.3 C 0.7 3.6 1.1 2.3 2 1.4 C 2.9 0.5 4.1 0 5.5 0 C 6.4 0 7.2 0.2 8 0.7 C 8.7 1.1 9.3 1.7 9.7 2.5 C 10.1 3.3 10.3 4.2 10.3 5.2 C 10.3 6.2 10.1 7.1 9.6 7.9 C 9.2 8.7 8.7 9.3 7.9 9.7 C 7.2 10.2 6.3 10.4 5.5 10.4 C 4.5 10.4 3.7 10.1 2.9 9.7 C 2.2 9.2 1.6 8.6 1.3 7.8 C 0.9 7 0.7 6.2 0.7 5.3 Z M 2 5.3 C 2 6.5 2.4 7.5 3 8.2 C 3.7 8.9 4.5 9.2 5.5 9.2 C 6.5 9.2 7.3 8.9 7.9 8.2 C 8.6 7.5 8.9 6.5 8.9 5.2 C 8.9 4.4 8.8 3.7 8.5 3.1 C 8.2 2.4 7.8 2 7.3 1.6 C 6.7 1.3 6.1 1.1 5.5 1.1 C 4.5 1.1 3.7 1.5 3.1 2.1 C 2.4 2.7 2 3.8 2 5.3 Z M 11.8 13 L 11.8 2.9 L 12.9 2.9 C 12.9 2.9 12.93 3.88 12.9 3.9 C 13.2 3.5 13.5 3.2 13.8 3 C 14.2 2.9 14.6 2.8 15 2.8 C 15.7 2.8 16.2 2.9 16.7 3.2 C 17.2 3.6 17.5 4 17.8 4.6 C 18 5.2 18.1 5.8 18.1 6.5 C 18.1 7.3 18 7.9 17.7 8.5 C 17.4 9.1 17.1 9.6 16.6 9.9 C 16 10.2 15.5 10.4 15 10.4 C 14.5 10.4 14.2 10.3 13.8 10.1 C 13.5 9.9 13.3 9.7 13 9.4 C 13.04 9.44 13 13 13 13 L 11.8 13 Z M 12.9 6.6 C 12.9 7.5 13.1 8.2 13.5 8.7 C 13.9 9.1 14.3 9.3 14.9 9.3 C 15.4 9.3 15.9 9.1 16.3 8.7 C 16.7 8.2 16.9 7.5 16.9 6.5 C 16.9 5.6 16.7 4.9 16.3 4.4 C 15.9 4 15.5 3.7 14.9 3.7 C 14.4 3.7 13.9 4 13.5 4.5 C 13.1 5 12.9 5.7 12.9 6.6 Z M 24.6 7.9 C 24.6 7.9 25.8 8 25.8 8 C 25.6 8.8 25.3 9.3 24.7 9.7 C 24.2 10.2 23.5 10.4 22.6 10.4 C 21.6 10.4 20.7 10 20.1 9.4 C 19.5 8.7 19.2 7.8 19.2 6.6 C 19.2 5.4 19.5 4.5 20.1 3.8 C 20.8 3.1 21.6 2.8 22.6 2.8 C 23.5 2.8 24.3 3.1 25 3.8 C 25.6 4.4 25.9 5.4 25.9 6.5 C 25.9 6.6 25.9 6.7 25.9 6.9 C 25.9 6.9 20.5 6.9 20.5 6.9 C 20.5 7.7 20.7 8.3 21.1 8.7 C 21.5 9.1 22 9.3 22.7 9.3 C 23.1 9.3 23.5 9.2 23.8 9 C 24.1 8.8 24.4 8.4 24.6 7.9 Z M 20.5 5.9 C 20.5 5.9 24.6 5.9 24.6 5.9 C 24.5 5.3 24.4 4.8 24.1 4.5 C 23.7 4 23.2 3.8 22.6 3.8 C 22 3.8 21.6 4 21.2 4.3 C 20.8 4.7 20.6 5.2 20.5 5.9 Z M 27.4 10.2 L 27.4 2.9 L 28.5 2.9 C 28.5 2.9 28.48 4.03 28.5 4 C 28.8 3.5 29 3.2 29.3 3 C 29.5 2.9 29.8 2.8 30.1 2.8 C 30.5 2.8 30.9 2.9 31.3 3.2 C 31.3 3.2 30.9 4.3 30.9 4.3 C 30.6 4.1 30.3 4 30 4 C 29.7 4 29.5 4.1 29.3 4.3 C 29.1 4.4 28.9 4.7 28.8 5 C 28.7 5.4 28.6 5.9 28.6 6.4 C 28.6 6.39 28.6 10.2 28.6 10.2 L 27.4 10.2 Z M 37 10.2 C 36.9 9.9 36.8 9.6 36.8 9.3 C 36.3 9.7 35.9 10 35.5 10.1 C 35 10.3 34.6 10.4 34.1 10.4 C 33.3 10.4 32.7 10.2 32.3 9.8 C 31.8 9.4 31.6 8.9 31.6 8.3 C 31.6 7.9 31.7 7.6 31.9 7.3 C 32 7 32.2 6.8 32.5 6.6 C 32.8 6.4 33.1 6.3 33.4 6.2 C 33.6 6.1 34 6.1 34.5 6 C 35.5 5.9 36.2 5.7 36.7 5.6 C 36.7 5.4 36.7 5.3 36.7 5.3 C 36.7 4.8 36.6 4.4 36.3 4.2 C 36 3.9 35.6 3.8 34.9 3.8 C 34.4 3.8 33.9 3.9 33.7 4.1 C 33.4 4.3 33.2 4.7 33 5.2 C 33 5.2 31.8 5 31.8 5 C 32 4.5 32.1 4.1 32.4 3.8 C 32.6 3.4 33 3.2 33.5 3 C 33.9 2.9 34.5 2.8 35.1 2.8 C 35.7 2.8 36.2 2.8 36.6 3 C 37 3.1 37.3 3.3 37.5 3.5 C 37.7 3.8 37.8 4 37.9 4.4 C 37.9 4.6 37.9 5 37.9 5.5 C 37.9 5.5 37.9 7.2 37.9 7.2 C 37.9 8.3 38 9 38 9.3 C 38.1 9.6 38.2 9.9 38.3 10.2 C 38.32 10.19 37 10.2 37 10.2 C 37 10.2 37.03 10.19 37 10.2 Z M 36.7 6.5 C 36.2 6.7 35.6 6.9 34.7 7 C 34.2 7.1 33.8 7.2 33.6 7.3 C 33.4 7.4 33.2 7.5 33.1 7.7 C 33 7.8 32.9 8 32.9 8.2 C 32.9 8.6 33.1 8.8 33.3 9.1 C 33.6 9.3 33.9 9.4 34.4 9.4 C 34.9 9.4 35.3 9.3 35.7 9.1 C 36 8.9 36.3 8.6 36.5 8.2 C 36.6 8 36.7 7.5 36.7 7 C 36.7 7 36.7 6.5 36.7 6.5 Z M 42 9.1 C 42.1 9.1 42.3 9.1 42.5 9.1 C 42.5 9.1 42.7 10.2 42.7 10.2 C 42.4 10.3 42 10.3 41.8 10.3 C 41.3 10.3 41 10.2 40.7 10.1 C 40.5 9.9 40.3 9.7 40.2 9.5 C 40.1 9.3 40.1 8.8 40.1 8.1 C 40.06 8.07 40.1 3.9 40.1 3.9 L 39.2 3.9 L 39.2 2.9 L 40.1 2.9 L 40.1 1.1 L 41.3 0.4 L 41.3 2.9 L 42.5 2.9 L 42.5 3.9 L 41.3 3.9 C 41.3 3.9 41.28 8.13 41.3 8.1 C 41.3 8.5 41.3 8.7 41.3 8.8 C 41.4 8.9 41.5 9 41.6 9.1 C 41.7 9.1 41.8 9.1 42 9.1 C 42 9.1 42 9.1 42 9.1 Z M 43.7 1.6 L 43.7 0.2 L 45 0.2 L 45 1.6 L 43.7 1.6 Z M 43.7 10.2 L 43.7 2.9 L 45 2.9 L 45 10.2 L 43.7 10.2 Z M 46.4 6.6 C 46.4 5.2 46.7 4.2 47.5 3.6 C 48.1 3 48.9 2.8 49.8 2.8 C 50.8 2.8 51.6 3.1 52.2 3.7 C 52.9 4.4 53.2 5.3 53.2 6.5 C 53.2 7.4 53 8.1 52.8 8.7 C 52.5 9.2 52.1 9.6 51.5 9.9 C 51 10.2 50.4 10.4 49.8 10.4 C 48.8 10.4 47.9 10 47.3 9.4 C 46.7 8.7 46.4 7.8 46.4 6.6 Z M 47.6 6.6 C 47.6 7.5 47.8 8.2 48.2 8.7 C 48.7 9.1 49.2 9.3 49.8 9.3 C 50.4 9.3 50.9 9.1 51.3 8.6 C 51.7 8.2 51.9 7.5 51.9 6.5 C 51.9 5.6 51.7 4.9 51.3 4.5 C 50.9 4 50.4 3.8 49.8 3.8 C 49.2 3.8 48.7 4 48.2 4.5 C 47.8 4.9 47.6 5.6 47.6 6.6 Z M 54.6 10.2 L 54.6 2.9 L 55.7 2.9 C 55.7 2.9 55.73 3.96 55.7 4 C 56.3 3.2 57 2.8 58 2.8 C 58.5 2.8 58.9 2.8 59.2 3 C 59.6 3.2 59.9 3.4 60.1 3.6 C 60.2 3.9 60.4 4.2 60.5 4.5 C 60.5 4.8 60.5 5.2 60.5 5.7 C 60.52 5.73 60.5 10.2 60.5 10.2 L 59.3 10.2 C 59.3 10.2 59.29 5.78 59.3 5.8 C 59.3 5.3 59.2 4.9 59.1 4.7 C 59 4.4 58.9 4.2 58.6 4.1 C 58.4 3.9 58.1 3.8 57.8 3.8 C 57.3 3.8 56.8 4 56.4 4.3 C 56 4.7 55.8 5.3 55.8 6.2 C 55.85 6.23 55.8 10.2 55.8 10.2 L 54.6 10.2 Z M 61.9 8 C 61.9 8 63.1 7.8 63.1 7.8 C 63.2 8.3 63.4 8.7 63.7 9 C 64 9.2 64.4 9.3 65 9.3 C 65.6 9.3 66 9.2 66.3 9 C 66.5 8.8 66.7 8.5 66.7 8.2 C 66.7 7.9 66.6 7.7 66.3 7.5 C 66.1 7.4 65.7 7.3 65.1 7.1 C 64.2 6.9 63.5 6.7 63.2 6.5 C 62.8 6.4 62.6 6.1 62.4 5.8 C 62.2 5.5 62.1 5.2 62.1 4.9 C 62.1 4.5 62.2 4.2 62.3 4 C 62.5 3.7 62.7 3.5 62.9 3.3 C 63.1 3.1 63.4 3 63.7 2.9 C 64.1 2.8 64.4 2.8 64.8 2.8 C 65.4 2.8 65.9 2.9 66.3 3 C 66.7 3.2 67 3.4 67.2 3.7 C 67.5 4 67.6 4.3 67.7 4.8 C 67.7 4.8 66.5 5 66.5 5 C 66.4 4.6 66.3 4.3 66 4.1 C 65.7 3.9 65.4 3.8 64.9 3.8 C 64.3 3.8 63.9 3.9 63.7 4.1 C 63.4 4.2 63.3 4.5 63.3 4.7 C 63.3 4.9 63.4 5 63.5 5.1 C 63.6 5.3 63.7 5.4 63.9 5.5 C 64.1 5.5 64.4 5.6 65 5.8 C 65.9 6 66.5 6.2 66.8 6.4 C 67.2 6.5 67.5 6.7 67.6 7 C 67.8 7.3 67.9 7.6 67.9 8.1 C 67.9 8.5 67.8 8.9 67.6 9.2 C 67.3 9.6 67 9.9 66.5 10.1 C 66.1 10.3 65.6 10.4 65 10.4 C 64.1 10.4 63.4 10.2 62.9 9.8 C 62.4 9.4 62 8.8 61.9 8 Z M 72.4 10.4 L 75.3 0 L 76.3 0 L 73.4 10.4 L 72.4 10.4 Z M 80.8 7 C 80.8 7 82 6.9 82 6.9 C 82.1 7.4 82.2 7.8 82.4 8.1 C 82.7 8.4 83 8.7 83.5 8.9 C 83.9 9.1 84.4 9.2 85 9.2 C 85.5 9.2 85.9 9.1 86.3 8.9 C 86.7 8.8 87 8.6 87.2 8.3 C 87.4 8.1 87.5 7.8 87.5 7.5 C 87.5 7.2 87.4 6.9 87.2 6.6 C 87 6.4 86.7 6.2 86.3 6.1 C 86 6 85.4 5.8 84.5 5.6 C 83.6 5.3 83 5.1 82.6 4.9 C 82.1 4.7 81.7 4.4 81.5 4 C 81.3 3.6 81.2 3.2 81.2 2.8 C 81.2 2.3 81.3 1.8 81.6 1.3 C 81.9 0.9 82.3 0.6 82.9 0.3 C 83.4 0.1 84 0 84.7 0 C 85.4 0 86.1 0.1 86.7 0.4 C 87.2 0.6 87.7 1 88 1.4 C 88.3 1.9 88.4 2.4 88.5 3 C 88.5 3 87.2 3.1 87.2 3.1 C 87.1 2.5 86.9 2 86.5 1.7 C 86.1 1.3 85.5 1.2 84.7 1.2 C 83.9 1.2 83.4 1.3 83 1.6 C 82.6 1.9 82.4 2.3 82.4 2.7 C 82.4 3 82.6 3.3 82.8 3.6 C 83.1 3.8 83.8 4 84.8 4.3 C 85.9 4.5 86.6 4.7 87 4.9 C 87.6 5.2 88.1 5.5 88.3 5.9 C 88.6 6.3 88.8 6.8 88.8 7.4 C 88.8 7.9 88.6 8.4 88.3 8.9 C 88 9.3 87.6 9.7 87 10 C 86.4 10.2 85.8 10.4 85.1 10.4 C 84.1 10.4 83.4 10.2 82.8 10 C 82.2 9.7 81.7 9.3 81.3 8.8 C 81 8.2 80.8 7.6 80.8 7 Z M 95.2 10.2 C 95.2 10.2 95.17 9.13 95.2 9.1 C 94.6 9.9 93.8 10.4 92.9 10.4 C 92.4 10.4 92 10.3 91.7 10.1 C 91.3 9.9 91 9.7 90.8 9.5 C 90.7 9.2 90.5 8.9 90.5 8.6 C 90.4 8.3 90.4 8 90.4 7.4 C 90.38 7.43 90.4 2.9 90.4 2.9 L 91.6 2.9 C 91.6 2.9 91.62 6.96 91.6 7 C 91.6 7.6 91.6 8 91.7 8.3 C 91.8 8.6 91.9 8.8 92.2 9 C 92.4 9.2 92.7 9.3 93.1 9.3 C 93.5 9.3 93.8 9.2 94.2 9 C 94.5 8.8 94.7 8.6 94.8 8.2 C 95 7.9 95 7.4 95 6.8 C 95.04 6.82 95 2.9 95 2.9 L 96.3 2.9 L 96.3 10.2 L 95.2 10.2 Z M 98.2 13 L 98.2 2.9 L 99.3 2.9 C 99.3 2.9 99.32 3.88 99.3 3.9 C 99.6 3.5 99.9 3.2 100.2 3 C 100.5 2.9 101 2.8 101.4 2.8 C 102 2.8 102.6 2.9 103.1 3.2 C 103.5 3.6 103.9 4 104.1 4.6 C 104.4 5.2 104.5 5.8 104.5 6.5 C 104.5 7.3 104.4 7.9 104.1 8.5 C 103.8 9.1 103.4 9.6 102.9 9.9 C 102.4 10.2 101.9 10.4 101.3 10.4 C 100.9 10.4 100.6 10.3 100.2 10.1 C 99.9 9.9 99.6 9.7 99.4 9.4 C 99.43 9.44 99.4 13 99.4 13 L 98.2 13 Z M 99.3 6.6 C 99.3 7.5 99.5 8.2 99.9 8.7 C 100.3 9.1 100.7 9.3 101.3 9.3 C 101.8 9.3 102.3 9.1 102.7 8.7 C 103 8.2 103.2 7.5 103.2 6.5 C 103.2 5.6 103.1 4.9 102.7 4.4 C 102.3 4 101.8 3.7 101.3 3.7 C 100.8 3.7 100.3 4 99.9 4.5 C 99.5 5 99.3 5.7 99.3 6.6 Z M 106 13 L 106 2.9 L 107.1 2.9 C 107.1 2.9 107.11 3.88 107.1 3.9 C 107.4 3.5 107.7 3.2 108 3 C 108.3 2.9 108.7 2.8 109.2 2.8 C 109.8 2.8 110.4 2.9 110.9 3.2 C 111.3 3.6 111.7 4 111.9 4.6 C 112.2 5.2 112.3 5.8 112.3 6.5 C 112.3 7.3 112.2 7.9 111.9 8.5 C 111.6 9.1 111.2 9.6 110.7 9.9 C 110.2 10.2 109.7 10.4 109.1 10.4 C 108.7 10.4 108.3 10.3 108 10.1 C 107.7 9.9 107.4 9.7 107.2 9.4 C 107.21 9.44 107.2 13 107.2 13 L 106 13 Z M 107.1 6.6 C 107.1 7.5 107.3 8.2 107.7 8.7 C 108 9.1 108.5 9.3 109 9.3 C 109.6 9.3 110.1 9.1 110.4 8.7 C 110.8 8.2 111 7.5 111 6.5 C 111 5.6 110.8 4.9 110.5 4.4 C 110.1 4 109.6 3.7 109.1 3.7 C 108.6 3.7 108.1 4 107.7 4.5 C 107.3 5 107.1 5.7 107.1 6.6 Z M 113.3 6.6 C 113.3 5.2 113.7 4.2 114.4 3.6 C 115.1 3 115.8 2.8 116.7 2.8 C 117.7 2.8 118.5 3.1 119.2 3.7 C 119.8 4.4 120.1 5.3 120.1 6.5 C 120.1 7.4 120 8.1 119.7 8.7 C 119.4 9.2 119 9.6 118.5 9.9 C 117.9 10.2 117.4 10.4 116.7 10.4 C 115.7 10.4 114.9 10 114.3 9.4 C 113.6 8.7 113.3 7.8 113.3 6.6 Z M 114.6 6.6 C 114.6 7.5 114.8 8.2 115.2 8.7 C 115.6 9.1 116.1 9.3 116.7 9.3 C 117.3 9.3 117.8 9.1 118.2 8.6 C 118.6 8.2 118.8 7.5 118.8 6.5 C 118.8 5.6 118.6 4.9 118.2 4.5 C 117.8 4 117.3 3.8 116.7 3.8 C 116.1 3.8 115.6 4 115.2 4.5 C 114.8 4.9 114.6 5.6 114.6 6.6 Z M 121.5 10.2 L 121.5 2.9 L 122.7 2.9 C 122.7 2.9 122.65 4.03 122.7 4 C 122.9 3.5 123.2 3.2 123.4 3 C 123.7 2.9 123.9 2.8 124.2 2.8 C 124.6 2.8 125.1 2.9 125.5 3.2 C 125.5 3.2 125.1 4.3 125.1 4.3 C 124.8 4.1 124.5 4 124.2 4 C 123.9 4 123.7 4.1 123.4 4.3 C 123.2 4.4 123.1 4.7 123 5 C 122.8 5.4 122.8 5.9 122.8 6.4 C 122.77 6.39 122.8 10.2 122.8 10.2 L 121.5 10.2 Z M 128.4 9.1 C 128.5 9.1 128.7 9.1 128.9 9.1 C 128.9 9.1 129.1 10.2 129.1 10.2 C 128.7 10.3 128.4 10.3 128.2 10.3 C 127.7 10.3 127.4 10.2 127.1 10.1 C 126.9 9.9 126.7 9.7 126.6 9.5 C 126.5 9.3 126.4 8.8 126.4 8.1 C 126.44 8.07 126.4 3.9 126.4 3.9 L 125.5 3.9 L 125.5 2.9 L 126.4 2.9 L 126.4 1.1 L 127.7 0.4 L 127.7 2.9 L 128.9 2.9 L 128.9 3.9 L 127.7 3.9 C 127.7 3.9 127.67 8.13 127.7 8.1 C 127.7 8.5 127.7 8.7 127.7 8.8 C 127.8 8.9 127.8 9 127.9 9.1 C 128 9.1 128.2 9.1 128.4 9.1 C 128.4 9.1 128.4 9.1 128.4 9.1 Z M 136.5 10.2 L 136.5 1.4 L 133.2 1.4 L 133.2 0.2 L 141.1 0.2 L 141.1 1.4 L 137.8 1.4 L 137.8 10.2 L 136.5 10.2 Z M 145.7 7.9 C 145.7 7.9 147 8 147 8 C 146.8 8.8 146.4 9.3 145.9 9.7 C 145.3 10.2 144.6 10.4 143.8 10.4 C 142.7 10.4 141.9 10 141.3 9.4 C 140.6 8.7 140.3 7.8 140.3 6.6 C 140.3 5.4 140.6 4.5 141.3 3.8 C 141.9 3.1 142.7 2.8 143.7 2.8 C 144.7 2.8 145.5 3.1 146.1 3.8 C 146.7 4.4 147 5.4 147 6.5 C 147 6.6 147 6.7 147 6.9 C 147 6.9 141.6 6.9 141.6 6.9 C 141.7 7.7 141.9 8.3 142.3 8.7 C 142.7 9.1 143.2 9.3 143.8 9.3 C 144.3 9.3 144.6 9.2 145 9 C 145.3 8.8 145.5 8.4 145.7 7.9 Z M 141.7 5.9 C 141.7 5.9 145.7 5.9 145.7 5.9 C 145.7 5.3 145.5 4.8 145.3 4.5 C 144.9 4 144.4 3.8 143.7 3.8 C 143.2 3.8 142.7 4 142.3 4.3 C 141.9 4.7 141.7 5.2 141.7 5.9 Z M 153.5 10.2 C 153.4 9.9 153.3 9.6 153.3 9.3 C 152.8 9.7 152.4 10 152 10.1 C 151.5 10.3 151.1 10.4 150.6 10.4 C 149.8 10.4 149.2 10.2 148.8 9.8 C 148.3 9.4 148.1 8.9 148.1 8.3 C 148.1 7.9 148.2 7.6 148.4 7.3 C 148.5 7 148.7 6.8 149 6.6 C 149.3 6.4 149.5 6.3 149.9 6.2 C 150.1 6.1 150.5 6.1 151 6 C 152 5.9 152.7 5.7 153.2 5.6 C 153.2 5.4 153.2 5.3 153.2 5.3 C 153.2 4.8 153.1 4.4 152.8 4.2 C 152.5 3.9 152 3.8 151.4 3.8 C 150.8 3.8 150.4 3.9 150.1 4.1 C 149.9 4.3 149.7 4.7 149.5 5.2 C 149.5 5.2 148.3 5 148.3 5 C 148.4 4.5 148.6 4.1 148.9 3.8 C 149.1 3.4 149.5 3.2 150 3 C 150.4 2.9 151 2.8 151.6 2.8 C 152.2 2.8 152.7 2.8 153.1 3 C 153.5 3.1 153.8 3.3 154 3.5 C 154.1 3.8 154.3 4 154.3 4.4 C 154.4 4.6 154.4 5 154.4 5.5 C 154.4 5.5 154.4 7.2 154.4 7.2 C 154.4 8.3 154.4 9 154.5 9.3 C 154.5 9.6 154.6 9.9 154.8 10.2 C 154.8 10.19 153.5 10.2 153.5 10.2 C 153.5 10.2 153.51 10.19 153.5 10.2 Z M 153.2 6.5 C 152.7 6.7 152 6.9 151.2 7 C 150.7 7.1 150.3 7.2 150.1 7.3 C 149.9 7.4 149.7 7.5 149.6 7.7 C 149.5 7.8 149.4 8 149.4 8.2 C 149.4 8.6 149.6 8.8 149.8 9.1 C 150 9.3 150.4 9.4 150.9 9.4 C 151.4 9.4 151.8 9.3 152.2 9.1 C 152.5 8.9 152.8 8.6 153 8.2 C 153.1 8 153.2 7.5 153.2 7 C 153.2 7 153.2 6.5 153.2 6.5 Z M 156.3 10.2 L 156.3 2.9 L 157.4 2.9 C 157.4 2.9 157.42 3.95 157.4 4 C 157.6 3.6 157.9 3.3 158.3 3.1 C 158.7 2.9 159.1 2.8 159.6 2.8 C 160.2 2.8 160.6 2.9 160.9 3.1 C 161.3 3.3 161.5 3.6 161.7 4 C 162.2 3.2 163 2.8 163.9 2.8 C 164.6 2.8 165.2 3 165.6 3.4 C 166 3.8 166.2 4.4 166.2 5.2 C 166.15 5.21 166.2 10.2 166.2 10.2 L 164.9 10.2 C 164.9 10.2 164.93 5.62 164.9 5.6 C 164.9 5.1 164.9 4.8 164.8 4.6 C 164.7 4.3 164.6 4.2 164.4 4 C 164.2 3.9 163.9 3.8 163.6 3.8 C 163.1 3.8 162.7 4 162.4 4.3 C 162 4.7 161.9 5.2 161.9 6 C 161.86 5.97 161.9 10.2 161.9 10.2 L 160.6 10.2 C 160.6 10.2 160.63 5.48 160.6 5.5 C 160.6 4.9 160.5 4.5 160.3 4.2 C 160.1 4 159.8 3.8 159.3 3.8 C 159 3.8 158.7 3.9 158.4 4.1 C 158.1 4.3 157.9 4.6 157.7 4.9 C 157.6 5.3 157.5 5.8 157.5 6.4 C 157.55 6.43 157.5 10.2 157.5 10.2 L 156.3 10.2 Z " stroke="none" fill="#ffffff"/>  </g></svg>