<?xml version="1.0" standalone="no"?><!DOCTYPE svg PUBLIC "-//W3C//DTD SVG 1.1//EN" "http://www.w3.org/Graphics/SVG/1.1/DTD/svg11.dtd"><svg xmlns="http://www.w3.org/2000/svg" version="1.1" width="112px" height="28.9px" viewBox="0 -5 112 28.9" style="top:-5px">  <desc>36 Standards</desc>  <defs/>  <g id="Polygon140309">    <path d="M 6.9 6.7 C 8.2 7.3 8.7 8.4 8.7 9.7 C 8.7 12.2 6.6 13.3 4.5 13.3 C 3.4 13.3 2.3 13 1.3 12.5 C 1.3 12.5 1.3 10 1.3 10 C 2.2 10.7 3.1 11.1 4 11.1 C 5.1 11.1 5.8 10.5 5.8 9.5 C 5.8 8.3 5 7.7 3.3 7.7 C 3.3 7.7 3.3 5.9 3.3 5.9 C 5 5.9 5.7 5.2 5.7 4.3 C 5.7 3.4 5 2.8 3.9 2.8 C 3.1 2.8 2.3 3.1 1.6 3.5 C 1.6 3.5 1.6 1.4 1.6 1.4 C 2.7 0.8 3.7 0.7 4.6 0.7 C 7 0.7 8.5 1.9 8.5 4 C 8.5 5.1 7.9 6.1 6.9 6.7 Z M 15.3 10.9 C 16.5 10.9 17 9.9 17 9.1 C 17 8 16.3 7.3 15.3 7.3 C 14.3 7.3 13.6 8 13.6 9 C 13.6 10.2 14.5 10.9 15.3 10.9 Z M 18.1 1.8 C 16.8 2.8 15.6 4 14.8 5.5 C 15.2 5.3 15.6 5.2 16 5.2 C 18.1 5.2 19.8 6.7 19.8 9.1 C 19.8 11.3 18 13.3 15.4 13.3 C 12.5 13.3 10.8 11.2 10.8 8.5 C 10.8 5.7 12.5 3.1 15.7 0.7 C 15.7 0.7 18.1 1.8 18.1 1.8 Z M 34.3 1.7 C 34.3 1.7 34.3 4.3 34.3 4.3 C 33.2 3.4 32 2.9 30.9 2.9 C 30 2.9 29.5 3.4 29.5 4 C 29.5 4.6 29.8 4.9 31.3 5.7 C 33.4 6.8 34.8 7.6 34.8 9.7 C 34.8 11.9 33.1 13.3 30.6 13.3 C 29.2 13.3 27.8 12.9 26.6 12.3 C 26.6 12.3 26.6 9.5 26.6 9.5 C 27.9 10.5 29.1 11 30.2 11 C 31.3 11 31.8 10.4 31.8 9.8 C 31.8 9.2 31.5 8.8 29.5 7.9 C 28.2 7.2 26.5 6.2 26.5 4.1 C 26.5 2.2 27.9 0.7 30.6 0.7 C 32 0.7 33.4 1.1 34.3 1.7 Z M 39.6 2 L 39.9 2 L 39.9 4.6 L 42.8 4.6 L 42.8 6.5 L 39.9 6.5 C 39.9 6.5 39.91 9.61 39.9 9.6 C 39.9 10.5 40.1 11.1 41.1 11.1 C 41.8 11.1 42.5 10.8 43.1 10.5 C 43.1 10.5 43.1 12.6 43.1 12.6 C 42.3 13 41.2 13.3 40.3 13.3 C 38.1 13.3 37.2 12.1 37.2 10 C 37.21 10.04 37.2 6.5 37.2 6.5 L 35.8 6.5 L 35.8 5.9 L 39.6 2 Z M 51.9 7 C 51.9 7 51.9 10.6 51.9 10.6 C 51.9 11 52 11.3 52.3 11.3 C 52.5 11.3 52.8 11.2 53.1 11 C 53.1 11 53.1 12.7 53.1 12.7 C 52.2 13.1 51.5 13.3 50.7 13.3 C 50 13.3 49.5 13 49.3 12.4 C 48.6 13 47.7 13.3 46.8 13.3 C 45.2 13.3 44.3 12.4 44.3 11.1 C 44.3 9.3 45.9 8.7 49.2 7.6 C 49.2 7.6 49.2 7.4 49.2 7.4 C 49.2 6.4 48.7 6.1 47.8 6.1 C 46.6 6.1 45.5 6.7 44.5 7.7 C 44.5 7.7 44.5 5.4 44.5 5.4 C 45.6 4.6 46.9 4.2 48.3 4.2 C 50.7 4.2 51.9 5.3 51.9 7 Z M 47.9 11.7 C 48.3 11.7 48.7 11.5 49.2 11.1 C 49.2 11.1 49.2 8.9 49.2 8.9 C 47.8 9.5 46.9 9.8 46.9 10.7 C 46.9 11.3 47.3 11.7 47.9 11.7 Z M 63.2 7.8 C 63.2 7.79 63.2 13.1 63.2 13.1 L 60.5 13.1 C 60.5 13.1 60.5 8.19 60.5 8.2 C 60.5 6.9 60 6.4 59.1 6.4 C 58.4 6.4 57.8 6.7 57.2 7.7 C 57.17 7.69 57.2 13.1 57.2 13.1 L 54.5 13.1 L 54.5 4.4 L 57.2 4.4 C 57.2 4.4 57.17 5.6 57.2 5.6 C 58 4.6 59 4.2 60.1 4.2 C 62.3 4.2 63.2 5.7 63.2 7.8 Z M 70.2 11 C 70.18 11.03 71.2 11 71.2 11 C 71.2 11 71.19 6.77 71.2 6.8 C 70.7 6.4 70.2 6.3 69.6 6.3 C 68.4 6.3 67.6 7.2 67.6 8.6 C 67.6 10.3 68.3 11 70.2 11 Z M 73.9 0.8 L 73.9 13.1 C 73.9 13.1 69.91 13.12 69.9 13.1 C 66 13.1 64.8 11.3 64.8 8.6 C 64.8 6.3 66.3 4.2 69 4.2 C 69.9 4.2 70.5 4.4 71.2 4.8 C 71.19 4.81 71.2 0.8 71.2 0.8 L 73.9 0.8 Z M 83.1 7 C 83.1 7 83.1 10.6 83.1 10.6 C 83.1 11 83.2 11.3 83.5 11.3 C 83.8 11.3 84 11.2 84.3 11 C 84.3 11 84.3 12.7 84.3 12.7 C 83.4 13.1 82.7 13.3 82 13.3 C 81.2 13.3 80.7 13 80.6 12.4 C 79.8 13 78.9 13.3 78 13.3 C 76.4 13.3 75.5 12.4 75.5 11.1 C 75.5 9.3 77.1 8.7 80.4 7.6 C 80.4 7.6 80.4 7.4 80.4 7.4 C 80.4 6.4 79.9 6.1 79 6.1 C 77.9 6.1 76.7 6.7 75.8 7.7 C 75.8 7.7 75.8 5.4 75.8 5.4 C 76.8 4.6 78.1 4.2 79.5 4.2 C 81.9 4.2 83.1 5.3 83.1 7 Z M 79.1 11.7 C 79.5 11.7 80 11.5 80.4 11.1 C 80.4 11.1 80.4 8.9 80.4 8.9 C 79.1 9.5 78.2 9.8 78.2 10.7 C 78.2 11.3 78.6 11.7 79.1 11.7 Z M 93 5 C 93 5 91.9 7.6 91.9 7.6 C 91.4 7.1 90.9 6.9 90.4 6.9 C 89.5 6.9 88.8 7.6 88.4 9.1 C 88.36 9.11 88.4 13.1 88.4 13.1 L 85.7 13.1 L 85.7 4.4 L 88.4 4.4 C 88.4 4.4 88.36 6.46 88.4 6.5 C 89 5.1 90 4.2 91.1 4.2 C 91.7 4.2 92.2 4.4 93 5 Z M 98.6 11 C 98.62 11.03 99.6 11 99.6 11 C 99.6 11 99.63 6.77 99.6 6.8 C 99.1 6.4 98.6 6.3 98 6.3 C 96.9 6.3 96 7.2 96 8.6 C 96 10.3 96.7 11 98.6 11 Z M 102.3 0.8 L 102.3 13.1 C 102.3 13.1 98.35 13.12 98.4 13.1 C 94.5 13.1 93.2 11.3 93.2 8.6 C 93.2 6.3 94.7 4.2 97.4 4.2 C 98.3 4.2 99 4.4 99.6 4.8 C 99.63 4.81 99.6 0.8 99.6 0.8 L 102.3 0.8 Z M 107.5 4.2 C 108.5 4.2 109.5 4.5 110.4 4.9 C 110.4 4.9 110.4 7 110.4 7 C 109.3 6.3 108.6 6.1 107.9 6.1 C 107.2 6.1 106.9 6.4 106.9 6.7 C 106.9 7 107 7.2 108.5 7.9 C 110 8.6 110.8 9.4 110.8 10.6 C 110.8 12.1 109.7 13.3 107.5 13.3 C 106.5 13.3 105.6 13.1 104.3 12.6 C 104.3 12.6 104.3 10.5 104.3 10.5 C 105.2 11.1 106.1 11.4 106.9 11.4 C 107.7 11.4 108.1 11.2 108.1 10.8 C 108.1 10.3 107.8 10.1 106.4 9.4 C 104.8 8.7 104.2 7.8 104.2 6.7 C 104.2 5.4 105.4 4.2 107.5 4.2 Z " stroke="none" fill="#000"/>  </g></svg>