<?xml version="1.0" standalone="no"?><!DOCTYPE svg PUBLIC "-//W3C//DTD SVG 1.1//EN" "http://www.w3.org/Graphics/SVG/1.1/DTD/svg11.dtd"><svg xmlns="http://www.w3.org/2000/svg" version="1.1" width="57px" height="23.9px" viewBox="0 -5 57 23.9" style="top:-5px">  <desc>Excellent</desc>  <defs/>  <g id="Polygon145860">    <path d="M 1.1 10.2 L 1.1 0.2 L 8.4 0.2 L 8.4 1.4 L 2.4 1.4 L 2.4 4.4 L 8 4.4 L 8 5.6 L 2.4 5.6 L 2.4 9 L 8.6 9 L 8.6 10.2 L 1.1 10.2 Z M 9.4 10.2 L 12.1 6.4 L 9.6 2.9 L 11.2 2.9 C 11.2 2.9 12.29 4.63 12.3 4.6 C 12.5 5 12.7 5.2 12.8 5.4 C 13 5.1 13.2 4.9 13.4 4.6 C 13.35 4.65 14.6 2.9 14.6 2.9 L 16 2.9 L 13.5 6.4 L 16.2 10.2 L 14.7 10.2 L 13.2 7.9 L 12.8 7.3 L 10.9 10.2 L 9.4 10.2 Z M 22 7.5 C 22 7.5 23.2 7.7 23.2 7.7 C 23.1 8.5 22.7 9.2 22.2 9.6 C 21.6 10.1 21 10.4 20.2 10.4 C 19.2 10.4 18.4 10 17.8 9.4 C 17.2 8.7 16.9 7.8 16.9 6.6 C 16.9 5.8 17 5.1 17.3 4.5 C 17.5 3.9 17.9 3.5 18.5 3.2 C 19 2.9 19.6 2.8 20.2 2.8 C 21 2.8 21.6 3 22.1 3.4 C 22.6 3.8 23 4.3 23.1 5.1 C 23.1 5.1 21.9 5.3 21.9 5.3 C 21.8 4.8 21.6 4.4 21.3 4.1 C 21 3.9 20.7 3.8 20.2 3.8 C 19.6 3.8 19.1 4 18.7 4.4 C 18.3 4.9 18.1 5.6 18.1 6.6 C 18.1 7.5 18.3 8.2 18.7 8.7 C 19.1 9.1 19.6 9.3 20.2 9.3 C 20.7 9.3 21.1 9.2 21.4 8.9 C 21.7 8.6 21.9 8.1 22 7.5 Z M 29.2 7.9 C 29.2 7.9 30.5 8 30.5 8 C 30.3 8.8 29.9 9.3 29.4 9.7 C 28.8 10.2 28.2 10.4 27.3 10.4 C 26.2 10.4 25.4 10 24.8 9.4 C 24.2 8.7 23.9 7.8 23.9 6.6 C 23.9 5.4 24.2 4.5 24.8 3.8 C 25.4 3.1 26.2 2.8 27.2 2.8 C 28.2 2.8 29 3.1 29.6 3.8 C 30.2 4.4 30.5 5.4 30.5 6.5 C 30.5 6.6 30.5 6.7 30.5 6.9 C 30.5 6.9 25.1 6.9 25.1 6.9 C 25.2 7.7 25.4 8.3 25.8 8.7 C 26.2 9.1 26.7 9.3 27.3 9.3 C 27.8 9.3 28.2 9.2 28.5 9 C 28.8 8.8 29 8.4 29.2 7.9 Z M 25.2 5.9 C 25.2 5.9 29.2 5.9 29.2 5.9 C 29.2 5.3 29 4.8 28.8 4.5 C 28.4 4 27.9 3.8 27.3 3.8 C 26.7 3.8 26.2 4 25.8 4.3 C 25.4 4.7 25.2 5.2 25.2 5.9 Z M 32 10.2 L 32 0.2 L 33.3 0.2 L 33.3 10.2 L 32 10.2 Z M 35.1 10.2 L 35.1 0.2 L 36.4 0.2 L 36.4 10.2 L 35.1 10.2 Z M 43.2 7.9 C 43.2 7.9 44.5 8 44.5 8 C 44.3 8.8 43.9 9.3 43.4 9.7 C 42.9 10.2 42.2 10.4 41.3 10.4 C 40.3 10.4 39.4 10 38.8 9.4 C 38.2 8.7 37.9 7.8 37.9 6.6 C 37.9 5.4 38.2 4.5 38.8 3.8 C 39.4 3.1 40.2 2.8 41.2 2.8 C 42.2 2.8 43 3.1 43.6 3.8 C 44.2 4.4 44.5 5.4 44.5 6.5 C 44.5 6.6 44.5 6.7 44.5 6.9 C 44.5 6.9 39.1 6.9 39.1 6.9 C 39.2 7.7 39.4 8.3 39.8 8.7 C 40.2 9.1 40.7 9.3 41.3 9.3 C 41.8 9.3 42.2 9.2 42.5 9 C 42.8 8.8 43.1 8.4 43.2 7.9 Z M 39.2 5.9 C 39.2 5.9 43.3 5.9 43.3 5.9 C 43.2 5.3 43 4.8 42.8 4.5 C 42.4 4 41.9 3.8 41.3 3.8 C 40.7 3.8 40.2 4 39.8 4.3 C 39.5 4.7 39.2 5.2 39.2 5.9 Z M 46.1 10.2 L 46.1 2.9 L 47.2 2.9 C 47.2 2.9 47.16 3.96 47.2 4 C 47.7 3.2 48.5 2.8 49.5 2.8 C 49.9 2.8 50.3 2.8 50.7 3 C 51 3.2 51.3 3.4 51.5 3.6 C 51.7 3.9 51.8 4.2 51.9 4.5 C 51.9 4.8 52 5.2 52 5.7 C 51.95 5.73 52 10.2 52 10.2 L 50.7 10.2 C 50.7 10.2 50.72 5.78 50.7 5.8 C 50.7 5.3 50.7 4.9 50.6 4.7 C 50.5 4.4 50.3 4.2 50.1 4.1 C 49.8 3.9 49.5 3.8 49.2 3.8 C 48.7 3.8 48.2 4 47.9 4.3 C 47.5 4.7 47.3 5.3 47.3 6.2 C 47.28 6.23 47.3 10.2 47.3 10.2 L 46.1 10.2 Z M 56 9.1 C 56.1 9.1 56.3 9.1 56.5 9.1 C 56.5 9.1 56.7 10.2 56.7 10.2 C 56.4 10.3 56 10.3 55.8 10.3 C 55.3 10.3 55 10.2 54.7 10.1 C 54.5 9.9 54.3 9.7 54.2 9.5 C 54.1 9.3 54.1 8.8 54.1 8.1 C 54.07 8.07 54.1 3.9 54.1 3.9 L 53.2 3.9 L 53.2 2.9 L 54.1 2.9 L 54.1 1.1 L 55.3 0.4 L 55.3 2.9 L 56.5 2.9 L 56.5 3.9 L 55.3 3.9 C 55.3 3.9 55.29 8.13 55.3 8.1 C 55.3 8.5 55.3 8.7 55.4 8.8 C 55.4 8.9 55.5 9 55.6 9.1 C 55.7 9.1 55.8 9.1 56 9.1 C 56 9.1 56 9.1 56 9.1 Z " stroke="none" fill="#ffffff"/>  </g></svg>