<?xml version="1.0" standalone="no"?><!DOCTYPE svg PUBLIC "-//W3C//DTD SVG 1.1//EN" "http://www.w3.org/Graphics/SVG/1.1/DTD/svg11.dtd"><svg xmlns="http://www.w3.org/2000/svg" version="1.1" width="112px" height="23.9px" viewBox="0 -5 112 23.9" style="top:-5px">  <desc>13,500+ Certified</desc>  <defs/>  <g id="Polygon107622">    <path d="M 5.5 10.2 L 3.6 10.2 C 3.6 10.2 3.59 2.95 3.6 3 C 2.9 3.6 2.1 4.1 1.1 4.4 C 1.1 4.4 1.1 2.7 1.1 2.7 C 1.6 2.5 2.2 2.2 2.7 1.7 C 3.3 1.3 3.7 0.7 4 0.1 C 3.95 0.13 5.5 0.1 5.5 0.1 L 5.5 10.2 Z M 8.3 7.5 C 8.3 7.5 10.2 7.3 10.2 7.3 C 10.2 7.8 10.4 8.1 10.7 8.4 C 10.9 8.6 11.2 8.8 11.6 8.8 C 12 8.8 12.3 8.6 12.6 8.3 C 12.9 8 13 7.6 13 7.1 C 13 6.6 12.9 6.2 12.6 6 C 12.4 5.7 12 5.5 11.7 5.5 C 11.4 5.5 11.1 5.6 10.8 5.7 C 10.8 5.7 11 4.1 11 4.1 C 11.5 4.1 11.9 4 12.2 3.8 C 12.5 3.5 12.6 3.2 12.6 2.8 C 12.6 2.5 12.5 2.2 12.3 2 C 12.1 1.8 11.8 1.7 11.5 1.7 C 11.2 1.7 10.9 1.8 10.7 2.1 C 10.4 2.3 10.3 2.6 10.2 3 C 10.2 3 8.5 2.7 8.5 2.7 C 8.6 2.1 8.8 1.7 9 1.3 C 9.3 0.9 9.6 0.6 10.1 0.4 C 10.5 0.2 11 0.1 11.5 0.1 C 12.5 0.1 13.2 0.4 13.8 1 C 14.3 1.5 14.5 2.1 14.5 2.7 C 14.5 3.6 14 4.3 13.1 4.8 C 13.7 4.9 14.1 5.2 14.5 5.6 C 14.8 6.1 15 6.6 15 7.2 C 15 8.1 14.6 8.8 14 9.4 C 13.4 10.1 12.6 10.4 11.6 10.4 C 10.7 10.4 9.9 10.1 9.4 9.6 C 8.8 9.1 8.4 8.4 8.3 7.5 Z M 16.5 8.3 L 18.5 8.3 C 18.5 8.3 18.45 9.65 18.5 9.6 C 18.5 10.2 18.4 10.6 18.3 11 C 18.2 11.3 18 11.6 17.8 11.8 C 17.5 12.1 17.2 12.3 16.7 12.4 C 16.7 12.4 16.4 11.6 16.4 11.6 C 16.8 11.5 17 11.3 17.2 11.1 C 17.4 10.9 17.4 10.6 17.5 10.2 C 17.46 10.19 16.5 10.2 16.5 10.2 L 16.5 8.3 Z M 20.1 7.6 C 20.1 7.6 22 7.4 22 7.4 C 22.1 7.9 22.2 8.2 22.5 8.4 C 22.8 8.7 23.1 8.8 23.4 8.8 C 23.8 8.8 24.2 8.7 24.4 8.3 C 24.7 8 24.8 7.5 24.8 6.9 C 24.8 6.2 24.7 5.8 24.4 5.5 C 24.2 5.2 23.8 5 23.4 5 C 22.8 5 22.3 5.3 21.9 5.7 C 21.88 5.75 20.3 5.5 20.3 5.5 L 21.3 0.3 L 26.4 0.3 L 26.4 2.1 L 22.8 2.1 C 22.8 2.1 22.46 3.81 22.5 3.8 C 22.9 3.6 23.3 3.5 23.8 3.5 C 24.6 3.5 25.3 3.8 25.9 4.4 C 26.5 5 26.8 5.8 26.8 6.8 C 26.8 7.7 26.6 8.4 26.1 9 C 25.5 9.9 24.6 10.4 23.4 10.4 C 22.5 10.4 21.7 10.1 21.1 9.6 C 20.5 9.1 20.2 8.5 20.1 7.6 Z M 28.8 1.2 C 29.4 0.5 30.1 0.1 31.1 0.1 C 32.1 0.1 32.8 0.5 33.4 1.2 C 34 2 34.3 3.3 34.3 5.3 C 34.3 7.1 34 8.5 33.4 9.3 C 32.8 10 32.1 10.4 31.1 10.4 C 30.1 10.4 29.3 10 28.7 9.2 C 28.1 8.5 27.8 7.2 27.8 5.2 C 27.8 3.3 28.2 2 28.8 1.2 C 28.8 1.2 28.8 1.2 28.8 1.2 Z M 31.1 1.7 C 30.9 1.7 30.6 1.8 30.5 1.9 C 30.3 2.1 30.1 2.4 30 2.7 C 29.9 3.2 29.8 4.1 29.8 5.3 C 29.8 6.4 29.9 7.2 30 7.7 C 30.1 8.1 30.3 8.4 30.5 8.6 C 30.7 8.7 30.9 8.8 31.1 8.8 C 31.3 8.8 31.5 8.7 31.7 8.5 C 31.9 8.4 32 8.1 32.1 7.8 C 32.3 7.3 32.3 6.4 32.3 5.3 C 32.3 4.1 32.3 3.3 32.2 2.8 C 32 2.4 31.9 2.1 31.7 1.9 C 31.5 1.8 31.3 1.7 31.1 1.7 Z M 36.6 1.2 C 37.1 0.5 37.9 0.1 38.9 0.1 C 39.8 0.1 40.6 0.5 41.2 1.2 C 41.8 2 42.1 3.3 42.1 5.3 C 42.1 7.1 41.8 8.5 41.1 9.3 C 40.6 10 39.8 10.4 38.9 10.4 C 37.9 10.4 37.1 10 36.5 9.2 C 35.9 8.5 35.6 7.2 35.6 5.2 C 35.6 3.3 36 2 36.6 1.2 C 36.6 1.2 36.6 1.2 36.6 1.2 Z M 38.9 1.7 C 38.6 1.7 38.4 1.8 38.3 1.9 C 38.1 2.1 37.9 2.4 37.8 2.7 C 37.7 3.2 37.6 4.1 37.6 5.3 C 37.6 6.4 37.7 7.2 37.8 7.7 C 37.9 8.1 38.1 8.4 38.3 8.6 C 38.4 8.7 38.6 8.8 38.9 8.8 C 39.1 8.8 39.3 8.7 39.5 8.5 C 39.7 8.4 39.8 8.1 39.9 7.8 C 40.1 7.3 40.1 6.4 40.1 5.3 C 40.1 4.1 40.1 3.3 39.9 2.8 C 39.8 2.4 39.7 2.1 39.5 1.9 C 39.3 1.8 39.1 1.7 38.9 1.7 Z M 46 8.8 L 46 6.1 L 43.4 6.1 L 43.4 4.3 L 46 4.3 L 46 1.7 L 47.8 1.7 L 47.8 4.3 L 50.4 4.3 L 50.4 6.1 L 47.8 6.1 L 47.8 8.8 L 46 8.8 Z M 62.3 6.5 C 62.3 6.5 64.3 7.1 64.3 7.1 C 64 8.2 63.5 9 62.8 9.6 C 62.1 10.1 61.2 10.4 60.1 10.4 C 58.8 10.4 57.7 9.9 56.8 9 C 56 8.1 55.5 6.8 55.5 5.3 C 55.5 3.6 56 2.3 56.8 1.4 C 57.7 0.5 58.8 0 60.2 0 C 61.5 0 62.5 0.4 63.2 1.1 C 63.7 1.5 64 2.1 64.3 2.9 C 64.3 2.9 62.2 3.4 62.2 3.4 C 62.1 2.9 61.9 2.5 61.5 2.2 C 61.1 1.9 60.7 1.7 60.1 1.7 C 59.4 1.7 58.8 2 58.3 2.5 C 57.9 3.1 57.6 3.9 57.6 5.1 C 57.6 6.4 57.9 7.3 58.3 7.8 C 58.8 8.4 59.4 8.6 60.1 8.6 C 60.6 8.6 61.1 8.5 61.5 8.1 C 61.9 7.8 62.1 7.2 62.3 6.5 Z M 70.2 7.9 C 70.2 7.9 72.1 8.2 72.1 8.2 C 71.9 8.9 71.5 9.4 71 9.8 C 70.4 10.2 69.8 10.4 69 10.4 C 67.7 10.4 66.8 9.9 66.2 9.1 C 65.7 8.5 65.4 7.6 65.4 6.6 C 65.4 5.4 65.8 4.5 66.4 3.8 C 67 3.1 67.8 2.8 68.8 2.8 C 69.8 2.8 70.7 3.1 71.3 3.8 C 72 4.6 72.2 5.6 72.2 7.1 C 72.2 7.1 67.4 7.1 67.4 7.1 C 67.4 7.7 67.6 8.1 67.9 8.4 C 68.2 8.8 68.5 8.9 69 8.9 C 69.3 8.9 69.5 8.8 69.7 8.7 C 69.9 8.5 70.1 8.2 70.2 7.9 Z M 70.3 5.9 C 70.3 5.4 70.2 5 69.9 4.7 C 69.6 4.4 69.3 4.2 68.9 4.2 C 68.5 4.2 68.1 4.4 67.8 4.7 C 67.6 5 67.4 5.4 67.4 5.9 C 67.4 5.9 70.3 5.9 70.3 5.9 Z M 75.6 10.2 L 73.7 10.2 L 73.7 2.9 L 75.5 2.9 C 75.5 2.9 75.49 3.96 75.5 4 C 75.8 3.5 76.1 3.2 76.3 3 C 76.6 2.8 76.8 2.8 77.1 2.8 C 77.6 2.8 78 2.9 78.4 3.1 C 78.4 3.1 77.8 4.8 77.8 4.8 C 77.5 4.6 77.2 4.5 76.9 4.5 C 76.6 4.5 76.4 4.6 76.2 4.7 C 76 4.9 75.9 5.1 75.8 5.5 C 75.7 5.9 75.6 6.7 75.6 8 C 75.63 7.95 75.6 10.2 75.6 10.2 Z M 82.6 2.9 L 82.6 4.5 L 81.3 4.5 C 81.3 4.5 81.25 7.39 81.3 7.4 C 81.3 8 81.3 8.3 81.3 8.4 C 81.3 8.5 81.4 8.6 81.5 8.7 C 81.5 8.7 81.7 8.8 81.8 8.8 C 82 8.8 82.2 8.7 82.6 8.6 C 82.6 8.6 82.7 10.1 82.7 10.1 C 82.3 10.3 81.8 10.4 81.2 10.4 C 80.9 10.4 80.5 10.3 80.3 10.2 C 80 10.1 79.8 9.9 79.7 9.7 C 79.5 9.5 79.4 9.3 79.4 9 C 79.3 8.8 79.3 8.3 79.3 7.6 C 79.32 7.63 79.3 4.5 79.3 4.5 L 78.4 4.5 L 78.4 2.9 L 79.3 2.9 L 79.3 1.5 L 81.3 0.4 L 81.3 2.9 L 82.6 2.9 Z M 83.9 1.9 L 83.9 0.2 L 85.8 0.2 L 85.8 1.9 L 83.9 1.9 Z M 83.9 10.2 L 83.9 2.9 L 85.8 2.9 L 85.8 10.2 L 83.9 10.2 Z M 87 2.9 L 88.1 2.9 C 88.1 2.9 88.06 2.39 88.1 2.4 C 88.1 1.8 88.1 1.3 88.3 1 C 88.4 0.7 88.6 0.5 89 0.3 C 89.3 0.1 89.8 0 90.3 0 C 90.8 0 91.4 0.1 91.9 0.2 C 91.9 0.2 91.6 1.6 91.6 1.6 C 91.3 1.5 91 1.5 90.8 1.5 C 90.5 1.5 90.3 1.5 90.2 1.7 C 90 1.8 90 2.1 90 2.4 C 89.98 2.42 90 2.9 90 2.9 L 91.4 2.9 L 91.4 4.4 L 90 4.4 L 90 10.2 L 88.1 10.2 L 88.1 4.4 L 87 4.4 L 87 2.9 Z M 92.4 1.9 L 92.4 0.2 L 94.3 0.2 L 94.3 1.9 L 92.4 1.9 Z M 92.4 10.2 L 92.4 2.9 L 94.3 2.9 L 94.3 10.2 L 92.4 10.2 Z M 100.5 7.9 C 100.5 7.9 102.5 8.2 102.5 8.2 C 102.2 8.9 101.8 9.4 101.3 9.8 C 100.8 10.2 100.1 10.4 99.3 10.4 C 98 10.4 97.1 9.9 96.5 9.1 C 96 8.5 95.8 7.6 95.8 6.6 C 95.8 5.4 96.1 4.5 96.7 3.8 C 97.4 3.1 98.1 2.8 99.1 2.8 C 100.2 2.8 101 3.1 101.7 3.8 C 102.3 4.6 102.6 5.6 102.6 7.1 C 102.6 7.1 97.7 7.1 97.7 7.1 C 97.8 7.7 97.9 8.1 98.2 8.4 C 98.5 8.8 98.9 8.9 99.3 8.9 C 99.6 8.9 99.9 8.8 100.1 8.7 C 100.3 8.5 100.4 8.2 100.5 7.9 Z M 100.7 5.9 C 100.6 5.4 100.5 5 100.2 4.7 C 99.9 4.4 99.6 4.2 99.2 4.2 C 98.8 4.2 98.5 4.4 98.2 4.7 C 97.9 5 97.8 5.4 97.8 5.9 C 97.8 5.9 100.7 5.9 100.7 5.9 Z M 110.8 10.2 L 109 10.2 C 109 10.2 109 9.13 109 9.1 C 108.7 9.5 108.4 9.8 107.9 10.1 C 107.5 10.3 107.1 10.4 106.7 10.4 C 105.9 10.4 105.2 10 104.6 9.3 C 104 8.7 103.7 7.7 103.7 6.5 C 103.7 5.3 104 4.4 104.6 3.7 C 105.1 3.1 105.9 2.8 106.8 2.8 C 107.6 2.8 108.3 3.1 108.9 3.8 C 108.86 3.78 108.9 0.2 108.9 0.2 L 110.8 0.2 L 110.8 10.2 Z M 105.7 6.4 C 105.7 7.2 105.8 7.7 106 8.1 C 106.3 8.6 106.7 8.8 107.3 8.8 C 107.7 8.8 108.1 8.7 108.4 8.3 C 108.7 7.9 108.9 7.3 108.9 6.6 C 108.9 5.8 108.7 5.2 108.4 4.8 C 108.1 4.4 107.7 4.2 107.3 4.2 C 106.8 4.2 106.4 4.4 106.1 4.8 C 105.8 5.1 105.7 5.7 105.7 6.4 Z " stroke="none" fill="#ffffff"/>  </g></svg>