<?xml version="1.0" standalone="no"?><!DOCTYPE svg PUBLIC "-//W3C//DTD SVG 1.1//EN" "http://www.w3.org/Graphics/SVG/1.1/DTD/svg11.dtd"><svg xmlns="http://www.w3.org/2000/svg" version="1.1" width="148px" height="28.9px" viewBox="0 -5 148 28.9" style="top:-5px">  <desc>16,000+ Certified</desc>  <defs/>  <g id="Polygon140256">    <path d="M 7.3 0.7 L 7.3 13.1 L 4.4 13.1 L 4.4 4.7 L 2.7 6.1 L 1.1 4.2 L 5.4 0.7 L 7.3 0.7 Z M 15.3 10.9 C 16.5 10.9 17 9.9 17 9.1 C 17 8 16.3 7.3 15.3 7.3 C 14.3 7.3 13.6 8 13.6 9 C 13.6 10.2 14.5 10.9 15.3 10.9 Z M 18.1 1.8 C 16.8 2.8 15.6 4 14.8 5.5 C 15.2 5.3 15.6 5.2 16 5.2 C 18.1 5.2 19.8 6.7 19.8 9.1 C 19.8 11.3 18 13.3 15.4 13.3 C 12.5 13.3 10.8 11.2 10.8 8.5 C 10.8 5.7 12.5 3.1 15.7 0.7 C 15.7 0.7 18.1 1.8 18.1 1.8 Z M 24.6 12.3 C 24.6 13.9 23.4 15.5 21.1 15.9 C 21.1 15.9 21.1 15.4 21.1 15.4 C 21.9 15 22.3 14.3 22.3 13.1 C 21.4 12.9 21 12.3 21 11.5 C 21 10.6 21.8 9.9 22.7 9.9 C 23.9 9.9 24.6 11.1 24.6 12.3 Z M 30.5 11 C 31.4 11 32 9.9 32 7 C 32 4.4 31.6 3 30.4 3 C 29.5 3 28.9 4.1 28.9 7 C 28.9 9.7 29.3 11 30.5 11 Z M 35 7 C 35 11.1 33 13.3 30.5 13.3 C 27.9 13.3 25.9 11.1 25.9 7 C 25.9 2.8 28 0.7 30.5 0.7 C 33 0.7 35 3 35 7 Z M 40.6 11 C 41.6 11 42.2 9.9 42.2 7 C 42.2 4.4 41.8 3 40.6 3 C 39.7 3 39.1 4.1 39.1 7 C 39.1 9.7 39.5 11 40.6 11 Z M 45.2 7 C 45.2 11.1 43.1 13.3 40.6 13.3 C 38.1 13.3 36.1 11.1 36.1 7 C 36.1 2.8 38.2 0.7 40.7 0.7 C 43.2 0.7 45.2 3 45.2 7 Z M 50.8 11 C 51.8 11 52.4 9.9 52.4 7 C 52.4 4.4 51.9 3 50.8 3 C 49.9 3 49.3 4.1 49.3 7 C 49.3 9.7 49.7 11 50.8 11 Z M 55.3 7 C 55.3 11.1 53.3 13.3 50.8 13.3 C 48.3 13.3 46.3 11.1 46.3 7 C 46.3 2.8 48.4 0.7 50.8 0.7 C 53.4 0.7 55.3 3 55.3 7 Z M 56.7 5.8 L 60 5.8 L 60 2.4 L 62.3 2.4 L 62.3 5.8 L 65.6 5.8 L 65.6 8.1 L 62.3 8.1 L 62.3 11.5 L 60 11.5 L 60 8.1 L 56.7 8.1 L 56.7 5.8 Z M 83.8 1.6 C 83.8 1.6 83.8 4.5 83.8 4.5 C 82.4 3.6 81.2 3.2 79.8 3.2 C 77 3.2 75.6 5 75.6 7 C 75.6 9.1 77.1 10.8 79.7 10.8 C 81.2 10.8 82.6 10.3 83.9 9.4 C 83.9 9.4 83.9 12.2 83.9 12.2 C 82.5 12.9 81 13.3 79.2 13.3 C 74.9 13.3 72.4 10.5 72.4 7 C 72.4 3.1 75.3 0.7 79.3 0.7 C 80.7 0.7 82.2 1 83.8 1.6 Z M 94.3 8.8 C 94.32 8.82 94.3 9.3 94.3 9.3 C 94.3 9.3 88.2 9.32 88.2 9.3 C 88.4 10.6 89.4 11.4 90.8 11.4 C 91.9 11.4 93 11.1 94.1 10.5 C 94.1 10.5 94.1 12.3 94.1 12.3 C 93 13 91.8 13.3 90.2 13.3 C 87.3 13.3 85.4 11.5 85.4 8.7 C 85.4 6 87.2 4.2 90.1 4.2 C 92.4 4.2 94.3 5.8 94.3 8.8 Z M 91.8 8 C 91.7 6.7 91.1 6 90 6 C 89 6 88.2 6.8 88.1 8 C 88.1 8 91.8 8 91.8 8 Z M 103.2 5 C 103.2 5 102.1 7.6 102.1 7.6 C 101.6 7.1 101.1 6.9 100.6 6.9 C 99.7 6.9 99 7.6 98.6 9.1 C 98.6 9.11 98.6 13.1 98.6 13.1 L 95.9 13.1 L 95.9 4.4 L 98.6 4.4 C 98.6 4.4 98.6 6.46 98.6 6.5 C 99.3 5.1 100.2 4.2 101.3 4.2 C 101.9 4.2 102.5 4.4 103.2 5 Z M 107.6 2 L 107.9 2 L 107.9 4.6 L 110.8 4.6 L 110.8 6.5 L 107.9 6.5 C 107.9 6.5 107.91 9.61 107.9 9.6 C 107.9 10.5 108.1 11.1 109.1 11.1 C 109.8 11.1 110.5 10.8 111.1 10.5 C 111.1 10.5 111.1 12.6 111.1 12.6 C 110.3 13 109.2 13.3 108.3 13.3 C 106.1 13.3 105.2 12.1 105.2 10 C 105.21 10.04 105.2 6.5 105.2 6.5 L 103.8 6.5 L 103.8 5.9 L 107.6 2 Z M 115 2.2 C 115 2.9 114.5 3.4 113.8 3.4 C 113.1 3.4 112.6 2.9 112.6 2.2 C 112.6 1.5 113.1 1 113.8 1 C 114.5 1 115 1.5 115 2.2 Z M 115.2 4.4 L 115.2 13.1 L 112.5 13.1 L 112.5 4.4 L 115.2 4.4 Z M 122.5 0.8 C 122.5 0.8 122.5 2.9 122.5 2.9 C 122.2 2.8 121.9 2.7 121.6 2.7 C 120.9 2.7 120.4 3.1 120.4 4.3 C 120.4 4.32 120.4 4.6 120.4 4.6 L 122.1 4.6 L 122.1 6.5 L 120.4 6.5 L 120.4 13.1 L 117.7 13.1 L 117.7 6.5 L 116.4 6.5 L 116.4 4.6 L 117.7 4.6 C 117.7 4.6 117.7 4.46 117.7 4.5 C 117.7 2.1 119 0.7 121.2 0.7 C 121.6 0.7 122.1 0.8 122.5 0.8 Z M 125.8 2.2 C 125.8 2.9 125.2 3.4 124.6 3.4 C 123.9 3.4 123.4 2.9 123.4 2.2 C 123.4 1.5 123.9 1 124.6 1 C 125.3 1 125.8 1.5 125.8 2.2 Z M 125.9 4.4 L 125.9 13.1 L 123.2 13.1 L 123.2 4.4 L 125.9 4.4 Z M 136.5 8.8 C 136.49 8.82 136.5 9.3 136.5 9.3 C 136.5 9.3 130.37 9.32 130.4 9.3 C 130.6 10.6 131.6 11.4 132.9 11.4 C 134.1 11.4 135.2 11.1 136.3 10.5 C 136.3 10.5 136.3 12.3 136.3 12.3 C 135.2 13 133.9 13.3 132.4 13.3 C 129.5 13.3 127.6 11.5 127.6 8.7 C 127.6 6 129.4 4.2 132.3 4.2 C 134.6 4.2 136.5 5.8 136.5 8.8 Z M 133.9 8 C 133.9 6.7 133.3 6 132.2 6 C 131.1 6 130.3 6.8 130.3 8 C 130.3 8 133.9 8 133.9 8 Z M 143.1 11 C 143.1 11.03 144.1 11 144.1 11 C 144.1 11 144.11 6.77 144.1 6.8 C 143.6 6.4 143.1 6.3 142.5 6.3 C 141.4 6.3 140.5 7.2 140.5 8.6 C 140.5 10.3 141.2 11 143.1 11 Z M 146.8 0.8 L 146.8 13.1 C 146.8 13.1 142.83 13.12 142.8 13.1 C 139 13.1 137.7 11.3 137.7 8.6 C 137.7 6.3 139.2 4.2 141.9 4.2 C 142.8 4.2 143.5 4.4 144.1 4.8 C 144.11 4.81 144.1 0.8 144.1 0.8 L 146.8 0.8 Z " stroke="none" fill="#000"/>  </g></svg>