<?xml version="1.0" standalone="no"?><!DOCTYPE svg PUBLIC "-//W3C//DTD SVG 1.1//EN" "http://www.w3.org/Graphics/SVG/1.1/DTD/svg11.dtd"><svg xmlns="http://www.w3.org/2000/svg" version="1.1" width="280.3px" height="40.9px" viewBox="0 -5 280.3 40.9" style="top:-5px">  <desc>L3 Compliance &amp; Risk Officer L6 Senior Compliance &amp; Risk Specialist​</desc>  <defs/>  <g id="Polygon131478">    <path d="M 1.1 27 L 1.1 17.1 L 3.1 17.1 L 3.1 25.3 L 8.1 25.3 L 8.1 27 L 1.1 27 Z M 15.7 19.4 C 15.7 19.4 13.8 19.6 13.8 19.6 C 13.7 19.2 13.6 19 13.4 18.8 C 13.2 18.6 13 18.5 12.7 18.5 C 12.3 18.5 11.9 18.7 11.7 19.1 C 11.4 19.4 11.2 20.2 11.1 21.3 C 11.6 20.8 12.2 20.5 12.9 20.5 C 13.7 20.5 14.4 20.8 15 21.4 C 15.6 22 15.8 22.8 15.8 23.8 C 15.8 24.8 15.5 25.6 14.9 26.2 C 14.3 26.9 13.6 27.2 12.6 27.2 C 11.6 27.2 10.8 26.8 10.1 26 C 9.5 25.2 9.1 23.9 9.1 22.1 C 9.1 20.3 9.5 19 10.2 18.1 C 10.8 17.3 11.7 16.9 12.8 16.9 C 13.6 16.9 14.2 17.1 14.7 17.6 C 15.2 18 15.5 18.6 15.7 19.4 Z M 11.3 23.6 C 11.3 24.2 11.4 24.7 11.7 25.1 C 12 25.4 12.3 25.6 12.7 25.6 C 13.1 25.6 13.4 25.4 13.6 25.2 C 13.8 24.9 14 24.4 14 23.8 C 14 23.1 13.8 22.7 13.6 22.4 C 13.3 22.1 13 21.9 12.6 21.9 C 12.3 21.9 11.9 22 11.7 22.3 C 11.4 22.6 11.3 23.1 11.3 23.6 Z M 20.9 23.8 C 20.9 23.8 22.1 23.7 22.1 23.7 C 22.2 24.2 22.3 24.6 22.5 24.9 C 22.7 25.2 23.1 25.5 23.5 25.7 C 24 25.9 24.5 26 25.1 26 C 25.6 26 26 25.9 26.4 25.7 C 26.8 25.6 27.1 25.4 27.3 25.1 C 27.5 24.9 27.6 24.6 27.6 24.3 C 27.6 24 27.5 23.7 27.3 23.4 C 27.1 23.2 26.8 23 26.4 22.9 C 26.1 22.8 25.5 22.6 24.6 22.4 C 23.7 22.1 23 21.9 22.7 21.7 C 22.2 21.5 21.8 21.2 21.6 20.8 C 21.4 20.4 21.2 20 21.2 19.6 C 21.2 19.1 21.4 18.6 21.7 18.1 C 22 17.7 22.4 17.4 22.9 17.1 C 23.5 16.9 24.1 16.8 24.8 16.8 C 25.5 16.8 26.2 16.9 26.7 17.2 C 27.3 17.4 27.7 17.8 28 18.2 C 28.3 18.7 28.5 19.2 28.5 19.8 C 28.5 19.8 27.3 19.9 27.3 19.9 C 27.2 19.3 27 18.8 26.6 18.5 C 26.2 18.1 25.6 18 24.8 18 C 24 18 23.4 18.1 23.1 18.4 C 22.7 18.7 22.5 19.1 22.5 19.5 C 22.5 19.8 22.6 20.1 22.9 20.4 C 23.2 20.6 23.8 20.8 24.9 21.1 C 26 21.3 26.7 21.5 27.1 21.7 C 27.7 22 28.1 22.3 28.4 22.7 C 28.7 23.1 28.8 23.6 28.8 24.2 C 28.8 24.7 28.7 25.2 28.4 25.7 C 28.1 26.1 27.6 26.5 27.1 26.8 C 26.5 27 25.8 27.2 25.1 27.2 C 24.2 27.2 23.5 27 22.8 26.8 C 22.2 26.5 21.8 26.1 21.4 25.6 C 21.1 25 20.9 24.4 20.9 23.8 Z M 35.5 24.7 C 35.5 24.7 36.7 24.8 36.7 24.8 C 36.5 25.6 36.2 26.1 35.6 26.5 C 35.1 27 34.4 27.2 33.5 27.2 C 32.5 27.2 31.6 26.8 31 26.2 C 30.4 25.5 30.1 24.6 30.1 23.4 C 30.1 22.2 30.4 21.3 31 20.6 C 31.7 19.9 32.5 19.6 33.5 19.6 C 34.4 19.6 35.2 19.9 35.8 20.6 C 36.5 21.2 36.8 22.2 36.8 23.3 C 36.8 23.4 36.8 23.5 36.8 23.7 C 36.8 23.7 31.3 23.7 31.3 23.7 C 31.4 24.5 31.6 25.1 32 25.5 C 32.4 25.9 32.9 26.1 33.5 26.1 C 34 26.1 34.4 26 34.7 25.8 C 35 25.6 35.3 25.2 35.5 24.7 Z M 31.4 22.7 C 31.4 22.7 35.5 22.7 35.5 22.7 C 35.4 22.1 35.3 21.6 35 21.3 C 34.6 20.8 34.1 20.6 33.5 20.6 C 32.9 20.6 32.4 20.8 32.1 21.1 C 31.7 21.5 31.5 22 31.4 22.7 Z M 38.3 27 L 38.3 19.7 L 39.4 19.7 C 39.4 19.7 39.38 20.76 39.4 20.8 C 39.9 20 40.7 19.6 41.7 19.6 C 42.1 19.6 42.5 19.6 42.9 19.8 C 43.3 20 43.5 20.2 43.7 20.4 C 43.9 20.7 44 21 44.1 21.3 C 44.2 21.6 44.2 22 44.2 22.5 C 44.17 22.53 44.2 27 44.2 27 L 42.9 27 C 42.9 27 42.94 22.58 42.9 22.6 C 42.9 22.1 42.9 21.7 42.8 21.5 C 42.7 21.2 42.5 21 42.3 20.9 C 42 20.7 41.8 20.6 41.4 20.6 C 40.9 20.6 40.5 20.8 40.1 21.1 C 39.7 21.5 39.5 22.1 39.5 23 C 39.5 23.03 39.5 27 39.5 27 L 38.3 27 Z M 46.1 18.4 L 46.1 17 L 47.3 17 L 47.3 18.4 L 46.1 18.4 Z M 46.1 27 L 46.1 19.7 L 47.3 19.7 L 47.3 27 L 46.1 27 Z M 48.7 23.4 C 48.7 22 49.1 21 49.8 20.4 C 50.5 19.8 51.2 19.6 52.1 19.6 C 53.1 19.6 53.9 19.9 54.6 20.5 C 55.2 21.2 55.5 22.1 55.5 23.3 C 55.5 24.2 55.4 24.9 55.1 25.5 C 54.8 26 54.4 26.4 53.9 26.7 C 53.3 27 52.8 27.2 52.1 27.2 C 51.1 27.2 50.3 26.8 49.7 26.2 C 49 25.5 48.7 24.6 48.7 23.4 Z M 50 23.4 C 50 24.3 50.2 25 50.6 25.5 C 51 25.9 51.5 26.1 52.1 26.1 C 52.7 26.1 53.2 25.9 53.6 25.4 C 54 25 54.3 24.3 54.3 23.3 C 54.3 22.4 54 21.7 53.6 21.3 C 53.2 20.8 52.7 20.6 52.1 20.6 C 51.5 20.6 51 20.8 50.6 21.3 C 50.2 21.7 50 22.4 50 23.4 Z M 56.9 27 L 56.9 19.7 L 58.1 19.7 C 58.1 19.7 58.05 20.83 58.1 20.8 C 58.3 20.3 58.6 20 58.8 19.8 C 59.1 19.7 59.3 19.6 59.6 19.6 C 60 19.6 60.5 19.7 60.9 20 C 60.9 20 60.5 21.1 60.5 21.1 C 60.2 20.9 59.9 20.8 59.6 20.8 C 59.3 20.8 59.1 20.9 58.8 21.1 C 58.6 21.2 58.5 21.5 58.4 21.8 C 58.2 22.2 58.2 22.7 58.2 23.2 C 58.17 23.19 58.2 27 58.2 27 L 56.9 27 Z M 72.8 23.5 C 72.8 23.5 74.1 23.8 74.1 23.8 C 73.9 24.9 73.4 25.7 72.6 26.3 C 71.9 26.9 71 27.2 70 27.2 C 68.9 27.2 68 26.9 67.4 26.5 C 66.7 26.1 66.2 25.4 65.8 24.6 C 65.5 23.8 65.3 22.9 65.3 21.9 C 65.3 20.9 65.5 20 65.9 19.2 C 66.3 18.4 66.8 17.8 67.6 17.4 C 68.3 17 69.1 16.8 70 16.8 C 71 16.8 71.9 17.1 72.5 17.6 C 73.2 18.1 73.7 18.8 74 19.7 C 74 19.7 72.7 20 72.7 20 C 72.4 19.3 72.1 18.8 71.7 18.4 C 71.2 18.1 70.7 17.9 70 17.9 C 69.2 17.9 68.6 18.1 68.1 18.5 C 67.5 18.9 67.2 19.4 67 20 C 66.8 20.6 66.7 21.2 66.7 21.9 C 66.7 22.8 66.8 23.5 67 24.1 C 67.3 24.8 67.7 25.2 68.2 25.6 C 68.7 25.9 69.3 26 69.9 26 C 70.6 26 71.3 25.8 71.8 25.4 C 72.3 25 72.6 24.3 72.8 23.5 Z M 75.2 23.4 C 75.2 22 75.5 21 76.3 20.4 C 76.9 19.8 77.7 19.6 78.6 19.6 C 79.6 19.6 80.4 19.9 81 20.5 C 81.6 21.2 82 22.1 82 23.3 C 82 24.2 81.8 24.9 81.5 25.5 C 81.3 26 80.9 26.4 80.3 26.7 C 79.8 27 79.2 27.2 78.6 27.2 C 77.5 27.2 76.7 26.8 76.1 26.2 C 75.5 25.5 75.2 24.6 75.2 23.4 Z M 76.4 23.4 C 76.4 24.3 76.6 25 77 25.5 C 77.4 25.9 78 26.1 78.6 26.1 C 79.2 26.1 79.7 25.9 80.1 25.4 C 80.5 25 80.7 24.3 80.7 23.3 C 80.7 22.4 80.5 21.7 80.1 21.3 C 79.7 20.8 79.2 20.6 78.6 20.6 C 78 20.6 77.4 20.8 77 21.3 C 76.6 21.7 76.4 22.4 76.4 23.4 Z M 83.4 27 L 83.4 19.7 L 84.5 19.7 C 84.5 19.7 84.51 20.75 84.5 20.8 C 84.7 20.4 85 20.1 85.4 19.9 C 85.8 19.7 86.2 19.6 86.7 19.6 C 87.2 19.6 87.7 19.7 88 19.9 C 88.4 20.1 88.6 20.4 88.8 20.8 C 89.3 20 90.1 19.6 91 19.6 C 91.7 19.6 92.3 19.8 92.7 20.2 C 93 20.6 93.2 21.2 93.2 22 C 93.24 22.01 93.2 27 93.2 27 L 92 27 C 92 27 92.02 22.42 92 22.4 C 92 21.9 92 21.6 91.9 21.4 C 91.8 21.1 91.7 21 91.5 20.8 C 91.3 20.7 91 20.6 90.7 20.6 C 90.2 20.6 89.8 20.8 89.5 21.1 C 89.1 21.5 88.9 22 88.9 22.8 C 88.95 22.77 88.9 27 88.9 27 L 87.7 27 C 87.7 27 87.72 22.28 87.7 22.3 C 87.7 21.7 87.6 21.3 87.4 21 C 87.2 20.8 86.9 20.6 86.4 20.6 C 86.1 20.6 85.8 20.7 85.5 20.9 C 85.2 21.1 85 21.4 84.8 21.7 C 84.7 22.1 84.6 22.6 84.6 23.2 C 84.64 23.23 84.6 27 84.6 27 L 83.4 27 Z M 95.1 29.8 L 95.1 19.7 L 96.2 19.7 C 96.2 19.7 96.19 20.68 96.2 20.7 C 96.5 20.3 96.8 20 97.1 19.8 C 97.4 19.7 97.8 19.6 98.3 19.6 C 98.9 19.6 99.5 19.7 99.9 20 C 100.4 20.4 100.8 20.8 101 21.4 C 101.2 22 101.4 22.6 101.4 23.3 C 101.4 24.1 101.2 24.7 101 25.3 C 100.7 25.9 100.3 26.4 99.8 26.7 C 99.3 27 98.8 27.2 98.2 27.2 C 97.8 27.2 97.4 27.1 97.1 26.9 C 96.8 26.7 96.5 26.5 96.3 26.2 C 96.3 26.24 96.3 29.8 96.3 29.8 L 95.1 29.8 Z M 96.2 23.4 C 96.2 24.3 96.4 25 96.7 25.5 C 97.1 25.9 97.6 26.1 98.1 26.1 C 98.7 26.1 99.1 25.9 99.5 25.5 C 99.9 25 100.1 24.3 100.1 23.3 C 100.1 22.4 99.9 21.7 99.5 21.2 C 99.2 20.8 98.7 20.5 98.2 20.5 C 97.7 20.5 97.2 20.8 96.8 21.3 C 96.4 21.8 96.2 22.5 96.2 23.4 Z M 102.8 27 L 102.8 17 L 104.1 17 L 104.1 27 L 102.8 27 Z M 106 18.4 L 106 17 L 107.2 17 L 107.2 18.4 L 106 18.4 Z M 106 27 L 106 19.7 L 107.2 19.7 L 107.2 27 L 106 27 Z M 114.1 27 C 113.9 26.7 113.8 26.4 113.8 26.1 C 113.4 26.5 112.9 26.8 112.5 26.9 C 112.1 27.1 111.6 27.2 111.1 27.2 C 110.3 27.2 109.7 27 109.3 26.6 C 108.9 26.2 108.7 25.7 108.7 25.1 C 108.7 24.7 108.7 24.4 108.9 24.1 C 109.1 23.8 109.3 23.6 109.5 23.4 C 109.8 23.2 110.1 23.1 110.4 23 C 110.7 22.9 111 22.9 111.5 22.8 C 112.5 22.7 113.2 22.5 113.7 22.4 C 113.7 22.2 113.7 22.1 113.7 22.1 C 113.7 21.6 113.6 21.2 113.4 21 C 113.1 20.7 112.6 20.6 112 20.6 C 111.4 20.6 111 20.7 110.7 20.9 C 110.4 21.1 110.2 21.5 110.1 22 C 110.1 22 108.9 21.8 108.9 21.8 C 109 21.3 109.2 20.9 109.4 20.6 C 109.7 20.2 110 20 110.5 19.8 C 111 19.7 111.5 19.6 112.1 19.6 C 112.8 19.6 113.3 19.6 113.7 19.8 C 114 19.9 114.3 20.1 114.5 20.3 C 114.7 20.6 114.8 20.8 114.9 21.2 C 114.9 21.4 115 21.8 115 22.3 C 115 22.3 115 24 115 24 C 115 25.1 115 25.8 115 26.1 C 115.1 26.4 115.2 26.7 115.3 27 C 115.34 26.99 114.1 27 114.1 27 C 114.1 27 114.06 26.99 114.1 27 Z M 113.7 23.3 C 113.3 23.5 112.6 23.7 111.7 23.8 C 111.2 23.9 110.8 24 110.6 24.1 C 110.4 24.2 110.3 24.3 110.1 24.5 C 110 24.6 110 24.8 110 25 C 110 25.4 110.1 25.6 110.3 25.9 C 110.6 26.1 111 26.2 111.4 26.2 C 111.9 26.2 112.3 26.1 112.7 25.9 C 113.1 25.7 113.3 25.4 113.5 25 C 113.6 24.8 113.7 24.3 113.7 23.8 C 113.7 23.8 113.7 23.3 113.7 23.3 Z M 116.9 27 L 116.9 19.7 L 118 19.7 C 118 19.7 117.97 20.76 118 20.8 C 118.5 20 119.3 19.6 120.3 19.6 C 120.7 19.6 121.1 19.6 121.5 19.8 C 121.9 20 122.1 20.2 122.3 20.4 C 122.5 20.7 122.6 21 122.7 21.3 C 122.7 21.6 122.8 22 122.8 22.5 C 122.76 22.53 122.8 27 122.8 27 L 121.5 27 C 121.5 27 121.53 22.58 121.5 22.6 C 121.5 22.1 121.5 21.7 121.4 21.5 C 121.3 21.2 121.1 21 120.9 20.9 C 120.6 20.7 120.3 20.6 120 20.6 C 119.5 20.6 119 20.8 118.7 21.1 C 118.3 21.5 118.1 22.1 118.1 23 C 118.09 23.03 118.1 27 118.1 27 L 116.9 27 Z M 129.4 24.3 C 129.4 24.3 130.6 24.5 130.6 24.5 C 130.5 25.3 130.1 26 129.6 26.4 C 129 26.9 128.4 27.2 127.6 27.2 C 126.6 27.2 125.8 26.8 125.2 26.2 C 124.6 25.5 124.3 24.6 124.3 23.4 C 124.3 22.6 124.4 21.9 124.7 21.3 C 124.9 20.7 125.3 20.3 125.8 20 C 126.4 19.7 127 19.6 127.6 19.6 C 128.4 19.6 129 19.8 129.5 20.2 C 130 20.6 130.3 21.1 130.5 21.9 C 130.5 21.9 129.3 22 129.3 22 C 129.2 21.6 129 21.2 128.7 20.9 C 128.4 20.7 128 20.6 127.6 20.6 C 127 20.6 126.5 20.8 126.1 21.2 C 125.7 21.7 125.5 22.4 125.5 23.4 C 125.5 24.3 125.7 25 126.1 25.5 C 126.5 25.9 127 26.1 127.6 26.1 C 128 26.1 128.4 26 128.8 25.7 C 129.1 25.4 129.3 24.9 129.4 24.3 Z M 136.6 24.7 C 136.6 24.7 137.9 24.8 137.9 24.8 C 137.7 25.6 137.3 26.1 136.8 26.5 C 136.2 27 135.5 27.2 134.7 27.2 C 133.6 27.2 132.8 26.8 132.2 26.2 C 131.5 25.5 131.2 24.6 131.2 23.4 C 131.2 22.2 131.6 21.3 132.2 20.6 C 132.8 19.9 133.6 19.6 134.6 19.6 C 135.6 19.6 136.4 19.9 137 20.6 C 137.6 21.2 137.9 22.2 137.9 23.3 C 137.9 23.4 137.9 23.5 137.9 23.7 C 137.9 23.7 132.5 23.7 132.5 23.7 C 132.6 24.5 132.8 25.1 133.2 25.5 C 133.6 25.9 134.1 26.1 134.7 26.1 C 135.2 26.1 135.5 26 135.9 25.8 C 136.2 25.6 136.4 25.2 136.6 24.7 Z M 132.6 22.7 C 132.6 22.7 136.6 22.7 136.6 22.7 C 136.6 22.1 136.4 21.6 136.2 21.3 C 135.8 20.8 135.3 20.6 134.6 20.6 C 134.1 20.6 133.6 20.8 133.2 21.1 C 132.8 21.5 132.6 22 132.6 22.7 Z M 150.6 27.2 C 150.1 26.9 149.6 26.4 149.1 25.8 C 148.6 26.3 148.2 26.6 147.7 26.8 C 147.2 27.1 146.7 27.2 146.2 27.2 C 145.1 27.2 144.3 26.8 143.7 26.1 C 143.2 25.6 143 24.9 143 24.2 C 143 23.6 143.2 23.1 143.6 22.6 C 144 22.1 144.6 21.6 145.4 21.2 C 144.9 20.7 144.6 20.3 144.5 20 C 144.3 19.6 144.3 19.3 144.3 19 C 144.3 18.4 144.5 17.9 145 17.5 C 145.4 17 146 16.8 146.7 16.8 C 147.4 16.8 148 17 148.4 17.4 C 148.9 17.8 149.1 18.4 149.1 18.9 C 149.1 19.9 148.4 20.7 147.2 21.4 C 147.2 21.4 149 23.7 149 23.7 C 149.2 23.3 149.3 22.8 149.5 22.3 C 149.5 22.3 150.7 22.5 150.7 22.5 C 150.5 23.4 150.2 24.1 149.9 24.7 C 150.3 25.3 150.8 25.8 151.4 26.2 C 151.42 26.25 150.6 27.2 150.6 27.2 C 150.6 27.2 150.59 27.22 150.6 27.2 Z M 146.5 20.6 C 147.1 20.3 147.4 20 147.6 19.8 C 147.7 19.5 147.8 19.3 147.8 19 C 147.8 18.6 147.7 18.4 147.5 18.1 C 147.3 17.9 147 17.8 146.7 17.8 C 146.4 17.8 146.1 17.9 145.9 18.1 C 145.6 18.3 145.5 18.6 145.5 18.9 C 145.5 19.1 145.6 19.2 145.6 19.4 C 145.7 19.6 145.8 19.8 146 20 C 146 20 146.5 20.6 146.5 20.6 Z M 148.3 24.8 C 148.3 24.8 146 22 146 22 C 145.4 22.4 144.9 22.8 144.7 23.1 C 144.4 23.5 144.3 23.8 144.3 24.2 C 144.3 24.6 144.5 25 144.8 25.4 C 145.1 25.9 145.6 26.1 146.2 26.1 C 146.6 26.1 146.9 26 147.3 25.7 C 147.7 25.5 148 25.2 148.3 24.8 Z M 156.7 27 L 156.7 17 C 156.7 17 161.17 16.97 161.2 17 C 162.1 17 162.7 17.1 163.2 17.2 C 163.7 17.4 164 17.7 164.3 18.2 C 164.6 18.7 164.7 19.2 164.7 19.7 C 164.7 20.4 164.5 21 164 21.5 C 163.6 22 162.9 22.3 161.9 22.4 C 162.3 22.6 162.5 22.8 162.7 22.9 C 163.1 23.3 163.5 23.7 163.8 24.3 C 163.82 24.26 165.6 27 165.6 27 L 163.9 27 C 163.9 27 162.57 24.91 162.6 24.9 C 162.2 24.3 161.9 23.8 161.6 23.5 C 161.4 23.2 161.1 23 160.9 22.9 C 160.7 22.7 160.5 22.6 160.3 22.6 C 160.2 22.6 159.9 22.5 159.6 22.5 C 159.59 22.54 158.1 22.5 158.1 22.5 L 158.1 27 L 156.7 27 Z M 158.1 21.4 C 158.1 21.4 160.9 21.39 160.9 21.4 C 161.5 21.4 162 21.3 162.3 21.2 C 162.7 21.1 162.9 20.9 163.1 20.6 C 163.3 20.3 163.4 20 163.4 19.7 C 163.4 19.2 163.2 18.8 162.9 18.5 C 162.5 18.2 162 18.1 161.2 18.1 C 161.23 18.08 158.1 18.1 158.1 18.1 L 158.1 21.4 Z M 166.7 18.4 L 166.7 17 L 167.9 17 L 167.9 18.4 L 166.7 18.4 Z M 166.7 27 L 166.7 19.7 L 167.9 19.7 L 167.9 27 L 166.7 27 Z M 169.3 24.8 C 169.3 24.8 170.5 24.6 170.5 24.6 C 170.6 25.1 170.8 25.5 171.1 25.8 C 171.4 26 171.8 26.1 172.4 26.1 C 172.9 26.1 173.4 26 173.6 25.8 C 173.9 25.6 174 25.3 174 25 C 174 24.7 173.9 24.5 173.7 24.3 C 173.5 24.2 173.1 24.1 172.4 23.9 C 171.5 23.7 170.9 23.5 170.5 23.3 C 170.2 23.2 169.9 22.9 169.8 22.6 C 169.6 22.3 169.5 22 169.5 21.7 C 169.5 21.3 169.6 21 169.7 20.8 C 169.9 20.5 170.1 20.3 170.3 20.1 C 170.5 19.9 170.8 19.8 171.1 19.7 C 171.4 19.6 171.8 19.6 172.2 19.6 C 172.7 19.6 173.2 19.7 173.7 19.8 C 174.1 20 174.4 20.2 174.6 20.5 C 174.8 20.8 175 21.1 175 21.6 C 175 21.6 173.8 21.8 173.8 21.8 C 173.8 21.4 173.6 21.1 173.4 20.9 C 173.1 20.7 172.7 20.6 172.2 20.6 C 171.7 20.6 171.3 20.7 171 20.9 C 170.8 21 170.7 21.3 170.7 21.5 C 170.7 21.7 170.7 21.8 170.8 21.9 C 170.9 22.1 171.1 22.2 171.3 22.3 C 171.4 22.3 171.8 22.4 172.4 22.6 C 173.3 22.8 173.9 23 174.2 23.2 C 174.5 23.3 174.8 23.5 175 23.8 C 175.2 24.1 175.3 24.4 175.3 24.9 C 175.3 25.3 175.2 25.7 174.9 26 C 174.7 26.4 174.4 26.7 173.9 26.9 C 173.5 27.1 173 27.2 172.4 27.2 C 171.4 27.2 170.7 27 170.2 26.6 C 169.7 26.2 169.4 25.6 169.3 24.8 Z M 176.8 27 L 176.8 17 L 178 17 L 178 22.7 L 180.9 19.7 L 182.5 19.7 L 179.7 22.4 L 182.8 27 L 181.3 27 L 178.9 23.3 L 178 24.1 L 178 27 L 176.8 27 Z M 187.4 23.8 C 187.4 23.8 188.6 23.7 188.6 23.7 C 188.7 24.2 188.8 24.6 189 24.9 C 189.2 25.2 189.6 25.5 190 25.7 C 190.5 25.9 191 26 191.6 26 C 192.1 26 192.5 25.9 192.9 25.7 C 193.3 25.6 193.6 25.4 193.8 25.1 C 194 24.9 194.1 24.6 194.1 24.3 C 194.1 24 194 23.7 193.8 23.4 C 193.6 23.2 193.3 23 192.9 22.9 C 192.6 22.8 192 22.6 191.1 22.4 C 190.2 22.1 189.5 21.9 189.2 21.7 C 188.7 21.5 188.3 21.2 188.1 20.8 C 187.9 20.4 187.7 20 187.7 19.6 C 187.7 19.1 187.9 18.6 188.2 18.1 C 188.5 17.7 188.9 17.4 189.4 17.1 C 190 16.9 190.6 16.8 191.3 16.8 C 192 16.8 192.7 16.9 193.2 17.2 C 193.8 17.4 194.2 17.8 194.6 18.2 C 194.9 18.7 195 19.2 195 19.8 C 195 19.8 193.8 19.9 193.8 19.9 C 193.7 19.3 193.5 18.8 193.1 18.5 C 192.7 18.1 192.1 18 191.3 18 C 190.5 18 189.9 18.1 189.6 18.4 C 189.2 18.7 189 19.1 189 19.5 C 189 19.8 189.2 20.1 189.4 20.4 C 189.7 20.6 190.3 20.8 191.4 21.1 C 192.5 21.3 193.2 21.5 193.6 21.7 C 194.2 22 194.6 22.3 194.9 22.7 C 195.2 23.1 195.3 23.6 195.3 24.2 C 195.3 24.7 195.2 25.2 194.9 25.7 C 194.6 26.1 194.1 26.5 193.6 26.8 C 193 27 192.4 27.2 191.6 27.2 C 190.7 27.2 190 27 189.4 26.8 C 188.7 26.5 188.3 26.1 187.9 25.6 C 187.6 25 187.4 24.4 187.4 23.8 Z M 197 29.8 L 197 19.7 L 198.1 19.7 C 198.1 19.7 198.12 20.68 198.1 20.7 C 198.4 20.3 198.7 20 199 19.8 C 199.3 19.7 199.8 19.6 200.2 19.6 C 200.8 19.6 201.4 19.7 201.9 20 C 202.3 20.4 202.7 20.8 202.9 21.4 C 203.2 22 203.3 22.6 203.3 23.3 C 203.3 24.1 203.2 24.7 202.9 25.3 C 202.6 25.9 202.2 26.4 201.7 26.7 C 201.2 27 200.7 27.2 200.1 27.2 C 199.7 27.2 199.4 27.1 199 26.9 C 198.7 26.7 198.4 26.5 198.2 26.2 C 198.23 26.24 198.2 29.8 198.2 29.8 L 197 29.8 Z M 198.1 23.4 C 198.1 24.3 198.3 25 198.7 25.5 C 199.1 25.9 199.5 26.1 200.1 26.1 C 200.6 26.1 201.1 25.9 201.5 25.5 C 201.8 25 202 24.3 202 23.3 C 202 22.4 201.9 21.7 201.5 21.2 C 201.1 20.8 200.6 20.5 200.1 20.5 C 199.6 20.5 199.1 20.8 198.7 21.3 C 198.3 21.8 198.1 22.5 198.1 23.4 Z M 209.8 24.7 C 209.8 24.7 211 24.8 211 24.8 C 210.8 25.6 210.5 26.1 209.9 26.5 C 209.4 27 208.7 27.2 207.8 27.2 C 206.8 27.2 205.9 26.8 205.3 26.2 C 204.7 25.5 204.4 24.6 204.4 23.4 C 204.4 22.2 204.7 21.3 205.3 20.6 C 205.9 19.9 206.8 19.6 207.8 19.6 C 208.7 19.6 209.5 19.9 210.1 20.6 C 210.8 21.2 211.1 22.2 211.1 23.3 C 211.1 23.4 211.1 23.5 211.1 23.7 C 211.1 23.7 205.6 23.7 205.6 23.7 C 205.7 24.5 205.9 25.1 206.3 25.5 C 206.7 25.9 207.2 26.1 207.8 26.1 C 208.3 26.1 208.7 26 209 25.8 C 209.3 25.6 209.6 25.2 209.8 24.7 Z M 205.7 22.7 C 205.7 22.7 209.8 22.7 209.8 22.7 C 209.7 22.1 209.6 21.6 209.3 21.3 C 208.9 20.8 208.4 20.6 207.8 20.6 C 207.2 20.6 206.7 20.8 206.4 21.1 C 206 21.5 205.8 22 205.7 22.7 Z M 217.3 24.3 C 217.3 24.3 218.5 24.5 218.5 24.5 C 218.4 25.3 218 26 217.5 26.4 C 217 26.9 216.3 27.2 215.5 27.2 C 214.5 27.2 213.7 26.8 213.1 26.2 C 212.5 25.5 212.2 24.6 212.2 23.4 C 212.2 22.6 212.3 21.9 212.6 21.3 C 212.8 20.7 213.2 20.3 213.8 20 C 214.3 19.7 214.9 19.6 215.5 19.6 C 216.3 19.6 216.9 19.8 217.4 20.2 C 217.9 20.6 218.3 21.1 218.4 21.9 C 218.4 21.9 217.2 22 217.2 22 C 217.1 21.6 216.9 21.2 216.6 20.9 C 216.3 20.7 216 20.6 215.6 20.6 C 214.9 20.6 214.4 20.8 214 21.2 C 213.7 21.7 213.5 22.4 213.5 23.4 C 213.5 24.3 213.6 25 214 25.5 C 214.4 25.9 214.9 26.1 215.5 26.1 C 216 26.1 216.4 26 216.7 25.7 C 217 25.4 217.2 24.9 217.3 24.3 Z M 219.6 18.4 L 219.6 17 L 220.8 17 L 220.8 18.4 L 219.6 18.4 Z M 219.6 27 L 219.6 19.7 L 220.8 19.7 L 220.8 27 L 219.6 27 Z M 227.7 27 C 227.5 26.7 227.5 26.4 227.4 26.1 C 227 26.5 226.5 26.8 226.1 26.9 C 225.7 27.1 225.2 27.2 224.7 27.2 C 223.9 27.2 223.3 27 222.9 26.6 C 222.5 26.2 222.3 25.7 222.3 25.1 C 222.3 24.7 222.3 24.4 222.5 24.1 C 222.7 23.8 222.9 23.6 223.1 23.4 C 223.4 23.2 223.7 23.1 224 23 C 224.3 22.9 224.6 22.9 225.1 22.8 C 226.1 22.7 226.8 22.5 227.3 22.4 C 227.3 22.2 227.3 22.1 227.3 22.1 C 227.3 21.6 227.2 21.2 227 21 C 226.7 20.7 226.2 20.6 225.6 20.6 C 225 20.6 224.6 20.7 224.3 20.9 C 224 21.1 223.8 21.5 223.7 22 C 223.7 22 222.5 21.8 222.5 21.8 C 222.6 21.3 222.8 20.9 223 20.6 C 223.3 20.2 223.6 20 224.1 19.8 C 224.6 19.7 225.1 19.6 225.8 19.6 C 226.4 19.6 226.9 19.6 227.3 19.8 C 227.6 19.9 227.9 20.1 228.1 20.3 C 228.3 20.6 228.4 20.8 228.5 21.2 C 228.5 21.4 228.6 21.8 228.6 22.3 C 228.6 22.3 228.6 24 228.6 24 C 228.6 25.1 228.6 25.8 228.6 26.1 C 228.7 26.4 228.8 26.7 228.9 27 C 228.95 26.99 227.7 27 227.7 27 C 227.7 27 227.66 26.99 227.7 27 Z M 227.3 23.3 C 226.9 23.5 226.2 23.7 225.3 23.8 C 224.8 23.9 224.4 24 224.2 24.1 C 224 24.2 223.9 24.3 223.7 24.5 C 223.6 24.6 223.6 24.8 223.6 25 C 223.6 25.4 223.7 25.6 223.9 25.9 C 224.2 26.1 224.6 26.2 225 26.2 C 225.5 26.2 225.9 26.1 226.3 25.9 C 226.7 25.7 226.9 25.4 227.1 25 C 227.2 24.8 227.3 24.3 227.3 23.8 C 227.3 23.8 227.3 23.3 227.3 23.3 Z M 230.4 27 L 230.4 17 L 231.7 17 L 231.7 27 L 230.4 27 Z M 233.6 18.4 L 233.6 17 L 234.8 17 L 234.8 18.4 L 233.6 18.4 Z M 233.6 27 L 233.6 19.7 L 234.8 19.7 L 234.8 27 L 233.6 27 Z M 236.2 24.8 C 236.2 24.8 237.4 24.6 237.4 24.6 C 237.5 25.1 237.7 25.5 238 25.8 C 238.3 26 238.7 26.1 239.3 26.1 C 239.9 26.1 240.3 26 240.5 25.8 C 240.8 25.6 241 25.3 241 25 C 241 24.7 240.8 24.5 240.6 24.3 C 240.4 24.2 240 24.1 239.3 23.9 C 238.4 23.7 237.8 23.5 237.5 23.3 C 237.1 23.2 236.9 22.9 236.7 22.6 C 236.5 22.3 236.4 22 236.4 21.7 C 236.4 21.3 236.5 21 236.6 20.8 C 236.8 20.5 237 20.3 237.2 20.1 C 237.4 19.9 237.7 19.8 238 19.7 C 238.3 19.6 238.7 19.6 239.1 19.6 C 239.6 19.6 240.1 19.7 240.6 19.8 C 241 20 241.3 20.2 241.5 20.5 C 241.7 20.8 241.9 21.1 242 21.6 C 242 21.6 240.7 21.8 240.7 21.8 C 240.7 21.4 240.5 21.1 240.3 20.9 C 240 20.7 239.6 20.6 239.2 20.6 C 238.6 20.6 238.2 20.7 238 20.9 C 237.7 21 237.6 21.3 237.6 21.5 C 237.6 21.7 237.6 21.8 237.7 21.9 C 237.8 22.1 238 22.2 238.2 22.3 C 238.3 22.3 238.7 22.4 239.3 22.6 C 240.2 22.8 240.8 23 241.1 23.2 C 241.5 23.3 241.7 23.5 241.9 23.8 C 242.1 24.1 242.2 24.4 242.2 24.9 C 242.2 25.3 242.1 25.7 241.9 26 C 241.6 26.4 241.3 26.7 240.8 26.9 C 240.4 27.1 239.9 27.2 239.3 27.2 C 238.4 27.2 237.6 27 237.1 26.6 C 236.6 26.2 236.3 25.6 236.2 24.8 Z M 245.8 25.9 C 246 25.9 246.2 25.9 246.4 25.9 C 246.4 25.9 246.6 27 246.6 27 C 246.2 27.1 245.9 27.1 245.6 27.1 C 245.2 27.1 244.8 27 244.6 26.9 C 244.3 26.7 244.2 26.5 244.1 26.3 C 244 26.1 243.9 25.6 243.9 24.9 C 243.91 24.87 243.9 20.7 243.9 20.7 L 243 20.7 L 243 19.7 L 243.9 19.7 L 243.9 17.9 L 245.1 17.2 L 245.1 19.7 L 246.4 19.7 L 246.4 20.7 L 245.1 20.7 C 245.1 20.7 245.14 24.93 245.1 24.9 C 245.1 25.3 245.2 25.5 245.2 25.6 C 245.2 25.7 245.3 25.8 245.4 25.9 C 245.5 25.9 245.7 25.9 245.8 25.9 C 245.8 25.9 245.8 25.9 245.8 25.9 Z " stroke="none" fill="#010102"/>  </g>  <g id="Polygon131477">    <path d="M 1.1 10.2 L 1.1 0.3 L 3.1 0.3 L 3.1 8.5 L 8.1 8.5 L 8.1 10.2 L 1.1 10.2 Z M 9.1 7.5 C 9.1 7.5 10.9 7.3 10.9 7.3 C 11 7.8 11.2 8.1 11.4 8.4 C 11.7 8.6 12 8.8 12.4 8.8 C 12.8 8.8 13.1 8.6 13.4 8.3 C 13.6 8 13.8 7.6 13.8 7.1 C 13.8 6.6 13.6 6.2 13.4 6 C 13.1 5.7 12.8 5.5 12.4 5.5 C 12.2 5.5 11.9 5.6 11.5 5.7 C 11.5 5.7 11.8 4.1 11.8 4.1 C 12.3 4.1 12.7 4 12.9 3.8 C 13.2 3.5 13.4 3.2 13.4 2.8 C 13.4 2.5 13.3 2.2 13.1 2 C 12.9 1.8 12.6 1.7 12.3 1.7 C 11.9 1.7 11.6 1.8 11.4 2.1 C 11.2 2.3 11 2.6 11 3 C 11 3 9.2 2.7 9.2 2.7 C 9.3 2.1 9.5 1.7 9.8 1.3 C 10 0.9 10.4 0.6 10.8 0.4 C 11.3 0.2 11.8 0.1 12.3 0.1 C 13.3 0.1 14 0.4 14.6 1 C 15.1 1.5 15.3 2.1 15.3 2.7 C 15.3 3.6 14.8 4.3 13.8 4.8 C 14.4 4.9 14.9 5.2 15.2 5.6 C 15.6 6.1 15.7 6.6 15.7 7.2 C 15.7 8.1 15.4 8.8 14.8 9.4 C 14.1 10.1 13.3 10.4 12.4 10.4 C 11.5 10.4 10.7 10.1 10.1 9.6 C 9.5 9.1 9.2 8.4 9.1 7.5 Z M 28.5 6.7 C 28.5 6.7 29.8 7 29.8 7 C 29.5 8.1 29 8.9 28.3 9.5 C 27.6 10.1 26.7 10.4 25.6 10.4 C 24.6 10.4 23.7 10.1 23 9.7 C 22.3 9.3 21.8 8.6 21.5 7.8 C 21.1 7 20.9 6.1 20.9 5.1 C 20.9 4.1 21.1 3.2 21.5 2.4 C 21.9 1.6 22.5 1 23.2 0.6 C 24 0.2 24.8 0 25.7 0 C 26.7 0 27.5 0.3 28.2 0.8 C 28.9 1.3 29.3 2 29.6 2.9 C 29.6 2.9 28.3 3.2 28.3 3.2 C 28.1 2.5 27.7 2 27.3 1.6 C 26.9 1.3 26.3 1.1 25.6 1.1 C 24.9 1.1 24.2 1.3 23.7 1.7 C 23.2 2.1 22.8 2.6 22.6 3.2 C 22.4 3.8 22.3 4.4 22.3 5.1 C 22.3 6 22.4 6.7 22.7 7.3 C 22.9 8 23.3 8.4 23.8 8.8 C 24.3 9.1 24.9 9.2 25.5 9.2 C 26.3 9.2 26.9 9 27.4 8.6 C 27.9 8.2 28.3 7.5 28.5 6.7 Z M 30.8 6.6 C 30.8 5.2 31.2 4.2 31.9 3.6 C 32.5 3 33.3 2.8 34.2 2.8 C 35.2 2.8 36 3.1 36.7 3.7 C 37.3 4.4 37.6 5.3 37.6 6.5 C 37.6 7.4 37.5 8.1 37.2 8.7 C 36.9 9.2 36.5 9.6 36 9.9 C 35.4 10.2 34.8 10.4 34.2 10.4 C 33.2 10.4 32.4 10 31.7 9.4 C 31.1 8.7 30.8 7.8 30.8 6.6 Z M 32.1 6.6 C 32.1 7.5 32.3 8.2 32.7 8.7 C 33.1 9.1 33.6 9.3 34.2 9.3 C 34.8 9.3 35.3 9.1 35.7 8.6 C 36.1 8.2 36.3 7.5 36.3 6.5 C 36.3 5.6 36.1 4.9 35.7 4.5 C 35.3 4 34.8 3.8 34.2 3.8 C 33.6 3.8 33.1 4 32.7 4.5 C 32.3 4.9 32.1 5.6 32.1 6.6 Z M 39 10.2 L 39 2.9 L 40.1 2.9 C 40.1 2.9 40.15 3.95 40.1 4 C 40.4 3.6 40.7 3.3 41.1 3.1 C 41.4 2.9 41.9 2.8 42.3 2.8 C 42.9 2.8 43.3 2.9 43.7 3.1 C 44 3.3 44.3 3.6 44.4 4 C 45 3.2 45.7 2.8 46.6 2.8 C 47.4 2.8 47.9 3 48.3 3.4 C 48.7 3.8 48.9 4.4 48.9 5.2 C 48.88 5.21 48.9 10.2 48.9 10.2 L 47.7 10.2 C 47.7 10.2 47.66 5.62 47.7 5.6 C 47.7 5.1 47.6 4.8 47.5 4.6 C 47.5 4.3 47.3 4.2 47.1 4 C 46.9 3.9 46.7 3.8 46.4 3.8 C 45.9 3.8 45.4 4 45.1 4.3 C 44.8 4.7 44.6 5.2 44.6 6 C 44.59 5.97 44.6 10.2 44.6 10.2 L 43.4 10.2 C 43.4 10.2 43.36 5.48 43.4 5.5 C 43.4 4.9 43.3 4.5 43.1 4.2 C 42.9 4 42.5 3.8 42.1 3.8 C 41.7 3.8 41.4 3.9 41.1 4.1 C 40.8 4.3 40.6 4.6 40.5 4.9 C 40.3 5.3 40.3 5.8 40.3 6.4 C 40.28 6.43 40.3 10.2 40.3 10.2 L 39 10.2 Z M 50.7 13 L 50.7 2.9 L 51.8 2.9 C 51.8 2.9 51.83 3.88 51.8 3.9 C 52.1 3.5 52.4 3.2 52.7 3 C 53.1 2.9 53.5 2.8 53.9 2.8 C 54.6 2.8 55.1 2.9 55.6 3.2 C 56.1 3.6 56.4 4 56.6 4.6 C 56.9 5.2 57 5.8 57 6.5 C 57 7.3 56.9 7.9 56.6 8.5 C 56.3 9.1 56 9.6 55.4 9.9 C 54.9 10.2 54.4 10.4 53.8 10.4 C 53.4 10.4 53.1 10.3 52.7 10.1 C 52.4 9.9 52.1 9.7 51.9 9.4 C 51.94 9.44 51.9 13 51.9 13 L 50.7 13 Z M 51.8 6.6 C 51.8 7.5 52 8.2 52.4 8.7 C 52.8 9.1 53.2 9.3 53.8 9.3 C 54.3 9.3 54.8 9.1 55.2 8.7 C 55.6 8.2 55.8 7.5 55.8 6.5 C 55.8 5.6 55.6 4.9 55.2 4.4 C 54.8 4 54.3 3.7 53.8 3.7 C 53.3 3.7 52.8 4 52.4 4.5 C 52 5 51.8 5.7 51.8 6.6 Z M 58.5 10.2 L 58.5 0.2 L 59.7 0.2 L 59.7 10.2 L 58.5 10.2 Z M 61.6 1.6 L 61.6 0.2 L 62.8 0.2 L 62.8 1.6 L 61.6 1.6 Z M 61.6 10.2 L 61.6 2.9 L 62.8 2.9 L 62.8 10.2 L 61.6 10.2 Z M 69.7 10.2 C 69.6 9.9 69.5 9.6 69.5 9.3 C 69 9.7 68.6 10 68.1 10.1 C 67.7 10.3 67.3 10.4 66.8 10.4 C 66 10.4 65.4 10.2 64.9 9.8 C 64.5 9.4 64.3 8.9 64.3 8.3 C 64.3 7.9 64.4 7.6 64.5 7.3 C 64.7 7 64.9 6.8 65.2 6.6 C 65.4 6.4 65.7 6.3 66.1 6.2 C 66.3 6.1 66.7 6.1 67.2 6 C 68.1 5.9 68.9 5.7 69.4 5.6 C 69.4 5.4 69.4 5.3 69.4 5.3 C 69.4 4.8 69.2 4.4 69 4.2 C 68.7 3.9 68.2 3.8 67.6 3.8 C 67 3.8 66.6 3.9 66.3 4.1 C 66 4.3 65.8 4.7 65.7 5.2 C 65.7 5.2 64.5 5 64.5 5 C 64.6 4.5 64.8 4.1 65.1 3.8 C 65.3 3.4 65.7 3.2 66.1 3 C 66.6 2.9 67.2 2.8 67.8 2.8 C 68.4 2.8 68.9 2.8 69.3 3 C 69.7 3.1 70 3.3 70.2 3.5 C 70.3 3.8 70.5 4 70.5 4.4 C 70.6 4.6 70.6 5 70.6 5.5 C 70.6 5.5 70.6 7.2 70.6 7.2 C 70.6 8.3 70.6 9 70.7 9.3 C 70.7 9.6 70.8 9.9 71 10.2 C 70.98 10.19 69.7 10.2 69.7 10.2 C 69.7 10.2 69.7 10.19 69.7 10.2 Z M 69.4 6.5 C 68.9 6.7 68.2 6.9 67.3 7 C 66.8 7.1 66.5 7.2 66.3 7.3 C 66.1 7.4 65.9 7.5 65.8 7.7 C 65.7 7.8 65.6 8 65.6 8.2 C 65.6 8.6 65.7 8.8 66 9.1 C 66.2 9.3 66.6 9.4 67.1 9.4 C 67.5 9.4 68 9.3 68.3 9.1 C 68.7 8.9 69 8.6 69.2 8.2 C 69.3 8 69.4 7.5 69.4 7 C 69.4 7 69.4 6.5 69.4 6.5 Z M 72.5 10.2 L 72.5 2.9 L 73.6 2.9 C 73.6 2.9 73.61 3.96 73.6 4 C 74.1 3.2 74.9 2.8 75.9 2.8 C 76.4 2.8 76.8 2.8 77.1 3 C 77.5 3.2 77.8 3.4 78 3.6 C 78.1 3.9 78.3 4.2 78.3 4.5 C 78.4 4.8 78.4 5.2 78.4 5.7 C 78.4 5.73 78.4 10.2 78.4 10.2 L 77.2 10.2 C 77.2 10.2 77.17 5.78 77.2 5.8 C 77.2 5.3 77.1 4.9 77 4.7 C 76.9 4.4 76.8 4.2 76.5 4.1 C 76.3 3.9 76 3.8 75.7 3.8 C 75.1 3.8 74.7 4 74.3 4.3 C 73.9 4.7 73.7 5.3 73.7 6.2 C 73.73 6.23 73.7 10.2 73.7 10.2 L 72.5 10.2 Z M 85 7.5 C 85 7.5 86.2 7.7 86.2 7.7 C 86.1 8.5 85.8 9.2 85.2 9.6 C 84.7 10.1 84 10.4 83.2 10.4 C 82.2 10.4 81.4 10 80.8 9.4 C 80.2 8.7 79.9 7.8 79.9 6.6 C 79.9 5.8 80 5.1 80.3 4.5 C 80.6 3.9 81 3.5 81.5 3.2 C 82 2.9 82.6 2.8 83.2 2.8 C 84 2.8 84.7 3 85.2 3.4 C 85.7 3.8 86 4.3 86.1 5.1 C 86.1 5.1 84.9 5.3 84.9 5.3 C 84.8 4.8 84.6 4.4 84.3 4.1 C 84 3.9 83.7 3.8 83.3 3.8 C 82.6 3.8 82.1 4 81.8 4.4 C 81.4 4.9 81.2 5.6 81.2 6.6 C 81.2 7.5 81.4 8.2 81.7 8.7 C 82.1 9.1 82.6 9.3 83.2 9.3 C 83.7 9.3 84.1 9.2 84.4 8.9 C 84.7 8.6 84.9 8.1 85 7.5 Z M 92.3 7.9 C 92.3 7.9 93.5 8 93.5 8 C 93.3 8.8 93 9.3 92.4 9.7 C 91.9 10.2 91.2 10.4 90.3 10.4 C 89.3 10.4 88.4 10 87.8 9.4 C 87.2 8.7 86.9 7.8 86.9 6.6 C 86.9 5.4 87.2 4.5 87.8 3.8 C 88.5 3.1 89.3 2.8 90.3 2.8 C 91.2 2.8 92 3.1 92.6 3.8 C 93.3 4.4 93.6 5.4 93.6 6.5 C 93.6 6.6 93.6 6.7 93.6 6.9 C 93.6 6.9 88.1 6.9 88.1 6.9 C 88.2 7.7 88.4 8.3 88.8 8.7 C 89.2 9.1 89.7 9.3 90.3 9.3 C 90.8 9.3 91.2 9.2 91.5 9 C 91.8 8.8 92.1 8.4 92.3 7.9 Z M 88.2 5.9 C 88.2 5.9 92.3 5.9 92.3 5.9 C 92.2 5.3 92.1 4.8 91.8 4.5 C 91.4 4 90.9 3.8 90.3 3.8 C 89.7 3.8 89.2 4 88.9 4.3 C 88.5 4.7 88.3 5.2 88.2 5.9 Z M 106.2 10.4 C 105.7 10.1 105.2 9.6 104.7 9 C 104.3 9.5 103.8 9.8 103.4 10 C 102.9 10.3 102.4 10.4 101.8 10.4 C 100.8 10.4 100 10 99.4 9.3 C 98.9 8.8 98.6 8.1 98.6 7.4 C 98.6 6.8 98.8 6.3 99.2 5.8 C 99.6 5.3 100.2 4.8 101 4.4 C 100.6 3.9 100.3 3.5 100.1 3.2 C 100 2.8 99.9 2.5 99.9 2.2 C 99.9 1.6 100.1 1.1 100.6 0.7 C 101.1 0.2 101.7 0 102.4 0 C 103.1 0 103.6 0.2 104.1 0.6 C 104.5 1 104.7 1.6 104.7 2.1 C 104.7 3.1 104.1 3.9 102.8 4.6 C 102.8 4.6 104.6 6.9 104.6 6.9 C 104.8 6.5 105 6 105.1 5.5 C 105.1 5.5 106.4 5.7 106.4 5.7 C 106.2 6.6 105.9 7.3 105.5 7.9 C 106 8.5 106.5 9 107.1 9.4 C 107.06 9.45 106.2 10.4 106.2 10.4 C 106.2 10.4 106.23 10.42 106.2 10.4 Z M 102.2 3.8 C 102.7 3.5 103.1 3.2 103.2 3 C 103.4 2.7 103.5 2.5 103.5 2.2 C 103.5 1.8 103.4 1.6 103.1 1.3 C 102.9 1.1 102.7 1 102.3 1 C 102 1 101.7 1.1 101.5 1.3 C 101.3 1.5 101.2 1.8 101.2 2.1 C 101.2 2.3 101.2 2.4 101.3 2.6 C 101.4 2.8 101.5 3 101.6 3.2 C 101.6 3.2 102.2 3.8 102.2 3.8 Z M 103.9 8 C 103.9 8 101.7 5.2 101.7 5.2 C 101 5.6 100.5 6 100.3 6.3 C 100.1 6.7 100 7 100 7.4 C 100 7.8 100.1 8.2 100.5 8.6 C 100.8 9.1 101.2 9.3 101.8 9.3 C 102.2 9.3 102.6 9.2 103 8.9 C 103.4 8.7 103.7 8.4 103.9 8 Z M 112.4 10.2 L 112.4 0.2 C 112.4 0.2 116.81 0.17 116.8 0.2 C 117.7 0.2 118.4 0.3 118.8 0.4 C 119.3 0.6 119.7 0.9 120 1.4 C 120.2 1.9 120.4 2.4 120.4 2.9 C 120.4 3.6 120.2 4.2 119.7 4.7 C 119.2 5.2 118.5 5.5 117.6 5.6 C 117.9 5.8 118.2 6 118.4 6.1 C 118.7 6.5 119.1 6.9 119.5 7.5 C 119.46 7.46 121.2 10.2 121.2 10.2 L 119.5 10.2 C 119.5 10.2 118.21 8.11 118.2 8.1 C 117.8 7.5 117.5 7 117.3 6.7 C 117 6.4 116.8 6.2 116.6 6.1 C 116.4 5.9 116.2 5.8 116 5.8 C 115.8 5.8 115.6 5.7 115.2 5.7 C 115.23 5.74 113.7 5.7 113.7 5.7 L 113.7 10.2 L 112.4 10.2 Z M 113.7 4.6 C 113.7 4.6 116.55 4.59 116.5 4.6 C 117.2 4.6 117.6 4.5 118 4.4 C 118.3 4.3 118.6 4.1 118.7 3.8 C 118.9 3.5 119 3.2 119 2.9 C 119 2.4 118.8 2 118.5 1.7 C 118.2 1.4 117.6 1.3 116.9 1.3 C 116.87 1.28 113.7 1.3 113.7 1.3 L 113.7 4.6 Z M 122.3 1.6 L 122.3 0.2 L 123.5 0.2 L 123.5 1.6 L 122.3 1.6 Z M 122.3 10.2 L 122.3 2.9 L 123.5 2.9 L 123.5 10.2 L 122.3 10.2 Z M 124.9 8 C 124.9 8 126.1 7.8 126.1 7.8 C 126.2 8.3 126.4 8.7 126.7 9 C 127 9.2 127.5 9.3 128 9.3 C 128.6 9.3 129 9.2 129.3 9 C 129.5 8.8 129.7 8.5 129.7 8.2 C 129.7 7.9 129.6 7.7 129.3 7.5 C 129.2 7.4 128.7 7.3 128.1 7.1 C 127.2 6.9 126.5 6.7 126.2 6.5 C 125.8 6.4 125.6 6.1 125.4 5.8 C 125.2 5.5 125.1 5.2 125.1 4.9 C 125.1 4.5 125.2 4.2 125.3 4 C 125.5 3.7 125.7 3.5 126 3.3 C 126.1 3.1 126.4 3 126.7 2.9 C 127.1 2.8 127.4 2.8 127.8 2.8 C 128.4 2.8 128.9 2.9 129.3 3 C 129.7 3.2 130 3.4 130.3 3.7 C 130.5 4 130.6 4.3 130.7 4.8 C 130.7 4.8 129.5 5 129.5 5 C 129.4 4.6 129.3 4.3 129 4.1 C 128.7 3.9 128.4 3.8 127.9 3.8 C 127.3 3.8 126.9 3.9 126.7 4.1 C 126.4 4.2 126.3 4.5 126.3 4.7 C 126.3 4.9 126.4 5 126.5 5.1 C 126.6 5.3 126.7 5.4 126.9 5.5 C 127.1 5.5 127.4 5.6 128 5.8 C 128.9 6 129.5 6.2 129.8 6.4 C 130.2 6.5 130.5 6.7 130.7 7 C 130.9 7.3 130.9 7.6 130.9 8.1 C 130.9 8.5 130.8 8.9 130.6 9.2 C 130.4 9.6 130 9.9 129.6 10.1 C 129.1 10.3 128.6 10.4 128 10.4 C 127.1 10.4 126.4 10.2 125.9 9.8 C 125.4 9.4 125.1 8.8 124.9 8 Z M 132.4 10.2 L 132.4 0.2 L 133.6 0.2 L 133.6 5.9 L 136.6 2.9 L 138.2 2.9 L 135.4 5.6 L 138.4 10.2 L 136.9 10.2 L 134.5 6.5 L 133.6 7.3 L 133.6 10.2 L 132.4 10.2 Z M 143.1 5.3 C 143.1 3.6 143.5 2.3 144.4 1.4 C 145.3 0.5 146.4 0 147.9 0 C 148.8 0 149.6 0.2 150.4 0.7 C 151.1 1.1 151.7 1.7 152.1 2.5 C 152.4 3.3 152.6 4.2 152.6 5.2 C 152.6 6.2 152.4 7.1 152 7.9 C 151.6 8.7 151 9.3 150.3 9.7 C 149.5 10.2 148.7 10.4 147.8 10.4 C 146.9 10.4 146.1 10.1 145.3 9.7 C 144.6 9.2 144 8.6 143.6 7.8 C 143.2 7 143.1 6.2 143.1 5.3 Z M 144.4 5.3 C 144.4 6.5 144.7 7.5 145.4 8.2 C 146 8.9 146.9 9.2 147.8 9.2 C 148.8 9.2 149.7 8.9 150.3 8.2 C 150.9 7.5 151.3 6.5 151.3 5.2 C 151.3 4.4 151.1 3.7 150.9 3.1 C 150.6 2.4 150.2 2 149.6 1.6 C 149.1 1.3 148.5 1.1 147.9 1.1 C 146.9 1.1 146.1 1.5 145.4 2.1 C 144.8 2.7 144.4 3.8 144.4 5.3 Z M 154.5 10.2 L 154.5 3.9 L 153.4 3.9 L 153.4 2.9 L 154.5 2.9 C 154.5 2.9 154.49 2.16 154.5 2.2 C 154.5 1.7 154.5 1.3 154.6 1.1 C 154.7 0.8 154.9 0.5 155.2 0.3 C 155.5 0.1 156 0 156.5 0 C 156.8 0 157.2 0 157.6 0.1 C 157.6 0.1 157.5 1.2 157.5 1.2 C 157.2 1.2 157 1.1 156.7 1.1 C 156.4 1.1 156.1 1.2 155.9 1.4 C 155.8 1.5 155.7 1.8 155.7 2.3 C 155.71 2.26 155.7 2.9 155.7 2.9 L 157.1 2.9 L 157.1 3.9 L 155.7 3.9 L 155.7 10.2 L 154.5 10.2 Z M 158.4 10.2 L 158.4 3.9 L 157.3 3.9 L 157.3 2.9 L 158.4 2.9 C 158.4 2.9 158.41 2.23 158.4 2.2 C 158.4 1.5 158.6 1 158.9 0.6 C 159.2 0.2 159.7 0 160.3 0 C 160.8 0 161.2 0.1 161.6 0.2 C 161.6 0.2 161.4 1.2 161.4 1.2 C 161.2 1.2 160.9 1.1 160.7 1.1 C 160.3 1.1 160 1.2 159.9 1.4 C 159.7 1.6 159.6 1.9 159.6 2.5 C 159.64 2.46 159.6 2.9 159.6 2.9 L 161 2.9 L 161 3.9 L 159.6 3.9 L 159.6 10.2 L 158.4 10.2 Z M 162 1.6 L 162 0.2 L 163.2 0.2 L 163.2 1.6 L 162 1.6 Z M 162 10.2 L 162 2.9 L 163.2 2.9 L 163.2 10.2 L 162 10.2 Z M 169.8 7.5 C 169.8 7.5 171 7.7 171 7.7 C 170.9 8.5 170.6 9.2 170 9.6 C 169.5 10.1 168.8 10.4 168 10.4 C 167 10.4 166.2 10 165.6 9.4 C 165 8.7 164.7 7.8 164.7 6.6 C 164.7 5.8 164.8 5.1 165.1 4.5 C 165.4 3.9 165.7 3.5 166.3 3.2 C 166.8 2.9 167.4 2.8 168 2.8 C 168.8 2.8 169.4 3 169.9 3.4 C 170.4 3.8 170.8 4.3 170.9 5.1 C 170.9 5.1 169.7 5.3 169.7 5.3 C 169.6 4.8 169.4 4.4 169.1 4.1 C 168.8 3.9 168.5 3.8 168.1 3.8 C 167.4 3.8 166.9 4 166.6 4.4 C 166.2 4.9 166 5.6 166 6.6 C 166 7.5 166.2 8.2 166.5 8.7 C 166.9 9.1 167.4 9.3 168 9.3 C 168.5 9.3 168.9 9.2 169.2 8.9 C 169.5 8.6 169.7 8.1 169.8 7.5 Z M 177.1 7.9 C 177.1 7.9 178.3 8 178.3 8 C 178.1 8.8 177.8 9.3 177.2 9.7 C 176.7 10.2 176 10.4 175.1 10.4 C 174.1 10.4 173.2 10 172.6 9.4 C 172 8.7 171.7 7.8 171.7 6.6 C 171.7 5.4 172 4.5 172.6 3.8 C 173.2 3.1 174.1 2.8 175.1 2.8 C 176 2.8 176.8 3.1 177.4 3.8 C 178.1 4.4 178.4 5.4 178.4 6.5 C 178.4 6.6 178.4 6.7 178.4 6.9 C 178.4 6.9 172.9 6.9 172.9 6.9 C 173 7.7 173.2 8.3 173.6 8.7 C 174 9.1 174.5 9.3 175.1 9.3 C 175.6 9.3 176 9.2 176.3 9 C 176.6 8.8 176.9 8.4 177.1 7.9 Z M 173 5.9 C 173 5.9 177.1 5.9 177.1 5.9 C 177 5.3 176.9 4.8 176.6 4.5 C 176.2 4 175.7 3.8 175.1 3.8 C 174.5 3.8 174 4 173.6 4.3 C 173.3 4.7 173.1 5.2 173 5.9 Z M 179.9 10.2 L 179.9 2.9 L 181 2.9 C 181 2.9 180.96 4.03 181 4 C 181.2 3.5 181.5 3.2 181.7 3 C 182 2.9 182.2 2.8 182.5 2.8 C 182.9 2.8 183.4 2.9 183.8 3.2 C 183.8 3.2 183.4 4.3 183.4 4.3 C 183.1 4.1 182.8 4 182.5 4 C 182.2 4 182 4.1 181.7 4.3 C 181.5 4.4 181.4 4.7 181.3 5 C 181.2 5.4 181.1 5.9 181.1 6.4 C 181.08 6.39 181.1 10.2 181.1 10.2 L 179.9 10.2 Z " stroke="none" fill="#010102"/>  </g></svg>