<?xml version="1.0" standalone="no"?><!DOCTYPE svg PUBLIC "-//W3C//DTD SVG 1.1//EN" "http://www.w3.org/Graphics/SVG/1.1/DTD/svg11.dtd"><svg xmlns="http://www.w3.org/2000/svg" version="1.1" width="237px" height="33.9px" viewBox="0 -1 237 33.9" style="top:-1px">  <desc>Housing &amp; Property</desc>  <defs/>  <g id="Polygon135256">    <path d="M 1 19.6 L 1 9.6 L 3 9.6 L 3 13.5 L 7 13.5 L 7 9.6 L 9 9.6 L 9 19.6 L 7 19.6 L 7 15.2 L 3 15.2 L 3 19.6 L 1 19.6 Z M 10.7 15.9 C 10.7 15.2 10.8 14.6 11.1 14 C 11.5 13.4 11.9 13 12.5 12.6 C 13.1 12.3 13.7 12.2 14.4 12.2 C 15.5 12.2 16.4 12.5 17.1 13.2 C 17.8 14 18.2 14.9 18.2 15.9 C 18.2 17 17.8 18 17.1 18.7 C 16.4 19.4 15.5 19.8 14.4 19.8 C 13.8 19.8 13.1 19.6 12.5 19.3 C 11.9 19 11.5 18.6 11.1 18 C 10.8 17.4 10.7 16.7 10.7 15.9 Z M 12.6 16 C 12.6 16.7 12.8 17.2 13.2 17.6 C 13.5 18 13.9 18.2 14.4 18.2 C 14.9 18.2 15.3 18 15.7 17.6 C 16 17.2 16.2 16.7 16.2 15.9 C 16.2 15.2 16 14.7 15.7 14.3 C 15.3 13.9 14.9 13.7 14.4 13.7 C 13.9 13.7 13.5 13.9 13.2 14.3 C 12.8 14.7 12.6 15.2 12.6 16 Z M 24.4 19.6 C 24.4 19.6 24.45 18.51 24.4 18.5 C 24.2 18.9 23.8 19.2 23.4 19.4 C 23 19.6 22.5 19.8 22 19.8 C 21.6 19.8 21.1 19.6 20.7 19.4 C 20.3 19.2 20.1 18.9 19.9 18.5 C 19.7 18.1 19.6 17.6 19.6 16.9 C 19.63 16.93 19.6 12.3 19.6 12.3 L 21.5 12.3 C 21.5 12.3 21.55 15.67 21.5 15.7 C 21.5 16.7 21.6 17.3 21.7 17.5 C 21.7 17.8 21.9 18 22 18.1 C 22.2 18.2 22.5 18.3 22.8 18.3 C 23.1 18.3 23.4 18.2 23.6 18 C 23.9 17.8 24.1 17.6 24.2 17.4 C 24.3 17.1 24.3 16.4 24.3 15.4 C 24.31 15.39 24.3 12.3 24.3 12.3 L 26.2 12.3 L 26.2 19.6 L 24.4 19.6 Z M 27.5 17.5 C 27.5 17.5 29.5 17.2 29.5 17.2 C 29.6 17.6 29.7 17.9 30 18.1 C 30.2 18.3 30.6 18.4 31 18.4 C 31.5 18.4 31.9 18.3 32.1 18.1 C 32.3 18 32.4 17.8 32.4 17.6 C 32.4 17.4 32.3 17.3 32.3 17.2 C 32.2 17.1 31.9 17 31.6 17 C 30.1 16.6 29.1 16.3 28.7 16 C 28.1 15.6 27.8 15.1 27.8 14.4 C 27.8 13.8 28.1 13.2 28.6 12.8 C 29.1 12.4 29.8 12.2 30.9 12.2 C 31.9 12.2 32.6 12.3 33.1 12.7 C 33.6 13 33.9 13.5 34.1 14.1 C 34.1 14.1 32.3 14.4 32.3 14.4 C 32.2 14.1 32 13.9 31.8 13.8 C 31.6 13.6 31.3 13.5 30.9 13.5 C 30.4 13.5 30 13.6 29.8 13.8 C 29.7 13.9 29.6 14 29.6 14.2 C 29.6 14.3 29.7 14.4 29.8 14.5 C 30 14.6 30.6 14.8 31.6 15 C 32.6 15.3 33.3 15.6 33.7 15.9 C 34.1 16.2 34.3 16.7 34.3 17.3 C 34.3 18 34 18.6 33.5 19 C 32.9 19.5 32.1 19.8 31 19.8 C 30 19.8 29.2 19.6 28.7 19.2 C 28.1 18.8 27.7 18.2 27.5 17.5 Z M 36 11.3 L 36 9.6 L 37.9 9.6 L 37.9 11.3 L 36 11.3 Z M 36 19.6 L 36 12.3 L 37.9 12.3 L 37.9 19.6 L 36 19.6 Z M 46.5 19.6 L 44.6 19.6 C 44.6 19.6 44.58 15.89 44.6 15.9 C 44.6 15.1 44.5 14.6 44.5 14.4 C 44.4 14.1 44.2 14 44.1 13.8 C 43.9 13.7 43.6 13.6 43.4 13.6 C 43.1 13.6 42.8 13.7 42.5 13.9 C 42.2 14.1 42 14.3 41.9 14.6 C 41.9 14.9 41.8 15.5 41.8 16.3 C 41.8 16.3 41.8 19.6 41.8 19.6 L 39.9 19.6 L 39.9 12.3 L 41.7 12.3 C 41.7 12.3 41.67 13.4 41.7 13.4 C 42.3 12.6 43.1 12.2 44.1 12.2 C 44.5 12.2 44.9 12.2 45.2 12.4 C 45.6 12.6 45.8 12.7 46 13 C 46.2 13.2 46.3 13.5 46.4 13.8 C 46.5 14.1 46.5 14.5 46.5 15.1 C 46.5 15.08 46.5 19.6 46.5 19.6 Z M 48.3 20.3 C 48.3 20.2 48.3 20.2 48.3 20.1 C 48.3 20.1 50.5 20.3 50.5 20.3 C 50.5 20.6 50.6 20.8 50.7 20.9 C 50.9 21 51.2 21.1 51.6 21.1 C 52.1 21.1 52.5 21 52.7 20.8 C 52.9 20.7 53 20.6 53.1 20.4 C 53.1 20.2 53.2 19.9 53.2 19.5 C 53.2 19.5 53.2 18.4 53.2 18.4 C 52.6 19.2 51.9 19.6 51 19.6 C 50 19.6 49.3 19.2 48.7 18.4 C 48.2 17.7 48 16.9 48 15.9 C 48 14.7 48.3 13.8 48.9 13.1 C 49.5 12.5 50.2 12.2 51.1 12.2 C 52 12.2 52.7 12.6 53.3 13.4 C 53.3 13.35 53.3 12.3 53.3 12.3 L 55.1 12.3 C 55.1 12.3 55.1 18.85 55.1 18.8 C 55.1 19.7 55 20.3 54.9 20.8 C 54.7 21.2 54.5 21.5 54.3 21.8 C 54 22 53.7 22.2 53.3 22.3 C 52.8 22.5 52.3 22.5 51.7 22.5 C 50.4 22.5 49.5 22.3 49 21.9 C 48.5 21.5 48.3 21 48.3 20.3 C 48.3 20.3 48.3 20.3 48.3 20.3 Z M 50 15.8 C 50 16.6 50.1 17.1 50.4 17.5 C 50.7 17.9 51.1 18 51.5 18 C 52 18 52.4 17.9 52.7 17.5 C 53 17.1 53.2 16.6 53.2 15.9 C 53.2 15.1 53.1 14.5 52.7 14.2 C 52.4 13.8 52 13.6 51.6 13.6 C 51.1 13.6 50.7 13.8 50.4 14.2 C 50.1 14.5 50 15.1 50 15.8 Z M 69.8 18.4 C 69.8 18.4 68.6 19.9 68.6 19.9 C 68 19.6 67.5 19.2 67 18.7 C 66.6 19.1 66.1 19.3 65.7 19.5 C 65.2 19.7 64.7 19.8 64 19.8 C 62.8 19.8 61.9 19.4 61.2 18.7 C 60.7 18.2 60.5 17.6 60.5 16.8 C 60.5 16.2 60.7 15.6 61.1 15.1 C 61.5 14.6 62 14.2 62.8 13.8 C 62.4 13.4 62.2 13 62 12.6 C 61.8 12.2 61.8 11.9 61.8 11.6 C 61.8 11 62 10.5 62.5 10 C 63 9.6 63.7 9.4 64.6 9.4 C 65.4 9.4 66.1 9.6 66.6 10.1 C 67.1 10.5 67.3 11 67.3 11.7 C 67.3 12.1 67.2 12.5 67 12.8 C 66.7 13.2 66.2 13.6 65.5 14.1 C 65.5 14.1 66.9 15.9 66.9 15.9 C 67.1 15.6 67.2 15.2 67.3 14.8 C 67.3 14.8 69 15.2 69 15.2 C 68.9 15.8 68.7 16.2 68.6 16.5 C 68.5 16.8 68.3 17 68.2 17.2 C 68.4 17.4 68.7 17.7 69 17.9 C 69.4 18.1 69.6 18.3 69.8 18.4 Z M 64.5 12.9 C 64.5 12.9 65.06 12.52 65.1 12.5 C 65.4 12.2 65.6 11.9 65.6 11.6 C 65.6 11.4 65.5 11.2 65.4 11 C 65.2 10.8 64.9 10.8 64.6 10.8 C 64.3 10.8 64.1 10.8 63.9 11 C 63.7 11.1 63.6 11.3 63.6 11.5 C 63.6 11.7 63.8 12 64.1 12.4 C 64.07 12.37 64.5 12.9 64.5 12.9 Z M 63.8 15 C 63.3 15.2 63 15.5 62.8 15.8 C 62.6 16.1 62.5 16.4 62.5 16.8 C 62.5 17.2 62.6 17.5 62.9 17.8 C 63.1 18.1 63.5 18.2 64 18.2 C 64.3 18.2 64.6 18.1 64.8 18 C 65.1 17.9 65.4 17.7 65.7 17.4 C 65.7 17.4 63.8 15 63.8 15 Z M 74.9 19.6 L 74.9 9.6 C 74.9 9.6 78.15 9.57 78.1 9.6 C 79.4 9.6 80.2 9.6 80.6 9.7 C 81.1 9.9 81.6 10.2 82 10.7 C 82.4 11.2 82.6 11.9 82.6 12.7 C 82.6 13.3 82.5 13.8 82.2 14.2 C 82 14.6 81.7 15 81.4 15.2 C 81 15.4 80.7 15.6 80.3 15.7 C 79.9 15.8 79.2 15.8 78.2 15.8 C 78.24 15.81 76.9 15.8 76.9 15.8 L 76.9 19.6 L 74.9 19.6 Z M 76.9 11.3 L 76.9 14.1 C 76.9 14.1 78.03 14.11 78 14.1 C 78.8 14.1 79.4 14.1 79.6 14 C 79.9 13.8 80.1 13.7 80.3 13.5 C 80.4 13.2 80.5 13 80.5 12.7 C 80.5 12.3 80.4 12 80.2 11.8 C 80 11.5 79.7 11.4 79.4 11.3 C 79.1 11.3 78.6 11.3 77.9 11.3 C 77.9 11.27 76.9 11.3 76.9 11.3 Z M 86.1 19.6 L 84.1 19.6 L 84.1 12.3 L 85.9 12.3 C 85.9 12.3 85.93 13.36 85.9 13.4 C 86.2 12.9 86.5 12.6 86.8 12.4 C 87 12.2 87.3 12.2 87.6 12.2 C 88 12.2 88.4 12.3 88.8 12.5 C 88.8 12.5 88.3 14.2 88.3 14.2 C 87.9 14 87.6 13.9 87.3 13.9 C 87.1 13.9 86.9 14 86.7 14.1 C 86.5 14.3 86.3 14.5 86.2 14.9 C 86.1 15.3 86.1 16.1 86.1 17.4 C 86.06 17.35 86.1 19.6 86.1 19.6 Z M 89.2 15.9 C 89.2 15.2 89.4 14.6 89.7 14 C 90 13.4 90.5 13 91 12.6 C 91.6 12.3 92.3 12.2 93 12.2 C 94.1 12.2 95 12.5 95.7 13.2 C 96.4 14 96.7 14.9 96.7 15.9 C 96.7 17 96.4 18 95.7 18.7 C 94.9 19.4 94.1 19.8 93 19.8 C 92.3 19.8 91.7 19.6 91.1 19.3 C 90.5 19 90 18.6 89.7 18 C 89.4 17.4 89.2 16.7 89.2 15.9 Z M 91.2 16 C 91.2 16.7 91.4 17.2 91.7 17.6 C 92.1 18 92.5 18.2 93 18.2 C 93.5 18.2 93.9 18 94.2 17.6 C 94.6 17.2 94.7 16.7 94.7 15.9 C 94.7 15.2 94.6 14.7 94.2 14.3 C 93.9 13.9 93.5 13.7 93 13.7 C 92.5 13.7 92.1 13.9 91.7 14.3 C 91.4 14.7 91.2 15.2 91.2 16 Z M 98.2 12.3 L 100 12.3 C 100 12.3 99.96 13.4 100 13.4 C 100.2 13 100.5 12.7 100.9 12.5 C 101.3 12.3 101.7 12.2 102.2 12.2 C 103.1 12.2 103.8 12.5 104.4 13.2 C 105 13.8 105.3 14.7 105.3 15.9 C 105.3 17.1 105 18.1 104.4 18.7 C 103.8 19.4 103.1 19.8 102.2 19.8 C 101.8 19.8 101.4 19.7 101.1 19.5 C 100.8 19.4 100.5 19.1 100.1 18.7 C 100.09 18.7 100.1 22.4 100.1 22.4 L 98.2 22.4 L 98.2 12.3 Z M 100.1 15.8 C 100.1 16.7 100.2 17.3 100.6 17.6 C 100.9 18 101.3 18.2 101.7 18.2 C 102.2 18.2 102.6 18.1 102.9 17.7 C 103.1 17.3 103.3 16.8 103.3 15.9 C 103.3 15.2 103.1 14.6 102.8 14.2 C 102.5 13.9 102.2 13.7 101.7 13.7 C 101.2 13.7 100.8 13.9 100.5 14.2 C 100.2 14.6 100.1 15.1 100.1 15.8 Z M 111 17.3 C 111 17.3 112.9 17.6 112.9 17.6 C 112.6 18.3 112.3 18.8 111.7 19.2 C 111.2 19.6 110.5 19.8 109.7 19.8 C 108.5 19.8 107.5 19.3 106.9 18.5 C 106.5 17.9 106.2 17 106.2 16 C 106.2 14.8 106.5 13.9 107.2 13.2 C 107.8 12.5 108.6 12.2 109.5 12.2 C 110.6 12.2 111.5 12.5 112.1 13.2 C 112.7 14 113 15 113 16.5 C 113 16.5 108.2 16.5 108.2 16.5 C 108.2 17.1 108.4 17.5 108.7 17.8 C 108.9 18.2 109.3 18.3 109.8 18.3 C 110.1 18.3 110.3 18.2 110.5 18.1 C 110.7 17.9 110.9 17.6 111 17.3 Z M 111.1 15.3 C 111.1 14.8 110.9 14.4 110.7 14.1 C 110.4 13.8 110.1 13.6 109.7 13.6 C 109.2 13.6 108.9 13.8 108.6 14.1 C 108.3 14.4 108.2 14.8 108.2 15.3 C 108.2 15.3 111.1 15.3 111.1 15.3 Z M 116.4 19.6 L 114.5 19.6 L 114.5 12.3 L 116.3 12.3 C 116.3 12.3 116.27 13.36 116.3 13.4 C 116.6 12.9 116.8 12.6 117.1 12.4 C 117.3 12.2 117.6 12.2 117.9 12.2 C 118.4 12.2 118.8 12.3 119.2 12.5 C 119.2 12.5 118.6 14.2 118.6 14.2 C 118.3 14 118 13.9 117.7 13.9 C 117.4 13.9 117.2 14 117 14.1 C 116.8 14.3 116.7 14.5 116.6 14.9 C 116.5 15.3 116.4 16.1 116.4 17.4 C 116.4 17.35 116.4 19.6 116.4 19.6 Z M 123.3 12.3 L 123.3 13.9 L 122 13.9 C 122 13.9 122.03 16.79 122 16.8 C 122 17.4 122 17.7 122.1 17.8 C 122.1 17.9 122.1 18 122.2 18.1 C 122.3 18.1 122.4 18.2 122.6 18.2 C 122.7 18.2 123 18.1 123.3 18 C 123.3 18 123.5 19.5 123.5 19.5 C 123.1 19.7 122.5 19.8 122 19.8 C 121.6 19.8 121.3 19.7 121 19.6 C 120.8 19.5 120.6 19.3 120.4 19.1 C 120.3 18.9 120.2 18.7 120.2 18.4 C 120.1 18.2 120.1 17.7 120.1 17 C 120.1 17.03 120.1 13.9 120.1 13.9 L 119.2 13.9 L 119.2 12.3 L 120.1 12.3 L 120.1 10.9 L 122 9.8 L 122 12.3 L 123.3 12.3 Z M 123.8 12.3 L 125.8 12.3 L 127.5 17.5 L 129.2 12.3 L 131.2 12.3 L 128.7 19.3 C 128.7 19.3 128.21 20.58 128.2 20.6 C 128 21 127.9 21.3 127.7 21.6 C 127.6 21.8 127.4 22 127.2 22.1 C 127 22.2 126.8 22.3 126.5 22.4 C 126.2 22.5 125.9 22.5 125.5 22.5 C 125.1 22.5 124.8 22.5 124.4 22.4 C 124.4 22.4 124.2 20.9 124.2 20.9 C 124.5 21 124.8 21 125 21 C 125.5 21 125.8 20.9 126 20.6 C 126.2 20.4 126.4 20 126.5 19.6 C 126.53 19.61 123.8 12.3 123.8 12.3 Z " stroke="none" fill="#fff"/>  </g></svg>