<?xml version="1.0" standalone="no"?><!DOCTYPE svg PUBLIC "-//W3C//DTD SVG 1.1//EN" "http://www.w3.org/Graphics/SVG/1.1/DTD/svg11.dtd"><svg xmlns="http://www.w3.org/2000/svg" version="1.1" width="136.2px" height="23.9px" viewBox="0 -5 136.2 23.9" style="top:-5px">  <desc>Administration Portal</desc>  <defs/>  <g id="Polygon144338">    <path d="M 0 10.2 L 3.8 0.2 L 5.3 0.2 L 9.4 10.2 L 7.8 10.2 L 6.7 7.2 L 2.5 7.2 L 1.4 10.2 L 0 10.2 Z M 2.9 6.1 L 6.3 6.1 C 6.3 6.1 5.22 3.3 5.2 3.3 C 4.9 2.5 4.7 1.8 4.5 1.2 C 4.4 1.9 4.2 2.5 4 3.1 C 3.97 3.14 2.9 6.1 2.9 6.1 Z M 15 10.2 C 15 10.2 14.97 9.28 15 9.3 C 14.5 10 13.8 10.4 12.9 10.4 C 12.4 10.4 11.8 10.2 11.3 9.9 C 10.9 9.6 10.5 9.1 10.2 8.5 C 9.9 8 9.8 7.3 9.8 6.6 C 9.8 5.8 9.9 5.2 10.2 4.6 C 10.4 4 10.8 3.6 11.3 3.2 C 11.7 2.9 12.3 2.8 12.9 2.8 C 13.3 2.8 13.7 2.9 14.1 3 C 14.4 3.2 14.7 3.5 14.9 3.8 C 14.89 3.77 14.9 0.2 14.9 0.2 L 16.1 0.2 L 16.1 10.2 L 15 10.2 Z M 11.1 6.6 C 11.1 7.5 11.3 8.2 11.7 8.7 C 12.1 9.1 12.5 9.3 13.1 9.3 C 13.6 9.3 14.1 9.1 14.4 8.7 C 14.8 8.2 15 7.6 15 6.7 C 15 5.7 14.8 4.9 14.4 4.5 C 14 4 13.6 3.8 13 3.8 C 12.5 3.8 12 4 11.6 4.5 C 11.3 4.9 11.1 5.6 11.1 6.6 Z M 18 10.2 L 18 2.9 L 19.1 2.9 C 19.1 2.9 19.15 3.95 19.1 4 C 19.4 3.6 19.7 3.3 20.1 3.1 C 20.4 2.9 20.9 2.8 21.3 2.8 C 21.9 2.8 22.3 2.9 22.7 3.1 C 23 3.3 23.3 3.6 23.4 4 C 24 3.2 24.7 2.8 25.6 2.8 C 26.4 2.8 26.9 3 27.3 3.4 C 27.7 3.8 27.9 4.4 27.9 5.2 C 27.88 5.21 27.9 10.2 27.9 10.2 L 26.7 10.2 C 26.7 10.2 26.66 5.62 26.7 5.6 C 26.7 5.1 26.6 4.8 26.5 4.6 C 26.5 4.3 26.3 4.2 26.1 4 C 25.9 3.9 25.7 3.8 25.4 3.8 C 24.9 3.8 24.4 4 24.1 4.3 C 23.8 4.7 23.6 5.2 23.6 6 C 23.59 5.97 23.6 10.2 23.6 10.2 L 22.4 10.2 C 22.4 10.2 22.36 5.48 22.4 5.5 C 22.4 4.9 22.3 4.5 22.1 4.2 C 21.9 4 21.5 3.8 21.1 3.8 C 20.7 3.8 20.4 3.9 20.1 4.1 C 19.8 4.3 19.6 4.6 19.5 4.9 C 19.3 5.3 19.3 5.8 19.3 6.4 C 19.28 6.43 19.3 10.2 19.3 10.2 L 18 10.2 Z M 29.7 1.6 L 29.7 0.2 L 30.9 0.2 L 30.9 1.6 L 29.7 1.6 Z M 29.7 10.2 L 29.7 2.9 L 30.9 2.9 L 30.9 10.2 L 29.7 10.2 Z M 32.8 10.2 L 32.8 2.9 L 33.9 2.9 C 33.9 2.9 33.93 3.96 33.9 4 C 34.5 3.2 35.2 2.8 36.2 2.8 C 36.7 2.8 37.1 2.8 37.4 3 C 37.8 3.2 38.1 3.4 38.3 3.6 C 38.4 3.9 38.6 4.2 38.7 4.5 C 38.7 4.8 38.7 5.2 38.7 5.7 C 38.72 5.73 38.7 10.2 38.7 10.2 L 37.5 10.2 C 37.5 10.2 37.49 5.78 37.5 5.8 C 37.5 5.3 37.4 4.9 37.3 4.7 C 37.2 4.4 37.1 4.2 36.8 4.1 C 36.6 3.9 36.3 3.8 36 3.8 C 35.5 3.8 35 4 34.6 4.3 C 34.2 4.7 34 5.3 34 6.2 C 34.05 6.23 34 10.2 34 10.2 L 32.8 10.2 Z M 40.6 1.6 L 40.6 0.2 L 41.8 0.2 L 41.8 1.6 L 40.6 1.6 Z M 40.6 10.2 L 40.6 2.9 L 41.8 2.9 L 41.8 10.2 L 40.6 10.2 Z M 43.2 8 C 43.2 8 44.4 7.8 44.4 7.8 C 44.5 8.3 44.7 8.7 45 9 C 45.3 9.2 45.8 9.3 46.3 9.3 C 46.9 9.3 47.3 9.2 47.6 9 C 47.9 8.8 48 8.5 48 8.2 C 48 7.9 47.9 7.7 47.6 7.5 C 47.5 7.4 47 7.3 46.4 7.1 C 45.5 6.9 44.8 6.7 44.5 6.5 C 44.1 6.4 43.9 6.1 43.7 5.8 C 43.5 5.5 43.4 5.2 43.4 4.9 C 43.4 4.5 43.5 4.2 43.7 4 C 43.8 3.7 44 3.5 44.3 3.3 C 44.4 3.1 44.7 3 45 2.9 C 45.4 2.8 45.7 2.8 46.1 2.8 C 46.7 2.8 47.2 2.9 47.6 3 C 48 3.2 48.4 3.4 48.6 3.7 C 48.8 4 48.9 4.3 49 4.8 C 49 4.8 47.8 5 47.8 5 C 47.7 4.6 47.6 4.3 47.3 4.1 C 47 3.9 46.7 3.8 46.2 3.8 C 45.6 3.8 45.2 3.9 45 4.1 C 44.7 4.2 44.6 4.5 44.6 4.7 C 44.6 4.9 44.7 5 44.8 5.1 C 44.9 5.3 45 5.4 45.2 5.5 C 45.4 5.5 45.7 5.6 46.3 5.8 C 47.2 6 47.8 6.2 48.1 6.4 C 48.5 6.5 48.8 6.7 49 7 C 49.2 7.3 49.3 7.6 49.3 8.1 C 49.3 8.5 49.1 8.9 48.9 9.2 C 48.7 9.6 48.3 9.9 47.9 10.1 C 47.4 10.3 46.9 10.4 46.3 10.4 C 45.4 10.4 44.7 10.2 44.2 9.8 C 43.7 9.4 43.4 8.8 43.2 8 Z M 52.9 9.1 C 53 9.1 53.2 9.1 53.4 9.1 C 53.4 9.1 53.6 10.2 53.6 10.2 C 53.2 10.3 52.9 10.3 52.7 10.3 C 52.2 10.3 51.9 10.2 51.6 10.1 C 51.4 9.9 51.2 9.7 51.1 9.5 C 51 9.3 50.9 8.8 50.9 8.1 C 50.94 8.07 50.9 3.9 50.9 3.9 L 50 3.9 L 50 2.9 L 50.9 2.9 L 50.9 1.1 L 52.2 0.4 L 52.2 2.9 L 53.4 2.9 L 53.4 3.9 L 52.2 3.9 C 52.2 3.9 52.17 8.13 52.2 8.1 C 52.2 8.5 52.2 8.7 52.2 8.8 C 52.3 8.9 52.3 9 52.4 9.1 C 52.5 9.1 52.7 9.1 52.9 9.1 C 52.9 9.1 52.9 9.1 52.9 9.1 Z M 54.6 10.2 L 54.6 2.9 L 55.7 2.9 C 55.7 2.9 55.7 4.03 55.7 4 C 56 3.5 56.2 3.2 56.5 3 C 56.7 2.9 57 2.8 57.3 2.8 C 57.7 2.8 58.1 2.9 58.5 3.2 C 58.5 3.2 58.1 4.3 58.1 4.3 C 57.8 4.1 57.5 4 57.2 4 C 56.9 4 56.7 4.1 56.5 4.3 C 56.3 4.4 56.1 4.7 56 5 C 55.9 5.4 55.8 5.9 55.8 6.4 C 55.82 6.39 55.8 10.2 55.8 10.2 L 54.6 10.2 Z M 64.3 10.2 C 64.1 9.9 64 9.6 64 9.3 C 63.5 9.7 63.1 10 62.7 10.1 C 62.3 10.3 61.8 10.4 61.3 10.4 C 60.5 10.4 59.9 10.2 59.5 9.8 C 59.1 9.4 58.9 8.9 58.9 8.3 C 58.9 7.9 58.9 7.6 59.1 7.3 C 59.3 7 59.5 6.8 59.7 6.6 C 60 6.4 60.3 6.3 60.6 6.2 C 60.9 6.1 61.2 6.1 61.7 6 C 62.7 5.9 63.4 5.7 63.9 5.6 C 63.9 5.4 63.9 5.3 63.9 5.3 C 63.9 4.8 63.8 4.4 63.6 4.2 C 63.2 3.9 62.8 3.8 62.2 3.8 C 61.6 3.8 61.2 3.9 60.9 4.1 C 60.6 4.3 60.4 4.7 60.3 5.2 C 60.3 5.2 59.1 5 59.1 5 C 59.2 4.5 59.4 4.1 59.6 3.8 C 59.9 3.4 60.2 3.2 60.7 3 C 61.2 2.9 61.7 2.8 62.3 2.8 C 63 2.8 63.5 2.8 63.8 3 C 64.2 3.1 64.5 3.3 64.7 3.5 C 64.9 3.8 65 4 65.1 4.4 C 65.1 4.6 65.1 5 65.1 5.5 C 65.1 5.5 65.1 7.2 65.1 7.2 C 65.1 8.3 65.2 9 65.2 9.3 C 65.3 9.6 65.4 9.9 65.5 10.2 C 65.54 10.19 64.3 10.2 64.3 10.2 C 64.3 10.2 64.25 10.19 64.3 10.2 Z M 63.9 6.5 C 63.5 6.7 62.8 6.9 61.9 7 C 61.4 7.1 61 7.2 60.8 7.3 C 60.6 7.4 60.4 7.5 60.3 7.7 C 60.2 7.8 60.2 8 60.2 8.2 C 60.2 8.6 60.3 8.8 60.5 9.1 C 60.8 9.3 61.1 9.4 61.6 9.4 C 62.1 9.4 62.5 9.3 62.9 9.1 C 63.3 8.9 63.5 8.6 63.7 8.2 C 63.8 8 63.9 7.5 63.9 7 C 63.9 7 63.9 6.5 63.9 6.5 Z M 69.2 9.1 C 69.3 9.1 69.5 9.1 69.7 9.1 C 69.7 9.1 69.9 10.2 69.9 10.2 C 69.6 10.3 69.3 10.3 69 10.3 C 68.5 10.3 68.2 10.2 67.9 10.1 C 67.7 9.9 67.5 9.7 67.4 9.5 C 67.3 9.3 67.3 8.8 67.3 8.1 C 67.28 8.07 67.3 3.9 67.3 3.9 L 66.4 3.9 L 66.4 2.9 L 67.3 2.9 L 67.3 1.1 L 68.5 0.4 L 68.5 2.9 L 69.7 2.9 L 69.7 3.9 L 68.5 3.9 C 68.5 3.9 68.5 8.13 68.5 8.1 C 68.5 8.5 68.5 8.7 68.6 8.8 C 68.6 8.9 68.7 9 68.8 9.1 C 68.9 9.1 69 9.1 69.2 9.1 C 69.2 9.1 69.2 9.1 69.2 9.1 Z M 71 1.6 L 71 0.2 L 72.2 0.2 L 72.2 1.6 L 71 1.6 Z M 71 10.2 L 71 2.9 L 72.2 2.9 L 72.2 10.2 L 71 10.2 Z M 73.6 6.6 C 73.6 5.2 74 4.2 74.7 3.6 C 75.3 3 76.1 2.8 77 2.8 C 78 2.8 78.8 3.1 79.4 3.7 C 80.1 4.4 80.4 5.3 80.4 6.5 C 80.4 7.4 80.3 8.1 80 8.7 C 79.7 9.2 79.3 9.6 78.8 9.9 C 78.2 10.2 77.6 10.4 77 10.4 C 76 10.4 75.2 10 74.5 9.4 C 73.9 8.7 73.6 7.8 73.6 6.6 Z M 74.9 6.6 C 74.9 7.5 75.1 8.2 75.5 8.7 C 75.9 9.1 76.4 9.3 77 9.3 C 77.6 9.3 78.1 9.1 78.5 8.6 C 78.9 8.2 79.1 7.5 79.1 6.5 C 79.1 5.6 78.9 4.9 78.5 4.5 C 78.1 4 77.6 3.8 77 3.8 C 76.4 3.8 75.9 4 75.5 4.5 C 75.1 4.9 74.9 5.6 74.9 6.6 Z M 81.8 10.2 L 81.8 2.9 L 82.9 2.9 C 82.9 2.9 82.95 3.96 82.9 4 C 83.5 3.2 84.3 2.8 85.3 2.8 C 85.7 2.8 86.1 2.8 86.5 3 C 86.8 3.2 87.1 3.4 87.3 3.6 C 87.5 3.9 87.6 4.2 87.7 4.5 C 87.7 4.8 87.7 5.2 87.7 5.7 C 87.74 5.73 87.7 10.2 87.7 10.2 L 86.5 10.2 C 86.5 10.2 86.51 5.78 86.5 5.8 C 86.5 5.3 86.5 4.9 86.4 4.7 C 86.3 4.4 86.1 4.2 85.9 4.1 C 85.6 3.9 85.3 3.8 85 3.8 C 84.5 3.8 84 4 83.6 4.3 C 83.3 4.7 83.1 5.3 83.1 6.2 C 83.07 6.23 83.1 10.2 83.1 10.2 L 81.8 10.2 Z M 93.7 10.2 L 93.7 0.2 C 93.7 0.2 97.45 0.17 97.5 0.2 C 98.1 0.2 98.6 0.2 99 0.3 C 99.5 0.3 99.9 0.5 100.2 0.7 C 100.5 1 100.8 1.3 101 1.7 C 101.2 2.1 101.3 2.6 101.3 3.1 C 101.3 3.9 101.1 4.6 100.5 5.2 C 100 5.8 99 6.1 97.6 6.1 C 97.57 6.12 95 6.1 95 6.1 L 95 10.2 L 93.7 10.2 Z M 95 4.9 C 95 4.9 97.59 4.94 97.6 4.9 C 98.4 4.9 99.1 4.8 99.4 4.5 C 99.8 4.1 100 3.7 100 3.1 C 100 2.7 99.8 2.3 99.6 2 C 99.4 1.7 99.1 1.5 98.8 1.4 C 98.6 1.4 98.2 1.4 97.6 1.4 C 97.56 1.35 95 1.4 95 1.4 L 95 4.9 Z M 102.4 6.6 C 102.4 5.2 102.8 4.2 103.5 3.6 C 104.1 3 104.9 2.8 105.8 2.8 C 106.8 2.8 107.6 3.1 108.2 3.7 C 108.9 4.4 109.2 5.3 109.2 6.5 C 109.2 7.4 109.1 8.1 108.8 8.7 C 108.5 9.2 108.1 9.6 107.6 9.9 C 107 10.2 106.4 10.4 105.8 10.4 C 104.8 10.4 104 10 103.3 9.4 C 102.7 8.7 102.4 7.8 102.4 6.6 Z M 103.7 6.6 C 103.7 7.5 103.9 8.2 104.3 8.7 C 104.7 9.1 105.2 9.3 105.8 9.3 C 106.4 9.3 106.9 9.1 107.3 8.6 C 107.7 8.2 107.9 7.5 107.9 6.5 C 107.9 5.6 107.7 4.9 107.3 4.5 C 106.9 4 106.4 3.8 105.8 3.8 C 105.2 3.8 104.7 4 104.3 4.5 C 103.9 4.9 103.7 5.6 103.7 6.6 Z M 110.6 10.2 L 110.6 2.9 L 111.7 2.9 C 111.7 2.9 111.73 4.03 111.7 4 C 112 3.5 112.3 3.2 112.5 3 C 112.8 2.9 113 2.8 113.3 2.8 C 113.7 2.8 114.1 2.9 114.6 3.2 C 114.6 3.2 114.1 4.3 114.1 4.3 C 113.8 4.1 113.5 4 113.2 4 C 113 4 112.7 4.1 112.5 4.3 C 112.3 4.4 112.2 4.7 112.1 5 C 111.9 5.4 111.9 5.9 111.9 6.4 C 111.86 6.39 111.9 10.2 111.9 10.2 L 110.6 10.2 Z M 117.4 9.1 C 117.6 9.1 117.8 9.1 118 9.1 C 118 9.1 118.2 10.2 118.2 10.2 C 117.8 10.3 117.5 10.3 117.2 10.3 C 116.8 10.3 116.4 10.2 116.2 10.1 C 116 9.9 115.8 9.7 115.7 9.5 C 115.6 9.3 115.5 8.8 115.5 8.1 C 115.53 8.07 115.5 3.9 115.5 3.9 L 114.6 3.9 L 114.6 2.9 L 115.5 2.9 L 115.5 1.1 L 116.8 0.4 L 116.8 2.9 L 118 2.9 L 118 3.9 L 116.8 3.9 C 116.8 3.9 116.75 8.13 116.8 8.1 C 116.8 8.5 116.8 8.7 116.8 8.8 C 116.9 8.9 116.9 9 117 9.1 C 117.1 9.1 117.3 9.1 117.4 9.1 C 117.4 9.1 117.4 9.1 117.4 9.1 Z M 124.2 10.2 C 124 9.9 124 9.6 123.9 9.3 C 123.5 9.7 123 10 122.6 10.1 C 122.2 10.3 121.7 10.4 121.3 10.4 C 120.5 10.4 119.8 10.2 119.4 9.8 C 119 9.4 118.8 8.9 118.8 8.3 C 118.8 7.9 118.9 7.6 119 7.3 C 119.2 7 119.4 6.8 119.7 6.6 C 119.9 6.4 120.2 6.3 120.5 6.2 C 120.8 6.1 121.1 6.1 121.6 6 C 122.6 5.9 123.4 5.7 123.8 5.6 C 123.8 5.4 123.8 5.3 123.8 5.3 C 123.8 4.8 123.7 4.4 123.5 4.2 C 123.2 3.9 122.7 3.8 122.1 3.8 C 121.5 3.8 121.1 3.9 120.8 4.1 C 120.5 4.3 120.3 4.7 120.2 5.2 C 120.2 5.2 119 5 119 5 C 119.1 4.5 119.3 4.1 119.5 3.8 C 119.8 3.4 120.1 3.2 120.6 3 C 121.1 2.9 121.6 2.8 122.3 2.8 C 122.9 2.8 123.4 2.8 123.8 3 C 124.2 3.1 124.4 3.3 124.6 3.5 C 124.8 3.8 124.9 4 125 4.4 C 125 4.6 125.1 5 125.1 5.5 C 125.1 5.5 125.1 7.2 125.1 7.2 C 125.1 8.3 125.1 9 125.1 9.3 C 125.2 9.6 125.3 9.9 125.5 10.2 C 125.46 10.19 124.2 10.2 124.2 10.2 C 124.2 10.2 124.17 10.19 124.2 10.2 Z M 123.8 6.5 C 123.4 6.7 122.7 6.9 121.8 7 C 121.3 7.1 121 7.2 120.7 7.3 C 120.5 7.4 120.4 7.5 120.3 7.7 C 120.1 7.8 120.1 8 120.1 8.2 C 120.1 8.6 120.2 8.8 120.5 9.1 C 120.7 9.3 121.1 9.4 121.5 9.4 C 122 9.4 122.4 9.3 122.8 9.1 C 123.2 8.9 123.5 8.6 123.6 8.2 C 123.8 8 123.8 7.5 123.8 7 C 123.8 7 123.8 6.5 123.8 6.5 Z M 127 10.2 L 127 0.2 L 128.2 0.2 L 128.2 10.2 L 127 10.2 Z " stroke="none" fill="#ffffff"/>  </g></svg>