<?xml version="1.0" standalone="no"?><!DOCTYPE svg PUBLIC "-//W3C//DTD SVG 1.1//EN" "http://www.w3.org/Graphics/SVG/1.1/DTD/svg11.dtd"><svg xmlns="http://www.w3.org/2000/svg" version="1.1" width="237px" height="33.9px" viewBox="0 -1 237 33.9" style="top:-1px">  <desc>Digital &amp; Data</desc>  <defs/>  <g id="Polygon128636">    <path d="M 1 9.6 C 1 9.6 4.71 9.57 4.7 9.6 C 5.5 9.6 6.2 9.6 6.6 9.8 C 7.2 9.9 7.7 10.2 8.1 10.7 C 8.5 11.1 8.9 11.7 9.1 12.3 C 9.3 12.9 9.4 13.7 9.4 14.7 C 9.4 15.5 9.3 16.2 9.1 16.8 C 8.9 17.5 8.5 18.1 8 18.6 C 7.7 18.9 7.2 19.2 6.6 19.4 C 6.2 19.5 5.6 19.6 4.8 19.6 C 4.82 19.59 1 19.6 1 19.6 L 1 9.6 Z M 3 11.3 L 3 17.9 C 3 17.9 4.55 17.9 4.5 17.9 C 5.1 17.9 5.5 17.9 5.8 17.8 C 6.1 17.7 6.4 17.6 6.6 17.4 C 6.8 17.2 7 16.9 7.1 16.4 C 7.3 16 7.3 15.4 7.3 14.6 C 7.3 13.8 7.3 13.2 7.1 12.8 C 7 12.4 6.8 12.1 6.5 11.8 C 6.3 11.6 6 11.4 5.6 11.4 C 5.3 11.3 4.8 11.3 3.9 11.3 C 3.94 11.27 3 11.3 3 11.3 Z M 11.1 11.3 L 11.1 9.6 L 13 9.6 L 13 11.3 L 11.1 11.3 Z M 11.1 19.6 L 11.1 12.3 L 13 12.3 L 13 19.6 L 11.1 19.6 Z M 14.8 20.3 C 14.8 20.2 14.8 20.2 14.8 20.1 C 14.8 20.1 17 20.3 17 20.3 C 17.1 20.6 17.1 20.8 17.3 20.9 C 17.5 21 17.7 21.1 18.1 21.1 C 18.6 21.1 19 21 19.3 20.8 C 19.4 20.7 19.6 20.6 19.6 20.4 C 19.7 20.2 19.7 19.9 19.7 19.5 C 19.7 19.5 19.7 18.4 19.7 18.4 C 19.2 19.2 18.4 19.6 17.6 19.6 C 16.6 19.6 15.8 19.2 15.2 18.4 C 14.8 17.7 14.6 16.9 14.6 15.9 C 14.6 14.7 14.9 13.8 15.5 13.1 C 16 12.5 16.8 12.2 17.6 12.2 C 18.5 12.2 19.3 12.6 19.9 13.4 C 19.86 13.35 19.9 12.3 19.9 12.3 L 21.7 12.3 C 21.7 12.3 21.66 18.85 21.7 18.8 C 21.7 19.7 21.6 20.3 21.4 20.8 C 21.3 21.2 21.1 21.5 20.8 21.8 C 20.6 22 20.3 22.2 19.8 22.3 C 19.4 22.5 18.9 22.5 18.2 22.5 C 17 22.5 16.1 22.3 15.6 21.9 C 15.1 21.5 14.8 21 14.8 20.3 C 14.8 20.3 14.8 20.3 14.8 20.3 Z M 16.5 15.8 C 16.5 16.6 16.7 17.1 17 17.5 C 17.3 17.9 17.7 18 18.1 18 C 18.6 18 19 17.9 19.3 17.5 C 19.6 17.1 19.8 16.6 19.8 15.9 C 19.8 15.1 19.6 14.5 19.3 14.2 C 19 13.8 18.6 13.6 18.1 13.6 C 17.7 13.6 17.3 13.8 17 14.2 C 16.7 14.5 16.5 15.1 16.5 15.8 Z M 23.6 11.3 L 23.6 9.6 L 25.5 9.6 L 25.5 11.3 L 23.6 11.3 Z M 23.6 19.6 L 23.6 12.3 L 25.5 12.3 L 25.5 19.6 L 23.6 19.6 Z M 30.8 12.3 L 30.8 13.9 L 29.5 13.9 C 29.5 13.9 29.46 16.79 29.5 16.8 C 29.5 17.4 29.5 17.7 29.5 17.8 C 29.5 17.9 29.6 18 29.7 18.1 C 29.8 18.1 29.9 18.2 30 18.2 C 30.2 18.2 30.4 18.1 30.8 18 C 30.8 18 30.9 19.5 30.9 19.5 C 30.5 19.7 30 19.8 29.4 19.8 C 29.1 19.8 28.8 19.7 28.5 19.6 C 28.2 19.5 28 19.3 27.9 19.1 C 27.7 18.9 27.6 18.7 27.6 18.4 C 27.6 18.2 27.5 17.7 27.5 17 C 27.54 17.03 27.5 13.9 27.5 13.9 L 26.7 13.9 L 26.7 12.3 L 27.5 12.3 L 27.5 10.9 L 29.5 9.8 L 29.5 12.3 L 30.8 12.3 Z M 33.5 14.5 C 33.5 14.5 31.8 14.2 31.8 14.2 C 32 13.5 32.3 13 32.8 12.7 C 33.3 12.3 34 12.2 34.9 12.2 C 35.8 12.2 36.4 12.3 36.9 12.5 C 37.3 12.7 37.6 12.9 37.7 13.2 C 37.9 13.6 38 14.1 38 15 C 38 15 38 17.2 38 17.2 C 38 17.8 38 18.3 38.1 18.6 C 38.1 18.9 38.2 19.2 38.4 19.6 C 38.4 19.6 36.5 19.6 36.5 19.6 C 36.5 19.5 36.4 19.3 36.3 19 C 36.3 18.9 36.3 18.8 36.3 18.8 C 35.9 19.1 35.6 19.4 35.2 19.5 C 34.8 19.7 34.4 19.8 34 19.8 C 33.3 19.8 32.7 19.6 32.2 19.1 C 31.8 18.7 31.6 18.2 31.6 17.6 C 31.6 17.2 31.7 16.8 31.9 16.5 C 32.1 16.2 32.4 15.9 32.7 15.8 C 33.1 15.6 33.6 15.5 34.2 15.3 C 35.1 15.2 35.8 15 36.1 14.9 C 36.1 14.9 36.1 14.7 36.1 14.7 C 36.1 14.3 36 14 35.8 13.9 C 35.7 13.7 35.3 13.6 34.8 13.6 C 34.5 13.6 34.2 13.7 34 13.8 C 33.8 14 33.7 14.2 33.5 14.5 Z M 36.1 16.1 C 35.9 16.2 35.5 16.3 34.9 16.4 C 34.4 16.5 34.1 16.6 33.9 16.7 C 33.6 16.9 33.5 17.1 33.5 17.4 C 33.5 17.7 33.6 17.9 33.8 18.1 C 34 18.3 34.3 18.4 34.6 18.4 C 34.9 18.4 35.3 18.3 35.6 18.1 C 35.8 17.9 36 17.7 36 17.4 C 36.1 17.3 36.1 16.9 36.1 16.5 C 36.1 16.5 36.1 16.1 36.1 16.1 Z M 39.9 19.6 L 39.9 9.6 L 41.8 9.6 L 41.8 19.6 L 39.9 19.6 Z M 56.6 18.4 C 56.6 18.4 55.4 19.9 55.4 19.9 C 54.8 19.6 54.3 19.2 53.8 18.7 C 53.3 19.1 52.9 19.3 52.5 19.5 C 52 19.7 51.5 19.8 50.8 19.8 C 49.6 19.8 48.6 19.4 48 18.7 C 47.5 18.2 47.3 17.6 47.3 16.8 C 47.3 16.2 47.5 15.6 47.9 15.1 C 48.2 14.6 48.8 14.2 49.6 13.8 C 49.2 13.4 49 13 48.8 12.6 C 48.6 12.2 48.5 11.9 48.5 11.6 C 48.5 11 48.8 10.5 49.3 10 C 49.8 9.6 50.4 9.4 51.3 9.4 C 52.2 9.4 52.9 9.6 53.4 10.1 C 53.9 10.5 54.1 11 54.1 11.7 C 54.1 12.1 54 12.5 53.7 12.8 C 53.5 13.2 53 13.6 52.3 14.1 C 52.3 14.1 53.7 15.9 53.7 15.9 C 53.8 15.6 54 15.2 54.1 14.8 C 54.1 14.8 55.8 15.2 55.8 15.2 C 55.7 15.8 55.5 16.2 55.4 16.5 C 55.3 16.8 55.1 17 55 17.2 C 55.2 17.4 55.5 17.7 55.8 17.9 C 56.1 18.1 56.4 18.3 56.6 18.4 Z M 51.3 12.9 C 51.3 12.9 51.84 12.52 51.8 12.5 C 52.2 12.2 52.4 11.9 52.4 11.6 C 52.4 11.4 52.3 11.2 52.1 11 C 52 10.8 51.7 10.8 51.4 10.8 C 51.1 10.8 50.8 10.8 50.7 11 C 50.5 11.1 50.4 11.3 50.4 11.5 C 50.4 11.7 50.6 12 50.9 12.4 C 50.85 12.37 51.3 12.9 51.3 12.9 Z M 50.6 15 C 50.1 15.2 49.8 15.5 49.6 15.8 C 49.4 16.1 49.3 16.4 49.3 16.8 C 49.3 17.2 49.4 17.5 49.7 17.8 C 49.9 18.1 50.3 18.2 50.8 18.2 C 51.1 18.2 51.3 18.1 51.6 18 C 51.9 17.9 52.2 17.7 52.5 17.4 C 52.5 17.4 50.6 15 50.6 15 Z M 61.7 9.6 C 61.7 9.6 65.38 9.57 65.4 9.6 C 66.2 9.6 66.8 9.6 67.3 9.8 C 67.9 9.9 68.4 10.2 68.8 10.7 C 69.2 11.1 69.5 11.7 69.8 12.3 C 70 12.9 70.1 13.7 70.1 14.7 C 70.1 15.5 70 16.2 69.8 16.8 C 69.5 17.5 69.2 18.1 68.7 18.6 C 68.4 18.9 67.9 19.2 67.3 19.4 C 66.8 19.5 66.2 19.6 65.5 19.6 C 65.49 19.59 61.7 19.6 61.7 19.6 L 61.7 9.6 Z M 63.7 11.3 L 63.7 17.9 C 63.7 17.9 65.21 17.9 65.2 17.9 C 65.8 17.9 66.2 17.9 66.4 17.8 C 66.8 17.7 67 17.6 67.3 17.4 C 67.5 17.2 67.6 16.9 67.8 16.4 C 67.9 16 68 15.4 68 14.6 C 68 13.8 67.9 13.2 67.8 12.8 C 67.6 12.4 67.5 12.1 67.2 11.8 C 67 11.6 66.7 11.4 66.3 11.4 C 66 11.3 65.4 11.3 64.6 11.3 C 64.61 11.27 63.7 11.3 63.7 11.3 Z M 73.2 14.5 C 73.2 14.5 71.5 14.2 71.5 14.2 C 71.7 13.5 72 13 72.5 12.7 C 73 12.3 73.7 12.2 74.6 12.2 C 75.5 12.2 76.1 12.3 76.5 12.5 C 77 12.7 77.2 12.9 77.4 13.2 C 77.6 13.6 77.7 14.1 77.7 15 C 77.7 15 77.7 17.2 77.7 17.2 C 77.7 17.8 77.7 18.3 77.7 18.6 C 77.8 18.9 77.9 19.2 78.1 19.6 C 78.1 19.6 76.2 19.6 76.2 19.6 C 76.1 19.5 76.1 19.3 76 19 C 76 18.9 76 18.8 75.9 18.8 C 75.6 19.1 75.3 19.4 74.9 19.5 C 74.5 19.7 74.1 19.8 73.7 19.8 C 72.9 19.8 72.4 19.6 71.9 19.1 C 71.5 18.7 71.3 18.2 71.3 17.6 C 71.3 17.2 71.4 16.8 71.6 16.5 C 71.8 16.2 72 15.9 72.4 15.8 C 72.7 15.6 73.3 15.5 73.9 15.3 C 74.8 15.2 75.4 15 75.8 14.9 C 75.8 14.9 75.8 14.7 75.8 14.7 C 75.8 14.3 75.7 14 75.5 13.9 C 75.3 13.7 75 13.6 74.5 13.6 C 74.1 13.6 73.9 13.7 73.7 13.8 C 73.5 14 73.3 14.2 73.2 14.5 Z M 75.8 16.1 C 75.5 16.2 75.2 16.3 74.6 16.4 C 74.1 16.5 73.7 16.6 73.6 16.7 C 73.3 16.9 73.2 17.1 73.2 17.4 C 73.2 17.7 73.3 17.9 73.5 18.1 C 73.7 18.3 74 18.4 74.3 18.4 C 74.6 18.4 74.9 18.3 75.3 18.1 C 75.5 17.9 75.6 17.7 75.7 17.4 C 75.8 17.3 75.8 16.9 75.8 16.5 C 75.8 16.5 75.8 16.1 75.8 16.1 Z M 82.9 12.3 L 82.9 13.9 L 81.6 13.9 C 81.6 13.9 81.59 16.79 81.6 16.8 C 81.6 17.4 81.6 17.7 81.6 17.8 C 81.6 17.9 81.7 18 81.8 18.1 C 81.9 18.1 82 18.2 82.1 18.2 C 82.3 18.2 82.6 18.1 82.9 18 C 82.9 18 83.1 19.5 83.1 19.5 C 82.6 19.7 82.1 19.8 81.5 19.8 C 81.2 19.8 80.9 19.7 80.6 19.6 C 80.3 19.5 80.1 19.3 80 19.1 C 79.9 18.9 79.8 18.7 79.7 18.4 C 79.7 18.2 79.7 17.7 79.7 17 C 79.66 17.03 79.7 13.9 79.7 13.9 L 78.8 13.9 L 78.8 12.3 L 79.7 12.3 L 79.7 10.9 L 81.6 9.8 L 81.6 12.3 L 82.9 12.3 Z M 85.7 14.5 C 85.7 14.5 83.9 14.2 83.9 14.2 C 84.1 13.5 84.5 13 84.9 12.7 C 85.4 12.3 86.1 12.2 87.1 12.2 C 87.9 12.2 88.6 12.3 89 12.5 C 89.4 12.7 89.7 12.9 89.9 13.2 C 90 13.6 90.1 14.1 90.1 15 C 90.1 15 90.1 17.2 90.1 17.2 C 90.1 17.8 90.1 18.3 90.2 18.6 C 90.3 18.9 90.4 19.2 90.5 19.6 C 90.5 19.6 88.6 19.6 88.6 19.6 C 88.6 19.5 88.5 19.3 88.5 19 C 88.4 18.9 88.4 18.8 88.4 18.8 C 88.1 19.1 87.7 19.4 87.3 19.5 C 87 19.7 86.6 19.8 86.1 19.8 C 85.4 19.8 84.8 19.6 84.4 19.1 C 83.9 18.7 83.7 18.2 83.7 17.6 C 83.7 17.2 83.8 16.8 84 16.5 C 84.2 16.2 84.5 15.9 84.8 15.8 C 85.2 15.6 85.7 15.5 86.4 15.3 C 87.3 15.2 87.9 15 88.2 14.9 C 88.2 14.9 88.2 14.7 88.2 14.7 C 88.2 14.3 88.1 14 88 13.9 C 87.8 13.7 87.4 13.6 86.9 13.6 C 86.6 13.6 86.3 13.7 86.1 13.8 C 85.9 14 85.8 14.2 85.7 14.5 Z M 88.2 16.1 C 88 16.2 87.6 16.3 87.1 16.4 C 86.5 16.5 86.2 16.6 86 16.7 C 85.8 16.9 85.6 17.1 85.6 17.4 C 85.6 17.7 85.7 17.9 85.9 18.1 C 86.1 18.3 86.4 18.4 86.7 18.4 C 87.1 18.4 87.4 18.3 87.7 18.1 C 87.9 17.9 88.1 17.7 88.2 17.4 C 88.2 17.3 88.2 16.9 88.2 16.5 C 88.2 16.5 88.2 16.1 88.2 16.1 Z " stroke="none" fill="#fff"/>  </g></svg>