<?xml version="1.0" standalone="no"?><!DOCTYPE svg PUBLIC "-//W3C//DTD SVG 1.1//EN" "http://www.w3.org/Graphics/SVG/1.1/DTD/svg11.dtd"><svg xmlns="http://www.w3.org/2000/svg" version="1.1" width="153px" height="23.9px" viewBox="0 -5 153 23.9" style="top:-5px">  <desc>Subject Matter Expertise</desc>  <defs/>  <g id="Polygon139536">    <path d="M 0.6 7 C 0.6 7 1.9 6.9 1.9 6.9 C 1.9 7.4 2.1 7.8 2.3 8.1 C 2.5 8.4 2.8 8.7 3.3 8.9 C 3.8 9.1 4.3 9.2 4.8 9.2 C 5.3 9.2 5.8 9.1 6.2 8.9 C 6.6 8.8 6.9 8.6 7 8.3 C 7.2 8.1 7.3 7.8 7.3 7.5 C 7.3 7.2 7.2 6.9 7.1 6.6 C 6.9 6.4 6.6 6.2 6.2 6.1 C 5.9 6 5.3 5.8 4.4 5.6 C 3.4 5.3 2.8 5.1 2.4 4.9 C 2 4.7 1.6 4.4 1.4 4 C 1.1 3.6 1 3.2 1 2.8 C 1 2.3 1.2 1.8 1.4 1.3 C 1.7 0.9 2.1 0.6 2.7 0.3 C 3.3 0.1 3.9 0 4.5 0 C 5.3 0 5.9 0.1 6.5 0.4 C 7.1 0.6 7.5 1 7.8 1.4 C 8.1 1.9 8.3 2.4 8.3 3 C 8.3 3 7 3.1 7 3.1 C 7 2.5 6.7 2 6.3 1.7 C 5.9 1.3 5.4 1.2 4.6 1.2 C 3.8 1.2 3.2 1.3 2.8 1.6 C 2.5 1.9 2.3 2.3 2.3 2.7 C 2.3 3 2.4 3.3 2.7 3.6 C 2.9 3.8 3.6 4 4.7 4.3 C 5.8 4.5 6.5 4.7 6.9 4.9 C 7.5 5.2 7.9 5.5 8.2 5.9 C 8.5 6.3 8.6 6.8 8.6 7.4 C 8.6 7.9 8.5 8.4 8.1 8.9 C 7.8 9.3 7.4 9.7 6.8 10 C 6.3 10.2 5.6 10.4 4.9 10.4 C 4 10.4 3.2 10.2 2.6 10 C 2 9.7 1.5 9.3 1.2 8.8 C 0.8 8.2 0.6 7.6 0.6 7 Z M 15 10.2 C 15 10.2 15.02 9.13 15 9.1 C 14.5 9.9 13.7 10.4 12.7 10.4 C 12.3 10.4 11.9 10.3 11.5 10.1 C 11.1 9.9 10.9 9.7 10.7 9.5 C 10.5 9.2 10.4 8.9 10.3 8.6 C 10.3 8.3 10.2 8 10.2 7.4 C 10.23 7.43 10.2 2.9 10.2 2.9 L 11.5 2.9 C 11.5 2.9 11.46 6.96 11.5 7 C 11.5 7.6 11.5 8 11.5 8.3 C 11.6 8.6 11.8 8.8 12 9 C 12.3 9.2 12.6 9.3 13 9.3 C 13.3 9.3 13.7 9.2 14 9 C 14.3 8.8 14.6 8.6 14.7 8.2 C 14.8 7.9 14.9 7.4 14.9 6.8 C 14.89 6.82 14.9 2.9 14.9 2.9 L 16.1 2.9 L 16.1 10.2 L 15 10.2 Z M 19.2 10.2 L 18 10.2 L 18 0.2 L 19.3 0.2 C 19.3 0.2 19.27 3.75 19.3 3.7 C 19.8 3.1 20.5 2.8 21.3 2.8 C 21.7 2.8 22.1 2.9 22.5 3 C 22.9 3.2 23.3 3.5 23.5 3.8 C 23.8 4.1 24 4.5 24.1 5 C 24.3 5.4 24.3 5.9 24.3 6.5 C 24.3 7.7 24 8.7 23.4 9.3 C 22.8 10 22.1 10.4 21.2 10.4 C 20.3 10.4 19.7 10 19.2 9.3 C 19.18 9.28 19.2 10.2 19.2 10.2 Z M 19.2 6.5 C 19.2 7.4 19.3 8 19.5 8.4 C 19.9 9 20.4 9.3 21.1 9.3 C 21.6 9.3 22.1 9.1 22.5 8.6 C 22.9 8.2 23.1 7.5 23.1 6.6 C 23.1 5.6 22.9 4.9 22.5 4.5 C 22.1 4 21.7 3.8 21.2 3.8 C 20.6 3.8 20.1 4 19.8 4.5 C 19.4 4.9 19.2 5.6 19.2 6.5 Z M 25.8 1.6 L 25.8 0.2 L 27.1 0.2 L 27.1 1.6 L 25.8 1.6 Z M 25.2 13.1 C 24.9 13.1 24.6 13.1 24.3 13 C 24.3 13 24.5 12 24.5 12 C 24.7 12 24.9 12.1 25.1 12.1 C 25.3 12.1 25.5 12 25.6 11.8 C 25.8 11.6 25.8 11.2 25.8 10.6 C 25.83 10.56 25.8 2.9 25.8 2.9 L 27.1 2.9 C 27.1 2.9 27.06 10.59 27.1 10.6 C 27.1 11.5 26.9 12.1 26.7 12.5 C 26.4 12.9 25.9 13.1 25.2 13.1 C 25.2 13.1 25.2 13.1 25.2 13.1 Z M 33.9 7.9 C 33.9 7.9 35.2 8 35.2 8 C 35 8.8 34.6 9.3 34.1 9.7 C 33.5 10.2 32.8 10.4 32 10.4 C 30.9 10.4 30.1 10 29.5 9.4 C 28.8 8.7 28.5 7.8 28.5 6.6 C 28.5 5.4 28.8 4.5 29.5 3.8 C 30.1 3.1 30.9 2.8 31.9 2.8 C 32.9 2.8 33.7 3.1 34.3 3.8 C 34.9 4.4 35.2 5.4 35.2 6.5 C 35.2 6.6 35.2 6.7 35.2 6.9 C 35.2 6.9 29.8 6.9 29.8 6.9 C 29.9 7.7 30.1 8.3 30.5 8.7 C 30.9 9.1 31.4 9.3 32 9.3 C 32.5 9.3 32.8 9.2 33.2 9 C 33.5 8.8 33.7 8.4 33.9 7.9 Z M 29.9 5.9 C 29.9 5.9 33.9 5.9 33.9 5.9 C 33.9 5.3 33.7 4.8 33.5 4.5 C 33.1 4 32.6 3.8 31.9 3.8 C 31.4 3.8 30.9 4 30.5 4.3 C 30.1 4.7 29.9 5.2 29.9 5.9 Z M 41.5 7.5 C 41.5 7.5 42.7 7.7 42.7 7.7 C 42.5 8.5 42.2 9.2 41.7 9.6 C 41.1 10.1 40.4 10.4 39.7 10.4 C 38.7 10.4 37.9 10 37.3 9.4 C 36.7 8.7 36.4 7.8 36.4 6.6 C 36.4 5.8 36.5 5.1 36.7 4.5 C 37 3.9 37.4 3.5 37.9 3.2 C 38.5 2.9 39 2.8 39.7 2.8 C 40.5 2.8 41.1 3 41.6 3.4 C 42.1 3.8 42.4 4.3 42.6 5.1 C 42.6 5.1 41.4 5.3 41.4 5.3 C 41.3 4.8 41 4.4 40.8 4.1 C 40.5 3.9 40.1 3.8 39.7 3.8 C 39.1 3.8 38.6 4 38.2 4.4 C 37.8 4.9 37.6 5.6 37.6 6.6 C 37.6 7.5 37.8 8.2 38.2 8.7 C 38.6 9.1 39 9.3 39.6 9.3 C 40.1 9.3 40.5 9.2 40.9 8.9 C 41.2 8.6 41.4 8.1 41.5 7.5 Z M 45.9 9.1 C 46 9.1 46.2 9.1 46.4 9.1 C 46.4 9.1 46.6 10.2 46.6 10.2 C 46.2 10.3 45.9 10.3 45.7 10.3 C 45.2 10.3 44.9 10.2 44.6 10.1 C 44.4 9.9 44.2 9.7 44.1 9.5 C 44 9.3 44 8.8 44 8.1 C 43.96 8.07 44 3.9 44 3.9 L 43.1 3.9 L 43.1 2.9 L 44 2.9 L 44 1.1 L 45.2 0.4 L 45.2 2.9 L 46.4 2.9 L 46.4 3.9 L 45.2 3.9 C 45.2 3.9 45.18 8.13 45.2 8.1 C 45.2 8.5 45.2 8.7 45.2 8.8 C 45.3 8.9 45.4 9 45.5 9.1 C 45.6 9.1 45.7 9.1 45.9 9.1 C 45.9 9.1 45.9 9.1 45.9 9.1 Z M 51.6 10.2 L 51.6 0.2 L 53.6 0.2 C 53.6 0.2 55.99 7.27 56 7.3 C 56.2 7.9 56.4 8.4 56.5 8.8 C 56.6 8.4 56.8 7.9 57 7.1 C 57 7.14 59.4 0.2 59.4 0.2 L 61.2 0.2 L 61.2 10.2 L 59.9 10.2 L 59.9 1.8 L 57 10.2 L 55.8 10.2 L 52.9 1.7 L 52.9 10.2 L 51.6 10.2 Z M 68.2 10.2 C 68 9.9 67.9 9.6 67.9 9.3 C 67.5 9.7 67 10 66.6 10.1 C 66.2 10.3 65.7 10.4 65.2 10.4 C 64.4 10.4 63.8 10.2 63.4 9.8 C 63 9.4 62.8 8.9 62.8 8.3 C 62.8 7.9 62.8 7.6 63 7.3 C 63.2 7 63.4 6.8 63.6 6.6 C 63.9 6.4 64.2 6.3 64.5 6.2 C 64.8 6.1 65.1 6.1 65.6 6 C 66.6 5.9 67.3 5.7 67.8 5.6 C 67.8 5.4 67.8 5.3 67.8 5.3 C 67.8 4.8 67.7 4.4 67.5 4.2 C 67.1 3.9 66.7 3.8 66.1 3.8 C 65.5 3.8 65.1 3.9 64.8 4.1 C 64.5 4.3 64.3 4.7 64.2 5.2 C 64.2 5.2 63 5 63 5 C 63.1 4.5 63.3 4.1 63.5 3.8 C 63.8 3.4 64.1 3.2 64.6 3 C 65.1 2.9 65.6 2.8 66.2 2.8 C 66.9 2.8 67.4 2.8 67.8 3 C 68.1 3.1 68.4 3.3 68.6 3.5 C 68.8 3.8 68.9 4 69 4.4 C 69 4.6 69 5 69 5.5 C 69 5.5 69 7.2 69 7.2 C 69 8.3 69.1 9 69.1 9.3 C 69.2 9.6 69.3 9.9 69.4 10.2 C 69.44 10.19 68.2 10.2 68.2 10.2 C 68.2 10.2 68.15 10.19 68.2 10.2 Z M 67.8 6.5 C 67.4 6.7 66.7 6.9 65.8 7 C 65.3 7.1 64.9 7.2 64.7 7.3 C 64.5 7.4 64.4 7.5 64.2 7.7 C 64.1 7.8 64.1 8 64.1 8.2 C 64.1 8.6 64.2 8.8 64.4 9.1 C 64.7 9.3 65.1 9.4 65.5 9.4 C 66 9.4 66.4 9.3 66.8 9.1 C 67.2 8.9 67.4 8.6 67.6 8.2 C 67.7 8 67.8 7.5 67.8 7 C 67.8 7 67.8 6.5 67.8 6.5 Z M 73.1 9.1 C 73.2 9.1 73.4 9.1 73.6 9.1 C 73.6 9.1 73.8 10.2 73.8 10.2 C 73.5 10.3 73.2 10.3 72.9 10.3 C 72.4 10.3 72.1 10.2 71.9 10.1 C 71.6 9.9 71.4 9.7 71.3 9.5 C 71.2 9.3 71.2 8.8 71.2 8.1 C 71.18 8.07 71.2 3.9 71.2 3.9 L 70.3 3.9 L 70.3 2.9 L 71.2 2.9 L 71.2 1.1 L 72.4 0.4 L 72.4 2.9 L 73.6 2.9 L 73.6 3.9 L 72.4 3.9 C 72.4 3.9 72.41 8.13 72.4 8.1 C 72.4 8.5 72.4 8.7 72.5 8.8 C 72.5 8.9 72.6 9 72.7 9.1 C 72.8 9.1 72.9 9.1 73.1 9.1 C 73.1 9.1 73.1 9.1 73.1 9.1 Z M 77 9.1 C 77.1 9.1 77.3 9.1 77.5 9.1 C 77.5 9.1 77.7 10.2 77.7 10.2 C 77.4 10.3 77.1 10.3 76.8 10.3 C 76.3 10.3 76 10.2 75.7 10.1 C 75.5 9.9 75.3 9.7 75.2 9.5 C 75.1 9.3 75.1 8.8 75.1 8.1 C 75.07 8.07 75.1 3.9 75.1 3.9 L 74.2 3.9 L 74.2 2.9 L 75.1 2.9 L 75.1 1.1 L 76.3 0.4 L 76.3 2.9 L 77.5 2.9 L 77.5 3.9 L 76.3 3.9 C 76.3 3.9 76.3 8.13 76.3 8.1 C 76.3 8.5 76.3 8.7 76.4 8.8 C 76.4 8.9 76.5 9 76.6 9.1 C 76.7 9.1 76.8 9.1 77 9.1 C 77 9.1 77 9.1 77 9.1 Z M 83.7 7.9 C 83.7 7.9 85 8 85 8 C 84.8 8.8 84.4 9.3 83.9 9.7 C 83.3 10.2 82.6 10.4 81.8 10.4 C 80.7 10.4 79.9 10 79.3 9.4 C 78.6 8.7 78.3 7.8 78.3 6.6 C 78.3 5.4 78.6 4.5 79.3 3.8 C 79.9 3.1 80.7 2.8 81.7 2.8 C 82.7 2.8 83.5 3.1 84.1 3.8 C 84.7 4.4 85 5.4 85 6.5 C 85 6.6 85 6.7 85 6.9 C 85 6.9 79.6 6.9 79.6 6.9 C 79.6 7.7 79.9 8.3 80.3 8.7 C 80.7 9.1 81.2 9.3 81.8 9.3 C 82.2 9.3 82.6 9.2 82.9 9 C 83.3 8.8 83.5 8.4 83.7 7.9 Z M 79.7 5.9 C 79.7 5.9 83.7 5.9 83.7 5.9 C 83.7 5.3 83.5 4.8 83.3 4.5 C 82.9 4 82.4 3.8 81.7 3.8 C 81.2 3.8 80.7 4 80.3 4.3 C 79.9 4.7 79.7 5.2 79.7 5.9 Z M 86.5 10.2 L 86.5 2.9 L 87.6 2.9 C 87.6 2.9 87.62 4.03 87.6 4 C 87.9 3.5 88.2 3.2 88.4 3 C 88.6 2.9 88.9 2.8 89.2 2.8 C 89.6 2.8 90 2.9 90.5 3.2 C 90.5 3.2 90 4.3 90 4.3 C 89.7 4.1 89.4 4 89.1 4 C 88.9 4 88.6 4.1 88.4 4.3 C 88.2 4.4 88 4.7 87.9 5 C 87.8 5.4 87.7 5.9 87.7 6.4 C 87.74 6.39 87.7 10.2 87.7 10.2 L 86.5 10.2 Z M 95.3 10.2 L 95.3 0.2 L 102.5 0.2 L 102.5 1.4 L 96.6 1.4 L 96.6 4.4 L 102.1 4.4 L 102.1 5.6 L 96.6 5.6 L 96.6 9 L 102.7 9 L 102.7 10.2 L 95.3 10.2 Z M 103.6 10.2 L 106.2 6.4 L 103.8 2.9 L 105.3 2.9 C 105.3 2.9 106.44 4.63 106.4 4.6 C 106.7 5 106.8 5.2 106.9 5.4 C 107.1 5.1 107.3 4.9 107.5 4.6 C 107.5 4.65 108.7 2.9 108.7 2.9 L 110.2 2.9 L 107.7 6.4 L 110.4 10.2 L 108.9 10.2 L 107.4 7.9 L 107 7.3 L 105.1 10.2 L 103.6 10.2 Z M 111.4 13 L 111.4 2.9 L 112.5 2.9 C 112.5 2.9 112.53 3.88 112.5 3.9 C 112.8 3.5 113.1 3.2 113.4 3 C 113.8 2.9 114.2 2.8 114.6 2.8 C 115.3 2.8 115.8 2.9 116.3 3.2 C 116.8 3.6 117.1 4 117.4 4.6 C 117.6 5.2 117.7 5.8 117.7 6.5 C 117.7 7.3 117.6 7.9 117.3 8.5 C 117 9.1 116.7 9.6 116.2 9.9 C 115.6 10.2 115.1 10.4 114.5 10.4 C 114.1 10.4 113.8 10.3 113.4 10.1 C 113.1 9.9 112.9 9.7 112.6 9.4 C 112.64 9.44 112.6 13 112.6 13 L 111.4 13 Z M 112.5 6.6 C 112.5 7.5 112.7 8.2 113.1 8.7 C 113.5 9.1 113.9 9.3 114.5 9.3 C 115 9.3 115.5 9.1 115.9 8.7 C 116.3 8.2 116.5 7.5 116.5 6.5 C 116.5 5.6 116.3 4.9 115.9 4.4 C 115.5 4 115.1 3.7 114.5 3.7 C 114 3.7 113.5 4 113.1 4.5 C 112.7 5 112.5 5.7 112.5 6.6 Z M 124.2 7.9 C 124.2 7.9 125.4 8 125.4 8 C 125.2 8.8 124.9 9.3 124.3 9.7 C 123.8 10.2 123.1 10.4 122.2 10.4 C 121.2 10.4 120.3 10 119.7 9.4 C 119.1 8.7 118.8 7.8 118.8 6.6 C 118.8 5.4 119.1 4.5 119.7 3.8 C 120.4 3.1 121.2 2.8 122.2 2.8 C 123.1 2.8 123.9 3.1 124.6 3.8 C 125.2 4.4 125.5 5.4 125.5 6.5 C 125.5 6.6 125.5 6.7 125.5 6.9 C 125.5 6.9 120.1 6.9 120.1 6.9 C 120.1 7.7 120.3 8.3 120.7 8.7 C 121.1 9.1 121.6 9.3 122.3 9.3 C 122.7 9.3 123.1 9.2 123.4 9 C 123.7 8.8 124 8.4 124.2 7.9 Z M 120.1 5.9 C 120.1 5.9 124.2 5.9 124.2 5.9 C 124.1 5.3 124 4.8 123.7 4.5 C 123.3 4 122.8 3.8 122.2 3.8 C 121.6 3.8 121.2 4 120.8 4.3 C 120.4 4.7 120.2 5.2 120.1 5.9 Z M 127 10.2 L 127 2.9 L 128.1 2.9 C 128.1 2.9 128.08 4.03 128.1 4 C 128.4 3.5 128.6 3.2 128.9 3 C 129.1 2.9 129.4 2.8 129.7 2.8 C 130.1 2.8 130.5 2.9 130.9 3.2 C 130.9 3.2 130.5 4.3 130.5 4.3 C 130.2 4.1 129.9 4 129.6 4 C 129.3 4 129.1 4.1 128.9 4.3 C 128.6 4.4 128.5 4.7 128.4 5 C 128.3 5.4 128.2 5.9 128.2 6.4 C 128.2 6.39 128.2 10.2 128.2 10.2 L 127 10.2 Z M 133.8 9.1 C 133.9 9.1 134.1 9.1 134.3 9.1 C 134.3 9.1 134.5 10.2 134.5 10.2 C 134.2 10.3 133.9 10.3 133.6 10.3 C 133.1 10.3 132.8 10.2 132.5 10.1 C 132.3 9.9 132.1 9.7 132 9.5 C 131.9 9.3 131.9 8.8 131.9 8.1 C 131.87 8.07 131.9 3.9 131.9 3.9 L 131 3.9 L 131 2.9 L 131.9 2.9 L 131.9 1.1 L 133.1 0.4 L 133.1 2.9 L 134.3 2.9 L 134.3 3.9 L 133.1 3.9 C 133.1 3.9 133.1 8.13 133.1 8.1 C 133.1 8.5 133.1 8.7 133.2 8.8 C 133.2 8.9 133.3 9 133.4 9.1 C 133.5 9.1 133.6 9.1 133.8 9.1 C 133.8 9.1 133.8 9.1 133.8 9.1 Z M 135.5 1.6 L 135.5 0.2 L 136.8 0.2 L 136.8 1.6 L 135.5 1.6 Z M 135.5 10.2 L 135.5 2.9 L 136.8 2.9 L 136.8 10.2 L 135.5 10.2 Z M 138.2 8 C 138.2 8 139.4 7.8 139.4 7.8 C 139.4 8.3 139.6 8.7 139.9 9 C 140.3 9.2 140.7 9.3 141.3 9.3 C 141.8 9.3 142.2 9.2 142.5 9 C 142.8 8.8 142.9 8.5 142.9 8.2 C 142.9 7.9 142.8 7.7 142.6 7.5 C 142.4 7.4 142 7.3 141.3 7.1 C 140.4 6.9 139.8 6.7 139.4 6.5 C 139.1 6.4 138.8 6.1 138.6 5.8 C 138.4 5.5 138.4 5.2 138.4 4.9 C 138.4 4.5 138.4 4.2 138.6 4 C 138.7 3.7 138.9 3.5 139.2 3.3 C 139.4 3.1 139.6 3 140 2.9 C 140.3 2.8 140.7 2.8 141 2.8 C 141.6 2.8 142.1 2.9 142.5 3 C 143 3.2 143.3 3.4 143.5 3.7 C 143.7 4 143.8 4.3 143.9 4.8 C 143.9 4.8 142.7 5 142.7 5 C 142.7 4.6 142.5 4.3 142.2 4.1 C 142 3.9 141.6 3.8 141.1 3.8 C 140.6 3.8 140.2 3.9 139.9 4.1 C 139.7 4.2 139.5 4.5 139.5 4.7 C 139.5 4.9 139.6 5 139.7 5.1 C 139.8 5.3 140 5.4 140.2 5.5 C 140.3 5.5 140.7 5.6 141.3 5.8 C 142.1 6 142.7 6.2 143.1 6.4 C 143.4 6.5 143.7 6.7 143.9 7 C 144.1 7.3 144.2 7.6 144.2 8.1 C 144.2 8.5 144.1 8.9 143.8 9.2 C 143.6 9.6 143.2 9.9 142.8 10.1 C 142.3 10.3 141.8 10.4 141.3 10.4 C 140.3 10.4 139.6 10.2 139.1 9.8 C 138.6 9.4 138.3 8.8 138.2 8 Z M 150.6 7.9 C 150.6 7.9 151.9 8 151.9 8 C 151.7 8.8 151.3 9.3 150.8 9.7 C 150.2 10.2 149.5 10.4 148.7 10.4 C 147.6 10.4 146.8 10 146.2 9.4 C 145.5 8.7 145.2 7.8 145.2 6.6 C 145.2 5.4 145.6 4.5 146.2 3.8 C 146.8 3.1 147.6 2.8 148.6 2.8 C 149.6 2.8 150.4 3.1 151 3.8 C 151.6 4.4 151.9 5.4 151.9 6.5 C 151.9 6.6 151.9 6.7 151.9 6.9 C 151.9 6.9 146.5 6.9 146.5 6.9 C 146.6 7.7 146.8 8.3 147.2 8.7 C 147.6 9.1 148.1 9.3 148.7 9.3 C 149.2 9.3 149.5 9.2 149.9 9 C 150.2 8.8 150.4 8.4 150.6 7.9 Z M 146.6 5.9 C 146.6 5.9 150.6 5.9 150.6 5.9 C 150.6 5.3 150.4 4.8 150.2 4.5 C 149.8 4 149.3 3.8 148.6 3.8 C 148.1 3.8 147.6 4 147.2 4.3 C 146.8 4.7 146.6 5.2 146.6 5.9 Z " stroke="none" fill="#ffffff"/>  </g></svg>