<?xml version="1.0" standalone="no"?><!DOCTYPE svg PUBLIC "-//W3C//DTD SVG 1.1//EN" "http://www.w3.org/Graphics/SVG/1.1/DTD/svg11.dtd"><svg xmlns="http://www.w3.org/2000/svg" version="1.1" width="87px" height="23.9px" viewBox="0 -5 87 23.9" style="top:-5px">  <desc>Credibility</desc>  <defs/>  <g id="Polygon140637">    <path d="M 20.8 6.7 C 20.8 6.7 22.2 7 22.2 7 C 21.9 8.1 21.4 8.9 20.7 9.5 C 19.9 10.1 19.1 10.4 18 10.4 C 16.9 10.4 16.1 10.1 15.4 9.7 C 14.7 9.3 14.2 8.6 13.8 7.8 C 13.5 7 13.3 6.1 13.3 5.1 C 13.3 4.1 13.5 3.2 13.9 2.4 C 14.3 1.6 14.9 1 15.6 0.6 C 16.3 0.2 17.2 0 18 0 C 19 0 19.9 0.3 20.6 0.8 C 21.2 1.3 21.7 2 22 2.9 C 22 2.9 20.7 3.2 20.7 3.2 C 20.5 2.5 20.1 2 19.7 1.6 C 19.2 1.3 18.7 1.1 18 1.1 C 17.2 1.1 16.6 1.3 16.1 1.7 C 15.6 2.1 15.2 2.6 15 3.2 C 14.8 3.8 14.7 4.4 14.7 5.1 C 14.7 6 14.8 6.7 15 7.3 C 15.3 8 15.7 8.4 16.2 8.8 C 16.7 9.1 17.3 9.2 17.9 9.2 C 18.6 9.2 19.3 9 19.8 8.6 C 20.3 8.2 20.7 7.5 20.8 6.7 Z M 23.6 10.2 L 23.6 2.9 L 24.7 2.9 C 24.7 2.9 24.74 4.03 24.7 4 C 25 3.5 25.3 3.2 25.5 3 C 25.8 2.9 26 2.8 26.3 2.8 C 26.7 2.8 27.1 2.9 27.6 3.2 C 27.6 3.2 27.1 4.3 27.1 4.3 C 26.8 4.1 26.5 4 26.2 4 C 26 4 25.7 4.1 25.5 4.3 C 25.3 4.4 25.2 4.7 25.1 5 C 24.9 5.4 24.9 5.9 24.9 6.4 C 24.86 6.39 24.9 10.2 24.9 10.2 L 23.6 10.2 Z M 33.3 7.9 C 33.3 7.9 34.5 8 34.5 8 C 34.3 8.8 34 9.3 33.4 9.7 C 32.9 10.2 32.2 10.4 31.4 10.4 C 30.3 10.4 29.4 10 28.8 9.4 C 28.2 8.7 27.9 7.8 27.9 6.6 C 27.9 5.4 28.2 4.5 28.8 3.8 C 29.5 3.1 30.3 2.8 31.3 2.8 C 32.3 2.8 33 3.1 33.7 3.8 C 34.3 4.4 34.6 5.4 34.6 6.5 C 34.6 6.6 34.6 6.7 34.6 6.9 C 34.6 6.9 29.2 6.9 29.2 6.9 C 29.2 7.7 29.4 8.3 29.8 8.7 C 30.2 9.1 30.8 9.3 31.4 9.3 C 31.8 9.3 32.2 9.2 32.5 9 C 32.8 8.8 33.1 8.4 33.3 7.9 Z M 29.2 5.9 C 29.2 5.9 33.3 5.9 33.3 5.9 C 33.2 5.3 33.1 4.8 32.8 4.5 C 32.4 4 31.9 3.8 31.3 3.8 C 30.7 3.8 30.3 4 29.9 4.3 C 29.5 4.7 29.3 5.2 29.2 5.9 Z M 40.8 10.2 C 40.8 10.2 40.8 9.28 40.8 9.3 C 40.3 10 39.7 10.4 38.8 10.4 C 38.2 10.4 37.7 10.2 37.2 9.9 C 36.7 9.6 36.3 9.1 36 8.5 C 35.8 8 35.6 7.3 35.6 6.6 C 35.6 5.8 35.8 5.2 36 4.6 C 36.2 4 36.6 3.6 37.1 3.2 C 37.6 2.9 38.1 2.8 38.7 2.8 C 39.2 2.8 39.5 2.9 39.9 3 C 40.2 3.2 40.5 3.5 40.7 3.8 C 40.72 3.77 40.7 0.2 40.7 0.2 L 41.9 0.2 L 41.9 10.2 L 40.8 10.2 Z M 36.9 6.6 C 36.9 7.5 37.1 8.2 37.5 8.7 C 37.9 9.1 38.4 9.3 38.9 9.3 C 39.4 9.3 39.9 9.1 40.3 8.7 C 40.6 8.2 40.8 7.6 40.8 6.7 C 40.8 5.7 40.6 4.9 40.2 4.5 C 39.9 4 39.4 3.8 38.8 3.8 C 38.3 3.8 37.8 4 37.5 4.5 C 37.1 4.9 36.9 5.6 36.9 6.6 Z M 43.9 1.6 L 43.9 0.2 L 45.1 0.2 L 45.1 1.6 L 43.9 1.6 Z M 43.9 10.2 L 43.9 2.9 L 45.1 2.9 L 45.1 10.2 L 43.9 10.2 Z M 48.1 10.2 L 47 10.2 L 47 0.2 L 48.2 0.2 C 48.2 0.2 48.21 3.75 48.2 3.7 C 48.7 3.1 49.4 2.8 50.2 2.8 C 50.6 2.8 51.1 2.9 51.5 3 C 51.9 3.2 52.2 3.5 52.5 3.8 C 52.7 4.1 52.9 4.5 53.1 5 C 53.2 5.4 53.3 5.9 53.3 6.5 C 53.3 7.7 53 8.7 52.4 9.3 C 51.7 10 51 10.4 50.1 10.4 C 49.3 10.4 48.6 10 48.1 9.3 C 48.12 9.28 48.1 10.2 48.1 10.2 Z M 48.1 6.5 C 48.1 7.4 48.2 8 48.5 8.4 C 48.9 9 49.4 9.3 50 9.3 C 50.6 9.3 51 9.1 51.4 8.6 C 51.8 8.2 52 7.5 52 6.6 C 52 5.6 51.8 4.9 51.5 4.5 C 51.1 4 50.6 3.8 50.1 3.8 C 49.6 3.8 49.1 4 48.7 4.5 C 48.3 4.9 48.1 5.6 48.1 6.5 Z M 54.8 1.6 L 54.8 0.2 L 56 0.2 L 56 1.6 L 54.8 1.6 Z M 54.8 10.2 L 54.8 2.9 L 56 2.9 L 56 10.2 L 54.8 10.2 Z M 57.9 10.2 L 57.9 0.2 L 59.1 0.2 L 59.1 10.2 L 57.9 10.2 Z M 61 1.6 L 61 0.2 L 62.2 0.2 L 62.2 1.6 L 61 1.6 Z M 61 10.2 L 61 2.9 L 62.2 2.9 L 62.2 10.2 L 61 10.2 Z M 66.3 9.1 C 66.4 9.1 66.6 9.1 66.8 9.1 C 66.8 9.1 67 10.2 67 10.2 C 66.6 10.3 66.3 10.3 66 10.3 C 65.6 10.3 65.2 10.2 65 10.1 C 64.8 9.9 64.6 9.7 64.5 9.5 C 64.4 9.3 64.3 8.8 64.3 8.1 C 64.33 8.07 64.3 3.9 64.3 3.9 L 63.4 3.9 L 63.4 2.9 L 64.3 2.9 L 64.3 1.1 L 65.6 0.4 L 65.6 2.9 L 66.8 2.9 L 66.8 3.9 L 65.6 3.9 C 65.6 3.9 65.55 8.13 65.6 8.1 C 65.6 8.5 65.6 8.7 65.6 8.8 C 65.7 8.9 65.7 9 65.8 9.1 C 65.9 9.1 66.1 9.1 66.3 9.1 C 66.3 9.1 66.3 9.1 66.3 9.1 Z M 68.7 13.1 C 68.5 13.1 68.2 13.1 67.9 13 C 67.9 13 67.8 11.8 67.8 11.8 C 68.1 11.9 68.3 11.9 68.5 11.9 C 68.8 11.9 69 11.9 69.2 11.8 C 69.3 11.7 69.5 11.6 69.6 11.4 C 69.6 11.3 69.8 11 69.9 10.5 C 70 10.4 70 10.3 70.1 10.2 C 70.05 10.21 67.3 2.9 67.3 2.9 L 68.6 2.9 C 68.6 2.9 70.13 7.14 70.1 7.1 C 70.3 7.7 70.5 8.2 70.7 8.8 C 70.8 8.3 71 7.7 71.2 7.2 C 71.17 7.16 72.7 2.9 72.7 2.9 L 73.9 2.9 C 73.9 2.9 71.19 10.32 71.2 10.3 C 70.9 11.1 70.7 11.7 70.5 12 C 70.3 12.4 70 12.7 69.7 12.9 C 69.5 13 69.1 13.1 68.7 13.1 C 68.7 13.1 68.7 13.1 68.7 13.1 Z " stroke="none" fill="#fff"/>  </g></svg>