<?xml version="1.0" standalone="no"?><!DOCTYPE svg PUBLIC "-//W3C//DTD SVG 1.1//EN" "http://www.w3.org/Graphics/SVG/1.1/DTD/svg11.dtd"><svg xmlns="http://www.w3.org/2000/svg" version="1.1" width="54.5px" height="23.9px" viewBox="0 -5 54.5 23.9" style="top:-5px">  <desc>Previous</desc>  <defs/>  <g id="Polygon143653">    <path d="M 1.1 10.2 L 1.1 0.2 C 1.1 0.2 4.86 0.17 4.9 0.2 C 5.5 0.2 6 0.2 6.4 0.3 C 6.9 0.3 7.3 0.5 7.6 0.7 C 8 1 8.2 1.3 8.4 1.7 C 8.6 2.1 8.7 2.6 8.7 3.1 C 8.7 3.9 8.5 4.6 7.9 5.2 C 7.4 5.8 6.4 6.1 5 6.1 C 4.98 6.12 2.4 6.1 2.4 6.1 L 2.4 10.2 L 1.1 10.2 Z M 2.4 4.9 C 2.4 4.9 5 4.94 5 4.9 C 5.9 4.9 6.5 4.8 6.8 4.5 C 7.2 4.1 7.4 3.7 7.4 3.1 C 7.4 2.7 7.3 2.3 7 2 C 6.8 1.7 6.6 1.5 6.2 1.4 C 6 1.4 5.6 1.4 5 1.4 C 4.97 1.35 2.4 1.4 2.4 1.4 L 2.4 4.9 Z M 10.2 10.2 L 10.2 2.9 L 11.4 2.9 C 11.4 2.9 11.35 4.03 11.4 4 C 11.6 3.5 11.9 3.2 12.1 3 C 12.4 2.9 12.6 2.8 12.9 2.8 C 13.3 2.8 13.8 2.9 14.2 3.2 C 14.2 3.2 13.8 4.3 13.8 4.3 C 13.5 4.1 13.2 4 12.9 4 C 12.6 4 12.4 4.1 12.1 4.3 C 11.9 4.4 11.8 4.7 11.7 5 C 11.5 5.4 11.5 5.9 11.5 6.4 C 11.48 6.39 11.5 10.2 11.5 10.2 L 10.2 10.2 Z M 19.9 7.9 C 19.9 7.9 21.2 8 21.2 8 C 21 8.8 20.6 9.3 20 9.7 C 19.5 10.2 18.8 10.4 18 10.4 C 16.9 10.4 16.1 10 15.4 9.4 C 14.8 8.7 14.5 7.8 14.5 6.6 C 14.5 5.4 14.8 4.5 15.5 3.8 C 16.1 3.1 16.9 2.8 17.9 2.8 C 18.9 2.8 19.7 3.1 20.3 3.8 C 20.9 4.4 21.2 5.4 21.2 6.5 C 21.2 6.6 21.2 6.7 21.2 6.9 C 21.2 6.9 15.8 6.9 15.8 6.9 C 15.8 7.7 16.1 8.3 16.5 8.7 C 16.9 9.1 17.4 9.3 18 9.3 C 18.4 9.3 18.8 9.2 19.1 9 C 19.5 8.8 19.7 8.4 19.9 7.9 Z M 15.9 5.9 C 15.9 5.9 19.9 5.9 19.9 5.9 C 19.9 5.3 19.7 4.8 19.4 4.5 C 19 4 18.5 3.8 17.9 3.8 C 17.4 3.8 16.9 4 16.5 4.3 C 16.1 4.7 15.9 5.2 15.9 5.9 Z M 24.7 10.2 L 22 2.9 L 23.3 2.9 C 23.3 2.9 24.82 7.28 24.8 7.3 C 25 7.7 25.1 8.2 25.3 8.7 C 25.4 8.4 25.5 7.9 25.7 7.4 C 25.74 7.36 27.4 2.9 27.4 2.9 L 28.6 2.9 L 25.9 10.2 L 24.7 10.2 Z M 29.7 1.6 L 29.7 0.2 L 30.9 0.2 L 30.9 1.6 L 29.7 1.6 Z M 29.7 10.2 L 29.7 2.9 L 30.9 2.9 L 30.9 10.2 L 29.7 10.2 Z M 32.4 6.6 C 32.4 5.2 32.7 4.2 33.5 3.6 C 34.1 3 34.9 2.8 35.8 2.8 C 36.8 2.8 37.6 3.1 38.2 3.7 C 38.8 4.4 39.2 5.3 39.2 6.5 C 39.2 7.4 39 8.1 38.7 8.7 C 38.5 9.2 38.1 9.6 37.5 9.9 C 37 10.2 36.4 10.4 35.8 10.4 C 34.7 10.4 33.9 10 33.3 9.4 C 32.7 8.7 32.4 7.8 32.4 6.6 Z M 33.6 6.6 C 33.6 7.5 33.8 8.2 34.2 8.7 C 34.6 9.1 35.2 9.3 35.8 9.3 C 36.4 9.3 36.9 9.1 37.3 8.6 C 37.7 8.2 37.9 7.5 37.9 6.5 C 37.9 5.6 37.7 4.9 37.3 4.5 C 36.9 4 36.4 3.8 35.8 3.8 C 35.2 3.8 34.6 4 34.2 4.5 C 33.8 4.9 33.6 5.6 33.6 6.6 Z M 45.4 10.2 C 45.4 10.2 45.36 9.13 45.4 9.1 C 44.8 9.9 44 10.4 43.1 10.4 C 42.6 10.4 42.2 10.3 41.9 10.1 C 41.5 9.9 41.2 9.7 41 9.5 C 40.9 9.2 40.7 8.9 40.7 8.6 C 40.6 8.3 40.6 8 40.6 7.4 C 40.58 7.43 40.6 2.9 40.6 2.9 L 41.8 2.9 C 41.8 2.9 41.81 6.96 41.8 7 C 41.8 7.6 41.8 8 41.9 8.3 C 42 8.6 42.1 8.8 42.4 9 C 42.6 9.2 42.9 9.3 43.3 9.3 C 43.7 9.3 44 9.2 44.3 9 C 44.7 8.8 44.9 8.6 45 8.2 C 45.2 7.9 45.2 7.4 45.2 6.8 C 45.23 6.82 45.2 2.9 45.2 2.9 L 46.5 2.9 L 46.5 10.2 L 45.4 10.2 Z M 47.9 8 C 47.9 8 49.1 7.8 49.1 7.8 C 49.2 8.3 49.4 8.7 49.7 9 C 50 9.2 50.4 9.3 51 9.3 C 51.6 9.3 52 9.2 52.3 9 C 52.5 8.8 52.7 8.5 52.7 8.2 C 52.7 7.9 52.5 7.7 52.3 7.5 C 52.1 7.4 51.7 7.3 51 7.1 C 50.1 6.9 49.5 6.7 49.2 6.5 C 48.8 6.4 48.6 6.1 48.4 5.8 C 48.2 5.5 48.1 5.2 48.1 4.9 C 48.1 4.5 48.2 4.2 48.3 4 C 48.5 3.7 48.7 3.5 48.9 3.3 C 49.1 3.1 49.4 3 49.7 2.9 C 50 2.8 50.4 2.8 50.8 2.8 C 51.3 2.8 51.8 2.9 52.3 3 C 52.7 3.2 53 3.4 53.2 3.7 C 53.4 4 53.6 4.3 53.7 4.8 C 53.7 4.8 52.5 5 52.5 5 C 52.4 4.6 52.2 4.3 52 4.1 C 51.7 3.9 51.3 3.8 50.9 3.8 C 50.3 3.8 49.9 3.9 49.7 4.1 C 49.4 4.2 49.3 4.5 49.3 4.7 C 49.3 4.9 49.3 5 49.4 5.1 C 49.5 5.3 49.7 5.4 49.9 5.5 C 50 5.5 50.4 5.6 51 5.8 C 51.9 6 52.5 6.2 52.8 6.4 C 53.2 6.5 53.4 6.7 53.6 7 C 53.8 7.3 53.9 7.6 53.9 8.1 C 53.9 8.5 53.8 8.9 53.6 9.2 C 53.3 9.6 53 9.9 52.5 10.1 C 52.1 10.3 51.6 10.4 51 10.4 C 50.1 10.4 49.3 10.2 48.8 9.8 C 48.4 9.4 48 8.8 47.9 8 Z " stroke="none" fill="#e4007e"/>  </g></svg>