<?xml version="1.0" standalone="no"?><!DOCTYPE svg PUBLIC "-//W3C//DTD SVG 1.1//EN" "http://www.w3.org/Graphics/SVG/1.1/DTD/svg11.dtd"><svg xmlns="http://www.w3.org/2000/svg" version="1.1" width="41px" height="56.8px" viewBox="0 -9 41 56.8" style="top:-9px">  <desc>85</desc>  <defs/>  <g id="Polygon140083">    <path d="M 10.2 12.1 C 11.8 12.1 13.1 10.7 13.1 8.7 C 13.1 6.9 12.1 5.3 10.3 5.3 C 8.2 5.3 7.3 7.1 7.3 8.6 C 7.3 10.7 8.7 12.1 10.2 12.1 Z M 10.2 22.8 C 12.2 22.8 13.8 21.3 13.8 19.1 C 13.8 16.9 12.1 15.4 10.2 15.4 C 8.2 15.4 6.6 17 6.6 19.1 C 6.6 21.3 8.2 22.8 10.2 22.8 Z M 18.5 8.3 C 18.5 10.5 17.7 12.2 15.4 13.6 C 17.9 14.9 19.2 17.2 19.2 19.6 C 19.2 22.5 17 26.6 10.2 26.6 C 3.4 26.6 1.2 22.6 1.2 19.6 C 1.2 17.2 2.4 14.9 5 13.6 C 2.7 12.1 1.9 10.5 1.9 8.3 C 1.9 5.2 4.4 1.4 10.2 1.4 C 16.1 1.4 18.5 5.1 18.5 8.3 Z M 37.1 1.7 L 37.1 6.3 L 28.7 6.3 C 28.7 6.3 28.73 11.05 28.7 11.1 C 29.3 11 29.5 11 30 11 C 35 11 38.2 14.4 38.2 18.6 C 38.2 23 35.1 26.6 29.7 26.6 C 27 26.6 24.5 25.9 22.3 24.5 C 22.3 24.5 22.3 19.7 22.3 19.7 C 23.9 20.8 26.7 22 28.5 22 C 31.1 22 32.4 20.3 32.4 18.6 C 32.4 16.2 30.1 14.9 27.4 14.9 C 26.1 14.9 24.9 15.2 24 15.6 C 23.98 15.55 24 1.7 24 1.7 L 37.1 1.7 Z " stroke="none" fill="#fff"/>  </g></svg>