<?xml version="1.0" standalone="no"?><!DOCTYPE svg PUBLIC "-//W3C//DTD SVG 1.1//EN" "http://www.w3.org/Graphics/SVG/1.1/DTD/svg11.dtd"><svg xmlns="http://www.w3.org/2000/svg" version="1.1" width="30px" height="23.9px" viewBox="0 -5 30 23.9" style="top:-5px">  <desc>Poor</desc>  <defs/>  <g id="Polygon145518">    <path d="M 1.1 10.2 L 1.1 0.2 C 1.1 0.2 4.86 0.17 4.9 0.2 C 5.5 0.2 6 0.2 6.4 0.3 C 6.9 0.3 7.3 0.5 7.6 0.7 C 8 1 8.2 1.3 8.4 1.7 C 8.6 2.1 8.7 2.6 8.7 3.1 C 8.7 3.9 8.5 4.6 7.9 5.2 C 7.4 5.8 6.4 6.1 5 6.1 C 4.98 6.12 2.4 6.1 2.4 6.1 L 2.4 10.2 L 1.1 10.2 Z M 2.4 4.9 C 2.4 4.9 5 4.94 5 4.9 C 5.9 4.9 6.5 4.8 6.8 4.5 C 7.2 4.1 7.4 3.7 7.4 3.1 C 7.4 2.7 7.3 2.3 7 2 C 6.8 1.7 6.6 1.5 6.2 1.4 C 6 1.4 5.6 1.4 5 1.4 C 4.97 1.35 2.4 1.4 2.4 1.4 L 2.4 4.9 Z M 9.8 6.6 C 9.8 5.2 10.2 4.2 10.9 3.6 C 11.5 3 12.3 2.8 13.2 2.8 C 14.2 2.8 15 3.1 15.7 3.7 C 16.3 4.4 16.6 5.3 16.6 6.5 C 16.6 7.4 16.5 8.1 16.2 8.7 C 15.9 9.2 15.5 9.6 15 9.9 C 14.4 10.2 13.8 10.4 13.2 10.4 C 12.2 10.4 11.4 10 10.7 9.4 C 10.1 8.7 9.8 7.8 9.8 6.6 Z M 11.1 6.6 C 11.1 7.5 11.3 8.2 11.7 8.7 C 12.1 9.1 12.6 9.3 13.2 9.3 C 13.8 9.3 14.3 9.1 14.7 8.6 C 15.1 8.2 15.3 7.5 15.3 6.5 C 15.3 5.6 15.1 4.9 14.7 4.5 C 14.3 4 13.8 3.8 13.2 3.8 C 12.6 3.8 12.1 4 11.7 4.5 C 11.3 4.9 11.1 5.6 11.1 6.6 Z M 17.6 6.6 C 17.6 5.2 18 4.2 18.7 3.6 C 19.3 3 20.1 2.8 21 2.8 C 22 2.8 22.8 3.1 23.4 3.7 C 24.1 4.4 24.4 5.3 24.4 6.5 C 24.4 7.4 24.3 8.1 24 8.7 C 23.7 9.2 23.3 9.6 22.7 9.9 C 22.2 10.2 21.6 10.4 21 10.4 C 20 10.4 19.2 10 18.5 9.4 C 17.9 8.7 17.6 7.8 17.6 6.6 Z M 18.9 6.6 C 18.9 7.5 19.1 8.2 19.5 8.7 C 19.9 9.1 20.4 9.3 21 9.3 C 21.6 9.3 22.1 9.1 22.5 8.6 C 22.9 8.2 23.1 7.5 23.1 6.5 C 23.1 5.6 22.9 4.9 22.5 4.5 C 22.1 4 21.6 3.8 21 3.8 C 20.4 3.8 19.9 4 19.5 4.5 C 19.1 4.9 18.9 5.6 18.9 6.6 Z M 25.8 10.2 L 25.8 2.9 L 26.9 2.9 C 26.9 2.9 26.93 4.03 26.9 4 C 27.2 3.5 27.5 3.2 27.7 3 C 27.9 2.9 28.2 2.8 28.5 2.8 C 28.9 2.8 29.3 2.9 29.8 3.2 C 29.8 3.2 29.3 4.3 29.3 4.3 C 29 4.1 28.7 4 28.4 4 C 28.2 4 27.9 4.1 27.7 4.3 C 27.5 4.4 27.3 4.7 27.3 5 C 27.1 5.4 27 5.9 27 6.4 C 27.05 6.39 27 10.2 27 10.2 L 25.8 10.2 Z " stroke="none" fill="#ffffff"/>  </g></svg>