<?xml version="1.0" standalone="no"?><!DOCTYPE svg PUBLIC "-//W3C//DTD SVG 1.1//EN" "http://www.w3.org/Graphics/SVG/1.1/DTD/svg11.dtd"><svg xmlns="http://www.w3.org/2000/svg" version="1.1" width="87px" height="31.9px" viewBox="0 -1 87 31.9" style="top:-1px">  <desc>Knowledge</desc>  <defs/>  <g id="Polygon139310">    <path d="M 9.7 18.6 L 9.7 8.6 L 11.1 8.6 L 11.1 13.5 L 16 8.6 L 17.8 8.6 L 13.6 12.6 L 18 18.6 L 16.3 18.6 L 12.7 13.5 L 11.1 15.1 L 11.1 18.6 L 9.7 18.6 Z M 19 18.6 L 19 11.3 L 20.1 11.3 C 20.1 11.3 20.07 12.36 20.1 12.4 C 20.6 11.6 21.4 11.2 22.4 11.2 C 22.8 11.2 23.2 11.2 23.6 11.4 C 24 11.6 24.2 11.8 24.4 12 C 24.6 12.3 24.7 12.6 24.8 12.9 C 24.8 13.2 24.9 13.6 24.9 14.1 C 24.86 14.13 24.9 18.6 24.9 18.6 L 23.6 18.6 C 23.6 18.6 23.63 14.18 23.6 14.2 C 23.6 13.7 23.6 13.3 23.5 13.1 C 23.4 12.8 23.2 12.6 23 12.5 C 22.7 12.3 22.4 12.2 22.1 12.2 C 21.6 12.2 21.1 12.4 20.8 12.7 C 20.4 13.1 20.2 13.7 20.2 14.6 C 20.19 14.63 20.2 18.6 20.2 18.6 L 19 18.6 Z M 26.3 15 C 26.3 13.6 26.7 12.6 27.4 12 C 28 11.4 28.8 11.2 29.7 11.2 C 30.7 11.2 31.5 11.5 32.1 12.1 C 32.8 12.8 33.1 13.7 33.1 14.9 C 33.1 15.8 33 16.5 32.7 17.1 C 32.4 17.6 32 18 31.4 18.3 C 30.9 18.6 30.3 18.8 29.7 18.8 C 28.7 18.8 27.9 18.4 27.2 17.8 C 26.6 17.1 26.3 16.2 26.3 15 Z M 27.6 15 C 27.6 15.9 27.8 16.6 28.2 17.1 C 28.6 17.5 29.1 17.7 29.7 17.7 C 30.3 17.7 30.8 17.5 31.2 17 C 31.6 16.6 31.8 15.9 31.8 14.9 C 31.8 14 31.6 13.3 31.2 12.9 C 30.8 12.4 30.3 12.2 29.7 12.2 C 29.1 12.2 28.6 12.4 28.2 12.9 C 27.8 13.3 27.6 14 27.6 15 Z M 35.9 18.6 L 33.7 11.3 L 34.9 11.3 L 36.1 15.5 C 36.1 15.5 36.51 17.08 36.5 17.1 C 36.5 17 36.7 16.5 36.9 15.6 C 36.89 15.58 38 11.3 38 11.3 L 39.3 11.3 L 40.4 15.5 L 40.8 16.9 L 41.2 15.5 L 42.4 11.3 L 43.6 11.3 L 41.3 18.6 L 40.1 18.6 L 38.9 14.2 L 38.6 13 L 37.2 18.6 L 35.9 18.6 Z M 44.6 18.6 L 44.6 8.6 L 45.8 8.6 L 45.8 18.6 L 44.6 18.6 Z M 52.7 16.3 C 52.7 16.3 54 16.4 54 16.4 C 53.8 17.2 53.4 17.7 52.9 18.1 C 52.3 18.6 51.6 18.8 50.8 18.8 C 49.7 18.8 48.9 18.4 48.3 17.8 C 47.7 17.1 47.3 16.2 47.3 15 C 47.3 13.8 47.7 12.9 48.3 12.2 C 48.9 11.5 49.7 11.2 50.7 11.2 C 51.7 11.2 52.5 11.5 53.1 12.2 C 53.7 12.8 54 13.8 54 14.9 C 54 15 54 15.1 54 15.3 C 54 15.3 48.6 15.3 48.6 15.3 C 48.7 16.1 48.9 16.7 49.3 17.1 C 49.7 17.5 50.2 17.7 50.8 17.7 C 51.3 17.7 51.6 17.6 52 17.4 C 52.3 17.2 52.5 16.8 52.7 16.3 Z M 48.7 14.3 C 48.7 14.3 52.7 14.3 52.7 14.3 C 52.7 13.7 52.5 13.2 52.3 12.9 C 51.9 12.4 51.4 12.2 50.8 12.2 C 50.2 12.2 49.7 12.4 49.3 12.7 C 48.9 13.1 48.7 13.6 48.7 14.3 Z M 60.3 18.6 C 60.3 18.6 60.25 17.68 60.3 17.7 C 59.8 18.4 59.1 18.8 58.2 18.8 C 57.6 18.8 57.1 18.6 56.6 18.3 C 56.1 18 55.8 17.5 55.5 16.9 C 55.2 16.4 55.1 15.7 55.1 15 C 55.1 14.2 55.2 13.6 55.5 13 C 55.7 12.4 56.1 12 56.5 11.6 C 57 11.3 57.6 11.2 58.2 11.2 C 58.6 11.2 59 11.3 59.3 11.4 C 59.7 11.6 60 11.9 60.2 12.2 C 60.17 12.17 60.2 8.6 60.2 8.6 L 61.4 8.6 L 61.4 18.6 L 60.3 18.6 Z M 56.4 15 C 56.4 15.9 56.6 16.6 57 17.1 C 57.3 17.5 57.8 17.7 58.3 17.7 C 58.9 17.7 59.3 17.5 59.7 17.1 C 60.1 16.6 60.3 16 60.3 15.1 C 60.3 14.1 60.1 13.3 59.7 12.9 C 59.3 12.4 58.8 12.2 58.3 12.2 C 57.7 12.2 57.3 12.4 56.9 12.9 C 56.5 13.3 56.4 14 56.4 15 Z M 63.1 19.2 C 63.1 19.2 64.3 19.4 64.3 19.4 C 64.3 19.7 64.5 20 64.7 20.2 C 65 20.4 65.4 20.5 66 20.5 C 66.5 20.5 67 20.4 67.3 20.2 C 67.6 20 67.8 19.6 67.9 19.2 C 68 19 68 18.4 68 17.6 C 67.5 18.3 66.8 18.6 66 18.6 C 65 18.6 64.2 18.2 63.7 17.5 C 63.1 16.8 62.9 15.9 62.9 14.9 C 62.9 14.2 63 13.6 63.2 13 C 63.5 12.4 63.8 12 64.3 11.6 C 64.8 11.3 65.4 11.2 66 11.2 C 66.9 11.2 67.6 11.5 68.1 12.2 C 68.12 12.21 68.1 11.3 68.1 11.3 L 69.3 11.3 C 69.3 11.3 69.26 17.61 69.3 17.6 C 69.3 18.7 69.1 19.5 68.9 20 C 68.7 20.5 68.3 20.9 67.8 21.1 C 67.3 21.4 66.7 21.5 66 21.5 C 65.1 21.5 64.4 21.3 63.9 21 C 63.3 20.6 63.1 20 63.1 19.2 Z M 64.1 14.8 C 64.1 15.8 64.3 16.5 64.7 16.9 C 65.1 17.4 65.5 17.6 66.1 17.6 C 66.7 17.6 67.1 17.4 67.5 16.9 C 67.9 16.5 68.1 15.8 68.1 14.9 C 68.1 14 67.9 13.3 67.5 12.9 C 67.1 12.4 66.6 12.2 66.1 12.2 C 65.5 12.2 65.1 12.4 64.7 12.9 C 64.3 13.3 64.1 14 64.1 14.8 Z M 76.1 16.3 C 76.1 16.3 77.4 16.4 77.4 16.4 C 77.2 17.2 76.8 17.7 76.2 18.1 C 75.7 18.6 75 18.8 74.2 18.8 C 73.1 18.8 72.3 18.4 71.6 17.8 C 71 17.1 70.7 16.2 70.7 15 C 70.7 13.8 71 12.9 71.6 12.2 C 72.3 11.5 73.1 11.2 74.1 11.2 C 75.1 11.2 75.9 11.5 76.5 12.2 C 77.1 12.8 77.4 13.8 77.4 14.9 C 77.4 15 77.4 15.1 77.4 15.3 C 77.4 15.3 72 15.3 72 15.3 C 72 16.1 72.2 16.7 72.7 17.1 C 73.1 17.5 73.6 17.7 74.2 17.7 C 74.6 17.7 75 17.6 75.3 17.4 C 75.6 17.2 75.9 16.8 76.1 16.3 Z M 72 14.3 C 72 14.3 76.1 14.3 76.1 14.3 C 76 13.7 75.9 13.2 75.6 12.9 C 75.2 12.4 74.7 12.2 74.1 12.2 C 73.5 12.2 73.1 12.4 72.7 12.7 C 72.3 13.1 72.1 13.6 72 14.3 Z " stroke="none" fill="#fff"/>  </g></svg>