<?xml version="1.0" standalone="no"?><!DOCTYPE svg PUBLIC "-//W3C//DTD SVG 1.1//EN" "http://www.w3.org/Graphics/SVG/1.1/DTD/svg11.dtd"><svg xmlns="http://www.w3.org/2000/svg" version="1.1" width="280.3px" height="40.9px" viewBox="0 -5 280.3 40.9" style="top:-5px">  <desc>L3 Multi Channel Marketer L4 Sales Executive</desc>  <defs/>  <g id="Polygon119726">    <path d="M 1.1 27 L 1.1 17.1 L 3.1 17.1 L 3.1 25.3 L 8.1 25.3 L 8.1 27 L 1.1 27 Z M 12.9 27 L 12.9 25 L 8.8 25 L 8.8 23.3 L 13.2 16.9 L 14.8 16.9 L 14.8 23.3 L 16 23.3 L 16 25 L 14.8 25 L 14.8 27 L 12.9 27 Z M 12.9 23.3 L 12.9 19.9 L 10.6 23.3 L 12.9 23.3 Z M 20.9 23.8 C 20.9 23.8 22.1 23.7 22.1 23.7 C 22.2 24.2 22.3 24.6 22.5 24.9 C 22.7 25.2 23.1 25.5 23.5 25.7 C 24 25.9 24.5 26 25.1 26 C 25.6 26 26 25.9 26.4 25.7 C 26.8 25.6 27.1 25.4 27.3 25.1 C 27.5 24.9 27.6 24.6 27.6 24.3 C 27.6 24 27.5 23.7 27.3 23.4 C 27.1 23.2 26.8 23 26.4 22.9 C 26.1 22.8 25.5 22.6 24.6 22.4 C 23.7 22.1 23 21.9 22.7 21.7 C 22.2 21.5 21.8 21.2 21.6 20.8 C 21.4 20.4 21.2 20 21.2 19.6 C 21.2 19.1 21.4 18.6 21.7 18.1 C 22 17.7 22.4 17.4 22.9 17.1 C 23.5 16.9 24.1 16.8 24.8 16.8 C 25.5 16.8 26.2 16.9 26.7 17.2 C 27.3 17.4 27.7 17.8 28 18.2 C 28.3 18.7 28.5 19.2 28.5 19.8 C 28.5 19.8 27.3 19.9 27.3 19.9 C 27.2 19.3 27 18.8 26.6 18.5 C 26.2 18.1 25.6 18 24.8 18 C 24 18 23.4 18.1 23.1 18.4 C 22.7 18.7 22.5 19.1 22.5 19.5 C 22.5 19.8 22.6 20.1 22.9 20.4 C 23.2 20.6 23.8 20.8 24.9 21.1 C 26 21.3 26.7 21.5 27.1 21.7 C 27.7 22 28.1 22.3 28.4 22.7 C 28.7 23.1 28.8 23.6 28.8 24.2 C 28.8 24.7 28.7 25.2 28.4 25.7 C 28.1 26.1 27.6 26.5 27.1 26.8 C 26.5 27 25.8 27.2 25.1 27.2 C 24.2 27.2 23.5 27 22.8 26.8 C 22.2 26.5 21.8 26.1 21.4 25.6 C 21.1 25 20.9 24.4 20.9 23.8 Z M 35.5 27 C 35.3 26.7 35.3 26.4 35.2 26.1 C 34.8 26.5 34.3 26.8 33.9 26.9 C 33.5 27.1 33 27.2 32.6 27.2 C 31.8 27.2 31.1 27 30.7 26.6 C 30.3 26.2 30.1 25.7 30.1 25.1 C 30.1 24.7 30.2 24.4 30.3 24.1 C 30.5 23.8 30.7 23.6 30.9 23.4 C 31.2 23.2 31.5 23.1 31.8 23 C 32.1 22.9 32.4 22.9 32.9 22.8 C 33.9 22.7 34.7 22.5 35.1 22.4 C 35.1 22.2 35.1 22.1 35.1 22.1 C 35.1 21.6 35 21.2 34.8 21 C 34.5 20.7 34 20.6 33.4 20.6 C 32.8 20.6 32.4 20.7 32.1 20.9 C 31.8 21.1 31.6 21.5 31.5 22 C 31.5 22 30.3 21.8 30.3 21.8 C 30.4 21.3 30.6 20.9 30.8 20.6 C 31.1 20.2 31.4 20 31.9 19.8 C 32.4 19.7 32.9 19.6 33.6 19.6 C 34.2 19.6 34.7 19.6 35.1 19.8 C 35.5 19.9 35.7 20.1 35.9 20.3 C 36.1 20.6 36.2 20.8 36.3 21.2 C 36.3 21.4 36.4 21.8 36.4 22.3 C 36.4 22.3 36.4 24 36.4 24 C 36.4 25.1 36.4 25.8 36.4 26.1 C 36.5 26.4 36.6 26.7 36.8 27 C 36.76 26.99 35.5 27 35.5 27 C 35.5 27 35.47 26.99 35.5 27 Z M 35.1 23.3 C 34.7 23.5 34 23.7 33.1 23.8 C 32.6 23.9 32.2 24 32 24.1 C 31.8 24.2 31.7 24.3 31.6 24.5 C 31.4 24.6 31.4 24.8 31.4 25 C 31.4 25.4 31.5 25.6 31.8 25.9 C 32 26.1 32.4 26.2 32.8 26.2 C 33.3 26.2 33.7 26.1 34.1 25.9 C 34.5 25.7 34.8 25.4 34.9 25 C 35.1 24.8 35.1 24.3 35.1 23.8 C 35.1 23.8 35.1 23.3 35.1 23.3 Z M 38.2 27 L 38.2 17 L 39.5 17 L 39.5 27 L 38.2 27 Z M 46.4 24.7 C 46.4 24.7 47.6 24.8 47.6 24.8 C 47.4 25.6 47.1 26.1 46.5 26.5 C 46 27 45.3 27.2 44.4 27.2 C 43.4 27.2 42.5 26.8 41.9 26.2 C 41.3 25.5 41 24.6 41 23.4 C 41 22.2 41.3 21.3 41.9 20.6 C 42.5 19.9 43.4 19.6 44.4 19.6 C 45.3 19.6 46.1 19.9 46.7 20.6 C 47.4 21.2 47.7 22.2 47.7 23.3 C 47.7 23.4 47.7 23.5 47.7 23.7 C 47.7 23.7 42.2 23.7 42.2 23.7 C 42.3 24.5 42.5 25.1 42.9 25.5 C 43.3 25.9 43.8 26.1 44.4 26.1 C 44.9 26.1 45.3 26 45.6 25.8 C 45.9 25.6 46.2 25.2 46.4 24.7 Z M 42.3 22.7 C 42.3 22.7 46.4 22.7 46.4 22.7 C 46.3 22.1 46.2 21.6 45.9 21.3 C 45.5 20.8 45 20.6 44.4 20.6 C 43.8 20.6 43.3 20.8 43 21.1 C 42.6 21.5 42.4 22 42.3 22.7 Z M 48.7 24.8 C 48.7 24.8 49.9 24.6 49.9 24.6 C 50 25.1 50.2 25.5 50.5 25.8 C 50.8 26 51.2 26.1 51.8 26.1 C 52.3 26.1 52.8 26 53 25.8 C 53.3 25.6 53.4 25.3 53.4 25 C 53.4 24.7 53.3 24.5 53.1 24.3 C 52.9 24.2 52.5 24.1 51.8 23.9 C 50.9 23.7 50.3 23.5 49.9 23.3 C 49.6 23.2 49.3 22.9 49.2 22.6 C 49 22.3 48.9 22 48.9 21.7 C 48.9 21.3 49 21 49.1 20.8 C 49.3 20.5 49.5 20.3 49.7 20.1 C 49.9 19.9 50.2 19.8 50.5 19.7 C 50.8 19.6 51.2 19.6 51.6 19.6 C 52.1 19.6 52.6 19.7 53.1 19.8 C 53.5 20 53.8 20.2 54 20.5 C 54.2 20.8 54.4 21.1 54.4 21.6 C 54.4 21.6 53.2 21.8 53.2 21.8 C 53.2 21.4 53 21.1 52.8 20.9 C 52.5 20.7 52.1 20.6 51.6 20.6 C 51.1 20.6 50.7 20.7 50.4 20.9 C 50.2 21 50.1 21.3 50.1 21.5 C 50.1 21.7 50.1 21.8 50.2 21.9 C 50.3 22.1 50.5 22.2 50.7 22.3 C 50.8 22.3 51.2 22.4 51.8 22.6 C 52.7 22.8 53.3 23 53.6 23.2 C 53.9 23.3 54.2 23.5 54.4 23.8 C 54.6 24.1 54.7 24.4 54.7 24.9 C 54.7 25.3 54.6 25.7 54.3 26 C 54.1 26.4 53.8 26.7 53.3 26.9 C 52.9 27.1 52.4 27.2 51.8 27.2 C 50.8 27.2 50.1 27 49.6 26.6 C 49.1 26.2 48.8 25.6 48.7 24.8 Z M 60.2 27 L 60.2 17 L 67.5 17 L 67.5 18.2 L 61.6 18.2 L 61.6 21.2 L 67.1 21.2 L 67.1 22.4 L 61.6 22.4 L 61.6 25.8 L 67.7 25.8 L 67.7 27 L 60.2 27 Z M 68.6 27 L 71.2 23.2 L 68.8 19.7 L 70.3 19.7 C 70.3 19.7 71.43 21.43 71.4 21.4 C 71.6 21.8 71.8 22 71.9 22.2 C 72.1 21.9 72.3 21.7 72.5 21.4 C 72.49 21.45 73.7 19.7 73.7 19.7 L 75.2 19.7 L 72.7 23.2 L 75.4 27 L 73.9 27 L 72.4 24.7 L 72 24.1 L 70.1 27 L 68.6 27 Z M 81.4 24.7 C 81.4 24.7 82.6 24.8 82.6 24.8 C 82.4 25.6 82.1 26.1 81.5 26.5 C 81 27 80.3 27.2 79.4 27.2 C 78.4 27.2 77.5 26.8 76.9 26.2 C 76.3 25.5 76 24.6 76 23.4 C 76 22.2 76.3 21.3 76.9 20.6 C 77.6 19.9 78.4 19.6 79.4 19.6 C 80.3 19.6 81.1 19.9 81.8 20.6 C 82.4 21.2 82.7 22.2 82.7 23.3 C 82.7 23.4 82.7 23.5 82.7 23.7 C 82.7 23.7 77.3 23.7 77.3 23.7 C 77.3 24.5 77.5 25.1 77.9 25.5 C 78.3 25.9 78.8 26.1 79.5 26.1 C 79.9 26.1 80.3 26 80.6 25.8 C 80.9 25.6 81.2 25.2 81.4 24.7 Z M 77.3 22.7 C 77.3 22.7 81.4 22.7 81.4 22.7 C 81.3 22.1 81.2 21.6 80.9 21.3 C 80.5 20.8 80 20.6 79.4 20.6 C 78.8 20.6 78.4 20.8 78 21.1 C 77.6 21.5 77.4 22 77.3 22.7 Z M 88.9 24.3 C 88.9 24.3 90.1 24.5 90.1 24.5 C 90 25.3 89.7 26 89.1 26.4 C 88.6 26.9 87.9 27.2 87.1 27.2 C 86.1 27.2 85.3 26.8 84.7 26.2 C 84.1 25.5 83.8 24.6 83.8 23.4 C 83.8 22.6 83.9 21.9 84.2 21.3 C 84.5 20.7 84.9 20.3 85.4 20 C 85.9 19.7 86.5 19.6 87.1 19.6 C 87.9 19.6 88.6 19.8 89.1 20.2 C 89.6 20.6 89.9 21.1 90 21.9 C 90 21.9 88.8 22 88.8 22 C 88.7 21.6 88.5 21.2 88.2 20.9 C 87.9 20.7 87.6 20.6 87.2 20.6 C 86.5 20.6 86 20.8 85.7 21.2 C 85.3 21.7 85.1 22.4 85.1 23.4 C 85.1 24.3 85.3 25 85.6 25.5 C 86 25.9 86.5 26.1 87.1 26.1 C 87.6 26.1 88 26 88.3 25.7 C 88.6 25.4 88.8 24.9 88.9 24.3 Z M 95.9 27 C 95.9 27 95.94 25.93 95.9 25.9 C 95.4 26.7 94.6 27.2 93.6 27.2 C 93.2 27.2 92.8 27.1 92.4 26.9 C 92.1 26.7 91.8 26.5 91.6 26.3 C 91.4 26 91.3 25.7 91.2 25.4 C 91.2 25.1 91.2 24.8 91.2 24.2 C 91.16 24.23 91.2 19.7 91.2 19.7 L 92.4 19.7 C 92.4 19.7 92.39 23.76 92.4 23.8 C 92.4 24.4 92.4 24.8 92.5 25.1 C 92.5 25.4 92.7 25.6 93 25.8 C 93.2 26 93.5 26.1 93.9 26.1 C 94.3 26.1 94.6 26 94.9 25.8 C 95.2 25.6 95.5 25.4 95.6 25 C 95.7 24.7 95.8 24.2 95.8 23.6 C 95.81 23.62 95.8 19.7 95.8 19.7 L 97 19.7 L 97 27 L 95.9 27 Z M 101.1 25.9 C 101.3 25.9 101.4 25.9 101.7 25.9 C 101.7 25.9 101.8 27 101.8 27 C 101.5 27.1 101.2 27.1 100.9 27.1 C 100.5 27.1 100.1 27 99.9 26.9 C 99.6 26.7 99.4 26.5 99.3 26.3 C 99.2 26.1 99.2 25.6 99.2 24.9 C 99.2 24.87 99.2 20.7 99.2 20.7 L 98.3 20.7 L 98.3 19.7 L 99.2 19.7 L 99.2 17.9 L 100.4 17.2 L 100.4 19.7 L 101.7 19.7 L 101.7 20.7 L 100.4 20.7 C 100.4 20.7 100.42 24.93 100.4 24.9 C 100.4 25.3 100.4 25.5 100.5 25.6 C 100.5 25.7 100.6 25.8 100.7 25.9 C 100.8 25.9 100.9 25.9 101.1 25.9 C 101.1 25.9 101.1 25.9 101.1 25.9 Z M 102.9 18.4 L 102.9 17 L 104.1 17 L 104.1 18.4 L 102.9 18.4 Z M 102.9 27 L 102.9 19.7 L 104.1 19.7 L 104.1 27 L 102.9 27 Z M 108 27 L 105.2 19.7 L 106.5 19.7 C 106.5 19.7 108.08 24.08 108.1 24.1 C 108.3 24.5 108.4 25 108.5 25.5 C 108.7 25.2 108.8 24.7 109 24.2 C 109.01 24.16 110.6 19.7 110.6 19.7 L 111.9 19.7 L 109.1 27 L 108 27 Z M 117.9 24.7 C 117.9 24.7 119.2 24.8 119.2 24.8 C 119 25.6 118.6 26.1 118.1 26.5 C 117.6 27 116.9 27.2 116 27.2 C 115 27.2 114.1 26.8 113.5 26.2 C 112.9 25.5 112.6 24.6 112.6 23.4 C 112.6 22.2 112.9 21.3 113.5 20.6 C 114.1 19.9 114.9 19.6 116 19.6 C 116.9 19.6 117.7 19.9 118.3 20.6 C 118.9 21.2 119.3 22.2 119.3 23.3 C 119.3 23.4 119.3 23.5 119.2 23.7 C 119.2 23.7 113.8 23.7 113.8 23.7 C 113.9 24.5 114.1 25.1 114.5 25.5 C 114.9 25.9 115.4 26.1 116 26.1 C 116.5 26.1 116.9 26 117.2 25.8 C 117.5 25.6 117.8 25.2 117.9 24.7 Z M 113.9 22.7 C 113.9 22.7 118 22.7 118 22.7 C 117.9 22.1 117.7 21.6 117.5 21.3 C 117.1 20.8 116.6 20.6 116 20.6 C 115.4 20.6 114.9 20.8 114.5 21.1 C 114.2 21.5 113.9 22 113.9 22.7 Z " stroke="none" fill="#000000"/>  </g>  <g id="Polygon119725">    <path d="M 1.1 10.2 L 1.1 0.3 L 3.1 0.3 L 3.1 8.5 L 8.1 8.5 L 8.1 10.2 L 1.1 10.2 Z M 9.1 7.5 C 9.1 7.5 10.9 7.3 10.9 7.3 C 11 7.8 11.2 8.1 11.4 8.4 C 11.7 8.6 12 8.8 12.4 8.8 C 12.8 8.8 13.1 8.6 13.4 8.3 C 13.6 8 13.8 7.6 13.8 7.1 C 13.8 6.6 13.6 6.2 13.4 6 C 13.1 5.7 12.8 5.5 12.4 5.5 C 12.2 5.5 11.9 5.6 11.5 5.7 C 11.5 5.7 11.8 4.1 11.8 4.1 C 12.3 4.1 12.7 4 12.9 3.8 C 13.2 3.5 13.4 3.2 13.4 2.8 C 13.4 2.5 13.3 2.2 13.1 2 C 12.9 1.8 12.6 1.7 12.3 1.7 C 11.9 1.7 11.6 1.8 11.4 2.1 C 11.2 2.3 11 2.6 11 3 C 11 3 9.2 2.7 9.2 2.7 C 9.3 2.1 9.5 1.7 9.8 1.3 C 10 0.9 10.4 0.6 10.8 0.4 C 11.3 0.2 11.8 0.1 12.3 0.1 C 13.3 0.1 14 0.4 14.6 1 C 15.1 1.5 15.3 2.1 15.3 2.7 C 15.3 3.6 14.8 4.3 13.8 4.8 C 14.4 4.9 14.9 5.2 15.2 5.6 C 15.6 6.1 15.7 6.6 15.7 7.2 C 15.7 8.1 15.4 8.8 14.8 9.4 C 14.1 10.1 13.3 10.4 12.4 10.4 C 11.5 10.4 10.7 10.1 10.1 9.6 C 9.5 9.1 9.2 8.4 9.1 7.5 Z M 21.3 10.2 L 21.3 0.2 L 23.3 0.2 C 23.3 0.2 25.63 7.27 25.6 7.3 C 25.9 7.9 26 8.4 26.1 8.8 C 26.2 8.4 26.4 7.9 26.6 7.1 C 26.65 7.14 29 0.2 29 0.2 L 30.8 0.2 L 30.8 10.2 L 29.6 10.2 L 29.6 1.8 L 26.6 10.2 L 25.4 10.2 L 22.5 1.7 L 22.5 10.2 L 21.3 10.2 Z M 37.6 10.2 C 37.6 10.2 37.57 9.13 37.6 9.1 C 37 9.9 36.2 10.4 35.3 10.4 C 34.8 10.4 34.4 10.3 34.1 10.1 C 33.7 9.9 33.4 9.7 33.2 9.5 C 33.1 9.2 32.9 8.9 32.9 8.6 C 32.8 8.3 32.8 8 32.8 7.4 C 32.79 7.43 32.8 2.9 32.8 2.9 L 34 2.9 C 34 2.9 34.02 6.96 34 7 C 34 7.6 34 8 34.1 8.3 C 34.2 8.6 34.3 8.8 34.6 9 C 34.8 9.2 35.1 9.3 35.5 9.3 C 35.9 9.3 36.2 9.2 36.6 9 C 36.9 8.8 37.1 8.6 37.2 8.2 C 37.4 7.9 37.4 7.4 37.4 6.8 C 37.44 6.82 37.4 2.9 37.4 2.9 L 38.7 2.9 L 38.7 10.2 L 37.6 10.2 Z M 40.6 10.2 L 40.6 0.2 L 41.8 0.2 L 41.8 10.2 L 40.6 10.2 Z M 45.9 9.1 C 46 9.1 46.2 9.1 46.4 9.1 C 46.4 9.1 46.6 10.2 46.6 10.2 C 46.2 10.3 45.9 10.3 45.6 10.3 C 45.2 10.3 44.9 10.2 44.6 10.1 C 44.4 9.9 44.2 9.7 44.1 9.5 C 44 9.3 43.9 8.8 43.9 8.1 C 43.93 8.07 43.9 3.9 43.9 3.9 L 43 3.9 L 43 2.9 L 43.9 2.9 L 43.9 1.1 L 45.2 0.4 L 45.2 2.9 L 46.4 2.9 L 46.4 3.9 L 45.2 3.9 C 45.2 3.9 45.16 8.13 45.2 8.1 C 45.2 8.5 45.2 8.7 45.2 8.8 C 45.3 8.9 45.3 9 45.4 9.1 C 45.5 9.1 45.7 9.1 45.9 9.1 C 45.9 9.1 45.9 9.1 45.9 9.1 Z M 47.6 1.6 L 47.6 0.2 L 48.8 0.2 L 48.8 1.6 L 47.6 1.6 Z M 47.6 10.2 L 47.6 2.9 L 48.8 2.9 L 48.8 10.2 L 47.6 10.2 Z M 50.2 7.2 L 50.2 5.9 L 54 5.9 L 54 7.2 L 50.2 7.2 Z M 62.7 6.7 C 62.7 6.7 64 7 64 7 C 63.7 8.1 63.2 8.9 62.5 9.5 C 61.8 10.1 60.9 10.4 59.9 10.4 C 58.8 10.4 57.9 10.1 57.2 9.7 C 56.5 9.3 56 8.6 55.7 7.8 C 55.3 7 55.1 6.1 55.1 5.1 C 55.1 4.1 55.3 3.2 55.7 2.4 C 56.1 1.6 56.7 1 57.4 0.6 C 58.2 0.2 59 0 59.9 0 C 60.9 0 61.7 0.3 62.4 0.8 C 63.1 1.3 63.6 2 63.8 2.9 C 63.8 2.9 62.5 3.2 62.5 3.2 C 62.3 2.5 62 2 61.5 1.6 C 61.1 1.3 60.5 1.1 59.8 1.1 C 59.1 1.1 58.4 1.3 57.9 1.7 C 57.4 2.1 57 2.6 56.8 3.2 C 56.6 3.8 56.5 4.4 56.5 5.1 C 56.5 6 56.6 6.7 56.9 7.3 C 57.1 8 57.5 8.4 58 8.8 C 58.6 9.1 59.1 9.2 59.7 9.2 C 60.5 9.2 61.1 9 61.6 8.6 C 62.1 8.2 62.5 7.5 62.7 6.7 Z M 65.5 10.2 L 65.5 0.2 L 66.7 0.2 C 66.7 0.2 66.71 3.77 66.7 3.8 C 67.3 3.1 68 2.8 68.9 2.8 C 69.4 2.8 69.9 2.9 70.3 3.1 C 70.7 3.3 71 3.6 71.1 4 C 71.3 4.3 71.4 4.9 71.4 5.6 C 71.39 5.59 71.4 10.2 71.4 10.2 L 70.2 10.2 C 70.2 10.2 70.16 5.59 70.2 5.6 C 70.2 5 70 4.5 69.8 4.2 C 69.5 4 69.1 3.8 68.6 3.8 C 68.3 3.8 67.9 3.9 67.6 4.1 C 67.3 4.3 67.1 4.6 66.9 4.9 C 66.8 5.2 66.7 5.7 66.7 6.2 C 66.71 6.22 66.7 10.2 66.7 10.2 L 65.5 10.2 Z M 78.3 10.2 C 78.1 9.9 78 9.6 78 9.3 C 77.5 9.7 77.1 10 76.7 10.1 C 76.3 10.3 75.8 10.4 75.3 10.4 C 74.5 10.4 73.9 10.2 73.5 9.8 C 73.1 9.4 72.9 8.9 72.9 8.3 C 72.9 7.9 72.9 7.6 73.1 7.3 C 73.3 7 73.5 6.8 73.7 6.6 C 74 6.4 74.3 6.3 74.6 6.2 C 74.9 6.1 75.2 6.1 75.7 6 C 76.7 5.9 77.4 5.7 77.9 5.6 C 77.9 5.4 77.9 5.3 77.9 5.3 C 77.9 4.8 77.8 4.4 77.6 4.2 C 77.2 3.9 76.8 3.8 76.2 3.8 C 75.6 3.8 75.2 3.9 74.9 4.1 C 74.6 4.3 74.4 4.7 74.3 5.2 C 74.3 5.2 73.1 5 73.1 5 C 73.2 4.5 73.4 4.1 73.6 3.8 C 73.9 3.4 74.2 3.2 74.7 3 C 75.2 2.9 75.7 2.8 76.3 2.8 C 77 2.8 77.5 2.8 77.8 3 C 78.2 3.1 78.5 3.3 78.7 3.5 C 78.9 3.8 79 4 79.1 4.4 C 79.1 4.6 79.1 5 79.1 5.5 C 79.1 5.5 79.1 7.2 79.1 7.2 C 79.1 8.3 79.2 9 79.2 9.3 C 79.3 9.6 79.4 9.9 79.5 10.2 C 79.54 10.19 78.3 10.2 78.3 10.2 C 78.3 10.2 78.25 10.19 78.3 10.2 Z M 77.9 6.5 C 77.5 6.7 76.8 6.9 75.9 7 C 75.4 7.1 75 7.2 74.8 7.3 C 74.6 7.4 74.4 7.5 74.3 7.7 C 74.2 7.8 74.2 8 74.2 8.2 C 74.2 8.6 74.3 8.8 74.5 9.1 C 74.8 9.3 75.1 9.4 75.6 9.4 C 76.1 9.4 76.5 9.3 76.9 9.1 C 77.3 8.9 77.5 8.6 77.7 8.2 C 77.8 8 77.9 7.5 77.9 7 C 77.9 7 77.9 6.5 77.9 6.5 Z M 81.1 10.2 L 81.1 2.9 L 82.2 2.9 C 82.2 2.9 82.16 3.96 82.2 4 C 82.7 3.2 83.5 2.8 84.5 2.8 C 84.9 2.8 85.3 2.8 85.7 3 C 86 3.2 86.3 3.4 86.5 3.6 C 86.7 3.9 86.8 4.2 86.9 4.5 C 86.9 4.8 87 5.2 87 5.7 C 86.95 5.73 87 10.2 87 10.2 L 85.7 10.2 C 85.7 10.2 85.72 5.78 85.7 5.8 C 85.7 5.3 85.7 4.9 85.6 4.7 C 85.5 4.4 85.3 4.2 85.1 4.1 C 84.8 3.9 84.5 3.8 84.2 3.8 C 83.7 3.8 83.2 4 82.9 4.3 C 82.5 4.7 82.3 5.3 82.3 6.2 C 82.28 6.23 82.3 10.2 82.3 10.2 L 81.1 10.2 Z M 88.8 10.2 L 88.8 2.9 L 89.9 2.9 C 89.9 2.9 89.95 3.96 89.9 4 C 90.5 3.2 91.3 2.8 92.3 2.8 C 92.7 2.8 93.1 2.8 93.5 3 C 93.8 3.2 94.1 3.4 94.3 3.6 C 94.5 3.9 94.6 4.2 94.7 4.5 C 94.7 4.8 94.7 5.2 94.7 5.7 C 94.74 5.73 94.7 10.2 94.7 10.2 L 93.5 10.2 C 93.5 10.2 93.51 5.78 93.5 5.8 C 93.5 5.3 93.5 4.9 93.4 4.7 C 93.3 4.4 93.1 4.2 92.9 4.1 C 92.6 3.9 92.3 3.8 92 3.8 C 91.5 3.8 91 4 90.6 4.3 C 90.3 4.7 90.1 5.3 90.1 6.2 C 90.07 6.23 90.1 10.2 90.1 10.2 L 88.8 10.2 Z M 101.6 7.9 C 101.6 7.9 102.9 8 102.9 8 C 102.7 8.8 102.3 9.3 101.8 9.7 C 101.2 10.2 100.5 10.4 99.7 10.4 C 98.6 10.4 97.8 10 97.1 9.4 C 96.5 8.7 96.2 7.8 96.2 6.6 C 96.2 5.4 96.5 4.5 97.2 3.8 C 97.8 3.1 98.6 2.8 99.6 2.8 C 100.6 2.8 101.4 3.1 102 3.8 C 102.6 4.4 102.9 5.4 102.9 6.5 C 102.9 6.6 102.9 6.7 102.9 6.9 C 102.9 6.9 97.5 6.9 97.5 6.9 C 97.5 7.7 97.8 8.3 98.2 8.7 C 98.6 9.1 99.1 9.3 99.7 9.3 C 100.1 9.3 100.5 9.2 100.8 9 C 101.2 8.8 101.4 8.4 101.6 7.9 Z M 97.6 5.9 C 97.6 5.9 101.6 5.9 101.6 5.9 C 101.6 5.3 101.4 4.8 101.1 4.5 C 100.8 4 100.2 3.8 99.6 3.8 C 99.1 3.8 98.6 4 98.2 4.3 C 97.8 4.7 97.6 5.2 97.6 5.9 Z M 104.4 10.2 L 104.4 0.2 L 105.6 0.2 L 105.6 10.2 L 104.4 10.2 Z M 111.5 10.2 L 111.5 0.2 L 113.5 0.2 C 113.5 0.2 115.9 7.27 115.9 7.3 C 116.1 7.9 116.3 8.4 116.4 8.8 C 116.5 8.4 116.7 7.9 116.9 7.1 C 116.91 7.14 119.3 0.2 119.3 0.2 L 121.1 0.2 L 121.1 10.2 L 119.8 10.2 L 119.8 1.8 L 116.9 10.2 L 115.7 10.2 L 112.8 1.7 L 112.8 10.2 L 111.5 10.2 Z M 128.1 10.2 C 127.9 9.9 127.8 9.6 127.8 9.3 C 127.4 9.7 126.9 10 126.5 10.1 C 126.1 10.3 125.6 10.4 125.1 10.4 C 124.3 10.4 123.7 10.2 123.3 9.8 C 122.9 9.4 122.7 8.9 122.7 8.3 C 122.7 7.9 122.7 7.6 122.9 7.3 C 123.1 7 123.3 6.8 123.5 6.6 C 123.8 6.4 124.1 6.3 124.4 6.2 C 124.7 6.1 125 6.1 125.5 6 C 126.5 5.9 127.2 5.7 127.7 5.6 C 127.7 5.4 127.7 5.3 127.7 5.3 C 127.7 4.8 127.6 4.4 127.4 4.2 C 127.1 3.9 126.6 3.8 126 3.8 C 125.4 3.8 125 3.9 124.7 4.1 C 124.4 4.3 124.2 4.7 124.1 5.2 C 124.1 5.2 122.9 5 122.9 5 C 123 4.5 123.2 4.1 123.4 3.8 C 123.7 3.4 124 3.2 124.5 3 C 125 2.9 125.5 2.8 126.1 2.8 C 126.8 2.8 127.3 2.8 127.7 3 C 128 3.1 128.3 3.3 128.5 3.5 C 128.7 3.8 128.8 4 128.9 4.4 C 128.9 4.6 129 5 129 5.5 C 129 5.5 129 7.2 129 7.2 C 129 8.3 129 9 129 9.3 C 129.1 9.6 129.2 9.9 129.3 10.2 C 129.34 10.19 128.1 10.2 128.1 10.2 C 128.1 10.2 128.06 10.19 128.1 10.2 Z M 127.7 6.5 C 127.3 6.7 126.6 6.9 125.7 7 C 125.2 7.1 124.8 7.2 124.6 7.3 C 124.4 7.4 124.3 7.5 124.1 7.7 C 124 7.8 124 8 124 8.2 C 124 8.6 124.1 8.8 124.3 9.1 C 124.6 9.3 125 9.4 125.4 9.4 C 125.9 9.4 126.3 9.3 126.7 9.1 C 127.1 8.9 127.3 8.6 127.5 8.2 C 127.6 8 127.7 7.5 127.7 7 C 127.7 7 127.7 6.5 127.7 6.5 Z M 130.8 10.2 L 130.8 2.9 L 132 2.9 C 132 2.9 131.95 4.03 132 4 C 132.2 3.5 132.5 3.2 132.7 3 C 133 2.9 133.2 2.8 133.5 2.8 C 133.9 2.8 134.4 2.9 134.8 3.2 C 134.8 3.2 134.4 4.3 134.4 4.3 C 134.1 4.1 133.8 4 133.5 4 C 133.2 4 133 4.1 132.7 4.3 C 132.5 4.4 132.4 4.7 132.3 5 C 132.1 5.4 132.1 5.9 132.1 6.4 C 132.08 6.39 132.1 10.2 132.1 10.2 L 130.8 10.2 Z M 135.5 10.2 L 135.5 0.2 L 136.8 0.2 L 136.8 5.9 L 139.7 2.9 L 141.3 2.9 L 138.5 5.6 L 141.5 10.2 L 140 10.2 L 137.6 6.5 L 136.8 7.3 L 136.8 10.2 L 135.5 10.2 Z M 147.5 7.9 C 147.5 7.9 148.8 8 148.8 8 C 148.6 8.8 148.2 9.3 147.6 9.7 C 147.1 10.2 146.4 10.4 145.6 10.4 C 144.5 10.4 143.7 10 143 9.4 C 142.4 8.7 142.1 7.8 142.1 6.6 C 142.1 5.4 142.4 4.5 143.1 3.8 C 143.7 3.1 144.5 2.8 145.5 2.8 C 146.5 2.8 147.3 3.1 147.9 3.8 C 148.5 4.4 148.8 5.4 148.8 6.5 C 148.8 6.6 148.8 6.7 148.8 6.9 C 148.8 6.9 143.4 6.9 143.4 6.9 C 143.4 7.7 143.7 8.3 144.1 8.7 C 144.5 9.1 145 9.3 145.6 9.3 C 146 9.3 146.4 9.2 146.7 9 C 147.1 8.8 147.3 8.4 147.5 7.9 Z M 143.5 5.9 C 143.5 5.9 147.5 5.9 147.5 5.9 C 147.5 5.3 147.3 4.8 147 4.5 C 146.6 4 146.1 3.8 145.5 3.8 C 145 3.8 144.5 4 144.1 4.3 C 143.7 4.7 143.5 5.2 143.5 5.9 Z M 152.5 9.1 C 152.6 9.1 152.8 9.1 153 9.1 C 153 9.1 153.2 10.2 153.2 10.2 C 152.8 10.3 152.5 10.3 152.2 10.3 C 151.8 10.3 151.5 10.2 151.2 10.1 C 151 9.9 150.8 9.7 150.7 9.5 C 150.6 9.3 150.5 8.8 150.5 8.1 C 150.53 8.07 150.5 3.9 150.5 3.9 L 149.6 3.9 L 149.6 2.9 L 150.5 2.9 L 150.5 1.1 L 151.8 0.4 L 151.8 2.9 L 153 2.9 L 153 3.9 L 151.8 3.9 C 151.8 3.9 151.76 8.13 151.8 8.1 C 151.8 8.5 151.8 8.7 151.8 8.8 C 151.9 8.9 151.9 9 152 9.1 C 152.1 9.1 152.3 9.1 152.5 9.1 C 152.5 9.1 152.5 9.1 152.5 9.1 Z M 159.2 7.9 C 159.2 7.9 160.4 8 160.4 8 C 160.2 8.8 159.9 9.3 159.3 9.7 C 158.8 10.2 158.1 10.4 157.2 10.4 C 156.2 10.4 155.3 10 154.7 9.4 C 154.1 8.7 153.8 7.8 153.8 6.6 C 153.8 5.4 154.1 4.5 154.7 3.8 C 155.4 3.1 156.2 2.8 157.2 2.8 C 158.1 2.8 158.9 3.1 159.6 3.8 C 160.2 4.4 160.5 5.4 160.5 6.5 C 160.5 6.6 160.5 6.7 160.5 6.9 C 160.5 6.9 155.1 6.9 155.1 6.9 C 155.1 7.7 155.3 8.3 155.7 8.7 C 156.1 9.1 156.6 9.3 157.3 9.3 C 157.7 9.3 158.1 9.2 158.4 9 C 158.7 8.8 159 8.4 159.2 7.9 Z M 155.1 5.9 C 155.1 5.9 159.2 5.9 159.2 5.9 C 159.1 5.3 159 4.8 158.7 4.5 C 158.3 4 157.8 3.8 157.2 3.8 C 156.6 3.8 156.2 4 155.8 4.3 C 155.4 4.7 155.2 5.2 155.1 5.9 Z M 162 10.2 L 162 2.9 L 163.1 2.9 C 163.1 2.9 163.08 4.03 163.1 4 C 163.4 3.5 163.6 3.2 163.9 3 C 164.1 2.9 164.4 2.8 164.7 2.8 C 165.1 2.8 165.5 2.9 165.9 3.2 C 165.9 3.2 165.5 4.3 165.5 4.3 C 165.2 4.1 164.9 4 164.6 4 C 164.3 4 164.1 4.1 163.9 4.3 C 163.6 4.4 163.5 4.7 163.4 5 C 163.3 5.4 163.2 5.9 163.2 6.4 C 163.2 6.39 163.2 10.2 163.2 10.2 L 162 10.2 Z " stroke="none" fill="#000000"/>  </g></svg>