<?xml version="1.0" standalone="no"?><!DOCTYPE svg PUBLIC "-//W3C//DTD SVG 1.1//EN" "http://www.w3.org/Graphics/SVG/1.1/DTD/svg11.dtd"><svg xmlns="http://www.w3.org/2000/svg" version="1.1" width="19.5px" height="23.9px" viewBox="0 -5 19.5 23.9" style="top:-5px">  <desc>4.7</desc>  <defs/>  <g id="Polygon141320">    <path d="M 4.4 10.2 L 4.4 8.2 L 0.3 8.2 L 0.3 6.5 L 4.6 0.1 L 6.2 0.1 L 6.2 6.5 L 7.5 6.5 L 7.5 8.2 L 6.2 8.2 L 6.2 10.2 L 4.4 10.2 Z M 4.4 6.5 L 4.4 3.1 L 2.1 6.5 L 4.4 6.5 Z M 8.8 10.2 L 8.8 8.3 L 10.7 8.3 L 10.7 10.2 L 8.8 10.2 Z M 12.3 2.1 L 12.3 0.3 L 18.8 0.3 C 18.8 0.3 18.84 1.7 18.8 1.7 C 18.3 2.2 17.7 3 17.2 4 C 16.6 5 16.2 6.1 15.9 7.2 C 15.6 8.3 15.5 9.3 15.5 10.2 C 15.5 10.2 13.6 10.2 13.6 10.2 C 13.6 8.8 13.9 7.4 14.5 6 C 15 4.5 15.7 3.2 16.6 2.1 C 16.64 2.09 12.3 2.1 12.3 2.1 Z " stroke="none" fill="#ffffff"/>  </g></svg>