<?xml version="1.0" standalone="no"?><!DOCTYPE svg PUBLIC "-//W3C//DTD SVG 1.1//EN" "http://www.w3.org/Graphics/SVG/1.1/DTD/svg11.dtd"><svg xmlns="http://www.w3.org/2000/svg" version="1.1" width="657.4px" height="39.9px" viewBox="0 -5 657.4 39.9" style="top:-5px">  <desc>We partner with training providers across a range of sectors including Financial Services, NHS, Public Sector, Retail...</desc>  <defs/>  <g id="Polygon140489">    <path d="M 0.6 23.8 C 0.6 23.8 1.9 23.7 1.9 23.7 C 1.9 24.2 2.1 24.6 2.3 24.9 C 2.5 25.2 2.8 25.5 3.3 25.7 C 3.8 25.9 4.3 26 4.8 26 C 5.3 26 5.8 25.9 6.2 25.7 C 6.6 25.6 6.9 25.4 7 25.1 C 7.2 24.9 7.3 24.6 7.3 24.3 C 7.3 24 7.2 23.7 7.1 23.4 C 6.9 23.2 6.6 23 6.2 22.9 C 5.9 22.8 5.3 22.6 4.4 22.4 C 3.4 22.1 2.8 21.9 2.4 21.7 C 2 21.5 1.6 21.2 1.4 20.8 C 1.1 20.4 1 20 1 19.6 C 1 19.1 1.2 18.6 1.4 18.1 C 1.7 17.7 2.1 17.4 2.7 17.1 C 3.3 16.9 3.9 16.8 4.5 16.8 C 5.3 16.8 5.9 16.9 6.5 17.2 C 7.1 17.4 7.5 17.8 7.8 18.2 C 8.1 18.7 8.3 19.2 8.3 19.8 C 8.3 19.8 7 19.9 7 19.9 C 7 19.3 6.7 18.8 6.3 18.5 C 5.9 18.1 5.4 18 4.6 18 C 3.8 18 3.2 18.1 2.8 18.4 C 2.5 18.7 2.3 19.1 2.3 19.5 C 2.3 19.8 2.4 20.1 2.7 20.4 C 2.9 20.6 3.6 20.8 4.7 21.1 C 5.8 21.3 6.5 21.5 6.9 21.7 C 7.5 22 7.9 22.3 8.2 22.7 C 8.5 23.1 8.6 23.6 8.6 24.2 C 8.6 24.7 8.5 25.2 8.1 25.7 C 7.8 26.1 7.4 26.5 6.8 26.8 C 6.3 27 5.6 27.2 4.9 27.2 C 4 27.2 3.2 27 2.6 26.8 C 2 26.5 1.5 26.1 1.2 25.6 C 0.8 25 0.6 24.4 0.6 23.8 Z M 15.2 24.7 C 15.2 24.7 16.5 24.8 16.5 24.8 C 16.3 25.6 15.9 26.1 15.4 26.5 C 14.8 27 14.2 27.2 13.3 27.2 C 12.2 27.2 11.4 26.8 10.8 26.2 C 10.2 25.5 9.9 24.6 9.9 23.4 C 9.9 22.2 10.2 21.3 10.8 20.6 C 11.4 19.9 12.2 19.6 13.2 19.6 C 14.2 19.6 15 19.9 15.6 20.6 C 16.2 21.2 16.5 22.2 16.5 23.3 C 16.5 23.4 16.5 23.5 16.5 23.7 C 16.5 23.7 11.1 23.7 11.1 23.7 C 11.2 24.5 11.4 25.1 11.8 25.5 C 12.2 25.9 12.7 26.1 13.3 26.1 C 13.8 26.1 14.2 26 14.5 25.8 C 14.8 25.6 15 25.2 15.2 24.7 Z M 11.2 22.7 C 11.2 22.7 15.2 22.7 15.2 22.7 C 15.2 22.1 15 21.6 14.8 21.3 C 14.4 20.8 13.9 20.6 13.3 20.6 C 12.7 20.6 12.2 20.8 11.8 21.1 C 11.4 21.5 11.2 22 11.2 22.7 Z M 22.8 24.3 C 22.8 24.3 24 24.5 24 24.5 C 23.9 25.3 23.5 26 23 26.4 C 22.4 26.9 21.8 27.2 21 27.2 C 20 27.2 19.2 26.8 18.6 26.2 C 18 25.5 17.7 24.6 17.7 23.4 C 17.7 22.6 17.8 21.9 18.1 21.3 C 18.3 20.7 18.7 20.3 19.2 20 C 19.8 19.7 20.4 19.6 21 19.6 C 21.8 19.6 22.4 19.8 22.9 20.2 C 23.4 20.6 23.7 21.1 23.9 21.9 C 23.9 21.9 22.7 22 22.7 22 C 22.6 21.6 22.4 21.2 22.1 20.9 C 21.8 20.7 21.4 20.6 21 20.6 C 20.4 20.6 19.9 20.8 19.5 21.2 C 19.1 21.7 18.9 22.4 18.9 23.4 C 18.9 24.3 19.1 25 19.5 25.5 C 19.9 25.9 20.4 26.1 21 26.1 C 21.4 26.1 21.8 26 22.2 25.7 C 22.5 25.4 22.7 24.9 22.8 24.3 Z M 27.2 25.9 C 27.3 25.9 27.5 25.9 27.7 25.9 C 27.7 25.9 27.9 27 27.9 27 C 27.6 27.1 27.3 27.1 27 27.1 C 26.5 27.1 26.2 27 25.9 26.9 C 25.7 26.7 25.5 26.5 25.4 26.3 C 25.3 26.1 25.3 25.6 25.3 24.9 C 25.27 24.87 25.3 20.7 25.3 20.7 L 24.4 20.7 L 24.4 19.7 L 25.3 19.7 L 25.3 17.9 L 26.5 17.2 L 26.5 19.7 L 27.7 19.7 L 27.7 20.7 L 26.5 20.7 C 26.5 20.7 26.5 24.93 26.5 24.9 C 26.5 25.3 26.5 25.5 26.6 25.6 C 26.6 25.7 26.7 25.8 26.8 25.9 C 26.9 25.9 27 25.9 27.2 25.9 C 27.2 25.9 27.2 25.9 27.2 25.9 Z M 28.5 23.4 C 28.5 22 28.9 21 29.6 20.4 C 30.2 19.8 31 19.6 31.9 19.6 C 32.9 19.6 33.7 19.9 34.3 20.5 C 35 21.2 35.3 22.1 35.3 23.3 C 35.3 24.2 35.1 24.9 34.9 25.5 C 34.6 26 34.2 26.4 33.6 26.7 C 33.1 27 32.5 27.2 31.9 27.2 C 30.9 27.2 30 26.8 29.4 26.2 C 28.8 25.5 28.5 24.6 28.5 23.4 Z M 29.7 23.4 C 29.7 24.3 29.9 25 30.4 25.5 C 30.8 25.9 31.3 26.1 31.9 26.1 C 32.5 26.1 33 25.9 33.4 25.4 C 33.8 25 34 24.3 34 23.3 C 34 22.4 33.8 21.7 33.4 21.3 C 33 20.8 32.5 20.6 31.9 20.6 C 31.3 20.6 30.8 20.8 30.4 21.3 C 29.9 21.7 29.7 22.4 29.7 23.4 Z M 36.7 27 L 36.7 19.7 L 37.8 19.7 C 37.8 19.7 37.82 20.83 37.8 20.8 C 38.1 20.3 38.4 20 38.6 19.8 C 38.8 19.7 39.1 19.6 39.4 19.6 C 39.8 19.6 40.2 19.7 40.7 20 C 40.7 20 40.2 21.1 40.2 21.1 C 39.9 20.9 39.6 20.8 39.3 20.8 C 39.1 20.8 38.8 20.9 38.6 21.1 C 38.4 21.2 38.2 21.5 38.1 21.8 C 38 22.2 37.9 22.7 37.9 23.2 C 37.94 23.19 37.9 27 37.9 27 L 36.7 27 Z M 40.9 27 L 40.9 25.6 L 42.3 25.6 C 42.3 25.6 42.33 26.99 42.3 27 C 42.3 27.5 42.2 27.9 42.1 28.2 C 41.9 28.6 41.6 28.8 41.2 29 C 41.2 29 40.9 28.4 40.9 28.4 C 41.1 28.3 41.3 28.2 41.4 27.9 C 41.5 27.7 41.6 27.4 41.6 27 C 41.63 26.99 40.9 27 40.9 27 Z M 48.6 27 L 48.6 17 C 48.6 17 53.01 16.97 53 17 C 53.9 17 54.6 17.1 55 17.2 C 55.5 17.4 55.9 17.7 56.2 18.2 C 56.4 18.7 56.6 19.2 56.6 19.7 C 56.6 20.4 56.4 21 55.9 21.5 C 55.4 22 54.7 22.3 53.8 22.4 C 54.1 22.6 54.4 22.8 54.6 22.9 C 54.9 23.3 55.3 23.7 55.7 24.3 C 55.66 24.26 57.4 27 57.4 27 L 55.7 27 C 55.7 27 54.41 24.91 54.4 24.9 C 54 24.3 53.7 23.8 53.5 23.5 C 53.2 23.2 53 23 52.8 22.9 C 52.6 22.7 52.4 22.6 52.2 22.6 C 52 22.6 51.8 22.5 51.4 22.5 C 51.43 22.54 49.9 22.5 49.9 22.5 L 49.9 27 L 48.6 27 Z M 49.9 21.4 C 49.9 21.4 52.75 21.39 52.7 21.4 C 53.4 21.4 53.8 21.3 54.2 21.2 C 54.5 21.1 54.8 20.9 54.9 20.6 C 55.1 20.3 55.2 20 55.2 19.7 C 55.2 19.2 55 18.8 54.7 18.5 C 54.4 18.2 53.8 18.1 53.1 18.1 C 53.07 18.08 49.9 18.1 49.9 18.1 L 49.9 21.4 Z M 63.5 24.7 C 63.5 24.7 64.7 24.8 64.7 24.8 C 64.5 25.6 64.2 26.1 63.6 26.5 C 63.1 27 62.4 27.2 61.6 27.2 C 60.5 27.2 59.6 26.8 59 26.2 C 58.4 25.5 58.1 24.6 58.1 23.4 C 58.1 22.2 58.4 21.3 59 20.6 C 59.7 19.9 60.5 19.6 61.5 19.6 C 62.5 19.6 63.2 19.9 63.9 20.6 C 64.5 21.2 64.8 22.2 64.8 23.3 C 64.8 23.4 64.8 23.5 64.8 23.7 C 64.8 23.7 59.4 23.7 59.4 23.7 C 59.4 24.5 59.6 25.1 60 25.5 C 60.4 25.9 61 26.1 61.6 26.1 C 62 26.1 62.4 26 62.7 25.8 C 63 25.6 63.3 25.2 63.5 24.7 Z M 59.4 22.7 C 59.4 22.7 63.5 22.7 63.5 22.7 C 63.4 22.1 63.3 21.6 63 21.3 C 62.6 20.8 62.1 20.6 61.5 20.6 C 60.9 20.6 60.5 20.8 60.1 21.1 C 59.7 21.5 59.5 22 59.4 22.7 Z M 68.4 25.9 C 68.6 25.9 68.8 25.9 69 25.9 C 69 25.9 69.2 27 69.2 27 C 68.8 27.1 68.5 27.1 68.2 27.1 C 67.8 27.1 67.4 27 67.2 26.9 C 66.9 26.7 66.8 26.5 66.7 26.3 C 66.6 26.1 66.5 25.6 66.5 24.9 C 66.51 24.87 66.5 20.7 66.5 20.7 L 65.6 20.7 L 65.6 19.7 L 66.5 19.7 L 66.5 17.9 L 67.7 17.2 L 67.7 19.7 L 69 19.7 L 69 20.7 L 67.7 20.7 C 67.7 20.7 67.74 24.93 67.7 24.9 C 67.7 25.3 67.8 25.5 67.8 25.6 C 67.8 25.7 67.9 25.8 68 25.9 C 68.1 25.9 68.3 25.9 68.4 25.9 C 68.4 25.9 68.4 25.9 68.4 25.9 Z M 75.2 27 C 75 26.7 75 26.4 74.9 26.1 C 74.5 26.5 74 26.8 73.6 26.9 C 73.2 27.1 72.7 27.2 72.2 27.2 C 71.4 27.2 70.8 27 70.4 26.6 C 70 26.2 69.8 25.7 69.8 25.1 C 69.8 24.7 69.8 24.4 70 24.1 C 70.2 23.8 70.4 23.6 70.6 23.4 C 70.9 23.2 71.2 23.1 71.5 23 C 71.8 22.9 72.1 22.9 72.6 22.8 C 73.6 22.7 74.3 22.5 74.8 22.4 C 74.8 22.2 74.8 22.1 74.8 22.1 C 74.8 21.6 74.7 21.2 74.5 21 C 74.2 20.7 73.7 20.6 73.1 20.6 C 72.5 20.6 72.1 20.7 71.8 20.9 C 71.5 21.1 71.3 21.5 71.2 22 C 71.2 22 70 21.8 70 21.8 C 70.1 21.3 70.3 20.9 70.5 20.6 C 70.8 20.2 71.1 20 71.6 19.8 C 72.1 19.7 72.6 19.6 73.2 19.6 C 73.9 19.6 74.4 19.6 74.8 19.8 C 75.1 19.9 75.4 20.1 75.6 20.3 C 75.8 20.6 75.9 20.8 76 21.2 C 76 21.4 76.1 21.8 76.1 22.3 C 76.1 22.3 76.1 24 76.1 24 C 76.1 25.1 76.1 25.8 76.1 26.1 C 76.2 26.4 76.3 26.7 76.4 27 C 76.45 26.99 75.2 27 75.2 27 C 75.2 27 75.16 26.99 75.2 27 Z M 74.8 23.3 C 74.4 23.5 73.7 23.7 72.8 23.8 C 72.3 23.9 71.9 24 71.7 24.1 C 71.5 24.2 71.4 24.3 71.2 24.5 C 71.1 24.6 71.1 24.8 71.1 25 C 71.1 25.4 71.2 25.6 71.4 25.9 C 71.7 26.1 72.1 26.2 72.5 26.2 C 73 26.2 73.4 26.1 73.8 25.9 C 74.2 25.7 74.4 25.4 74.6 25 C 74.7 24.8 74.8 24.3 74.8 23.8 C 74.8 23.8 74.8 23.3 74.8 23.3 Z M 78 18.4 L 78 17 L 79.2 17 L 79.2 18.4 L 78 18.4 Z M 78 27 L 78 19.7 L 79.2 19.7 L 79.2 27 L 78 27 Z M 81 27 L 81 17 L 82.3 17 L 82.3 27 L 81 27 Z M 93.1 27 C 92.9 26.7 92.8 26.4 92.8 26.1 C 92.4 26.5 91.9 26.8 91.5 26.9 C 91.1 27.1 90.6 27.2 90.1 27.2 C 89.3 27.2 88.7 27 88.3 26.6 C 87.9 26.2 87.7 25.7 87.7 25.1 C 87.7 24.7 87.7 24.4 87.9 24.1 C 88.1 23.8 88.3 23.6 88.5 23.4 C 88.8 23.2 89.1 23.1 89.4 23 C 89.7 22.9 90 22.9 90.5 22.8 C 91.5 22.7 92.2 22.5 92.7 22.4 C 92.7 22.2 92.7 22.1 92.7 22.1 C 92.7 21.6 92.6 21.2 92.4 21 C 92.1 20.7 91.6 20.6 91 20.6 C 90.4 20.6 90 20.7 89.7 20.9 C 89.4 21.1 89.2 21.5 89.1 22 C 89.1 22 87.9 21.8 87.9 21.8 C 88 21.3 88.2 20.9 88.4 20.6 C 88.7 20.2 89 20 89.5 19.8 C 90 19.7 90.5 19.6 91.1 19.6 C 91.8 19.6 92.3 19.6 92.7 19.8 C 93 19.9 93.3 20.1 93.5 20.3 C 93.7 20.6 93.8 20.8 93.9 21.2 C 93.9 21.4 94 21.8 94 22.3 C 94 22.3 94 24 94 24 C 94 25.1 94 25.8 94 26.1 C 94.1 26.4 94.2 26.7 94.3 27 C 94.34 26.99 93.1 27 93.1 27 C 93.1 27 93.06 26.99 93.1 27 Z M 92.7 23.3 C 92.3 23.5 91.6 23.7 90.7 23.8 C 90.2 23.9 89.8 24 89.6 24.1 C 89.4 24.2 89.3 24.3 89.1 24.5 C 89 24.6 89 24.8 89 25 C 89 25.4 89.1 25.6 89.3 25.9 C 89.6 26.1 90 26.2 90.4 26.2 C 90.9 26.2 91.3 26.1 91.7 25.9 C 92.1 25.7 92.3 25.4 92.5 25 C 92.6 24.8 92.7 24.3 92.7 23.8 C 92.7 23.8 92.7 23.3 92.7 23.3 Z M 95.9 27 L 95.9 19.7 L 97 19.7 C 97 19.7 96.97 20.76 97 20.8 C 97.5 20 98.3 19.6 99.3 19.6 C 99.7 19.6 100.1 19.6 100.5 19.8 C 100.9 20 101.1 20.2 101.3 20.4 C 101.5 20.7 101.6 21 101.7 21.3 C 101.7 21.6 101.8 22 101.8 22.5 C 101.76 22.53 101.8 27 101.8 27 L 100.5 27 C 100.5 27 100.53 22.58 100.5 22.6 C 100.5 22.1 100.5 21.7 100.4 21.5 C 100.3 21.2 100.1 21 99.9 20.9 C 99.6 20.7 99.3 20.6 99 20.6 C 98.5 20.6 98 20.8 97.7 21.1 C 97.3 21.5 97.1 22.1 97.1 23 C 97.09 23.03 97.1 27 97.1 27 L 95.9 27 Z M 108.4 27 C 108.4 27 108.36 26.08 108.4 26.1 C 107.9 26.8 107.2 27.2 106.3 27.2 C 105.7 27.2 105.2 27 104.7 26.7 C 104.2 26.4 103.9 25.9 103.6 25.3 C 103.3 24.8 103.2 24.1 103.2 23.4 C 103.2 22.6 103.3 22 103.6 21.4 C 103.8 20.8 104.2 20.4 104.7 20 C 105.1 19.7 105.7 19.6 106.3 19.6 C 106.7 19.6 107.1 19.7 107.4 19.8 C 107.8 20 108.1 20.3 108.3 20.6 C 108.27 20.57 108.3 17 108.3 17 L 109.5 17 L 109.5 27 L 108.4 27 Z M 104.5 23.4 C 104.5 24.3 104.7 25 105.1 25.5 C 105.4 25.9 105.9 26.1 106.4 26.1 C 107 26.1 107.4 25.9 107.8 25.5 C 108.2 25 108.4 24.4 108.4 23.5 C 108.4 22.5 108.2 21.7 107.8 21.3 C 107.4 20.8 106.9 20.6 106.4 20.6 C 105.8 20.6 105.4 20.8 105 21.3 C 104.7 21.7 104.5 22.4 104.5 23.4 Z M 115.5 27 L 115.5 17 C 115.5 17 119.26 16.97 119.3 17 C 119.9 17 120.4 17 120.8 17.1 C 121.3 17.1 121.7 17.3 122 17.5 C 122.4 17.8 122.6 18.1 122.8 18.5 C 123 18.9 123.1 19.4 123.1 19.9 C 123.1 20.7 122.9 21.4 122.3 22 C 121.8 22.6 120.8 22.9 119.4 22.9 C 119.38 22.92 116.8 22.9 116.8 22.9 L 116.8 27 L 115.5 27 Z M 116.8 21.7 C 116.8 21.7 119.4 21.74 119.4 21.7 C 120.3 21.7 120.9 21.6 121.2 21.3 C 121.6 20.9 121.8 20.5 121.8 19.9 C 121.8 19.5 121.7 19.1 121.4 18.8 C 121.2 18.5 121 18.3 120.6 18.2 C 120.4 18.2 120 18.2 119.4 18.2 C 119.37 18.15 116.8 18.2 116.8 18.2 L 116.8 21.7 Z M 124.6 27 L 124.6 19.7 L 125.8 19.7 C 125.8 19.7 125.75 20.83 125.8 20.8 C 126 20.3 126.3 20 126.5 19.8 C 126.8 19.7 127 19.6 127.3 19.6 C 127.7 19.6 128.2 19.7 128.6 20 C 128.6 20 128.2 21.1 128.2 21.1 C 127.9 20.9 127.6 20.8 127.3 20.8 C 127 20.8 126.8 20.9 126.5 21.1 C 126.3 21.2 126.2 21.5 126.1 21.8 C 125.9 22.2 125.9 22.7 125.9 23.2 C 125.88 23.19 125.9 27 125.9 27 L 124.6 27 Z M 128.9 23.4 C 128.9 22 129.2 21 130 20.4 C 130.6 19.8 131.4 19.6 132.3 19.6 C 133.3 19.6 134.1 19.9 134.7 20.5 C 135.3 21.2 135.7 22.1 135.7 23.3 C 135.7 24.2 135.5 24.9 135.2 25.5 C 135 26 134.6 26.4 134 26.7 C 133.5 27 132.9 27.2 132.3 27.2 C 131.3 27.2 130.4 26.8 129.8 26.2 C 129.2 25.5 128.9 24.6 128.9 23.4 Z M 130.1 23.4 C 130.1 24.3 130.3 25 130.7 25.5 C 131.1 25.9 131.7 26.1 132.3 26.1 C 132.9 26.1 133.4 25.9 133.8 25.4 C 134.2 25 134.4 24.3 134.4 23.3 C 134.4 22.4 134.2 21.7 133.8 21.3 C 133.4 20.8 132.9 20.6 132.3 20.6 C 131.7 20.6 131.1 20.8 130.7 21.3 C 130.3 21.7 130.1 22.4 130.1 23.4 Z M 137.4 27 L 137.4 20.7 L 136.3 20.7 L 136.3 19.7 L 137.4 19.7 C 137.4 19.7 137.4 18.96 137.4 19 C 137.4 18.5 137.4 18.1 137.5 17.9 C 137.7 17.6 137.9 17.3 138.2 17.1 C 138.5 16.9 138.9 16.8 139.4 16.8 C 139.8 16.8 140.1 16.8 140.6 16.9 C 140.6 16.9 140.4 18 140.4 18 C 140.1 18 139.9 17.9 139.7 17.9 C 139.3 17.9 139 18 138.9 18.2 C 138.7 18.3 138.6 18.6 138.6 19.1 C 138.63 19.06 138.6 19.7 138.6 19.7 L 140 19.7 L 140 20.7 L 138.6 20.7 L 138.6 27 L 137.4 27 Z M 146 24.7 C 146 24.7 147.2 24.8 147.2 24.8 C 147 25.6 146.7 26.1 146.1 26.5 C 145.6 27 144.9 27.2 144 27.2 C 143 27.2 142.1 26.8 141.5 26.2 C 140.9 25.5 140.6 24.6 140.6 23.4 C 140.6 22.2 140.9 21.3 141.5 20.6 C 142.2 19.9 143 19.6 144 19.6 C 144.9 19.6 145.7 19.9 146.4 20.6 C 147 21.2 147.3 22.2 147.3 23.3 C 147.3 23.4 147.3 23.5 147.3 23.7 C 147.3 23.7 141.9 23.7 141.9 23.7 C 141.9 24.5 142.1 25.1 142.5 25.5 C 142.9 25.9 143.4 26.1 144.1 26.1 C 144.5 26.1 144.9 26 145.2 25.8 C 145.5 25.6 145.8 25.2 146 24.7 Z M 141.9 22.7 C 141.9 22.7 146 22.7 146 22.7 C 145.9 22.1 145.8 21.6 145.5 21.3 C 145.1 20.8 144.6 20.6 144 20.6 C 143.4 20.6 143 20.8 142.6 21.1 C 142.2 21.5 142 22 141.9 22.7 Z M 148.3 24.8 C 148.3 24.8 149.5 24.6 149.5 24.6 C 149.6 25.1 149.8 25.5 150.1 25.8 C 150.4 26 150.8 26.1 151.4 26.1 C 152 26.1 152.4 26 152.6 25.8 C 152.9 25.6 153.1 25.3 153.1 25 C 153.1 24.7 152.9 24.5 152.7 24.3 C 152.5 24.2 152.1 24.1 151.4 23.9 C 150.5 23.7 149.9 23.5 149.6 23.3 C 149.2 23.2 148.9 22.9 148.8 22.6 C 148.6 22.3 148.5 22 148.5 21.7 C 148.5 21.3 148.6 21 148.7 20.8 C 148.9 20.5 149.1 20.3 149.3 20.1 C 149.5 19.9 149.8 19.8 150.1 19.7 C 150.4 19.6 150.8 19.6 151.2 19.6 C 151.7 19.6 152.2 19.7 152.7 19.8 C 153.1 20 153.4 20.2 153.6 20.5 C 153.8 20.8 154 21.1 154 21.6 C 154 21.6 152.8 21.8 152.8 21.8 C 152.8 21.4 152.6 21.1 152.4 20.9 C 152.1 20.7 151.7 20.6 151.3 20.6 C 150.7 20.6 150.3 20.7 150 20.9 C 149.8 21 149.7 21.3 149.7 21.5 C 149.7 21.7 149.7 21.8 149.8 21.9 C 149.9 22.1 150.1 22.2 150.3 22.3 C 150.4 22.3 150.8 22.4 151.4 22.6 C 152.3 22.8 152.9 23 153.2 23.2 C 153.6 23.3 153.8 23.5 154 23.8 C 154.2 24.1 154.3 24.4 154.3 24.9 C 154.3 25.3 154.2 25.7 154 26 C 153.7 26.4 153.4 26.7 152.9 26.9 C 152.5 27.1 152 27.2 151.4 27.2 C 150.5 27.2 149.7 27 149.2 26.6 C 148.7 26.2 148.4 25.6 148.3 24.8 Z M 155.3 24.8 C 155.3 24.8 156.5 24.6 156.5 24.6 C 156.6 25.1 156.8 25.5 157.1 25.8 C 157.4 26 157.8 26.1 158.4 26.1 C 159 26.1 159.4 26 159.6 25.8 C 159.9 25.6 160.1 25.3 160.1 25 C 160.1 24.7 159.9 24.5 159.7 24.3 C 159.5 24.2 159.1 24.1 158.4 23.9 C 157.5 23.7 156.9 23.5 156.6 23.3 C 156.2 23.2 155.9 22.9 155.8 22.6 C 155.6 22.3 155.5 22 155.5 21.7 C 155.5 21.3 155.6 21 155.7 20.8 C 155.9 20.5 156.1 20.3 156.3 20.1 C 156.5 19.9 156.8 19.8 157.1 19.7 C 157.4 19.6 157.8 19.6 158.2 19.6 C 158.7 19.6 159.2 19.7 159.7 19.8 C 160.1 20 160.4 20.2 160.6 20.5 C 160.8 20.8 161 21.1 161 21.6 C 161 21.6 159.8 21.8 159.8 21.8 C 159.8 21.4 159.6 21.1 159.4 20.9 C 159.1 20.7 158.7 20.6 158.3 20.6 C 157.7 20.6 157.3 20.7 157 20.9 C 156.8 21 156.7 21.3 156.7 21.5 C 156.7 21.7 156.7 21.8 156.8 21.9 C 156.9 22.1 157.1 22.2 157.3 22.3 C 157.4 22.3 157.8 22.4 158.4 22.6 C 159.3 22.8 159.9 23 160.2 23.2 C 160.6 23.3 160.8 23.5 161 23.8 C 161.2 24.1 161.3 24.4 161.3 24.9 C 161.3 25.3 161.2 25.7 161 26 C 160.7 26.4 160.4 26.7 159.9 26.9 C 159.5 27.1 159 27.2 158.4 27.2 C 157.5 27.2 156.7 27 156.2 26.6 C 155.7 26.2 155.4 25.6 155.3 24.8 Z M 162.8 18.4 L 162.8 17 L 164 17 L 164 18.4 L 162.8 18.4 Z M 162.8 27 L 162.8 19.7 L 164 19.7 L 164 27 L 162.8 27 Z M 165.4 23.4 C 165.4 22 165.8 21 166.6 20.4 C 167.2 19.8 167.9 19.6 168.8 19.6 C 169.8 19.6 170.7 19.9 171.3 20.5 C 171.9 21.2 172.2 22.1 172.2 23.3 C 172.2 24.2 172.1 24.9 171.8 25.5 C 171.5 26 171.1 26.4 170.6 26.7 C 170.1 27 169.5 27.2 168.8 27.2 C 167.8 27.2 167 26.8 166.4 26.2 C 165.7 25.5 165.4 24.6 165.4 23.4 Z M 166.7 23.4 C 166.7 24.3 166.9 25 167.3 25.5 C 167.7 25.9 168.2 26.1 168.8 26.1 C 169.5 26.1 170 25.9 170.4 25.4 C 170.8 25 171 24.3 171 23.3 C 171 22.4 170.8 21.7 170.4 21.3 C 170 20.8 169.4 20.6 168.8 20.6 C 168.2 20.6 167.7 20.8 167.3 21.3 C 166.9 21.7 166.7 22.4 166.7 23.4 Z M 173.7 27 L 173.7 19.7 L 174.8 19.7 C 174.8 19.7 174.79 20.76 174.8 20.8 C 175.3 20 176.1 19.6 177.1 19.6 C 177.5 19.6 177.9 19.6 178.3 19.8 C 178.7 20 178.9 20.2 179.1 20.4 C 179.3 20.7 179.4 21 179.5 21.3 C 179.6 21.6 179.6 22 179.6 22.5 C 179.58 22.53 179.6 27 179.6 27 L 178.3 27 C 178.3 27 178.35 22.58 178.3 22.6 C 178.3 22.1 178.3 21.7 178.2 21.5 C 178.1 21.2 177.9 21 177.7 20.9 C 177.5 20.7 177.2 20.6 176.8 20.6 C 176.3 20.6 175.9 20.8 175.5 21.1 C 175.1 21.5 174.9 22.1 174.9 23 C 174.91 23.03 174.9 27 174.9 27 L 173.7 27 Z M 186.5 27 C 186.3 26.7 186.2 26.4 186.2 26.1 C 185.7 26.5 185.3 26.8 184.9 26.9 C 184.5 27.1 184 27.2 183.5 27.2 C 182.7 27.2 182.1 27 181.7 26.6 C 181.3 26.2 181 25.7 181 25.1 C 181 24.7 181.1 24.4 181.3 24.1 C 181.5 23.8 181.7 23.6 181.9 23.4 C 182.2 23.2 182.5 23.1 182.8 23 C 183.1 22.9 183.4 22.9 183.9 22.8 C 184.9 22.7 185.6 22.5 186.1 22.4 C 186.1 22.2 186.1 22.1 186.1 22.1 C 186.1 21.6 186 21.2 185.8 21 C 185.4 20.7 185 20.6 184.4 20.6 C 183.8 20.6 183.4 20.7 183.1 20.9 C 182.8 21.1 182.6 21.5 182.5 22 C 182.5 22 181.3 21.8 181.3 21.8 C 181.4 21.3 181.6 20.9 181.8 20.6 C 182.1 20.2 182.4 20 182.9 19.8 C 183.4 19.7 183.9 19.6 184.5 19.6 C 185.2 19.6 185.7 19.6 186 19.8 C 186.4 19.9 186.7 20.1 186.9 20.3 C 187.1 20.6 187.2 20.8 187.3 21.2 C 187.3 21.4 187.3 21.8 187.3 22.3 C 187.3 22.3 187.3 24 187.3 24 C 187.3 25.1 187.4 25.8 187.4 26.1 C 187.5 26.4 187.6 26.7 187.7 27 C 187.74 26.99 186.5 27 186.5 27 C 186.5 27 186.45 26.99 186.5 27 Z M 186.1 23.3 C 185.7 23.5 185 23.7 184.1 23.8 C 183.6 23.9 183.2 24 183 24.1 C 182.8 24.2 182.6 24.3 182.5 24.5 C 182.4 24.6 182.4 24.8 182.4 25 C 182.4 25.4 182.5 25.6 182.7 25.9 C 183 26.1 183.3 26.2 183.8 26.2 C 184.3 26.2 184.7 26.1 185.1 25.9 C 185.5 25.7 185.7 25.4 185.9 25 C 186 24.8 186.1 24.3 186.1 23.8 C 186.1 23.8 186.1 23.3 186.1 23.3 Z M 189.2 27 L 189.2 17 L 190.5 17 L 190.5 27 L 189.2 27 Z M 196 23.8 C 196 23.8 197.2 23.7 197.2 23.7 C 197.3 24.2 197.4 24.6 197.6 24.9 C 197.8 25.2 198.2 25.5 198.6 25.7 C 199.1 25.9 199.6 26 200.2 26 C 200.7 26 201.1 25.9 201.5 25.7 C 201.9 25.6 202.2 25.4 202.4 25.1 C 202.6 24.9 202.7 24.6 202.7 24.3 C 202.7 24 202.6 23.7 202.4 23.4 C 202.2 23.2 201.9 23 201.5 22.9 C 201.2 22.8 200.6 22.6 199.7 22.4 C 198.8 22.1 198.1 21.9 197.8 21.7 C 197.3 21.5 196.9 21.2 196.7 20.8 C 196.5 20.4 196.3 20 196.3 19.6 C 196.3 19.1 196.5 18.6 196.8 18.1 C 197.1 17.7 197.5 17.4 198 17.1 C 198.6 16.9 199.2 16.8 199.9 16.8 C 200.6 16.8 201.3 16.9 201.8 17.2 C 202.4 17.4 202.8 17.8 203.1 18.2 C 203.4 18.7 203.6 19.2 203.6 19.8 C 203.6 19.8 202.4 19.9 202.4 19.9 C 202.3 19.3 202.1 18.8 201.7 18.5 C 201.3 18.1 200.7 18 199.9 18 C 199.1 18 198.5 18.1 198.2 18.4 C 197.8 18.7 197.6 19.1 197.6 19.5 C 197.6 19.8 197.8 20.1 198 20.4 C 198.3 20.6 198.9 20.8 200 21.1 C 201.1 21.3 201.8 21.5 202.2 21.7 C 202.8 22 203.2 22.3 203.5 22.7 C 203.8 23.1 203.9 23.6 203.9 24.2 C 203.9 24.7 203.8 25.2 203.5 25.7 C 203.2 26.1 202.7 26.5 202.2 26.8 C 201.6 27 200.9 27.2 200.2 27.2 C 199.3 27.2 198.6 27 198 26.8 C 197.3 26.5 196.9 26.1 196.5 25.6 C 196.2 25 196 24.4 196 23.8 Z M 210.6 24.7 C 210.6 24.7 211.8 24.8 211.8 24.8 C 211.6 25.6 211.3 26.1 210.7 26.5 C 210.2 27 209.5 27.2 208.6 27.2 C 207.6 27.2 206.7 26.8 206.1 26.2 C 205.5 25.5 205.2 24.6 205.2 23.4 C 205.2 22.2 205.5 21.3 206.1 20.6 C 206.8 19.9 207.6 19.6 208.6 19.6 C 209.5 19.6 210.3 19.9 211 20.6 C 211.6 21.2 211.9 22.2 211.9 23.3 C 211.9 23.4 211.9 23.5 211.9 23.7 C 211.9 23.7 206.5 23.7 206.5 23.7 C 206.5 24.5 206.7 25.1 207.1 25.5 C 207.5 25.9 208 26.1 208.6 26.1 C 209.1 26.1 209.5 26 209.8 25.8 C 210.1 25.6 210.4 25.2 210.6 24.7 Z M 206.5 22.7 C 206.5 22.7 210.6 22.7 210.6 22.7 C 210.5 22.1 210.4 21.6 210.1 21.3 C 209.7 20.8 209.2 20.6 208.6 20.6 C 208 20.6 207.5 20.8 207.2 21.1 C 206.8 21.5 206.6 22 206.5 22.7 Z M 213.4 27 L 213.4 19.7 L 214.5 19.7 C 214.5 19.7 214.47 20.83 214.5 20.8 C 214.8 20.3 215 20 215.3 19.8 C 215.5 19.7 215.8 19.6 216 19.6 C 216.5 19.6 216.9 19.7 217.3 20 C 217.3 20 216.9 21.1 216.9 21.1 C 216.6 20.9 216.3 20.8 216 20.8 C 215.7 20.8 215.5 20.9 215.3 21.1 C 215 21.2 214.9 21.5 214.8 21.8 C 214.7 22.2 214.6 22.7 214.6 23.2 C 214.59 23.19 214.6 27 214.6 27 L 213.4 27 Z M 220.1 27 L 217.3 19.7 L 218.6 19.7 C 218.6 19.7 220.15 24.08 220.2 24.1 C 220.3 24.5 220.5 25 220.6 25.5 C 220.7 25.2 220.9 24.7 221.1 24.2 C 221.07 24.16 222.7 19.7 222.7 19.7 L 224 19.7 L 221.2 27 L 220.1 27 Z M 225 18.4 L 225 17 L 226.3 17 L 226.3 18.4 L 225 18.4 Z M 225 27 L 225 19.7 L 226.3 19.7 L 226.3 27 L 225 27 Z M 232.9 24.3 C 232.9 24.3 234.1 24.5 234.1 24.5 C 234 25.3 233.6 26 233.1 26.4 C 232.5 26.9 231.9 27.2 231.1 27.2 C 230.1 27.2 229.3 26.8 228.7 26.2 C 228.1 25.5 227.8 24.6 227.8 23.4 C 227.8 22.6 227.9 21.9 228.2 21.3 C 228.4 20.7 228.8 20.3 229.3 20 C 229.9 19.7 230.5 19.6 231.1 19.6 C 231.9 19.6 232.5 19.8 233 20.2 C 233.5 20.6 233.8 21.1 234 21.9 C 234 21.9 232.8 22 232.8 22 C 232.7 21.6 232.5 21.2 232.2 20.9 C 231.9 20.7 231.5 20.6 231.1 20.6 C 230.5 20.6 230 20.8 229.6 21.2 C 229.2 21.7 229 22.4 229 23.4 C 229 24.3 229.2 25 229.6 25.5 C 230 25.9 230.5 26.1 231.1 26.1 C 231.5 26.1 231.9 26 232.3 25.7 C 232.6 25.4 232.8 24.9 232.9 24.3 Z M 240.1 24.7 C 240.1 24.7 241.4 24.8 241.4 24.8 C 241.2 25.6 240.8 26.1 240.3 26.5 C 239.7 27 239 27.2 238.2 27.2 C 237.1 27.2 236.3 26.8 235.7 26.2 C 235.1 25.5 234.7 24.6 234.7 23.4 C 234.7 22.2 235.1 21.3 235.7 20.6 C 236.3 19.9 237.1 19.6 238.1 19.6 C 239.1 19.6 239.9 19.9 240.5 20.6 C 241.1 21.2 241.4 22.2 241.4 23.3 C 241.4 23.4 241.4 23.5 241.4 23.7 C 241.4 23.7 236 23.7 236 23.7 C 236.1 24.5 236.3 25.1 236.7 25.5 C 237.1 25.9 237.6 26.1 238.2 26.1 C 238.7 26.1 239 26 239.4 25.8 C 239.7 25.6 239.9 25.2 240.1 24.7 Z M 236.1 22.7 C 236.1 22.7 240.1 22.7 240.1 22.7 C 240.1 22.1 239.9 21.6 239.7 21.3 C 239.3 20.8 238.8 20.6 238.1 20.6 C 237.6 20.6 237.1 20.8 236.7 21.1 C 236.3 21.5 236.1 22 236.1 22.7 Z M 242.4 24.8 C 242.4 24.8 243.7 24.6 243.7 24.6 C 243.7 25.1 243.9 25.5 244.2 25.8 C 244.5 26 245 26.1 245.5 26.1 C 246.1 26.1 246.5 26 246.8 25.8 C 247.1 25.6 247.2 25.3 247.2 25 C 247.2 24.7 247.1 24.5 246.8 24.3 C 246.7 24.2 246.3 24.1 245.6 23.9 C 244.7 23.7 244.1 23.5 243.7 23.3 C 243.4 23.2 243.1 22.9 242.9 22.6 C 242.7 22.3 242.6 22 242.6 21.7 C 242.6 21.3 242.7 21 242.9 20.8 C 243 20.5 243.2 20.3 243.5 20.1 C 243.7 19.9 243.9 19.8 244.3 19.7 C 244.6 19.6 244.9 19.6 245.3 19.6 C 245.9 19.6 246.4 19.7 246.8 19.8 C 247.3 20 247.6 20.2 247.8 20.5 C 248 20.8 248.1 21.1 248.2 21.6 C 248.2 21.6 247 21.8 247 21.8 C 246.9 21.4 246.8 21.1 246.5 20.9 C 246.3 20.7 245.9 20.6 245.4 20.6 C 244.8 20.6 244.4 20.7 244.2 20.9 C 244 21 243.8 21.3 243.8 21.5 C 243.8 21.7 243.9 21.8 244 21.9 C 244.1 22.1 244.2 22.2 244.5 22.3 C 244.6 22.3 244.9 22.4 245.5 22.6 C 246.4 22.8 247 23 247.4 23.2 C 247.7 23.3 248 23.5 248.2 23.8 C 248.4 24.1 248.5 24.4 248.5 24.9 C 248.5 25.3 248.4 25.7 248.1 26 C 247.9 26.4 247.5 26.7 247.1 26.9 C 246.6 27.1 246.1 27.2 245.5 27.2 C 244.6 27.2 243.9 27 243.4 26.6 C 242.9 26.2 242.6 25.6 242.4 24.8 Z M 250.3 27 L 250.3 25.6 L 251.7 25.6 L 251.7 27 L 250.3 27 Z " stroke="none" fill="#000"/>  </g>  <g id="Polygon140488">    <path d="M 2.8 10.2 L 0.2 0.2 L 1.5 0.2 C 1.5 0.2 3.06 6.74 3.1 6.7 C 3.2 7.4 3.4 8.1 3.5 8.8 C 3.7 7.7 3.9 7.1 3.9 6.9 C 3.93 6.94 5.8 0.2 5.8 0.2 L 7.4 0.2 C 7.4 0.2 8.87 5.24 8.9 5.2 C 9.2 6.5 9.5 7.7 9.7 8.8 C 9.8 8.2 9.9 7.4 10.2 6.6 C 10.15 6.61 11.7 0.2 11.7 0.2 L 13.1 0.2 L 10.3 10.2 L 9 10.2 C 9 10.2 6.92 2.56 6.9 2.6 C 6.7 1.9 6.6 1.5 6.6 1.4 C 6.5 1.8 6.4 2.2 6.3 2.6 C 6.31 2.56 4.2 10.2 4.2 10.2 L 2.8 10.2 Z M 18.9 7.9 C 18.9 7.9 20.1 8 20.1 8 C 19.9 8.8 19.6 9.3 19 9.7 C 18.5 10.2 17.8 10.4 16.9 10.4 C 15.9 10.4 15 10 14.4 9.4 C 13.8 8.7 13.5 7.8 13.5 6.6 C 13.5 5.4 13.8 4.5 14.4 3.8 C 15 3.1 15.9 2.8 16.9 2.8 C 17.8 2.8 18.6 3.1 19.2 3.8 C 19.9 4.4 20.2 5.4 20.2 6.5 C 20.2 6.6 20.2 6.7 20.2 6.9 C 20.2 6.9 14.7 6.9 14.7 6.9 C 14.8 7.7 15 8.3 15.4 8.7 C 15.8 9.1 16.3 9.3 16.9 9.3 C 17.4 9.3 17.8 9.2 18.1 9 C 18.4 8.8 18.7 8.4 18.9 7.9 Z M 14.8 5.9 C 14.8 5.9 18.9 5.9 18.9 5.9 C 18.8 5.3 18.7 4.8 18.4 4.5 C 18 4 17.5 3.8 16.9 3.8 C 16.3 3.8 15.8 4 15.5 4.3 C 15.1 4.7 14.9 5.2 14.8 5.9 Z M 25.6 13 L 25.6 2.9 L 26.7 2.9 C 26.7 2.9 26.68 3.88 26.7 3.9 C 26.9 3.5 27.2 3.2 27.6 3 C 27.9 2.9 28.3 2.8 28.8 2.8 C 29.4 2.8 30 2.9 30.4 3.2 C 30.9 3.6 31.3 4 31.5 4.6 C 31.7 5.2 31.9 5.8 31.9 6.5 C 31.9 7.3 31.7 7.9 31.5 8.5 C 31.2 9.1 30.8 9.6 30.3 9.9 C 29.8 10.2 29.3 10.4 28.7 10.4 C 28.3 10.4 27.9 10.3 27.6 10.1 C 27.3 9.9 27 9.7 26.8 9.4 C 26.79 9.44 26.8 13 26.8 13 L 25.6 13 Z M 26.7 6.6 C 26.7 7.5 26.9 8.2 27.2 8.7 C 27.6 9.1 28.1 9.3 28.6 9.3 C 29.2 9.3 29.6 9.1 30 8.7 C 30.4 8.2 30.6 7.5 30.6 6.5 C 30.6 5.6 30.4 4.9 30 4.4 C 29.7 4 29.2 3.7 28.7 3.7 C 28.1 3.7 27.7 4 27.3 4.5 C 26.9 5 26.7 5.7 26.7 6.6 Z M 38.3 10.2 C 38.2 9.9 38.1 9.6 38.1 9.3 C 37.6 9.7 37.2 10 36.8 10.1 C 36.3 10.3 35.9 10.4 35.4 10.4 C 34.6 10.4 34 10.2 33.6 9.8 C 33.1 9.4 32.9 8.9 32.9 8.3 C 32.9 7.9 33 7.6 33.2 7.3 C 33.3 7 33.5 6.8 33.8 6.6 C 34.1 6.4 34.4 6.3 34.7 6.2 C 34.9 6.1 35.3 6.1 35.8 6 C 36.8 5.9 37.5 5.7 38 5.6 C 38 5.4 38 5.3 38 5.3 C 38 4.8 37.9 4.4 37.6 4.2 C 37.3 3.9 36.9 3.8 36.2 3.8 C 35.7 3.8 35.2 3.9 35 4.1 C 34.7 4.3 34.5 4.7 34.3 5.2 C 34.3 5.2 33.1 5 33.1 5 C 33.3 4.5 33.4 4.1 33.7 3.8 C 33.9 3.4 34.3 3.2 34.8 3 C 35.2 2.9 35.8 2.8 36.4 2.8 C 37 2.8 37.5 2.8 37.9 3 C 38.3 3.1 38.6 3.3 38.8 3.5 C 39 3.8 39.1 4 39.2 4.4 C 39.2 4.6 39.2 5 39.2 5.5 C 39.2 5.5 39.2 7.2 39.2 7.2 C 39.2 8.3 39.3 9 39.3 9.3 C 39.4 9.6 39.5 9.9 39.6 10.2 C 39.61 10.19 38.3 10.2 38.3 10.2 C 38.3 10.2 38.33 10.19 38.3 10.2 Z M 38 6.5 C 37.5 6.7 36.9 6.9 36 7 C 35.5 7.1 35.1 7.2 34.9 7.3 C 34.7 7.4 34.5 7.5 34.4 7.7 C 34.3 7.8 34.2 8 34.2 8.2 C 34.2 8.6 34.4 8.8 34.6 9.1 C 34.9 9.3 35.2 9.4 35.7 9.4 C 36.2 9.4 36.6 9.3 37 9.1 C 37.3 8.9 37.6 8.6 37.8 8.2 C 37.9 8 38 7.5 38 7 C 38 7 38 6.5 38 6.5 Z M 41.1 10.2 L 41.1 2.9 L 42.2 2.9 C 42.2 2.9 42.23 4.03 42.2 4 C 42.5 3.5 42.8 3.2 43 3 C 43.2 2.9 43.5 2.8 43.8 2.8 C 44.2 2.8 44.6 2.9 45.1 3.2 C 45.1 3.2 44.6 4.3 44.6 4.3 C 44.3 4.1 44 4 43.7 4 C 43.5 4 43.2 4.1 43 4.3 C 42.8 4.4 42.6 4.7 42.6 5 C 42.4 5.4 42.3 5.9 42.3 6.4 C 42.35 6.39 42.3 10.2 42.3 10.2 L 41.1 10.2 Z M 47.9 9.1 C 48.1 9.1 48.3 9.1 48.5 9.1 C 48.5 9.1 48.7 10.2 48.7 10.2 C 48.3 10.3 48 10.3 47.7 10.3 C 47.3 10.3 46.9 10.2 46.7 10.1 C 46.4 9.9 46.3 9.7 46.2 9.5 C 46.1 9.3 46 8.8 46 8.1 C 46.02 8.07 46 3.9 46 3.9 L 45.1 3.9 L 45.1 2.9 L 46 2.9 L 46 1.1 L 47.2 0.4 L 47.2 2.9 L 48.5 2.9 L 48.5 3.9 L 47.2 3.9 C 47.2 3.9 47.24 8.13 47.2 8.1 C 47.2 8.5 47.3 8.7 47.3 8.8 C 47.4 8.9 47.4 9 47.5 9.1 C 47.6 9.1 47.8 9.1 47.9 9.1 C 47.9 9.1 47.9 9.1 47.9 9.1 Z M 49.7 10.2 L 49.7 2.9 L 50.8 2.9 C 50.8 2.9 50.79 3.96 50.8 4 C 51.3 3.2 52.1 2.8 53.1 2.8 C 53.5 2.8 53.9 2.8 54.3 3 C 54.7 3.2 54.9 3.4 55.1 3.6 C 55.3 3.9 55.4 4.2 55.5 4.5 C 55.6 4.8 55.6 5.2 55.6 5.7 C 55.58 5.73 55.6 10.2 55.6 10.2 L 54.4 10.2 C 54.4 10.2 54.35 5.78 54.4 5.8 C 54.4 5.3 54.3 4.9 54.2 4.7 C 54.1 4.4 53.9 4.2 53.7 4.1 C 53.5 3.9 53.2 3.8 52.8 3.8 C 52.3 3.8 51.9 4 51.5 4.3 C 51.1 4.7 50.9 5.3 50.9 6.2 C 50.91 6.23 50.9 10.2 50.9 10.2 L 49.7 10.2 Z M 62.4 7.9 C 62.4 7.9 63.7 8 63.7 8 C 63.5 8.8 63.1 9.3 62.6 9.7 C 62.1 10.2 61.4 10.4 60.5 10.4 C 59.5 10.4 58.6 10 58 9.4 C 57.4 8.7 57.1 7.8 57.1 6.6 C 57.1 5.4 57.4 4.5 58 3.8 C 58.6 3.1 59.4 2.8 60.5 2.8 C 61.4 2.8 62.2 3.1 62.8 3.8 C 63.4 4.4 63.8 5.4 63.8 6.5 C 63.8 6.6 63.7 6.7 63.7 6.9 C 63.7 6.9 58.3 6.9 58.3 6.9 C 58.4 7.7 58.6 8.3 59 8.7 C 59.4 9.1 59.9 9.3 60.5 9.3 C 61 9.3 61.4 9.2 61.7 9 C 62 8.8 62.3 8.4 62.4 7.9 Z M 58.4 5.9 C 58.4 5.9 62.5 5.9 62.5 5.9 C 62.4 5.3 62.2 4.8 62 4.5 C 61.6 4 61.1 3.8 60.5 3.8 C 59.9 3.8 59.4 4 59 4.3 C 58.7 4.7 58.4 5.2 58.4 5.9 Z M 65.2 10.2 L 65.2 2.9 L 66.3 2.9 C 66.3 2.9 66.35 4.03 66.3 4 C 66.6 3.5 66.9 3.2 67.1 3 C 67.4 2.9 67.6 2.8 67.9 2.8 C 68.3 2.8 68.8 2.9 69.2 3.2 C 69.2 3.2 68.8 4.3 68.8 4.3 C 68.5 4.1 68.2 4 67.9 4 C 67.6 4 67.3 4.1 67.1 4.3 C 66.9 4.4 66.8 4.7 66.7 5 C 66.5 5.4 66.5 5.9 66.5 6.4 C 66.47 6.39 66.5 10.2 66.5 10.2 L 65.2 10.2 Z M 75.1 10.2 L 72.9 2.9 L 74.2 2.9 L 75.4 7.1 C 75.4 7.1 75.78 8.68 75.8 8.7 C 75.8 8.6 75.9 8.1 76.2 7.2 C 76.16 7.18 77.3 2.9 77.3 2.9 L 78.6 2.9 L 79.7 7.1 L 80 8.5 L 80.4 7.1 L 81.7 2.9 L 82.9 2.9 L 80.6 10.2 L 79.3 10.2 L 78.2 5.8 L 77.9 4.6 L 76.4 10.2 L 75.1 10.2 Z M 83.9 1.6 L 83.9 0.2 L 85.2 0.2 L 85.2 1.6 L 83.9 1.6 Z M 83.9 10.2 L 83.9 2.9 L 85.2 2.9 L 85.2 10.2 L 83.9 10.2 Z M 89.2 9.1 C 89.3 9.1 89.5 9.1 89.7 9.1 C 89.7 9.1 89.9 10.2 89.9 10.2 C 89.5 10.3 89.2 10.3 89 10.3 C 88.5 10.3 88.2 10.2 87.9 10.1 C 87.7 9.9 87.5 9.7 87.4 9.5 C 87.3 9.3 87.3 8.8 87.3 8.1 C 87.25 8.07 87.3 3.9 87.3 3.9 L 86.4 3.9 L 86.4 2.9 L 87.3 2.9 L 87.3 1.1 L 88.5 0.4 L 88.5 2.9 L 89.7 2.9 L 89.7 3.9 L 88.5 3.9 C 88.5 3.9 88.48 8.13 88.5 8.1 C 88.5 8.5 88.5 8.7 88.5 8.8 C 88.6 8.9 88.7 9 88.8 9.1 C 88.9 9.1 89 9.1 89.2 9.1 C 89.2 9.1 89.2 9.1 89.2 9.1 Z M 90.9 10.2 L 90.9 0.2 L 92.1 0.2 C 92.1 0.2 92.15 3.77 92.1 3.8 C 92.7 3.1 93.4 2.8 94.3 2.8 C 94.9 2.8 95.3 2.9 95.7 3.1 C 96.1 3.3 96.4 3.6 96.6 4 C 96.7 4.3 96.8 4.9 96.8 5.6 C 96.83 5.59 96.8 10.2 96.8 10.2 L 95.6 10.2 C 95.6 10.2 95.6 5.59 95.6 5.6 C 95.6 5 95.5 4.5 95.2 4.2 C 94.9 4 94.6 3.8 94.1 3.8 C 93.7 3.8 93.4 3.9 93 4.1 C 92.7 4.3 92.5 4.6 92.4 4.9 C 92.2 5.2 92.1 5.7 92.1 6.2 C 92.15 6.22 92.1 10.2 92.1 10.2 L 90.9 10.2 Z M 104.7 9.1 C 104.9 9.1 105.1 9.1 105.3 9.1 C 105.3 9.1 105.5 10.2 105.5 10.2 C 105.1 10.3 104.8 10.3 104.5 10.3 C 104.1 10.3 103.7 10.2 103.5 10.1 C 103.2 9.9 103.1 9.7 103 9.5 C 102.9 9.3 102.8 8.8 102.8 8.1 C 102.82 8.07 102.8 3.9 102.8 3.9 L 101.9 3.9 L 101.9 2.9 L 102.8 2.9 L 102.8 1.1 L 104 0.4 L 104 2.9 L 105.3 2.9 L 105.3 3.9 L 104 3.9 C 104 3.9 104.04 8.13 104 8.1 C 104 8.5 104.1 8.7 104.1 8.8 C 104.2 8.9 104.2 9 104.3 9.1 C 104.4 9.1 104.6 9.1 104.7 9.1 C 104.7 9.1 104.7 9.1 104.7 9.1 Z M 106.5 10.2 L 106.5 2.9 L 107.6 2.9 C 107.6 2.9 107.58 4.03 107.6 4 C 107.9 3.5 108.1 3.2 108.4 3 C 108.6 2.9 108.9 2.8 109.1 2.8 C 109.6 2.8 110 2.9 110.4 3.2 C 110.4 3.2 110 4.3 110 4.3 C 109.7 4.1 109.4 4 109.1 4 C 108.8 4 108.6 4.1 108.4 4.3 C 108.1 4.4 108 4.7 107.9 5 C 107.8 5.4 107.7 5.9 107.7 6.4 C 107.7 6.39 107.7 10.2 107.7 10.2 L 106.5 10.2 Z M 116.1 10.2 C 116 9.9 115.9 9.6 115.9 9.3 C 115.4 9.7 115 10 114.6 10.1 C 114.1 10.3 113.7 10.4 113.2 10.4 C 112.4 10.4 111.8 10.2 111.4 9.8 C 110.9 9.4 110.7 8.9 110.7 8.3 C 110.7 7.9 110.8 7.6 111 7.3 C 111.1 7 111.3 6.8 111.6 6.6 C 111.9 6.4 112.2 6.3 112.5 6.2 C 112.7 6.1 113.1 6.1 113.6 6 C 114.6 5.9 115.3 5.7 115.8 5.6 C 115.8 5.4 115.8 5.3 115.8 5.3 C 115.8 4.8 115.7 4.4 115.4 4.2 C 115.1 3.9 114.7 3.8 114 3.8 C 113.5 3.8 113 3.9 112.8 4.1 C 112.5 4.3 112.3 4.7 112.1 5.2 C 112.1 5.2 110.9 5 110.9 5 C 111 4.5 111.2 4.1 111.5 3.8 C 111.7 3.4 112.1 3.2 112.6 3 C 113 2.9 113.6 2.8 114.2 2.8 C 114.8 2.8 115.3 2.8 115.7 3 C 116.1 3.1 116.4 3.3 116.6 3.5 C 116.8 3.8 116.9 4 117 4.4 C 117 4.6 117 5 117 5.5 C 117 5.5 117 7.2 117 7.2 C 117 8.3 117.1 9 117.1 9.3 C 117.2 9.6 117.3 9.9 117.4 10.2 C 117.41 10.19 116.1 10.2 116.1 10.2 C 116.1 10.2 116.13 10.19 116.1 10.2 Z M 115.8 6.5 C 115.3 6.7 114.7 6.9 113.8 7 C 113.3 7.1 112.9 7.2 112.7 7.3 C 112.5 7.4 112.3 7.5 112.2 7.7 C 112.1 7.8 112 8 112 8.2 C 112 8.6 112.2 8.8 112.4 9.1 C 112.7 9.3 113 9.4 113.5 9.4 C 114 9.4 114.4 9.3 114.8 9.1 C 115.1 8.9 115.4 8.6 115.6 8.2 C 115.7 8 115.8 7.5 115.8 7 C 115.8 7 115.8 6.5 115.8 6.5 Z M 118.9 1.6 L 118.9 0.2 L 120.2 0.2 L 120.2 1.6 L 118.9 1.6 Z M 118.9 10.2 L 118.9 2.9 L 120.2 2.9 L 120.2 10.2 L 118.9 10.2 Z M 122 10.2 L 122 2.9 L 123.1 2.9 C 123.1 2.9 123.15 3.96 123.1 4 C 123.7 3.2 124.5 2.8 125.5 2.8 C 125.9 2.8 126.3 2.8 126.7 3 C 127 3.2 127.3 3.4 127.5 3.6 C 127.7 3.9 127.8 4.2 127.9 4.5 C 127.9 4.8 127.9 5.2 127.9 5.7 C 127.94 5.73 127.9 10.2 127.9 10.2 L 126.7 10.2 C 126.7 10.2 126.71 5.78 126.7 5.8 C 126.7 5.3 126.7 4.9 126.6 4.7 C 126.5 4.4 126.3 4.2 126.1 4.1 C 125.8 3.9 125.5 3.8 125.2 3.8 C 124.7 3.8 124.2 4 123.8 4.3 C 123.5 4.7 123.3 5.3 123.3 6.2 C 123.27 6.23 123.3 10.2 123.3 10.2 L 122 10.2 Z M 129.8 1.6 L 129.8 0.2 L 131.1 0.2 L 131.1 1.6 L 129.8 1.6 Z M 129.8 10.2 L 129.8 2.9 L 131.1 2.9 L 131.1 10.2 L 129.8 10.2 Z M 132.9 10.2 L 132.9 2.9 L 134 2.9 C 134 2.9 134.05 3.96 134 4 C 134.6 3.2 135.3 2.8 136.4 2.8 C 136.8 2.8 137.2 2.8 137.6 3 C 137.9 3.2 138.2 3.4 138.4 3.6 C 138.6 3.9 138.7 4.2 138.8 4.5 C 138.8 4.8 138.8 5.2 138.8 5.7 C 138.84 5.73 138.8 10.2 138.8 10.2 L 137.6 10.2 C 137.6 10.2 137.61 5.78 137.6 5.8 C 137.6 5.3 137.6 4.9 137.5 4.7 C 137.4 4.4 137.2 4.2 137 4.1 C 136.7 3.9 136.4 3.8 136.1 3.8 C 135.6 3.8 135.1 4 134.7 4.3 C 134.4 4.7 134.2 5.3 134.2 6.2 C 134.17 6.23 134.2 10.2 134.2 10.2 L 132.9 10.2 Z M 140.5 10.8 C 140.5 10.8 141.7 11 141.7 11 C 141.7 11.3 141.9 11.6 142.1 11.8 C 142.4 12 142.8 12.1 143.4 12.1 C 143.9 12.1 144.4 12 144.7 11.8 C 145 11.6 145.2 11.2 145.3 10.8 C 145.4 10.6 145.4 10 145.4 9.2 C 144.9 9.9 144.2 10.2 143.4 10.2 C 142.4 10.2 141.6 9.8 141.1 9.1 C 140.5 8.4 140.3 7.5 140.3 6.5 C 140.3 5.8 140.4 5.2 140.6 4.6 C 140.9 4 141.2 3.6 141.7 3.2 C 142.2 2.9 142.8 2.8 143.4 2.8 C 144.3 2.8 145 3.1 145.5 3.8 C 145.52 3.81 145.5 2.9 145.5 2.9 L 146.7 2.9 C 146.7 2.9 146.65 9.21 146.7 9.2 C 146.7 10.3 146.5 11.1 146.3 11.6 C 146.1 12.1 145.7 12.5 145.2 12.7 C 144.7 13 144.1 13.1 143.4 13.1 C 142.5 13.1 141.8 12.9 141.3 12.6 C 140.7 12.2 140.5 11.6 140.5 10.8 Z M 141.5 6.4 C 141.5 7.4 141.7 8.1 142.1 8.5 C 142.5 9 142.9 9.2 143.5 9.2 C 144.1 9.2 144.5 9 144.9 8.5 C 145.3 8.1 145.5 7.4 145.5 6.5 C 145.5 5.6 145.3 4.9 144.9 4.5 C 144.5 4 144 3.8 143.5 3.8 C 142.9 3.8 142.5 4 142.1 4.5 C 141.7 4.9 141.5 5.6 141.5 6.4 Z M 152.4 13 L 152.4 2.9 L 153.5 2.9 C 153.5 2.9 153.52 3.88 153.5 3.9 C 153.8 3.5 154.1 3.2 154.4 3 C 154.7 2.9 155.2 2.8 155.6 2.8 C 156.2 2.8 156.8 2.9 157.3 3.2 C 157.7 3.6 158.1 4 158.3 4.6 C 158.6 5.2 158.7 5.8 158.7 6.5 C 158.7 7.3 158.6 7.9 158.3 8.5 C 158 9.1 157.6 9.6 157.1 9.9 C 156.6 10.2 156.1 10.4 155.5 10.4 C 155.1 10.4 154.8 10.3 154.4 10.1 C 154.1 9.9 153.8 9.7 153.6 9.4 C 153.63 9.44 153.6 13 153.6 13 L 152.4 13 Z M 153.5 6.6 C 153.5 7.5 153.7 8.2 154.1 8.7 C 154.5 9.1 154.9 9.3 155.5 9.3 C 156 9.3 156.5 9.1 156.9 8.7 C 157.3 8.2 157.4 7.5 157.4 6.5 C 157.4 5.6 157.3 4.9 156.9 4.4 C 156.5 4 156 3.7 155.5 3.7 C 155 3.7 154.5 4 154.1 4.5 C 153.7 5 153.5 5.7 153.5 6.6 Z M 160.2 10.2 L 160.2 2.9 L 161.3 2.9 C 161.3 2.9 161.28 4.03 161.3 4 C 161.6 3.5 161.8 3.2 162.1 3 C 162.3 2.9 162.6 2.8 162.9 2.8 C 163.3 2.8 163.7 2.9 164.1 3.2 C 164.1 3.2 163.7 4.3 163.7 4.3 C 163.4 4.1 163.1 4 162.8 4 C 162.5 4 162.3 4.1 162.1 4.3 C 161.9 4.4 161.7 4.7 161.6 5 C 161.5 5.4 161.4 5.9 161.4 6.4 C 161.4 6.39 161.4 10.2 161.4 10.2 L 160.2 10.2 Z M 164.4 6.6 C 164.4 5.2 164.8 4.2 165.5 3.6 C 166.1 3 166.9 2.8 167.8 2.8 C 168.8 2.8 169.6 3.1 170.2 3.7 C 170.9 4.4 171.2 5.3 171.2 6.5 C 171.2 7.4 171.1 8.1 170.8 8.7 C 170.5 9.2 170.1 9.6 169.5 9.9 C 169 10.2 168.4 10.4 167.8 10.4 C 166.8 10.4 166 10 165.3 9.4 C 164.7 8.7 164.4 7.8 164.4 6.6 Z M 165.7 6.6 C 165.7 7.5 165.9 8.2 166.3 8.7 C 166.7 9.1 167.2 9.3 167.8 9.3 C 168.4 9.3 168.9 9.1 169.3 8.6 C 169.7 8.2 169.9 7.5 169.9 6.5 C 169.9 5.6 169.7 4.9 169.3 4.5 C 168.9 4 168.4 3.8 167.8 3.8 C 167.2 3.8 166.7 4 166.3 4.5 C 165.9 4.9 165.7 5.6 165.7 6.6 Z M 174.7 10.2 L 171.9 2.9 L 173.2 2.9 C 173.2 2.9 174.75 7.28 174.7 7.3 C 174.9 7.7 175.1 8.2 175.2 8.7 C 175.3 8.4 175.5 7.9 175.7 7.4 C 175.67 7.36 177.3 2.9 177.3 2.9 L 178.5 2.9 L 175.8 10.2 L 174.7 10.2 Z M 179.6 1.6 L 179.6 0.2 L 180.9 0.2 L 180.9 1.6 L 179.6 1.6 Z M 179.6 10.2 L 179.6 2.9 L 180.9 2.9 L 180.9 10.2 L 179.6 10.2 Z M 187.5 10.2 C 187.5 10.2 187.46 9.28 187.5 9.3 C 187 10 186.3 10.4 185.4 10.4 C 184.8 10.4 184.3 10.2 183.8 9.9 C 183.3 9.6 183 9.1 182.7 8.5 C 182.4 8 182.3 7.3 182.3 6.6 C 182.3 5.8 182.4 5.2 182.7 4.6 C 182.9 4 183.3 3.6 183.8 3.2 C 184.2 2.9 184.8 2.8 185.4 2.8 C 185.8 2.8 186.2 2.9 186.5 3 C 186.9 3.2 187.2 3.5 187.4 3.8 C 187.37 3.77 187.4 0.2 187.4 0.2 L 188.6 0.2 L 188.6 10.2 L 187.5 10.2 Z M 183.6 6.6 C 183.6 7.5 183.8 8.2 184.2 8.7 C 184.5 9.1 185 9.3 185.5 9.3 C 186.1 9.3 186.5 9.1 186.9 8.7 C 187.3 8.2 187.5 7.6 187.5 6.7 C 187.5 5.7 187.3 4.9 186.9 4.5 C 186.5 4 186 3.8 185.5 3.8 C 184.9 3.8 184.5 4 184.1 4.5 C 183.7 4.9 183.6 5.6 183.6 6.6 Z M 195.5 7.9 C 195.5 7.9 196.8 8 196.8 8 C 196.6 8.8 196.2 9.3 195.7 9.7 C 195.1 10.2 194.4 10.4 193.6 10.4 C 192.5 10.4 191.7 10 191.1 9.4 C 190.4 8.7 190.1 7.8 190.1 6.6 C 190.1 5.4 190.4 4.5 191.1 3.8 C 191.7 3.1 192.5 2.8 193.5 2.8 C 194.5 2.8 195.3 3.1 195.9 3.8 C 196.5 4.4 196.8 5.4 196.8 6.5 C 196.8 6.6 196.8 6.7 196.8 6.9 C 196.8 6.9 191.4 6.9 191.4 6.9 C 191.4 7.7 191.7 8.3 192.1 8.7 C 192.5 9.1 193 9.3 193.6 9.3 C 194 9.3 194.4 9.2 194.7 9 C 195.1 8.8 195.3 8.4 195.5 7.9 Z M 191.5 5.9 C 191.5 5.9 195.5 5.9 195.5 5.9 C 195.5 5.3 195.3 4.8 195 4.5 C 194.7 4 194.1 3.8 193.5 3.8 C 193 3.8 192.5 4 192.1 4.3 C 191.7 4.7 191.5 5.2 191.5 5.9 Z M 198.3 10.2 L 198.3 2.9 L 199.4 2.9 C 199.4 2.9 199.41 4.03 199.4 4 C 199.7 3.5 200 3.2 200.2 3 C 200.4 2.9 200.7 2.8 201 2.8 C 201.4 2.8 201.8 2.9 202.2 3.2 C 202.2 3.2 201.8 4.3 201.8 4.3 C 201.5 4.1 201.2 4 200.9 4 C 200.7 4 200.4 4.1 200.2 4.3 C 200 4.4 199.8 4.7 199.7 5 C 199.6 5.4 199.5 5.9 199.5 6.4 C 199.53 6.39 199.5 10.2 199.5 10.2 L 198.3 10.2 Z M 202.5 8 C 202.5 8 203.7 7.8 203.7 7.8 C 203.8 8.3 204 8.7 204.3 9 C 204.6 9.2 205 9.3 205.6 9.3 C 206.1 9.3 206.6 9.2 206.8 9 C 207.1 8.8 207.3 8.5 207.3 8.2 C 207.3 7.9 207.1 7.7 206.9 7.5 C 206.7 7.4 206.3 7.3 205.6 7.1 C 204.7 6.9 204.1 6.7 203.8 6.5 C 203.4 6.4 203.1 6.1 203 5.8 C 202.8 5.5 202.7 5.2 202.7 4.9 C 202.7 4.5 202.8 4.2 202.9 4 C 203.1 3.7 203.3 3.5 203.5 3.3 C 203.7 3.1 204 3 204.3 2.9 C 204.6 2.8 205 2.8 205.4 2.8 C 205.9 2.8 206.4 2.9 206.9 3 C 207.3 3.2 207.6 3.4 207.8 3.7 C 208 4 208.2 4.3 208.2 4.8 C 208.2 4.8 207 5 207 5 C 207 4.6 206.8 4.3 206.6 4.1 C 206.3 3.9 205.9 3.8 205.5 3.8 C 204.9 3.8 204.5 3.9 204.2 4.1 C 204 4.2 203.9 4.5 203.9 4.7 C 203.9 4.9 203.9 5 204 5.1 C 204.1 5.3 204.3 5.4 204.5 5.5 C 204.6 5.5 205 5.6 205.6 5.8 C 206.5 6 207.1 6.2 207.4 6.4 C 207.8 6.5 208 6.7 208.2 7 C 208.4 7.3 208.5 7.6 208.5 8.1 C 208.5 8.5 208.4 8.9 208.2 9.2 C 207.9 9.6 207.6 9.9 207.1 10.1 C 206.7 10.3 206.2 10.4 205.6 10.4 C 204.6 10.4 203.9 10.2 203.4 9.8 C 202.9 9.4 202.6 8.8 202.5 8 Z M 218.9 10.2 C 218.7 9.9 218.6 9.6 218.6 9.3 C 218.2 9.7 217.7 10 217.3 10.1 C 216.9 10.3 216.4 10.4 215.9 10.4 C 215.1 10.4 214.5 10.2 214.1 9.8 C 213.7 9.4 213.5 8.9 213.5 8.3 C 213.5 7.9 213.5 7.6 213.7 7.3 C 213.9 7 214.1 6.8 214.3 6.6 C 214.6 6.4 214.9 6.3 215.2 6.2 C 215.5 6.1 215.8 6.1 216.3 6 C 217.3 5.9 218 5.7 218.5 5.6 C 218.5 5.4 218.5 5.3 218.5 5.3 C 218.5 4.8 218.4 4.4 218.2 4.2 C 217.8 3.9 217.4 3.8 216.8 3.8 C 216.2 3.8 215.8 3.9 215.5 4.1 C 215.2 4.3 215 4.7 214.9 5.2 C 214.9 5.2 213.7 5 213.7 5 C 213.8 4.5 214 4.1 214.2 3.8 C 214.5 3.4 214.8 3.2 215.3 3 C 215.8 2.9 216.3 2.8 216.9 2.8 C 217.6 2.8 218.1 2.8 218.4 3 C 218.8 3.1 219.1 3.3 219.3 3.5 C 219.5 3.8 219.6 4 219.7 4.4 C 219.7 4.6 219.7 5 219.7 5.5 C 219.7 5.5 219.7 7.2 219.7 7.2 C 219.7 8.3 219.8 9 219.8 9.3 C 219.9 9.6 220 9.9 220.1 10.2 C 220.14 10.19 218.9 10.2 218.9 10.2 C 218.9 10.2 218.85 10.19 218.9 10.2 Z M 218.5 6.5 C 218.1 6.7 217.4 6.9 216.5 7 C 216 7.1 215.6 7.2 215.4 7.3 C 215.2 7.4 215 7.5 214.9 7.7 C 214.8 7.8 214.8 8 214.8 8.2 C 214.8 8.6 214.9 8.8 215.1 9.1 C 215.4 9.3 215.7 9.4 216.2 9.4 C 216.7 9.4 217.1 9.3 217.5 9.1 C 217.9 8.9 218.1 8.6 218.3 8.2 C 218.4 8 218.5 7.5 218.5 7 C 218.5 7 218.5 6.5 218.5 6.5 Z M 226.4 7.5 C 226.4 7.5 227.6 7.7 227.6 7.7 C 227.5 8.5 227.1 9.2 226.6 9.6 C 226 10.1 225.4 10.4 224.6 10.4 C 223.6 10.4 222.8 10 222.2 9.4 C 221.6 8.7 221.3 7.8 221.3 6.6 C 221.3 5.8 221.4 5.1 221.7 4.5 C 221.9 3.9 222.3 3.5 222.9 3.2 C 223.4 2.9 224 2.8 224.6 2.8 C 225.4 2.8 226 3 226.5 3.4 C 227 3.8 227.3 4.3 227.5 5.1 C 227.5 5.1 226.3 5.3 226.3 5.3 C 226.2 4.8 226 4.4 225.7 4.1 C 225.4 3.9 225 3.8 224.6 3.8 C 224 3.8 223.5 4 223.1 4.4 C 222.7 4.9 222.5 5.6 222.5 6.6 C 222.5 7.5 222.7 8.2 223.1 8.7 C 223.5 9.1 224 9.3 224.6 9.3 C 225.1 9.3 225.5 9.2 225.8 8.9 C 226.1 8.6 226.3 8.1 226.4 7.5 Z M 228.6 10.2 L 228.6 2.9 L 229.7 2.9 C 229.7 2.9 229.75 4.03 229.7 4 C 230 3.5 230.3 3.2 230.5 3 C 230.8 2.9 231 2.8 231.3 2.8 C 231.7 2.8 232.2 2.9 232.6 3.2 C 232.6 3.2 232.2 4.3 232.2 4.3 C 231.9 4.1 231.6 4 231.3 4 C 231 4 230.7 4.1 230.5 4.3 C 230.3 4.4 230.2 4.7 230.1 5 C 229.9 5.4 229.9 5.9 229.9 6.4 C 229.87 6.39 229.9 10.2 229.9 10.2 L 228.6 10.2 Z M 232.9 6.6 C 232.9 5.2 233.2 4.2 234 3.6 C 234.6 3 235.4 2.8 236.3 2.8 C 237.3 2.8 238.1 3.1 238.7 3.7 C 239.3 4.4 239.7 5.3 239.7 6.5 C 239.7 7.4 239.5 8.1 239.2 8.7 C 239 9.2 238.6 9.6 238 9.9 C 237.5 10.2 236.9 10.4 236.3 10.4 C 235.2 10.4 234.4 10 233.8 9.4 C 233.2 8.7 232.9 7.8 232.9 6.6 Z M 234.1 6.6 C 234.1 7.5 234.3 8.2 234.7 8.7 C 235.1 9.1 235.6 9.3 236.3 9.3 C 236.9 9.3 237.4 9.1 237.8 8.6 C 238.2 8.2 238.4 7.5 238.4 6.5 C 238.4 5.6 238.2 4.9 237.8 4.5 C 237.4 4 236.9 3.8 236.3 3.8 C 235.6 3.8 235.1 4 234.7 4.5 C 234.3 4.9 234.1 5.6 234.1 6.6 Z M 240.6 8 C 240.6 8 241.8 7.8 241.8 7.8 C 241.9 8.3 242.1 8.7 242.4 9 C 242.7 9.2 243.1 9.3 243.7 9.3 C 244.3 9.3 244.7 9.2 245 9 C 245.2 8.8 245.4 8.5 245.4 8.2 C 245.4 7.9 245.3 7.7 245 7.5 C 244.8 7.4 244.4 7.3 243.8 7.1 C 242.9 6.9 242.2 6.7 241.9 6.5 C 241.5 6.4 241.3 6.1 241.1 5.8 C 240.9 5.5 240.8 5.2 240.8 4.9 C 240.8 4.5 240.9 4.2 241 4 C 241.2 3.7 241.4 3.5 241.6 3.3 C 241.8 3.1 242.1 3 242.4 2.9 C 242.8 2.8 243.1 2.8 243.5 2.8 C 244.1 2.8 244.6 2.9 245 3 C 245.4 3.2 245.7 3.4 245.9 3.7 C 246.1 4 246.3 4.3 246.4 4.8 C 246.4 4.8 245.2 5 245.2 5 C 245.1 4.6 245 4.3 244.7 4.1 C 244.4 3.9 244.1 3.8 243.6 3.8 C 243 3.8 242.6 3.9 242.4 4.1 C 242.1 4.2 242 4.5 242 4.7 C 242 4.9 242.1 5 242.2 5.1 C 242.3 5.3 242.4 5.4 242.6 5.5 C 242.8 5.5 243.1 5.6 243.7 5.8 C 244.6 6 245.2 6.2 245.5 6.4 C 245.9 6.5 246.2 6.7 246.3 7 C 246.5 7.3 246.6 7.6 246.6 8.1 C 246.6 8.5 246.5 8.9 246.3 9.2 C 246 9.6 245.7 9.9 245.2 10.1 C 244.8 10.3 244.3 10.4 243.7 10.4 C 242.8 10.4 242.1 10.2 241.6 9.8 C 241.1 9.4 240.7 8.8 240.6 8 Z M 247.6 8 C 247.6 8 248.8 7.8 248.8 7.8 C 248.9 8.3 249.1 8.7 249.4 9 C 249.7 9.2 250.1 9.3 250.7 9.3 C 251.3 9.3 251.7 9.2 252 9 C 252.2 8.8 252.4 8.5 252.4 8.2 C 252.4 7.9 252.3 7.7 252 7.5 C 251.8 7.4 251.4 7.3 250.8 7.1 C 249.9 6.9 249.2 6.7 248.9 6.5 C 248.5 6.4 248.3 6.1 248.1 5.8 C 247.9 5.5 247.8 5.2 247.8 4.9 C 247.8 4.5 247.9 4.2 248 4 C 248.2 3.7 248.4 3.5 248.6 3.3 C 248.8 3.1 249.1 3 249.4 2.9 C 249.8 2.8 250.1 2.8 250.5 2.8 C 251.1 2.8 251.6 2.9 252 3 C 252.4 3.2 252.7 3.4 252.9 3.7 C 253.1 4 253.3 4.3 253.4 4.8 C 253.4 4.8 252.2 5 252.2 5 C 252.1 4.6 252 4.3 251.7 4.1 C 251.4 3.9 251.1 3.8 250.6 3.8 C 250 3.8 249.6 3.9 249.4 4.1 C 249.1 4.2 249 4.5 249 4.7 C 249 4.9 249.1 5 249.2 5.1 C 249.3 5.3 249.4 5.4 249.6 5.5 C 249.8 5.5 250.1 5.6 250.7 5.8 C 251.6 6 252.2 6.2 252.5 6.4 C 252.9 6.5 253.2 6.7 253.3 7 C 253.5 7.3 253.6 7.6 253.6 8.1 C 253.6 8.5 253.5 8.9 253.3 9.2 C 253 9.6 252.7 9.9 252.2 10.1 C 251.8 10.3 251.3 10.4 250.7 10.4 C 249.8 10.4 249.1 10.2 248.6 9.8 C 248.1 9.4 247.7 8.8 247.6 8 Z M 264 10.2 C 263.8 9.9 263.8 9.6 263.7 9.3 C 263.3 9.7 262.8 10 262.4 10.1 C 262 10.3 261.5 10.4 261.1 10.4 C 260.3 10.4 259.6 10.2 259.2 9.8 C 258.8 9.4 258.6 8.9 258.6 8.3 C 258.6 7.9 258.7 7.6 258.8 7.3 C 259 7 259.2 6.8 259.5 6.6 C 259.7 6.4 260 6.3 260.3 6.2 C 260.6 6.1 260.9 6.1 261.4 6 C 262.4 5.9 263.2 5.7 263.6 5.6 C 263.6 5.4 263.6 5.3 263.6 5.3 C 263.6 4.8 263.5 4.4 263.3 4.2 C 263 3.9 262.5 3.8 261.9 3.8 C 261.3 3.8 260.9 3.9 260.6 4.1 C 260.3 4.3 260.1 4.7 260 5.2 C 260 5.2 258.8 5 258.8 5 C 258.9 4.5 259.1 4.1 259.3 3.8 C 259.6 3.4 259.9 3.2 260.4 3 C 260.9 2.9 261.4 2.8 262.1 2.8 C 262.7 2.8 263.2 2.8 263.6 3 C 264 3.1 264.2 3.3 264.4 3.5 C 264.6 3.8 264.7 4 264.8 4.4 C 264.9 4.6 264.9 5 264.9 5.5 C 264.9 5.5 264.9 7.2 264.9 7.2 C 264.9 8.3 264.9 9 265 9.3 C 265 9.6 265.1 9.9 265.3 10.2 C 265.26 10.19 264 10.2 264 10.2 C 264 10.2 263.98 10.19 264 10.2 Z M 263.6 6.5 C 263.2 6.7 262.5 6.9 261.6 7 C 261.1 7.1 260.8 7.2 260.5 7.3 C 260.3 7.4 260.2 7.5 260.1 7.7 C 259.9 7.8 259.9 8 259.9 8.2 C 259.9 8.6 260 8.8 260.3 9.1 C 260.5 9.3 260.9 9.4 261.4 9.4 C 261.8 9.4 262.2 9.3 262.6 9.1 C 263 8.9 263.3 8.6 263.4 8.2 C 263.6 8 263.6 7.5 263.6 7 C 263.6 7 263.6 6.5 263.6 6.5 Z M 270.7 10.2 L 270.7 2.9 L 271.8 2.9 C 271.8 2.9 271.76 4.03 271.8 4 C 272 3.5 272.3 3.2 272.5 3 C 272.8 2.9 273 2.8 273.3 2.8 C 273.7 2.8 274.2 2.9 274.6 3.2 C 274.6 3.2 274.2 4.3 274.2 4.3 C 273.9 4.1 273.6 4 273.3 4 C 273 4 272.8 4.1 272.5 4.3 C 272.3 4.4 272.2 4.7 272.1 5 C 272 5.4 271.9 5.9 271.9 6.4 C 271.89 6.39 271.9 10.2 271.9 10.2 L 270.7 10.2 Z M 280.3 10.2 C 280.2 9.9 280.1 9.6 280.1 9.3 C 279.6 9.7 279.2 10 278.8 10.1 C 278.3 10.3 277.9 10.4 277.4 10.4 C 276.6 10.4 276 10.2 275.6 9.8 C 275.1 9.4 274.9 8.9 274.9 8.3 C 274.9 7.9 275 7.6 275.2 7.3 C 275.3 7 275.5 6.8 275.8 6.6 C 276.1 6.4 276.3 6.3 276.7 6.2 C 276.9 6.1 277.3 6.1 277.8 6 C 278.8 5.9 279.5 5.7 280 5.6 C 280 5.4 280 5.3 280 5.3 C 280 4.8 279.9 4.4 279.6 4.2 C 279.3 3.9 278.8 3.8 278.2 3.8 C 277.6 3.8 277.2 3.9 276.9 4.1 C 276.7 4.3 276.5 4.7 276.3 5.2 C 276.3 5.2 275.1 5 275.1 5 C 275.2 4.5 275.4 4.1 275.7 3.8 C 275.9 3.4 276.3 3.2 276.8 3 C 277.2 2.9 277.8 2.8 278.4 2.8 C 279 2.8 279.5 2.8 279.9 3 C 280.3 3.1 280.6 3.3 280.8 3.5 C 280.9 3.8 281.1 4 281.1 4.4 C 281.2 4.6 281.2 5 281.2 5.5 C 281.2 5.5 281.2 7.2 281.2 7.2 C 281.2 8.3 281.2 9 281.3 9.3 C 281.3 9.6 281.4 9.9 281.6 10.2 C 281.6 10.19 280.3 10.2 280.3 10.2 C 280.3 10.2 280.31 10.19 280.3 10.2 Z M 280 6.5 C 279.5 6.7 278.8 6.9 278 7 C 277.5 7.1 277.1 7.2 276.9 7.3 C 276.7 7.4 276.5 7.5 276.4 7.7 C 276.3 7.8 276.2 8 276.2 8.2 C 276.2 8.6 276.4 8.8 276.6 9.1 C 276.8 9.3 277.2 9.4 277.7 9.4 C 278.2 9.4 278.6 9.3 279 9.1 C 279.3 8.9 279.6 8.6 279.8 8.2 C 279.9 8 280 7.5 280 7 C 280 7 280 6.5 280 6.5 Z M 283.1 10.2 L 283.1 2.9 L 284.2 2.9 C 284.2 2.9 284.22 3.96 284.2 4 C 284.8 3.2 285.5 2.8 286.5 2.8 C 287 2.8 287.4 2.8 287.7 3 C 288.1 3.2 288.4 3.4 288.6 3.6 C 288.7 3.9 288.9 4.2 288.9 4.5 C 289 4.8 289 5.2 289 5.7 C 289.02 5.73 289 10.2 289 10.2 L 287.8 10.2 C 287.8 10.2 287.79 5.78 287.8 5.8 C 287.8 5.3 287.7 4.9 287.6 4.7 C 287.5 4.4 287.4 4.2 287.1 4.1 C 286.9 3.9 286.6 3.8 286.3 3.8 C 285.8 3.8 285.3 4 284.9 4.3 C 284.5 4.7 284.3 5.3 284.3 6.2 C 284.35 6.23 284.3 10.2 284.3 10.2 L 283.1 10.2 Z M 290.7 10.8 C 290.7 10.8 291.9 11 291.9 11 C 291.9 11.3 292.1 11.6 292.3 11.8 C 292.6 12 293 12.1 293.5 12.1 C 294.1 12.1 294.6 12 294.9 11.8 C 295.2 11.6 295.4 11.2 295.5 10.8 C 295.6 10.6 295.6 10 295.6 9.2 C 295 9.9 294.4 10.2 293.6 10.2 C 292.6 10.2 291.8 9.8 291.3 9.1 C 290.7 8.4 290.4 7.5 290.4 6.5 C 290.4 5.8 290.6 5.2 290.8 4.6 C 291.1 4 291.4 3.6 291.9 3.2 C 292.4 2.9 292.9 2.8 293.6 2.8 C 294.4 2.8 295.1 3.1 295.7 3.8 C 295.7 3.81 295.7 2.9 295.7 2.9 L 296.8 2.9 C 296.8 2.9 296.83 9.21 296.8 9.2 C 296.8 10.3 296.7 11.1 296.5 11.6 C 296.3 12.1 295.9 12.5 295.4 12.7 C 294.9 13 294.3 13.1 293.5 13.1 C 292.7 13.1 292 12.9 291.5 12.6 C 290.9 12.2 290.7 11.6 290.7 10.8 Z M 291.7 6.4 C 291.7 7.4 291.9 8.1 292.3 8.5 C 292.6 9 293.1 9.2 293.7 9.2 C 294.3 9.2 294.7 9 295.1 8.5 C 295.5 8.1 295.7 7.4 295.7 6.5 C 295.7 5.6 295.5 4.9 295.1 4.5 C 294.7 4 294.2 3.8 293.7 3.8 C 293.1 3.8 292.7 4 292.3 4.5 C 291.9 4.9 291.7 5.6 291.7 6.4 Z M 303.7 7.9 C 303.7 7.9 304.9 8 304.9 8 C 304.7 8.8 304.4 9.3 303.8 9.7 C 303.3 10.2 302.6 10.4 301.7 10.4 C 300.7 10.4 299.8 10 299.2 9.4 C 298.6 8.7 298.3 7.8 298.3 6.6 C 298.3 5.4 298.6 4.5 299.2 3.8 C 299.9 3.1 300.7 2.8 301.7 2.8 C 302.6 2.8 303.4 3.1 304 3.8 C 304.7 4.4 305 5.4 305 6.5 C 305 6.6 305 6.7 305 6.9 C 305 6.9 299.6 6.9 299.6 6.9 C 299.6 7.7 299.8 8.3 300.2 8.7 C 300.6 9.1 301.1 9.3 301.7 9.3 C 302.2 9.3 302.6 9.2 302.9 9 C 303.2 8.8 303.5 8.4 303.7 7.9 Z M 299.6 5.9 C 299.6 5.9 303.7 5.9 303.7 5.9 C 303.6 5.3 303.5 4.8 303.2 4.5 C 302.8 4 302.3 3.8 301.7 3.8 C 301.1 3.8 300.6 4 300.3 4.3 C 299.9 4.7 299.7 5.2 299.6 5.9 Z M 309.9 6.6 C 309.9 5.2 310.3 4.2 311 3.6 C 311.7 3 312.4 2.8 313.3 2.8 C 314.3 2.8 315.1 3.1 315.8 3.7 C 316.4 4.4 316.7 5.3 316.7 6.5 C 316.7 7.4 316.6 8.1 316.3 8.7 C 316 9.2 315.6 9.6 315.1 9.9 C 314.5 10.2 313.9 10.4 313.3 10.4 C 312.3 10.4 311.5 10 310.8 9.4 C 310.2 8.7 309.9 7.8 309.9 6.6 Z M 311.2 6.6 C 311.2 7.5 311.4 8.2 311.8 8.7 C 312.2 9.1 312.7 9.3 313.3 9.3 C 313.9 9.3 314.4 9.1 314.8 8.6 C 315.2 8.2 315.4 7.5 315.4 6.5 C 315.4 5.6 315.2 4.9 314.8 4.5 C 314.4 4 313.9 3.8 313.3 3.8 C 312.7 3.8 312.2 4 311.8 4.5 C 311.4 4.9 311.2 5.6 311.2 6.6 Z M 318.4 10.2 L 318.4 3.9 L 317.4 3.9 L 317.4 2.9 L 318.4 2.9 C 318.4 2.9 318.45 2.16 318.4 2.2 C 318.4 1.7 318.5 1.3 318.6 1.1 C 318.7 0.8 318.9 0.5 319.2 0.3 C 319.5 0.1 319.9 0 320.5 0 C 320.8 0 321.2 0 321.6 0.1 C 321.6 0.1 321.4 1.2 321.4 1.2 C 321.2 1.2 320.9 1.1 320.7 1.1 C 320.3 1.1 320.1 1.2 319.9 1.4 C 319.7 1.5 319.7 1.8 319.7 2.3 C 319.67 2.26 319.7 2.9 319.7 2.9 L 321.1 2.9 L 321.1 3.9 L 319.7 3.9 L 319.7 10.2 L 318.4 10.2 Z M 325.4 8 C 325.4 8 326.7 7.8 326.7 7.8 C 326.7 8.3 326.9 8.7 327.2 9 C 327.5 9.2 328 9.3 328.5 9.3 C 329.1 9.3 329.5 9.2 329.8 9 C 330.1 8.8 330.2 8.5 330.2 8.2 C 330.2 7.9 330.1 7.7 329.8 7.5 C 329.7 7.4 329.3 7.3 328.6 7.1 C 327.7 6.9 327.1 6.7 326.7 6.5 C 326.4 6.4 326.1 6.1 325.9 5.8 C 325.7 5.5 325.6 5.2 325.6 4.9 C 325.6 4.5 325.7 4.2 325.9 4 C 326 3.7 326.2 3.5 326.5 3.3 C 326.7 3.1 326.9 3 327.3 2.9 C 327.6 2.8 327.9 2.8 328.3 2.8 C 328.9 2.8 329.4 2.9 329.8 3 C 330.2 3.2 330.6 3.4 330.8 3.7 C 331 4 331.1 4.3 331.2 4.8 C 331.2 4.8 330 5 330 5 C 329.9 4.6 329.8 4.3 329.5 4.1 C 329.3 3.9 328.9 3.8 328.4 3.8 C 327.8 3.8 327.4 3.9 327.2 4.1 C 327 4.2 326.8 4.5 326.8 4.7 C 326.8 4.9 326.9 5 327 5.1 C 327.1 5.3 327.2 5.4 327.5 5.5 C 327.6 5.5 327.9 5.6 328.5 5.8 C 329.4 6 330 6.2 330.4 6.4 C 330.7 6.5 331 6.7 331.2 7 C 331.4 7.3 331.5 7.6 331.5 8.1 C 331.5 8.5 331.3 8.9 331.1 9.2 C 330.9 9.6 330.5 9.9 330.1 10.1 C 329.6 10.3 329.1 10.4 328.5 10.4 C 327.6 10.4 326.9 10.2 326.4 9.8 C 325.9 9.4 325.6 8.8 325.4 8 Z M 337.9 7.9 C 337.9 7.9 339.2 8 339.2 8 C 339 8.8 338.6 9.3 338.1 9.7 C 337.5 10.2 336.8 10.4 336 10.4 C 334.9 10.4 334.1 10 333.5 9.4 C 332.8 8.7 332.5 7.8 332.5 6.6 C 332.5 5.4 332.8 4.5 333.5 3.8 C 334.1 3.1 334.9 2.8 335.9 2.8 C 336.9 2.8 337.7 3.1 338.3 3.8 C 338.9 4.4 339.2 5.4 339.2 6.5 C 339.2 6.6 339.2 6.7 339.2 6.9 C 339.2 6.9 333.8 6.9 333.8 6.9 C 333.8 7.7 334.1 8.3 334.5 8.7 C 334.9 9.1 335.4 9.3 336 9.3 C 336.4 9.3 336.8 9.2 337.1 9 C 337.5 8.8 337.7 8.4 337.9 7.9 Z M 333.9 5.9 C 333.9 5.9 337.9 5.9 337.9 5.9 C 337.9 5.3 337.7 4.8 337.4 4.5 C 337.1 4 336.5 3.8 335.9 3.8 C 335.4 3.8 334.9 4 334.5 4.3 C 334.1 4.7 333.9 5.2 333.9 5.9 Z M 345.5 7.5 C 345.5 7.5 346.7 7.7 346.7 7.7 C 346.5 8.5 346.2 9.2 345.6 9.6 C 345.1 10.1 344.4 10.4 343.6 10.4 C 342.6 10.4 341.9 10 341.2 9.4 C 340.6 8.7 340.3 7.8 340.3 6.6 C 340.3 5.8 340.5 5.1 340.7 4.5 C 341 3.9 341.4 3.5 341.9 3.2 C 342.4 2.9 343 2.8 343.6 2.8 C 344.4 2.8 345.1 3 345.6 3.4 C 346.1 3.8 346.4 4.3 346.5 5.1 C 346.5 5.1 345.4 5.3 345.4 5.3 C 345.2 4.8 345 4.4 344.7 4.1 C 344.5 3.9 344.1 3.8 343.7 3.8 C 343.1 3.8 342.6 4 342.2 4.4 C 341.8 4.9 341.6 5.6 341.6 6.6 C 341.6 7.5 341.8 8.2 342.2 8.7 C 342.5 9.1 343 9.3 343.6 9.3 C 344.1 9.3 344.5 9.2 344.8 8.9 C 345.2 8.6 345.4 8.1 345.5 7.5 Z M 349.9 9.1 C 350 9.1 350.2 9.1 350.4 9.1 C 350.4 9.1 350.6 10.2 350.6 10.2 C 350.2 10.3 349.9 10.3 349.7 10.3 C 349.2 10.3 348.9 10.2 348.6 10.1 C 348.4 9.9 348.2 9.7 348.1 9.5 C 348 9.3 347.9 8.8 347.9 8.1 C 347.94 8.07 347.9 3.9 347.9 3.9 L 347 3.9 L 347 2.9 L 347.9 2.9 L 347.9 1.1 L 349.2 0.4 L 349.2 2.9 L 350.4 2.9 L 350.4 3.9 L 349.2 3.9 C 349.2 3.9 349.17 8.13 349.2 8.1 C 349.2 8.5 349.2 8.7 349.2 8.8 C 349.3 8.9 349.3 9 349.4 9.1 C 349.5 9.1 349.7 9.1 349.9 9.1 C 349.9 9.1 349.9 9.1 349.9 9.1 Z M 351.1 6.6 C 351.1 5.2 351.5 4.2 352.3 3.6 C 352.9 3 353.7 2.8 354.6 2.8 C 355.6 2.8 356.4 3.1 357 3.7 C 357.6 4.4 358 5.3 358 6.5 C 358 7.4 357.8 8.1 357.5 8.7 C 357.2 9.2 356.8 9.6 356.3 9.9 C 355.8 10.2 355.2 10.4 354.6 10.4 C 353.5 10.4 352.7 10 352.1 9.4 C 351.5 8.7 351.1 7.8 351.1 6.6 Z M 352.4 6.6 C 352.4 7.5 352.6 8.2 353 8.7 C 353.4 9.1 353.9 9.3 354.6 9.3 C 355.2 9.3 355.7 9.1 356.1 8.6 C 356.5 8.2 356.7 7.5 356.7 6.5 C 356.7 5.6 356.5 4.9 356.1 4.5 C 355.7 4 355.2 3.8 354.6 3.8 C 353.9 3.8 353.4 4 353 4.5 C 352.6 4.9 352.4 5.6 352.4 6.6 Z M 359.4 10.2 L 359.4 2.9 L 360.5 2.9 C 360.5 2.9 360.49 4.03 360.5 4 C 360.8 3.5 361 3.2 361.3 3 C 361.5 2.9 361.8 2.8 362.1 2.8 C 362.5 2.8 362.9 2.9 363.3 3.2 C 363.3 3.2 362.9 4.3 362.9 4.3 C 362.6 4.1 362.3 4 362 4 C 361.7 4 361.5 4.1 361.3 4.3 C 361.1 4.4 360.9 4.7 360.8 5 C 360.7 5.4 360.6 5.9 360.6 6.4 C 360.61 6.39 360.6 10.2 360.6 10.2 L 359.4 10.2 Z M 363.6 8 C 363.6 8 364.8 7.8 364.8 7.8 C 364.8 8.3 365 8.7 365.4 9 C 365.7 9.2 366.1 9.3 366.7 9.3 C 367.2 9.3 367.6 9.2 367.9 9 C 368.2 8.8 368.3 8.5 368.3 8.2 C 368.3 7.9 368.2 7.7 368 7.5 C 367.8 7.4 367.4 7.3 366.7 7.1 C 365.8 6.9 365.2 6.7 364.8 6.5 C 364.5 6.4 364.2 6.1 364 5.8 C 363.9 5.5 363.8 5.2 363.8 4.9 C 363.8 4.5 363.8 4.2 364 4 C 364.1 3.7 364.3 3.5 364.6 3.3 C 364.8 3.1 365 3 365.4 2.9 C 365.7 2.8 366.1 2.8 366.4 2.8 C 367 2.8 367.5 2.9 367.9 3 C 368.4 3.2 368.7 3.4 368.9 3.7 C 369.1 4 369.2 4.3 369.3 4.8 C 369.3 4.8 368.1 5 368.1 5 C 368.1 4.6 367.9 4.3 367.6 4.1 C 367.4 3.9 367 3.8 366.5 3.8 C 366 3.8 365.6 3.9 365.3 4.1 C 365.1 4.2 365 4.5 365 4.7 C 365 4.9 365 5 365.1 5.1 C 365.2 5.3 365.4 5.4 365.6 5.5 C 365.7 5.5 366.1 5.6 366.7 5.8 C 367.5 6 368.1 6.2 368.5 6.4 C 368.8 6.5 369.1 6.7 369.3 7 C 369.5 7.3 369.6 7.6 369.6 8.1 C 369.6 8.5 369.5 8.9 369.2 9.2 C 369 9.6 368.6 9.9 368.2 10.1 C 367.7 10.3 367.2 10.4 366.7 10.4 C 365.7 10.4 365 10.2 364.5 9.8 C 364 9.4 363.7 8.8 363.6 8 Z M 375 1.6 L 375 0.2 L 376.2 0.2 L 376.2 1.6 L 375 1.6 Z M 375 10.2 L 375 2.9 L 376.2 2.9 L 376.2 10.2 L 375 10.2 Z M 378.1 10.2 L 378.1 2.9 L 379.2 2.9 C 379.2 2.9 379.16 3.96 379.2 4 C 379.7 3.2 380.5 2.8 381.5 2.8 C 381.9 2.8 382.3 2.8 382.7 3 C 383 3.2 383.3 3.4 383.5 3.6 C 383.7 3.9 383.8 4.2 383.9 4.5 C 383.9 4.8 384 5.2 384 5.7 C 383.95 5.73 384 10.2 384 10.2 L 382.7 10.2 C 382.7 10.2 382.72 5.78 382.7 5.8 C 382.7 5.3 382.7 4.9 382.6 4.7 C 382.5 4.4 382.3 4.2 382.1 4.1 C 381.8 3.9 381.5 3.8 381.2 3.8 C 380.7 3.8 380.2 4 379.9 4.3 C 379.5 4.7 379.3 5.3 379.3 6.2 C 379.29 6.23 379.3 10.2 379.3 10.2 L 378.1 10.2 Z M 390.6 7.5 C 390.6 7.5 391.8 7.7 391.8 7.7 C 391.7 8.5 391.3 9.2 390.8 9.6 C 390.2 10.1 389.6 10.4 388.8 10.4 C 387.8 10.4 387 10 386.4 9.4 C 385.8 8.7 385.5 7.8 385.5 6.6 C 385.5 5.8 385.6 5.1 385.9 4.5 C 386.1 3.9 386.5 3.5 387 3.2 C 387.6 2.9 388.1 2.8 388.8 2.8 C 389.6 2.8 390.2 3 390.7 3.4 C 391.2 3.8 391.5 4.3 391.7 5.1 C 391.7 5.1 390.5 5.3 390.5 5.3 C 390.4 4.8 390.2 4.4 389.9 4.1 C 389.6 3.9 389.2 3.8 388.8 3.8 C 388.2 3.8 387.7 4 387.3 4.4 C 386.9 4.9 386.7 5.6 386.7 6.6 C 386.7 7.5 386.9 8.2 387.3 8.7 C 387.7 9.1 388.2 9.3 388.8 9.3 C 389.2 9.3 389.6 9.2 390 8.9 C 390.3 8.6 390.5 8.1 390.6 7.5 Z M 392.8 10.2 L 392.8 0.2 L 394 0.2 L 394 10.2 L 392.8 10.2 Z M 400.7 10.2 C 400.7 10.2 400.71 9.13 400.7 9.1 C 400.1 9.9 399.4 10.4 398.4 10.4 C 398 10.4 397.6 10.3 397.2 10.1 C 396.8 9.9 396.6 9.7 396.4 9.5 C 396.2 9.2 396.1 8.9 396 8.6 C 395.9 8.3 395.9 8 395.9 7.4 C 395.92 7.43 395.9 2.9 395.9 2.9 L 397.2 2.9 C 397.2 2.9 397.15 6.96 397.2 7 C 397.2 7.6 397.2 8 397.2 8.3 C 397.3 8.6 397.5 8.8 397.7 9 C 398 9.2 398.3 9.3 398.7 9.3 C 399 9.3 399.4 9.2 399.7 9 C 400 8.8 400.2 8.6 400.4 8.2 C 400.5 7.9 400.6 7.4 400.6 6.8 C 400.58 6.82 400.6 2.9 400.6 2.9 L 401.8 2.9 L 401.8 10.2 L 400.7 10.2 Z M 408.4 10.2 C 408.4 10.2 408.45 9.28 408.4 9.3 C 408 10 407.3 10.4 406.4 10.4 C 405.8 10.4 405.3 10.2 404.8 9.9 C 404.3 9.6 404 9.1 403.7 8.5 C 403.4 8 403.3 7.3 403.3 6.6 C 403.3 5.8 403.4 5.2 403.7 4.6 C 403.9 4 404.3 3.6 404.7 3.2 C 405.2 2.9 405.8 2.8 406.4 2.8 C 406.8 2.8 407.2 2.9 407.5 3 C 407.9 3.2 408.2 3.5 408.4 3.8 C 408.37 3.77 408.4 0.2 408.4 0.2 L 409.6 0.2 L 409.6 10.2 L 408.4 10.2 Z M 404.6 6.6 C 404.6 7.5 404.8 8.2 405.1 8.7 C 405.5 9.1 406 9.3 406.5 9.3 C 407.1 9.3 407.5 9.1 407.9 8.7 C 408.3 8.2 408.5 7.6 408.5 6.7 C 408.5 5.7 408.3 4.9 407.9 4.5 C 407.5 4 407 3.8 406.5 3.8 C 405.9 3.8 405.5 4 405.1 4.5 C 404.7 4.9 404.6 5.6 404.6 6.6 Z M 411.5 1.6 L 411.5 0.2 L 412.8 0.2 L 412.8 1.6 L 411.5 1.6 Z M 411.5 10.2 L 411.5 2.9 L 412.8 2.9 L 412.8 10.2 L 411.5 10.2 Z M 414.6 10.2 L 414.6 2.9 L 415.7 2.9 C 415.7 2.9 415.74 3.96 415.7 4 C 416.3 3.2 417 2.8 418.1 2.8 C 418.5 2.8 418.9 2.8 419.3 3 C 419.6 3.2 419.9 3.4 420.1 3.6 C 420.3 3.9 420.4 4.2 420.5 4.5 C 420.5 4.8 420.5 5.2 420.5 5.7 C 420.53 5.73 420.5 10.2 420.5 10.2 L 419.3 10.2 C 419.3 10.2 419.3 5.78 419.3 5.8 C 419.3 5.3 419.3 4.9 419.2 4.7 C 419.1 4.4 418.9 4.2 418.6 4.1 C 418.4 3.9 418.1 3.8 417.8 3.8 C 417.3 3.8 416.8 4 416.4 4.3 C 416.1 4.7 415.9 5.3 415.9 6.2 C 415.86 6.23 415.9 10.2 415.9 10.2 L 414.6 10.2 Z M 422.2 10.8 C 422.2 10.8 423.4 11 423.4 11 C 423.4 11.3 423.6 11.6 423.8 11.8 C 424.1 12 424.5 12.1 425.1 12.1 C 425.6 12.1 426.1 12 426.4 11.8 C 426.7 11.6 426.9 11.2 427 10.8 C 427.1 10.6 427.1 10 427.1 9.2 C 426.6 9.9 425.9 10.2 425.1 10.2 C 424.1 10.2 423.3 9.8 422.8 9.1 C 422.2 8.4 421.9 7.5 421.9 6.5 C 421.9 5.8 422.1 5.2 422.3 4.6 C 422.6 4 422.9 3.6 423.4 3.2 C 423.9 2.9 424.5 2.8 425.1 2.8 C 425.9 2.8 426.7 3.1 427.2 3.8 C 427.21 3.81 427.2 2.9 427.2 2.9 L 428.3 2.9 C 428.3 2.9 428.35 9.21 428.3 9.2 C 428.3 10.3 428.2 11.1 428 11.6 C 427.8 12.1 427.4 12.5 426.9 12.7 C 426.4 13 425.8 13.1 425.1 13.1 C 424.2 13.1 423.5 12.9 423 12.6 C 422.4 12.2 422.2 11.6 422.2 10.8 Z M 423.2 6.4 C 423.2 7.4 423.4 8.1 423.8 8.5 C 424.2 9 424.6 9.2 425.2 9.2 C 425.8 9.2 426.2 9 426.6 8.5 C 427 8.1 427.2 7.4 427.2 6.5 C 427.2 5.6 427 4.9 426.6 4.5 C 426.2 4 425.7 3.8 425.2 3.8 C 424.6 3.8 424.2 4 423.8 4.5 C 423.4 4.9 423.2 5.6 423.2 6.4 Z M 434.3 10.2 L 434.3 0.2 L 441.1 0.2 L 441.1 1.4 L 435.6 1.4 L 435.6 4.5 L 440.4 4.5 L 440.4 5.6 L 435.6 5.6 L 435.6 10.2 L 434.3 10.2 Z M 442.7 1.6 L 442.7 0.2 L 443.9 0.2 L 443.9 1.6 L 442.7 1.6 Z M 442.7 10.2 L 442.7 2.9 L 443.9 2.9 L 443.9 10.2 L 442.7 10.2 Z M 445.8 10.2 L 445.8 2.9 L 446.9 2.9 C 446.9 2.9 446.87 3.96 446.9 4 C 447.4 3.2 448.2 2.8 449.2 2.8 C 449.6 2.8 450 2.8 450.4 3 C 450.7 3.2 451 3.4 451.2 3.6 C 451.4 3.9 451.5 4.2 451.6 4.5 C 451.6 4.8 451.7 5.2 451.7 5.7 C 451.66 5.73 451.7 10.2 451.7 10.2 L 450.4 10.2 C 450.4 10.2 450.43 5.78 450.4 5.8 C 450.4 5.3 450.4 4.9 450.3 4.7 C 450.2 4.4 450 4.2 449.8 4.1 C 449.5 3.9 449.2 3.8 448.9 3.8 C 448.4 3.8 447.9 4 447.6 4.3 C 447.2 4.7 447 5.3 447 6.2 C 446.99 6.23 447 10.2 447 10.2 L 445.8 10.2 Z M 458.5 10.2 C 458.4 9.9 458.3 9.6 458.3 9.3 C 457.8 9.7 457.4 10 457 10.1 C 456.5 10.3 456.1 10.4 455.6 10.4 C 454.8 10.4 454.2 10.2 453.8 9.8 C 453.3 9.4 453.1 8.9 453.1 8.3 C 453.1 7.9 453.2 7.6 453.4 7.3 C 453.5 7 453.7 6.8 454 6.6 C 454.3 6.4 454.6 6.3 454.9 6.2 C 455.1 6.1 455.5 6.1 456 6 C 457 5.9 457.7 5.7 458.2 5.6 C 458.2 5.4 458.2 5.3 458.2 5.3 C 458.2 4.8 458.1 4.4 457.8 4.2 C 457.5 3.9 457.1 3.8 456.4 3.8 C 455.9 3.8 455.4 3.9 455.2 4.1 C 454.9 4.3 454.7 4.7 454.5 5.2 C 454.5 5.2 453.3 5 453.3 5 C 453.4 4.5 453.6 4.1 453.9 3.8 C 454.1 3.4 454.5 3.2 455 3 C 455.4 2.9 456 2.8 456.6 2.8 C 457.2 2.8 457.7 2.8 458.1 3 C 458.5 3.1 458.8 3.3 459 3.5 C 459.2 3.8 459.3 4 459.4 4.4 C 459.4 4.6 459.4 5 459.4 5.5 C 459.4 5.5 459.4 7.2 459.4 7.2 C 459.4 8.3 459.4 9 459.5 9.3 C 459.6 9.6 459.7 9.9 459.8 10.2 C 459.81 10.19 458.5 10.2 458.5 10.2 C 458.5 10.2 458.53 10.19 458.5 10.2 Z M 458.2 6.5 C 457.7 6.7 457.1 6.9 456.2 7 C 455.7 7.1 455.3 7.2 455.1 7.3 C 454.9 7.4 454.7 7.5 454.6 7.7 C 454.5 7.8 454.4 8 454.4 8.2 C 454.4 8.6 454.6 8.8 454.8 9.1 C 455.1 9.3 455.4 9.4 455.9 9.4 C 456.4 9.4 456.8 9.3 457.2 9.1 C 457.5 8.9 457.8 8.6 458 8.2 C 458.1 8 458.2 7.5 458.2 7 C 458.2 7 458.2 6.5 458.2 6.5 Z M 461.3 10.2 L 461.3 2.9 L 462.4 2.9 C 462.4 2.9 462.44 3.96 462.4 4 C 463 3.2 463.7 2.8 464.7 2.8 C 465.2 2.8 465.6 2.8 466 3 C 466.3 3.2 466.6 3.4 466.8 3.6 C 467 3.9 467.1 4.2 467.2 4.5 C 467.2 4.8 467.2 5.2 467.2 5.7 C 467.23 5.73 467.2 10.2 467.2 10.2 L 466 10.2 C 466 10.2 466 5.78 466 5.8 C 466 5.3 466 4.9 465.9 4.7 C 465.8 4.4 465.6 4.2 465.3 4.1 C 465.1 3.9 464.8 3.8 464.5 3.8 C 464 3.8 463.5 4 463.1 4.3 C 462.8 4.7 462.6 5.3 462.6 6.2 C 462.56 6.23 462.6 10.2 462.6 10.2 L 461.3 10.2 Z M 473.9 7.5 C 473.9 7.5 475.1 7.7 475.1 7.7 C 474.9 8.5 474.6 9.2 474 9.6 C 473.5 10.1 472.8 10.4 472 10.4 C 471 10.4 470.2 10 469.6 9.4 C 469 8.7 468.7 7.8 468.7 6.6 C 468.7 5.8 468.9 5.1 469.1 4.5 C 469.4 3.9 469.8 3.5 470.3 3.2 C 470.8 2.9 471.4 2.8 472 2.8 C 472.8 2.8 473.5 3 474 3.4 C 474.5 3.8 474.8 4.3 474.9 5.1 C 474.9 5.1 473.8 5.3 473.8 5.3 C 473.6 4.8 473.4 4.4 473.1 4.1 C 472.9 3.9 472.5 3.8 472.1 3.8 C 471.5 3.8 471 4 470.6 4.4 C 470.2 4.9 470 5.6 470 6.6 C 470 7.5 470.2 8.2 470.6 8.7 C 470.9 9.1 471.4 9.3 472 9.3 C 472.5 9.3 472.9 9.2 473.2 8.9 C 473.6 8.6 473.8 8.1 473.9 7.5 Z M 476.1 1.6 L 476.1 0.2 L 477.4 0.2 L 477.4 1.6 L 476.1 1.6 Z M 476.1 10.2 L 476.1 2.9 L 477.4 2.9 L 477.4 10.2 L 476.1 10.2 Z M 484.2 10.2 C 484.1 9.9 484 9.6 484 9.3 C 483.5 9.7 483.1 10 482.6 10.1 C 482.2 10.3 481.8 10.4 481.3 10.4 C 480.5 10.4 479.9 10.2 479.5 9.8 C 479 9.4 478.8 8.9 478.8 8.3 C 478.8 7.9 478.9 7.6 479.1 7.3 C 479.2 7 479.4 6.8 479.7 6.6 C 480 6.4 480.2 6.3 480.6 6.2 C 480.8 6.1 481.2 6.1 481.7 6 C 482.7 5.9 483.4 5.7 483.9 5.6 C 483.9 5.4 483.9 5.3 483.9 5.3 C 483.9 4.8 483.8 4.4 483.5 4.2 C 483.2 3.9 482.7 3.8 482.1 3.8 C 481.5 3.8 481.1 3.9 480.8 4.1 C 480.6 4.3 480.4 4.7 480.2 5.2 C 480.2 5.2 479 5 479 5 C 479.1 4.5 479.3 4.1 479.6 3.8 C 479.8 3.4 480.2 3.2 480.6 3 C 481.1 2.9 481.7 2.8 482.3 2.8 C 482.9 2.8 483.4 2.8 483.8 3 C 484.2 3.1 484.5 3.3 484.7 3.5 C 484.8 3.8 485 4 485 4.4 C 485.1 4.6 485.1 5 485.1 5.5 C 485.1 5.5 485.1 7.2 485.1 7.2 C 485.1 8.3 485.1 9 485.2 9.3 C 485.2 9.6 485.3 9.9 485.5 10.2 C 485.5 10.19 484.2 10.2 484.2 10.2 C 484.2 10.2 484.21 10.19 484.2 10.2 Z M 483.9 6.5 C 483.4 6.7 482.7 6.9 481.9 7 C 481.3 7.1 481 7.2 480.8 7.3 C 480.6 7.4 480.4 7.5 480.3 7.7 C 480.2 7.8 480.1 8 480.1 8.2 C 480.1 8.6 480.2 8.8 480.5 9.1 C 480.7 9.3 481.1 9.4 481.6 9.4 C 482.1 9.4 482.5 9.3 482.8 9.1 C 483.2 8.9 483.5 8.6 483.7 8.2 C 483.8 8 483.9 7.5 483.9 7 C 483.9 7 483.9 6.5 483.9 6.5 Z M 487 10.2 L 487 0.2 L 488.2 0.2 L 488.2 10.2 L 487 10.2 Z M 493.7 7 C 493.7 7 495 6.9 495 6.9 C 495 7.4 495.2 7.8 495.4 8.1 C 495.6 8.4 495.9 8.7 496.4 8.9 C 496.8 9.1 497.4 9.2 497.9 9.2 C 498.4 9.2 498.9 9.1 499.3 8.9 C 499.7 8.8 499.9 8.6 500.1 8.3 C 500.3 8.1 500.4 7.8 500.4 7.5 C 500.4 7.2 500.3 6.9 500.1 6.6 C 500 6.4 499.7 6.2 499.2 6.1 C 499 6 498.4 5.8 497.5 5.6 C 496.5 5.3 495.9 5.1 495.5 4.9 C 495 4.7 494.7 4.4 494.5 4 C 494.2 3.6 494.1 3.2 494.1 2.8 C 494.1 2.3 494.2 1.8 494.5 1.3 C 494.8 0.9 495.2 0.6 495.8 0.3 C 496.3 0.1 497 0 497.6 0 C 498.4 0 499 0.1 499.6 0.4 C 500.2 0.6 500.6 1 500.9 1.4 C 501.2 1.9 501.4 2.4 501.4 3 C 501.4 3 500.1 3.1 500.1 3.1 C 500.1 2.5 499.8 2 499.4 1.7 C 499 1.3 498.5 1.2 497.7 1.2 C 496.9 1.2 496.3 1.3 495.9 1.6 C 495.6 1.9 495.4 2.3 495.4 2.7 C 495.4 3 495.5 3.3 495.8 3.6 C 496 3.8 496.7 4 497.8 4.3 C 498.8 4.5 499.6 4.7 500 4.9 C 500.6 5.2 501 5.5 501.3 5.9 C 501.6 6.3 501.7 6.8 501.7 7.4 C 501.7 7.9 501.5 8.4 501.2 8.9 C 500.9 9.3 500.5 9.7 499.9 10 C 499.4 10.2 498.7 10.4 498 10.4 C 497.1 10.4 496.3 10.2 495.7 10 C 495.1 9.7 494.6 9.3 494.3 8.8 C 493.9 8.2 493.7 7.6 493.7 7 Z M 508.3 7.9 C 508.3 7.9 509.6 8 509.6 8 C 509.4 8.8 509 9.3 508.5 9.7 C 507.9 10.2 507.2 10.4 506.4 10.4 C 505.3 10.4 504.5 10 503.9 9.4 C 503.3 8.7 502.9 7.8 502.9 6.6 C 502.9 5.4 503.3 4.5 503.9 3.8 C 504.5 3.1 505.3 2.8 506.3 2.8 C 507.3 2.8 508.1 3.1 508.7 3.8 C 509.3 4.4 509.6 5.4 509.6 6.5 C 509.6 6.6 509.6 6.7 509.6 6.9 C 509.6 6.9 504.2 6.9 504.2 6.9 C 504.3 7.7 504.5 8.3 504.9 8.7 C 505.3 9.1 505.8 9.3 506.4 9.3 C 506.9 9.3 507.2 9.2 507.6 9 C 507.9 8.8 508.1 8.4 508.3 7.9 Z M 504.3 5.9 C 504.3 5.9 508.3 5.9 508.3 5.9 C 508.3 5.3 508.1 4.8 507.9 4.5 C 507.5 4 507 3.8 506.3 3.8 C 505.8 3.8 505.3 4 504.9 4.3 C 504.5 4.7 504.3 5.2 504.3 5.9 Z M 511.1 10.2 L 511.1 2.9 L 512.2 2.9 C 512.2 2.9 512.23 4.03 512.2 4 C 512.5 3.5 512.8 3.2 513 3 C 513.3 2.9 513.5 2.8 513.8 2.8 C 514.2 2.8 514.6 2.9 515.1 3.2 C 515.1 3.2 514.6 4.3 514.6 4.3 C 514.3 4.1 514 4 513.7 4 C 513.5 4 513.2 4.1 513 4.3 C 512.8 4.4 512.6 4.7 512.6 5 C 512.4 5.4 512.4 5.9 512.4 6.4 C 512.35 6.39 512.4 10.2 512.4 10.2 L 511.1 10.2 Z M 517.8 10.2 L 515.1 2.9 L 516.4 2.9 C 516.4 2.9 517.91 7.28 517.9 7.3 C 518.1 7.7 518.2 8.2 518.4 8.7 C 518.5 8.4 518.6 7.9 518.8 7.4 C 518.83 7.36 520.4 2.9 520.4 2.9 L 521.7 2.9 L 519 10.2 L 517.8 10.2 Z M 522.8 1.6 L 522.8 0.2 L 524 0.2 L 524 1.6 L 522.8 1.6 Z M 522.8 10.2 L 522.8 2.9 L 524 2.9 L 524 10.2 L 522.8 10.2 Z M 530.6 7.5 C 530.6 7.5 531.9 7.7 531.9 7.7 C 531.7 8.5 531.4 9.2 530.8 9.6 C 530.3 10.1 529.6 10.4 528.8 10.4 C 527.8 10.4 527 10 526.4 9.4 C 525.8 8.7 525.5 7.8 525.5 6.6 C 525.5 5.8 525.7 5.1 525.9 4.5 C 526.2 3.9 526.6 3.5 527.1 3.2 C 527.6 2.9 528.2 2.8 528.8 2.8 C 529.6 2.8 530.3 3 530.8 3.4 C 531.3 3.8 531.6 4.3 531.7 5.1 C 531.7 5.1 530.5 5.3 530.5 5.3 C 530.4 4.8 530.2 4.4 529.9 4.1 C 529.6 3.9 529.3 3.8 528.9 3.8 C 528.3 3.8 527.8 4 527.4 4.4 C 527 4.9 526.8 5.6 526.8 6.6 C 526.8 7.5 527 8.2 527.4 8.7 C 527.7 9.1 528.2 9.3 528.8 9.3 C 529.3 9.3 529.7 9.2 530 8.9 C 530.4 8.6 530.6 8.1 530.6 7.5 Z M 537.9 7.9 C 537.9 7.9 539.2 8 539.2 8 C 538.9 8.8 538.6 9.3 538 9.7 C 537.5 10.2 536.8 10.4 536 10.4 C 534.9 10.4 534.1 10 533.4 9.4 C 532.8 8.7 532.5 7.8 532.5 6.6 C 532.5 5.4 532.8 4.5 533.4 3.8 C 534.1 3.1 534.9 2.8 535.9 2.8 C 536.9 2.8 537.7 3.1 538.3 3.8 C 538.9 4.4 539.2 5.4 539.2 6.5 C 539.2 6.6 539.2 6.7 539.2 6.9 C 539.2 6.9 533.8 6.9 533.8 6.9 C 533.8 7.7 534 8.3 534.4 8.7 C 534.9 9.1 535.4 9.3 536 9.3 C 536.4 9.3 536.8 9.2 537.1 9 C 537.4 8.8 537.7 8.4 537.9 7.9 Z M 533.8 5.9 C 533.8 5.9 537.9 5.9 537.9 5.9 C 537.8 5.3 537.7 4.8 537.4 4.5 C 537 4 536.5 3.8 535.9 3.8 C 535.3 3.8 534.9 4 534.5 4.3 C 534.1 4.7 533.9 5.2 533.8 5.9 Z M 540.2 8 C 540.2 8 541.4 7.8 541.4 7.8 C 541.5 8.3 541.7 8.7 542 9 C 542.3 9.2 542.7 9.3 543.3 9.3 C 543.9 9.3 544.3 9.2 544.6 9 C 544.8 8.8 545 8.5 545 8.2 C 545 7.9 544.8 7.7 544.6 7.5 C 544.4 7.4 544 7.3 543.3 7.1 C 542.4 6.9 541.8 6.7 541.5 6.5 C 541.1 6.4 540.9 6.1 540.7 5.8 C 540.5 5.5 540.4 5.2 540.4 4.9 C 540.4 4.5 540.5 4.2 540.6 4 C 540.8 3.7 541 3.5 541.2 3.3 C 541.4 3.1 541.7 3 542 2.9 C 542.3 2.8 542.7 2.8 543.1 2.8 C 543.7 2.8 544.2 2.9 544.6 3 C 545 3.2 545.3 3.4 545.5 3.7 C 545.7 4 545.9 4.3 546 4.8 C 546 4.8 544.8 5 544.8 5 C 544.7 4.6 544.5 4.3 544.3 4.1 C 544 3.9 543.6 3.8 543.2 3.8 C 542.6 3.8 542.2 3.9 542 4.1 C 541.7 4.2 541.6 4.5 541.6 4.7 C 541.6 4.9 541.6 5 541.7 5.1 C 541.8 5.3 542 5.4 542.2 5.5 C 542.3 5.5 542.7 5.6 543.3 5.8 C 544.2 6 544.8 6.2 545.1 6.4 C 545.5 6.5 545.7 6.7 545.9 7 C 546.1 7.3 546.2 7.6 546.2 8.1 C 546.2 8.5 546.1 8.9 545.9 9.2 C 545.6 9.6 545.3 9.9 544.8 10.1 C 544.4 10.3 543.9 10.4 543.3 10.4 C 542.4 10.4 541.6 10.2 541.1 9.8 C 540.7 9.4 540.3 8.8 540.2 8 Z M 548 10.2 L 548 8.8 L 549.4 8.8 C 549.4 8.8 549.42 10.19 549.4 10.2 C 549.4 10.7 549.3 11.1 549.1 11.4 C 549 11.8 548.7 12 548.3 12.2 C 548.3 12.2 547.9 11.6 547.9 11.6 C 548.2 11.5 548.4 11.4 548.5 11.1 C 548.6 10.9 548.7 10.6 548.7 10.2 C 548.71 10.19 548 10.2 548 10.2 Z M 555.6 10.2 L 555.6 0.2 L 557 0.2 L 562.2 8 L 562.2 0.2 L 563.5 0.2 L 563.5 10.2 L 562.2 10.2 L 556.9 2.3 L 556.9 10.2 L 555.6 10.2 Z M 565.8 10.2 L 565.8 0.2 L 567.1 0.2 L 567.1 4.3 L 572.3 4.3 L 572.3 0.2 L 573.6 0.2 L 573.6 10.2 L 572.3 10.2 L 572.3 5.5 L 567.1 5.5 L 567.1 10.2 L 565.8 10.2 Z M 575.4 7 C 575.4 7 576.7 6.9 576.7 6.9 C 576.7 7.4 576.8 7.8 577.1 8.1 C 577.3 8.4 577.6 8.7 578.1 8.9 C 578.5 9.1 579 9.2 579.6 9.2 C 580.1 9.2 580.6 9.1 581 8.9 C 581.3 8.8 581.6 8.6 581.8 8.3 C 582 8.1 582.1 7.8 582.1 7.5 C 582.1 7.2 582 6.9 581.8 6.6 C 581.6 6.4 581.3 6.2 580.9 6.1 C 580.7 6 580.1 5.8 579.1 5.6 C 578.2 5.3 577.6 5.1 577.2 4.9 C 576.7 4.7 576.4 4.4 576.1 4 C 575.9 3.6 575.8 3.2 575.8 2.8 C 575.8 2.3 575.9 1.8 576.2 1.3 C 576.5 0.9 576.9 0.6 577.5 0.3 C 578 0.1 578.6 0 579.3 0 C 580.1 0 580.7 0.1 581.3 0.4 C 581.8 0.6 582.3 1 582.6 1.4 C 582.9 1.9 583.1 2.4 583.1 3 C 583.1 3 581.8 3.1 581.8 3.1 C 581.7 2.5 581.5 2 581.1 1.7 C 580.7 1.3 580.1 1.2 579.4 1.2 C 578.6 1.2 578 1.3 577.6 1.6 C 577.2 1.9 577.1 2.3 577.1 2.7 C 577.1 3 577.2 3.3 577.5 3.6 C 577.7 3.8 578.4 4 579.5 4.3 C 580.5 4.5 581.3 4.7 581.7 4.9 C 582.3 5.2 582.7 5.5 583 5.9 C 583.2 6.3 583.4 6.8 583.4 7.4 C 583.4 7.9 583.2 8.4 582.9 8.9 C 582.6 9.3 582.2 9.7 581.6 10 C 581 10.2 580.4 10.4 579.7 10.4 C 578.8 10.4 578 10.2 577.4 10 C 576.8 9.7 576.3 9.3 576 8.8 C 575.6 8.2 575.4 7.6 575.4 7 Z M 585.4 10.2 L 585.4 8.8 L 586.8 8.8 C 586.8 8.8 586.76 10.19 586.8 10.2 C 586.8 10.7 586.7 11.1 586.5 11.4 C 586.3 11.8 586 12 585.6 12.2 C 585.6 12.2 585.3 11.6 585.3 11.6 C 585.5 11.5 585.7 11.4 585.8 11.1 C 586 10.9 586 10.6 586.1 10.2 C 586.05 10.19 585.4 10.2 585.4 10.2 Z M 593 10.2 L 593 0.2 C 593 0.2 596.75 0.17 596.8 0.2 C 597.4 0.2 597.9 0.2 598.3 0.3 C 598.8 0.3 599.2 0.5 599.5 0.7 C 599.8 1 600.1 1.3 600.3 1.7 C 600.5 2.1 600.6 2.6 600.6 3.1 C 600.6 3.9 600.3 4.6 599.8 5.2 C 599.3 5.8 598.3 6.1 596.9 6.1 C 596.87 6.12 594.3 6.1 594.3 6.1 L 594.3 10.2 L 593 10.2 Z M 594.3 4.9 C 594.3 4.9 596.89 4.94 596.9 4.9 C 597.7 4.9 598.4 4.8 598.7 4.5 C 599.1 4.1 599.3 3.7 599.3 3.1 C 599.3 2.7 599.1 2.3 598.9 2 C 598.7 1.7 598.4 1.5 598.1 1.4 C 597.9 1.4 597.5 1.4 596.9 1.4 C 596.86 1.35 594.3 1.4 594.3 1.4 L 594.3 4.9 Z M 606.9 10.2 C 606.9 10.2 606.91 9.13 606.9 9.1 C 606.3 9.9 605.6 10.4 604.6 10.4 C 604.2 10.4 603.8 10.3 603.4 10.1 C 603 9.9 602.8 9.7 602.6 9.5 C 602.4 9.2 602.3 8.9 602.2 8.6 C 602.1 8.3 602.1 8 602.1 7.4 C 602.12 7.43 602.1 2.9 602.1 2.9 L 603.4 2.9 C 603.4 2.9 603.35 6.96 603.4 7 C 603.4 7.6 603.4 8 603.4 8.3 C 603.5 8.6 603.7 8.8 603.9 9 C 604.2 9.2 604.5 9.3 604.9 9.3 C 605.2 9.3 605.6 9.2 605.9 9 C 606.2 8.8 606.4 8.6 606.6 8.2 C 606.7 7.9 606.8 7.4 606.8 6.8 C 606.78 6.82 606.8 2.9 606.8 2.9 L 608 2.9 L 608 10.2 L 606.9 10.2 Z M 611.1 10.2 L 609.9 10.2 L 609.9 0.2 L 611.2 0.2 C 611.2 0.2 611.16 3.75 611.2 3.7 C 611.7 3.1 612.3 2.8 613.1 2.8 C 613.6 2.8 614 2.9 614.4 3 C 614.8 3.2 615.1 3.5 615.4 3.8 C 615.7 4.1 615.9 4.5 616 5 C 616.2 5.4 616.2 5.9 616.2 6.5 C 616.2 7.7 615.9 8.7 615.3 9.3 C 614.7 10 613.9 10.4 613.1 10.4 C 612.2 10.4 611.6 10 611.1 9.3 C 611.07 9.28 611.1 10.2 611.1 10.2 Z M 611.1 6.5 C 611.1 7.4 611.2 8 611.4 8.4 C 611.8 9 612.3 9.3 613 9.3 C 613.5 9.3 614 9.1 614.4 8.6 C 614.8 8.2 615 7.5 615 6.6 C 615 5.6 614.8 4.9 614.4 4.5 C 614 4 613.6 3.8 613 3.8 C 612.5 3.8 612 4 611.6 4.5 C 611.3 4.9 611.1 5.6 611.1 6.5 Z M 617.7 10.2 L 617.7 0.2 L 618.9 0.2 L 618.9 10.2 L 617.7 10.2 Z M 620.8 1.6 L 620.8 0.2 L 622.1 0.2 L 622.1 1.6 L 620.8 1.6 Z M 620.8 10.2 L 620.8 2.9 L 622.1 2.9 L 622.1 10.2 L 620.8 10.2 Z M 628.7 7.5 C 628.7 7.5 629.9 7.7 629.9 7.7 C 629.8 8.5 629.4 9.2 628.9 9.6 C 628.3 10.1 627.7 10.4 626.9 10.4 C 625.9 10.4 625.1 10 624.5 9.4 C 623.9 8.7 623.6 7.8 623.6 6.6 C 623.6 5.8 623.7 5.1 624 4.5 C 624.2 3.9 624.6 3.5 625.1 3.2 C 625.7 2.9 626.3 2.8 626.9 2.8 C 627.7 2.8 628.3 3 628.8 3.4 C 629.3 3.8 629.6 4.3 629.8 5.1 C 629.8 5.1 628.6 5.3 628.6 5.3 C 628.5 4.8 628.3 4.4 628 4.1 C 627.7 3.9 627.3 3.8 626.9 3.8 C 626.3 3.8 625.8 4 625.4 4.4 C 625 4.9 624.8 5.6 624.8 6.6 C 624.8 7.5 625 8.2 625.4 8.7 C 625.8 9.1 626.3 9.3 626.9 9.3 C 627.3 9.3 627.7 9.2 628.1 8.9 C 628.4 8.6 628.6 8.1 628.7 7.5 Z " stroke="none" fill="#000"/>  </g></svg>