<?xml version="1.0" standalone="no"?><!DOCTYPE svg PUBLIC "-//W3C//DTD SVG 1.1//EN" "http://www.w3.org/Graphics/SVG/1.1/DTD/svg11.dtd"><svg xmlns="http://www.w3.org/2000/svg" version="1.1" width="44px" height="23.9px" viewBox="0 -5 44 23.9" style="top:-5px">  <desc>31 70</desc>  <defs/>  <g id="Polygon145803">    <path d="M 0.6 7.5 C 0.6 7.5 1.8 7.4 1.8 7.4 C 2 8.1 2.2 8.6 2.5 8.9 C 2.9 9.2 3.3 9.4 3.8 9.4 C 4.4 9.4 4.8 9.2 5.2 8.8 C 5.6 8.3 5.8 7.9 5.8 7.3 C 5.8 6.7 5.7 6.2 5.3 5.9 C 4.9 5.5 4.5 5.3 3.9 5.3 C 3.7 5.3 3.4 5.4 3 5.4 C 3 5.4 3.2 4.4 3.2 4.4 C 3.2 4.4 3.3 4.4 3.3 4.4 C 3.9 4.4 4.3 4.2 4.8 4 C 5.2 3.7 5.4 3.3 5.4 2.7 C 5.4 2.3 5.2 1.9 4.9 1.6 C 4.6 1.3 4.2 1.1 3.8 1.1 C 3.3 1.1 2.9 1.3 2.6 1.6 C 2.2 1.9 2 2.3 1.9 2.9 C 1.9 2.9 0.7 2.7 0.7 2.7 C 0.9 1.9 1.2 1.3 1.7 0.8 C 2.3 0.4 2.9 0.1 3.7 0.1 C 4.3 0.1 4.8 0.2 5.2 0.5 C 5.7 0.7 6 1 6.3 1.4 C 6.5 1.8 6.7 2.3 6.7 2.7 C 6.7 3.2 6.5 3.6 6.3 3.9 C 6.1 4.3 5.7 4.6 5.3 4.8 C 5.9 4.9 6.3 5.2 6.7 5.6 C 7 6 7.2 6.6 7.2 7.2 C 7.2 8.1 6.8 8.8 6.2 9.5 C 5.6 10.1 4.7 10.4 3.8 10.4 C 2.9 10.4 2.2 10.1 1.6 9.6 C 1 9.1 0.7 8.4 0.6 7.5 Z M 13 10.2 L 11.8 10.2 C 11.8 10.2 11.77 2.35 11.8 2.4 C 11.5 2.6 11.1 2.9 10.6 3.2 C 10.1 3.5 9.7 3.7 9.3 3.8 C 9.3 3.8 9.3 2.6 9.3 2.6 C 10 2.3 10.6 1.9 11.1 1.5 C 11.6 1 12 0.6 12.2 0.1 C 12.21 0.13 13 0.1 13 0.1 L 13 10.2 Z M 19.9 7.2 L 19.9 5.9 L 23.7 5.9 L 23.7 7.2 L 19.9 7.2 Z M 28.7 1.5 L 28.7 0.3 L 35.2 0.3 C 35.2 0.3 35.16 1.26 35.2 1.3 C 34.5 1.9 33.9 2.8 33.3 4 C 32.6 5.1 32.2 6.2 31.8 7.4 C 31.6 8.3 31.4 9.2 31.3 10.2 C 31.3 10.2 30.1 10.2 30.1 10.2 C 30.1 9.4 30.2 8.5 30.5 7.3 C 30.8 6.2 31.3 5.1 31.8 4.1 C 32.4 3.1 33 2.2 33.6 1.5 C 33.58 1.48 28.7 1.5 28.7 1.5 Z M 37.4 9.3 C 36.7 8.5 36.4 7.1 36.4 5.3 C 36.4 4.1 36.5 3.1 36.7 2.4 C 37 1.7 37.4 1.1 37.8 0.7 C 38.3 0.3 38.9 0.1 39.6 0.1 C 40.2 0.1 40.7 0.2 41.1 0.5 C 41.5 0.7 41.8 1 42.1 1.4 C 42.3 1.8 42.5 2.3 42.7 2.9 C 42.8 3.5 42.9 4.3 42.9 5.3 C 42.9 6.4 42.8 7.4 42.6 8.1 C 42.3 8.8 42 9.4 41.5 9.8 C 41 10.2 40.4 10.4 39.6 10.4 C 38.7 10.4 37.9 10 37.4 9.3 C 37.4 9.3 37.4 9.3 37.4 9.3 Z M 38.3 1.9 C 37.9 2.5 37.6 3.6 37.6 5.3 C 37.6 6.9 37.8 8 38.2 8.5 C 38.6 9.1 39.1 9.4 39.6 9.4 C 40.2 9.4 40.7 9.1 41.1 8.5 C 41.5 8 41.7 6.9 41.7 5.3 C 41.7 3.6 41.5 2.5 41.1 2 C 40.7 1.4 40.2 1.1 39.6 1.1 C 39.1 1.1 38.6 1.4 38.3 1.9 C 38.3 1.9 38.3 1.9 38.3 1.9 Z " stroke="none" fill="#ffffff"/>  </g></svg>