<?xml version="1.0" standalone="no"?><!DOCTYPE svg PUBLIC "-//W3C//DTD SVG 1.1//EN" "http://www.w3.org/Graphics/SVG/1.1/DTD/svg11.dtd"><svg xmlns="http://www.w3.org/2000/svg" version="1.1" width="19.5px" height="23.9px" viewBox="0 -5 19.5 23.9" style="top:-5px">  <desc>4.4</desc>  <defs/>  <g id="Polygon144649">    <path d="M 4.4 10.2 L 4.4 8.2 L 0.3 8.2 L 0.3 6.5 L 4.6 0.1 L 6.2 0.1 L 6.2 6.5 L 7.5 6.5 L 7.5 8.2 L 6.2 8.2 L 6.2 10.2 L 4.4 10.2 Z M 4.4 6.5 L 4.4 3.1 L 2.1 6.5 L 4.4 6.5 Z M 8.8 10.2 L 8.8 8.3 L 10.7 8.3 L 10.7 10.2 L 8.8 10.2 Z M 16 10.2 L 16 8.2 L 11.9 8.2 L 11.9 6.5 L 16.3 0.1 L 17.9 0.1 L 17.9 6.5 L 19.1 6.5 L 19.1 8.2 L 17.9 8.2 L 17.9 10.2 L 16 10.2 Z M 16 6.5 L 16 3.1 L 13.7 6.5 L 16 6.5 Z " stroke="none" fill="#ffffff"/>  </g></svg>