<?xml version="1.0" standalone="no"?><!DOCTYPE svg PUBLIC "-//W3C//DTD SVG 1.1//EN" "http://www.w3.org/Graphics/SVG/1.1/DTD/svg11.dtd"><svg xmlns="http://www.w3.org/2000/svg" version="1.1" width="237px" height="33.9px" viewBox="0 -1 237 33.9" style="top:-1px">  <desc>Financial Services</desc>  <defs/>  <g id="Polygon117296">    <path d="M 1 19.6 L 1 9.6 L 7.9 9.6 L 7.9 11.3 L 3.1 11.3 L 3.1 13.6 L 7.2 13.6 L 7.2 15.3 L 3.1 15.3 L 3.1 19.6 L 1 19.6 Z M 9.6 11.3 L 9.6 9.6 L 11.5 9.6 L 11.5 11.3 L 9.6 11.3 Z M 9.6 19.6 L 9.6 12.3 L 11.5 12.3 L 11.5 19.6 L 9.6 19.6 Z M 20 19.6 L 18.1 19.6 C 18.1 19.6 18.13 15.89 18.1 15.9 C 18.1 15.1 18.1 14.6 18 14.4 C 17.9 14.1 17.8 14 17.6 13.8 C 17.4 13.7 17.2 13.6 16.9 13.6 C 16.6 13.6 16.3 13.7 16 13.9 C 15.8 14.1 15.6 14.3 15.5 14.6 C 15.4 14.9 15.4 15.5 15.4 16.3 C 15.35 16.3 15.4 19.6 15.4 19.6 L 13.4 19.6 L 13.4 12.3 L 15.2 12.3 C 15.2 12.3 15.22 13.4 15.2 13.4 C 15.9 12.6 16.6 12.2 17.6 12.2 C 18 12.2 18.4 12.2 18.8 12.4 C 19.1 12.6 19.4 12.7 19.6 13 C 19.7 13.2 19.9 13.5 19.9 13.8 C 20 14.1 20 14.5 20 15.1 C 20.05 15.08 20 19.6 20 19.6 Z M 23.4 14.5 C 23.4 14.5 21.7 14.2 21.7 14.2 C 21.9 13.5 22.2 13 22.7 12.7 C 23.2 12.3 23.9 12.2 24.8 12.2 C 25.7 12.2 26.3 12.3 26.7 12.5 C 27.2 12.7 27.5 12.9 27.6 13.2 C 27.8 13.6 27.9 14.1 27.9 15 C 27.9 15 27.9 17.2 27.9 17.2 C 27.9 17.8 27.9 18.3 28 18.6 C 28 18.9 28.1 19.2 28.3 19.6 C 28.3 19.6 26.4 19.6 26.4 19.6 C 26.4 19.5 26.3 19.3 26.2 19 C 26.2 18.9 26.2 18.8 26.2 18.8 C 25.8 19.1 25.5 19.4 25.1 19.5 C 24.7 19.7 24.3 19.8 23.9 19.8 C 23.2 19.8 22.6 19.6 22.1 19.1 C 21.7 18.7 21.5 18.2 21.5 17.6 C 21.5 17.2 21.6 16.8 21.8 16.5 C 22 16.2 22.3 15.9 22.6 15.8 C 23 15.6 23.5 15.5 24.1 15.3 C 25 15.2 25.7 15 26 14.9 C 26 14.9 26 14.7 26 14.7 C 26 14.3 25.9 14 25.7 13.9 C 25.5 13.7 25.2 13.6 24.7 13.6 C 24.4 13.6 24.1 13.7 23.9 13.8 C 23.7 14 23.6 14.2 23.4 14.5 Z M 26 16.1 C 25.8 16.2 25.4 16.3 24.8 16.4 C 24.3 16.5 24 16.6 23.8 16.7 C 23.5 16.9 23.4 17.1 23.4 17.4 C 23.4 17.7 23.5 17.9 23.7 18.1 C 23.9 18.3 24.2 18.4 24.5 18.4 C 24.8 18.4 25.2 18.3 25.5 18.1 C 25.7 17.9 25.9 17.7 25.9 17.4 C 26 17.3 26 16.9 26 16.5 C 26 16.5 26 16.1 26 16.1 Z M 36.4 19.6 L 34.5 19.6 C 34.5 19.6 34.47 15.89 34.5 15.9 C 34.5 15.1 34.4 14.6 34.3 14.4 C 34.3 14.1 34.1 14 33.9 13.8 C 33.8 13.7 33.5 13.6 33.3 13.6 C 32.9 13.6 32.6 13.7 32.4 13.9 C 32.1 14.1 31.9 14.3 31.8 14.6 C 31.7 14.9 31.7 15.5 31.7 16.3 C 31.69 16.3 31.7 19.6 31.7 19.6 L 29.8 19.6 L 29.8 12.3 L 31.6 12.3 C 31.6 12.3 31.55 13.4 31.6 13.4 C 32.2 12.6 33 12.2 33.9 12.2 C 34.4 12.2 34.8 12.2 35.1 12.4 C 35.5 12.6 35.7 12.7 35.9 13 C 36.1 13.2 36.2 13.5 36.3 13.8 C 36.4 14.1 36.4 14.5 36.4 15.1 C 36.39 15.08 36.4 19.6 36.4 19.6 Z M 44.7 14.5 C 44.7 14.5 42.8 14.8 42.8 14.8 C 42.7 14.4 42.6 14.2 42.3 14 C 42.1 13.8 41.8 13.7 41.5 13.7 C 41 13.7 40.6 13.8 40.3 14.2 C 40 14.5 39.9 15.1 39.9 15.8 C 39.9 16.7 40 17.3 40.3 17.7 C 40.6 18 41 18.2 41.5 18.2 C 41.9 18.2 42.2 18.1 42.4 17.9 C 42.6 17.7 42.8 17.3 42.9 16.8 C 42.9 16.8 44.8 17.1 44.8 17.1 C 44.6 18 44.2 18.7 43.6 19.1 C 43.1 19.5 42.3 19.8 41.4 19.8 C 40.3 19.8 39.5 19.4 38.9 18.8 C 38.2 18.1 37.9 17.2 37.9 16 C 37.9 14.8 38.2 13.8 38.9 13.2 C 39.5 12.5 40.4 12.2 41.4 12.2 C 42.3 12.2 43 12.4 43.5 12.7 C 44.1 13.1 44.4 13.7 44.7 14.5 Z M 46.1 11.3 L 46.1 9.6 L 48 9.6 L 48 11.3 L 46.1 11.3 Z M 46.1 19.6 L 46.1 12.3 L 48 12.3 L 48 19.6 L 46.1 19.6 Z M 51.4 14.5 C 51.4 14.5 49.7 14.2 49.7 14.2 C 49.9 13.5 50.2 13 50.7 12.7 C 51.2 12.3 51.9 12.2 52.8 12.2 C 53.7 12.2 54.3 12.3 54.8 12.5 C 55.2 12.7 55.5 12.9 55.6 13.2 C 55.8 13.6 55.9 14.1 55.9 15 C 55.9 15 55.9 17.2 55.9 17.2 C 55.9 17.8 55.9 18.3 56 18.6 C 56 18.9 56.2 19.2 56.3 19.6 C 56.3 19.6 54.4 19.6 54.4 19.6 C 54.4 19.5 54.3 19.3 54.2 19 C 54.2 18.9 54.2 18.8 54.2 18.8 C 53.8 19.1 53.5 19.4 53.1 19.5 C 52.7 19.7 52.3 19.8 51.9 19.8 C 51.2 19.8 50.6 19.6 50.2 19.1 C 49.7 18.7 49.5 18.2 49.5 17.6 C 49.5 17.2 49.6 16.8 49.8 16.5 C 50 16.2 50.3 15.9 50.6 15.8 C 51 15.6 51.5 15.5 52.2 15.3 C 53 15.2 53.7 15 54 14.9 C 54 14.9 54 14.7 54 14.7 C 54 14.3 53.9 14 53.7 13.9 C 53.6 13.7 53.2 13.6 52.7 13.6 C 52.4 13.6 52.1 13.7 51.9 13.8 C 51.7 14 51.6 14.2 51.4 14.5 Z M 54 16.1 C 53.8 16.2 53.4 16.3 52.8 16.4 C 52.3 16.5 52 16.6 51.8 16.7 C 51.6 16.9 51.4 17.1 51.4 17.4 C 51.4 17.7 51.5 17.9 51.7 18.1 C 51.9 18.3 52.2 18.4 52.5 18.4 C 52.8 18.4 53.2 18.3 53.5 18.1 C 53.7 17.9 53.9 17.7 53.9 17.4 C 54 17.3 54 16.9 54 16.5 C 54 16.5 54 16.1 54 16.1 Z M 57.8 19.6 L 57.8 9.6 L 59.7 9.6 L 59.7 19.6 L 57.8 19.6 Z M 65.1 16.3 C 65.1 16.3 67 16.1 67 16.1 C 67.2 16.8 67.4 17.3 67.8 17.6 C 68.1 17.9 68.6 18.1 69.2 18.1 C 69.9 18.1 70.4 17.9 70.7 17.6 C 71 17.4 71.2 17 71.2 16.7 C 71.2 16.4 71.1 16.2 71 16.1 C 70.9 15.9 70.6 15.8 70.3 15.6 C 70 15.6 69.5 15.4 68.6 15.2 C 67.6 14.9 66.8 14.6 66.4 14.2 C 65.7 13.7 65.4 13 65.4 12.2 C 65.4 11.7 65.6 11.2 65.9 10.8 C 66.2 10.3 66.6 10 67.1 9.7 C 67.7 9.5 68.3 9.4 69.1 9.4 C 70.4 9.4 71.3 9.7 71.9 10.2 C 72.6 10.8 72.9 11.5 72.9 12.4 C 72.9 12.4 70.9 12.5 70.9 12.5 C 70.8 12 70.6 11.6 70.4 11.4 C 70.1 11.2 69.6 11.1 69.1 11.1 C 68.5 11.1 68 11.2 67.7 11.4 C 67.5 11.6 67.4 11.8 67.4 12.1 C 67.4 12.3 67.5 12.5 67.7 12.7 C 67.9 12.9 68.6 13.1 69.5 13.3 C 70.5 13.6 71.2 13.8 71.7 14.1 C 72.2 14.3 72.6 14.6 72.8 15.1 C 73.1 15.5 73.2 16 73.2 16.7 C 73.2 17.2 73.1 17.8 72.7 18.3 C 72.4 18.8 72 19.2 71.4 19.4 C 70.8 19.6 70.1 19.8 69.2 19.8 C 67.9 19.8 67 19.5 66.3 18.9 C 65.6 18.3 65.2 17.5 65.1 16.3 Z M 79.1 17.3 C 79.1 17.3 81 17.6 81 17.6 C 80.8 18.3 80.4 18.8 79.9 19.2 C 79.3 19.6 78.7 19.8 77.9 19.8 C 76.6 19.8 75.7 19.3 75.1 18.5 C 74.6 17.9 74.4 17 74.4 16 C 74.4 14.8 74.7 13.9 75.3 13.2 C 75.9 12.5 76.7 12.2 77.7 12.2 C 78.8 12.2 79.6 12.5 80.2 13.2 C 80.9 14 81.2 15 81.1 16.5 C 81.1 16.5 76.3 16.5 76.3 16.5 C 76.3 17.1 76.5 17.5 76.8 17.8 C 77.1 18.2 77.5 18.3 77.9 18.3 C 78.2 18.3 78.4 18.2 78.7 18.1 C 78.9 17.9 79 17.6 79.1 17.3 Z M 79.2 15.3 C 79.2 14.8 79.1 14.4 78.8 14.1 C 78.5 13.8 78.2 13.6 77.8 13.6 C 77.4 13.6 77 13.8 76.8 14.1 C 76.5 14.4 76.4 14.8 76.4 15.3 C 76.4 15.3 79.2 15.3 79.2 15.3 Z M 84.5 19.6 L 82.6 19.6 L 82.6 12.3 L 84.4 12.3 C 84.4 12.3 84.4 13.36 84.4 13.4 C 84.7 12.9 85 12.6 85.2 12.4 C 85.5 12.2 85.7 12.2 86.1 12.2 C 86.5 12.2 86.9 12.3 87.3 12.5 C 87.3 12.5 86.7 14.2 86.7 14.2 C 86.4 14 86.1 13.9 85.8 13.9 C 85.6 13.9 85.3 14 85.1 14.1 C 85 14.3 84.8 14.5 84.7 14.9 C 84.6 15.3 84.5 16.1 84.5 17.4 C 84.54 17.35 84.5 19.6 84.5 19.6 Z M 90.1 19.6 L 87.2 12.3 L 89.2 12.3 L 90.6 16 C 90.6 16 91 17.27 91 17.3 C 91.1 17 91.2 16.8 91.2 16.7 C 91.3 16.4 91.3 16.2 91.4 16 C 91.4 16.04 92.8 12.3 92.8 12.3 L 94.8 12.3 L 91.9 19.6 L 90.1 19.6 Z M 95.9 11.3 L 95.9 9.6 L 97.9 9.6 L 97.9 11.3 L 95.9 11.3 Z M 95.9 19.6 L 95.9 12.3 L 97.9 12.3 L 97.9 19.6 L 95.9 19.6 Z M 106.2 14.5 C 106.2 14.5 104.3 14.8 104.3 14.8 C 104.2 14.4 104.1 14.2 103.8 14 C 103.6 13.8 103.3 13.7 102.9 13.7 C 102.5 13.7 102.1 13.8 101.8 14.2 C 101.5 14.5 101.4 15.1 101.4 15.8 C 101.4 16.7 101.5 17.3 101.8 17.7 C 102.1 18 102.5 18.2 103 18.2 C 103.3 18.2 103.6 18.1 103.9 17.9 C 104.1 17.7 104.3 17.3 104.4 16.8 C 104.4 16.8 106.3 17.1 106.3 17.1 C 106.1 18 105.7 18.7 105.1 19.1 C 104.6 19.5 103.8 19.8 102.9 19.8 C 101.8 19.8 101 19.4 100.3 18.8 C 99.7 18.1 99.4 17.2 99.4 16 C 99.4 14.8 99.7 13.8 100.4 13.2 C 101 12.5 101.8 12.2 102.9 12.2 C 103.8 12.2 104.5 12.4 105 12.7 C 105.6 13.1 105.9 13.7 106.2 14.5 Z M 111.8 17.3 C 111.8 17.3 113.7 17.6 113.7 17.6 C 113.5 18.3 113.1 18.8 112.6 19.2 C 112 19.6 111.4 19.8 110.6 19.8 C 109.3 19.8 108.4 19.3 107.8 18.5 C 107.3 17.9 107.1 17 107.1 16 C 107.1 14.8 107.4 13.9 108 13.2 C 108.6 12.5 109.4 12.2 110.4 12.2 C 111.5 12.2 112.3 12.5 112.9 13.2 C 113.6 14 113.9 15 113.8 16.5 C 113.8 16.5 109 16.5 109 16.5 C 109 17.1 109.2 17.5 109.5 17.8 C 109.8 18.2 110.1 18.3 110.6 18.3 C 110.9 18.3 111.1 18.2 111.4 18.1 C 111.6 17.9 111.7 17.6 111.8 17.3 Z M 111.9 15.3 C 111.9 14.8 111.8 14.4 111.5 14.1 C 111.2 13.8 110.9 13.6 110.5 13.6 C 110.1 13.6 109.7 13.8 109.5 14.1 C 109.2 14.4 109 14.8 109.1 15.3 C 109.1 15.3 111.9 15.3 111.9 15.3 Z M 114.7 17.5 C 114.7 17.5 116.6 17.2 116.6 17.2 C 116.7 17.6 116.9 17.9 117.1 18.1 C 117.4 18.3 117.7 18.4 118.2 18.4 C 118.7 18.4 119.1 18.3 119.3 18.1 C 119.5 18 119.6 17.8 119.6 17.6 C 119.6 17.4 119.5 17.3 119.4 17.2 C 119.3 17.1 119.1 17 118.8 17 C 117.2 16.6 116.3 16.3 115.8 16 C 115.3 15.6 115 15.1 115 14.4 C 115 13.8 115.2 13.2 115.7 12.8 C 116.2 12.4 117 12.2 118 12.2 C 119 12.2 119.8 12.3 120.3 12.7 C 120.7 13 121.1 13.5 121.3 14.1 C 121.3 14.1 119.4 14.4 119.4 14.4 C 119.4 14.1 119.2 13.9 119 13.8 C 118.8 13.6 118.5 13.5 118.1 13.5 C 117.6 13.5 117.2 13.6 117 13.8 C 116.8 13.9 116.8 14 116.8 14.2 C 116.8 14.3 116.8 14.4 117 14.5 C 117.1 14.6 117.7 14.8 118.8 15 C 119.8 15.3 120.5 15.6 120.9 15.9 C 121.3 16.2 121.5 16.7 121.5 17.3 C 121.5 18 121.2 18.6 120.7 19 C 120.1 19.5 119.3 19.8 118.2 19.8 C 117.2 19.8 116.4 19.6 115.9 19.2 C 115.3 18.8 114.9 18.2 114.7 17.5 Z " stroke="none" fill="#fff"/>  </g></svg>