<?xml version="1.0" standalone="no"?><!DOCTYPE svg PUBLIC "-//W3C//DTD SVG 1.1//EN" "http://www.w3.org/Graphics/SVG/1.1/DTD/svg11.dtd"><svg xmlns="http://www.w3.org/2000/svg" version="1.1" width="280.3px" height="74.9px" viewBox="0 -5 280.3 74.9" style="top:-5px">  <desc>L3 Multi Channel Marketer L4 Sales Executive L4 Marketing Executive L6 Marketing Manager</desc>  <defs/>  <g id="Polygon121032">    <path d="M 1.1 60.6 L 1.1 50.7 L 3.1 50.7 L 3.1 58.9 L 8.1 58.9 L 8.1 60.6 L 1.1 60.6 Z M 15.7 53 C 15.7 53 13.8 53.2 13.8 53.2 C 13.7 52.8 13.6 52.6 13.4 52.4 C 13.2 52.2 13 52.1 12.7 52.1 C 12.3 52.1 11.9 52.3 11.7 52.7 C 11.4 53 11.2 53.8 11.1 54.9 C 11.6 54.4 12.2 54.1 12.9 54.1 C 13.7 54.1 14.4 54.4 15 55 C 15.6 55.6 15.8 56.4 15.8 57.4 C 15.8 58.4 15.5 59.2 14.9 59.8 C 14.3 60.5 13.6 60.8 12.6 60.8 C 11.6 60.8 10.8 60.4 10.1 59.6 C 9.5 58.8 9.1 57.5 9.1 55.7 C 9.1 53.9 9.5 52.6 10.2 51.7 C 10.8 50.9 11.7 50.5 12.8 50.5 C 13.6 50.5 14.2 50.7 14.7 51.2 C 15.2 51.6 15.5 52.2 15.7 53 Z M 11.3 57.2 C 11.3 57.8 11.4 58.3 11.7 58.7 C 12 59 12.3 59.2 12.7 59.2 C 13.1 59.2 13.4 59 13.6 58.8 C 13.8 58.5 14 58 14 57.4 C 14 56.7 13.8 56.3 13.6 56 C 13.3 55.7 13 55.5 12.6 55.5 C 12.3 55.5 11.9 55.6 11.7 55.9 C 11.4 56.2 11.3 56.7 11.3 57.2 Z M 21.3 60.6 L 21.3 50.6 L 23.3 50.6 C 23.3 50.6 25.63 57.67 25.6 57.7 C 25.9 58.3 26 58.8 26.1 59.1 C 26.2 58.8 26.4 58.3 26.6 57.5 C 26.65 57.54 29 50.6 29 50.6 L 30.8 50.6 L 30.8 60.6 L 29.6 60.6 L 29.6 52.2 L 26.6 60.6 L 25.4 60.6 L 22.5 52.1 L 22.5 60.6 L 21.3 60.6 Z M 37.8 60.6 C 37.7 60.3 37.6 60 37.5 59.7 C 37.1 60.1 36.7 60.4 36.2 60.5 C 35.8 60.7 35.4 60.8 34.9 60.8 C 34.1 60.8 33.5 60.6 33 60.2 C 32.6 59.8 32.4 59.3 32.4 58.7 C 32.4 58.3 32.5 58 32.6 57.7 C 32.8 57.4 33 57.2 33.3 57 C 33.5 56.8 33.8 56.7 34.2 56.6 C 34.4 56.5 34.8 56.5 35.3 56.4 C 36.2 56.3 37 56.1 37.4 56 C 37.5 55.8 37.5 55.7 37.5 55.7 C 37.5 55.2 37.3 54.8 37.1 54.6 C 36.8 54.3 36.3 54.2 35.7 54.2 C 35.1 54.2 34.7 54.3 34.4 54.5 C 34.1 54.7 33.9 55.1 33.8 55.6 C 33.8 55.6 32.6 55.4 32.6 55.4 C 32.7 54.9 32.9 54.5 33.1 54.2 C 33.4 53.8 33.8 53.6 34.2 53.4 C 34.7 53.3 35.3 53.2 35.9 53.2 C 36.5 53.2 37 53.2 37.4 53.4 C 37.8 53.5 38.1 53.7 38.2 53.9 C 38.4 54.2 38.6 54.4 38.6 54.8 C 38.7 55 38.7 55.4 38.7 55.9 C 38.7 55.9 38.7 57.6 38.7 57.6 C 38.7 58.7 38.7 59.4 38.8 59.7 C 38.8 60 38.9 60.3 39.1 60.6 C 39.08 60.59 37.8 60.6 37.8 60.6 C 37.8 60.6 37.8 60.59 37.8 60.6 Z M 37.4 56.9 C 37 57.1 36.3 57.3 35.4 57.4 C 34.9 57.5 34.6 57.6 34.4 57.7 C 34.2 57.8 34 57.9 33.9 58.1 C 33.8 58.2 33.7 58.4 33.7 58.6 C 33.7 59 33.8 59.2 34.1 59.5 C 34.3 59.7 34.7 59.8 35.2 59.8 C 35.6 59.8 36.1 59.7 36.4 59.5 C 36.8 59.3 37.1 59 37.2 58.6 C 37.4 58.4 37.4 57.9 37.4 57.4 C 37.4 57.4 37.4 56.9 37.4 56.9 Z M 40.6 60.6 L 40.6 53.3 L 41.7 53.3 C 41.7 53.3 41.69 54.43 41.7 54.4 C 42 53.9 42.2 53.6 42.5 53.4 C 42.7 53.3 43 53.2 43.3 53.2 C 43.7 53.2 44.1 53.3 44.5 53.6 C 44.5 53.6 44.1 54.7 44.1 54.7 C 43.8 54.5 43.5 54.4 43.2 54.4 C 42.9 54.4 42.7 54.5 42.5 54.7 C 42.3 54.8 42.1 55.1 42 55.4 C 41.9 55.8 41.8 56.3 41.8 56.8 C 41.82 56.79 41.8 60.6 41.8 60.6 L 40.6 60.6 Z M 45.3 60.6 L 45.3 50.6 L 46.5 50.6 L 46.5 56.3 L 49.4 53.3 L 51 53.3 L 48.2 56 L 51.3 60.6 L 49.8 60.6 L 47.4 56.9 L 46.5 57.7 L 46.5 60.6 L 45.3 60.6 Z M 57.2 58.3 C 57.2 58.3 58.5 58.4 58.5 58.4 C 58.3 59.2 57.9 59.7 57.4 60.1 C 56.8 60.6 56.2 60.8 55.3 60.8 C 54.2 60.8 53.4 60.4 52.8 59.8 C 52.2 59.1 51.9 58.2 51.9 57 C 51.9 55.8 52.2 54.9 52.8 54.2 C 53.4 53.5 54.2 53.2 55.2 53.2 C 56.2 53.2 57 53.5 57.6 54.2 C 58.2 54.8 58.5 55.8 58.5 56.9 C 58.5 57 58.5 57.1 58.5 57.3 C 58.5 57.3 53.1 57.3 53.1 57.3 C 53.2 58.1 53.4 58.7 53.8 59.1 C 54.2 59.5 54.7 59.7 55.3 59.7 C 55.8 59.7 56.2 59.6 56.5 59.4 C 56.8 59.2 57 58.8 57.2 58.3 Z M 53.2 56.3 C 53.2 56.3 57.2 56.3 57.2 56.3 C 57.2 55.7 57 55.2 56.8 54.9 C 56.4 54.4 55.9 54.2 55.3 54.2 C 54.7 54.2 54.2 54.4 53.8 54.7 C 53.4 55.1 53.2 55.6 53.2 56.3 Z M 62.2 59.5 C 62.3 59.5 62.5 59.5 62.7 59.5 C 62.7 59.5 62.9 60.6 62.9 60.6 C 62.6 60.7 62.3 60.7 62 60.7 C 61.5 60.7 61.2 60.6 60.9 60.5 C 60.7 60.3 60.5 60.1 60.4 59.9 C 60.3 59.7 60.3 59.2 60.3 58.5 C 60.27 58.47 60.3 54.3 60.3 54.3 L 59.4 54.3 L 59.4 53.3 L 60.3 53.3 L 60.3 51.5 L 61.5 50.8 L 61.5 53.3 L 62.7 53.3 L 62.7 54.3 L 61.5 54.3 C 61.5 54.3 61.5 58.53 61.5 58.5 C 61.5 58.9 61.5 59.1 61.6 59.2 C 61.6 59.3 61.7 59.4 61.8 59.5 C 61.9 59.5 62 59.5 62.2 59.5 C 62.2 59.5 62.2 59.5 62.2 59.5 Z M 63.9 52 L 63.9 50.6 L 65.2 50.6 L 65.2 52 L 63.9 52 Z M 63.9 60.6 L 63.9 53.3 L 65.2 53.3 L 65.2 60.6 L 63.9 60.6 Z M 67 60.6 L 67 53.3 L 68.2 53.3 C 68.2 53.3 68.15 54.36 68.2 54.4 C 68.7 53.6 69.5 53.2 70.5 53.2 C 70.9 53.2 71.3 53.2 71.7 53.4 C 72 53.6 72.3 53.8 72.5 54 C 72.7 54.3 72.8 54.6 72.9 54.9 C 72.9 55.2 72.9 55.6 72.9 56.1 C 72.95 56.13 72.9 60.6 72.9 60.6 L 71.7 60.6 C 71.7 60.6 71.72 56.18 71.7 56.2 C 71.7 55.7 71.7 55.3 71.6 55.1 C 71.5 54.8 71.3 54.6 71.1 54.5 C 70.8 54.3 70.5 54.2 70.2 54.2 C 69.7 54.2 69.2 54.4 68.8 54.7 C 68.5 55.1 68.3 55.7 68.3 56.6 C 68.28 56.63 68.3 60.6 68.3 60.6 L 67 60.6 Z M 74.6 61.2 C 74.6 61.2 75.8 61.4 75.8 61.4 C 75.9 61.7 76 62 76.2 62.2 C 76.5 62.4 76.9 62.5 77.5 62.5 C 78 62.5 78.5 62.4 78.8 62.2 C 79.1 62 79.3 61.6 79.4 61.2 C 79.5 61 79.5 60.4 79.5 59.6 C 79 60.3 78.3 60.6 77.5 60.6 C 76.5 60.6 75.7 60.2 75.2 59.5 C 74.6 58.8 74.4 57.9 74.4 56.9 C 74.4 56.2 74.5 55.6 74.7 55 C 75 54.4 75.4 54 75.8 53.6 C 76.3 53.3 76.9 53.2 77.5 53.2 C 78.4 53.2 79.1 53.5 79.6 54.2 C 79.63 54.21 79.6 53.3 79.6 53.3 L 80.8 53.3 C 80.8 53.3 80.76 59.61 80.8 59.6 C 80.8 60.7 80.6 61.5 80.4 62 C 80.2 62.5 79.8 62.9 79.3 63.1 C 78.8 63.4 78.2 63.5 77.5 63.5 C 76.6 63.5 75.9 63.3 75.4 63 C 74.8 62.6 74.6 62 74.6 61.2 Z M 75.6 56.8 C 75.6 57.8 75.8 58.5 76.2 58.9 C 76.6 59.4 77 59.6 77.6 59.6 C 78.2 59.6 78.7 59.4 79 58.9 C 79.4 58.5 79.6 57.8 79.6 56.9 C 79.6 56 79.4 55.3 79 54.9 C 78.6 54.4 78.2 54.2 77.6 54.2 C 77 54.2 76.6 54.4 76.2 54.9 C 75.8 55.3 75.6 56 75.6 56.8 Z M 86.6 60.6 L 86.6 50.6 L 88.6 50.6 C 88.6 50.6 90.99 57.67 91 57.7 C 91.2 58.3 91.4 58.8 91.5 59.1 C 91.6 58.8 91.8 58.3 92 57.5 C 92 57.54 94.4 50.6 94.4 50.6 L 96.2 50.6 L 96.2 60.6 L 94.9 60.6 L 94.9 52.2 L 92 60.6 L 90.8 60.6 L 87.9 52.1 L 87.9 60.6 L 86.6 60.6 Z M 103.2 60.6 C 103 60.3 102.9 60 102.9 59.7 C 102.5 60.1 102 60.4 101.6 60.5 C 101.2 60.7 100.7 60.8 100.2 60.8 C 99.4 60.8 98.8 60.6 98.4 60.2 C 98 59.8 97.8 59.3 97.8 58.7 C 97.8 58.3 97.8 58 98 57.7 C 98.2 57.4 98.4 57.2 98.6 57 C 98.9 56.8 99.2 56.7 99.5 56.6 C 99.8 56.5 100.1 56.5 100.6 56.4 C 101.6 56.3 102.3 56.1 102.8 56 C 102.8 55.8 102.8 55.7 102.8 55.7 C 102.8 55.2 102.7 54.8 102.5 54.6 C 102.1 54.3 101.7 54.2 101.1 54.2 C 100.5 54.2 100.1 54.3 99.8 54.5 C 99.5 54.7 99.3 55.1 99.2 55.6 C 99.2 55.6 98 55.4 98 55.4 C 98.1 54.9 98.3 54.5 98.5 54.2 C 98.8 53.8 99.1 53.6 99.6 53.4 C 100.1 53.3 100.6 53.2 101.2 53.2 C 101.9 53.2 102.4 53.2 102.8 53.4 C 103.1 53.5 103.4 53.7 103.6 53.9 C 103.8 54.2 103.9 54.4 104 54.8 C 104 55 104 55.4 104 55.9 C 104 55.9 104 57.6 104 57.6 C 104 58.7 104.1 59.4 104.1 59.7 C 104.2 60 104.3 60.3 104.4 60.6 C 104.44 60.59 103.2 60.6 103.2 60.6 C 103.2 60.6 103.15 60.59 103.2 60.6 Z M 102.8 56.9 C 102.4 57.1 101.7 57.3 100.8 57.4 C 100.3 57.5 99.9 57.6 99.7 57.7 C 99.5 57.8 99.4 57.9 99.2 58.1 C 99.1 58.2 99.1 58.4 99.1 58.6 C 99.1 59 99.2 59.2 99.4 59.5 C 99.7 59.7 100.1 59.8 100.5 59.8 C 101 59.8 101.4 59.7 101.8 59.5 C 102.2 59.3 102.4 59 102.6 58.6 C 102.7 58.4 102.8 57.9 102.8 57.4 C 102.8 57.4 102.8 56.9 102.8 56.9 Z M 106 60.6 L 106 53.3 L 107.1 53.3 C 107.1 53.3 107.06 54.36 107.1 54.4 C 107.6 53.6 108.4 53.2 109.4 53.2 C 109.8 53.2 110.2 53.2 110.6 53.4 C 110.9 53.6 111.2 53.8 111.4 54 C 111.6 54.3 111.7 54.6 111.8 54.9 C 111.8 55.2 111.9 55.6 111.9 56.1 C 111.86 56.13 111.9 60.6 111.9 60.6 L 110.6 60.6 C 110.6 60.6 110.63 56.18 110.6 56.2 C 110.6 55.7 110.6 55.3 110.5 55.1 C 110.4 54.8 110.2 54.6 110 54.5 C 109.7 54.3 109.4 54.2 109.1 54.2 C 108.6 54.2 108.1 54.4 107.8 54.7 C 107.4 55.1 107.2 55.7 107.2 56.6 C 107.19 56.63 107.2 60.6 107.2 60.6 L 106 60.6 Z M 118.7 60.6 C 118.6 60.3 118.5 60 118.5 59.7 C 118 60.1 117.6 60.4 117.2 60.5 C 116.7 60.7 116.3 60.8 115.8 60.8 C 115 60.8 114.4 60.6 114 60.2 C 113.5 59.8 113.3 59.3 113.3 58.7 C 113.3 58.3 113.4 58 113.6 57.7 C 113.7 57.4 113.9 57.2 114.2 57 C 114.5 56.8 114.8 56.7 115.1 56.6 C 115.3 56.5 115.7 56.5 116.2 56.4 C 117.2 56.3 117.9 56.1 118.4 56 C 118.4 55.8 118.4 55.7 118.4 55.7 C 118.4 55.2 118.3 54.8 118 54.6 C 117.7 54.3 117.3 54.2 116.6 54.2 C 116.1 54.2 115.6 54.3 115.4 54.5 C 115.1 54.7 114.9 55.1 114.7 55.6 C 114.7 55.6 113.5 55.4 113.5 55.4 C 113.6 54.9 113.8 54.5 114.1 54.2 C 114.3 53.8 114.7 53.6 115.2 53.4 C 115.6 53.3 116.2 53.2 116.8 53.2 C 117.4 53.2 117.9 53.2 118.3 53.4 C 118.7 53.5 119 53.7 119.2 53.9 C 119.4 54.2 119.5 54.4 119.6 54.8 C 119.6 55 119.6 55.4 119.6 55.9 C 119.6 55.9 119.6 57.6 119.6 57.6 C 119.6 58.7 119.6 59.4 119.7 59.7 C 119.8 60 119.9 60.3 120 60.6 C 120.01 60.59 118.7 60.6 118.7 60.6 C 118.7 60.6 118.73 60.59 118.7 60.6 Z M 118.4 56.9 C 117.9 57.1 117.3 57.3 116.4 57.4 C 115.9 57.5 115.5 57.6 115.3 57.7 C 115.1 57.8 114.9 57.9 114.8 58.1 C 114.7 58.2 114.6 58.4 114.6 58.6 C 114.6 59 114.8 59.2 115 59.5 C 115.3 59.7 115.6 59.8 116.1 59.8 C 116.6 59.8 117 59.7 117.4 59.5 C 117.7 59.3 118 59 118.2 58.6 C 118.3 58.4 118.4 57.9 118.4 57.4 C 118.4 57.4 118.4 56.9 118.4 56.9 Z M 121.3 61.2 C 121.3 61.2 122.5 61.4 122.5 61.4 C 122.6 61.7 122.7 62 122.9 62.2 C 123.2 62.4 123.6 62.5 124.2 62.5 C 124.7 62.5 125.2 62.4 125.5 62.2 C 125.8 62 126 61.6 126.1 61.2 C 126.2 61 126.2 60.4 126.2 59.6 C 125.7 60.3 125 60.6 124.2 60.6 C 123.2 60.6 122.4 60.2 121.9 59.5 C 121.3 58.8 121.1 57.9 121.1 56.9 C 121.1 56.2 121.2 55.6 121.4 55 C 121.7 54.4 122 54 122.5 53.6 C 123 53.3 123.6 53.2 124.2 53.2 C 125.1 53.2 125.8 53.5 126.3 54.2 C 126.32 54.21 126.3 53.3 126.3 53.3 L 127.5 53.3 C 127.5 53.3 127.46 59.61 127.5 59.6 C 127.5 60.7 127.3 61.5 127.1 62 C 126.9 62.5 126.5 62.9 126 63.1 C 125.5 63.4 124.9 63.5 124.2 63.5 C 123.3 63.5 122.6 63.3 122.1 63 C 121.5 62.6 121.3 62 121.3 61.2 Z M 122.3 56.8 C 122.3 57.8 122.5 58.5 122.9 58.9 C 123.3 59.4 123.7 59.6 124.3 59.6 C 124.9 59.6 125.4 59.4 125.7 58.9 C 126.1 58.5 126.3 57.8 126.3 56.9 C 126.3 56 126.1 55.3 125.7 54.9 C 125.3 54.4 124.8 54.2 124.3 54.2 C 123.7 54.2 123.3 54.4 122.9 54.9 C 122.5 55.3 122.3 56 122.3 56.8 Z M 134.3 58.3 C 134.3 58.3 135.6 58.4 135.6 58.4 C 135.4 59.2 135 59.7 134.4 60.1 C 133.9 60.6 133.2 60.8 132.4 60.8 C 131.3 60.8 130.5 60.4 129.8 59.8 C 129.2 59.1 128.9 58.2 128.9 57 C 128.9 55.8 129.2 54.9 129.8 54.2 C 130.5 53.5 131.3 53.2 132.3 53.2 C 133.3 53.2 134.1 53.5 134.7 54.2 C 135.3 54.8 135.6 55.8 135.6 56.9 C 135.6 57 135.6 57.1 135.6 57.3 C 135.6 57.3 130.2 57.3 130.2 57.3 C 130.2 58.1 130.4 58.7 130.9 59.1 C 131.3 59.5 131.8 59.7 132.4 59.7 C 132.8 59.7 133.2 59.6 133.5 59.4 C 133.8 59.2 134.1 58.8 134.3 58.3 Z M 130.2 56.3 C 130.2 56.3 134.3 56.3 134.3 56.3 C 134.2 55.7 134.1 55.2 133.8 54.9 C 133.4 54.4 132.9 54.2 132.3 54.2 C 131.7 54.2 131.3 54.4 130.9 54.7 C 130.5 55.1 130.3 55.6 130.2 56.3 Z M 137.1 60.6 L 137.1 53.3 L 138.2 53.3 C 138.2 53.3 138.2 54.43 138.2 54.4 C 138.5 53.9 138.7 53.6 139 53.4 C 139.2 53.3 139.5 53.2 139.8 53.2 C 140.2 53.2 140.6 53.3 141 53.6 C 141 53.6 140.6 54.7 140.6 54.7 C 140.3 54.5 140 54.4 139.7 54.4 C 139.4 54.4 139.2 54.5 139 54.7 C 138.8 54.8 138.6 55.1 138.5 55.4 C 138.4 55.8 138.3 56.3 138.3 56.8 C 138.32 56.79 138.3 60.6 138.3 60.6 L 137.1 60.6 Z " stroke="none" fill="#000000"/>  </g>  <g id="Polygon121031">    <path d="M 1.1 43.8 L 1.1 33.9 L 3.1 33.9 L 3.1 42.1 L 8.1 42.1 L 8.1 43.8 L 1.1 43.8 Z M 12.9 43.8 L 12.9 41.8 L 8.8 41.8 L 8.8 40.1 L 13.2 33.7 L 14.8 33.7 L 14.8 40.1 L 16 40.1 L 16 41.8 L 14.8 41.8 L 14.8 43.8 L 12.9 43.8 Z M 12.9 40.1 L 12.9 36.7 L 10.6 40.1 L 12.9 40.1 Z M 21.3 43.8 L 21.3 33.8 L 23.3 33.8 C 23.3 33.8 25.63 40.87 25.6 40.9 C 25.9 41.5 26 42 26.1 42.4 C 26.2 42 26.4 41.5 26.6 40.7 C 26.65 40.74 29 33.8 29 33.8 L 30.8 33.8 L 30.8 43.8 L 29.6 43.8 L 29.6 35.4 L 26.6 43.8 L 25.4 43.8 L 22.5 35.3 L 22.5 43.8 L 21.3 43.8 Z M 37.8 43.8 C 37.7 43.5 37.6 43.2 37.5 42.9 C 37.1 43.3 36.7 43.6 36.2 43.7 C 35.8 43.9 35.4 44 34.9 44 C 34.1 44 33.5 43.8 33 43.4 C 32.6 43 32.4 42.5 32.4 41.9 C 32.4 41.5 32.5 41.2 32.6 40.9 C 32.8 40.6 33 40.4 33.3 40.2 C 33.5 40 33.8 39.9 34.2 39.8 C 34.4 39.7 34.8 39.7 35.3 39.6 C 36.2 39.5 37 39.3 37.4 39.2 C 37.5 39 37.5 38.9 37.5 38.9 C 37.5 38.4 37.3 38 37.1 37.8 C 36.8 37.5 36.3 37.4 35.7 37.4 C 35.1 37.4 34.7 37.5 34.4 37.7 C 34.1 37.9 33.9 38.3 33.8 38.8 C 33.8 38.8 32.6 38.6 32.6 38.6 C 32.7 38.1 32.9 37.7 33.1 37.4 C 33.4 37 33.8 36.8 34.2 36.6 C 34.7 36.5 35.3 36.4 35.9 36.4 C 36.5 36.4 37 36.4 37.4 36.6 C 37.8 36.7 38.1 36.9 38.2 37.1 C 38.4 37.4 38.6 37.6 38.6 38 C 38.7 38.2 38.7 38.6 38.7 39.1 C 38.7 39.1 38.7 40.8 38.7 40.8 C 38.7 41.9 38.7 42.6 38.8 42.9 C 38.8 43.2 38.9 43.5 39.1 43.8 C 39.08 43.79 37.8 43.8 37.8 43.8 C 37.8 43.8 37.8 43.79 37.8 43.8 Z M 37.4 40.1 C 37 40.3 36.3 40.5 35.4 40.6 C 34.9 40.7 34.6 40.8 34.4 40.9 C 34.2 41 34 41.1 33.9 41.3 C 33.8 41.4 33.7 41.6 33.7 41.8 C 33.7 42.2 33.8 42.4 34.1 42.7 C 34.3 42.9 34.7 43 35.2 43 C 35.6 43 36.1 42.9 36.4 42.7 C 36.8 42.5 37.1 42.2 37.2 41.8 C 37.4 41.6 37.4 41.1 37.4 40.6 C 37.4 40.6 37.4 40.1 37.4 40.1 Z M 40.6 43.8 L 40.6 36.5 L 41.7 36.5 C 41.7 36.5 41.69 37.63 41.7 37.6 C 42 37.1 42.2 36.8 42.5 36.6 C 42.7 36.5 43 36.4 43.3 36.4 C 43.7 36.4 44.1 36.5 44.5 36.8 C 44.5 36.8 44.1 37.9 44.1 37.9 C 43.8 37.7 43.5 37.6 43.2 37.6 C 42.9 37.6 42.7 37.7 42.5 37.9 C 42.3 38 42.1 38.3 42 38.6 C 41.9 39 41.8 39.5 41.8 40 C 41.82 39.99 41.8 43.8 41.8 43.8 L 40.6 43.8 Z M 45.3 43.8 L 45.3 33.8 L 46.5 33.8 L 46.5 39.5 L 49.4 36.5 L 51 36.5 L 48.2 39.2 L 51.3 43.8 L 49.8 43.8 L 47.4 40.1 L 46.5 40.9 L 46.5 43.8 L 45.3 43.8 Z M 57.2 41.5 C 57.2 41.5 58.5 41.6 58.5 41.6 C 58.3 42.4 57.9 42.9 57.4 43.3 C 56.8 43.8 56.2 44 55.3 44 C 54.2 44 53.4 43.6 52.8 43 C 52.2 42.3 51.9 41.4 51.9 40.2 C 51.9 39 52.2 38.1 52.8 37.4 C 53.4 36.7 54.2 36.4 55.2 36.4 C 56.2 36.4 57 36.7 57.6 37.4 C 58.2 38 58.5 39 58.5 40.1 C 58.5 40.2 58.5 40.3 58.5 40.5 C 58.5 40.5 53.1 40.5 53.1 40.5 C 53.2 41.3 53.4 41.9 53.8 42.3 C 54.2 42.7 54.7 42.9 55.3 42.9 C 55.8 42.9 56.2 42.8 56.5 42.6 C 56.8 42.4 57 42 57.2 41.5 Z M 53.2 39.5 C 53.2 39.5 57.2 39.5 57.2 39.5 C 57.2 38.9 57 38.4 56.8 38.1 C 56.4 37.6 55.9 37.4 55.3 37.4 C 54.7 37.4 54.2 37.6 53.8 37.9 C 53.4 38.3 53.2 38.8 53.2 39.5 Z M 62.2 42.7 C 62.3 42.7 62.5 42.7 62.7 42.7 C 62.7 42.7 62.9 43.8 62.9 43.8 C 62.6 43.9 62.3 43.9 62 43.9 C 61.5 43.9 61.2 43.8 60.9 43.7 C 60.7 43.5 60.5 43.3 60.4 43.1 C 60.3 42.9 60.3 42.4 60.3 41.7 C 60.27 41.67 60.3 37.5 60.3 37.5 L 59.4 37.5 L 59.4 36.5 L 60.3 36.5 L 60.3 34.7 L 61.5 34 L 61.5 36.5 L 62.7 36.5 L 62.7 37.5 L 61.5 37.5 C 61.5 37.5 61.5 41.73 61.5 41.7 C 61.5 42.1 61.5 42.3 61.6 42.4 C 61.6 42.5 61.7 42.6 61.8 42.7 C 61.9 42.7 62 42.7 62.2 42.7 C 62.2 42.7 62.2 42.7 62.2 42.7 Z M 63.9 35.2 L 63.9 33.8 L 65.2 33.8 L 65.2 35.2 L 63.9 35.2 Z M 63.9 43.8 L 63.9 36.5 L 65.2 36.5 L 65.2 43.8 L 63.9 43.8 Z M 67 43.8 L 67 36.5 L 68.2 36.5 C 68.2 36.5 68.15 37.56 68.2 37.6 C 68.7 36.8 69.5 36.4 70.5 36.4 C 70.9 36.4 71.3 36.4 71.7 36.6 C 72 36.8 72.3 37 72.5 37.2 C 72.7 37.5 72.8 37.8 72.9 38.1 C 72.9 38.4 72.9 38.8 72.9 39.3 C 72.95 39.33 72.9 43.8 72.9 43.8 L 71.7 43.8 C 71.7 43.8 71.72 39.38 71.7 39.4 C 71.7 38.9 71.7 38.5 71.6 38.3 C 71.5 38 71.3 37.8 71.1 37.7 C 70.8 37.5 70.5 37.4 70.2 37.4 C 69.7 37.4 69.2 37.6 68.8 37.9 C 68.5 38.3 68.3 38.9 68.3 39.8 C 68.28 39.83 68.3 43.8 68.3 43.8 L 67 43.8 Z M 74.6 44.4 C 74.6 44.4 75.8 44.6 75.8 44.6 C 75.9 44.9 76 45.2 76.2 45.4 C 76.5 45.6 76.9 45.7 77.5 45.7 C 78 45.7 78.5 45.6 78.8 45.4 C 79.1 45.2 79.3 44.8 79.4 44.4 C 79.5 44.2 79.5 43.6 79.5 42.8 C 79 43.5 78.3 43.8 77.5 43.8 C 76.5 43.8 75.7 43.4 75.2 42.7 C 74.6 42 74.4 41.1 74.4 40.1 C 74.4 39.4 74.5 38.8 74.7 38.2 C 75 37.6 75.4 37.2 75.8 36.8 C 76.3 36.5 76.9 36.4 77.5 36.4 C 78.4 36.4 79.1 36.7 79.6 37.4 C 79.63 37.41 79.6 36.5 79.6 36.5 L 80.8 36.5 C 80.8 36.5 80.76 42.81 80.8 42.8 C 80.8 43.9 80.6 44.7 80.4 45.2 C 80.2 45.7 79.8 46.1 79.3 46.3 C 78.8 46.6 78.2 46.7 77.5 46.7 C 76.6 46.7 75.9 46.5 75.4 46.2 C 74.8 45.8 74.6 45.2 74.6 44.4 Z M 75.6 40 C 75.6 41 75.8 41.7 76.2 42.1 C 76.6 42.6 77 42.8 77.6 42.8 C 78.2 42.8 78.7 42.6 79 42.1 C 79.4 41.7 79.6 41 79.6 40.1 C 79.6 39.2 79.4 38.5 79 38.1 C 78.6 37.6 78.2 37.4 77.6 37.4 C 77 37.4 76.6 37.6 76.2 38.1 C 75.8 38.5 75.6 39.2 75.6 40 Z M 86.7 43.8 L 86.7 33.8 L 93.9 33.8 L 93.9 35 L 88 35 L 88 38 L 93.6 38 L 93.6 39.2 L 88 39.2 L 88 42.6 L 94.2 42.6 L 94.2 43.8 L 86.7 43.8 Z M 95 43.8 L 97.7 40 L 95.2 36.5 L 96.8 36.5 C 96.8 36.5 97.88 38.23 97.9 38.2 C 98.1 38.6 98.3 38.8 98.4 39 C 98.6 38.7 98.8 38.5 98.9 38.2 C 98.94 38.25 100.2 36.5 100.2 36.5 L 101.6 36.5 L 99.1 40 L 101.8 43.8 L 100.3 43.8 L 98.8 41.5 L 98.4 40.9 L 96.5 43.8 L 95 43.8 Z M 107.8 41.5 C 107.8 41.5 109.1 41.6 109.1 41.6 C 108.9 42.4 108.5 42.9 108 43.3 C 107.4 43.8 106.7 44 105.9 44 C 104.8 44 104 43.6 103.4 43 C 102.7 42.3 102.4 41.4 102.4 40.2 C 102.4 39 102.8 38.1 103.4 37.4 C 104 36.7 104.8 36.4 105.8 36.4 C 106.8 36.4 107.6 36.7 108.2 37.4 C 108.8 38 109.1 39 109.1 40.1 C 109.1 40.2 109.1 40.3 109.1 40.5 C 109.1 40.5 103.7 40.5 103.7 40.5 C 103.8 41.3 104 41.9 104.4 42.3 C 104.8 42.7 105.3 42.9 105.9 42.9 C 106.4 42.9 106.7 42.8 107.1 42.6 C 107.4 42.4 107.6 42 107.8 41.5 Z M 103.8 39.5 C 103.8 39.5 107.8 39.5 107.8 39.5 C 107.8 38.9 107.6 38.4 107.4 38.1 C 107 37.6 106.5 37.4 105.8 37.4 C 105.3 37.4 104.8 37.6 104.4 37.9 C 104 38.3 103.8 38.8 103.8 39.5 Z M 115.4 41.1 C 115.4 41.1 116.6 41.3 116.6 41.3 C 116.4 42.1 116.1 42.8 115.6 43.2 C 115 43.7 114.4 44 113.6 44 C 112.6 44 111.8 43.6 111.2 43 C 110.6 42.3 110.3 41.4 110.3 40.2 C 110.3 39.4 110.4 38.7 110.6 38.1 C 110.9 37.5 111.3 37.1 111.8 36.8 C 112.4 36.5 112.9 36.4 113.6 36.4 C 114.4 36.4 115 36.6 115.5 37 C 116 37.4 116.3 37.9 116.5 38.7 C 116.5 38.7 115.3 38.9 115.3 38.9 C 115.2 38.4 115 38 114.7 37.7 C 114.4 37.5 114 37.4 113.6 37.4 C 113 37.4 112.5 37.6 112.1 38 C 111.7 38.5 111.5 39.2 111.5 40.2 C 111.5 41.1 111.7 41.8 112.1 42.3 C 112.5 42.7 112.9 42.9 113.5 42.9 C 114 42.9 114.4 42.8 114.8 42.5 C 115.1 42.2 115.3 41.7 115.4 41.1 Z M 122.4 43.8 C 122.4 43.8 122.39 42.73 122.4 42.7 C 121.8 43.5 121.1 44 120.1 44 C 119.7 44 119.3 43.9 118.9 43.7 C 118.5 43.5 118.2 43.3 118.1 43.1 C 117.9 42.8 117.8 42.5 117.7 42.2 C 117.6 41.9 117.6 41.6 117.6 41 C 117.61 41.03 117.6 36.5 117.6 36.5 L 118.8 36.5 C 118.8 36.5 118.84 40.56 118.8 40.6 C 118.8 41.2 118.9 41.6 118.9 41.9 C 119 42.2 119.2 42.4 119.4 42.6 C 119.7 42.8 120 42.9 120.3 42.9 C 120.7 42.9 121 42.8 121.4 42.6 C 121.7 42.4 121.9 42.2 122.1 41.8 C 122.2 41.5 122.3 41 122.3 40.4 C 122.26 40.42 122.3 36.5 122.3 36.5 L 123.5 36.5 L 123.5 43.8 L 122.4 43.8 Z M 127.6 42.7 C 127.7 42.7 127.9 42.7 128.1 42.7 C 128.1 42.7 128.3 43.8 128.3 43.8 C 127.9 43.9 127.6 43.9 127.4 43.9 C 126.9 43.9 126.6 43.8 126.3 43.7 C 126.1 43.5 125.9 43.3 125.8 43.1 C 125.7 42.9 125.6 42.4 125.6 41.7 C 125.64 41.67 125.6 37.5 125.6 37.5 L 124.7 37.5 L 124.7 36.5 L 125.6 36.5 L 125.6 34.7 L 126.9 34 L 126.9 36.5 L 128.1 36.5 L 128.1 37.5 L 126.9 37.5 C 126.9 37.5 126.87 41.73 126.9 41.7 C 126.9 42.1 126.9 42.3 126.9 42.4 C 127 42.5 127 42.6 127.1 42.7 C 127.2 42.7 127.4 42.7 127.6 42.7 C 127.6 42.7 127.6 42.7 127.6 42.7 Z M 129.3 35.2 L 129.3 33.8 L 130.5 33.8 L 130.5 35.2 L 129.3 35.2 Z M 129.3 43.8 L 129.3 36.5 L 130.5 36.5 L 130.5 43.8 L 129.3 43.8 Z M 134.4 43.8 L 131.7 36.5 L 133 36.5 C 133 36.5 134.53 40.88 134.5 40.9 C 134.7 41.3 134.9 41.8 135 42.3 C 135.1 42 135.3 41.5 135.5 41 C 135.45 40.96 137.1 36.5 137.1 36.5 L 138.3 36.5 L 135.6 43.8 L 134.4 43.8 Z M 144.4 41.5 C 144.4 41.5 145.7 41.6 145.7 41.6 C 145.5 42.4 145.1 42.9 144.5 43.3 C 144 43.8 143.3 44 142.5 44 C 141.4 44 140.6 43.6 139.9 43 C 139.3 42.3 139 41.4 139 40.2 C 139 39 139.3 38.1 140 37.4 C 140.6 36.7 141.4 36.4 142.4 36.4 C 143.4 36.4 144.2 36.7 144.8 37.4 C 145.4 38 145.7 39 145.7 40.1 C 145.7 40.2 145.7 40.3 145.7 40.5 C 145.7 40.5 140.3 40.5 140.3 40.5 C 140.3 41.3 140.6 41.9 141 42.3 C 141.4 42.7 141.9 42.9 142.5 42.9 C 142.9 42.9 143.3 42.8 143.6 42.6 C 143.9 42.4 144.2 42 144.4 41.5 Z M 140.3 39.5 C 140.3 39.5 144.4 39.5 144.4 39.5 C 144.3 38.9 144.2 38.4 143.9 38.1 C 143.5 37.6 143 37.4 142.4 37.4 C 141.8 37.4 141.4 37.6 141 37.9 C 140.6 38.3 140.4 38.8 140.3 39.5 Z " stroke="none" fill="#000000"/>  </g>  <g id="Polygon121030">    <path d="M 1.1 27 L 1.1 17.1 L 3.1 17.1 L 3.1 25.3 L 8.1 25.3 L 8.1 27 L 1.1 27 Z M 12.9 27 L 12.9 25 L 8.8 25 L 8.8 23.3 L 13.2 16.9 L 14.8 16.9 L 14.8 23.3 L 16 23.3 L 16 25 L 14.8 25 L 14.8 27 L 12.9 27 Z M 12.9 23.3 L 12.9 19.9 L 10.6 23.3 L 12.9 23.3 Z M 20.9 23.8 C 20.9 23.8 22.1 23.7 22.1 23.7 C 22.2 24.2 22.3 24.6 22.5 24.9 C 22.7 25.2 23.1 25.5 23.5 25.7 C 24 25.9 24.5 26 25.1 26 C 25.6 26 26 25.9 26.4 25.7 C 26.8 25.6 27.1 25.4 27.3 25.1 C 27.5 24.9 27.6 24.6 27.6 24.3 C 27.6 24 27.5 23.7 27.3 23.4 C 27.1 23.2 26.8 23 26.4 22.9 C 26.1 22.8 25.5 22.6 24.6 22.4 C 23.7 22.1 23 21.9 22.7 21.7 C 22.2 21.5 21.8 21.2 21.6 20.8 C 21.4 20.4 21.2 20 21.2 19.6 C 21.2 19.1 21.4 18.6 21.7 18.1 C 22 17.7 22.4 17.4 22.9 17.1 C 23.5 16.9 24.1 16.8 24.8 16.8 C 25.5 16.8 26.2 16.9 26.7 17.2 C 27.3 17.4 27.7 17.8 28 18.2 C 28.3 18.7 28.5 19.2 28.5 19.8 C 28.5 19.8 27.3 19.9 27.3 19.9 C 27.2 19.3 27 18.8 26.6 18.5 C 26.2 18.1 25.6 18 24.8 18 C 24 18 23.4 18.1 23.1 18.4 C 22.7 18.7 22.5 19.1 22.5 19.5 C 22.5 19.8 22.6 20.1 22.9 20.4 C 23.2 20.6 23.8 20.8 24.9 21.1 C 26 21.3 26.7 21.5 27.1 21.7 C 27.7 22 28.1 22.3 28.4 22.7 C 28.7 23.1 28.8 23.6 28.8 24.2 C 28.8 24.7 28.7 25.2 28.4 25.7 C 28.1 26.1 27.6 26.5 27.1 26.8 C 26.5 27 25.8 27.2 25.1 27.2 C 24.2 27.2 23.5 27 22.8 26.8 C 22.2 26.5 21.8 26.1 21.4 25.6 C 21.1 25 20.9 24.4 20.9 23.8 Z M 35.5 27 C 35.3 26.7 35.3 26.4 35.2 26.1 C 34.8 26.5 34.3 26.8 33.9 26.9 C 33.5 27.1 33 27.2 32.6 27.2 C 31.8 27.2 31.1 27 30.7 26.6 C 30.3 26.2 30.1 25.7 30.1 25.1 C 30.1 24.7 30.2 24.4 30.3 24.1 C 30.5 23.8 30.7 23.6 30.9 23.4 C 31.2 23.2 31.5 23.1 31.8 23 C 32.1 22.9 32.4 22.9 32.9 22.8 C 33.9 22.7 34.7 22.5 35.1 22.4 C 35.1 22.2 35.1 22.1 35.1 22.1 C 35.1 21.6 35 21.2 34.8 21 C 34.5 20.7 34 20.6 33.4 20.6 C 32.8 20.6 32.4 20.7 32.1 20.9 C 31.8 21.1 31.6 21.5 31.5 22 C 31.5 22 30.3 21.8 30.3 21.8 C 30.4 21.3 30.6 20.9 30.8 20.6 C 31.1 20.2 31.4 20 31.9 19.8 C 32.4 19.7 32.9 19.6 33.6 19.6 C 34.2 19.6 34.7 19.6 35.1 19.8 C 35.5 19.9 35.7 20.1 35.9 20.3 C 36.1 20.6 36.2 20.8 36.3 21.2 C 36.3 21.4 36.4 21.8 36.4 22.3 C 36.4 22.3 36.4 24 36.4 24 C 36.4 25.1 36.4 25.8 36.4 26.1 C 36.5 26.4 36.6 26.7 36.8 27 C 36.76 26.99 35.5 27 35.5 27 C 35.5 27 35.47 26.99 35.5 27 Z M 35.1 23.3 C 34.7 23.5 34 23.7 33.1 23.8 C 32.6 23.9 32.2 24 32 24.1 C 31.8 24.2 31.7 24.3 31.6 24.5 C 31.4 24.6 31.4 24.8 31.4 25 C 31.4 25.4 31.5 25.6 31.8 25.9 C 32 26.1 32.4 26.2 32.8 26.2 C 33.3 26.2 33.7 26.1 34.1 25.9 C 34.5 25.7 34.8 25.4 34.9 25 C 35.1 24.8 35.1 24.3 35.1 23.8 C 35.1 23.8 35.1 23.3 35.1 23.3 Z M 38.2 27 L 38.2 17 L 39.5 17 L 39.5 27 L 38.2 27 Z M 46.4 24.7 C 46.4 24.7 47.6 24.8 47.6 24.8 C 47.4 25.6 47.1 26.1 46.5 26.5 C 46 27 45.3 27.2 44.4 27.2 C 43.4 27.2 42.5 26.8 41.9 26.2 C 41.3 25.5 41 24.6 41 23.4 C 41 22.2 41.3 21.3 41.9 20.6 C 42.5 19.9 43.4 19.6 44.4 19.6 C 45.3 19.6 46.1 19.9 46.7 20.6 C 47.4 21.2 47.7 22.2 47.7 23.3 C 47.7 23.4 47.7 23.5 47.7 23.7 C 47.7 23.7 42.2 23.7 42.2 23.7 C 42.3 24.5 42.5 25.1 42.9 25.5 C 43.3 25.9 43.8 26.1 44.4 26.1 C 44.9 26.1 45.3 26 45.6 25.8 C 45.9 25.6 46.2 25.2 46.4 24.7 Z M 42.3 22.7 C 42.3 22.7 46.4 22.7 46.4 22.7 C 46.3 22.1 46.2 21.6 45.9 21.3 C 45.5 20.8 45 20.6 44.4 20.6 C 43.8 20.6 43.3 20.8 43 21.1 C 42.6 21.5 42.4 22 42.3 22.7 Z M 48.7 24.8 C 48.7 24.8 49.9 24.6 49.9 24.6 C 50 25.1 50.2 25.5 50.5 25.8 C 50.8 26 51.2 26.1 51.8 26.1 C 52.3 26.1 52.8 26 53 25.8 C 53.3 25.6 53.4 25.3 53.4 25 C 53.4 24.7 53.3 24.5 53.1 24.3 C 52.9 24.2 52.5 24.1 51.8 23.9 C 50.9 23.7 50.3 23.5 49.9 23.3 C 49.6 23.2 49.3 22.9 49.2 22.6 C 49 22.3 48.9 22 48.9 21.7 C 48.9 21.3 49 21 49.1 20.8 C 49.3 20.5 49.5 20.3 49.7 20.1 C 49.9 19.9 50.2 19.8 50.5 19.7 C 50.8 19.6 51.2 19.6 51.6 19.6 C 52.1 19.6 52.6 19.7 53.1 19.8 C 53.5 20 53.8 20.2 54 20.5 C 54.2 20.8 54.4 21.1 54.4 21.6 C 54.4 21.6 53.2 21.8 53.2 21.8 C 53.2 21.4 53 21.1 52.8 20.9 C 52.5 20.7 52.1 20.6 51.6 20.6 C 51.1 20.6 50.7 20.7 50.4 20.9 C 50.2 21 50.1 21.3 50.1 21.5 C 50.1 21.7 50.1 21.8 50.2 21.9 C 50.3 22.1 50.5 22.2 50.7 22.3 C 50.8 22.3 51.2 22.4 51.8 22.6 C 52.7 22.8 53.3 23 53.6 23.2 C 53.9 23.3 54.2 23.5 54.4 23.8 C 54.6 24.1 54.7 24.4 54.7 24.9 C 54.7 25.3 54.6 25.7 54.3 26 C 54.1 26.4 53.8 26.7 53.3 26.9 C 52.9 27.1 52.4 27.2 51.8 27.2 C 50.8 27.2 50.1 27 49.6 26.6 C 49.1 26.2 48.8 25.6 48.7 24.8 Z M 60.2 27 L 60.2 17 L 67.5 17 L 67.5 18.2 L 61.6 18.2 L 61.6 21.2 L 67.1 21.2 L 67.1 22.4 L 61.6 22.4 L 61.6 25.8 L 67.7 25.8 L 67.7 27 L 60.2 27 Z M 68.6 27 L 71.2 23.2 L 68.8 19.7 L 70.3 19.7 C 70.3 19.7 71.43 21.43 71.4 21.4 C 71.6 21.8 71.8 22 71.9 22.2 C 72.1 21.9 72.3 21.7 72.5 21.4 C 72.49 21.45 73.7 19.7 73.7 19.7 L 75.2 19.7 L 72.7 23.2 L 75.4 27 L 73.9 27 L 72.4 24.7 L 72 24.1 L 70.1 27 L 68.6 27 Z M 81.4 24.7 C 81.4 24.7 82.6 24.8 82.6 24.8 C 82.4 25.6 82.1 26.1 81.5 26.5 C 81 27 80.3 27.2 79.4 27.2 C 78.4 27.2 77.5 26.8 76.9 26.2 C 76.3 25.5 76 24.6 76 23.4 C 76 22.2 76.3 21.3 76.9 20.6 C 77.6 19.9 78.4 19.6 79.4 19.6 C 80.3 19.6 81.1 19.9 81.8 20.6 C 82.4 21.2 82.7 22.2 82.7 23.3 C 82.7 23.4 82.7 23.5 82.7 23.7 C 82.7 23.7 77.3 23.7 77.3 23.7 C 77.3 24.5 77.5 25.1 77.9 25.5 C 78.3 25.9 78.8 26.1 79.5 26.1 C 79.9 26.1 80.3 26 80.6 25.8 C 80.9 25.6 81.2 25.2 81.4 24.7 Z M 77.3 22.7 C 77.3 22.7 81.4 22.7 81.4 22.7 C 81.3 22.1 81.2 21.6 80.9 21.3 C 80.5 20.8 80 20.6 79.4 20.6 C 78.8 20.6 78.4 20.8 78 21.1 C 77.6 21.5 77.4 22 77.3 22.7 Z M 88.9 24.3 C 88.9 24.3 90.1 24.5 90.1 24.5 C 90 25.3 89.7 26 89.1 26.4 C 88.6 26.9 87.9 27.2 87.1 27.2 C 86.1 27.2 85.3 26.8 84.7 26.2 C 84.1 25.5 83.8 24.6 83.8 23.4 C 83.8 22.6 83.9 21.9 84.2 21.3 C 84.5 20.7 84.9 20.3 85.4 20 C 85.9 19.7 86.5 19.6 87.1 19.6 C 87.9 19.6 88.6 19.8 89.1 20.2 C 89.6 20.6 89.9 21.1 90 21.9 C 90 21.9 88.8 22 88.8 22 C 88.7 21.6 88.5 21.2 88.2 20.9 C 87.9 20.7 87.6 20.6 87.2 20.6 C 86.5 20.6 86 20.8 85.7 21.2 C 85.3 21.7 85.1 22.4 85.1 23.4 C 85.1 24.3 85.3 25 85.6 25.5 C 86 25.9 86.5 26.1 87.1 26.1 C 87.6 26.1 88 26 88.3 25.7 C 88.6 25.4 88.8 24.9 88.9 24.3 Z M 95.9 27 C 95.9 27 95.94 25.93 95.9 25.9 C 95.4 26.7 94.6 27.2 93.6 27.2 C 93.2 27.2 92.8 27.1 92.4 26.9 C 92.1 26.7 91.8 26.5 91.6 26.3 C 91.4 26 91.3 25.7 91.2 25.4 C 91.2 25.1 91.2 24.8 91.2 24.2 C 91.16 24.23 91.2 19.7 91.2 19.7 L 92.4 19.7 C 92.4 19.7 92.39 23.76 92.4 23.8 C 92.4 24.4 92.4 24.8 92.5 25.1 C 92.5 25.4 92.7 25.6 93 25.8 C 93.2 26 93.5 26.1 93.9 26.1 C 94.3 26.1 94.6 26 94.9 25.8 C 95.2 25.6 95.5 25.4 95.6 25 C 95.7 24.7 95.8 24.2 95.8 23.6 C 95.81 23.62 95.8 19.7 95.8 19.7 L 97 19.7 L 97 27 L 95.9 27 Z M 101.1 25.9 C 101.3 25.9 101.4 25.9 101.7 25.9 C 101.7 25.9 101.8 27 101.8 27 C 101.5 27.1 101.2 27.1 100.9 27.1 C 100.5 27.1 100.1 27 99.9 26.9 C 99.6 26.7 99.4 26.5 99.3 26.3 C 99.2 26.1 99.2 25.6 99.2 24.9 C 99.2 24.87 99.2 20.7 99.2 20.7 L 98.3 20.7 L 98.3 19.7 L 99.2 19.7 L 99.2 17.9 L 100.4 17.2 L 100.4 19.7 L 101.7 19.7 L 101.7 20.7 L 100.4 20.7 C 100.4 20.7 100.42 24.93 100.4 24.9 C 100.4 25.3 100.4 25.5 100.5 25.6 C 100.5 25.7 100.6 25.8 100.7 25.9 C 100.8 25.9 100.9 25.9 101.1 25.9 C 101.1 25.9 101.1 25.9 101.1 25.9 Z M 102.9 18.4 L 102.9 17 L 104.1 17 L 104.1 18.4 L 102.9 18.4 Z M 102.9 27 L 102.9 19.7 L 104.1 19.7 L 104.1 27 L 102.9 27 Z M 108 27 L 105.2 19.7 L 106.5 19.7 C 106.5 19.7 108.08 24.08 108.1 24.1 C 108.3 24.5 108.4 25 108.5 25.5 C 108.7 25.2 108.8 24.7 109 24.2 C 109.01 24.16 110.6 19.7 110.6 19.7 L 111.9 19.7 L 109.1 27 L 108 27 Z M 117.9 24.7 C 117.9 24.7 119.2 24.8 119.2 24.8 C 119 25.6 118.6 26.1 118.1 26.5 C 117.6 27 116.9 27.2 116 27.2 C 115 27.2 114.1 26.8 113.5 26.2 C 112.9 25.5 112.6 24.6 112.6 23.4 C 112.6 22.2 112.9 21.3 113.5 20.6 C 114.1 19.9 114.9 19.6 116 19.6 C 116.9 19.6 117.7 19.9 118.3 20.6 C 118.9 21.2 119.3 22.2 119.3 23.3 C 119.3 23.4 119.3 23.5 119.2 23.7 C 119.2 23.7 113.8 23.7 113.8 23.7 C 113.9 24.5 114.1 25.1 114.5 25.5 C 114.9 25.9 115.4 26.1 116 26.1 C 116.5 26.1 116.9 26 117.2 25.8 C 117.5 25.6 117.8 25.2 117.9 24.7 Z M 113.9 22.7 C 113.9 22.7 118 22.7 118 22.7 C 117.9 22.1 117.7 21.6 117.5 21.3 C 117.1 20.8 116.6 20.6 116 20.6 C 115.4 20.6 114.9 20.8 114.5 21.1 C 114.2 21.5 113.9 22 113.9 22.7 Z " stroke="none" fill="#000000"/>  </g>  <g id="Polygon121029">    <path d="M 1.1 10.2 L 1.1 0.3 L 3.1 0.3 L 3.1 8.5 L 8.1 8.5 L 8.1 10.2 L 1.1 10.2 Z M 9.1 7.5 C 9.1 7.5 10.9 7.3 10.9 7.3 C 11 7.8 11.2 8.1 11.4 8.4 C 11.7 8.6 12 8.8 12.4 8.8 C 12.8 8.8 13.1 8.6 13.4 8.3 C 13.6 8 13.8 7.6 13.8 7.1 C 13.8 6.6 13.6 6.2 13.4 6 C 13.1 5.7 12.8 5.5 12.4 5.5 C 12.2 5.5 11.9 5.6 11.5 5.7 C 11.5 5.7 11.8 4.1 11.8 4.1 C 12.3 4.1 12.7 4 12.9 3.8 C 13.2 3.5 13.4 3.2 13.4 2.8 C 13.4 2.5 13.3 2.2 13.1 2 C 12.9 1.8 12.6 1.7 12.3 1.7 C 11.9 1.7 11.6 1.8 11.4 2.1 C 11.2 2.3 11 2.6 11 3 C 11 3 9.2 2.7 9.2 2.7 C 9.3 2.1 9.5 1.7 9.8 1.3 C 10 0.9 10.4 0.6 10.8 0.4 C 11.3 0.2 11.8 0.1 12.3 0.1 C 13.3 0.1 14 0.4 14.6 1 C 15.1 1.5 15.3 2.1 15.3 2.7 C 15.3 3.6 14.8 4.3 13.8 4.8 C 14.4 4.9 14.9 5.2 15.2 5.6 C 15.6 6.1 15.7 6.6 15.7 7.2 C 15.7 8.1 15.4 8.8 14.8 9.4 C 14.1 10.1 13.3 10.4 12.4 10.4 C 11.5 10.4 10.7 10.1 10.1 9.6 C 9.5 9.1 9.2 8.4 9.1 7.5 Z M 21.3 10.2 L 21.3 0.2 L 23.3 0.2 C 23.3 0.2 25.63 7.27 25.6 7.3 C 25.9 7.9 26 8.4 26.1 8.8 C 26.2 8.4 26.4 7.9 26.6 7.1 C 26.65 7.14 29 0.2 29 0.2 L 30.8 0.2 L 30.8 10.2 L 29.6 10.2 L 29.6 1.8 L 26.6 10.2 L 25.4 10.2 L 22.5 1.7 L 22.5 10.2 L 21.3 10.2 Z M 37.6 10.2 C 37.6 10.2 37.57 9.13 37.6 9.1 C 37 9.9 36.2 10.4 35.3 10.4 C 34.8 10.4 34.4 10.3 34.1 10.1 C 33.7 9.9 33.4 9.7 33.2 9.5 C 33.1 9.2 32.9 8.9 32.9 8.6 C 32.8 8.3 32.8 8 32.8 7.4 C 32.79 7.43 32.8 2.9 32.8 2.9 L 34 2.9 C 34 2.9 34.02 6.96 34 7 C 34 7.6 34 8 34.1 8.3 C 34.2 8.6 34.3 8.8 34.6 9 C 34.8 9.2 35.1 9.3 35.5 9.3 C 35.9 9.3 36.2 9.2 36.6 9 C 36.9 8.8 37.1 8.6 37.2 8.2 C 37.4 7.9 37.4 7.4 37.4 6.8 C 37.44 6.82 37.4 2.9 37.4 2.9 L 38.7 2.9 L 38.7 10.2 L 37.6 10.2 Z M 40.6 10.2 L 40.6 0.2 L 41.8 0.2 L 41.8 10.2 L 40.6 10.2 Z M 45.9 9.1 C 46 9.1 46.2 9.1 46.4 9.1 C 46.4 9.1 46.6 10.2 46.6 10.2 C 46.2 10.3 45.9 10.3 45.6 10.3 C 45.2 10.3 44.9 10.2 44.6 10.1 C 44.4 9.9 44.2 9.7 44.1 9.5 C 44 9.3 43.9 8.8 43.9 8.1 C 43.93 8.07 43.9 3.9 43.9 3.9 L 43 3.9 L 43 2.9 L 43.9 2.9 L 43.9 1.1 L 45.2 0.4 L 45.2 2.9 L 46.4 2.9 L 46.4 3.9 L 45.2 3.9 C 45.2 3.9 45.16 8.13 45.2 8.1 C 45.2 8.5 45.2 8.7 45.2 8.8 C 45.3 8.9 45.3 9 45.4 9.1 C 45.5 9.1 45.7 9.1 45.9 9.1 C 45.9 9.1 45.9 9.1 45.9 9.1 Z M 47.6 1.6 L 47.6 0.2 L 48.8 0.2 L 48.8 1.6 L 47.6 1.6 Z M 47.6 10.2 L 47.6 2.9 L 48.8 2.9 L 48.8 10.2 L 47.6 10.2 Z M 50.2 7.2 L 50.2 5.9 L 54 5.9 L 54 7.2 L 50.2 7.2 Z M 62.7 6.7 C 62.7 6.7 64 7 64 7 C 63.7 8.1 63.2 8.9 62.5 9.5 C 61.8 10.1 60.9 10.4 59.9 10.4 C 58.8 10.4 57.9 10.1 57.2 9.7 C 56.5 9.3 56 8.6 55.7 7.8 C 55.3 7 55.1 6.1 55.1 5.1 C 55.1 4.1 55.3 3.2 55.7 2.4 C 56.1 1.6 56.7 1 57.4 0.6 C 58.2 0.2 59 0 59.9 0 C 60.9 0 61.7 0.3 62.4 0.8 C 63.1 1.3 63.6 2 63.8 2.9 C 63.8 2.9 62.5 3.2 62.5 3.2 C 62.3 2.5 62 2 61.5 1.6 C 61.1 1.3 60.5 1.1 59.8 1.1 C 59.1 1.1 58.4 1.3 57.9 1.7 C 57.4 2.1 57 2.6 56.8 3.2 C 56.6 3.8 56.5 4.4 56.5 5.1 C 56.5 6 56.6 6.7 56.9 7.3 C 57.1 8 57.5 8.4 58 8.8 C 58.6 9.1 59.1 9.2 59.7 9.2 C 60.5 9.2 61.1 9 61.6 8.6 C 62.1 8.2 62.5 7.5 62.7 6.7 Z M 65.5 10.2 L 65.5 0.2 L 66.7 0.2 C 66.7 0.2 66.71 3.77 66.7 3.8 C 67.3 3.1 68 2.8 68.9 2.8 C 69.4 2.8 69.9 2.9 70.3 3.1 C 70.7 3.3 71 3.6 71.1 4 C 71.3 4.3 71.4 4.9 71.4 5.6 C 71.39 5.59 71.4 10.2 71.4 10.2 L 70.2 10.2 C 70.2 10.2 70.16 5.59 70.2 5.6 C 70.2 5 70 4.5 69.8 4.2 C 69.5 4 69.1 3.8 68.6 3.8 C 68.3 3.8 67.9 3.9 67.6 4.1 C 67.3 4.3 67.1 4.6 66.9 4.9 C 66.8 5.2 66.7 5.7 66.7 6.2 C 66.71 6.22 66.7 10.2 66.7 10.2 L 65.5 10.2 Z M 78.3 10.2 C 78.1 9.9 78 9.6 78 9.3 C 77.5 9.7 77.1 10 76.7 10.1 C 76.3 10.3 75.8 10.4 75.3 10.4 C 74.5 10.4 73.9 10.2 73.5 9.8 C 73.1 9.4 72.9 8.9 72.9 8.3 C 72.9 7.9 72.9 7.6 73.1 7.3 C 73.3 7 73.5 6.8 73.7 6.6 C 74 6.4 74.3 6.3 74.6 6.2 C 74.9 6.1 75.2 6.1 75.7 6 C 76.7 5.9 77.4 5.7 77.9 5.6 C 77.9 5.4 77.9 5.3 77.9 5.3 C 77.9 4.8 77.8 4.4 77.6 4.2 C 77.2 3.9 76.8 3.8 76.2 3.8 C 75.6 3.8 75.2 3.9 74.9 4.1 C 74.6 4.3 74.4 4.7 74.3 5.2 C 74.3 5.2 73.1 5 73.1 5 C 73.2 4.5 73.4 4.1 73.6 3.8 C 73.9 3.4 74.2 3.2 74.7 3 C 75.2 2.9 75.7 2.8 76.3 2.8 C 77 2.8 77.5 2.8 77.8 3 C 78.2 3.1 78.5 3.3 78.7 3.5 C 78.9 3.8 79 4 79.1 4.4 C 79.1 4.6 79.1 5 79.1 5.5 C 79.1 5.5 79.1 7.2 79.1 7.2 C 79.1 8.3 79.2 9 79.2 9.3 C 79.3 9.6 79.4 9.9 79.5 10.2 C 79.54 10.19 78.3 10.2 78.3 10.2 C 78.3 10.2 78.25 10.19 78.3 10.2 Z M 77.9 6.5 C 77.5 6.7 76.8 6.9 75.9 7 C 75.4 7.1 75 7.2 74.8 7.3 C 74.6 7.4 74.4 7.5 74.3 7.7 C 74.2 7.8 74.2 8 74.2 8.2 C 74.2 8.6 74.3 8.8 74.5 9.1 C 74.8 9.3 75.1 9.4 75.6 9.4 C 76.1 9.4 76.5 9.3 76.9 9.1 C 77.3 8.9 77.5 8.6 77.7 8.2 C 77.8 8 77.9 7.5 77.9 7 C 77.9 7 77.9 6.5 77.9 6.5 Z M 81.1 10.2 L 81.1 2.9 L 82.2 2.9 C 82.2 2.9 82.16 3.96 82.2 4 C 82.7 3.2 83.5 2.8 84.5 2.8 C 84.9 2.8 85.3 2.8 85.7 3 C 86 3.2 86.3 3.4 86.5 3.6 C 86.7 3.9 86.8 4.2 86.9 4.5 C 86.9 4.8 87 5.2 87 5.7 C 86.95 5.73 87 10.2 87 10.2 L 85.7 10.2 C 85.7 10.2 85.72 5.78 85.7 5.8 C 85.7 5.3 85.7 4.9 85.6 4.7 C 85.5 4.4 85.3 4.2 85.1 4.1 C 84.8 3.9 84.5 3.8 84.2 3.8 C 83.7 3.8 83.2 4 82.9 4.3 C 82.5 4.7 82.3 5.3 82.3 6.2 C 82.28 6.23 82.3 10.2 82.3 10.2 L 81.1 10.2 Z M 88.8 10.2 L 88.8 2.9 L 89.9 2.9 C 89.9 2.9 89.95 3.96 89.9 4 C 90.5 3.2 91.3 2.8 92.3 2.8 C 92.7 2.8 93.1 2.8 93.5 3 C 93.8 3.2 94.1 3.4 94.3 3.6 C 94.5 3.9 94.6 4.2 94.7 4.5 C 94.7 4.8 94.7 5.2 94.7 5.7 C 94.74 5.73 94.7 10.2 94.7 10.2 L 93.5 10.2 C 93.5 10.2 93.51 5.78 93.5 5.8 C 93.5 5.3 93.5 4.9 93.4 4.7 C 93.3 4.4 93.1 4.2 92.9 4.1 C 92.6 3.9 92.3 3.8 92 3.8 C 91.5 3.8 91 4 90.6 4.3 C 90.3 4.7 90.1 5.3 90.1 6.2 C 90.07 6.23 90.1 10.2 90.1 10.2 L 88.8 10.2 Z M 101.6 7.9 C 101.6 7.9 102.9 8 102.9 8 C 102.7 8.8 102.3 9.3 101.8 9.7 C 101.2 10.2 100.5 10.4 99.7 10.4 C 98.6 10.4 97.8 10 97.1 9.4 C 96.5 8.7 96.2 7.8 96.2 6.6 C 96.2 5.4 96.5 4.5 97.2 3.8 C 97.8 3.1 98.6 2.8 99.6 2.8 C 100.6 2.8 101.4 3.1 102 3.8 C 102.6 4.4 102.9 5.4 102.9 6.5 C 102.9 6.6 102.9 6.7 102.9 6.9 C 102.9 6.9 97.5 6.9 97.5 6.9 C 97.5 7.7 97.8 8.3 98.2 8.7 C 98.6 9.1 99.1 9.3 99.7 9.3 C 100.1 9.3 100.5 9.2 100.8 9 C 101.2 8.8 101.4 8.4 101.6 7.9 Z M 97.6 5.9 C 97.6 5.9 101.6 5.9 101.6 5.9 C 101.6 5.3 101.4 4.8 101.1 4.5 C 100.8 4 100.2 3.8 99.6 3.8 C 99.1 3.8 98.6 4 98.2 4.3 C 97.8 4.7 97.6 5.2 97.6 5.9 Z M 104.4 10.2 L 104.4 0.2 L 105.6 0.2 L 105.6 10.2 L 104.4 10.2 Z M 111.5 10.2 L 111.5 0.2 L 113.5 0.2 C 113.5 0.2 115.9 7.27 115.9 7.3 C 116.1 7.9 116.3 8.4 116.4 8.8 C 116.5 8.4 116.7 7.9 116.9 7.1 C 116.91 7.14 119.3 0.2 119.3 0.2 L 121.1 0.2 L 121.1 10.2 L 119.8 10.2 L 119.8 1.8 L 116.9 10.2 L 115.7 10.2 L 112.8 1.7 L 112.8 10.2 L 111.5 10.2 Z M 128.1 10.2 C 127.9 9.9 127.8 9.6 127.8 9.3 C 127.4 9.7 126.9 10 126.5 10.1 C 126.1 10.3 125.6 10.4 125.1 10.4 C 124.3 10.4 123.7 10.2 123.3 9.8 C 122.9 9.4 122.7 8.9 122.7 8.3 C 122.7 7.9 122.7 7.6 122.9 7.3 C 123.1 7 123.3 6.8 123.5 6.6 C 123.8 6.4 124.1 6.3 124.4 6.2 C 124.7 6.1 125 6.1 125.5 6 C 126.5 5.9 127.2 5.7 127.7 5.6 C 127.7 5.4 127.7 5.3 127.7 5.3 C 127.7 4.8 127.6 4.4 127.4 4.2 C 127.1 3.9 126.6 3.8 126 3.8 C 125.4 3.8 125 3.9 124.7 4.1 C 124.4 4.3 124.2 4.7 124.1 5.2 C 124.1 5.2 122.9 5 122.9 5 C 123 4.5 123.2 4.1 123.4 3.8 C 123.7 3.4 124 3.2 124.5 3 C 125 2.9 125.5 2.8 126.1 2.8 C 126.8 2.8 127.3 2.8 127.7 3 C 128 3.1 128.3 3.3 128.5 3.5 C 128.7 3.8 128.8 4 128.9 4.4 C 128.9 4.6 129 5 129 5.5 C 129 5.5 129 7.2 129 7.2 C 129 8.3 129 9 129 9.3 C 129.1 9.6 129.2 9.9 129.3 10.2 C 129.34 10.19 128.1 10.2 128.1 10.2 C 128.1 10.2 128.06 10.19 128.1 10.2 Z M 127.7 6.5 C 127.3 6.7 126.6 6.9 125.7 7 C 125.2 7.1 124.8 7.2 124.6 7.3 C 124.4 7.4 124.3 7.5 124.1 7.7 C 124 7.8 124 8 124 8.2 C 124 8.6 124.1 8.8 124.3 9.1 C 124.6 9.3 125 9.4 125.4 9.4 C 125.9 9.4 126.3 9.3 126.7 9.1 C 127.1 8.9 127.3 8.6 127.5 8.2 C 127.6 8 127.7 7.5 127.7 7 C 127.7 7 127.7 6.5 127.7 6.5 Z M 130.8 10.2 L 130.8 2.9 L 132 2.9 C 132 2.9 131.95 4.03 132 4 C 132.2 3.5 132.5 3.2 132.7 3 C 133 2.9 133.2 2.8 133.5 2.8 C 133.9 2.8 134.4 2.9 134.8 3.2 C 134.8 3.2 134.4 4.3 134.4 4.3 C 134.1 4.1 133.8 4 133.5 4 C 133.2 4 133 4.1 132.7 4.3 C 132.5 4.4 132.4 4.7 132.3 5 C 132.1 5.4 132.1 5.9 132.1 6.4 C 132.08 6.39 132.1 10.2 132.1 10.2 L 130.8 10.2 Z M 135.5 10.2 L 135.5 0.2 L 136.8 0.2 L 136.8 5.9 L 139.7 2.9 L 141.3 2.9 L 138.5 5.6 L 141.5 10.2 L 140 10.2 L 137.6 6.5 L 136.8 7.3 L 136.8 10.2 L 135.5 10.2 Z M 147.5 7.9 C 147.5 7.9 148.8 8 148.8 8 C 148.6 8.8 148.2 9.3 147.6 9.7 C 147.1 10.2 146.4 10.4 145.6 10.4 C 144.5 10.4 143.7 10 143 9.4 C 142.4 8.7 142.1 7.8 142.1 6.6 C 142.1 5.4 142.4 4.5 143.1 3.8 C 143.7 3.1 144.5 2.8 145.5 2.8 C 146.5 2.8 147.3 3.1 147.9 3.8 C 148.5 4.4 148.8 5.4 148.8 6.5 C 148.8 6.6 148.8 6.7 148.8 6.9 C 148.8 6.9 143.4 6.9 143.4 6.9 C 143.4 7.7 143.7 8.3 144.1 8.7 C 144.5 9.1 145 9.3 145.6 9.3 C 146 9.3 146.4 9.2 146.7 9 C 147.1 8.8 147.3 8.4 147.5 7.9 Z M 143.5 5.9 C 143.5 5.9 147.5 5.9 147.5 5.9 C 147.5 5.3 147.3 4.8 147 4.5 C 146.6 4 146.1 3.8 145.5 3.8 C 145 3.8 144.5 4 144.1 4.3 C 143.7 4.7 143.5 5.2 143.5 5.9 Z M 152.5 9.1 C 152.6 9.1 152.8 9.1 153 9.1 C 153 9.1 153.2 10.2 153.2 10.2 C 152.8 10.3 152.5 10.3 152.2 10.3 C 151.8 10.3 151.5 10.2 151.2 10.1 C 151 9.9 150.8 9.7 150.7 9.5 C 150.6 9.3 150.5 8.8 150.5 8.1 C 150.53 8.07 150.5 3.9 150.5 3.9 L 149.6 3.9 L 149.6 2.9 L 150.5 2.9 L 150.5 1.1 L 151.8 0.4 L 151.8 2.9 L 153 2.9 L 153 3.9 L 151.8 3.9 C 151.8 3.9 151.76 8.13 151.8 8.1 C 151.8 8.5 151.8 8.7 151.8 8.8 C 151.9 8.9 151.9 9 152 9.1 C 152.1 9.1 152.3 9.1 152.5 9.1 C 152.5 9.1 152.5 9.1 152.5 9.1 Z M 159.2 7.9 C 159.2 7.9 160.4 8 160.4 8 C 160.2 8.8 159.9 9.3 159.3 9.7 C 158.8 10.2 158.1 10.4 157.2 10.4 C 156.2 10.4 155.3 10 154.7 9.4 C 154.1 8.7 153.8 7.8 153.8 6.6 C 153.8 5.4 154.1 4.5 154.7 3.8 C 155.4 3.1 156.2 2.8 157.2 2.8 C 158.1 2.8 158.9 3.1 159.6 3.8 C 160.2 4.4 160.5 5.4 160.5 6.5 C 160.5 6.6 160.5 6.7 160.5 6.9 C 160.5 6.9 155.1 6.9 155.1 6.9 C 155.1 7.7 155.3 8.3 155.7 8.7 C 156.1 9.1 156.6 9.3 157.3 9.3 C 157.7 9.3 158.1 9.2 158.4 9 C 158.7 8.8 159 8.4 159.2 7.9 Z M 155.1 5.9 C 155.1 5.9 159.2 5.9 159.2 5.9 C 159.1 5.3 159 4.8 158.7 4.5 C 158.3 4 157.8 3.8 157.2 3.8 C 156.6 3.8 156.2 4 155.8 4.3 C 155.4 4.7 155.2 5.2 155.1 5.9 Z M 162 10.2 L 162 2.9 L 163.1 2.9 C 163.1 2.9 163.08 4.03 163.1 4 C 163.4 3.5 163.6 3.2 163.9 3 C 164.1 2.9 164.4 2.8 164.7 2.8 C 165.1 2.8 165.5 2.9 165.9 3.2 C 165.9 3.2 165.5 4.3 165.5 4.3 C 165.2 4.1 164.9 4 164.6 4 C 164.3 4 164.1 4.1 163.9 4.3 C 163.6 4.4 163.5 4.7 163.4 5 C 163.3 5.4 163.2 5.9 163.2 6.4 C 163.2 6.39 163.2 10.2 163.2 10.2 L 162 10.2 Z " stroke="none" fill="#000000"/>  </g></svg>