<?xml version="1.0" standalone="no"?><!DOCTYPE svg PUBLIC "-//W3C//DTD SVG 1.1//EN" "http://www.w3.org/Graphics/SVG/1.1/DTD/svg11.dtd"><svg xmlns="http://www.w3.org/2000/svg" version="1.1" width="100px" height="23.9px" viewBox="0 -5 100 23.9" style="top:-5px">  <desc>200+ Providers</desc>  <defs/>  <g id="Polygon108213">    <path d="M 7.1 8.4 L 7.1 10.2 C 7.1 10.2 0.35 10.19 0.3 10.2 C 0.4 9.5 0.6 8.9 1 8.3 C 1.4 7.7 2.1 6.9 3.2 5.9 C 4 5.1 4.6 4.5 4.8 4.2 C 5 3.8 5.2 3.4 5.2 3.1 C 5.2 2.6 5 2.3 4.8 2.1 C 4.6 1.8 4.3 1.7 3.9 1.7 C 3.5 1.7 3.1 1.8 2.9 2.1 C 2.7 2.3 2.5 2.7 2.5 3.3 C 2.5 3.3 0.6 3.1 0.6 3.1 C 0.7 2 1 1.3 1.6 0.8 C 2.2 0.4 3 0.1 3.9 0.1 C 4.9 0.1 5.7 0.4 6.2 0.9 C 6.8 1.5 7.1 2.1 7.1 2.9 C 7.1 3.4 7 3.8 6.8 4.2 C 6.7 4.6 6.4 5 6.1 5.5 C 5.8 5.8 5.4 6.2 4.8 6.8 C 4.2 7.3 3.8 7.7 3.7 7.9 C 3.5 8.1 3.4 8.2 3.3 8.4 C 3.27 8.41 7.1 8.4 7.1 8.4 Z M 9.4 1.2 C 9.9 0.5 10.7 0.1 11.6 0.1 C 12.6 0.1 13.4 0.5 13.9 1.2 C 14.6 2 14.9 3.3 14.9 5.3 C 14.9 7.1 14.6 8.5 13.9 9.3 C 13.4 10 12.6 10.4 11.6 10.4 C 10.7 10.4 9.9 10 9.3 9.2 C 8.7 8.5 8.4 7.2 8.4 5.2 C 8.4 3.3 8.7 2 9.4 1.2 C 9.4 1.2 9.4 1.2 9.4 1.2 Z M 11.6 1.7 C 11.4 1.7 11.2 1.8 11 1.9 C 10.8 2.1 10.7 2.4 10.6 2.7 C 10.4 3.2 10.4 4.1 10.4 5.3 C 10.4 6.4 10.4 7.2 10.6 7.7 C 10.7 8.1 10.8 8.4 11 8.6 C 11.2 8.7 11.4 8.8 11.6 8.8 C 11.9 8.8 12.1 8.7 12.3 8.5 C 12.4 8.4 12.6 8.1 12.7 7.8 C 12.8 7.3 12.9 6.4 12.9 5.3 C 12.9 4.1 12.8 3.3 12.7 2.8 C 12.6 2.4 12.4 2.1 12.2 1.9 C 12.1 1.8 11.9 1.7 11.6 1.7 Z M 17.1 1.2 C 17.7 0.5 18.4 0.1 19.4 0.1 C 20.4 0.1 21.1 0.5 21.7 1.2 C 22.3 2 22.7 3.3 22.7 5.3 C 22.7 7.1 22.3 8.5 21.7 9.3 C 21.1 10 20.4 10.4 19.4 10.4 C 18.4 10.4 17.7 10 17.1 9.2 C 16.5 8.5 16.2 7.2 16.2 5.2 C 16.2 3.3 16.5 2 17.1 1.2 C 17.1 1.2 17.1 1.2 17.1 1.2 Z M 19.4 1.7 C 19.2 1.7 19 1.8 18.8 1.9 C 18.6 2.1 18.5 2.4 18.4 2.7 C 18.2 3.2 18.2 4.1 18.2 5.3 C 18.2 6.4 18.2 7.2 18.3 7.7 C 18.5 8.1 18.6 8.4 18.8 8.6 C 19 8.7 19.2 8.8 19.4 8.8 C 19.6 8.8 19.9 8.7 20 8.5 C 20.2 8.4 20.4 8.1 20.5 7.8 C 20.6 7.3 20.7 6.4 20.7 5.3 C 20.7 4.1 20.6 3.3 20.5 2.8 C 20.4 2.4 20.2 2.1 20 1.9 C 19.9 1.8 19.6 1.7 19.4 1.7 Z M 26.6 8.8 L 26.6 6.1 L 23.9 6.1 L 23.9 4.3 L 26.6 4.3 L 26.6 1.7 L 28.3 1.7 L 28.3 4.3 L 30.9 4.3 L 30.9 6.1 L 28.3 6.1 L 28.3 8.8 L 26.6 8.8 Z M 36.4 10.2 L 36.4 0.2 C 36.4 0.2 39.69 0.17 39.7 0.2 C 40.9 0.2 41.7 0.2 42.1 0.3 C 42.7 0.5 43.2 0.8 43.5 1.3 C 43.9 1.8 44.1 2.5 44.1 3.3 C 44.1 3.9 44 4.4 43.8 4.8 C 43.6 5.2 43.3 5.6 42.9 5.8 C 42.6 6 42.2 6.2 41.9 6.3 C 41.4 6.4 40.7 6.4 39.8 6.4 C 39.79 6.41 38.5 6.4 38.5 6.4 L 38.5 10.2 L 36.4 10.2 Z M 38.5 1.9 L 38.5 4.7 C 38.5 4.7 39.57 4.71 39.6 4.7 C 40.4 4.7 40.9 4.7 41.2 4.6 C 41.4 4.4 41.7 4.3 41.8 4.1 C 42 3.8 42 3.6 42 3.3 C 42 2.9 41.9 2.6 41.7 2.4 C 41.5 2.1 41.2 2 40.9 1.9 C 40.7 1.9 40.2 1.9 39.4 1.9 C 39.44 1.87 38.5 1.9 38.5 1.9 Z M 47.6 10.2 L 45.7 10.2 L 45.7 2.9 L 47.5 2.9 C 47.5 2.9 47.47 3.96 47.5 4 C 47.8 3.5 48 3.2 48.3 3 C 48.5 2.8 48.8 2.8 49.1 2.8 C 49.6 2.8 50 2.9 50.4 3.1 C 50.4 3.1 49.8 4.8 49.8 4.8 C 49.5 4.6 49.2 4.5 48.9 4.5 C 48.6 4.5 48.4 4.6 48.2 4.7 C 48 4.9 47.9 5.1 47.8 5.5 C 47.7 5.9 47.6 6.7 47.6 8 C 47.61 7.95 47.6 10.2 47.6 10.2 Z M 50.8 6.5 C 50.8 5.8 50.9 5.2 51.2 4.6 C 51.6 4 52 3.6 52.6 3.2 C 53.2 2.9 53.8 2.8 54.5 2.8 C 55.6 2.8 56.5 3.1 57.2 3.8 C 57.9 4.6 58.3 5.5 58.3 6.5 C 58.3 7.6 57.9 8.6 57.2 9.3 C 56.5 10 55.6 10.4 54.5 10.4 C 53.9 10.4 53.2 10.2 52.6 9.9 C 52 9.6 51.6 9.2 51.2 8.6 C 50.9 8 50.8 7.3 50.8 6.5 Z M 52.7 6.6 C 52.7 7.3 52.9 7.8 53.3 8.2 C 53.6 8.6 54 8.8 54.5 8.8 C 55 8.8 55.4 8.6 55.8 8.2 C 56.1 7.8 56.3 7.3 56.3 6.5 C 56.3 5.8 56.1 5.3 55.8 4.9 C 55.4 4.5 55 4.3 54.5 4.3 C 54 4.3 53.6 4.5 53.3 4.9 C 52.9 5.3 52.7 5.8 52.7 6.6 Z M 61.8 10.2 L 58.8 2.9 L 60.9 2.9 L 62.2 6.6 C 62.2 6.6 62.62 7.88 62.6 7.9 C 62.7 7.6 62.8 7.4 62.8 7.3 C 62.9 7 62.9 6.8 63 6.6 C 63.02 6.64 64.4 2.9 64.4 2.9 L 66.4 2.9 L 63.5 10.2 L 61.8 10.2 Z M 67.6 1.9 L 67.6 0.2 L 69.5 0.2 L 69.5 1.9 L 67.6 1.9 Z M 67.6 10.2 L 67.6 2.9 L 69.5 2.9 L 69.5 10.2 L 67.6 10.2 Z M 78.1 10.2 L 76.3 10.2 C 76.3 10.2 76.32 9.13 76.3 9.1 C 76 9.5 75.7 9.8 75.3 10.1 C 74.9 10.3 74.5 10.4 74 10.4 C 73.2 10.4 72.5 10 71.9 9.3 C 71.3 8.7 71 7.7 71 6.5 C 71 5.3 71.3 4.4 71.9 3.7 C 72.5 3.1 73.2 2.8 74.1 2.8 C 74.9 2.8 75.6 3.1 76.2 3.8 C 76.18 3.78 76.2 0.2 76.2 0.2 L 78.1 0.2 L 78.1 10.2 Z M 73 6.4 C 73 7.2 73.1 7.7 73.3 8.1 C 73.6 8.6 74 8.8 74.6 8.8 C 75 8.8 75.4 8.7 75.7 8.3 C 76 7.9 76.2 7.3 76.2 6.6 C 76.2 5.8 76 5.2 75.7 4.8 C 75.4 4.4 75 4.2 74.6 4.2 C 74.1 4.2 73.7 4.4 73.4 4.8 C 73.1 5.1 73 5.7 73 6.4 Z M 84.2 7.9 C 84.2 7.9 86.1 8.2 86.1 8.2 C 85.9 8.9 85.5 9.4 84.9 9.8 C 84.4 10.2 83.8 10.4 83 10.4 C 81.7 10.4 80.8 9.9 80.2 9.1 C 79.7 8.5 79.4 7.6 79.4 6.6 C 79.4 5.4 79.7 4.5 80.4 3.8 C 81 3.1 81.8 2.8 82.8 2.8 C 83.8 2.8 84.7 3.1 85.3 3.8 C 85.9 4.6 86.2 5.6 86.2 7.1 C 86.2 7.1 81.4 7.1 81.4 7.1 C 81.4 7.7 81.6 8.1 81.9 8.4 C 82.2 8.8 82.5 8.9 83 8.9 C 83.3 8.9 83.5 8.8 83.7 8.7 C 83.9 8.5 84.1 8.2 84.2 7.9 Z M 84.3 5.9 C 84.3 5.4 84.2 5 83.9 4.7 C 83.6 4.4 83.3 4.2 82.9 4.2 C 82.5 4.2 82.1 4.4 81.8 4.7 C 81.6 5 81.4 5.4 81.4 5.9 C 81.4 5.9 84.3 5.9 84.3 5.9 Z M 89.6 10.2 L 87.7 10.2 L 87.7 2.9 L 89.5 2.9 C 89.5 2.9 89.48 3.96 89.5 4 C 89.8 3.5 90.1 3.2 90.3 3 C 90.5 2.8 90.8 2.8 91.1 2.8 C 91.6 2.8 92 2.9 92.4 3.1 C 92.4 3.1 91.8 4.8 91.8 4.8 C 91.5 4.6 91.2 4.5 90.9 4.5 C 90.6 4.5 90.4 4.6 90.2 4.7 C 90 4.9 89.9 5.1 89.8 5.5 C 89.7 5.9 89.6 6.7 89.6 8 C 89.62 7.95 89.6 10.2 89.6 10.2 Z M 92.6 8.1 C 92.6 8.1 94.5 7.8 94.5 7.8 C 94.6 8.2 94.7 8.5 95 8.7 C 95.2 8.9 95.6 9 96 9 C 96.5 9 96.9 8.9 97.2 8.7 C 97.3 8.6 97.4 8.4 97.4 8.2 C 97.4 8 97.4 7.9 97.3 7.8 C 97.2 7.7 97 7.6 96.6 7.6 C 95.1 7.2 94.1 6.9 93.7 6.6 C 93.1 6.2 92.8 5.7 92.8 5 C 92.8 4.4 93.1 3.8 93.6 3.4 C 94.1 3 94.8 2.8 95.9 2.8 C 96.9 2.8 97.6 2.9 98.1 3.3 C 98.6 3.6 98.9 4.1 99.1 4.7 C 99.1 4.7 97.3 5 97.3 5 C 97.2 4.7 97.1 4.5 96.8 4.4 C 96.6 4.2 96.3 4.1 95.9 4.1 C 95.4 4.1 95 4.2 94.8 4.4 C 94.7 4.5 94.6 4.6 94.6 4.8 C 94.6 4.9 94.7 5 94.8 5.1 C 95 5.2 95.6 5.4 96.6 5.6 C 97.6 5.9 98.3 6.2 98.7 6.5 C 99.1 6.8 99.3 7.3 99.3 7.9 C 99.3 8.6 99.1 9.2 98.5 9.6 C 97.9 10.1 97.1 10.4 96 10.4 C 95 10.4 94.3 10.2 93.7 9.8 C 93.1 9.4 92.7 8.8 92.6 8.1 Z " stroke="none" fill="#ffffff"/>  </g></svg>