<?xml version="1.0" standalone="no"?><!DOCTYPE svg PUBLIC "-//W3C//DTD SVG 1.1//EN" "http://www.w3.org/Graphics/SVG/1.1/DTD/svg11.dtd"><svg xmlns="http://www.w3.org/2000/svg" version="1.1" width="280.3px" height="91.9px" viewBox="0 -5 280.3 91.9" style="top:-5px">  <desc>L2 Software &amp; Data Foundation L2 Apprenticeship L3 Data Technician L4 Data Analyst L4 AI &amp; Automation Practitioner</desc>  <defs/>  <g id="Polygon111856">    <path d="M 1.1 77.4 L 1.1 67.5 L 3.1 67.5 L 3.1 75.7 L 8.1 75.7 L 8.1 77.4 L 1.1 77.4 Z M 12.9 77.4 L 12.9 75.4 L 8.8 75.4 L 8.8 73.7 L 13.2 67.3 L 14.8 67.3 L 14.8 73.7 L 16 73.7 L 16 75.4 L 14.8 75.4 L 14.8 77.4 L 12.9 77.4 Z M 12.9 73.7 L 12.9 70.3 L 10.6 73.7 L 12.9 73.7 Z M 19.4 77.4 L 23.3 67.4 L 24.7 67.4 L 28.8 77.4 L 27.3 77.4 L 26.1 74.4 L 21.9 74.4 L 20.8 77.4 L 19.4 77.4 Z M 22.3 73.3 L 25.7 73.3 C 25.7 73.3 24.68 70.5 24.7 70.5 C 24.4 69.7 24.1 69 24 68.4 C 23.8 69.1 23.7 69.7 23.4 70.3 C 23.43 70.34 22.3 73.3 22.3 73.3 Z M 30.1 77.4 L 30.1 67.4 L 31.4 67.4 L 31.4 77.4 L 30.1 77.4 Z M 44.8 77.6 C 44.3 77.3 43.8 76.8 43.2 76.2 C 42.8 76.7 42.4 77 41.9 77.2 C 41.4 77.5 40.9 77.6 40.3 77.6 C 39.3 77.6 38.5 77.2 37.9 76.5 C 37.4 76 37.2 75.3 37.2 74.6 C 37.2 74 37.4 73.5 37.8 73 C 38.2 72.5 38.8 72 39.6 71.6 C 39.1 71.1 38.8 70.7 38.7 70.4 C 38.5 70 38.4 69.7 38.4 69.4 C 38.4 68.8 38.7 68.3 39.1 67.9 C 39.6 67.4 40.2 67.2 40.9 67.2 C 41.6 67.2 42.2 67.4 42.6 67.8 C 43 68.2 43.3 68.8 43.3 69.3 C 43.3 70.3 42.6 71.1 41.4 71.8 C 41.4 71.8 43.2 74.1 43.2 74.1 C 43.4 73.7 43.5 73.2 43.6 72.7 C 43.6 72.7 44.9 72.9 44.9 72.9 C 44.7 73.8 44.4 74.5 44 75.1 C 44.5 75.7 45 76.2 45.6 76.6 C 45.59 76.65 44.8 77.6 44.8 77.6 C 44.8 77.6 44.76 77.62 44.8 77.6 Z M 40.7 71 C 41.3 70.7 41.6 70.4 41.8 70.2 C 41.9 69.9 42 69.7 42 69.4 C 42 69 41.9 68.8 41.7 68.5 C 41.5 68.3 41.2 68.2 40.9 68.2 C 40.5 68.2 40.2 68.3 40 68.5 C 39.8 68.7 39.7 69 39.7 69.3 C 39.7 69.5 39.7 69.6 39.8 69.8 C 39.9 70 40 70.2 40.2 70.4 C 40.2 70.4 40.7 71 40.7 71 Z M 42.5 75.2 C 42.5 75.2 40.2 72.4 40.2 72.4 C 39.5 72.8 39.1 73.2 38.8 73.5 C 38.6 73.9 38.5 74.2 38.5 74.6 C 38.5 75 38.7 75.4 39 75.8 C 39.3 76.3 39.8 76.5 40.4 76.5 C 40.7 76.5 41.1 76.4 41.5 76.1 C 41.9 75.9 42.2 75.6 42.5 75.2 Z M 49 77.4 L 52.9 67.4 L 54.3 67.4 L 58.4 77.4 L 56.9 77.4 L 55.7 74.4 L 51.5 74.4 L 50.4 77.4 L 49 77.4 Z M 51.9 73.3 L 55.3 73.3 C 55.3 73.3 54.25 70.5 54.3 70.5 C 53.9 69.7 53.7 69 53.5 68.4 C 53.4 69.1 53.2 69.7 53 70.3 C 53 70.34 51.9 73.3 51.9 73.3 Z M 64 77.4 C 64 77.4 64.05 76.33 64 76.3 C 63.5 77.1 62.7 77.6 61.7 77.6 C 61.3 77.6 60.9 77.5 60.5 77.3 C 60.2 77.1 59.9 76.9 59.7 76.7 C 59.5 76.4 59.4 76.1 59.3 75.8 C 59.3 75.5 59.3 75.2 59.3 74.6 C 59.26 74.63 59.3 70.1 59.3 70.1 L 60.5 70.1 C 60.5 70.1 60.49 74.16 60.5 74.2 C 60.5 74.8 60.5 75.2 60.6 75.5 C 60.6 75.8 60.8 76 61.1 76.2 C 61.3 76.4 61.6 76.5 62 76.5 C 62.4 76.5 62.7 76.4 63 76.2 C 63.4 76 63.6 75.8 63.7 75.4 C 63.8 75.1 63.9 74.6 63.9 74 C 63.92 74.02 63.9 70.1 63.9 70.1 L 65.1 70.1 L 65.1 77.4 L 64 77.4 Z M 69.2 76.3 C 69.4 76.3 69.5 76.3 69.8 76.3 C 69.8 76.3 69.9 77.4 69.9 77.4 C 69.6 77.5 69.3 77.5 69 77.5 C 68.6 77.5 68.2 77.4 68 77.3 C 67.7 77.1 67.6 76.9 67.5 76.7 C 67.3 76.5 67.3 76 67.3 75.3 C 67.3 75.27 67.3 71.1 67.3 71.1 L 66.4 71.1 L 66.4 70.1 L 67.3 70.1 L 67.3 68.3 L 68.5 67.6 L 68.5 70.1 L 69.8 70.1 L 69.8 71.1 L 68.5 71.1 C 68.5 71.1 68.52 75.33 68.5 75.3 C 68.5 75.7 68.5 75.9 68.6 76 C 68.6 76.1 68.7 76.2 68.8 76.3 C 68.9 76.3 69 76.3 69.2 76.3 C 69.2 76.3 69.2 76.3 69.2 76.3 Z M 70.5 73.8 C 70.5 72.4 70.9 71.4 71.6 70.8 C 72.3 70.2 73 70 73.9 70 C 74.9 70 75.7 70.3 76.4 70.9 C 77 71.6 77.3 72.5 77.3 73.7 C 77.3 74.6 77.2 75.3 76.9 75.9 C 76.6 76.4 76.2 76.8 75.7 77.1 C 75.1 77.4 74.5 77.6 73.9 77.6 C 72.9 77.6 72.1 77.2 71.4 76.6 C 70.8 75.9 70.5 75 70.5 73.8 Z M 71.8 73.8 C 71.8 74.7 72 75.4 72.4 75.9 C 72.8 76.3 73.3 76.5 73.9 76.5 C 74.5 76.5 75 76.3 75.4 75.8 C 75.8 75.4 76 74.7 76 73.7 C 76 72.8 75.8 72.1 75.4 71.7 C 75 71.2 74.5 71 73.9 71 C 73.3 71 72.8 71.2 72.4 71.7 C 72 72.1 71.8 72.8 71.8 73.8 Z M 78.8 77.4 L 78.8 70.1 L 79.9 70.1 C 79.9 70.1 79.85 71.15 79.9 71.2 C 80.1 70.8 80.4 70.5 80.8 70.3 C 81.1 70.1 81.6 70 82.1 70 C 82.6 70 83 70.1 83.4 70.3 C 83.7 70.5 84 70.8 84.1 71.2 C 84.7 70.4 85.4 70 86.3 70 C 87.1 70 87.6 70.2 88 70.6 C 88.4 71 88.6 71.6 88.6 72.4 C 88.59 72.41 88.6 77.4 88.6 77.4 L 87.4 77.4 C 87.4 77.4 87.36 72.82 87.4 72.8 C 87.4 72.3 87.3 72 87.2 71.8 C 87.2 71.5 87 71.4 86.8 71.2 C 86.6 71.1 86.4 71 86.1 71 C 85.6 71 85.1 71.2 84.8 71.5 C 84.5 71.9 84.3 72.4 84.3 73.2 C 84.29 73.17 84.3 77.4 84.3 77.4 L 83.1 77.4 C 83.1 77.4 83.06 72.68 83.1 72.7 C 83.1 72.1 83 71.7 82.8 71.4 C 82.6 71.2 82.2 71 81.8 71 C 81.4 71 81.1 71.1 80.8 71.3 C 80.5 71.5 80.3 71.8 80.2 72.1 C 80 72.5 80 73 80 73.6 C 79.98 73.63 80 77.4 80 77.4 L 78.8 77.4 Z M 95.4 77.4 C 95.3 77.1 95.2 76.8 95.1 76.5 C 94.7 76.9 94.3 77.2 93.8 77.3 C 93.4 77.5 93 77.6 92.5 77.6 C 91.7 77.6 91.1 77.4 90.6 77 C 90.2 76.6 90 76.1 90 75.5 C 90 75.1 90.1 74.8 90.2 74.5 C 90.4 74.2 90.6 74 90.9 73.8 C 91.1 73.6 91.4 73.5 91.8 73.4 C 92 73.3 92.4 73.3 92.9 73.2 C 93.8 73.1 94.6 72.9 95 72.8 C 95.1 72.6 95.1 72.5 95.1 72.5 C 95.1 72 94.9 71.6 94.7 71.4 C 94.4 71.1 93.9 71 93.3 71 C 92.7 71 92.3 71.1 92 71.3 C 91.7 71.5 91.5 71.9 91.4 72.4 C 91.4 72.4 90.2 72.2 90.2 72.2 C 90.3 71.7 90.5 71.3 90.7 71 C 91 70.6 91.4 70.4 91.8 70.2 C 92.3 70.1 92.9 70 93.5 70 C 94.1 70 94.6 70 95 70.2 C 95.4 70.3 95.7 70.5 95.8 70.7 C 96 71 96.2 71.2 96.2 71.6 C 96.3 71.8 96.3 72.2 96.3 72.7 C 96.3 72.7 96.3 74.4 96.3 74.4 C 96.3 75.5 96.3 76.2 96.4 76.5 C 96.4 76.8 96.5 77.1 96.7 77.4 C 96.68 77.39 95.4 77.4 95.4 77.4 C 95.4 77.4 95.4 77.39 95.4 77.4 Z M 95 73.7 C 94.6 73.9 93.9 74.1 93 74.2 C 92.5 74.3 92.2 74.4 92 74.5 C 91.8 74.6 91.6 74.7 91.5 74.9 C 91.4 75 91.3 75.2 91.3 75.4 C 91.3 75.8 91.4 76 91.7 76.3 C 91.9 76.5 92.3 76.6 92.8 76.6 C 93.2 76.6 93.7 76.5 94 76.3 C 94.4 76.1 94.7 75.8 94.8 75.4 C 95 75.2 95 74.7 95 74.2 C 95 74.2 95 73.7 95 73.7 Z M 100.3 76.3 C 100.5 76.3 100.7 76.3 100.9 76.3 C 100.9 76.3 101.1 77.4 101.1 77.4 C 100.7 77.5 100.4 77.5 100.1 77.5 C 99.7 77.5 99.3 77.4 99.1 77.3 C 98.8 77.1 98.7 76.9 98.6 76.7 C 98.5 76.5 98.4 76 98.4 75.3 C 98.42 75.27 98.4 71.1 98.4 71.1 L 97.5 71.1 L 97.5 70.1 L 98.4 70.1 L 98.4 68.3 L 99.6 67.6 L 99.6 70.1 L 100.9 70.1 L 100.9 71.1 L 99.6 71.1 C 99.6 71.1 99.65 75.33 99.6 75.3 C 99.6 75.7 99.7 75.9 99.7 76 C 99.8 76.1 99.8 76.2 99.9 76.3 C 100 76.3 100.2 76.3 100.3 76.3 C 100.3 76.3 100.3 76.3 100.3 76.3 Z M 102.1 68.8 L 102.1 67.4 L 103.3 67.4 L 103.3 68.8 L 102.1 68.8 Z M 102.1 77.4 L 102.1 70.1 L 103.3 70.1 L 103.3 77.4 L 102.1 77.4 Z M 104.7 73.8 C 104.7 72.4 105.1 71.4 105.9 70.8 C 106.5 70.2 107.2 70 108.1 70 C 109.1 70 110 70.3 110.6 70.9 C 111.2 71.6 111.5 72.5 111.5 73.7 C 111.5 74.6 111.4 75.3 111.1 75.9 C 110.8 76.4 110.4 76.8 109.9 77.1 C 109.4 77.4 108.8 77.6 108.1 77.6 C 107.1 77.6 106.3 77.2 105.7 76.6 C 105.1 75.9 104.7 75 104.7 73.8 Z M 106 73.8 C 106 74.7 106.2 75.4 106.6 75.9 C 107 76.3 107.5 76.5 108.1 76.5 C 108.8 76.5 109.3 76.3 109.7 75.8 C 110.1 75.4 110.3 74.7 110.3 73.7 C 110.3 72.8 110.1 72.1 109.7 71.7 C 109.3 71.2 108.8 71 108.1 71 C 107.5 71 107 71.2 106.6 71.7 C 106.2 72.1 106 72.8 106 73.8 Z M 113 77.4 L 113 70.1 L 114.1 70.1 C 114.1 70.1 114.09 71.16 114.1 71.2 C 114.6 70.4 115.4 70 116.4 70 C 116.8 70 117.2 70 117.6 70.2 C 118 70.4 118.3 70.6 118.4 70.8 C 118.6 71.1 118.7 71.4 118.8 71.7 C 118.9 72 118.9 72.4 118.9 72.9 C 118.88 72.93 118.9 77.4 118.9 77.4 L 117.7 77.4 C 117.7 77.4 117.65 72.98 117.7 73 C 117.7 72.5 117.6 72.1 117.5 71.9 C 117.4 71.6 117.2 71.4 117 71.3 C 116.8 71.1 116.5 71 116.1 71 C 115.6 71 115.2 71.2 114.8 71.5 C 114.4 71.9 114.2 72.5 114.2 73.4 C 114.21 73.43 114.2 77.4 114.2 77.4 L 113 77.4 Z M 124.8 77.4 L 124.8 67.4 C 124.8 67.4 128.6 67.37 128.6 67.4 C 129.3 67.4 129.8 67.4 130.1 67.5 C 130.6 67.5 131 67.7 131.4 67.9 C 131.7 68.2 132 68.5 132.2 68.9 C 132.4 69.3 132.5 69.8 132.5 70.3 C 132.5 71.1 132.2 71.8 131.7 72.4 C 131.1 73 130.1 73.3 128.7 73.3 C 128.71 73.32 126.1 73.3 126.1 73.3 L 126.1 77.4 L 124.8 77.4 Z M 126.1 72.1 C 126.1 72.1 128.73 72.14 128.7 72.1 C 129.6 72.1 130.2 72 130.6 71.7 C 130.9 71.3 131.1 70.9 131.1 70.3 C 131.1 69.9 131 69.5 130.8 69.2 C 130.6 68.9 130.3 68.7 129.9 68.6 C 129.7 68.6 129.3 68.6 128.7 68.6 C 128.71 68.55 126.1 68.6 126.1 68.6 L 126.1 72.1 Z M 134 77.4 L 134 70.1 L 135.1 70.1 C 135.1 70.1 135.09 71.23 135.1 71.2 C 135.4 70.7 135.6 70.4 135.9 70.2 C 136.1 70.1 136.4 70 136.7 70 C 137.1 70 137.5 70.1 137.9 70.4 C 137.9 70.4 137.5 71.5 137.5 71.5 C 137.2 71.3 136.9 71.2 136.6 71.2 C 136.3 71.2 136.1 71.3 135.9 71.5 C 135.7 71.6 135.5 71.9 135.4 72.2 C 135.3 72.6 135.2 73.1 135.2 73.6 C 135.21 73.59 135.2 77.4 135.2 77.4 L 134 77.4 Z M 143.6 77.4 C 143.5 77.1 143.4 76.8 143.4 76.5 C 142.9 76.9 142.5 77.2 142.1 77.3 C 141.7 77.5 141.2 77.6 140.7 77.6 C 139.9 77.6 139.3 77.4 138.9 77 C 138.5 76.6 138.2 76.1 138.2 75.5 C 138.2 75.1 138.3 74.8 138.5 74.5 C 138.6 74.2 138.9 74 139.1 73.8 C 139.4 73.6 139.7 73.5 140 73.4 C 140.2 73.3 140.6 73.3 141.1 73.2 C 142.1 73.1 142.8 72.9 143.3 72.8 C 143.3 72.6 143.3 72.5 143.3 72.5 C 143.3 72 143.2 71.6 143 71.4 C 142.6 71.1 142.2 71 141.6 71 C 141 71 140.5 71.1 140.3 71.3 C 140 71.5 139.8 71.9 139.7 72.4 C 139.7 72.4 138.5 72.2 138.5 72.2 C 138.6 71.7 138.7 71.3 139 71 C 139.2 70.6 139.6 70.4 140.1 70.2 C 140.6 70.1 141.1 70 141.7 70 C 142.3 70 142.9 70 143.2 70.2 C 143.6 70.3 143.9 70.5 144.1 70.7 C 144.3 71 144.4 71.2 144.5 71.6 C 144.5 71.8 144.5 72.2 144.5 72.7 C 144.5 72.7 144.5 74.4 144.5 74.4 C 144.5 75.5 144.6 76.2 144.6 76.5 C 144.7 76.8 144.8 77.1 144.9 77.4 C 144.93 77.39 143.6 77.4 143.6 77.4 C 143.6 77.4 143.64 77.39 143.6 77.4 Z M 143.3 73.7 C 142.8 73.9 142.2 74.1 141.3 74.2 C 140.8 74.3 140.4 74.4 140.2 74.5 C 140 74.6 139.8 74.7 139.7 74.9 C 139.6 75 139.6 75.2 139.6 75.4 C 139.6 75.8 139.7 76 139.9 76.3 C 140.2 76.5 140.5 76.6 141 76.6 C 141.5 76.6 141.9 76.5 142.3 76.3 C 142.7 76.1 142.9 75.8 143.1 75.4 C 143.2 75.2 143.3 74.7 143.3 74.2 C 143.3 74.2 143.3 73.7 143.3 73.7 Z M 151.2 74.7 C 151.2 74.7 152.4 74.9 152.4 74.9 C 152.3 75.7 151.9 76.4 151.4 76.8 C 150.8 77.3 150.2 77.6 149.4 77.6 C 148.4 77.6 147.6 77.2 147 76.6 C 146.4 75.9 146.1 75 146.1 73.8 C 146.1 73 146.2 72.3 146.5 71.7 C 146.7 71.1 147.1 70.7 147.6 70.4 C 148.2 70.1 148.8 70 149.4 70 C 150.2 70 150.8 70.2 151.3 70.6 C 151.8 71 152.1 71.5 152.3 72.3 C 152.3 72.3 151.1 72.4 151.1 72.4 C 151 72 150.8 71.6 150.5 71.3 C 150.2 71.1 149.8 71 149.4 71 C 148.8 71 148.3 71.2 147.9 71.6 C 147.5 72.1 147.3 72.8 147.3 73.8 C 147.3 74.7 147.5 75.4 147.9 75.9 C 148.3 76.3 148.8 76.5 149.4 76.5 C 149.8 76.5 150.2 76.4 150.6 76.1 C 150.9 75.8 151.1 75.3 151.2 74.7 Z M 155.6 76.3 C 155.7 76.3 155.9 76.3 156.1 76.3 C 156.1 76.3 156.3 77.4 156.3 77.4 C 156 77.5 155.7 77.5 155.4 77.5 C 154.9 77.5 154.6 77.4 154.3 77.3 C 154.1 77.1 153.9 76.9 153.8 76.7 C 153.7 76.5 153.7 76 153.7 75.3 C 153.67 75.27 153.7 71.1 153.7 71.1 L 152.8 71.1 L 152.8 70.1 L 153.7 70.1 L 153.7 68.3 L 154.9 67.6 L 154.9 70.1 L 156.1 70.1 L 156.1 71.1 L 154.9 71.1 C 154.9 71.1 154.9 75.33 154.9 75.3 C 154.9 75.7 154.9 75.9 155 76 C 155 76.1 155.1 76.2 155.2 76.3 C 155.3 76.3 155.4 76.3 155.6 76.3 C 155.6 76.3 155.6 76.3 155.6 76.3 Z M 157.3 68.8 L 157.3 67.4 L 158.6 67.4 L 158.6 68.8 L 157.3 68.8 Z M 157.3 77.4 L 157.3 70.1 L 158.6 70.1 L 158.6 77.4 L 157.3 77.4 Z M 162.6 76.3 C 162.7 76.3 162.9 76.3 163.1 76.3 C 163.1 76.3 163.3 77.4 163.3 77.4 C 163 77.5 162.7 77.5 162.4 77.5 C 161.9 77.5 161.6 77.4 161.3 77.3 C 161.1 77.1 160.9 76.9 160.8 76.7 C 160.7 76.5 160.7 76 160.7 75.3 C 160.67 75.27 160.7 71.1 160.7 71.1 L 159.8 71.1 L 159.8 70.1 L 160.7 70.1 L 160.7 68.3 L 161.9 67.6 L 161.9 70.1 L 163.1 70.1 L 163.1 71.1 L 161.9 71.1 C 161.9 71.1 161.9 75.33 161.9 75.3 C 161.9 75.7 161.9 75.9 162 76 C 162 76.1 162.1 76.2 162.2 76.3 C 162.3 76.3 162.4 76.3 162.6 76.3 C 162.6 76.3 162.6 76.3 162.6 76.3 Z M 164.3 68.8 L 164.3 67.4 L 165.6 67.4 L 165.6 68.8 L 164.3 68.8 Z M 164.3 77.4 L 164.3 70.1 L 165.6 70.1 L 165.6 77.4 L 164.3 77.4 Z M 167 73.8 C 167 72.4 167.4 71.4 168.1 70.8 C 168.7 70.2 169.5 70 170.4 70 C 171.4 70 172.2 70.3 172.8 70.9 C 173.5 71.6 173.8 72.5 173.8 73.7 C 173.8 74.6 173.6 75.3 173.4 75.9 C 173.1 76.4 172.7 76.8 172.1 77.1 C 171.6 77.4 171 77.6 170.4 77.6 C 169.4 77.6 168.6 77.2 167.9 76.6 C 167.3 75.9 167 75 167 73.8 Z M 168.3 73.8 C 168.3 74.7 168.5 75.4 168.9 75.9 C 169.3 76.3 169.8 76.5 170.4 76.5 C 171 76.5 171.5 76.3 171.9 75.8 C 172.3 75.4 172.5 74.7 172.5 73.7 C 172.5 72.8 172.3 72.1 171.9 71.7 C 171.5 71.2 171 71 170.4 71 C 169.8 71 169.3 71.2 168.9 71.7 C 168.5 72.1 168.3 72.8 168.3 73.8 Z M 175.2 77.4 L 175.2 70.1 L 176.3 70.1 C 176.3 70.1 176.34 71.16 176.3 71.2 C 176.9 70.4 177.6 70 178.7 70 C 179.1 70 179.5 70 179.9 70.2 C 180.2 70.4 180.5 70.6 180.7 70.8 C 180.9 71.1 181 71.4 181.1 71.7 C 181.1 72 181.1 72.4 181.1 72.9 C 181.13 72.93 181.1 77.4 181.1 77.4 L 179.9 77.4 C 179.9 77.4 179.9 72.98 179.9 73 C 179.9 72.5 179.9 72.1 179.8 71.9 C 179.7 71.6 179.5 71.4 179.2 71.3 C 179 71.1 178.7 71 178.4 71 C 177.9 71 177.4 71.2 177 71.5 C 176.7 71.9 176.5 72.5 176.5 73.4 C 176.46 73.43 176.5 77.4 176.5 77.4 L 175.2 77.4 Z M 188 75.1 C 188 75.1 189.3 75.2 189.3 75.2 C 189.1 76 188.7 76.5 188.1 76.9 C 187.6 77.4 186.9 77.6 186.1 77.6 C 185 77.6 184.2 77.2 183.5 76.6 C 182.9 75.9 182.6 75 182.6 73.8 C 182.6 72.6 182.9 71.7 183.6 71 C 184.2 70.3 185 70 186 70 C 187 70 187.8 70.3 188.4 71 C 189 71.6 189.3 72.6 189.3 73.7 C 189.3 73.8 189.3 73.9 189.3 74.1 C 189.3 74.1 183.9 74.1 183.9 74.1 C 183.9 74.9 184.2 75.5 184.6 75.9 C 185 76.3 185.5 76.5 186.1 76.5 C 186.5 76.5 186.9 76.4 187.2 76.2 C 187.5 76 187.8 75.6 188 75.1 Z M 183.9 73.1 C 183.9 73.1 188 73.1 188 73.1 C 187.9 72.5 187.8 72 187.5 71.7 C 187.1 71.2 186.6 71 186 71 C 185.4 71 185 71.2 184.6 71.5 C 184.2 71.9 184 72.4 183.9 73.1 Z M 190.8 77.4 L 190.8 70.1 L 191.9 70.1 C 191.9 70.1 191.9 71.23 191.9 71.2 C 192.2 70.7 192.4 70.4 192.7 70.2 C 192.9 70.1 193.2 70 193.5 70 C 193.9 70 194.3 70.1 194.7 70.4 C 194.7 70.4 194.3 71.5 194.3 71.5 C 194 71.3 193.7 71.2 193.4 71.2 C 193.1 71.2 192.9 71.3 192.7 71.5 C 192.5 71.6 192.3 71.9 192.2 72.2 C 192.1 72.6 192 73.1 192 73.6 C 192.02 73.59 192 77.4 192 77.4 L 190.8 77.4 Z " stroke="none" fill="#000"/>  </g>  <g id="Polygon111855">    <path d="M 1.1 60.6 L 1.1 50.7 L 3.1 50.7 L 3.1 58.9 L 8.1 58.9 L 8.1 60.6 L 1.1 60.6 Z M 12.9 60.6 L 12.9 58.6 L 8.8 58.6 L 8.8 56.9 L 13.2 50.5 L 14.8 50.5 L 14.8 56.9 L 16 56.9 L 16 58.6 L 14.8 58.6 L 14.8 60.6 L 12.9 60.6 Z M 12.9 56.9 L 12.9 53.5 L 10.6 56.9 L 12.9 56.9 Z M 21.3 60.6 L 21.3 50.6 C 21.3 50.6 24.76 50.57 24.8 50.6 C 25.5 50.6 26.1 50.6 26.5 50.7 C 27.1 50.8 27.6 51.1 28 51.4 C 28.5 51.9 28.9 52.4 29.2 53.1 C 29.5 53.8 29.6 54.6 29.6 55.5 C 29.6 56.3 29.5 57 29.3 57.6 C 29.1 58.1 28.9 58.6 28.6 59 C 28.4 59.4 28.1 59.7 27.7 59.9 C 27.4 60.1 27 60.3 26.5 60.4 C 26.1 60.5 25.5 60.6 24.9 60.6 C 24.92 60.59 21.3 60.6 21.3 60.6 Z M 22.6 59.4 C 22.6 59.4 24.77 59.41 24.8 59.4 C 25.4 59.4 26 59.3 26.3 59.2 C 26.7 59.1 27 58.9 27.2 58.7 C 27.5 58.4 27.8 58 28 57.4 C 28.1 56.9 28.2 56.3 28.2 55.5 C 28.2 54.5 28.1 53.7 27.7 53.1 C 27.4 52.5 26.9 52.1 26.5 52 C 26.1 51.8 25.5 51.8 24.7 51.8 C 24.74 51.75 22.6 51.8 22.6 51.8 L 22.6 59.4 Z M 36.2 60.6 C 36.1 60.3 36 60 36 59.7 C 35.5 60.1 35.1 60.4 34.7 60.5 C 34.3 60.7 33.8 60.8 33.3 60.8 C 32.5 60.8 31.9 60.6 31.5 60.2 C 31.1 59.8 30.8 59.3 30.8 58.7 C 30.8 58.3 30.9 58 31.1 57.7 C 31.2 57.4 31.5 57.2 31.7 57 C 32 56.8 32.3 56.7 32.6 56.6 C 32.8 56.5 33.2 56.5 33.7 56.4 C 34.7 56.3 35.4 56.1 35.9 56 C 35.9 55.8 35.9 55.7 35.9 55.7 C 35.9 55.2 35.8 54.8 35.6 54.6 C 35.2 54.3 34.8 54.2 34.2 54.2 C 33.6 54.2 33.1 54.3 32.9 54.5 C 32.6 54.7 32.4 55.1 32.3 55.6 C 32.3 55.6 31.1 55.4 31.1 55.4 C 31.2 54.9 31.3 54.5 31.6 54.2 C 31.8 53.8 32.2 53.6 32.7 53.4 C 33.2 53.3 33.7 53.2 34.3 53.2 C 34.9 53.2 35.5 53.2 35.8 53.4 C 36.2 53.5 36.5 53.7 36.7 53.9 C 36.9 54.2 37 54.4 37.1 54.8 C 37.1 55 37.1 55.4 37.1 55.9 C 37.1 55.9 37.1 57.6 37.1 57.6 C 37.1 58.7 37.2 59.4 37.2 59.7 C 37.3 60 37.4 60.3 37.5 60.6 C 37.53 60.59 36.2 60.6 36.2 60.6 C 36.2 60.6 36.24 60.59 36.2 60.6 Z M 35.9 56.9 C 35.4 57.1 34.8 57.3 33.9 57.4 C 33.4 57.5 33 57.6 32.8 57.7 C 32.6 57.8 32.4 57.9 32.3 58.1 C 32.2 58.2 32.2 58.4 32.2 58.6 C 32.2 59 32.3 59.2 32.5 59.5 C 32.8 59.7 33.1 59.8 33.6 59.8 C 34.1 59.8 34.5 59.7 34.9 59.5 C 35.3 59.3 35.5 59 35.7 58.6 C 35.8 58.4 35.9 57.9 35.9 57.4 C 35.9 57.4 35.9 56.9 35.9 56.9 Z M 41.2 59.5 C 41.3 59.5 41.5 59.5 41.7 59.5 C 41.7 59.5 41.9 60.6 41.9 60.6 C 41.6 60.7 41.3 60.7 41 60.7 C 40.5 60.7 40.2 60.6 39.9 60.5 C 39.7 60.3 39.5 60.1 39.4 59.9 C 39.3 59.7 39.3 59.2 39.3 58.5 C 39.27 58.47 39.3 54.3 39.3 54.3 L 38.4 54.3 L 38.4 53.3 L 39.3 53.3 L 39.3 51.5 L 40.5 50.8 L 40.5 53.3 L 41.7 53.3 L 41.7 54.3 L 40.5 54.3 C 40.5 54.3 40.5 58.53 40.5 58.5 C 40.5 58.9 40.5 59.1 40.6 59.2 C 40.6 59.3 40.7 59.4 40.8 59.5 C 40.9 59.5 41 59.5 41.2 59.5 C 41.2 59.5 41.2 59.5 41.2 59.5 Z M 47.9 60.6 C 47.8 60.3 47.7 60 47.7 59.7 C 47.2 60.1 46.8 60.4 46.4 60.5 C 45.9 60.7 45.5 60.8 45 60.8 C 44.2 60.8 43.6 60.6 43.2 60.2 C 42.7 59.8 42.5 59.3 42.5 58.7 C 42.5 58.3 42.6 58 42.8 57.7 C 42.9 57.4 43.1 57.2 43.4 57 C 43.7 56.8 44 56.7 44.3 56.6 C 44.5 56.5 44.9 56.5 45.4 56.4 C 46.4 56.3 47.1 56.1 47.6 56 C 47.6 55.8 47.6 55.7 47.6 55.7 C 47.6 55.2 47.5 54.8 47.2 54.6 C 46.9 54.3 46.4 54.2 45.8 54.2 C 45.2 54.2 44.8 54.3 44.5 54.5 C 44.3 54.7 44.1 55.1 43.9 55.6 C 43.9 55.6 42.7 55.4 42.7 55.4 C 42.8 54.9 43 54.5 43.3 54.2 C 43.5 53.8 43.9 53.6 44.4 53.4 C 44.8 53.3 45.4 53.2 46 53.2 C 46.6 53.2 47.1 53.2 47.5 53.4 C 47.9 53.5 48.2 53.7 48.4 53.9 C 48.6 54.2 48.7 54.4 48.8 54.8 C 48.8 55 48.8 55.4 48.8 55.9 C 48.8 55.9 48.8 57.6 48.8 57.6 C 48.8 58.7 48.8 59.4 48.9 59.7 C 48.9 60 49.1 60.3 49.2 60.6 C 49.21 60.59 47.9 60.6 47.9 60.6 C 47.9 60.6 47.92 60.59 47.9 60.6 Z M 47.6 56.9 C 47.1 57.1 46.5 57.3 45.6 57.4 C 45.1 57.5 44.7 57.6 44.5 57.7 C 44.3 57.8 44.1 57.9 44 58.1 C 43.9 58.2 43.8 58.4 43.8 58.6 C 43.8 59 44 59.2 44.2 59.5 C 44.5 59.7 44.8 59.8 45.3 59.8 C 45.8 59.8 46.2 59.7 46.6 59.5 C 46.9 59.3 47.2 59 47.4 58.6 C 47.5 58.4 47.6 57.9 47.6 57.4 C 47.6 57.4 47.6 56.9 47.6 56.9 Z M 52.9 60.6 L 56.7 50.6 L 58.2 50.6 L 62.3 60.6 L 60.8 60.6 L 59.6 57.6 L 55.4 57.6 L 54.3 60.6 L 52.9 60.6 Z M 55.8 56.5 L 59.2 56.5 C 59.2 56.5 58.14 53.7 58.1 53.7 C 57.8 52.9 57.6 52.2 57.4 51.6 C 57.3 52.3 57.1 52.9 56.9 53.5 C 56.89 53.54 55.8 56.5 55.8 56.5 Z M 63.2 60.6 L 63.2 53.3 L 64.3 53.3 C 64.3 53.3 64.29 54.36 64.3 54.4 C 64.8 53.6 65.6 53.2 66.6 53.2 C 67 53.2 67.4 53.2 67.8 53.4 C 68.2 53.6 68.4 53.8 68.6 54 C 68.8 54.3 68.9 54.6 69 54.9 C 69.1 55.2 69.1 55.6 69.1 56.1 C 69.08 56.13 69.1 60.6 69.1 60.6 L 67.8 60.6 C 67.8 60.6 67.85 56.18 67.8 56.2 C 67.8 55.7 67.8 55.3 67.7 55.1 C 67.6 54.8 67.4 54.6 67.2 54.5 C 66.9 54.3 66.7 54.2 66.3 54.2 C 65.8 54.2 65.4 54.4 65 54.7 C 64.6 55.1 64.4 55.7 64.4 56.6 C 64.41 56.63 64.4 60.6 64.4 60.6 L 63.2 60.6 Z M 75.9 60.6 C 75.8 60.3 75.7 60 75.7 59.7 C 75.2 60.1 74.8 60.4 74.4 60.5 C 74 60.7 73.5 60.8 73 60.8 C 72.2 60.8 71.6 60.6 71.2 60.2 C 70.8 59.8 70.5 59.3 70.5 58.7 C 70.5 58.3 70.6 58 70.8 57.7 C 71 57.4 71.2 57.2 71.4 57 C 71.7 56.8 72 56.7 72.3 56.6 C 72.6 56.5 72.9 56.5 73.4 56.4 C 74.4 56.3 75.1 56.1 75.6 56 C 75.6 55.8 75.6 55.7 75.6 55.7 C 75.6 55.2 75.5 54.8 75.3 54.6 C 74.9 54.3 74.5 54.2 73.9 54.2 C 73.3 54.2 72.8 54.3 72.6 54.5 C 72.3 54.7 72.1 55.1 72 55.6 C 72 55.6 70.8 55.4 70.8 55.4 C 70.9 54.9 71 54.5 71.3 54.2 C 71.5 53.8 71.9 53.6 72.4 53.4 C 72.9 53.3 73.4 53.2 74 53.2 C 74.7 53.2 75.2 53.2 75.5 53.4 C 75.9 53.5 76.2 53.7 76.4 53.9 C 76.6 54.2 76.7 54.4 76.8 54.8 C 76.8 55 76.8 55.4 76.8 55.9 C 76.8 55.9 76.8 57.6 76.8 57.6 C 76.8 58.7 76.9 59.4 76.9 59.7 C 77 60 77.1 60.3 77.2 60.6 C 77.23 60.59 75.9 60.6 75.9 60.6 C 75.9 60.6 75.95 60.59 75.9 60.6 Z M 75.6 56.9 C 75.2 57.1 74.5 57.3 73.6 57.4 C 73.1 57.5 72.7 57.6 72.5 57.7 C 72.3 57.8 72.1 57.9 72 58.1 C 71.9 58.2 71.9 58.4 71.9 58.6 C 71.9 59 72 59.2 72.2 59.5 C 72.5 59.7 72.8 59.8 73.3 59.8 C 73.8 59.8 74.2 59.7 74.6 59.5 C 75 59.3 75.2 59 75.4 58.6 C 75.5 58.4 75.6 57.9 75.6 57.4 C 75.6 57.4 75.6 56.9 75.6 56.9 Z M 78.7 60.6 L 78.7 50.6 L 80 50.6 L 80 60.6 L 78.7 60.6 Z M 82.6 63.5 C 82.4 63.5 82.1 63.5 81.8 63.4 C 81.8 63.4 81.7 62.2 81.7 62.2 C 81.9 62.3 82.2 62.3 82.4 62.3 C 82.6 62.3 82.9 62.3 83 62.2 C 83.2 62.1 83.3 62 83.4 61.8 C 83.5 61.7 83.6 61.4 83.8 60.9 C 83.8 60.8 83.9 60.7 83.9 60.6 C 83.92 60.61 81.2 53.3 81.2 53.3 L 82.5 53.3 C 82.5 53.3 84 57.54 84 57.5 C 84.2 58.1 84.4 58.6 84.5 59.2 C 84.7 58.7 84.8 58.1 85 57.6 C 85.03 57.56 86.6 53.3 86.6 53.3 L 87.8 53.3 C 87.8 53.3 85.05 60.72 85.1 60.7 C 84.8 61.5 84.5 62.1 84.4 62.4 C 84.1 62.8 83.9 63.1 83.6 63.3 C 83.3 63.4 83 63.5 82.6 63.5 C 82.6 63.5 82.6 63.5 82.6 63.5 Z M 88.4 58.4 C 88.4 58.4 89.6 58.2 89.6 58.2 C 89.7 58.7 89.8 59.1 90.2 59.4 C 90.5 59.6 90.9 59.7 91.5 59.7 C 92 59.7 92.4 59.6 92.7 59.4 C 93 59.2 93.1 58.9 93.1 58.6 C 93.1 58.3 93 58.1 92.8 57.9 C 92.6 57.8 92.2 57.7 91.5 57.5 C 90.6 57.3 90 57.1 89.6 56.9 C 89.3 56.8 89 56.5 88.8 56.2 C 88.7 55.9 88.6 55.6 88.6 55.3 C 88.6 54.9 88.6 54.6 88.8 54.4 C 88.9 54.1 89.1 53.9 89.4 53.7 C 89.6 53.5 89.9 53.4 90.2 53.3 C 90.5 53.2 90.9 53.2 91.2 53.2 C 91.8 53.2 92.3 53.3 92.7 53.4 C 93.2 53.6 93.5 53.8 93.7 54.1 C 93.9 54.4 94 54.7 94.1 55.2 C 94.1 55.2 92.9 55.4 92.9 55.4 C 92.9 55 92.7 54.7 92.4 54.5 C 92.2 54.3 91.8 54.2 91.3 54.2 C 90.8 54.2 90.4 54.3 90.1 54.5 C 89.9 54.6 89.8 54.9 89.8 55.1 C 89.8 55.3 89.8 55.4 89.9 55.5 C 90 55.7 90.2 55.8 90.4 55.9 C 90.5 55.9 90.9 56 91.5 56.2 C 92.3 56.4 92.9 56.6 93.3 56.8 C 93.6 56.9 93.9 57.1 94.1 57.4 C 94.3 57.7 94.4 58 94.4 58.5 C 94.4 58.9 94.3 59.3 94 59.6 C 93.8 60 93.5 60.3 93 60.5 C 92.6 60.7 92 60.8 91.5 60.8 C 90.5 60.8 89.8 60.6 89.3 60.2 C 88.8 59.8 88.5 59.2 88.4 58.4 Z M 98 59.5 C 98.1 59.5 98.3 59.5 98.5 59.5 C 98.5 59.5 98.7 60.6 98.7 60.6 C 98.4 60.7 98.1 60.7 97.8 60.7 C 97.3 60.7 97 60.6 96.8 60.5 C 96.5 60.3 96.3 60.1 96.2 59.9 C 96.1 59.7 96.1 59.2 96.1 58.5 C 96.09 58.47 96.1 54.3 96.1 54.3 L 95.2 54.3 L 95.2 53.3 L 96.1 53.3 L 96.1 51.5 L 97.3 50.8 L 97.3 53.3 L 98.5 53.3 L 98.5 54.3 L 97.3 54.3 C 97.3 54.3 97.31 58.53 97.3 58.5 C 97.3 58.9 97.3 59.1 97.4 59.2 C 97.4 59.3 97.5 59.4 97.6 59.5 C 97.7 59.5 97.8 59.5 98 59.5 C 98 59.5 98 59.5 98 59.5 Z " stroke="none" fill="#000000"/>  </g>  <g id="Polygon111854">    <path d="M 1.1 43.8 L 1.1 33.9 L 3.1 33.9 L 3.1 42.1 L 8.1 42.1 L 8.1 43.8 L 1.1 43.8 Z M 9.1 41.1 C 9.1 41.1 10.9 40.9 10.9 40.9 C 11 41.4 11.2 41.7 11.4 42 C 11.7 42.2 12 42.4 12.4 42.4 C 12.8 42.4 13.1 42.2 13.4 41.9 C 13.6 41.6 13.8 41.2 13.8 40.7 C 13.8 40.2 13.6 39.8 13.4 39.6 C 13.1 39.3 12.8 39.1 12.4 39.1 C 12.2 39.1 11.9 39.2 11.5 39.3 C 11.5 39.3 11.8 37.7 11.8 37.7 C 12.3 37.7 12.7 37.6 12.9 37.4 C 13.2 37.1 13.4 36.8 13.4 36.4 C 13.4 36.1 13.3 35.8 13.1 35.6 C 12.9 35.4 12.6 35.3 12.3 35.3 C 11.9 35.3 11.6 35.4 11.4 35.7 C 11.2 35.9 11 36.2 11 36.6 C 11 36.6 9.2 36.3 9.2 36.3 C 9.3 35.7 9.5 35.3 9.8 34.9 C 10 34.5 10.4 34.2 10.8 34 C 11.3 33.8 11.8 33.7 12.3 33.7 C 13.3 33.7 14 34 14.6 34.6 C 15.1 35.1 15.3 35.7 15.3 36.3 C 15.3 37.2 14.8 37.9 13.8 38.4 C 14.4 38.5 14.9 38.8 15.2 39.2 C 15.6 39.7 15.7 40.2 15.7 40.8 C 15.7 41.7 15.4 42.4 14.8 43 C 14.1 43.7 13.3 44 12.4 44 C 11.5 44 10.7 43.7 10.1 43.2 C 9.5 42.7 9.2 42 9.1 41.1 Z M 21.3 43.8 L 21.3 33.8 C 21.3 33.8 24.76 33.77 24.8 33.8 C 25.5 33.8 26.1 33.8 26.5 33.9 C 27.1 34 27.6 34.3 28 34.6 C 28.5 35.1 28.9 35.6 29.2 36.3 C 29.5 37 29.6 37.8 29.6 38.7 C 29.6 39.5 29.5 40.2 29.3 40.8 C 29.1 41.3 28.9 41.8 28.6 42.2 C 28.4 42.6 28.1 42.9 27.7 43.1 C 27.4 43.3 27 43.5 26.5 43.6 C 26.1 43.7 25.5 43.8 24.9 43.8 C 24.92 43.79 21.3 43.8 21.3 43.8 Z M 22.6 42.6 C 22.6 42.6 24.77 42.61 24.8 42.6 C 25.4 42.6 26 42.5 26.3 42.4 C 26.7 42.3 27 42.1 27.2 41.9 C 27.5 41.6 27.8 41.2 28 40.6 C 28.1 40.1 28.2 39.5 28.2 38.7 C 28.2 37.7 28.1 36.9 27.7 36.3 C 27.4 35.7 26.9 35.4 26.5 35.2 C 26.1 35 25.5 35 24.7 35 C 24.74 34.95 22.6 35 22.6 35 L 22.6 42.6 Z M 36.2 43.8 C 36.1 43.5 36 43.2 36 42.9 C 35.5 43.3 35.1 43.6 34.7 43.7 C 34.3 43.9 33.8 44 33.3 44 C 32.5 44 31.9 43.8 31.5 43.4 C 31.1 43 30.8 42.5 30.8 41.9 C 30.8 41.5 30.9 41.2 31.1 40.9 C 31.2 40.6 31.5 40.4 31.7 40.2 C 32 40 32.3 39.9 32.6 39.8 C 32.8 39.7 33.2 39.7 33.7 39.6 C 34.7 39.5 35.4 39.3 35.9 39.2 C 35.9 39 35.9 38.9 35.9 38.9 C 35.9 38.4 35.8 38 35.6 37.8 C 35.2 37.5 34.8 37.4 34.2 37.4 C 33.6 37.4 33.1 37.5 32.9 37.7 C 32.6 37.9 32.4 38.3 32.3 38.8 C 32.3 38.8 31.1 38.6 31.1 38.6 C 31.2 38.1 31.3 37.7 31.6 37.4 C 31.8 37 32.2 36.8 32.7 36.6 C 33.2 36.5 33.7 36.4 34.3 36.4 C 34.9 36.4 35.5 36.4 35.8 36.6 C 36.2 36.7 36.5 36.9 36.7 37.1 C 36.9 37.4 37 37.6 37.1 38 C 37.1 38.2 37.1 38.6 37.1 39.1 C 37.1 39.1 37.1 40.8 37.1 40.8 C 37.1 41.9 37.2 42.6 37.2 42.9 C 37.3 43.2 37.4 43.5 37.5 43.8 C 37.53 43.79 36.2 43.8 36.2 43.8 C 36.2 43.8 36.24 43.79 36.2 43.8 Z M 35.9 40.1 C 35.4 40.3 34.8 40.5 33.9 40.6 C 33.4 40.7 33 40.8 32.8 40.9 C 32.6 41 32.4 41.1 32.3 41.3 C 32.2 41.4 32.2 41.6 32.2 41.8 C 32.2 42.2 32.3 42.4 32.5 42.7 C 32.8 42.9 33.1 43 33.6 43 C 34.1 43 34.5 42.9 34.9 42.7 C 35.3 42.5 35.5 42.2 35.7 41.8 C 35.8 41.6 35.9 41.1 35.9 40.6 C 35.9 40.6 35.9 40.1 35.9 40.1 Z M 41.2 42.7 C 41.3 42.7 41.5 42.7 41.7 42.7 C 41.7 42.7 41.9 43.8 41.9 43.8 C 41.6 43.9 41.3 43.9 41 43.9 C 40.5 43.9 40.2 43.8 39.9 43.7 C 39.7 43.5 39.5 43.3 39.4 43.1 C 39.3 42.9 39.3 42.4 39.3 41.7 C 39.27 41.67 39.3 37.5 39.3 37.5 L 38.4 37.5 L 38.4 36.5 L 39.3 36.5 L 39.3 34.7 L 40.5 34 L 40.5 36.5 L 41.7 36.5 L 41.7 37.5 L 40.5 37.5 C 40.5 37.5 40.5 41.73 40.5 41.7 C 40.5 42.1 40.5 42.3 40.6 42.4 C 40.6 42.5 40.7 42.6 40.8 42.7 C 40.9 42.7 41 42.7 41.2 42.7 C 41.2 42.7 41.2 42.7 41.2 42.7 Z M 47.9 43.8 C 47.8 43.5 47.7 43.2 47.7 42.9 C 47.2 43.3 46.8 43.6 46.4 43.7 C 45.9 43.9 45.5 44 45 44 C 44.2 44 43.6 43.8 43.2 43.4 C 42.7 43 42.5 42.5 42.5 41.9 C 42.5 41.5 42.6 41.2 42.8 40.9 C 42.9 40.6 43.1 40.4 43.4 40.2 C 43.7 40 44 39.9 44.3 39.8 C 44.5 39.7 44.9 39.7 45.4 39.6 C 46.4 39.5 47.1 39.3 47.6 39.2 C 47.6 39 47.6 38.9 47.6 38.9 C 47.6 38.4 47.5 38 47.2 37.8 C 46.9 37.5 46.4 37.4 45.8 37.4 C 45.2 37.4 44.8 37.5 44.5 37.7 C 44.3 37.9 44.1 38.3 43.9 38.8 C 43.9 38.8 42.7 38.6 42.7 38.6 C 42.8 38.1 43 37.7 43.3 37.4 C 43.5 37 43.9 36.8 44.4 36.6 C 44.8 36.5 45.4 36.4 46 36.4 C 46.6 36.4 47.1 36.4 47.5 36.6 C 47.9 36.7 48.2 36.9 48.4 37.1 C 48.6 37.4 48.7 37.6 48.8 38 C 48.8 38.2 48.8 38.6 48.8 39.1 C 48.8 39.1 48.8 40.8 48.8 40.8 C 48.8 41.9 48.8 42.6 48.9 42.9 C 48.9 43.2 49.1 43.5 49.2 43.8 C 49.21 43.79 47.9 43.8 47.9 43.8 C 47.9 43.8 47.92 43.79 47.9 43.8 Z M 47.6 40.1 C 47.1 40.3 46.5 40.5 45.6 40.6 C 45.1 40.7 44.7 40.8 44.5 40.9 C 44.3 41 44.1 41.1 44 41.3 C 43.9 41.4 43.8 41.6 43.8 41.8 C 43.8 42.2 44 42.4 44.2 42.7 C 44.5 42.9 44.8 43 45.3 43 C 45.8 43 46.2 42.9 46.6 42.7 C 46.9 42.5 47.2 42.2 47.4 41.8 C 47.5 41.6 47.6 41.1 47.6 40.6 C 47.6 40.6 47.6 40.1 47.6 40.1 Z M 57.1 43.8 L 57.1 35 L 53.8 35 L 53.8 33.8 L 61.7 33.8 L 61.7 35 L 58.4 35 L 58.4 43.8 L 57.1 43.8 Z M 66.3 41.5 C 66.3 41.5 67.6 41.6 67.6 41.6 C 67.4 42.4 67 42.9 66.5 43.3 C 65.9 43.8 65.3 44 64.4 44 C 63.3 44 62.5 43.6 61.9 43 C 61.3 42.3 60.9 41.4 60.9 40.2 C 60.9 39 61.3 38.1 61.9 37.4 C 62.5 36.7 63.3 36.4 64.3 36.4 C 65.3 36.4 66.1 36.7 66.7 37.4 C 67.3 38 67.6 39 67.6 40.1 C 67.6 40.2 67.6 40.3 67.6 40.5 C 67.6 40.5 62.2 40.5 62.2 40.5 C 62.3 41.3 62.5 41.9 62.9 42.3 C 63.3 42.7 63.8 42.9 64.4 42.9 C 64.9 42.9 65.3 42.8 65.6 42.6 C 65.9 42.4 66.1 42 66.3 41.5 Z M 62.3 39.5 C 62.3 39.5 66.3 39.5 66.3 39.5 C 66.3 38.9 66.1 38.4 65.9 38.1 C 65.5 37.6 65 37.4 64.4 37.4 C 63.8 37.4 63.3 37.6 62.9 37.9 C 62.5 38.3 62.3 38.8 62.3 39.5 Z M 73.9 41.1 C 73.9 41.1 75.1 41.3 75.1 41.3 C 75 42.1 74.6 42.8 74.1 43.2 C 73.5 43.7 72.9 44 72.1 44 C 71.1 44 70.3 43.6 69.7 43 C 69.1 42.3 68.8 41.4 68.8 40.2 C 68.8 39.4 68.9 38.7 69.2 38.1 C 69.4 37.5 69.8 37.1 70.3 36.8 C 70.9 36.5 71.5 36.4 72.1 36.4 C 72.9 36.4 73.5 36.6 74 37 C 74.5 37.4 74.8 37.9 75 38.7 C 75 38.7 73.8 38.9 73.8 38.9 C 73.7 38.4 73.5 38 73.2 37.7 C 72.9 37.5 72.5 37.4 72.1 37.4 C 71.5 37.4 71 37.6 70.6 38 C 70.2 38.5 70 39.2 70 40.2 C 70 41.1 70.2 41.8 70.6 42.3 C 71 42.7 71.5 42.9 72.1 42.9 C 72.5 42.9 72.9 42.8 73.3 42.5 C 73.6 42.2 73.8 41.7 73.9 41.1 Z M 76.1 43.8 L 76.1 33.8 L 77.4 33.8 C 77.4 33.8 77.38 37.37 77.4 37.4 C 78 36.7 78.7 36.4 79.5 36.4 C 80.1 36.4 80.6 36.5 81 36.7 C 81.3 36.9 81.6 37.2 81.8 37.6 C 82 37.9 82.1 38.5 82.1 39.2 C 82.06 39.19 82.1 43.8 82.1 43.8 L 80.8 43.8 C 80.8 43.8 80.83 39.19 80.8 39.2 C 80.8 38.6 80.7 38.1 80.4 37.8 C 80.2 37.6 79.8 37.4 79.3 37.4 C 78.9 37.4 78.6 37.5 78.3 37.7 C 77.9 37.9 77.7 38.2 77.6 38.5 C 77.4 38.8 77.4 39.3 77.4 39.8 C 77.38 39.82 77.4 43.8 77.4 43.8 L 76.1 43.8 Z M 83.9 43.8 L 83.9 36.5 L 85 36.5 C 85 36.5 85.04 37.56 85 37.6 C 85.6 36.8 86.3 36.4 87.3 36.4 C 87.8 36.4 88.2 36.4 88.6 36.6 C 88.9 36.8 89.2 37 89.4 37.2 C 89.6 37.5 89.7 37.8 89.8 38.1 C 89.8 38.4 89.8 38.8 89.8 39.3 C 89.83 39.33 89.8 43.8 89.8 43.8 L 88.6 43.8 C 88.6 43.8 88.6 39.38 88.6 39.4 C 88.6 38.9 88.6 38.5 88.5 38.3 C 88.4 38 88.2 37.8 87.9 37.7 C 87.7 37.5 87.4 37.4 87.1 37.4 C 86.6 37.4 86.1 37.6 85.7 37.9 C 85.4 38.3 85.2 38.9 85.2 39.8 C 85.16 39.83 85.2 43.8 85.2 43.8 L 83.9 43.8 Z M 91.7 35.2 L 91.7 33.8 L 93 33.8 L 93 35.2 L 91.7 35.2 Z M 91.7 43.8 L 91.7 36.5 L 93 36.5 L 93 43.8 L 91.7 43.8 Z M 99.6 41.1 C 99.6 41.1 100.8 41.3 100.8 41.3 C 100.6 42.1 100.3 42.8 99.8 43.2 C 99.2 43.7 98.5 44 97.8 44 C 96.8 44 96 43.6 95.4 43 C 94.8 42.3 94.5 41.4 94.5 40.2 C 94.5 39.4 94.6 38.7 94.8 38.1 C 95.1 37.5 95.5 37.1 96 36.8 C 96.6 36.5 97.1 36.4 97.8 36.4 C 98.5 36.4 99.2 36.6 99.7 37 C 100.2 37.4 100.5 37.9 100.7 38.7 C 100.7 38.7 99.5 38.9 99.5 38.9 C 99.3 38.4 99.1 38 98.9 37.7 C 98.6 37.5 98.2 37.4 97.8 37.4 C 97.2 37.4 96.7 37.6 96.3 38 C 95.9 38.5 95.7 39.2 95.7 40.2 C 95.7 41.1 95.9 41.8 96.3 42.3 C 96.7 42.7 97.1 42.9 97.7 42.9 C 98.2 42.9 98.6 42.8 99 42.5 C 99.3 42.2 99.5 41.7 99.6 41.1 Z M 101.8 35.2 L 101.8 33.8 L 103.1 33.8 L 103.1 35.2 L 101.8 35.2 Z M 101.8 43.8 L 101.8 36.5 L 103.1 36.5 L 103.1 43.8 L 101.8 43.8 Z M 109.9 43.8 C 109.8 43.5 109.7 43.2 109.7 42.9 C 109.2 43.3 108.8 43.6 108.4 43.7 C 107.9 43.9 107.5 44 107 44 C 106.2 44 105.6 43.8 105.2 43.4 C 104.7 43 104.5 42.5 104.5 41.9 C 104.5 41.5 104.6 41.2 104.8 40.9 C 104.9 40.6 105.1 40.4 105.4 40.2 C 105.7 40 106 39.9 106.3 39.8 C 106.5 39.7 106.9 39.7 107.4 39.6 C 108.4 39.5 109.1 39.3 109.6 39.2 C 109.6 39 109.6 38.9 109.6 38.9 C 109.6 38.4 109.5 38 109.2 37.8 C 108.9 37.5 108.4 37.4 107.8 37.4 C 107.3 37.4 106.8 37.5 106.5 37.7 C 106.3 37.9 106.1 38.3 105.9 38.8 C 105.9 38.8 104.7 38.6 104.7 38.6 C 104.8 38.1 105 37.7 105.3 37.4 C 105.5 37 105.9 36.8 106.4 36.6 C 106.8 36.5 107.4 36.4 108 36.4 C 108.6 36.4 109.1 36.4 109.5 36.6 C 109.9 36.7 110.2 36.9 110.4 37.1 C 110.6 37.4 110.7 37.6 110.8 38 C 110.8 38.2 110.8 38.6 110.8 39.1 C 110.8 39.1 110.8 40.8 110.8 40.8 C 110.8 41.9 110.8 42.6 110.9 42.9 C 110.9 43.2 111.1 43.5 111.2 43.8 C 111.21 43.79 109.9 43.8 109.9 43.8 C 109.9 43.8 109.92 43.79 109.9 43.8 Z M 109.6 40.1 C 109.1 40.3 108.5 40.5 107.6 40.6 C 107.1 40.7 106.7 40.8 106.5 40.9 C 106.3 41 106.1 41.1 106 41.3 C 105.9 41.4 105.8 41.6 105.8 41.8 C 105.8 42.2 106 42.4 106.2 42.7 C 106.5 42.9 106.8 43 107.3 43 C 107.8 43 108.2 42.9 108.6 42.7 C 108.9 42.5 109.2 42.2 109.4 41.8 C 109.5 41.6 109.6 41.1 109.6 40.6 C 109.6 40.6 109.6 40.1 109.6 40.1 Z M 112.7 43.8 L 112.7 36.5 L 113.8 36.5 C 113.8 36.5 113.83 37.56 113.8 37.6 C 114.4 36.8 115.1 36.4 116.1 36.4 C 116.6 36.4 117 36.4 117.3 36.6 C 117.7 36.8 118 37 118.2 37.2 C 118.4 37.5 118.5 37.8 118.6 38.1 C 118.6 38.4 118.6 38.8 118.6 39.3 C 118.62 39.33 118.6 43.8 118.6 43.8 L 117.4 43.8 C 117.4 43.8 117.39 39.38 117.4 39.4 C 117.4 38.9 117.3 38.5 117.3 38.3 C 117.2 38 117 37.8 116.7 37.7 C 116.5 37.5 116.2 37.4 115.9 37.4 C 115.4 37.4 114.9 37.6 114.5 37.9 C 114.1 38.3 114 38.9 114 39.8 C 113.96 39.83 114 43.8 114 43.8 L 112.7 43.8 Z " stroke="none" fill="#000000"/>  </g>  <g id="Polygon111853">    <path d="M 20.2 27 L 24.1 17 L 25.5 17 L 29.6 27 L 28.1 27 L 26.9 24 L 22.7 24 L 21.6 27 L 20.2 27 Z M 23.1 22.9 L 26.5 22.9 C 26.5 22.9 25.45 20.1 25.5 20.1 C 25.1 19.3 24.9 18.6 24.7 18 C 24.6 18.7 24.4 19.3 24.2 19.9 C 24.2 19.94 23.1 22.9 23.1 22.9 Z M 30.5 29.8 L 30.5 19.7 L 31.6 19.7 C 31.6 19.7 31.61 20.68 31.6 20.7 C 31.9 20.3 32.2 20 32.5 19.8 C 32.8 19.7 33.2 19.6 33.7 19.6 C 34.3 19.6 34.9 19.7 35.4 20 C 35.8 20.4 36.2 20.8 36.4 21.4 C 36.7 22 36.8 22.6 36.8 23.3 C 36.8 24.1 36.7 24.7 36.4 25.3 C 36.1 25.9 35.7 26.4 35.2 26.7 C 34.7 27 34.2 27.2 33.6 27.2 C 33.2 27.2 32.8 27.1 32.5 26.9 C 32.2 26.7 31.9 26.5 31.7 26.2 C 31.72 26.24 31.7 29.8 31.7 29.8 L 30.5 29.8 Z M 31.6 23.4 C 31.6 24.3 31.8 25 32.2 25.5 C 32.5 25.9 33 26.1 33.5 26.1 C 34.1 26.1 34.6 25.9 34.9 25.5 C 35.3 25 35.5 24.3 35.5 23.3 C 35.5 22.4 35.3 21.7 35 21.2 C 34.6 20.8 34.1 20.5 33.6 20.5 C 33.1 20.5 32.6 20.8 32.2 21.3 C 31.8 21.8 31.6 22.5 31.6 23.4 Z M 38.3 29.8 L 38.3 19.7 L 39.4 19.7 C 39.4 19.7 39.4 20.68 39.4 20.7 C 39.7 20.3 40 20 40.3 19.8 C 40.6 19.7 41 19.6 41.5 19.6 C 42.1 19.6 42.7 19.7 43.1 20 C 43.6 20.4 44 20.8 44.2 21.4 C 44.5 22 44.6 22.6 44.6 23.3 C 44.6 24.1 44.4 24.7 44.2 25.3 C 43.9 25.9 43.5 26.4 43 26.7 C 42.5 27 42 27.2 41.4 27.2 C 41 27.2 40.6 27.1 40.3 26.9 C 40 26.7 39.7 26.5 39.5 26.2 C 39.5 26.24 39.5 29.8 39.5 29.8 L 38.3 29.8 Z M 39.4 23.4 C 39.4 24.3 39.6 25 40 25.5 C 40.3 25.9 40.8 26.1 41.3 26.1 C 41.9 26.1 42.3 25.9 42.7 25.5 C 43.1 25 43.3 24.3 43.3 23.3 C 43.3 22.4 43.1 21.7 42.7 21.2 C 42.4 20.8 41.9 20.5 41.4 20.5 C 40.9 20.5 40.4 20.8 40 21.3 C 39.6 21.8 39.4 22.5 39.4 23.4 Z M 46 27 L 46 19.7 L 47.2 19.7 C 47.2 19.7 47.15 20.83 47.2 20.8 C 47.4 20.3 47.7 20 47.9 19.8 C 48.2 19.7 48.4 19.6 48.7 19.6 C 49.1 19.6 49.6 19.7 50 20 C 50 20 49.6 21.1 49.6 21.1 C 49.3 20.9 49 20.8 48.7 20.8 C 48.4 20.8 48.2 20.9 47.9 21.1 C 47.7 21.2 47.6 21.5 47.5 21.8 C 47.3 22.2 47.3 22.7 47.3 23.2 C 47.28 23.19 47.3 27 47.3 27 L 46 27 Z M 55.7 24.7 C 55.7 24.7 57 24.8 57 24.8 C 56.8 25.6 56.4 26.1 55.8 26.5 C 55.3 27 54.6 27.2 53.8 27.2 C 52.7 27.2 51.9 26.8 51.2 26.2 C 50.6 25.5 50.3 24.6 50.3 23.4 C 50.3 22.2 50.6 21.3 51.3 20.6 C 51.9 19.9 52.7 19.6 53.7 19.6 C 54.7 19.6 55.5 19.9 56.1 20.6 C 56.7 21.2 57 22.2 57 23.3 C 57 23.4 57 23.5 57 23.7 C 57 23.7 51.6 23.7 51.6 23.7 C 51.6 24.5 51.9 25.1 52.3 25.5 C 52.7 25.9 53.2 26.1 53.8 26.1 C 54.2 26.1 54.6 26 54.9 25.8 C 55.3 25.6 55.5 25.2 55.7 24.7 Z M 51.7 22.7 C 51.7 22.7 55.7 22.7 55.7 22.7 C 55.7 22.1 55.5 21.6 55.2 21.3 C 54.8 20.8 54.3 20.6 53.7 20.6 C 53.2 20.6 52.7 20.8 52.3 21.1 C 51.9 21.5 51.7 22 51.7 22.7 Z M 58.5 27 L 58.5 19.7 L 59.6 19.7 C 59.6 19.7 59.62 20.76 59.6 20.8 C 60.1 20 60.9 19.6 61.9 19.6 C 62.4 19.6 62.8 19.6 63.1 19.8 C 63.5 20 63.8 20.2 64 20.4 C 64.1 20.7 64.3 21 64.3 21.3 C 64.4 21.6 64.4 22 64.4 22.5 C 64.41 22.53 64.4 27 64.4 27 L 63.2 27 C 63.2 27 63.18 22.58 63.2 22.6 C 63.2 22.1 63.1 21.7 63 21.5 C 62.9 21.2 62.8 21 62.5 20.9 C 62.3 20.7 62 20.6 61.7 20.6 C 61.1 20.6 60.7 20.8 60.3 21.1 C 59.9 21.5 59.7 22.1 59.7 23 C 59.74 23.03 59.7 27 59.7 27 L 58.5 27 Z M 68.4 25.9 C 68.6 25.9 68.8 25.9 69 25.9 C 69 25.9 69.2 27 69.2 27 C 68.8 27.1 68.5 27.1 68.2 27.1 C 67.8 27.1 67.4 27 67.2 26.9 C 66.9 26.7 66.8 26.5 66.7 26.3 C 66.6 26.1 66.5 25.6 66.5 24.9 C 66.52 24.87 66.5 20.7 66.5 20.7 L 65.6 20.7 L 65.6 19.7 L 66.5 19.7 L 66.5 17.9 L 67.7 17.2 L 67.7 19.7 L 69 19.7 L 69 20.7 L 67.7 20.7 C 67.7 20.7 67.74 24.93 67.7 24.9 C 67.7 25.3 67.8 25.5 67.8 25.6 C 67.9 25.7 67.9 25.8 68 25.9 C 68.1 25.9 68.3 25.9 68.4 25.9 C 68.4 25.9 68.4 25.9 68.4 25.9 Z M 70.2 18.4 L 70.2 17 L 71.4 17 L 71.4 18.4 L 70.2 18.4 Z M 70.2 27 L 70.2 19.7 L 71.4 19.7 L 71.4 27 L 70.2 27 Z M 78 24.3 C 78 24.3 79.2 24.5 79.2 24.5 C 79.1 25.3 78.8 26 78.2 26.4 C 77.7 26.9 77 27.2 76.2 27.2 C 75.2 27.2 74.4 26.8 73.8 26.2 C 73.2 25.5 72.9 24.6 72.9 23.4 C 72.9 22.6 73 21.9 73.3 21.3 C 73.6 20.7 74 20.3 74.5 20 C 75 19.7 75.6 19.6 76.2 19.6 C 77 19.6 77.7 19.8 78.2 20.2 C 78.7 20.6 79 21.1 79.1 21.9 C 79.1 21.9 77.9 22 77.9 22 C 77.8 21.6 77.6 21.2 77.3 20.9 C 77 20.7 76.7 20.6 76.3 20.6 C 75.7 20.6 75.2 20.8 74.8 21.2 C 74.4 21.7 74.2 22.4 74.2 23.4 C 74.2 24.3 74.4 25 74.7 25.5 C 75.1 25.9 75.6 26.1 76.2 26.1 C 76.7 26.1 77.1 26 77.4 25.7 C 77.7 25.4 77.9 24.9 78 24.3 Z M 85.3 24.7 C 85.3 24.7 86.5 24.8 86.5 24.8 C 86.3 25.6 86 26.1 85.4 26.5 C 84.9 27 84.2 27.2 83.3 27.2 C 82.3 27.2 81.4 26.8 80.8 26.2 C 80.2 25.5 79.9 24.6 79.9 23.4 C 79.9 22.2 80.2 21.3 80.8 20.6 C 81.5 19.9 82.3 19.6 83.3 19.6 C 84.2 19.6 85 19.9 85.7 20.6 C 86.3 21.2 86.6 22.2 86.6 23.3 C 86.6 23.4 86.6 23.5 86.6 23.7 C 86.6 23.7 81.2 23.7 81.2 23.7 C 81.2 24.5 81.4 25.1 81.8 25.5 C 82.2 25.9 82.7 26.1 83.4 26.1 C 83.8 26.1 84.2 26 84.5 25.8 C 84.8 25.6 85.1 25.2 85.3 24.7 Z M 81.2 22.7 C 81.2 22.7 85.3 22.7 85.3 22.7 C 85.2 22.1 85.1 21.6 84.8 21.3 C 84.4 20.8 83.9 20.6 83.3 20.6 C 82.7 20.6 82.2 20.8 81.9 21.1 C 81.5 21.5 81.3 22 81.2 22.7 Z M 87.6 24.8 C 87.6 24.8 88.8 24.6 88.8 24.6 C 88.9 25.1 89.1 25.5 89.4 25.8 C 89.7 26 90.1 26.1 90.7 26.1 C 91.3 26.1 91.7 26 91.9 25.8 C 92.2 25.6 92.4 25.3 92.4 25 C 92.4 24.7 92.2 24.5 92 24.3 C 91.8 24.2 91.4 24.1 90.7 23.9 C 89.8 23.7 89.2 23.5 88.9 23.3 C 88.5 23.2 88.2 22.9 88.1 22.6 C 87.9 22.3 87.8 22 87.8 21.7 C 87.8 21.3 87.9 21 88 20.8 C 88.2 20.5 88.4 20.3 88.6 20.1 C 88.8 19.9 89.1 19.8 89.4 19.7 C 89.7 19.6 90.1 19.6 90.5 19.6 C 91 19.6 91.5 19.7 92 19.8 C 92.4 20 92.7 20.2 92.9 20.5 C 93.1 20.8 93.3 21.1 93.3 21.6 C 93.3 21.6 92.1 21.8 92.1 21.8 C 92.1 21.4 91.9 21.1 91.7 20.9 C 91.4 20.7 91 20.6 90.6 20.6 C 90 20.6 89.6 20.7 89.3 20.9 C 89.1 21 89 21.3 89 21.5 C 89 21.7 89 21.8 89.1 21.9 C 89.2 22.1 89.4 22.2 89.6 22.3 C 89.7 22.3 90.1 22.4 90.7 22.6 C 91.6 22.8 92.2 23 92.5 23.2 C 92.9 23.3 93.1 23.5 93.3 23.8 C 93.5 24.1 93.6 24.4 93.6 24.9 C 93.6 25.3 93.5 25.7 93.3 26 C 93 26.4 92.7 26.7 92.2 26.9 C 91.8 27.1 91.3 27.2 90.7 27.2 C 89.7 27.2 89 27 88.5 26.6 C 88 26.2 87.7 25.6 87.6 24.8 Z M 95.1 27 L 95.1 17 L 96.3 17 C 96.3 17 96.31 20.57 96.3 20.6 C 96.9 19.9 97.6 19.6 98.5 19.6 C 99 19.6 99.5 19.7 99.9 19.9 C 100.3 20.1 100.6 20.4 100.7 20.8 C 100.9 21.1 101 21.7 101 22.4 C 100.99 22.39 101 27 101 27 L 99.8 27 C 99.8 27 99.76 22.39 99.8 22.4 C 99.8 21.8 99.6 21.3 99.4 21 C 99.1 20.8 98.7 20.6 98.2 20.6 C 97.9 20.6 97.5 20.7 97.2 20.9 C 96.9 21.1 96.7 21.4 96.5 21.7 C 96.4 22 96.3 22.5 96.3 23 C 96.31 23.02 96.3 27 96.3 27 L 95.1 27 Z M 102.9 18.4 L 102.9 17 L 104.1 17 L 104.1 18.4 L 102.9 18.4 Z M 102.9 27 L 102.9 19.7 L 104.1 19.7 L 104.1 27 L 102.9 27 Z M 106 29.8 L 106 19.7 L 107.1 19.7 C 107.1 19.7 107.1 20.68 107.1 20.7 C 107.4 20.3 107.7 20 108 19.8 C 108.3 19.7 108.7 19.6 109.2 19.6 C 109.8 19.6 110.4 19.7 110.8 20 C 111.3 20.4 111.7 20.8 111.9 21.4 C 112.2 22 112.3 22.6 112.3 23.3 C 112.3 24.1 112.1 24.7 111.9 25.3 C 111.6 25.9 111.2 26.4 110.7 26.7 C 110.2 27 109.7 27.2 109.1 27.2 C 108.7 27.2 108.3 27.1 108 26.9 C 107.7 26.7 107.4 26.5 107.2 26.2 C 107.21 26.24 107.2 29.8 107.2 29.8 L 106 29.8 Z M 107.1 23.4 C 107.1 24.3 107.3 25 107.7 25.5 C 108 25.9 108.5 26.1 109 26.1 C 109.6 26.1 110 25.9 110.4 25.5 C 110.8 25 111 24.3 111 23.3 C 111 22.4 110.8 21.7 110.5 21.2 C 110.1 20.8 109.6 20.5 109.1 20.5 C 108.6 20.5 108.1 20.8 107.7 21.3 C 107.3 21.8 107.1 22.5 107.1 23.4 Z " stroke="none" fill="#000"/>  </g>  <g id="Polygon111852">    <path d="M 1.1 10.2 L 1.1 0.3 L 3.1 0.3 L 3.1 8.5 L 8.1 8.5 L 8.1 10.2 L 1.1 10.2 Z M 15.6 8.4 L 15.6 10.2 C 15.6 10.2 8.9 10.19 8.9 10.2 C 9 9.5 9.2 8.9 9.6 8.3 C 9.9 7.7 10.6 6.9 11.7 5.9 C 12.6 5.1 13.1 4.5 13.3 4.2 C 13.6 3.8 13.7 3.4 13.7 3.1 C 13.7 2.6 13.6 2.3 13.4 2.1 C 13.1 1.8 12.8 1.7 12.4 1.7 C 12 1.7 11.7 1.8 11.5 2.1 C 11.2 2.3 11.1 2.7 11 3.3 C 11 3.3 9.1 3.1 9.1 3.1 C 9.2 2 9.6 1.3 10.2 0.8 C 10.8 0.4 11.6 0.1 12.5 0.1 C 13.4 0.1 14.2 0.4 14.8 0.9 C 15.4 1.5 15.6 2.1 15.6 2.9 C 15.6 3.4 15.6 3.8 15.4 4.2 C 15.2 4.6 15 5 14.6 5.5 C 14.4 5.8 14 6.2 13.4 6.8 C 12.8 7.3 12.4 7.7 12.2 7.9 C 12.1 8.1 11.9 8.2 11.8 8.4 C 11.82 8.41 15.6 8.4 15.6 8.4 Z M 20.9 7 C 20.9 7 22.1 6.9 22.1 6.9 C 22.2 7.4 22.3 7.8 22.5 8.1 C 22.7 8.4 23.1 8.7 23.5 8.9 C 24 9.1 24.5 9.2 25.1 9.2 C 25.6 9.2 26 9.1 26.4 8.9 C 26.8 8.8 27.1 8.6 27.3 8.3 C 27.5 8.1 27.6 7.8 27.6 7.5 C 27.6 7.2 27.5 6.9 27.3 6.6 C 27.1 6.4 26.8 6.2 26.4 6.1 C 26.1 6 25.5 5.8 24.6 5.6 C 23.7 5.3 23 5.1 22.7 4.9 C 22.2 4.7 21.8 4.4 21.6 4 C 21.4 3.6 21.2 3.2 21.2 2.8 C 21.2 2.3 21.4 1.8 21.7 1.3 C 22 0.9 22.4 0.6 22.9 0.3 C 23.5 0.1 24.1 0 24.8 0 C 25.5 0 26.2 0.1 26.7 0.4 C 27.3 0.6 27.7 1 28 1.4 C 28.3 1.9 28.5 2.4 28.5 3 C 28.5 3 27.3 3.1 27.3 3.1 C 27.2 2.5 27 2 26.6 1.7 C 26.2 1.3 25.6 1.2 24.8 1.2 C 24 1.2 23.4 1.3 23.1 1.6 C 22.7 1.9 22.5 2.3 22.5 2.7 C 22.5 3 22.6 3.3 22.9 3.6 C 23.2 3.8 23.8 4 24.9 4.3 C 26 4.5 26.7 4.7 27.1 4.9 C 27.7 5.2 28.1 5.5 28.4 5.9 C 28.7 6.3 28.8 6.8 28.8 7.4 C 28.8 7.9 28.7 8.4 28.4 8.9 C 28.1 9.3 27.6 9.7 27.1 10 C 26.5 10.2 25.8 10.4 25.1 10.4 C 24.2 10.4 23.5 10.2 22.8 10 C 22.2 9.7 21.8 9.3 21.4 8.8 C 21.1 8.2 20.9 7.6 20.9 7 Z M 30 6.6 C 30 5.2 30.4 4.2 31.2 3.6 C 31.8 3 32.5 2.8 33.4 2.8 C 34.4 2.8 35.2 3.1 35.9 3.7 C 36.5 4.4 36.8 5.3 36.8 6.5 C 36.8 7.4 36.7 8.1 36.4 8.7 C 36.1 9.2 35.7 9.6 35.2 9.9 C 34.7 10.2 34.1 10.4 33.4 10.4 C 32.4 10.4 31.6 10 31 9.4 C 30.3 8.7 30 7.8 30 6.6 Z M 31.3 6.6 C 31.3 7.5 31.5 8.2 31.9 8.7 C 32.3 9.1 32.8 9.3 33.4 9.3 C 34 9.3 34.6 9.1 35 8.6 C 35.4 8.2 35.6 7.5 35.6 6.5 C 35.6 5.6 35.4 4.9 35 4.5 C 34.5 4 34 3.8 33.4 3.8 C 32.8 3.8 32.3 4 31.9 4.5 C 31.5 4.9 31.3 5.6 31.3 6.6 Z M 38.6 10.2 L 38.6 3.9 L 37.5 3.9 L 37.5 2.9 L 38.6 2.9 C 38.6 2.9 38.57 2.16 38.6 2.2 C 38.6 1.7 38.6 1.3 38.7 1.1 C 38.8 0.8 39 0.5 39.3 0.3 C 39.6 0.1 40 0 40.6 0 C 40.9 0 41.3 0 41.7 0.1 C 41.7 0.1 41.5 1.2 41.5 1.2 C 41.3 1.2 41 1.1 40.8 1.1 C 40.4 1.1 40.2 1.2 40 1.4 C 39.9 1.5 39.8 1.8 39.8 2.3 C 39.79 2.26 39.8 2.9 39.8 2.9 L 41.2 2.9 L 41.2 3.9 L 39.8 3.9 L 39.8 10.2 L 38.6 10.2 Z M 44.3 9.1 C 44.4 9.1 44.6 9.1 44.9 9.1 C 44.9 9.1 45 10.2 45 10.2 C 44.7 10.3 44.4 10.3 44.1 10.3 C 43.7 10.3 43.3 10.2 43.1 10.1 C 42.8 9.9 42.6 9.7 42.5 9.5 C 42.4 9.3 42.4 8.8 42.4 8.1 C 42.39 8.07 42.4 3.9 42.4 3.9 L 41.5 3.9 L 41.5 2.9 L 42.4 2.9 L 42.4 1.1 L 43.6 0.4 L 43.6 2.9 L 44.9 2.9 L 44.9 3.9 L 43.6 3.9 C 43.6 3.9 43.61 8.13 43.6 8.1 C 43.6 8.5 43.6 8.7 43.7 8.8 C 43.7 8.9 43.8 9 43.9 9.1 C 44 9.1 44.1 9.1 44.3 9.1 C 44.3 9.1 44.3 9.1 44.3 9.1 Z M 47.4 10.2 L 45.2 2.9 L 46.4 2.9 L 47.6 7.1 C 47.6 7.1 48.03 8.68 48 8.7 C 48 8.6 48.2 8.1 48.4 7.2 C 48.41 7.18 49.6 2.9 49.6 2.9 L 50.8 2.9 L 51.9 7.1 L 52.3 8.5 L 52.7 7.1 L 53.9 2.9 L 55.1 2.9 L 52.9 10.2 L 51.6 10.2 L 50.4 5.8 L 50.1 4.6 L 48.7 10.2 L 47.4 10.2 Z M 61.1 10.2 C 61 9.9 60.9 9.6 60.9 9.3 C 60.4 9.7 60 10 59.6 10.1 C 59.2 10.3 58.7 10.4 58.2 10.4 C 57.4 10.4 56.8 10.2 56.4 9.8 C 56 9.4 55.7 8.9 55.7 8.3 C 55.7 7.9 55.8 7.6 56 7.3 C 56.2 7 56.4 6.8 56.6 6.6 C 56.9 6.4 57.2 6.3 57.5 6.2 C 57.8 6.1 58.1 6.1 58.6 6 C 59.6 5.9 60.3 5.7 60.8 5.6 C 60.8 5.4 60.8 5.3 60.8 5.3 C 60.8 4.8 60.7 4.4 60.5 4.2 C 60.1 3.9 59.7 3.8 59.1 3.8 C 58.5 3.8 58 3.9 57.8 4.1 C 57.5 4.3 57.3 4.7 57.2 5.2 C 57.2 5.2 56 5 56 5 C 56.1 4.5 56.2 4.1 56.5 3.8 C 56.7 3.4 57.1 3.2 57.6 3 C 58.1 2.9 58.6 2.8 59.2 2.8 C 59.9 2.8 60.4 2.8 60.7 3 C 61.1 3.1 61.4 3.3 61.6 3.5 C 61.8 3.8 61.9 4 62 4.4 C 62 4.6 62 5 62 5.5 C 62 5.5 62 7.2 62 7.2 C 62 8.3 62.1 9 62.1 9.3 C 62.2 9.6 62.3 9.9 62.4 10.2 C 62.43 10.19 61.1 10.2 61.1 10.2 C 61.1 10.2 61.15 10.19 61.1 10.2 Z M 60.8 6.5 C 60.4 6.7 59.7 6.9 58.8 7 C 58.3 7.1 57.9 7.2 57.7 7.3 C 57.5 7.4 57.3 7.5 57.2 7.7 C 57.1 7.8 57.1 8 57.1 8.2 C 57.1 8.6 57.2 8.8 57.4 9.1 C 57.7 9.3 58 9.4 58.5 9.4 C 59 9.4 59.4 9.3 59.8 9.1 C 60.2 8.9 60.4 8.6 60.6 8.2 C 60.7 8 60.8 7.5 60.8 7 C 60.8 7 60.8 6.5 60.8 6.5 Z M 63.9 10.2 L 63.9 2.9 L 65 2.9 C 65 2.9 65.04 4.03 65 4 C 65.3 3.5 65.6 3.2 65.8 3 C 66.1 2.9 66.3 2.8 66.6 2.8 C 67 2.8 67.5 2.9 67.9 3.2 C 67.9 3.2 67.5 4.3 67.5 4.3 C 67.2 4.1 66.9 4 66.6 4 C 66.3 4 66 4.1 65.8 4.3 C 65.6 4.4 65.5 4.7 65.4 5 C 65.2 5.4 65.2 5.9 65.2 6.4 C 65.17 6.39 65.2 10.2 65.2 10.2 L 63.9 10.2 Z M 73.6 7.9 C 73.6 7.9 74.9 8 74.9 8 C 74.7 8.8 74.3 9.3 73.7 9.7 C 73.2 10.2 72.5 10.4 71.7 10.4 C 70.6 10.4 69.8 10 69.1 9.4 C 68.5 8.7 68.2 7.8 68.2 6.6 C 68.2 5.4 68.5 4.5 69.1 3.8 C 69.8 3.1 70.6 2.8 71.6 2.8 C 72.6 2.8 73.4 3.1 74 3.8 C 74.6 4.4 74.9 5.4 74.9 6.5 C 74.9 6.6 74.9 6.7 74.9 6.9 C 74.9 6.9 69.5 6.9 69.5 6.9 C 69.5 7.7 69.7 8.3 70.2 8.7 C 70.6 9.1 71.1 9.3 71.7 9.3 C 72.1 9.3 72.5 9.2 72.8 9 C 73.1 8.8 73.4 8.4 73.6 7.9 Z M 69.5 5.9 C 69.5 5.9 73.6 5.9 73.6 5.9 C 73.5 5.3 73.4 4.8 73.1 4.5 C 72.7 4 72.2 3.8 71.6 3.8 C 71 3.8 70.6 4 70.2 4.3 C 69.8 4.7 69.6 5.2 69.5 5.9 Z M 87.6 10.4 C 87.1 10.1 86.5 9.6 86 9 C 85.6 9.5 85.2 9.8 84.7 10 C 84.2 10.3 83.7 10.4 83.1 10.4 C 82.1 10.4 81.3 10 80.7 9.3 C 80.2 8.8 80 8.1 80 7.4 C 80 6.8 80.2 6.3 80.6 5.8 C 81 5.3 81.6 4.8 82.4 4.4 C 81.9 3.9 81.6 3.5 81.5 3.2 C 81.3 2.8 81.2 2.5 81.2 2.2 C 81.2 1.6 81.5 1.1 81.9 0.7 C 82.4 0.2 83 0 83.7 0 C 84.4 0 85 0.2 85.4 0.6 C 85.8 1 86 1.6 86 2.1 C 86 3.1 85.4 3.9 84.2 4.6 C 84.2 4.6 85.9 6.9 85.9 6.9 C 86.2 6.5 86.3 6 86.4 5.5 C 86.4 5.5 87.7 5.7 87.7 5.7 C 87.5 6.6 87.2 7.3 86.8 7.9 C 87.3 8.5 87.8 9 88.4 9.4 C 88.38 9.45 87.6 10.4 87.6 10.4 C 87.6 10.4 87.55 10.42 87.6 10.4 Z M 83.5 3.8 C 84 3.5 84.4 3.2 84.6 3 C 84.7 2.7 84.8 2.5 84.8 2.2 C 84.8 1.8 84.7 1.6 84.5 1.3 C 84.2 1.1 84 1 83.7 1 C 83.3 1 83 1.1 82.8 1.3 C 82.6 1.5 82.5 1.8 82.5 2.1 C 82.5 2.3 82.5 2.4 82.6 2.6 C 82.7 2.8 82.8 3 83 3.2 C 83 3.2 83.5 3.8 83.5 3.8 Z M 85.2 8 C 85.2 8 83 5.2 83 5.2 C 82.3 5.6 81.9 6 81.6 6.3 C 81.4 6.7 81.3 7 81.3 7.4 C 81.3 7.8 81.5 8.2 81.8 8.6 C 82.1 9.1 82.6 9.3 83.2 9.3 C 83.5 9.3 83.9 9.2 84.3 8.9 C 84.7 8.7 85 8.4 85.2 8 Z M 93.7 10.2 L 93.7 0.2 C 93.7 0.2 97.13 0.17 97.1 0.2 C 97.9 0.2 98.5 0.2 98.9 0.3 C 99.5 0.4 100 0.7 100.4 1 C 100.9 1.5 101.3 2 101.6 2.7 C 101.8 3.4 102 4.2 102 5.1 C 102 5.9 101.9 6.6 101.7 7.2 C 101.5 7.7 101.3 8.2 101 8.6 C 100.7 9 100.4 9.3 100.1 9.5 C 99.8 9.7 99.4 9.9 98.9 10 C 98.4 10.1 97.9 10.2 97.3 10.2 C 97.29 10.19 93.7 10.2 93.7 10.2 Z M 95 9 C 95 9 97.14 9.01 97.1 9 C 97.8 9 98.3 8.9 98.7 8.8 C 99.1 8.7 99.4 8.5 99.6 8.3 C 99.9 8 100.2 7.6 100.3 7 C 100.5 6.5 100.6 5.9 100.6 5.1 C 100.6 4.1 100.4 3.3 100.1 2.7 C 99.7 2.1 99.3 1.8 98.8 1.6 C 98.5 1.4 97.9 1.4 97.1 1.4 C 97.1 1.35 95 1.4 95 1.4 L 95 9 Z M 108.6 10.2 C 108.5 9.9 108.4 9.6 108.4 9.3 C 107.9 9.7 107.5 10 107 10.1 C 106.6 10.3 106.2 10.4 105.7 10.4 C 104.9 10.4 104.3 10.2 103.9 9.8 C 103.4 9.4 103.2 8.9 103.2 8.3 C 103.2 7.9 103.3 7.6 103.5 7.3 C 103.6 7 103.8 6.8 104.1 6.6 C 104.3 6.4 104.6 6.3 105 6.2 C 105.2 6.1 105.6 6.1 106.1 6 C 107.1 5.9 107.8 5.7 108.3 5.6 C 108.3 5.4 108.3 5.3 108.3 5.3 C 108.3 4.8 108.2 4.4 107.9 4.2 C 107.6 3.9 107.1 3.8 106.5 3.8 C 105.9 3.8 105.5 3.9 105.2 4.1 C 105 4.3 104.8 4.7 104.6 5.2 C 104.6 5.2 103.4 5 103.4 5 C 103.5 4.5 103.7 4.1 104 3.8 C 104.2 3.4 104.6 3.2 105 3 C 105.5 2.9 106.1 2.8 106.7 2.8 C 107.3 2.8 107.8 2.8 108.2 3 C 108.6 3.1 108.9 3.3 109.1 3.5 C 109.2 3.8 109.4 4 109.4 4.4 C 109.5 4.6 109.5 5 109.5 5.5 C 109.5 5.5 109.5 7.2 109.5 7.2 C 109.5 8.3 109.5 9 109.6 9.3 C 109.6 9.6 109.7 9.9 109.9 10.2 C 109.89 10.19 108.6 10.2 108.6 10.2 C 108.6 10.2 108.61 10.19 108.6 10.2 Z M 108.3 6.5 C 107.8 6.7 107.1 6.9 106.3 7 C 105.7 7.1 105.4 7.2 105.2 7.3 C 105 7.4 104.8 7.5 104.7 7.7 C 104.6 7.8 104.5 8 104.5 8.2 C 104.5 8.6 104.6 8.8 104.9 9.1 C 105.1 9.3 105.5 9.4 106 9.4 C 106.5 9.4 106.9 9.3 107.2 9.1 C 107.6 8.9 107.9 8.6 108.1 8.2 C 108.2 8 108.3 7.5 108.3 7 C 108.3 7 108.3 6.5 108.3 6.5 Z M 113.6 9.1 C 113.7 9.1 113.9 9.1 114.1 9.1 C 114.1 9.1 114.3 10.2 114.3 10.2 C 113.9 10.3 113.6 10.3 113.3 10.3 C 112.9 10.3 112.6 10.2 112.3 10.1 C 112.1 9.9 111.9 9.7 111.8 9.5 C 111.7 9.3 111.6 8.8 111.6 8.1 C 111.64 8.07 111.6 3.9 111.6 3.9 L 110.7 3.9 L 110.7 2.9 L 111.6 2.9 L 111.6 1.1 L 112.9 0.4 L 112.9 2.9 L 114.1 2.9 L 114.1 3.9 L 112.9 3.9 C 112.9 3.9 112.86 8.13 112.9 8.1 C 112.9 8.5 112.9 8.7 112.9 8.8 C 113 8.9 113 9 113.1 9.1 C 113.2 9.1 113.4 9.1 113.6 9.1 C 113.6 9.1 113.6 9.1 113.6 9.1 Z M 120.3 10.2 C 120.2 9.9 120.1 9.6 120 9.3 C 119.6 9.7 119.1 10 118.7 10.1 C 118.3 10.3 117.8 10.4 117.4 10.4 C 116.6 10.4 116 10.2 115.5 9.8 C 115.1 9.4 114.9 8.9 114.9 8.3 C 114.9 7.9 115 7.6 115.1 7.3 C 115.3 7 115.5 6.8 115.8 6.6 C 116 6.4 116.3 6.3 116.6 6.2 C 116.9 6.1 117.3 6.1 117.7 6 C 118.7 5.9 119.5 5.7 119.9 5.6 C 119.9 5.4 119.9 5.3 119.9 5.3 C 119.9 4.8 119.8 4.4 119.6 4.2 C 119.3 3.9 118.8 3.8 118.2 3.8 C 117.6 3.8 117.2 3.9 116.9 4.1 C 116.6 4.3 116.4 4.7 116.3 5.2 C 116.3 5.2 115.1 5 115.1 5 C 115.2 4.5 115.4 4.1 115.6 3.8 C 115.9 3.4 116.2 3.2 116.7 3 C 117.2 2.9 117.7 2.8 118.4 2.8 C 119 2.8 119.5 2.8 119.9 3 C 120.3 3.1 120.6 3.3 120.7 3.5 C 120.9 3.8 121 4 121.1 4.4 C 121.2 4.6 121.2 5 121.2 5.5 C 121.2 5.5 121.2 7.2 121.2 7.2 C 121.2 8.3 121.2 9 121.3 9.3 C 121.3 9.6 121.4 9.9 121.6 10.2 C 121.57 10.19 120.3 10.2 120.3 10.2 C 120.3 10.2 120.29 10.19 120.3 10.2 Z M 119.9 6.5 C 119.5 6.7 118.8 6.9 117.9 7 C 117.4 7.1 117.1 7.2 116.9 7.3 C 116.6 7.4 116.5 7.5 116.4 7.7 C 116.3 7.8 116.2 8 116.2 8.2 C 116.2 8.6 116.3 8.8 116.6 9.1 C 116.8 9.3 117.2 9.4 117.7 9.4 C 118.1 9.4 118.6 9.3 118.9 9.1 C 119.3 8.9 119.6 8.6 119.7 8.2 C 119.9 8 119.9 7.5 119.9 7 C 119.9 7 119.9 6.5 119.9 6.5 Z M 127.2 10.2 L 127.2 0.2 L 134 0.2 L 134 1.4 L 128.5 1.4 L 128.5 4.5 L 133.2 4.5 L 133.2 5.6 L 128.5 5.6 L 128.5 10.2 L 127.2 10.2 Z M 135.1 6.6 C 135.1 5.2 135.4 4.2 136.2 3.6 C 136.8 3 137.6 2.8 138.5 2.8 C 139.5 2.8 140.3 3.1 140.9 3.7 C 141.6 4.4 141.9 5.3 141.9 6.5 C 141.9 7.4 141.7 8.1 141.5 8.7 C 141.2 9.2 140.8 9.6 140.2 9.9 C 139.7 10.2 139.1 10.4 138.5 10.4 C 137.5 10.4 136.6 10 136 9.4 C 135.4 8.7 135.1 7.8 135.1 6.6 Z M 136.3 6.6 C 136.3 7.5 136.5 8.2 136.9 8.7 C 137.3 9.1 137.9 9.3 138.5 9.3 C 139.1 9.3 139.6 9.1 140 8.6 C 140.4 8.2 140.6 7.5 140.6 6.5 C 140.6 5.6 140.4 4.9 140 4.5 C 139.6 4 139.1 3.8 138.5 3.8 C 137.9 3.8 137.3 4 136.9 4.5 C 136.5 4.9 136.3 5.6 136.3 6.6 Z M 148.1 10.2 C 148.1 10.2 148.07 9.13 148.1 9.1 C 147.5 9.9 146.7 10.4 145.8 10.4 C 145.3 10.4 144.9 10.3 144.6 10.1 C 144.2 9.9 143.9 9.7 143.7 9.5 C 143.6 9.2 143.4 8.9 143.4 8.6 C 143.3 8.3 143.3 8 143.3 7.4 C 143.29 7.43 143.3 2.9 143.3 2.9 L 144.5 2.9 C 144.5 2.9 144.52 6.96 144.5 7 C 144.5 7.6 144.5 8 144.6 8.3 C 144.7 8.6 144.8 8.8 145.1 9 C 145.3 9.2 145.6 9.3 146 9.3 C 146.4 9.3 146.7 9.2 147.1 9 C 147.4 8.8 147.6 8.6 147.7 8.2 C 147.9 7.9 147.9 7.4 147.9 6.8 C 147.94 6.82 147.9 2.9 147.9 2.9 L 149.2 2.9 L 149.2 10.2 L 148.1 10.2 Z M 151.1 10.2 L 151.1 2.9 L 152.2 2.9 C 152.2 2.9 152.21 3.96 152.2 4 C 152.7 3.2 153.5 2.8 154.5 2.8 C 155 2.8 155.4 2.8 155.7 3 C 156.1 3.2 156.4 3.4 156.5 3.6 C 156.7 3.9 156.9 4.2 156.9 4.5 C 157 4.8 157 5.2 157 5.7 C 157 5.73 157 10.2 157 10.2 L 155.8 10.2 C 155.8 10.2 155.77 5.78 155.8 5.8 C 155.8 5.3 155.7 4.9 155.6 4.7 C 155.5 4.4 155.4 4.2 155.1 4.1 C 154.9 3.9 154.6 3.8 154.3 3.8 C 153.7 3.8 153.3 4 152.9 4.3 C 152.5 4.7 152.3 5.3 152.3 6.2 C 152.33 6.23 152.3 10.2 152.3 10.2 L 151.1 10.2 Z M 163.6 10.2 C 163.6 10.2 163.6 9.28 163.6 9.3 C 163.1 10 162.5 10.4 161.6 10.4 C 161 10.4 160.5 10.2 160 9.9 C 159.5 9.6 159.1 9.1 158.8 8.5 C 158.6 8 158.4 7.3 158.4 6.6 C 158.4 5.8 158.6 5.2 158.8 4.6 C 159 4 159.4 3.6 159.9 3.2 C 160.4 2.9 160.9 2.8 161.5 2.8 C 162 2.8 162.3 2.9 162.7 3 C 163 3.2 163.3 3.5 163.5 3.8 C 163.52 3.77 163.5 0.2 163.5 0.2 L 164.7 0.2 L 164.7 10.2 L 163.6 10.2 Z M 159.7 6.6 C 159.7 7.5 159.9 8.2 160.3 8.7 C 160.7 9.1 161.2 9.3 161.7 9.3 C 162.2 9.3 162.7 9.1 163.1 8.7 C 163.4 8.2 163.6 7.6 163.6 6.7 C 163.6 5.7 163.4 4.9 163 4.5 C 162.7 4 162.2 3.8 161.6 3.8 C 161.1 3.8 160.6 4 160.3 4.5 C 159.9 4.9 159.7 5.6 159.7 6.6 Z M 171.7 10.2 C 171.5 9.9 171.4 9.6 171.4 9.3 C 171 9.7 170.5 10 170.1 10.1 C 169.7 10.3 169.2 10.4 168.7 10.4 C 167.9 10.4 167.3 10.2 166.9 9.8 C 166.5 9.4 166.3 8.9 166.3 8.3 C 166.3 7.9 166.3 7.6 166.5 7.3 C 166.7 7 166.9 6.8 167.1 6.6 C 167.4 6.4 167.7 6.3 168 6.2 C 168.3 6.1 168.6 6.1 169.1 6 C 170.1 5.9 170.8 5.7 171.3 5.6 C 171.3 5.4 171.3 5.3 171.3 5.3 C 171.3 4.8 171.2 4.4 171 4.2 C 170.7 3.9 170.2 3.8 169.6 3.8 C 169 3.8 168.6 3.9 168.3 4.1 C 168 4.3 167.8 4.7 167.7 5.2 C 167.7 5.2 166.5 5 166.5 5 C 166.6 4.5 166.8 4.1 167 3.8 C 167.3 3.4 167.6 3.2 168.1 3 C 168.6 2.9 169.1 2.8 169.7 2.8 C 170.4 2.8 170.9 2.8 171.3 3 C 171.6 3.1 171.9 3.3 172.1 3.5 C 172.3 3.8 172.4 4 172.5 4.4 C 172.5 4.6 172.6 5 172.6 5.5 C 172.6 5.5 172.6 7.2 172.6 7.2 C 172.6 8.3 172.6 9 172.6 9.3 C 172.7 9.6 172.8 9.9 172.9 10.2 C 172.94 10.19 171.7 10.2 171.7 10.2 C 171.7 10.2 171.66 10.19 171.7 10.2 Z M 171.3 6.5 C 170.9 6.7 170.2 6.9 169.3 7 C 168.8 7.1 168.4 7.2 168.2 7.3 C 168 7.4 167.9 7.5 167.7 7.7 C 167.6 7.8 167.6 8 167.6 8.2 C 167.6 8.6 167.7 8.8 167.9 9.1 C 168.2 9.3 168.6 9.4 169 9.4 C 169.5 9.4 169.9 9.3 170.3 9.1 C 170.7 8.9 170.9 8.6 171.1 8.2 C 171.2 8 171.3 7.5 171.3 7 C 171.3 7 171.3 6.5 171.3 6.5 Z M 176.6 9.1 C 176.7 9.1 176.9 9.1 177.1 9.1 C 177.1 9.1 177.3 10.2 177.3 10.2 C 177 10.3 176.7 10.3 176.4 10.3 C 175.9 10.3 175.6 10.2 175.4 10.1 C 175.1 9.9 174.9 9.7 174.8 9.5 C 174.7 9.3 174.7 8.8 174.7 8.1 C 174.69 8.07 174.7 3.9 174.7 3.9 L 173.8 3.9 L 173.8 2.9 L 174.7 2.9 L 174.7 1.1 L 175.9 0.4 L 175.9 2.9 L 177.1 2.9 L 177.1 3.9 L 175.9 3.9 C 175.9 3.9 175.91 8.13 175.9 8.1 C 175.9 8.5 175.9 8.7 176 8.8 C 176 8.9 176.1 9 176.2 9.1 C 176.3 9.1 176.4 9.1 176.6 9.1 C 176.6 9.1 176.6 9.1 176.6 9.1 Z M 178.4 1.6 L 178.4 0.2 L 179.6 0.2 L 179.6 1.6 L 178.4 1.6 Z M 178.4 10.2 L 178.4 2.9 L 179.6 2.9 L 179.6 10.2 L 178.4 10.2 Z M 181 6.6 C 181 5.2 181.4 4.2 182.1 3.6 C 182.7 3 183.5 2.8 184.4 2.8 C 185.4 2.8 186.2 3.1 186.9 3.7 C 187.5 4.4 187.8 5.3 187.8 6.5 C 187.8 7.4 187.7 8.1 187.4 8.7 C 187.1 9.2 186.7 9.6 186.2 9.9 C 185.6 10.2 185 10.4 184.4 10.4 C 183.4 10.4 182.6 10 181.9 9.4 C 181.3 8.7 181 7.8 181 6.6 Z M 182.3 6.6 C 182.3 7.5 182.5 8.2 182.9 8.7 C 183.3 9.1 183.8 9.3 184.4 9.3 C 185 9.3 185.5 9.1 185.9 8.6 C 186.3 8.2 186.5 7.5 186.5 6.5 C 186.5 5.6 186.3 4.9 185.9 4.5 C 185.5 4 185 3.8 184.4 3.8 C 183.8 3.8 183.3 4 182.9 4.5 C 182.5 4.9 182.3 5.6 182.3 6.6 Z M 189.2 10.2 L 189.2 2.9 L 190.4 2.9 C 190.4 2.9 190.35 3.96 190.4 4 C 190.9 3.2 191.7 2.8 192.7 2.8 C 193.1 2.8 193.5 2.8 193.9 3 C 194.2 3.2 194.5 3.4 194.7 3.6 C 194.9 3.9 195 4.2 195.1 4.5 C 195.1 4.8 195.1 5.2 195.1 5.7 C 195.15 5.73 195.1 10.2 195.1 10.2 L 193.9 10.2 C 193.9 10.2 193.92 5.78 193.9 5.8 C 193.9 5.3 193.9 4.9 193.8 4.7 C 193.7 4.4 193.5 4.2 193.3 4.1 C 193 3.9 192.7 3.8 192.4 3.8 C 191.9 3.8 191.4 4 191 4.3 C 190.7 4.7 190.5 5.3 190.5 6.2 C 190.48 6.23 190.5 10.2 190.5 10.2 L 189.2 10.2 Z " stroke="none" fill="#000"/>  </g></svg>