<?xml version="1.0" standalone="no"?><!DOCTYPE svg PUBLIC "-//W3C//DTD SVG 1.1//EN" "http://www.w3.org/Graphics/SVG/1.1/DTD/svg11.dtd"><svg xmlns="http://www.w3.org/2000/svg" version="1.1" width="47px" height="23.9px" viewBox="0 -5 47 23.9" style="top:-5px">  <desc>Toolkits</desc>  <defs/>  <g id="Polygon139416">    <path d="M 3.6 10.2 L 3.6 1.4 L 0.3 1.4 L 0.3 0.2 L 8.3 0.2 L 8.3 1.4 L 5 1.4 L 5 10.2 L 3.6 10.2 Z M 7.5 6.6 C 7.5 5.2 7.8 4.2 8.6 3.6 C 9.2 3 10 2.8 10.9 2.8 C 11.9 2.8 12.7 3.1 13.3 3.7 C 13.9 4.4 14.3 5.3 14.3 6.5 C 14.3 7.4 14.1 8.1 13.8 8.7 C 13.6 9.2 13.2 9.6 12.6 9.9 C 12.1 10.2 11.5 10.4 10.9 10.4 C 9.9 10.4 9 10 8.4 9.4 C 7.8 8.7 7.5 7.8 7.5 6.6 Z M 8.7 6.6 C 8.7 7.5 8.9 8.2 9.3 8.7 C 9.7 9.1 10.3 9.3 10.9 9.3 C 11.5 9.3 12 9.1 12.4 8.6 C 12.8 8.2 13 7.5 13 6.5 C 13 5.6 12.8 4.9 12.4 4.5 C 12 4 11.5 3.8 10.9 3.8 C 10.3 3.8 9.7 4 9.3 4.5 C 8.9 4.9 8.7 5.6 8.7 6.6 Z M 15.3 6.6 C 15.3 5.2 15.6 4.2 16.4 3.6 C 17 3 17.8 2.8 18.7 2.8 C 19.7 2.8 20.5 3.1 21.1 3.7 C 21.7 4.4 22.1 5.3 22.1 6.5 C 22.1 7.4 21.9 8.1 21.6 8.7 C 21.4 9.2 20.9 9.6 20.4 9.9 C 19.9 10.2 19.3 10.4 18.7 10.4 C 17.6 10.4 16.8 10 16.2 9.4 C 15.6 8.7 15.3 7.8 15.3 6.6 Z M 16.5 6.6 C 16.5 7.5 16.7 8.2 17.1 8.7 C 17.5 9.1 18 9.3 18.7 9.3 C 19.3 9.3 19.8 9.1 20.2 8.6 C 20.6 8.2 20.8 7.5 20.8 6.5 C 20.8 5.6 20.6 4.9 20.2 4.5 C 19.8 4 19.3 3.8 18.7 3.8 C 18 3.8 17.5 4 17.1 4.5 C 16.7 4.9 16.5 5.6 16.5 6.6 Z M 23.5 10.2 L 23.5 0.2 L 24.7 0.2 L 24.7 10.2 L 23.5 10.2 Z M 26.6 10.2 L 26.6 0.2 L 27.8 0.2 L 27.8 5.9 L 30.8 2.9 L 32.3 2.9 L 29.6 5.6 L 32.6 10.2 L 31.1 10.2 L 28.7 6.5 L 27.8 7.3 L 27.8 10.2 L 26.6 10.2 Z M 33.6 1.6 L 33.6 0.2 L 34.8 0.2 L 34.8 1.6 L 33.6 1.6 Z M 33.6 10.2 L 33.6 2.9 L 34.8 2.9 L 34.8 10.2 L 33.6 10.2 Z M 38.9 9.1 C 39 9.1 39.2 9.1 39.4 9.1 C 39.4 9.1 39.6 10.2 39.6 10.2 C 39.2 10.3 38.9 10.3 38.7 10.3 C 38.2 10.3 37.9 10.2 37.6 10.1 C 37.4 9.9 37.2 9.7 37.1 9.5 C 37 9.3 36.9 8.8 36.9 8.1 C 36.94 8.07 36.9 3.9 36.9 3.9 L 36 3.9 L 36 2.9 L 36.9 2.9 L 36.9 1.1 L 38.2 0.4 L 38.2 2.9 L 39.4 2.9 L 39.4 3.9 L 38.2 3.9 C 38.2 3.9 38.17 8.13 38.2 8.1 C 38.2 8.5 38.2 8.7 38.2 8.8 C 38.3 8.9 38.3 9 38.4 9.1 C 38.5 9.1 38.7 9.1 38.9 9.1 C 38.9 9.1 38.9 9.1 38.9 9.1 Z M 40.1 8 C 40.1 8 41.3 7.8 41.3 7.8 C 41.4 8.3 41.6 8.7 41.9 9 C 42.2 9.2 42.6 9.3 43.2 9.3 C 43.8 9.3 44.2 9.2 44.5 9 C 44.7 8.8 44.9 8.5 44.9 8.2 C 44.9 7.9 44.8 7.7 44.5 7.5 C 44.3 7.4 43.9 7.3 43.3 7.1 C 42.4 6.9 41.7 6.7 41.4 6.5 C 41 6.4 40.8 6.1 40.6 5.8 C 40.4 5.5 40.3 5.2 40.3 4.9 C 40.3 4.5 40.4 4.2 40.5 4 C 40.7 3.7 40.9 3.5 41.1 3.3 C 41.3 3.1 41.6 3 41.9 2.9 C 42.3 2.8 42.6 2.8 43 2.8 C 43.6 2.8 44.1 2.9 44.5 3 C 44.9 3.2 45.2 3.4 45.4 3.7 C 45.7 4 45.8 4.3 45.9 4.8 C 45.9 4.8 44.7 5 44.7 5 C 44.6 4.6 44.5 4.3 44.2 4.1 C 43.9 3.9 43.6 3.8 43.1 3.8 C 42.5 3.8 42.1 3.9 41.9 4.1 C 41.6 4.2 41.5 4.5 41.5 4.7 C 41.5 4.9 41.6 5 41.7 5.1 C 41.8 5.3 41.9 5.4 42.1 5.5 C 42.3 5.5 42.6 5.6 43.2 5.8 C 44.1 6 44.7 6.2 45 6.4 C 45.4 6.5 45.7 6.7 45.8 7 C 46 7.3 46.1 7.6 46.1 8.1 C 46.1 8.5 46 8.9 45.8 9.2 C 45.5 9.6 45.2 9.9 44.7 10.1 C 44.3 10.3 43.8 10.4 43.2 10.4 C 42.3 10.4 41.6 10.2 41.1 9.8 C 40.6 9.4 40.3 8.8 40.1 8 Z " stroke="none" fill="#ffffff"/>  </g></svg>