<?xml version="1.0" standalone="no"?><!DOCTYPE svg PUBLIC "-//W3C//DTD SVG 1.1//EN" "http://www.w3.org/Graphics/SVG/1.1/DTD/svg11.dtd"><svg xmlns="http://www.w3.org/2000/svg" version="1.1" width="51.4px" height="23.9px" viewBox="0 -5 51.4 23.9" style="top:-5px">  <desc>71 100</desc>  <defs/>  <g id="Polygon145917">    <path d="M 0.7 1.5 L 0.7 0.3 L 7.2 0.3 C 7.2 0.3 7.15 1.26 7.2 1.3 C 6.5 1.9 5.9 2.8 5.3 4 C 4.6 5.1 4.1 6.2 3.8 7.4 C 3.6 8.3 3.4 9.2 3.3 10.2 C 3.3 10.2 2.1 10.2 2.1 10.2 C 2.1 9.4 2.2 8.5 2.5 7.3 C 2.8 6.2 3.3 5.1 3.8 4.1 C 4.4 3.1 4.9 2.2 5.6 1.5 C 5.57 1.48 0.7 1.5 0.7 1.5 Z M 13 10.2 L 11.8 10.2 C 11.8 10.2 11.77 2.35 11.8 2.4 C 11.5 2.6 11.1 2.9 10.6 3.2 C 10.1 3.5 9.7 3.7 9.3 3.8 C 9.3 3.8 9.3 2.6 9.3 2.6 C 10 2.3 10.6 1.9 11.1 1.5 C 11.6 1 12 0.6 12.2 0.1 C 12.21 0.13 13 0.1 13 0.1 L 13 10.2 Z M 19.9 7.2 L 19.9 5.9 L 23.7 5.9 L 23.7 7.2 L 19.9 7.2 Z M 33.2 10.2 L 32 10.2 C 32 10.2 32 2.35 32 2.4 C 31.7 2.6 31.3 2.9 30.8 3.2 C 30.4 3.5 29.9 3.7 29.5 3.8 C 29.5 3.8 29.5 2.6 29.5 2.6 C 30.2 2.3 30.8 1.9 31.3 1.5 C 31.9 1 32.2 0.6 32.4 0.1 C 32.44 0.13 33.2 0.1 33.2 0.1 L 33.2 10.2 Z M 37.4 9.3 C 36.7 8.5 36.4 7.1 36.4 5.3 C 36.4 4.1 36.5 3.1 36.7 2.4 C 37 1.7 37.4 1.1 37.8 0.7 C 38.3 0.3 38.9 0.1 39.6 0.1 C 40.2 0.1 40.7 0.2 41.1 0.5 C 41.5 0.7 41.8 1 42.1 1.4 C 42.3 1.8 42.5 2.3 42.7 2.9 C 42.8 3.5 42.9 4.3 42.9 5.3 C 42.9 6.4 42.8 7.4 42.6 8.1 C 42.3 8.8 42 9.4 41.5 9.8 C 41 10.2 40.4 10.4 39.6 10.4 C 38.7 10.4 37.9 10 37.4 9.3 C 37.4 9.3 37.4 9.3 37.4 9.3 Z M 38.3 1.9 C 37.9 2.5 37.6 3.6 37.6 5.3 C 37.6 6.9 37.8 8 38.2 8.5 C 38.6 9.1 39.1 9.4 39.6 9.4 C 40.2 9.4 40.7 9.1 41.1 8.5 C 41.5 8 41.7 6.9 41.7 5.3 C 41.7 3.6 41.5 2.5 41.1 2 C 40.7 1.4 40.2 1.1 39.6 1.1 C 39.1 1.1 38.6 1.4 38.3 1.9 C 38.3 1.9 38.3 1.9 38.3 1.9 Z M 45.2 9.3 C 44.5 8.5 44.2 7.1 44.2 5.3 C 44.2 4.1 44.3 3.1 44.5 2.4 C 44.8 1.7 45.1 1.1 45.6 0.7 C 46.1 0.3 46.7 0.1 47.4 0.1 C 48 0.1 48.4 0.2 48.8 0.5 C 49.3 0.7 49.6 1 49.9 1.4 C 50.1 1.8 50.3 2.3 50.5 2.9 C 50.6 3.5 50.7 4.3 50.7 5.3 C 50.7 6.4 50.6 7.4 50.3 8.1 C 50.1 8.8 49.7 9.4 49.3 9.8 C 48.8 10.2 48.2 10.4 47.4 10.4 C 46.5 10.4 45.7 10 45.2 9.3 C 45.2 9.3 45.2 9.3 45.2 9.3 Z M 46.1 1.9 C 45.6 2.5 45.4 3.6 45.4 5.3 C 45.4 6.9 45.6 8 46 8.5 C 46.4 9.1 46.9 9.4 47.4 9.4 C 48 9.4 48.5 9.1 48.9 8.5 C 49.2 8 49.4 6.9 49.4 5.3 C 49.4 3.6 49.2 2.5 48.9 2 C 48.5 1.4 48 1.1 47.4 1.1 C 46.9 1.1 46.4 1.4 46.1 1.9 C 46.1 1.9 46.1 1.9 46.1 1.9 Z " stroke="none" fill="#ffffff"/>  </g></svg>