<?xml version="1.0" standalone="no"?><!DOCTYPE svg PUBLIC "-//W3C//DTD SVG 1.1//EN" "http://www.w3.org/Graphics/SVG/1.1/DTD/svg11.dtd"><svg xmlns="http://www.w3.org/2000/svg" version="1.1" width="816px" height="60.6px" viewBox="0 -10 816 60.6" style="top:-10px">  <desc>innovative incisive inspiring integrity</desc>  <defs/>  <g id="Polygon142365">    <path d="M 7 5.2 C 7 6.5 6 7.5 4.7 7.5 C 3.4 7.5 2.4 6.4 2.4 5.2 C 2.4 4 3.4 2.9 4.7 2.9 C 6 2.9 7 3.9 7 5.2 Z M 7 10.3 L 7 28.4 L 2.4 28.4 L 2.4 10.3 L 7 10.3 Z M 28.4 17.4 C 28.43 17.39 28.4 28.4 28.4 28.4 L 23.9 28.4 C 23.9 28.4 23.87 17.86 23.9 17.9 C 23.9 14.6 22.4 13.6 20.5 13.6 C 19 13.6 17.5 14.5 16.3 16.3 C 16.34 16.26 16.3 28.4 16.3 28.4 L 11.8 28.4 L 11.8 10.3 L 16.3 10.3 C 16.3 10.3 16.34 12.67 16.3 12.7 C 18.1 10.8 20.2 9.9 22.2 9.9 C 26.4 9.9 28.4 12.8 28.4 17.4 Z M 49.7 17.4 C 49.72 17.39 49.7 28.4 49.7 28.4 L 45.2 28.4 C 45.2 28.4 45.16 17.86 45.2 17.9 C 45.2 14.6 43.7 13.6 41.8 13.6 C 40.2 13.6 38.8 14.5 37.6 16.3 C 37.63 16.26 37.6 28.4 37.6 28.4 L 33.1 28.4 L 33.1 10.3 L 37.6 10.3 C 37.6 10.3 37.63 12.67 37.6 12.7 C 39.4 10.8 41.5 9.9 43.4 9.9 C 47.7 9.9 49.7 12.8 49.7 17.4 Z M 58.1 19.3 C 58.1 22.9 60.3 25 63.3 25 C 66.4 25 68.4 22.7 68.4 19.3 C 68.4 15.5 66 13.7 63.1 13.7 C 60.2 13.7 58.1 15.8 58.1 19.3 Z M 73.2 19.3 C 73.2 25.6 68.4 28.8 63.2 28.8 C 56.7 28.8 53.4 24.1 53.4 19.4 C 53.4 14 57.1 9.9 63.3 9.9 C 69.2 9.9 73.2 13.8 73.2 19.3 Z M 78.8 10.3 L 83.3 20.9 L 87.8 10.3 L 92.5 10.3 L 84.4 28.7 L 82 28.7 L 73.9 10.3 L 78.8 10.3 Z M 108.1 15.7 C 108.1 15.7 108.1 24.1 108.1 24.1 C 108.1 24.8 108.3 25.3 108.8 25.3 C 109.3 25.3 109.8 25 110.6 24.5 C 110.6 24.5 110.6 27.4 110.6 27.4 C 109 28.4 107.7 28.8 106.3 28.8 C 104.9 28.8 104 28.2 103.6 26.9 C 102 28.2 100.3 28.8 98.5 28.8 C 95.6 28.8 93.8 26.8 93.8 24.3 C 93.8 20.2 98.1 19 103.5 17.3 C 103.5 17.3 103.5 16.5 103.5 16.5 C 103.5 14.3 102.4 13.6 100.4 13.6 C 98.2 13.6 96 14.6 94.2 16.7 C 94.2 16.7 94.2 12.4 94.2 12.4 C 96 10.7 98.3 9.9 101 9.9 C 105.6 9.9 108.1 12.2 108.1 15.7 Z M 100.6 25.9 C 101.6 25.9 102.6 25.4 103.5 24.5 C 103.5 24.5 103.5 19.5 103.5 19.5 C 100 20.8 98.3 21.8 98.3 23.6 C 98.3 24.9 99.2 25.9 100.6 25.9 Z M 118.3 5.9 L 118.6 5.9 L 118.6 10.3 L 124.4 10.3 L 124.4 13.9 L 118.6 13.9 C 118.6 13.9 118.6 21.57 118.6 21.6 C 118.6 23.4 119 24.9 121.2 24.9 C 122.6 24.9 124.1 24.3 125.2 23.6 C 125.2 23.6 125.2 27.5 125.2 27.5 C 123.8 28.3 121.6 28.8 120.1 28.8 C 116.1 28.8 114 26.7 114 22 C 114.03 22 114 13.9 114 13.9 L 111 13.9 L 111 13.3 L 118.3 5.9 Z M 132.9 5.2 C 132.9 6.5 131.9 7.5 130.6 7.5 C 129.2 7.5 128.3 6.4 128.3 5.2 C 128.3 4 129.2 2.9 130.6 2.9 C 131.9 2.9 132.9 3.9 132.9 5.2 Z M 132.9 10.3 L 132.9 28.4 L 128.3 28.4 L 128.3 10.3 L 132.9 10.3 Z M 140.2 10.3 L 144.7 20.9 L 149.2 10.3 L 153.9 10.3 L 145.8 28.7 L 143.4 28.7 L 135.2 10.3 L 140.2 10.3 Z M 172 19.4 C 171.99 19.38 172 20.1 172 20.1 C 172 20.1 159.23 20.08 159.2 20.1 C 159.5 23.1 161.7 25.1 164.9 25.1 C 167.2 25.1 169.5 24.3 171.6 23 C 171.6 23 171.6 26.7 171.6 26.7 C 169.3 28.2 166.9 28.8 164.1 28.8 C 158.6 28.8 154.6 25.1 154.6 19.2 C 154.6 13.8 158.1 9.9 163.7 9.9 C 168.3 9.9 172 13.3 172 19.4 Z M 167.6 17.6 C 167.5 14.9 166 13.3 163.6 13.3 C 161.1 13.3 159.4 15.1 159.2 17.6 C 159.2 17.6 167.6 17.6 167.6 17.6 Z M 257.9 5.2 C 257.9 6.5 256.9 7.5 255.6 7.5 C 254.2 7.5 253.3 6.4 253.3 5.2 C 253.3 4 254.2 2.9 255.6 2.9 C 256.9 2.9 257.9 3.9 257.9 5.2 Z M 257.9 10.3 L 257.9 28.4 L 253.3 28.4 L 253.3 10.3 L 257.9 10.3 Z M 279.3 17.4 C 279.31 17.39 279.3 28.4 279.3 28.4 L 274.8 28.4 C 274.8 28.4 274.75 17.86 274.8 17.9 C 274.8 14.6 273.3 13.6 271.4 13.6 C 269.8 13.6 268.4 14.5 267.2 16.3 C 267.22 16.26 267.2 28.4 267.2 28.4 L 262.7 28.4 L 262.7 10.3 L 267.2 10.3 C 267.2 10.3 267.22 12.67 267.2 12.7 C 268.9 10.8 271.1 9.9 273 9.9 C 277.2 9.9 279.3 12.8 279.3 17.4 Z M 297.8 11.1 C 297.8 11.1 297.8 15.4 297.8 15.4 C 295.9 14.3 294.3 13.9 292.8 13.9 C 289.6 13.9 287.7 16.4 287.7 19.3 C 287.7 22 289.3 24.8 293.2 24.8 C 294.8 24.8 296.4 24.4 298.1 23.6 C 298.1 23.6 298.1 27.7 298.1 27.7 C 296.2 28.4 294.4 28.8 292.5 28.8 C 285.1 28.8 282.9 23.2 282.9 19.5 C 282.9 14.5 286 9.9 292.3 9.9 C 294.1 9.9 295.7 10.2 297.8 11.1 Z M 306.9 5.2 C 306.9 6.5 305.8 7.5 304.5 7.5 C 303.2 7.5 302.2 6.4 302.2 5.2 C 302.2 4 303.2 2.9 304.5 2.9 C 305.8 2.9 306.9 3.9 306.9 5.2 Z M 306.8 10.3 L 306.8 28.4 L 302.3 28.4 L 302.3 10.3 L 306.8 10.3 Z M 317.3 9.9 C 319.2 9.9 321.2 10.4 323 11.4 C 323 11.4 323 15.3 323 15.3 C 320.9 14 319.4 13.4 317.8 13.4 C 316.2 13.4 315.6 14 315.6 14.7 C 315.6 15.5 315.9 16 319.1 17.6 C 321.7 19 323.9 20.6 323.9 23.4 C 323.9 26 322 28.8 317.4 28.8 C 315.4 28.8 313.7 28.5 311 27.2 C 311 27.2 311 23.1 311 23.1 C 312.9 24.4 315 25.3 316.6 25.3 C 318.5 25.3 319.3 24.6 319.3 23.8 C 319.3 22.7 318.8 22.3 315.3 20.4 C 312.5 18.9 311 17.3 311 14.9 C 311 12.1 313.4 9.9 317.3 9.9 Z M 332.5 5.2 C 332.5 6.5 331.5 7.5 330.2 7.5 C 328.8 7.5 327.9 6.4 327.9 5.2 C 327.9 4 328.8 2.9 330.2 2.9 C 331.5 2.9 332.5 3.9 332.5 5.2 Z M 332.5 10.3 L 332.5 28.4 L 327.9 28.4 L 327.9 10.3 L 332.5 10.3 Z M 339.8 10.3 L 344.3 20.9 L 348.8 10.3 L 353.5 10.3 L 345.4 28.7 L 343 28.7 L 334.8 10.3 L 339.8 10.3 Z M 371.6 19.4 C 371.59 19.38 371.6 20.1 371.6 20.1 C 371.6 20.1 358.83 20.08 358.8 20.1 C 359.1 23.1 361.3 25.1 364.4 25.1 C 366.8 25.1 369.1 24.3 371.2 23 C 371.2 23 371.2 26.7 371.2 26.7 C 368.9 28.2 366.5 28.8 363.7 28.8 C 358.2 28.8 354.2 25.1 354.2 19.2 C 354.2 13.8 357.7 9.9 363.3 9.9 C 367.9 9.9 371.6 13.3 371.6 19.4 Z M 367.2 17.6 C 367.1 14.9 365.6 13.3 363.2 13.3 C 360.7 13.3 359 15.1 358.8 17.6 C 358.8 17.6 367.2 17.6 367.2 17.6 Z M 457.5 5.2 C 457.5 6.5 456.4 7.5 455.2 7.5 C 453.8 7.5 452.9 6.4 452.9 5.2 C 452.9 4 453.8 2.9 455.2 2.9 C 456.4 2.9 457.5 3.9 457.5 5.2 Z M 457.5 10.3 L 457.5 28.4 L 452.9 28.4 L 452.9 10.3 L 457.5 10.3 Z M 478.9 17.4 C 478.91 17.39 478.9 28.4 478.9 28.4 L 474.3 28.4 C 474.3 28.4 474.35 17.86 474.3 17.9 C 474.3 14.6 472.9 13.6 471 13.6 C 469.4 13.6 468 14.5 466.8 16.3 C 466.82 16.26 466.8 28.4 466.8 28.4 L 462.3 28.4 L 462.3 10.3 L 466.8 10.3 C 466.8 10.3 466.82 12.67 466.8 12.7 C 468.5 10.8 470.7 9.9 472.6 9.9 C 476.8 9.9 478.9 12.8 478.9 17.4 Z M 489.2 9.9 C 491.2 9.9 493.1 10.4 494.9 11.4 C 494.9 11.4 494.9 15.3 494.9 15.3 C 492.8 14 491.3 13.4 489.7 13.4 C 488.2 13.4 487.5 14 487.5 14.7 C 487.5 15.5 487.8 16 491 17.6 C 493.7 19 495.8 20.6 495.8 23.4 C 495.8 26 493.9 28.8 489.3 28.8 C 487.3 28.8 485.7 28.5 482.9 27.2 C 482.9 27.2 482.9 23.1 482.9 23.1 C 484.8 24.4 486.9 25.3 488.5 25.3 C 490.4 25.3 491.2 24.6 491.2 23.8 C 491.2 22.7 490.7 22.3 487.3 20.4 C 484.4 18.9 482.9 17.3 482.9 14.9 C 482.9 12.1 485.3 9.9 489.2 9.9 Z M 508.6 28.8 C 507.1 28.8 506.2 28.6 504.4 27.8 C 504.38 27.77 504.4 37.4 504.4 37.4 L 499.8 37.4 L 499.8 10.3 C 499.8 10.3 507.23 10.26 507.2 10.3 C 513.1 10.3 517.5 12.7 517.5 19.4 C 517.5 24.5 514.2 28.8 508.6 28.8 Z M 504.4 24.1 C 505.3 24.7 506.6 25.1 507.8 25.1 C 510.7 25.1 512.8 22.8 512.8 19.5 C 512.8 16 510.8 14 507.1 14 C 507.15 14 504.4 14 504.4 14 C 504.4 14 504.38 24.1 504.4 24.1 Z M 525.9 5.2 C 525.9 6.5 524.9 7.5 523.6 7.5 C 522.2 7.5 521.3 6.4 521.3 5.2 C 521.3 4 522.2 2.9 523.6 2.9 C 524.9 2.9 525.9 3.9 525.9 5.2 Z M 525.9 10.3 L 525.9 28.4 L 521.3 28.4 L 521.3 10.3 L 525.9 10.3 Z M 544.7 11.7 C 544.7 11.7 542.6 16 542.6 16 C 541.6 15 540.3 14.4 539.3 14.4 C 537.5 14.4 535.5 16.1 535.1 19.4 C 535.07 19.38 535.1 28.4 535.1 28.4 L 530.5 28.4 L 530.5 10.3 L 535.1 10.3 C 535.1 10.3 535.07 14.51 535.1 14.5 C 536.8 11.4 538.6 9.9 540.6 9.9 C 542 9.9 543.3 10.6 544.7 11.7 Z M 551.6 5.2 C 551.6 6.5 550.6 7.5 549.3 7.5 C 548 7.5 547 6.4 547 5.2 C 547 4 548 2.9 549.3 2.9 C 550.6 2.9 551.6 3.9 551.6 5.2 Z M 551.6 10.3 L 551.6 28.4 L 547 28.4 L 547 10.3 L 551.6 10.3 Z M 573.1 17.4 C 573.06 17.39 573.1 28.4 573.1 28.4 L 568.5 28.4 C 568.5 28.4 568.49 17.86 568.5 17.9 C 568.5 14.6 567 13.6 565.1 13.6 C 563.6 13.6 562.1 14.5 561 16.3 C 560.97 16.26 561 28.4 561 28.4 L 556.4 28.4 L 556.4 10.3 L 561 10.3 C 561 10.3 560.97 12.67 561 12.7 C 562.7 10.8 564.8 9.9 566.8 9.9 C 571 9.9 573.1 12.8 573.1 17.4 Z M 593.4 13.5 C 593.4 13.5 589.87 13.45 589.9 13.5 C 591.2 14.5 591.7 15.8 591.7 17.3 C 591.7 20.6 589.2 22.7 585.6 23.2 C 584.1 23.4 582.5 23.6 582.5 24.7 C 582.5 25.6 584 26.1 586.9 26.5 C 591.7 27.2 593.1 29.4 593.1 31.8 C 593.1 35.5 589.7 37.5 584.3 37.5 C 578.4 37.5 575.6 35.3 575.6 32.3 C 575.6 30.2 576.6 28.4 580.1 27.7 C 579 27.1 578.3 26.2 578.3 25.3 C 578.3 24.1 579.3 23 581.2 22.5 C 578.2 21.4 576.8 19.3 576.8 16.8 C 576.8 12.8 579.8 10.3 585.3 10.3 C 585.26 10.26 593.4 10.3 593.4 10.3 L 593.4 13.5 Z M 584.2 20.1 C 586.2 20.1 587.6 18.8 587.6 16.8 C 587.6 15.1 586.2 13.6 584.2 13.6 C 582.2 13.6 580.9 15.2 580.9 16.9 C 580.9 18.9 582.5 20.1 584.2 20.1 Z M 584.4 34.6 C 587.4 34.6 589.1 33.7 589.1 32.1 C 589.1 30.4 587 29.6 583.8 29.6 C 581.4 29.6 579.7 30.3 579.7 32.1 C 579.7 33.7 581.4 34.6 584.4 34.6 Z M 678.2 5.2 C 678.2 6.5 677.1 7.5 675.9 7.5 C 674.5 7.5 673.6 6.4 673.6 5.2 C 673.6 4 674.5 2.9 675.9 2.9 C 677.1 2.9 678.2 3.9 678.2 5.2 Z M 678.2 10.3 L 678.2 28.4 L 673.6 28.4 L 673.6 10.3 L 678.2 10.3 Z M 699.6 17.4 C 699.61 17.39 699.6 28.4 699.6 28.4 L 695 28.4 C 695 28.4 695.05 17.86 695 17.9 C 695 14.6 693.6 13.6 691.7 13.6 C 690.1 13.6 688.7 14.5 687.5 16.3 C 687.52 16.26 687.5 28.4 687.5 28.4 L 683 28.4 L 683 10.3 L 687.5 10.3 C 687.5 10.3 687.52 12.67 687.5 12.7 C 689.2 10.8 691.4 9.9 693.3 9.9 C 697.5 9.9 699.6 12.8 699.6 17.4 Z M 709.3 5.9 L 709.6 5.9 L 709.6 10.3 L 715.4 10.3 L 715.4 13.9 L 709.6 13.9 C 709.6 13.9 709.59 21.57 709.6 21.6 C 709.6 23.4 710 24.9 712.2 24.9 C 713.6 24.9 715.1 24.3 716.2 23.6 C 716.2 23.6 716.2 27.5 716.2 27.5 C 714.8 28.3 712.6 28.8 711.1 28.8 C 707.1 28.8 705 26.7 705 22 C 705.03 22 705 13.9 705 13.9 L 702 13.9 L 702 13.3 L 709.3 5.9 Z M 735.7 19.4 C 735.68 19.38 735.7 20.1 735.7 20.1 C 735.7 20.1 722.93 20.08 722.9 20.1 C 723.2 23.1 725.4 25.1 728.5 25.1 C 730.9 25.1 733.2 24.3 735.3 23 C 735.3 23 735.3 26.7 735.3 26.7 C 733 28.2 730.6 28.8 727.8 28.8 C 722.3 28.8 718.3 25.1 718.3 19.2 C 718.3 13.8 721.8 9.9 727.4 9.9 C 732 9.9 735.7 13.3 735.7 19.4 Z M 731.3 17.6 C 731.2 14.9 729.7 13.3 727.3 13.3 C 724.8 13.3 723 15.1 722.9 17.6 C 722.9 17.6 731.3 17.6 731.3 17.6 Z M 755.1 13.5 C 755.1 13.5 751.64 13.45 751.6 13.5 C 752.9 14.5 753.5 15.8 753.5 17.3 C 753.5 20.6 751 22.7 747.4 23.2 C 745.9 23.4 744.3 23.6 744.3 24.7 C 744.3 25.6 745.8 26.1 748.6 26.5 C 753.4 27.2 754.9 29.4 754.9 31.8 C 754.9 35.5 751.5 37.5 746.1 37.5 C 740.2 37.5 737.4 35.3 737.4 32.3 C 737.4 30.2 738.4 28.4 741.8 27.7 C 740.8 27.1 740.1 26.2 740.1 25.3 C 740.1 24.1 741 23 742.9 22.5 C 740 21.4 738.6 19.3 738.6 16.8 C 738.6 12.8 741.6 10.3 747 10.3 C 747.03 10.26 755.1 10.3 755.1 10.3 L 755.1 13.5 Z M 746 20.1 C 748 20.1 749.4 18.8 749.4 16.8 C 749.4 15.1 748 13.6 746 13.6 C 744 13.6 742.6 15.2 742.6 16.9 C 742.6 18.9 744.2 20.1 746 20.1 Z M 746.2 34.6 C 749.1 34.6 750.9 33.7 750.9 32.1 C 750.9 30.4 748.7 29.6 745.6 29.6 C 743.2 29.6 741.5 30.3 741.5 32.1 C 741.5 33.7 743.1 34.6 746.2 34.6 Z M 771.8 11.7 C 771.8 11.7 769.8 16 769.8 16 C 768.8 15 767.5 14.4 766.5 14.4 C 764.6 14.4 762.6 16.1 762.2 19.4 C 762.24 19.38 762.2 28.4 762.2 28.4 L 757.7 28.4 L 757.7 10.3 L 762.2 10.3 C 762.2 10.3 762.24 14.51 762.2 14.5 C 764 11.4 765.8 9.9 767.7 9.9 C 769.1 9.9 770.5 10.6 771.8 11.7 Z M 778.8 5.2 C 778.8 6.5 777.8 7.5 776.5 7.5 C 775.2 7.5 774.2 6.4 774.2 5.2 C 774.2 4 775.2 2.9 776.5 2.9 C 777.8 2.9 778.8 3.9 778.8 5.2 Z M 778.8 10.3 L 778.8 28.4 L 774.2 28.4 L 774.2 10.3 L 778.8 10.3 Z M 788.6 5.9 L 788.9 5.9 L 788.9 10.3 L 794.8 10.3 L 794.8 13.9 L 788.9 13.9 C 788.9 13.9 788.92 21.57 788.9 21.6 C 788.9 23.4 789.3 24.9 791.5 24.9 C 792.9 24.9 794.4 24.3 795.5 23.6 C 795.5 23.6 795.5 27.5 795.5 27.5 C 794.1 28.3 792 28.8 790.4 28.8 C 786.4 28.8 784.4 26.7 784.4 22 C 784.36 22 784.4 13.9 784.4 13.9 L 781.3 13.9 L 781.3 13.3 L 788.6 5.9 Z M 802 10.3 L 806.5 20.1 L 811.1 10.3 L 815.7 10.3 L 803.1 37.4 L 798.4 37.4 L 804.1 25.1 L 797 10.3 L 802 10.3 Z " stroke="none" fill="#ffffff"/>  </g></svg>