<?xml version="1.0" standalone="no"?><!DOCTYPE svg PUBLIC "-//W3C//DTD SVG 1.1//EN" "http://www.w3.org/Graphics/SVG/1.1/DTD/svg11.dtd"><svg xmlns="http://www.w3.org/2000/svg" version="1.1" width="234.2px" height="31.4px" viewBox="0 -5 234.2 31.4" style="top:-5px">  <desc>Standards We Support</desc>  <defs/>  <g id="Polygon135599">    <path d="M 7.9 1.6 C 7.9 1.6 7.9 3.3 7.9 3.3 C 6.9 2.5 5.9 2.1 4.8 2.1 C 3.3 2.1 2.4 2.9 2.4 4.1 C 2.4 5 2.6 5.8 4.9 6.9 C 7.7 8.4 8.4 9.4 8.4 11.2 C 8.4 13.2 6.8 14.8 4.5 14.8 C 3.2 14.8 2 14.3 0.9 13.6 C 0.9 13.6 0.9 11.7 0.9 11.7 C 2 12.8 3.2 13.4 4.5 13.4 C 5.9 13.4 6.9 12.6 6.9 11.2 C 6.9 10.1 6.5 9.4 3.8 8 C 1.7 6.9 0.9 5.9 0.9 4.1 C 0.9 2.2 2.5 0.8 4.8 0.8 C 5.9 0.8 6.9 1.1 7.9 1.6 Z M 20.7 0.9 L 20.7 2.3 L 15.8 2.3 L 15.8 14.6 L 14.3 14.6 L 14.3 2.3 L 9.5 2.3 L 9.5 0.9 L 20.7 0.9 Z M 26.3 0.9 L 32.4 14.6 L 30.8 14.6 L 28.9 10.3 L 22.7 10.3 L 20.9 14.6 L 19.3 14.6 L 25.2 0.9 L 26.3 0.9 Z M 23.3 9 L 28.3 9 L 25.7 3.2 L 23.3 9 Z M 35.2 0.9 L 44.8 12.2 L 44.8 0.9 L 46.3 0.9 L 46.3 14.6 L 45 14.6 L 35.4 3.3 L 35.4 14.6 L 33.9 14.6 L 33.9 0.9 L 35.2 0.9 Z M 49.3 0.9 C 49.3 0.9 54.36 0.94 54.4 0.9 C 58.8 0.9 61.7 3.7 61.7 7.6 C 61.7 11.9 58.7 14.6 54.4 14.6 C 54.36 14.58 49.3 14.6 49.3 14.6 L 49.3 0.9 Z M 54.3 13.2 C 57.9 13.2 60.1 11.1 60.1 7.7 C 60.1 4.4 58 2.3 54.1 2.3 C 54.12 2.28 50.8 2.3 50.8 2.3 L 50.8 13.2 C 50.8 13.2 54.34 13.22 54.3 13.2 Z M 69.1 0.9 L 75.1 14.6 L 73.6 14.6 L 71.7 10.3 L 65.5 10.3 L 63.6 14.6 L 62.1 14.6 L 68 0.9 L 69.1 0.9 Z M 66.1 9 L 71.1 9 L 68.5 3.2 L 66.1 9 Z M 76.7 0.9 C 76.7 0.9 80.28 0.94 80.3 0.9 C 83 0.9 84.4 2.5 84.4 4.6 C 84.4 6.3 83.5 7.5 81.9 8 C 82.7 8.4 83.1 8.8 84.3 10.5 C 84.26 10.5 86.9 14.6 86.9 14.6 L 85.1 14.6 C 85.1 14.6 82.72 10.82 82.7 10.8 C 81.5 8.8 80.6 8.4 79.5 8.4 C 79.46 8.38 78.2 8.4 78.2 8.4 L 78.2 14.6 L 76.7 14.6 L 76.7 0.9 Z M 79.6 7.1 C 81.5 7.1 82.9 6.6 82.9 4.6 C 82.9 2.9 81.8 2.3 80.1 2.3 C 80.08 2.26 78.2 2.3 78.2 2.3 L 78.2 7.1 C 78.2 7.1 79.6 7.06 79.6 7.1 Z M 88.4 0.9 C 88.4 0.9 93.42 0.94 93.4 0.9 C 97.9 0.9 100.8 3.7 100.8 7.6 C 100.8 11.9 97.8 14.6 93.4 14.6 C 93.42 14.58 88.4 14.6 88.4 14.6 L 88.4 0.9 Z M 93.4 13.2 C 97 13.2 99.2 11.1 99.2 7.7 C 99.2 4.4 97 2.3 93.2 2.3 C 93.18 2.28 89.9 2.3 89.9 2.3 L 89.9 13.2 C 89.9 13.2 93.4 13.22 93.4 13.2 Z M 109.6 1.6 C 109.6 1.6 109.6 3.3 109.6 3.3 C 108.6 2.5 107.6 2.1 106.5 2.1 C 105.1 2.1 104.1 2.9 104.1 4.1 C 104.1 5 104.3 5.8 106.6 6.9 C 109.4 8.4 110.1 9.4 110.1 11.2 C 110.1 13.2 108.5 14.8 106.2 14.8 C 104.9 14.8 103.7 14.3 102.7 13.6 C 102.7 13.6 102.7 11.7 102.7 11.7 C 103.7 12.8 104.9 13.4 106.2 13.4 C 107.6 13.4 108.6 12.6 108.6 11.2 C 108.6 10.1 108.2 9.4 105.6 8 C 103.4 6.9 102.6 5.9 102.6 4.1 C 102.6 2.2 104.3 0.8 106.5 0.8 C 107.6 0.8 108.7 1.1 109.6 1.6 Z M 115.8 0.9 L 117.3 0.9 L 121.4 11.3 L 121.4 11.3 L 125.4 0.9 L 126.8 0.9 L 130.9 11.3 L 130.9 11.3 L 134.9 0.9 L 136.4 0.9 L 131 14.7 L 130.7 14.7 L 126.1 3.1 L 121.5 14.7 L 121.2 14.7 L 115.8 0.9 Z M 145.5 0.9 L 145.5 2.3 L 139.5 2.3 L 139.5 7 L 145.3 7 L 145.3 8.4 L 139.5 8.4 L 139.5 13.2 L 145.6 13.2 L 145.6 14.6 L 138 14.6 L 138 0.9 L 145.5 0.9 Z M 159.2 1.6 C 159.2 1.6 159.2 3.3 159.2 3.3 C 158.3 2.5 157.3 2.1 156.1 2.1 C 154.7 2.1 153.8 2.9 153.8 4.1 C 153.8 5 154 5.8 156.2 6.9 C 159.1 8.4 159.7 9.4 159.7 11.2 C 159.7 13.2 158.2 14.8 155.8 14.8 C 154.5 14.8 153.3 14.3 152.3 13.6 C 152.3 13.6 152.3 11.7 152.3 11.7 C 153.3 12.8 154.5 13.4 155.8 13.4 C 157.2 13.4 158.2 12.6 158.2 11.2 C 158.2 10.1 157.8 9.4 155.2 8 C 153.1 6.9 152.2 5.9 152.2 4.1 C 152.2 2.2 153.9 0.8 156.2 0.8 C 157.2 0.8 158.3 1.1 159.2 1.6 Z M 163.4 0.9 C 163.4 0.9 163.4 8.8 163.4 8.8 C 163.4 11.8 164.8 13.4 167.6 13.4 C 170.5 13.4 171.8 11.8 171.8 8.8 C 171.84 8.8 171.8 0.9 171.8 0.9 L 173.3 0.9 C 173.3 0.9 173.34 8.8 173.3 8.8 C 173.3 12.4 171.4 14.8 167.7 14.8 C 163.9 14.8 161.9 12.6 161.9 8.8 C 161.9 8.8 161.9 0.9 161.9 0.9 L 163.4 0.9 Z M 180.1 0.9 C 182.8 0.9 184.5 2.3 184.5 4.7 C 184.5 7.2 182.8 8.4 179.9 8.4 C 179.86 8.44 177.7 8.4 177.7 8.4 L 177.7 14.6 L 176.2 14.6 L 176.2 0.9 C 176.2 0.9 180.12 0.94 180.1 0.9 Z M 177.7 7.1 C 177.7 7.1 179.82 7.12 179.8 7.1 C 182.1 7.1 183 6.2 183 4.7 C 183 3.1 182 2.3 179.8 2.3 C 179.82 2.26 177.7 2.3 177.7 2.3 L 177.7 7.1 Z M 190.5 0.9 C 193.2 0.9 194.9 2.3 194.9 4.7 C 194.9 7.2 193.2 8.4 190.2 8.4 C 190.24 8.44 188.1 8.4 188.1 8.4 L 188.1 14.6 L 186.6 14.6 L 186.6 0.9 C 186.6 0.9 190.5 0.94 190.5 0.9 Z M 188.1 7.1 C 188.1 7.1 190.2 7.12 190.2 7.1 C 192.5 7.1 193.3 6.2 193.3 4.7 C 193.3 3.1 192.4 2.3 190.2 2.3 C 190.2 2.26 188.1 2.3 188.1 2.3 L 188.1 7.1 Z M 210.8 7.7 C 210.8 11.5 208 14.8 203.5 14.8 C 199.2 14.8 196.4 11.5 196.4 7.8 C 196.4 4 199.1 0.8 203.5 0.8 C 207.9 0.8 210.8 3.9 210.8 7.7 Z M 197.9 7.8 C 197.9 11 200.4 13.4 203.5 13.3 C 207.6 13.3 209.2 10.2 209.2 7.7 C 209.2 5 207.2 2.2 203.6 2.2 C 199.9 2.2 197.9 5 197.9 7.8 Z M 213.2 0.9 C 213.2 0.9 216.82 0.94 216.8 0.9 C 219.6 0.9 221 2.5 221 4.6 C 221 6.3 220.1 7.5 218.4 8 C 219.3 8.4 219.7 8.8 220.8 10.5 C 220.8 10.5 223.4 14.6 223.4 14.6 L 221.7 14.6 C 221.7 14.6 219.26 10.82 219.3 10.8 C 218 8.8 217.2 8.4 216 8.4 C 216 8.38 214.7 8.4 214.7 8.4 L 214.7 14.6 L 213.2 14.6 L 213.2 0.9 Z M 216.1 7.1 C 218 7.1 219.4 6.6 219.4 4.6 C 219.4 2.9 218.4 2.3 216.6 2.3 C 216.62 2.26 214.7 2.3 214.7 2.3 L 214.7 7.1 C 214.7 7.1 216.14 7.06 216.1 7.1 Z M 233.9 0.9 L 233.9 2.3 L 229 2.3 L 229 14.6 L 227.5 14.6 L 227.5 2.3 L 222.7 2.3 L 222.7 0.9 L 233.9 0.9 Z " stroke="none" fill="#e4007e"/>  </g></svg>