<?xml version="1.0" standalone="no"?><!DOCTYPE svg PUBLIC "-//W3C//DTD SVG 1.1//EN" "http://www.w3.org/Graphics/SVG/1.1/DTD/svg11.dtd"><svg xmlns="http://www.w3.org/2000/svg" version="1.1" width="237px" height="35.9px" viewBox="0 -1 237 35.9" style="top:-1px">  <desc>Leadership &amp; Management</desc>  <defs/>  <g id="Polygon109860">    <path d="M 1.1 20.5 L 1.1 10.6 L 3.1 10.6 L 3.1 18.8 L 8.1 18.8 L 8.1 20.5 L 1.1 20.5 Z M 13.8 18.2 C 13.8 18.2 15.7 18.5 15.7 18.5 C 15.4 19.2 15 19.7 14.5 20.1 C 14 20.5 13.3 20.7 12.5 20.7 C 11.3 20.7 10.3 20.3 9.7 19.4 C 9.2 18.8 9 17.9 9 16.9 C 9 15.7 9.3 14.8 9.9 14.1 C 10.6 13.4 11.4 13.1 12.3 13.1 C 13.4 13.1 14.3 13.4 14.9 14.1 C 15.5 14.9 15.8 16 15.8 17.4 C 15.8 17.4 11 17.4 11 17.4 C 11 18 11.1 18.4 11.4 18.8 C 11.7 19.1 12.1 19.2 12.5 19.2 C 12.8 19.2 13.1 19.1 13.3 19 C 13.5 18.8 13.7 18.6 13.8 18.2 Z M 13.9 16.2 C 13.9 15.7 13.7 15.3 13.4 15 C 13.2 14.7 12.8 14.5 12.4 14.5 C 12 14.5 11.7 14.7 11.4 15 C 11.1 15.3 11 15.7 11 16.2 C 11 16.2 13.9 16.2 13.9 16.2 Z M 18.8 15.5 C 18.8 15.5 17 15.1 17 15.1 C 17.2 14.4 17.6 13.9 18 13.6 C 18.5 13.2 19.2 13.1 20.2 13.1 C 21 13.1 21.7 13.2 22.1 13.4 C 22.5 13.6 22.8 13.8 23 14.2 C 23.1 14.5 23.2 15 23.2 15.9 C 23.2 15.9 23.2 18.1 23.2 18.1 C 23.2 18.8 23.2 19.2 23.3 19.5 C 23.4 19.8 23.5 20.2 23.7 20.5 C 23.7 20.5 21.8 20.5 21.8 20.5 C 21.7 20.4 21.6 20.2 21.6 19.9 C 21.5 19.8 21.5 19.7 21.5 19.7 C 21.2 20 20.8 20.3 20.4 20.4 C 20.1 20.6 19.7 20.7 19.2 20.7 C 18.5 20.7 17.9 20.5 17.5 20.1 C 17.1 19.7 16.8 19.1 16.8 18.5 C 16.8 18.1 16.9 17.7 17.1 17.4 C 17.3 17.1 17.6 16.9 18 16.7 C 18.3 16.5 18.8 16.4 19.5 16.2 C 20.4 16.1 21 15.9 21.3 15.8 C 21.3 15.8 21.3 15.6 21.3 15.6 C 21.3 15.2 21.3 14.9 21.1 14.8 C 20.9 14.6 20.5 14.5 20 14.5 C 19.7 14.5 19.4 14.6 19.2 14.7 C 19.1 14.9 18.9 15.1 18.8 15.5 Z M 21.3 17 C 21.1 17.1 20.7 17.2 20.2 17.3 C 19.6 17.4 19.3 17.5 19.1 17.6 C 18.9 17.8 18.8 18 18.8 18.3 C 18.8 18.6 18.9 18.8 19.1 19 C 19.3 19.2 19.5 19.3 19.8 19.3 C 20.2 19.3 20.5 19.2 20.8 19 C 21 18.8 21.2 18.6 21.3 18.3 C 21.3 18.2 21.3 17.9 21.3 17.4 C 21.3 17.4 21.3 17 21.3 17 Z M 31.8 20.5 L 30 20.5 C 30 20.5 30 19.43 30 19.4 C 29.7 19.8 29.4 20.2 29 20.4 C 28.6 20.6 28.1 20.7 27.7 20.7 C 26.9 20.7 26.2 20.3 25.6 19.7 C 25 19 24.7 18 24.7 16.8 C 24.7 15.6 25 14.7 25.6 14 C 26.1 13.4 26.9 13.1 27.8 13.1 C 28.6 13.1 29.3 13.4 29.9 14.1 C 29.87 14.09 29.9 10.5 29.9 10.5 L 31.8 10.5 L 31.8 20.5 Z M 26.7 16.7 C 26.7 17.5 26.8 18 27 18.4 C 27.3 18.9 27.7 19.1 28.3 19.1 C 28.7 19.1 29.1 19 29.4 18.6 C 29.7 18.2 29.9 17.6 29.9 16.9 C 29.9 16.1 29.7 15.5 29.4 15.1 C 29.1 14.7 28.7 14.5 28.3 14.5 C 27.8 14.5 27.4 14.7 27.1 15.1 C 26.8 15.5 26.7 16 26.7 16.7 Z M 37.9 18.2 C 37.9 18.2 39.8 18.5 39.8 18.5 C 39.6 19.2 39.2 19.7 38.6 20.1 C 38.1 20.5 37.4 20.7 36.6 20.7 C 35.4 20.7 34.4 20.3 33.8 19.4 C 33.4 18.8 33.1 17.9 33.1 16.9 C 33.1 15.7 33.4 14.8 34.1 14.1 C 34.7 13.4 35.5 13.1 36.4 13.1 C 37.5 13.1 38.4 13.4 39 14.1 C 39.6 14.9 39.9 16 39.9 17.4 C 39.9 17.4 35.1 17.4 35.1 17.4 C 35.1 18 35.3 18.4 35.6 18.8 C 35.8 19.1 36.2 19.2 36.7 19.2 C 37 19.2 37.2 19.1 37.4 19 C 37.6 18.8 37.8 18.6 37.9 18.2 Z M 38 16.2 C 38 15.7 37.8 15.3 37.6 15 C 37.3 14.7 37 14.5 36.6 14.5 C 36.1 14.5 35.8 14.7 35.5 15 C 35.3 15.3 35.1 15.7 35.1 16.2 C 35.1 16.2 38 16.2 38 16.2 Z M 43.3 20.5 L 41.4 20.5 L 41.4 13.2 L 43.2 13.2 C 43.2 13.2 43.17 14.27 43.2 14.3 C 43.5 13.8 43.7 13.5 44 13.3 C 44.2 13.2 44.5 13.1 44.8 13.1 C 45.3 13.1 45.7 13.2 46.1 13.4 C 46.1 13.4 45.5 15.1 45.5 15.1 C 45.2 14.9 44.9 14.8 44.6 14.8 C 44.3 14.8 44.1 14.9 43.9 15 C 43.7 15.2 43.6 15.4 43.5 15.8 C 43.4 16.2 43.3 17 43.3 18.3 C 43.31 18.26 43.3 20.5 43.3 20.5 Z M 46.2 18.4 C 46.2 18.4 48.2 18.1 48.2 18.1 C 48.2 18.5 48.4 18.8 48.7 19 C 48.9 19.2 49.3 19.3 49.7 19.3 C 50.2 19.3 50.6 19.2 50.8 19 C 51 18.9 51.1 18.7 51.1 18.5 C 51.1 18.3 51 18.2 51 18.1 C 50.9 18 50.6 18 50.3 17.9 C 48.8 17.5 47.8 17.2 47.4 16.9 C 46.8 16.5 46.5 16 46.5 15.3 C 46.5 14.7 46.8 14.1 47.2 13.7 C 47.7 13.3 48.5 13.1 49.6 13.1 C 50.6 13.1 51.3 13.2 51.8 13.6 C 52.3 13.9 52.6 14.4 52.8 15 C 52.8 15 51 15.3 51 15.3 C 50.9 15.1 50.7 14.8 50.5 14.7 C 50.3 14.5 50 14.5 49.6 14.5 C 49.1 14.5 48.7 14.5 48.5 14.7 C 48.4 14.8 48.3 14.9 48.3 15.1 C 48.3 15.2 48.4 15.3 48.5 15.4 C 48.7 15.5 49.3 15.7 50.3 15.9 C 51.3 16.2 52 16.5 52.4 16.8 C 52.8 17.1 53 17.6 53 18.2 C 53 18.9 52.7 19.5 52.2 19.9 C 51.6 20.4 50.8 20.7 49.7 20.7 C 48.7 20.7 47.9 20.5 47.4 20.1 C 46.8 19.7 46.4 19.1 46.2 18.4 Z M 56.6 10.5 C 56.6 10.5 56.62 14.16 56.6 14.2 C 57.2 13.4 58 13.1 58.8 13.1 C 59.3 13.1 59.7 13.2 60 13.3 C 60.4 13.5 60.7 13.7 60.8 14 C 61 14.2 61.1 14.5 61.2 14.8 C 61.3 15.1 61.3 15.6 61.3 16.2 C 61.3 16.24 61.3 20.5 61.3 20.5 L 59.4 20.5 C 59.4 20.5 59.38 16.67 59.4 16.7 C 59.4 15.9 59.3 15.4 59.3 15.2 C 59.2 15 59.1 14.8 58.9 14.7 C 58.7 14.6 58.5 14.5 58.2 14.5 C 57.9 14.5 57.6 14.6 57.3 14.8 C 57.1 14.9 56.9 15.2 56.8 15.5 C 56.7 15.8 56.6 16.3 56.6 16.9 C 56.62 16.86 56.6 20.5 56.6 20.5 L 54.7 20.5 L 54.7 10.5 L 56.6 10.5 Z M 63.3 12.3 L 63.3 10.5 L 65.2 10.5 L 65.2 12.3 L 63.3 12.3 Z M 63.3 20.5 L 63.3 13.2 L 65.2 13.2 L 65.2 20.5 L 63.3 20.5 Z M 67.1 13.2 L 68.9 13.2 C 68.9 13.2 68.88 14.31 68.9 14.3 C 69.1 13.9 69.4 13.6 69.8 13.4 C 70.2 13.2 70.7 13.1 71.1 13.1 C 72 13.1 72.7 13.4 73.3 14.1 C 73.9 14.7 74.2 15.7 74.2 16.8 C 74.2 18 73.9 19 73.3 19.7 C 72.7 20.3 72 20.7 71.1 20.7 C 70.7 20.7 70.4 20.6 70 20.4 C 69.7 20.3 69.4 20 69 19.6 C 69.01 19.61 69 23.3 69 23.3 L 67.1 23.3 L 67.1 13.2 Z M 69 16.7 C 69 17.6 69.1 18.2 69.5 18.6 C 69.8 18.9 70.2 19.1 70.7 19.1 C 71.1 19.1 71.5 19 71.8 18.6 C 72.1 18.2 72.2 17.7 72.2 16.8 C 72.2 16.1 72.1 15.5 71.8 15.1 C 71.5 14.8 71.1 14.6 70.6 14.6 C 70.2 14.6 69.8 14.8 69.5 15.1 C 69.1 15.5 69 16 69 16.7 Z M 88.5 19.3 C 88.5 19.3 87.3 20.8 87.3 20.8 C 86.7 20.5 86.2 20.1 85.7 19.6 C 85.3 20 84.8 20.2 84.4 20.4 C 83.9 20.6 83.4 20.7 82.7 20.7 C 81.5 20.7 80.6 20.3 79.9 19.6 C 79.4 19.1 79.2 18.5 79.2 17.8 C 79.2 17.1 79.4 16.5 79.8 16 C 80.2 15.5 80.7 15.1 81.5 14.7 C 81.1 14.3 80.9 13.9 80.7 13.5 C 80.5 13.2 80.5 12.8 80.5 12.5 C 80.5 11.9 80.7 11.4 81.2 10.9 C 81.7 10.5 82.4 10.3 83.3 10.3 C 84.1 10.3 84.8 10.5 85.3 11 C 85.8 11.4 86 12 86 12.6 C 86 13 85.9 13.4 85.7 13.7 C 85.4 14.1 84.9 14.5 84.2 15 C 84.2 15 85.6 16.8 85.6 16.8 C 85.7 16.5 85.9 16.2 86 15.7 C 86 15.7 87.7 16.1 87.7 16.1 C 87.6 16.7 87.4 17.1 87.3 17.4 C 87.2 17.7 87 18 86.9 18.1 C 87.1 18.3 87.4 18.6 87.7 18.8 C 88.1 19 88.3 19.2 88.5 19.3 Z M 83.2 13.8 C 83.2 13.8 83.75 13.43 83.8 13.4 C 84.1 13.1 84.3 12.8 84.3 12.6 C 84.3 12.3 84.2 12.1 84.1 11.9 C 83.9 11.7 83.6 11.7 83.3 11.7 C 83 11.7 82.8 11.7 82.6 11.9 C 82.4 12 82.3 12.2 82.3 12.4 C 82.3 12.7 82.5 12.9 82.8 13.3 C 82.76 13.28 83.2 13.8 83.2 13.8 Z M 82.5 15.9 C 82 16.1 81.7 16.4 81.5 16.7 C 81.3 17 81.2 17.4 81.2 17.7 C 81.2 18.1 81.3 18.4 81.6 18.7 C 81.8 19 82.2 19.1 82.7 19.1 C 83 19.1 83.3 19 83.5 18.9 C 83.8 18.8 84.1 18.6 84.4 18.3 C 84.4 18.3 82.5 15.9 82.5 15.9 Z M 93.6 20.5 L 93.6 10.5 L 96.6 10.5 L 98.4 17.3 L 100.2 10.5 L 103.2 10.5 L 103.2 20.5 L 101.4 20.5 L 101.4 12.6 L 99.4 20.5 L 97.4 20.5 L 95.5 12.6 L 95.5 20.5 L 93.6 20.5 Z M 106.7 15.5 C 106.7 15.5 104.9 15.1 104.9 15.1 C 105.1 14.4 105.5 13.9 106 13.6 C 106.4 13.2 107.1 13.1 108.1 13.1 C 108.9 13.1 109.6 13.2 110 13.4 C 110.4 13.6 110.7 13.8 110.9 14.2 C 111.1 14.5 111.1 15 111.1 15.9 C 111.1 15.9 111.1 18.1 111.1 18.1 C 111.1 18.8 111.1 19.2 111.2 19.5 C 111.3 19.8 111.4 20.2 111.6 20.5 C 111.6 20.5 109.7 20.5 109.7 20.5 C 109.6 20.4 109.5 20.2 109.5 19.9 C 109.4 19.8 109.4 19.7 109.4 19.7 C 109.1 20 108.7 20.3 108.3 20.4 C 108 20.6 107.6 20.7 107.2 20.7 C 106.4 20.7 105.8 20.5 105.4 20.1 C 105 19.7 104.7 19.1 104.7 18.5 C 104.7 18.1 104.8 17.7 105 17.4 C 105.2 17.1 105.5 16.9 105.9 16.7 C 106.2 16.5 106.7 16.4 107.4 16.2 C 108.3 16.1 108.9 15.9 109.3 15.8 C 109.3 15.8 109.3 15.6 109.3 15.6 C 109.3 15.2 109.2 14.9 109 14.8 C 108.8 14.6 108.5 14.5 107.9 14.5 C 107.6 14.5 107.3 14.6 107.1 14.7 C 107 14.9 106.8 15.1 106.7 15.5 Z M 109.3 17 C 109 17.1 108.6 17.2 108.1 17.3 C 107.5 17.4 107.2 17.5 107 17.6 C 106.8 17.8 106.7 18 106.7 18.3 C 106.7 18.6 106.8 18.8 107 19 C 107.2 19.2 107.4 19.3 107.7 19.3 C 108.1 19.3 108.4 19.2 108.7 19 C 109 18.8 109.1 18.6 109.2 18.3 C 109.2 18.2 109.3 17.9 109.3 17.4 C 109.3 17.4 109.3 17 109.3 17 Z M 119.6 20.5 L 117.7 20.5 C 117.7 20.5 117.71 16.8 117.7 16.8 C 117.7 16 117.7 15.5 117.6 15.3 C 117.5 15 117.4 14.9 117.2 14.7 C 117 14.6 116.8 14.5 116.5 14.5 C 116.2 14.5 115.9 14.6 115.6 14.8 C 115.4 15 115.2 15.2 115.1 15.5 C 115 15.8 114.9 16.4 114.9 17.2 C 114.94 17.21 114.9 20.5 114.9 20.5 L 113 20.5 L 113 13.2 L 114.8 13.2 C 114.8 13.2 114.8 14.31 114.8 14.3 C 115.4 13.5 116.2 13.1 117.2 13.1 C 117.6 13.1 118 13.2 118.4 13.3 C 118.7 13.5 119 13.7 119.2 13.9 C 119.3 14.1 119.5 14.4 119.5 14.7 C 119.6 15 119.6 15.4 119.6 16 C 119.64 15.99 119.6 20.5 119.6 20.5 Z M 123 15.5 C 123 15.5 121.3 15.1 121.3 15.1 C 121.5 14.4 121.8 13.9 122.3 13.6 C 122.8 13.2 123.5 13.1 124.4 13.1 C 125.3 13.1 125.9 13.2 126.3 13.4 C 126.8 13.6 127 13.8 127.2 14.2 C 127.4 14.5 127.5 15 127.5 15.9 C 127.5 15.9 127.5 18.1 127.5 18.1 C 127.5 18.8 127.5 19.2 127.5 19.5 C 127.6 19.8 127.7 20.2 127.9 20.5 C 127.9 20.5 126 20.5 126 20.5 C 125.9 20.4 125.9 20.2 125.8 19.9 C 125.8 19.8 125.8 19.7 125.7 19.7 C 125.4 20 125.1 20.3 124.7 20.4 C 124.3 20.6 123.9 20.7 123.5 20.7 C 122.7 20.7 122.2 20.5 121.7 20.1 C 121.3 19.7 121.1 19.1 121.1 18.5 C 121.1 18.1 121.2 17.7 121.4 17.4 C 121.6 17.1 121.8 16.9 122.2 16.7 C 122.5 16.5 123.1 16.4 123.7 16.2 C 124.6 16.1 125.2 15.9 125.6 15.8 C 125.6 15.8 125.6 15.6 125.6 15.6 C 125.6 15.2 125.5 14.9 125.3 14.8 C 125.1 14.6 124.8 14.5 124.3 14.5 C 123.9 14.5 123.7 14.6 123.5 14.7 C 123.3 14.9 123.1 15.1 123 15.5 Z M 125.6 17 C 125.3 17.1 125 17.2 124.4 17.3 C 123.9 17.4 123.5 17.5 123.4 17.6 C 123.1 17.8 123 18 123 18.3 C 123 18.6 123.1 18.8 123.3 19 C 123.5 19.2 123.8 19.3 124.1 19.3 C 124.4 19.3 124.7 19.2 125.1 19 C 125.3 18.8 125.4 18.6 125.5 18.3 C 125.6 18.2 125.6 17.9 125.6 17.4 C 125.6 17.4 125.6 17 125.6 17 Z M 129.2 21.2 C 129.2 21.1 129.2 21.1 129.2 21 C 129.2 21 131.4 21.2 131.4 21.2 C 131.4 21.5 131.5 21.7 131.6 21.8 C 131.8 21.9 132.1 22 132.5 22 C 133 22 133.4 21.9 133.6 21.8 C 133.8 21.7 133.9 21.5 134 21.3 C 134.1 21.1 134.1 20.8 134.1 20.4 C 134.1 20.4 134.1 19.3 134.1 19.3 C 133.5 20.1 132.8 20.5 131.9 20.5 C 131 20.5 130.2 20.1 129.6 19.3 C 129.2 18.6 128.9 17.8 128.9 16.8 C 128.9 15.6 129.2 14.7 129.8 14 C 130.4 13.4 131.1 13.1 132 13.1 C 132.9 13.1 133.6 13.5 134.2 14.3 C 134.22 14.26 134.2 13.2 134.2 13.2 L 136 13.2 C 136 13.2 136.02 19.76 136 19.8 C 136 20.6 136 21.3 135.8 21.7 C 135.7 22.1 135.5 22.4 135.2 22.7 C 135 22.9 134.6 23.1 134.2 23.2 C 133.8 23.4 133.2 23.4 132.6 23.4 C 131.3 23.4 130.5 23.2 130 22.8 C 129.4 22.4 129.2 21.9 129.2 21.2 C 129.2 21.2 129.2 21.2 129.2 21.2 Z M 130.9 16.7 C 130.9 17.5 131.1 18.1 131.4 18.4 C 131.7 18.8 132 18.9 132.5 18.9 C 132.9 18.9 133.3 18.8 133.6 18.4 C 134 18 134.1 17.5 134.1 16.8 C 134.1 16 134 15.5 133.7 15.1 C 133.4 14.7 133 14.5 132.5 14.5 C 132 14.5 131.7 14.7 131.4 15.1 C 131.1 15.4 130.9 16 130.9 16.7 Z M 142.1 18.2 C 142.1 18.2 144 18.5 144 18.5 C 143.8 19.2 143.4 19.7 142.9 20.1 C 142.3 20.5 141.7 20.7 140.9 20.7 C 139.6 20.7 138.7 20.3 138.1 19.4 C 137.6 18.8 137.4 17.9 137.4 16.9 C 137.4 15.7 137.7 14.8 138.3 14.1 C 138.9 13.4 139.7 13.1 140.7 13.1 C 141.8 13.1 142.6 13.4 143.2 14.1 C 143.9 14.9 144.2 16 144.1 17.4 C 144.1 17.4 139.3 17.4 139.3 17.4 C 139.3 18 139.5 18.4 139.8 18.8 C 140.1 19.1 140.5 19.2 140.9 19.2 C 141.2 19.2 141.5 19.1 141.7 19 C 141.9 18.8 142 18.6 142.1 18.2 Z M 142.2 16.2 C 142.2 15.7 142.1 15.3 141.8 15 C 141.5 14.7 141.2 14.5 140.8 14.5 C 140.4 14.5 140 14.7 139.8 15 C 139.5 15.3 139.4 15.7 139.4 16.2 C 139.4 16.2 142.2 16.2 142.2 16.2 Z M 145.6 13.2 L 147.3 13.2 C 147.3 13.2 147.33 14.23 147.3 14.2 C 148 13.5 148.7 13.1 149.6 13.1 C 150.1 13.1 150.5 13.2 150.8 13.4 C 151.1 13.6 151.4 13.8 151.6 14.2 C 152 13.8 152.3 13.6 152.7 13.4 C 153 13.2 153.4 13.1 153.9 13.1 C 154.4 13.1 154.8 13.2 155.2 13.4 C 155.6 13.6 155.9 13.9 156 14.4 C 156.2 14.7 156.2 15.2 156.2 15.9 C 156.24 15.86 156.2 20.5 156.2 20.5 L 154.3 20.5 C 154.3 20.5 154.32 16.35 154.3 16.4 C 154.3 15.6 154.3 15.2 154.1 15 C 153.9 14.7 153.7 14.5 153.3 14.5 C 153 14.5 152.8 14.6 152.5 14.8 C 152.3 15 152.1 15.2 152 15.5 C 151.9 15.8 151.9 16.3 151.9 17 C 151.87 17.01 151.9 20.5 151.9 20.5 L 150 20.5 C 150 20.5 149.95 16.52 150 16.5 C 150 15.8 149.9 15.4 149.9 15.2 C 149.8 15 149.7 14.8 149.5 14.7 C 149.4 14.6 149.2 14.5 148.9 14.5 C 148.7 14.5 148.4 14.6 148.1 14.8 C 147.9 14.9 147.7 15.2 147.6 15.5 C 147.5 15.8 147.5 16.3 147.5 17 C 147.49 16.97 147.5 20.5 147.5 20.5 L 145.6 20.5 L 145.6 13.2 Z M 162.4 18.2 C 162.4 18.2 164.3 18.5 164.3 18.5 C 164 19.2 163.6 19.7 163.1 20.1 C 162.6 20.5 161.9 20.7 161.1 20.7 C 159.9 20.7 158.9 20.3 158.3 19.4 C 157.8 18.8 157.6 17.9 157.6 16.9 C 157.6 15.7 157.9 14.8 158.5 14.1 C 159.2 13.4 160 13.1 160.9 13.1 C 162 13.1 162.9 13.4 163.5 14.1 C 164.1 14.9 164.4 16 164.4 17.4 C 164.4 17.4 159.6 17.4 159.6 17.4 C 159.6 18 159.7 18.4 160 18.8 C 160.3 19.1 160.7 19.2 161.1 19.2 C 161.4 19.2 161.7 19.1 161.9 19 C 162.1 18.8 162.3 18.6 162.4 18.2 Z M 162.5 16.2 C 162.5 15.7 162.3 15.3 162 15 C 161.8 14.7 161.4 14.5 161 14.5 C 160.6 14.5 160.3 14.7 160 15 C 159.7 15.3 159.6 15.7 159.6 16.2 C 159.6 16.2 162.5 16.2 162.5 16.2 Z M 172.5 20.5 L 170.6 20.5 C 170.6 20.5 170.62 16.8 170.6 16.8 C 170.6 16 170.6 15.5 170.5 15.3 C 170.4 15 170.3 14.9 170.1 14.7 C 169.9 14.6 169.7 14.5 169.4 14.5 C 169.1 14.5 168.8 14.6 168.5 14.8 C 168.3 15 168.1 15.2 168 15.5 C 167.9 15.8 167.8 16.4 167.8 17.2 C 167.85 17.21 167.8 20.5 167.8 20.5 L 165.9 20.5 L 165.9 13.2 L 167.7 13.2 C 167.7 13.2 167.71 14.31 167.7 14.3 C 168.3 13.5 169.1 13.1 170.1 13.1 C 170.5 13.1 170.9 13.2 171.3 13.3 C 171.6 13.5 171.9 13.7 172.1 13.9 C 172.2 14.1 172.4 14.4 172.4 14.7 C 172.5 15 172.5 15.4 172.5 16 C 172.55 15.99 172.5 20.5 172.5 20.5 Z M 177.8 13.2 L 177.8 14.8 L 176.5 14.8 C 176.5 14.8 176.51 17.7 176.5 17.7 C 176.5 18.3 176.5 18.6 176.5 18.7 C 176.6 18.8 176.6 18.9 176.7 19 C 176.8 19 176.9 19.1 177 19.1 C 177.2 19.1 177.5 19 177.8 18.9 C 177.8 18.9 178 20.4 178 20.4 C 177.5 20.6 177 20.7 176.5 20.7 C 176.1 20.7 175.8 20.6 175.5 20.5 C 175.2 20.4 175 20.2 174.9 20 C 174.8 19.9 174.7 19.6 174.6 19.3 C 174.6 19.1 174.6 18.6 174.6 17.9 C 174.58 17.94 174.6 14.8 174.6 14.8 L 173.7 14.8 L 173.7 13.2 L 174.6 13.2 L 174.6 11.8 L 176.5 10.7 L 176.5 13.2 L 177.8 13.2 Z " stroke="none" fill="#fff"/>  </g></svg>