<?xml version="1.0" standalone="no"?><!DOCTYPE svg PUBLIC "-//W3C//DTD SVG 1.1//EN" "http://www.w3.org/Graphics/SVG/1.1/DTD/svg11.dtd"><svg xmlns="http://www.w3.org/2000/svg" version="1.1" width="156px" height="23.9px" viewBox="0 -5 156 23.9" style="top:-5px">  <desc>Management Information</desc>  <defs/>  <g id="Polygon139634">    <path d="M 1 10.2 L 1 0.2 L 3 0.2 C 3 0.2 5.41 7.27 5.4 7.3 C 5.6 7.9 5.8 8.4 5.9 8.8 C 6 8.4 6.2 7.9 6.4 7.1 C 6.42 7.14 8.8 0.2 8.8 0.2 L 10.6 0.2 L 10.6 10.2 L 9.3 10.2 L 9.3 1.8 L 6.4 10.2 L 5.2 10.2 L 2.3 1.7 L 2.3 10.2 L 1 10.2 Z M 17.6 10.2 C 17.4 9.9 17.4 9.6 17.3 9.3 C 16.9 9.7 16.4 10 16 10.1 C 15.6 10.3 15.1 10.4 14.6 10.4 C 13.9 10.4 13.2 10.2 12.8 9.8 C 12.4 9.4 12.2 8.9 12.2 8.3 C 12.2 7.9 12.2 7.6 12.4 7.3 C 12.6 7 12.8 6.8 13 6.6 C 13.3 6.4 13.6 6.3 13.9 6.2 C 14.2 6.1 14.5 6.1 15 6 C 16 5.9 16.8 5.7 17.2 5.6 C 17.2 5.4 17.2 5.3 17.2 5.3 C 17.2 4.8 17.1 4.4 16.9 4.2 C 16.6 3.9 16.1 3.8 15.5 3.8 C 14.9 3.8 14.5 3.9 14.2 4.1 C 13.9 4.3 13.7 4.7 13.6 5.2 C 13.6 5.2 12.4 5 12.4 5 C 12.5 4.5 12.7 4.1 12.9 3.8 C 13.2 3.4 13.5 3.2 14 3 C 14.5 2.9 15 2.8 15.7 2.8 C 16.3 2.8 16.8 2.8 17.2 3 C 17.6 3.1 17.8 3.3 18 3.5 C 18.2 3.8 18.3 4 18.4 4.4 C 18.4 4.6 18.5 5 18.5 5.5 C 18.5 5.5 18.5 7.2 18.5 7.2 C 18.5 8.3 18.5 9 18.5 9.3 C 18.6 9.6 18.7 9.9 18.9 10.2 C 18.85 10.19 17.6 10.2 17.6 10.2 C 17.6 10.2 17.57 10.19 17.6 10.2 Z M 17.2 6.5 C 16.8 6.7 16.1 6.9 15.2 7 C 14.7 7.1 14.3 7.2 14.1 7.3 C 13.9 7.4 13.8 7.5 13.7 7.7 C 13.5 7.8 13.5 8 13.5 8.2 C 13.5 8.6 13.6 8.8 13.9 9.1 C 14.1 9.3 14.5 9.4 14.9 9.4 C 15.4 9.4 15.8 9.3 16.2 9.1 C 16.6 8.9 16.8 8.6 17 8.2 C 17.2 8 17.2 7.5 17.2 7 C 17.2 7 17.2 6.5 17.2 6.5 Z M 20.4 10.2 L 20.4 2.9 L 21.5 2.9 C 21.5 2.9 21.48 3.96 21.5 4 C 22 3.2 22.8 2.8 23.8 2.8 C 24.2 2.8 24.6 2.8 25 3 C 25.4 3.2 25.6 3.4 25.8 3.6 C 26 3.9 26.1 4.2 26.2 4.5 C 26.2 4.8 26.3 5.2 26.3 5.7 C 26.27 5.73 26.3 10.2 26.3 10.2 L 25 10.2 C 25 10.2 25.04 5.78 25 5.8 C 25 5.3 25 4.9 24.9 4.7 C 24.8 4.4 24.6 4.2 24.4 4.1 C 24.1 3.9 23.9 3.8 23.5 3.8 C 23 3.8 22.6 4 22.2 4.3 C 21.8 4.7 21.6 5.3 21.6 6.2 C 21.6 6.23 21.6 10.2 21.6 10.2 L 20.4 10.2 Z M 33.1 10.2 C 33 9.9 32.9 9.6 32.9 9.3 C 32.4 9.7 32 10 31.6 10.1 C 31.2 10.3 30.7 10.4 30.2 10.4 C 29.4 10.4 28.8 10.2 28.4 9.8 C 28 9.4 27.7 8.9 27.7 8.3 C 27.7 7.9 27.8 7.6 28 7.3 C 28.1 7 28.4 6.8 28.6 6.6 C 28.9 6.4 29.2 6.3 29.5 6.2 C 29.7 6.1 30.1 6.1 30.6 6 C 31.6 5.9 32.3 5.7 32.8 5.6 C 32.8 5.4 32.8 5.3 32.8 5.3 C 32.8 4.8 32.7 4.4 32.5 4.2 C 32.1 3.9 31.7 3.8 31 3.8 C 30.5 3.8 30 3.9 29.8 4.1 C 29.5 4.3 29.3 4.7 29.2 5.2 C 29.2 5.2 28 5 28 5 C 28.1 4.5 28.2 4.1 28.5 3.8 C 28.7 3.4 29.1 3.2 29.6 3 C 30.1 2.9 30.6 2.8 31.2 2.8 C 31.8 2.8 32.3 2.8 32.7 3 C 33.1 3.1 33.4 3.3 33.6 3.5 C 33.8 3.8 33.9 4 34 4.4 C 34 4.6 34 5 34 5.5 C 34 5.5 34 7.2 34 7.2 C 34 8.3 34.1 9 34.1 9.3 C 34.2 9.6 34.3 9.9 34.4 10.2 C 34.43 10.19 33.1 10.2 33.1 10.2 C 33.1 10.2 33.14 10.19 33.1 10.2 Z M 32.8 6.5 C 32.3 6.7 31.7 6.9 30.8 7 C 30.3 7.1 29.9 7.2 29.7 7.3 C 29.5 7.4 29.3 7.5 29.2 7.7 C 29.1 7.8 29.1 8 29.1 8.2 C 29.1 8.6 29.2 8.8 29.4 9.1 C 29.7 9.3 30 9.4 30.5 9.4 C 31 9.4 31.4 9.3 31.8 9.1 C 32.1 8.9 32.4 8.6 32.6 8.2 C 32.7 8 32.8 7.5 32.8 7 C 32.8 7 32.8 6.5 32.8 6.5 Z M 35.7 10.8 C 35.7 10.8 36.9 11 36.9 11 C 37 11.3 37.1 11.6 37.3 11.8 C 37.6 12 38.1 12.1 38.6 12.1 C 39.2 12.1 39.6 12 39.9 11.8 C 40.2 11.6 40.4 11.2 40.5 10.8 C 40.6 10.6 40.6 10 40.6 9.2 C 40.1 9.9 39.4 10.2 38.6 10.2 C 37.6 10.2 36.8 9.8 36.3 9.1 C 35.7 8.4 35.5 7.5 35.5 6.5 C 35.5 5.8 35.6 5.2 35.8 4.6 C 36.1 4 36.5 3.6 36.9 3.2 C 37.4 2.9 38 2.8 38.6 2.8 C 39.5 2.8 40.2 3.1 40.7 3.8 C 40.74 3.81 40.7 2.9 40.7 2.9 L 41.9 2.9 C 41.9 2.9 41.87 9.21 41.9 9.2 C 41.9 10.3 41.8 11.1 41.5 11.6 C 41.3 12.1 40.9 12.5 40.4 12.7 C 39.9 13 39.3 13.1 38.6 13.1 C 37.7 13.1 37 12.9 36.5 12.6 C 36 12.2 35.7 11.6 35.7 10.8 Z M 36.7 6.4 C 36.7 7.4 36.9 8.1 37.3 8.5 C 37.7 9 38.2 9.2 38.7 9.2 C 39.3 9.2 39.8 9 40.1 8.5 C 40.5 8.1 40.7 7.4 40.7 6.5 C 40.7 5.6 40.5 4.9 40.1 4.5 C 39.7 4 39.3 3.8 38.7 3.8 C 38.2 3.8 37.7 4 37.3 4.5 C 36.9 4.9 36.7 5.6 36.7 6.4 Z M 48.7 7.9 C 48.7 7.9 50 8 50 8 C 49.8 8.8 49.4 9.3 48.9 9.7 C 48.3 10.2 47.6 10.4 46.8 10.4 C 45.7 10.4 44.9 10 44.3 9.4 C 43.6 8.7 43.3 7.8 43.3 6.6 C 43.3 5.4 43.6 4.5 44.3 3.8 C 44.9 3.1 45.7 2.8 46.7 2.8 C 47.7 2.8 48.5 3.1 49.1 3.8 C 49.7 4.4 50 5.4 50 6.5 C 50 6.6 50 6.7 50 6.9 C 50 6.9 44.6 6.9 44.6 6.9 C 44.6 7.7 44.9 8.3 45.3 8.7 C 45.7 9.1 46.2 9.3 46.8 9.3 C 47.2 9.3 47.6 9.2 47.9 9 C 48.3 8.8 48.5 8.4 48.7 7.9 Z M 44.7 5.9 C 44.7 5.9 48.7 5.9 48.7 5.9 C 48.7 5.3 48.5 4.8 48.2 4.5 C 47.9 4 47.3 3.8 46.7 3.8 C 46.2 3.8 45.7 4 45.3 4.3 C 44.9 4.7 44.7 5.2 44.7 5.9 Z M 51.5 10.2 L 51.5 2.9 L 52.6 2.9 C 52.6 2.9 52.62 3.95 52.6 4 C 52.8 3.6 53.1 3.3 53.5 3.1 C 53.9 2.9 54.3 2.8 54.8 2.8 C 55.4 2.8 55.8 2.9 56.1 3.1 C 56.5 3.3 56.7 3.6 56.9 4 C 57.4 3.2 58.2 2.8 59.1 2.8 C 59.8 2.8 60.4 3 60.8 3.4 C 61.2 3.8 61.4 4.4 61.4 5.2 C 61.35 5.21 61.4 10.2 61.4 10.2 L 60.1 10.2 C 60.1 10.2 60.13 5.62 60.1 5.6 C 60.1 5.1 60.1 4.8 60 4.6 C 59.9 4.3 59.8 4.2 59.6 4 C 59.4 3.9 59.1 3.8 58.8 3.8 C 58.3 3.8 57.9 4 57.6 4.3 C 57.2 4.7 57.1 5.2 57.1 6 C 57.06 5.97 57.1 10.2 57.1 10.2 L 55.8 10.2 C 55.8 10.2 55.83 5.48 55.8 5.5 C 55.8 4.9 55.7 4.5 55.5 4.2 C 55.3 4 55 3.8 54.5 3.8 C 54.2 3.8 53.9 3.9 53.6 4.1 C 53.3 4.3 53.1 4.6 52.9 4.9 C 52.8 5.3 52.7 5.8 52.7 6.4 C 52.75 6.43 52.7 10.2 52.7 10.2 L 51.5 10.2 Z M 68.1 7.9 C 68.1 7.9 69.4 8 69.4 8 C 69.2 8.8 68.8 9.3 68.3 9.7 C 67.8 10.2 67.1 10.4 66.2 10.4 C 65.2 10.4 64.3 10 63.7 9.4 C 63.1 8.7 62.8 7.8 62.8 6.6 C 62.8 5.4 63.1 4.5 63.7 3.8 C 64.3 3.1 65.2 2.8 66.2 2.8 C 67.1 2.8 67.9 3.1 68.5 3.8 C 69.2 4.4 69.5 5.4 69.5 6.5 C 69.5 6.6 69.5 6.7 69.5 6.9 C 69.5 6.9 64 6.9 64 6.9 C 64.1 7.7 64.3 8.3 64.7 8.7 C 65.1 9.1 65.6 9.3 66.2 9.3 C 66.7 9.3 67.1 9.2 67.4 9 C 67.7 8.8 68 8.4 68.1 7.9 Z M 64.1 5.9 C 64.1 5.9 68.2 5.9 68.2 5.9 C 68.1 5.3 68 4.8 67.7 4.5 C 67.3 4 66.8 3.8 66.2 3.8 C 65.6 3.8 65.1 4 64.7 4.3 C 64.4 4.7 64.1 5.2 64.1 5.9 Z M 71 10.2 L 71 2.9 L 72.1 2.9 C 72.1 2.9 72.07 3.96 72.1 4 C 72.6 3.2 73.4 2.8 74.4 2.8 C 74.8 2.8 75.2 2.8 75.6 3 C 76 3.2 76.2 3.4 76.4 3.6 C 76.6 3.9 76.7 4.2 76.8 4.5 C 76.8 4.8 76.9 5.2 76.9 5.7 C 76.86 5.73 76.9 10.2 76.9 10.2 L 75.6 10.2 C 75.6 10.2 75.63 5.78 75.6 5.8 C 75.6 5.3 75.6 4.9 75.5 4.7 C 75.4 4.4 75.2 4.2 75 4.1 C 74.7 3.9 74.5 3.8 74.1 3.8 C 73.6 3.8 73.1 4 72.8 4.3 C 72.4 4.7 72.2 5.3 72.2 6.2 C 72.19 6.23 72.2 10.2 72.2 10.2 L 71 10.2 Z M 80.9 9.1 C 81 9.1 81.2 9.1 81.4 9.1 C 81.4 9.1 81.6 10.2 81.6 10.2 C 81.3 10.3 81 10.3 80.7 10.3 C 80.2 10.3 79.9 10.2 79.6 10.1 C 79.4 9.9 79.2 9.7 79.1 9.5 C 79 9.3 79 8.8 79 8.1 C 78.98 8.07 79 3.9 79 3.9 L 78.1 3.9 L 78.1 2.9 L 79 2.9 L 79 1.1 L 80.2 0.4 L 80.2 2.9 L 81.4 2.9 L 81.4 3.9 L 80.2 3.9 C 80.2 3.9 80.2 8.13 80.2 8.1 C 80.2 8.5 80.2 8.7 80.3 8.8 C 80.3 8.9 80.4 9 80.5 9.1 C 80.6 9.1 80.7 9.1 80.9 9.1 C 80.9 9.1 80.9 9.1 80.9 9.1 Z M 86.9 10.2 L 86.9 0.2 L 88.2 0.2 L 88.2 10.2 L 86.9 10.2 Z M 90.4 10.2 L 90.4 2.9 L 91.5 2.9 C 91.5 2.9 91.53 3.96 91.5 4 C 92.1 3.2 92.8 2.8 93.8 2.8 C 94.3 2.8 94.7 2.8 95 3 C 95.4 3.2 95.7 3.4 95.9 3.6 C 96 3.9 96.2 4.2 96.3 4.5 C 96.3 4.8 96.3 5.2 96.3 5.7 C 96.32 5.73 96.3 10.2 96.3 10.2 L 95.1 10.2 C 95.1 10.2 95.09 5.78 95.1 5.8 C 95.1 5.3 95 4.9 94.9 4.7 C 94.8 4.4 94.7 4.2 94.4 4.1 C 94.2 3.9 93.9 3.8 93.6 3.8 C 93.1 3.8 92.6 4 92.2 4.3 C 91.8 4.7 91.6 5.3 91.6 6.2 C 91.65 6.23 91.6 10.2 91.6 10.2 L 90.4 10.2 Z M 98.5 10.2 L 98.5 3.9 L 97.4 3.9 L 97.4 2.9 L 98.5 2.9 C 98.5 2.9 98.5 2.16 98.5 2.2 C 98.5 1.7 98.5 1.3 98.6 1.1 C 98.7 0.8 99 0.5 99.3 0.3 C 99.6 0.1 100 0 100.5 0 C 100.9 0 101.2 0 101.7 0.1 C 101.7 0.1 101.5 1.2 101.5 1.2 C 101.2 1.2 101 1.1 100.7 1.1 C 100.4 1.1 100.1 1.2 100 1.4 C 99.8 1.5 99.7 1.8 99.7 2.3 C 99.72 2.26 99.7 2.9 99.7 2.9 L 101.1 2.9 L 101.1 3.9 L 99.7 3.9 L 99.7 10.2 L 98.5 10.2 Z M 101.6 6.6 C 101.6 5.2 102 4.2 102.8 3.6 C 103.4 3 104.1 2.8 105 2.8 C 106 2.8 106.9 3.1 107.5 3.7 C 108.1 4.4 108.4 5.3 108.4 6.5 C 108.4 7.4 108.3 8.1 108 8.7 C 107.7 9.2 107.3 9.6 106.8 9.9 C 106.3 10.2 105.7 10.4 105 10.4 C 104 10.4 103.2 10 102.6 9.4 C 101.9 8.7 101.6 7.8 101.6 6.6 Z M 102.9 6.6 C 102.9 7.5 103.1 8.2 103.5 8.7 C 103.9 9.1 104.4 9.3 105 9.3 C 105.7 9.3 106.2 9.1 106.6 8.6 C 107 8.2 107.2 7.5 107.2 6.5 C 107.2 5.6 107 4.9 106.6 4.5 C 106.2 4 105.6 3.8 105 3.8 C 104.4 3.8 103.9 4 103.5 4.5 C 103.1 4.9 102.9 5.6 102.9 6.6 Z M 109.9 10.2 L 109.9 2.9 L 111 2.9 C 111 2.9 110.97 4.03 111 4 C 111.3 3.5 111.5 3.2 111.8 3 C 112 2.9 112.3 2.8 112.5 2.8 C 113 2.8 113.4 2.9 113.8 3.2 C 113.8 3.2 113.4 4.3 113.4 4.3 C 113.1 4.1 112.8 4 112.5 4 C 112.2 4 112 4.1 111.8 4.3 C 111.5 4.4 111.4 4.7 111.3 5 C 111.2 5.4 111.1 5.9 111.1 6.4 C 111.1 6.39 111.1 10.2 111.1 10.2 L 109.9 10.2 Z M 114.5 10.2 L 114.5 2.9 L 115.6 2.9 C 115.6 2.9 115.64 3.95 115.6 4 C 115.9 3.6 116.2 3.3 116.6 3.1 C 116.9 2.9 117.4 2.8 117.8 2.8 C 118.4 2.8 118.8 2.9 119.2 3.1 C 119.5 3.3 119.8 3.6 119.9 4 C 120.5 3.2 121.2 2.8 122.1 2.8 C 122.9 2.8 123.4 3 123.8 3.4 C 124.2 3.8 124.4 4.4 124.4 5.2 C 124.38 5.21 124.4 10.2 124.4 10.2 L 123.2 10.2 C 123.2 10.2 123.16 5.62 123.2 5.6 C 123.2 5.1 123.1 4.8 123 4.6 C 123 4.3 122.8 4.2 122.6 4 C 122.4 3.9 122.1 3.8 121.9 3.8 C 121.4 3.8 120.9 4 120.6 4.3 C 120.3 4.7 120.1 5.2 120.1 6 C 120.09 5.97 120.1 10.2 120.1 10.2 L 118.9 10.2 C 118.9 10.2 118.86 5.48 118.9 5.5 C 118.9 4.9 118.8 4.5 118.6 4.2 C 118.4 4 118 3.8 117.6 3.8 C 117.2 3.8 116.9 3.9 116.6 4.1 C 116.3 4.3 116.1 4.6 116 4.9 C 115.8 5.3 115.8 5.8 115.8 6.4 C 115.77 6.43 115.8 10.2 115.8 10.2 L 114.5 10.2 Z M 131.2 10.2 C 131.1 9.9 131 9.6 130.9 9.3 C 130.5 9.7 130 10 129.6 10.1 C 129.2 10.3 128.8 10.4 128.3 10.4 C 127.5 10.4 126.9 10.2 126.4 9.8 C 126 9.4 125.8 8.9 125.8 8.3 C 125.8 7.9 125.9 7.6 126 7.3 C 126.2 7 126.4 6.8 126.7 6.6 C 126.9 6.4 127.2 6.3 127.6 6.2 C 127.8 6.1 128.2 6.1 128.6 6 C 129.6 5.9 130.4 5.7 130.8 5.6 C 130.8 5.4 130.8 5.3 130.8 5.3 C 130.8 4.8 130.7 4.4 130.5 4.2 C 130.2 3.9 129.7 3.8 129.1 3.8 C 128.5 3.8 128.1 3.9 127.8 4.1 C 127.5 4.3 127.3 4.7 127.2 5.2 C 127.2 5.2 126 5 126 5 C 126.1 4.5 126.3 4.1 126.5 3.8 C 126.8 3.4 127.2 3.2 127.6 3 C 128.1 2.9 128.6 2.8 129.3 2.8 C 129.9 2.8 130.4 2.8 130.8 3 C 131.2 3.1 131.5 3.3 131.6 3.5 C 131.8 3.8 131.9 4 132 4.4 C 132.1 4.6 132.1 5 132.1 5.5 C 132.1 5.5 132.1 7.2 132.1 7.2 C 132.1 8.3 132.1 9 132.2 9.3 C 132.2 9.6 132.3 9.9 132.5 10.2 C 132.47 10.19 131.2 10.2 131.2 10.2 C 131.2 10.2 131.19 10.19 131.2 10.2 Z M 130.8 6.5 C 130.4 6.7 129.7 6.9 128.8 7 C 128.3 7.1 128 7.2 127.8 7.3 C 127.5 7.4 127.4 7.5 127.3 7.7 C 127.2 7.8 127.1 8 127.1 8.2 C 127.1 8.6 127.2 8.8 127.5 9.1 C 127.7 9.3 128.1 9.4 128.6 9.4 C 129 9.4 129.5 9.3 129.8 9.1 C 130.2 8.9 130.5 8.6 130.6 8.2 C 130.8 8 130.8 7.5 130.8 7 C 130.8 7 130.8 6.5 130.8 6.5 Z M 136.1 9.1 C 136.3 9.1 136.5 9.1 136.7 9.1 C 136.7 9.1 136.9 10.2 136.9 10.2 C 136.5 10.3 136.2 10.3 135.9 10.3 C 135.5 10.3 135.1 10.2 134.9 10.1 C 134.6 9.9 134.5 9.7 134.4 9.5 C 134.3 9.3 134.2 8.8 134.2 8.1 C 134.22 8.07 134.2 3.9 134.2 3.9 L 133.3 3.9 L 133.3 2.9 L 134.2 2.9 L 134.2 1.1 L 135.4 0.4 L 135.4 2.9 L 136.7 2.9 L 136.7 3.9 L 135.4 3.9 C 135.4 3.9 135.44 8.13 135.4 8.1 C 135.4 8.5 135.5 8.7 135.5 8.8 C 135.5 8.9 135.6 9 135.7 9.1 C 135.8 9.1 136 9.1 136.1 9.1 C 136.1 9.1 136.1 9.1 136.1 9.1 Z M 137.9 1.6 L 137.9 0.2 L 139.1 0.2 L 139.1 1.6 L 137.9 1.6 Z M 137.9 10.2 L 137.9 2.9 L 139.1 2.9 L 139.1 10.2 L 137.9 10.2 Z M 140.5 6.6 C 140.5 5.2 140.9 4.2 141.7 3.6 C 142.3 3 143 2.8 143.9 2.8 C 144.9 2.8 145.8 3.1 146.4 3.7 C 147 4.4 147.3 5.3 147.3 6.5 C 147.3 7.4 147.2 8.1 146.9 8.7 C 146.6 9.2 146.2 9.6 145.7 9.9 C 145.2 10.2 144.6 10.4 143.9 10.4 C 142.9 10.4 142.1 10 141.5 9.4 C 140.8 8.7 140.5 7.8 140.5 6.6 Z M 141.8 6.6 C 141.8 7.5 142 8.2 142.4 8.7 C 142.8 9.1 143.3 9.3 143.9 9.3 C 144.5 9.3 145.1 9.1 145.5 8.6 C 145.9 8.2 146.1 7.5 146.1 6.5 C 146.1 5.6 145.9 4.9 145.5 4.5 C 145.1 4 144.5 3.8 143.9 3.8 C 143.3 3.8 142.8 4 142.4 4.5 C 142 4.9 141.8 5.6 141.8 6.6 Z M 148.8 10.2 L 148.8 2.9 L 149.9 2.9 C 149.9 2.9 149.88 3.96 149.9 4 C 150.4 3.2 151.2 2.8 152.2 2.8 C 152.6 2.8 153 2.8 153.4 3 C 153.8 3.2 154 3.4 154.2 3.6 C 154.4 3.9 154.5 4.2 154.6 4.5 C 154.7 4.8 154.7 5.2 154.7 5.7 C 154.68 5.73 154.7 10.2 154.7 10.2 L 153.4 10.2 C 153.4 10.2 153.45 5.78 153.4 5.8 C 153.4 5.3 153.4 4.9 153.3 4.7 C 153.2 4.4 153 4.2 152.8 4.1 C 152.5 3.9 152.3 3.8 151.9 3.8 C 151.4 3.8 151 4 150.6 4.3 C 150.2 4.7 150 5.3 150 6.2 C 150.01 6.23 150 10.2 150 10.2 L 148.8 10.2 Z " stroke="none" fill="#ffffff"/>  </g></svg>