<?xml version="1.0" encoding="UTF-8"?>
<svg id="Layer_2" data-name="Layer 2" xmlns="http://www.w3.org/2000/svg" viewBox="0 0 173.33 58.37">
  <defs>
    <style>
      .cls-1, .cls-2 {
        fill: #2a2f6a;
      }

      .cls-2 {
        fill-rule: evenodd;
      }
    </style>
  </defs>
  <g id="Layer_1-2" data-name="Layer 1">
    <g>
      <g>
        <g>
          <path class="cls-1" d="M0,11.36v22.28h6.26V11.36H0Z"/>
          <path class="cls-1" d="M15.59,22.59h-1.92l6.42-11.23h-4.77s-6.51,11.23-6.51,11.23l7.06,11.06h6.9l-7.18-11.06Z"/>
        </g>
        <path class="cls-1" d="M144.99,11.35v14.26c-1.78-2.68-9.4-14.24-9.4-14.24h-5.19v22.27h5.58v-14.32c1.78,2.65,9.59,14.32,9.59,14.32h4.99V11.35h-5.58Z"/>
        <path class="cls-1" d="M87.52,11.35h-5.48v22.29h13.29v-3.75h-7.81s0-18.54,0-18.54Z"/>
        <path class="cls-1" d="M37,11.37l-9.96,22.27h4.42l2.44-5.69h7.68s2.28,5.69,2.28,5.69h6.37l-9.77-22.27h-3.47ZM40.24,24.73h-4.97l2.57-5.93,2.4,5.93Z"/>
        <path class="cls-1" d="M110.42,11.37l-9.96,22.27h4.42l2.44-5.69h7.68s2.29,5.69,2.29,5.69h6.38l-9.77-22.27h-3.47ZM113.65,24.73h-4.97l2.58-5.93,2.39,5.93Z"/>
        <path class="cls-1" d="M57.84,11.25v22.39h5.49v-7.88h2.63c.23.02,2,.08,3.79-.51,1.82-.61,4.69-2.97,4.69-6.73,0-1.91-.48-3.47-1.42-4.64-1.45-1.79-3.87-2.63-7.6-2.63h-7.58ZM64.88,14.93c2.77,0,4.01,1.07,4.01,3.46,0,1.33-.4,2.39-1.14,3.06-.56.5-1.3.65-3.19.65h-1.23v-7.17h1.55Z"/>
      </g>
      <path class="cls-2" d="M159.52,0h-3.91c9.23,5.43,14.94,11.85,14.94,18.73,0,20.29-43.09,35.24-95.66,35.24-30.37,0-57.44-5.26-74.88-13.46v4.27c18.05,8.31,44.91,13.58,74.88,13.58,56.77,0,98.45-17.31,98.45-38.64,0-7.21-5.04-13.96-13.81-19.73Z"/>
    </g>
  </g>
</svg>