<?xml version="1.0" encoding="UTF-8"?>
<svg id="Layer_2" data-name="Layer 2" xmlns="http://www.w3.org/2000/svg" viewBox="0 0 139.24 70.68">
  <defs>
    <style>
      .cls-1 {
        fill: #292644;
      }
    </style>
  </defs>
  <g id="Layer_1-2" data-name="Layer 1">
    <g>
      <path class="cls-1" d="M18.47,47.79l-7.97-10.66,5.64-5.38c1.54-1.46,2.85-2.52,5.15-3.42v-.07h-6.53v.07c.79.37,1.21.93,1.21,1.56,0,.53-.33,1.13-.92,1.69l-9.25,8.93v-8.07c0-2.19.33-3.35,1.87-4.12v-.07H0v.07c1.54.76,1.87,1.93,1.87,4.12v14.88c0,2.19-.33,3.35-1.87,4.12v.07h7.68v-.07c-1.54-.76-1.87-1.93-1.87-4.12v-5.71l1.9-1.86,6.33,8.44c.59.83.92,1.33.92,1.96,0,.66-.23.96-.85,1.3v.07h8.37v-.07c-1.35-.63-2.72-1.96-4-3.65Z"/>
      <path class="cls-1" d="M33.44,49.95c-3.54,0-5.71-2.92-5.71-7.24h11.16c0-4.52-2.2-7.77-7.09-7.77-4.3,0-7.94,3.42-7.94,8.47,0,5.35,3.64,8.44,8.01,8.44,3.64,0,6.33-1.99,7.05-5.55l-.23-.1c-.95,2.56-2.95,3.75-5.25,3.75ZM31.76,35.57c2.72,0,3.25,2.96,3.25,6.44h-7.22c.13-3.92,1.84-6.44,3.97-6.44Z"/>
      <path class="cls-1" d="M53.28,49.95c-3.54,0-5.71-2.92-5.71-7.24h11.16c0-4.52-2.2-7.77-7.09-7.77-4.3,0-7.94,3.42-7.94,8.47,0,5.35,3.64,8.44,8.01,8.44,3.64,0,6.33-1.99,7.05-5.55l-.23-.1c-.95,2.56-2.95,3.75-5.25,3.75ZM51.6,35.57c2.72,0,3.25,2.96,3.25,6.44h-7.22c.13-3.92,1.84-6.44,3.97-6.44Z"/>
      <path class="cls-1" d="M68.58,47.89v-21.26h-5.81v.07c1.54.7,2,1.56,2,3.59v17.6c0,2.19-.23,2.82-1.77,3.55v.07h7.35v-.07c-1.54-.73-1.77-1.36-1.77-3.55Z"/>
      <path class="cls-1" d="M88.98,46.2c-.95,2.56-2.95,3.75-5.25,3.75-3.54,0-5.71-2.92-5.71-7.24h11.16c0-4.52-2.2-7.77-7.09-7.77-4.3,0-7.94,3.42-7.94,8.47,0,5.35,3.64,8.44,8.01,8.44,3.64,0,6.33-1.99,7.05-5.55l-.23-.1ZM82.06,35.57c2.72,0,3.25,2.96,3.25,6.44h-7.22c.13-3.92,1.84-6.44,3.97-6.44Z"/>
      <g>
        <path class="cls-1" d="M6.14,66.62c0,.47-.05.87-.14,1.2-.09.33-.21.62-.36.85-.15.23-.32.41-.51.54-.19.13-.38.24-.56.31-.19.07-.37.12-.55.14-.18.02-.33.03-.45.03-.13,0-.28-.01-.45-.03-.17-.02-.36-.07-.54-.14-.19-.07-.38-.18-.56-.31-.19-.13-.36-.31-.51-.54-.15-.23-.27-.51-.36-.85-.09-.33-.14-.74-.14-1.2v-5.99H0v6.1c0,.4.05.83.14,1.29.1.45.28.87.54,1.26.27.38.63.7,1.09.96.46.25,1.06.38,1.79.38s1.32-.13,1.78-.38c.46-.25.83-.57,1.09-.96.27-.39.45-.8.54-1.26.1-.45.14-.88.14-1.29v-6.1h-.99v5.99Z"/>
        <path class="cls-1" d="M23.78,68.55l-5.31-7.92h-1.13v9.84h1.13c0-2.63-.01-5.26-.03-7.87l5.31,7.89h1.14v-9.86h-1.13v7.92Z"/>
        <rect class="cls-1" x="34.39" y="60.63" width="1.17" height="9.84"/>
        <polygon class="cls-1" points="48.57 69.14 45.58 60.63 44.34 60.63 47.85 70.54 49.23 70.54 52.82 60.63 51.55 60.63 48.57 69.14"/>
        <polygon class="cls-1" points="62.76 66 66.38 66 66.38 65.02 62.76 65.02 62.76 61.64 67.13 61.64 67.13 60.63 61.59 60.63 61.59 70.47 67.27 70.47 67.36 69.47 62.76 69.47 62.76 66"/>
        <path class="cls-1" d="M82.75,65.39c.37-.45.59-1.09.59-1.84,0-1.05-.41-1.82-1.05-2.33-.69-.56-1.65-.8-2.81-.8-.87,0-2.11.11-2.67.21v9.84h1.17v-3.72h.92c.37,0,.72-.01,1.03-.05l2.27,3.77h1.32l-2.45-4.05c.67-.21,1.27-.54,1.67-1.03ZM78.93,65.82h-.94v-4.31c.44-.07,1.09-.12,1.54-.12.69,0,1.36.15,1.84.52.45.34.73.89.73,1.68,0,.69-.22,1.16-.56,1.49-.66.62-1.73.74-2.62.74Z"/>
        <path class="cls-1" d="M97.44,65.72c-.87-.65-1.98-.8-2.9-1.25-.67-.32-1.18-.73-1.18-1.46,0-1.05.81-1.61,2.22-1.61.76,0,1.51.17,2.15.44l.11-.99c-.65-.28-1.34-.43-2.29-.43-1.94,0-3.34.94-3.34,2.63,0,1.06.48,1.67,1.16,2.09,1.03.67,2.27.78,3.17,1.42.45.32.73.74.73,1.36,0,1.2-1.07,1.78-2.77,1.78-.92,0-1.68-.15-2.38-.41l-.11,1c.76.28,1.58.39,2.57.39,2.01,0,3.9-.83,3.9-2.89,0-.99-.4-1.6-1.02-2.06Z"/>
        <rect class="cls-1" x="107.36" y="60.63" width="1.17" height="9.84"/>
        <polygon class="cls-1" points="117.18 61.69 120.22 61.69 120.22 70.47 121.39 70.47 121.39 61.69 124.46 61.69 124.54 60.63 117.18 60.63 117.18 61.69"/>
        <polygon class="cls-1" points="137.92 60.63 135.22 65.53 132.63 60.63 131.27 60.63 134.6 66.66 134.6 70.47 135.77 70.47 135.77 66.62 139.24 60.63 137.92 60.63"/>
      </g>
      <path class="cls-1" d="M102.36,0v43.41l18.45,8.43,18.43-8.43V0h-36.88ZM133.78,3.75l.62.62-.71.71-.62-.62.71-.71ZM131.7,3.53l2.94,2.94-.96.96-.63-.63.33-.33-1.68-1.68-.33.33-.63-.63.96-.96ZM132.52,6.68l1.58,1.59-.62.62-1.59-1.59.62-.62ZM131.38,7.4l-.62-.62,1.27-1.27.62.63-1.26,1.26ZM129.88,4.04l1.59,1.59-.62.62-1.59-1.59.62-.62ZM129.71,5.52l.63.63-.32.32,1.68,1.68.32-.32.63.63-.95.95-2.94-2.94.95-.95ZM130.31,8.47l-.69.69-.62-.62.69-.69.62.62ZM124.83,3.15l.73.73-.83.84c-.21-.14-.55-.34-.97-.5l1.07-1.07ZM123.45,4.48c.26.11.76.32,1.1.56.77.6,1.1,1.22,1.1,2.07,0,1.48-1.21,2.69-2.68,2.69-.7,0-1.36-.27-1.86-.76l.73-.73c.31.29.7.45,1.13.45.9,0,1.64-.74,1.64-1.65,0-.45-.14-.76-.51-1.09-.03-.03-.06-.06-.1-.09-.04-.03-.08-.06-.13-.09,0,0,0,0,0,0,0,0-.02,0-.02,0-.34-.23-.85-.4-1.18-.5h0s-.06-.02-.1-.03c-.1-.03-.18-.05-.21-.06-.8-.21-1.86-.32-3.07-.05l-.84-.84c2.1-.57,3.93-.26,4.99.14ZM116.89,3.36l1.11,1.11h0l.82.82h0s1.58,1.58,1.58,1.58l-.72.75-1.92-1.92h0s-.77-.76-.77-.76h0s-.85-.85-.85-.85l.73-.73ZM116.67,5.2l.74.74c-.33.28-.5.67-.5,1.18,0,.91.74,1.65,1.64,1.65.44,0,.85-.17,1.16-.48l.31-.31h0s.73-.74.73-.74h0s1.55-1.55,1.55-1.55c.52.14.88.31,1.06.4l-1.88,1.88h0s-.73.74-.73.74h0s-.31.31-.31.31c-.51.51-1.18.79-1.9.79-1.48,0-2.68-1.21-2.68-2.69,0-.79.29-1.45.8-1.91ZM111.73,5.02l1.27,1.62-1.61.07-.34-.46-.42,1.3h-.37l.57-2.12.89-.41ZM108.93,9.24l.67-.67h.68l.66.66h-.77v.47l-.23.35-.29-.4v-.41h-.73ZM110.72,8.42h-1.57l-.36-.33.35-.35h1.6l.35.33-.37.35ZM109.97,2.88l.82,1.26-.69,3.41h-.35s-.64-3.43-.64-3.43l.86-1.24ZM108.13,5.02l.89.41.57,2.12h-.36l-.42-1.3-.34.46-1.61-.07,1.27-1.62ZM103.64,11.42l15.86,7.24-15.86,7.08v-14.32ZM120.81,50.43l-17.16-7.84v-15.48l34.11,15.59-16.95,7.74ZM137.95,41.4l-15.58-7.11,15.58-6.96v14.07ZM120.85,33.6l-15.66-7.16,32.77-14.66v14.2s-17.1,7.63-17.1,7.63Z"/>
      <path class="cls-1" d="M125.8,23.15l-.25-.02s-1.01-.08-2.5-.41c-.99-.22-1.79-.15-2.28.23-.5-.38-1.21-.46-2.21-.24-1.49.33-2.49.41-2.5.41l-.25.02-.8,5.04h0s.13.56.13.56h11.34l.13-.55h0s-.8-5.04-.8-5.04ZM125.47,27.52c-.62-.04-1.67-.27-2.51-.45h-.03c-.18-.04-.35-.08-.51-.12-.15-.03-.3-.05-.45-.05-.53,0-.99.21-1.21.36-.3-.21-.82-.48-1.58-.32-.17.04-.36.08-.56.12-.83.18-1.87.41-2.48.45l-.38.02.61-3.83c.38-.04,1.22-.15,2.34-.4.92-.21,1.28-.16,1.72.2l.35.36.31-.29c.36-.36.9-.47,1.83-.26,1.12.25,1.96.36,2.34.4l.61,3.83-.38-.02Z"/>
      <path class="cls-1" d="M120.91,39.99c.79.01,1.13.03,1.25.04.13-.62.15-1.1.15-1.1h.03s-2.16-.03-3.41.54c-1.25.58-2.15,1.56-2.15,1.56,0,0,1.18-1.1,4.13-1.04"/>
      <path class="cls-1" d="M123.81,38.93s0,.39-.22,1.5c-.23,1.21-1.07,2.32-2,3.84-1.16,1.9-1.17,3.82-1.17,3.82l-1.01.02s-.05-.83.36-2.21c.43-1.43,1.4-2.82,2.17-3.96.81-1.19.89-3.01.89-3.01h.97Z"/>
    </g>
  </g>
</svg>