<?xml version="1.0" encoding="UTF-8"?>
<svg id="Layer_2" data-name="Layer 2" xmlns="http://www.w3.org/2000/svg" xmlns:xlink="http://www.w3.org/1999/xlink" viewBox="0 0 182.57 43.44">
  <defs>
    <style>
      .cls-1 {
        fill: url(#linear-gradient);
      }

      .cls-2 {
        fill: #85529c;
      }

      .cls-3 {
        fill: #b37eb5;
      }
    </style>
    <linearGradient id="linear-gradient" x1="0" y1="21.72" x2="65.43" y2="21.72" gradientUnits="userSpaceOnUse">
      <stop offset="0" stop-color="#b37eb5"/>
      <stop offset="1" stop-color="#85529c"/>
    </linearGradient>
  </defs>
  <g id="Layer_1-2" data-name="Layer 1">
    <g>
      <path class="cls-2" d="M117.66,19.49c2.11-2.26,5.54-2.24,7.89-.36.04.03.04.06.01.1l-1.16,1.47s-.07.04-.11.01c-.87-.75-2.09-1.21-3.23-.97-3.18.66-3.12,5.22.07,5.85.82.16,1.65-.05,2.39-.42.04-.02.06-.05.06-.1v-2.41s.03-.07.07-.07h1.82s.07.02.07.07v3.57c0,.06-.03.12-.09.16-2.34,1.53-5.62,1.79-7.71-.39-1.66-1.73-1.79-4.68-.08-6.52Z"/>
      <path class="cls-2" d="M133.63,19.31c2.1-2.13,5.45-2,7.58,0,.04.04.04.07,0,.12l-1.21,1.48s-.06.04-.09,0c-.94-1.05-2.42-1.59-3.71-.96-2.02,1-2.24,3.85-.42,5.12,1.33.93,3.02.48,4.12-.57.03-.03.09-.03.12,0,0,0,0,0,0,0l1.2,1.31s.03.07,0,.1c-2.35,2.25-6.07,2.35-8.05-.39-1.32-1.82-1.19-4.55.45-6.21Z"/>
      <path class="cls-2" d="M51.56,25.58h4.02s.06.03.06.06h0v1.8s-.03.06-.06.06h-6.2s-.06-.03-.06-.06h0v-9.54s.03-.06.06-.06h2.06s.06.03.06.06h0v7.62s.03.06.06.06h0Z"/>
      <path class="cls-2" d="M60.14,25.67h5.2s.05.02.05.05h0v1.73s-.02.05-.05.05h-7.42s-.05-.02-.05-.05h0v-9.57s.02-.05.05-.05h7.28s.05.02.05.05h0v1.73s-.02.05-.05.05h-5.07s-.05.02-.05.05h0v1.99s.02.05.05.05h4.54s.05.02.05.05h0v1.73s-.02.05-.05.05h-4.54s-.05.02-.05.05h0v2.02s.02.05.05.05h0Z"/>
      <path class="cls-2" d="M71.18,17.83h2.2s.04.01.05.04l4.07,9.54s0,.06-.03.08c0,0-.02,0-.02,0h-2.24s-.05-.01-.05-.04l-.71-1.78s-.03-.04-.05-.04h-4.37s-.05.01-.05.04l-.72,1.78s-.03.04-.05.04h-2.16s-.06-.03-.06-.06c0,0,0-.02,0-.02l4.15-9.54s.03-.03.05-.03ZM70.74,23.79s0,.05.02.06c0,0,.01,0,.02,0h2.85s.04-.02.04-.04c0,0,0-.01,0-.02l-1.42-3.51s-.04-.03-.06-.02c-.01,0-.02.01-.02.02l-1.43,3.5Z"/>
      <path class="cls-2" d="M81.7,24.81v2.61s-.02.07-.07.07h-2.08s-.07-.03-.07-.07v-9.53s.02-.06.06-.06c1.41,0,2.81,0,4.2,0,1.07,0,2.31.28,3.06,1.07,1.41,1.49,1.03,4.4-.83,5.34-.08.04-.1.1-.05.18l1.93,3s.02.07-.04.07h-2.35s-.08-.02-.11-.06l-1.45-2.62s-.06-.06-.1-.06h-2.04s-.07.02-.07.07ZM81.69,19.7v3.17s.03.03.04.03h2.15c.91-.01,1.65-.67,1.65-1.49v-.28c0-.81-.74-1.47-1.66-1.47,0,0,0,0,0,0h-2.15s-.03.02-.03.04Z"/>
      <path class="cls-2" d="M96.59,23.87v-6s.02-.04.04-.04h2s.04.02.04.04v9.58s-.02.04-.04.04h-1.95s-.02,0-.03-.02l-4.55-6.02s-.04-.02-.06,0c-.01,0-.02.02-.02.03v5.97s-.02.04-.04.04h-2.04s-.04-.02-.04-.04v-9.58s.02-.04.04-.04h1.96s.02,0,.03.02l4.57,6.05s.04.02.06,0c.01,0,.02-.02.02-.03Z"/>
      <rect class="cls-2" x="100.95" y="17.83" width="2.22" height="9.66" rx=".05" ry=".05"/>
      <path class="cls-2" d="M107.54,21.48v5.97s-.02.04-.04.04h-2.03s-.04-.02-.04-.04h0v-9.57s.02-.04.04-.04h1.97s.03,0,.03.02l4.56,6.03s.04.02.06,0c.01,0,.02-.02.02-.03v-5.98s.02-.04.04-.04h2s.04.02.04.04h0v9.57s-.02.04-.04.04h-1.95s-.03,0-.03-.02l-4.55-6.02s-.04-.02-.06,0c-.01,0-.02.02-.02.03Z"/>
      <path class="cls-2" d="M152,23.55c0,2.85-2.33,4.3-4.98,4.01-1.65-.18-3.03-1.03-3.54-2.65-.13-.43-.2-1.12-.21-2.09,0-1.64,0-3.28,0-4.93,0-.04.02-.06.07-.06h2.05s.07.02.07.07c0,1.75,0,3.51,0,5.26,0,1.5.73,2.54,2.32,2.49,1.58-.05,2.01-1.24,2.01-2.61,0-1.72,0-3.43,0-5.14,0-.04.03-.07.07-.07h2.08s.06.02.06.06c.01,1.89.01,3.77,0,5.66Z"/>
      <path class="cls-2" d="M156.43,24.81v2.61s-.02.07-.07.07h-2.08s-.07-.02-.07-.07v-9.53s.02-.06.06-.06c2.33-.02,3.88-.02,4.63,0,2.65.06,3.99,2.13,3.31,4.59-.22.81-.74,1.42-1.55,1.84-.03.02-.05.06-.03.09,0,0,0,0,0,0l1.95,3.04s.02.07-.04.07h-2.34c-.05,0-.09-.02-.12-.07l-1.44-2.61s-.06-.06-.1-.06h-2.05s-.07.02-.07.07ZM156.44,19.71v3.13s.01.05.04.05h2.17c.91.01,1.65-.69,1.65-1.56h0v-.1c0-.87-.73-1.57-1.64-1.57h-2.17s-.05.02-.05.04h0Z"/>
      <path class="cls-2" d="M168.16,24.95l2.58-7.09s.02-.03.04-.03h2.2s.04.02.04.04c0,0,0,0,0,.01l-3.8,9.58s-.02.03-.04.03h-2.23s-.03-.01-.04-.03l-3.76-9.58s0-.04.02-.05c0,0,0,0,.01,0h2.29s.03.01.04.03l2.57,7.09s.03.03.05.02c.01,0,.02-.01.02-.02Z"/>
      <path class="cls-2" d="M177.29,25.67h5.23s.05.02.05.05v1.72s-.02.05-.05.05h-7.44s-.05-.02-.05-.05v-9.56s.02-.05.05-.05h7.28s.05.02.05.05v1.72s-.02.05-.05.05h-5.06s-.05.02-.05.05v1.99s.02.05.05.05h4.57s.05.02.05.05v1.72s-.02.05-.05.05h-4.57s-.05.02-.05.05v2.02s.02.05.05.05Z"/>
      <path class="cls-1" d="M51.58.3c-3.79.71-7.38,3-9.92,5.85-1.19,1.33-3.07,3.55-5.65,6.65-6.24,7.49-11.32,13.85-16.92,20.83-.86,1.08-2.01,2.21-3.46,3.42-3.11,2.41-7.33,3.86-11.01,1.69-1.81-1.07-3.22-2.93-4.02-4.89-.05-.13-.19-.21-.33-.18-.21.04-.29.17-.26.38,1.02,8.11,8.89,11,15.91,8.56,3.15-1.13,5.77-2.9,7.87-5.3,3.75-4.29,8.11-9.52,13.09-15.69,2.89-3.57,5.77-7.15,8.64-10.74,1.86-2.32,3.94-4.55,6.55-5.96,5.29-2.83,10.56-.72,12.78,4.72.02.04.04.07.08.09.19.12.36.09.49-.08.03-.03.04-.07.03-.11-.77-7.14-7.2-10.6-13.85-9.22Z"/>
      <path class="cls-3" d="M54.15,43.42c-3.43.21-6.1-2.87-5.17-6.24.97-3.51,5.77-4.62,8.43-2.21.04.03.04.07,0,.11l-.54.73s-.07.04-.11.02c0,0,0,0,0,0-1.55-1.26-3.58-1.47-5.25-.3-2.24,1.56-2,4.92.32,6.26,1.45.84,3.15.72,4.54-.2.03-.02.05-.05.05-.09v-2.74c0-.07.03-.1.1-.1h.86s.07.02.07.07v3.38s-.02.08-.05.11c-.98.75-2.06,1.16-3.24,1.23Z"/>
      <path class="cls-3" d="M80.16,38.56c0,2.7-2.27,4.89-5.07,4.89h0c-2.8,0-5.07-2.19-5.07-4.89s2.27-4.89,5.07-4.89c2.8,0,5.07,2.19,5.07,4.89ZM78.99,38.58c.01-2.09-1.72-3.79-3.87-3.81h0c-2.15-.02-3.91,1.66-3.92,3.75-.01,2.09,1.72,3.79,3.87,3.81h0c2.15.02,3.91-1.66,3.92-3.75Z"/>
      <path class="cls-3" d="M61.29,40.4v2.88c0,.07-.03.1-.1.1h-.96s-.07-.02-.07-.07v-9.53s.02-.06.06-.06c1.21,0,2.41-.01,3.61,0,.5,0,1,.06,1.48.18,3.05.74,3.17,5.17.3,6.17-.07.02-.08.06-.04.12l2.15,3.11c.04.05.02.08-.04.08h-1.16s-.07-.02-.09-.05l-1.9-2.94s-.06-.06-.11-.06h-3.07s-.07.02-.07.07ZM61.29,34.88v4.28s.03.07.07.07h2.87c1.3,0,2.35-.93,2.35-2.09h0v-.22c0-1.16-1.05-2.1-2.35-2.11h-2.87s-.07.03-.07.07Z"/>
      <path class="cls-3" d="M85.39,43.26c-1.68-.42-2.67-1.92-2.69-3.62-.02-1.94-.02-3.89,0-5.84,0-.06.03-.09.09-.09h.96c.05,0,.08.03.08.08-.01,1.86,0,3.72,0,5.58.02,1.57.79,2.66,2.33,2.93,1.34.23,2.86-.3,3.34-1.62.13-.36.2-1.1.21-2.22.01-1.55.01-3.11,0-4.66,0-.04.03-.08.07-.08h.96c.06,0,.09.03.09.09.02,3.07.02,5,0,5.79-.08,3.12-2.69,4.35-5.43,3.66Z"/>
      <path class="cls-3" d="M94.7,40.4v2.89c0,.05-.03.08-.08.08h-.98s-.07-.02-.07-.07v-9.53s.03-.07.06-.07c1.25,0,2.51,0,3.77,0,1.56,0,3.07.7,3.45,2.33.39,1.63-.16,3.32-1.81,3.97-1.26.49-2.89.32-4.28.32-.04,0-.07.02-.07.07ZM94.7,34.88v4.28s.02.07.06.07h2.77c1.3,0,2.35-.93,2.35-2.09h0v-.23c0-1.16-1.05-2.1-2.35-2.1h-2.77s-.07.03-.07.07Z"/>
    </g>
  </g>
</svg>