<?xml version="1.0" encoding="UTF-8"?>
<svg id="Layer_2" data-name="Layer 2" xmlns="http://www.w3.org/2000/svg" viewBox="0 0 45.88 45.64">
  <defs>
    <style>
      .cls-1 {
        fill: #e3097e;
      }
    </style>
  </defs>
  <g id="Layer_1-2" data-name="Layer 1">
    <g>
      <path class="cls-1" d="M37.74,45.63H8.15c-4.49,0-8.15-3.63-8.15-8.11V8.11C0,3.64,3.66,0,8.15,0h29.59c4.49,0,8.15,3.64,8.15,8.11v29.42c0,4.47-3.66,8.11-8.15,8.11h.01ZM8.15,1.5c-3.67,0-6.64,2.97-6.64,6.61v29.42c0,3.65,2.98,6.61,6.64,6.61h29.59c3.67,0,6.64-2.97,6.64-6.61V8.11c0-3.65-2.98-6.61-6.64-6.61H8.15Z"/>
      <path class="cls-1" d="M15.18,38.31h-7.94v-21.39h7.94v21.39ZM8.71,36.81h5.01v-18.4h-5.01v18.4ZM11.21,15.7h-.04c-2.49,0-4.31-1.76-4.31-4.19s1.85-4.18,4.4-4.18,4.3,1.72,4.35,4.16c0,2.45-1.85,4.21-4.4,4.21M11.26,8.82c-1.75,0-2.93,1.08-2.93,2.69s1.17,2.69,2.84,2.69h.04c1.75,0,2.93-1.08,2.93-2.69-.04-1.63-1.17-2.69-2.88-2.69"/>
      <path class="cls-1" d="M39.25,38.31h-8.12v-11.47c0-3.77-1.96-3.77-2.6-3.77-1.73,0-2.46,1.37-2.7,1.96-.11.27-.16.71-.16,1.35v11.93h-8.12v-.75c0-.18.09-18.14,0-19.98l-.04-.79h8.16v1.51c1.12-1.1,2.73-1.97,5.22-1.97,5.24,0,8.37,3.65,8.37,9.76v12.23h0ZM32.62,36.8h5.12v-10.73c0-5.25-2.5-8.25-6.87-8.25-3,0-4.38,1.53-5.33,3.03l-1.38,2.17v-4.72h-5.1c.05,3.46,0,15.35-.01,18.51h5.12v-10.42c0-.84.09-1.46.27-1.91.73-1.81,2.26-2.9,4.09-2.9,1.53,0,4.1.68,4.1,5.28v9.96h0Z"/>
    </g>
  </g>
</svg>