<?xml version="1.0" encoding="UTF-8"?>
<svg id="Layer_2" data-name="Layer 2" xmlns="http://www.w3.org/2000/svg" viewBox="0 0 102.42 112.5">
  <defs>
    <style>
      .cls-1 {
        fill: #1c0f41;
      }

      .cls-2 {
        fill: #fff;
      }

      .cls-3 {
        fill: #e3097e;
      }

      .cls-4 {
        fill: #493e5a;
      }
    </style>
  </defs>
  <g id="Layer_1-2" data-name="Layer 1">
    <g>
      <path class="cls-3" d="M102.42,61.44H0v-31.45l.25-.14L51.98,0l.25.15,50.19,29.85v31.45ZM1,60.44h100.42v-29.88L51.97,1.16,1,30.57v29.87Z"/>
      <polygon class="cls-1" points="7.25 35.05 7.25 86.51 51.88 112.5 95.17 86.51 95.17 35.05 51.88 9.32 7.25 35.05"/>
      <polygon class="cls-4" points="51.88 9.32 95.17 35.05 7.25 86.52 7.25 35.05 51.88 9.32"/>
      <g>
        <path class="cls-2" d="M82.29,62.74c-.16,1.2-.26,2.42-.49,3.6-2.01,10.34-7.74,17.88-17.09,22.66-.58.3-1.11.14-1.35-.34-.26-.52-.03-1,.65-1.34,4.77-2.36,8.66-5.74,11.58-10.2,3.66-5.57,5.39-11.72,4.75-18.37-1.19-12.35-7.62-21.05-19.15-25.35-10.48-3.9-20.33-1.96-28.98,5.23-5.19,4.32-8.49,9.9-9.68,16.56-1.96,10.99,1.22,20.33,9.48,27.84,3.83,3.48,8.36,5.64,13.43,6.66,4.66.93,9.29.74,13.86-.56.19-.06.38-.13.58-.17.6-.14,1.06.11,1.19.63.13.5-.11.96-.68,1.11-1.23.33-2.46.66-3.71.89-1.21.23-2.44.34-3.66.5h-3.76c-.13-.03-.27-.08-.4-.1-1.42-.21-2.85-.34-4.25-.63-12.05-2.42-22.03-12.81-23.99-24.96-.19-1.18-.33-2.36-.49-3.55v-3.9c.2-1.38.35-2.77.6-4.14,2.31-12.41,12.65-22.56,25.06-24.61,1.15-.19,2.32-.32,3.47-.48h3.89c.16.03.31.08.47.1,1.6.25,3.21.4,4.78.76,11.97,2.74,21.39,12.8,23.42,24.95.19,1.14.32,2.28.47,3.43v3.78Z"/>
        <g>
          <path class="cls-2" d="M63.16,40.67c-4.89-2.86-10.12-3.8-15.7-2.92-11.28,1.78-19.72,11.69-19.69,23.12,0,4.32,1.09,8.33,3.28,12.05.76,1.28,1.55,1.38,2.6.32,3.87-3.88,7.74-7.76,11.61-11.64h0s10.57-10.6,10.57-10.6h0c2.56-2.57,5.12-5.14,7.69-7.71,1.04-1.04.93-1.86-.36-2.61ZM53.14,50.99h0l-9.34,9.37h0c-3.76,3.77-7.52,7.54-11.28,11.31-4.11-6.48-4.61-17.71,3.12-25.77,7.88-8.22,19.33-8.1,26.32-3.76-2.94,2.95-5.88,5.9-8.82,8.85Z"/>
          <path class="cls-2" d="M71.34,48.84c-.72-1.2-1.53-1.3-2.53-.29-.57.57-1.13,1.13-1.7,1.7h0c-.25.25-.49.5-.74.74h0l-.83.83h0c-.75.76-1.51,1.51-2.26,2.27h0l-1.11,1.11h0c-.99.99-1.98,1.98-2.98,2.98h0s-.83.85-.83.85h0s-.05.05-.07.07c-.38.38-.28.87,0,1.19,0,0,.01.02.02.03.01.02.03.03.05.04h0c.32.3.82.4,1.2.01h.01s0-.01,0-.01c.14-.11.26-.25.39-.38.73-.74,1.47-1.47,2.2-2.21h0s.83-.84.83-.84h0c.67-.67,1.34-1.34,2.01-2.01h0l.83-.83h0c.75-.76,1.51-1.51,2.26-2.27h0l.83-.83h0c.16-.16.32-.32.47-.48.15-.15.31-.29.48-.44,4.51,7.39,4.2,18.66-3.52,26.28-7.79,7.7-18.95,7.65-25.97,3.29.15-.16.3-.33.45-.48,5.11-5.12,10.22-10.25,15.32-15.37.14-.14.3-.28.42-.44.32-.4.31-.95-.05-1.26-.39-.34-.81-.33-1.22-.02-.11.09-.2.19-.3.3-5.39,5.41-10.79,10.82-16.18,16.23-.96.97-.86,1.81.32,2.5,5.13,3.02,10.63,4.03,16.47,2.9,15.95-3.07,24.02-21.2,15.7-35.16Z"/>
        </g>
      </g>
    </g>
  </g>
</svg>