<?xml version="1.0" encoding="UTF-8"?>
<svg id="Layer_2" xmlns="http://www.w3.org/2000/svg" version="1.1" viewBox="0 0 219 186">
  <!-- Generator: Adobe Illustrator 29.1.0, SVG Export Plug-In . SVG Version: 2.1.0 Build 142)  -->
  <defs>
    <style>
      .st0 {
        fill: #fff;
      }

      .st0, .st1, .st2, .st3, .st4, .st5, .st6 {
        fill-rule: evenodd;
      }

      .st1 {
        fill: #dbe125;
      }

      .st2 {
        fill: #f37423;
      }

      .st3 {
        fill: #ec2028;
      }

      .st4 {
        fill: #faa21e;
      }

      .st5 {
        fill: #60bb46;
      }

      .st6 {
        fill: #fce800;
      }
    </style>
  </defs>
  <path class="st1" d="M207.7,103.5c1.1-17-8.2-45-26-63l-23.1,23.7c9.2,9.3,14.8,22.7,17.1,39.9l32.1-.6h0Z"/>
  <path class="st6" d="M112.7,11.2l.2,32.1c17.5,2.2,31.2,7.8,40.8,17l23.4-23.2c-18.7-17.8-47.3-27-64.4-25.9Z"/>
  <path class="st4" d="M107.5,11.1c-26-.2-53.1,12.6-64.7,25l22.5,23.1c14.2-10.3,28.1-15.6,41.5-15.4h0l.8-32.7h-.1Z"/>
  <path class="st2" d="M11.8,103.5l32.1.6h0c2.3-17.2,7.9-30.7,17.1-39.9l-23.1-23.7c-17.9,18.1-27.1,46-26.1,63Z"/>
  <g>
    <polygon class="st3" points="61.5 149.4 61.5 149.4 61.5 149.4 61.5 149.4"/>
    <path class="st3" d="M38.7,171.6l22.8-22.2c-10.8-13.5-16.4-26.7-16.6-39.7H11.8c.4,25.1,14,50.9,26.9,61.9Z"/>
  </g>
  <path class="st5" d="M174.7,109.7c0,1.7-.2,4-.4,5.8,6.2,3.3,11.3,6.2,12.4,7.3h0c1.5,1.4,1.7,4,.4,7.8-1.3,3.9-3,5.9-5.2,6h-.3c-2.1,0-7.5-.8-13.9-2-2.6,4.9-5.8,9.8-9.7,14.8l22.8,22.2c12.9-11,26.5-36.8,26.9-61.9h-33.1,0Z"/>
  <path class="st0" d="M207.7,103.6l-32.1.6c-2.3-17.3-7.9-30.7-17.1-39.9l23.1-23.7c17.9,18,27.1,46,26.1,63h0ZM112.9,43.2l-.2-32.1c17.1-1.1,45.7,8.1,64.4,25.9l-23.4,23.2c-9.6-9.2-23.3-14.8-40.8-17ZM106.7,43.8c-13.4,0-27.2,5.1-41.5,15.4l-22.5-23.1c11.7-12.5,38.8-25.2,64.7-25l-.8,32.7h.1ZM43.9,104.2l-32.1-.6c-1.1-17,8.2-45,26-63l23.1,23.7c-9.2,9.2-14.8,22.7-17.1,39.9h0ZM61.5,149.4l-22.8,22.2c-12.9-11-26.5-36.8-26.9-61.9h33.1c.2,12.9,5.9,26.1,16.6,39.7h0ZM97.1.7C48.5,5.9,8.3,44.1,1.2,91.9c-5.3,35.7,7.2,68.6,29.9,91.7,2.7,2.7,7.1,2.6,9.9,0l30.1-29.1c2.7-2.6,2.8-6.9.2-9.6-11.5-11.7-17.6-28.5-14-46.8,4-20.4,20.4-37.1,41-41.3,34.5-7.1,64.9,18.8,64.9,51.7s0,1.4,0,1.7c3.7,1.9,7.5,3.7,11,5.6.2-1.8.4-4.2.4-6h33.1c-.4,25.1-14,50.9-26.9,61.9l-22.8-22.2c4-5.1,7.3-10.1,9.9-15.1-3.4-.6-7.1-1.3-10.6-2-2.4,4.7-5.5,8.9-9.2,12.7-2.6,2.7-2.6,6.9.1,9.6l29.4,29.4c2.7,2.7,7.2,2.8,9.9.1,19.5-19.5,31.6-46.2,31.6-75.8C219.1,44.6,163.2-6.3,97.2.9v-.2Z"/>
  <path class="st0" d="M181.6,128.8c-.3.9-.6,1.6-.9,2-5.2-.4-24.7-4.2-38.5-7.1l2-5.9c.5-1.1.9-2.3,1.2-3.5l2.1-6.2c15,7.7,30.8,16.1,34.4,18.5,0,.5-.2,1.3-.5,2.3h.2ZM109.5,135.2c-17.4,0-31.6-14.1-31.6-31.4,1.7-41.7,61.5-41.6,63.2,0,0,17.3-14.1,31.4-31.6,31.4ZM186.7,122.7h0c-3-2.7-33.3-18.2-39.3-21.3l-.5-.2c-1.5-19.1-17.5-34.2-37.1-34.2s-37.3,16.6-37.3,37c0,34.2,43.2,49.8,65.2,24.6h.3c6.5,1.4,37.9,8.1,44.1,8,2.2,0,3.9-2.1,5.2-6,1.3-3.8,1.1-6.4-.4-7.8h-.2Z"/>
</svg>