<?xml version="1.0" encoding="UTF-8"?>
<svg id="Layer_2" data-name="Layer 2" xmlns="http://www.w3.org/2000/svg" viewBox="0 0 102.42 112.5">
  <defs>
    <style>
      .cls-1 {
        fill: #1c0f41;
      }

      .cls-2 {
        fill: #fff;
      }

      .cls-3 {
        fill: #e3097e;
      }

      .cls-4 {
        fill: #493e5a;
      }
    </style>
  </defs>
  <g id="Layer_1-2" data-name="Layer 1">
    <g>
      <path class="cls-3" d="M102.42,61.44H0v-31.45l.25-.14L51.98,0l.25.15,50.19,29.85v31.45ZM1,60.44h100.42v-29.88L51.97,1.16,1,30.57v29.87Z"/>
      <polygon class="cls-1" points="7.25 35.05 7.25 86.51 51.88 112.5 95.17 86.51 95.17 35.05 51.88 9.32 7.25 35.05"/>
      <polygon class="cls-4" points="51.88 9.32 95.17 35.05 7.25 86.52 7.25 35.05 51.88 9.32"/>
      <g>
        <g id="DTqBip.tif">
          <g>
            <path class="cls-2" d="M79.92,67.97c-.34.37-.68.75-1.26.54-.53-.2-.66-.62-.66-1.15,0-4.37,0-8.73,0-13.1,0-.95,0-1.9,0-2.89H24.42v.61c0,9.57,0,19.14,0,28.7,0,2.02,1.17,3.19,3.19,3.19,8.61,0,17.22,0,25.83,0,.16,0,.32,0,.48,0,.69.02,1.13.39,1.11.97-.01.56-.43.93-1.09.94-1,0-1.99,0-2.99,0-7.75,0-15.51,0-23.26,0-3.2,0-5.19-1.98-5.19-5.18,0-12.5,0-25,0-37.49,0-3.19,1.99-5.17,5.19-5.17,1.43,0,2.87,0,4.38,0,0-.56,0-1.09,0-1.62,0-2.1.95-3.38,2.97-4.02.05-.02.09-.07.14-.1.44,0,.88,0,1.32,0,3.03.78,3.46,3.08,3.2,5.7h7.68c0-.68-.01-1.31,0-1.95.04-1.61,1.05-2.99,2.57-3.53.18-.06.36-.15.54-.22.44,0,.88,0,1.32,0,3.03.78,3.46,3.08,3.2,5.7h7.68c0-.68-.01-1.31,0-1.95.04-1.61,1.05-2.99,2.57-3.53.18-.06.36-.15.54-.22.44,0,.88,0,1.32,0,3.04.78,3.46,3.09,3.2,5.74,1.65,0,3.18,0,4.71,0,2.39.01,4.23,1.48,4.78,3.8.02.09.07.18.11.27v25.96ZM62.7,39.9h-7.66c0,.66.04,1.28-.01,1.89-.05.51-.13,1.04-.32,1.5-.67,1.63-2.45,2.57-4.13,2.25-1.84-.35-3.13-1.83-3.18-3.66-.02-.67,0-1.34,0-1.99h-7.66c0,.62,0,1.22,0,1.81-.02,2.21-1.7,3.9-3.84,3.9-2.14,0-3.79-1.71-3.81-3.93,0-.59,0-1.18,0-1.81-1.58,0-3.09,0-4.61,0-1.83,0-3.04,1.21-3.05,3.03,0,1.91,0,3.83,0,5.74,0,.25,0,.5,0,.77h53.57c0-2.36.06-4.69-.02-7.01-.04-1.27-1.11-2.38-2.39-2.46-1.72-.11-3.45-.03-5.23-.03,0,.68.02,1.34,0,1.99-.06,2.08-1.76,3.72-3.84,3.72-2.07,0-3.76-1.66-3.81-3.75-.02-.64,0-1.27,0-1.95ZM33.99,38.88c0,.94,0,1.87,0,2.81.01,1.13.82,1.97,1.88,1.99,1.09.02,1.94-.83,1.94-1.99.01-1.85.01-3.71,0-5.56,0-1.17-.82-2.02-1.91-2.02-1.09,0-1.9.85-1.91,2.01,0,.92,0,1.83,0,2.75ZM53.12,38.92c0-.92,0-1.83,0-2.75,0-1.21-.83-2.07-1.94-2.05-1.09.01-1.88.86-1.89,2.04,0,1.83,0,3.67,0,5.5,0,1.17.82,2.02,1.9,2.03,1.09,0,1.91-.85,1.92-2.01,0-.92,0-1.83,0-2.75ZM68.43,38.9c0-.94,0-1.87,0-2.81-.01-1.13-.83-1.97-1.89-1.98-1.09-.01-1.92.84-1.93,2-.01,1.85,0,3.71,0,5.56,0,1.16.83,2.01,1.92,2.01,1.09,0,1.89-.86,1.9-2.03,0-.92,0-1.83,0-2.75Z"/>
            <path class="cls-2" d="M66.4,89.62c-1.19-.3-2.42-.49-3.56-.93-5.03-1.94-8.27-7.21-7.76-12.5.54-5.69,4.64-10.23,10.12-11.22,7.11-1.28,13.65,3.49,14.62,10.68.02.11.07.22.1.34v2.39c-.03.09-.09.18-.1.27-.67,5.15-4.11,9.14-9.12,10.53-.66.19-1.35.3-2.03.44h-2.27ZM78,77.19c0-5.8-4.71-10.54-10.46-10.54-5.9,0-10.59,4.7-10.58,10.6,0,5.75,4.75,10.45,10.55,10.45,5.76,0,10.51-4.75,10.5-10.51Z"/>
            <path class="cls-2" d="M33.97,56.12c.64,0,1.28-.01,1.91,0,1.11.02,1.91.82,1.93,1.94.02.94.02,1.87,0,2.81-.02,1.15-.82,1.93-1.98,1.95-1.24.01-2.47.01-3.71,0-1.15-.01-1.95-.82-1.96-1.97-.01-.92-.01-1.83,0-2.75.02-1.18.81-1.96,2.01-1.98.6,0,1.2,0,1.79,0ZM32.09,60.86h3.77v-2.78h-3.77v2.78Z"/>
            <path class="cls-2" d="M45.45,62.82c-.6,0-1.2,0-1.79,0-1.19-.02-2-.8-2.01-1.98-.01-.92-.01-1.83,0-2.75.02-1.16.81-1.95,1.96-1.96,1.24-.01,2.47-.01,3.71,0,1.15.01,1.96.8,1.98,1.95.02.94.02,1.87,0,2.81-.02,1.12-.81,1.91-1.93,1.94-.64.01-1.28,0-1.91,0ZM47.35,60.88v-2.81h-3.75v2.81h3.75Z"/>
            <path class="cls-2" d="M56.94,56.12c.62,0,1.24,0,1.85,0,1.15.02,1.96.81,1.98,1.95.02.94.02,1.87,0,2.81-.02,1.12-.81,1.92-1.93,1.93-1.26.02-2.51.02-3.77,0-1.14-.01-1.94-.82-1.95-1.98-.01-.92-.01-1.83,0-2.75.02-1.16.81-1.94,1.96-1.96.62-.01,1.24,0,1.85,0ZM58.84,58.08h-3.75v2.79h3.75v-2.79Z"/>
            <path class="cls-2" d="M68.41,62.82c-.6,0-1.2,0-1.79,0-1.19-.02-1.99-.8-2.01-1.98-.01-.92-.01-1.83,0-2.75.02-1.16.81-1.95,1.96-1.96,1.24-.01,2.47-.01,3.71,0,1.18.01,1.97.81,1.98,2.01.01.9.01,1.79,0,2.69-.01,1.19-.8,1.98-1.99,2-.62,0-1.24,0-1.85,0ZM70.3,60.88v-2.82h-3.75v2.82h3.75Z"/>
            <path class="cls-2" d="M33.97,64.74c.64,0,1.28-.01,1.91,0,1.11.02,1.91.82,1.93,1.94.02.94.02,1.87,0,2.81-.02,1.12-.81,1.93-1.92,1.94-1.28.02-2.55.02-3.83,0-1.08-.02-1.88-.83-1.9-1.91-.02-.96-.02-1.91,0-2.87.02-1.11.82-1.89,1.95-1.91.62-.01,1.24,0,1.85,0ZM35.86,69.49v-2.8h-3.75v2.8h3.75Z"/>
            <path class="cls-2" d="M45.46,71.43c-.64,0-1.28.01-1.91,0-1.08-.03-1.88-.83-1.9-1.91-.02-.96-.02-1.91,0-2.87.02-1.11.82-1.9,1.95-1.91,1.26-.01,2.51-.02,3.77,0,1.11.01,1.91.82,1.93,1.93.02.94.02,1.87,0,2.81-.02,1.15-.82,1.93-1.98,1.95-.62.01-1.24,0-1.85,0ZM43.58,69.48h3.75v-2.8h-3.75v2.8Z"/>
            <path class="cls-2" d="M55.05,66.65c0,.98,0,1.87,0,2.77.02.03.04.07.07.08.72.28,1.01.74.81,1.29-.21.57-.79.79-1.5.54-.77-.27-1.28-.93-1.3-1.76-.02-.98-.02-1.95,0-2.93.02-1.09.82-1.88,1.9-1.9,1.24-.02,2.47-.01,3.71,0,.66,0,1.07.39,1.08.95,0,.56-.41.95-1.07.96-1.21.01-2.42,0-3.7,0Z"/>
            <path class="cls-2" d="M34.01,73.35c.64,0,1.28-.02,1.91,0,1.05.03,1.85.82,1.88,1.86.03,1,.03,1.99,0,2.99-.03,1.02-.82,1.81-1.84,1.83-1.31.03-2.63.03-3.95,0-1.04-.02-1.83-.84-1.85-1.89-.02-.98-.02-1.95,0-2.93.03-1.05.82-1.83,1.87-1.87.66-.02,1.32,0,1.97,0ZM32.08,78.1h3.77v-2.79h-3.77v2.79Z"/>
            <path class="cls-2" d="M45.43,80.05c-.62,0-1.24.01-1.85,0-1.11-.03-1.91-.83-1.93-1.94-.02-.94-.02-1.87,0-2.81.02-1.12.81-1.92,1.92-1.94,1.28-.02,2.55-.02,3.83,0,1.08.02,1.87.82,1.9,1.91.02.96.02,1.91,0,2.87-.02,1.11-.83,1.89-1.95,1.91-.64.01-1.28,0-1.91,0ZM47.36,75.3h-3.75v2.8h3.75v-2.8Z"/>
          </g>
        </g>
        <g>
          <path class="cls-2" d="M69.32,71.04h-2.86v1.51c.12-.15.3-.28.53-.38.23-.1.47-.15.73-.15.47,0,.86.1,1.16.31.3.21.52.47.65.79s.2.66.2,1.03c0,.68-.19,1.22-.58,1.63-.39.41-.93.62-1.65.62-.67,0-1.21-.17-1.61-.5s-.63-.77-.68-1.32h1.2c.05.24.17.42.36.57.19.14.42.21.71.21.35,0,.61-.11.79-.33.18-.22.26-.51.26-.87s-.09-.64-.27-.83c-.18-.19-.44-.29-.79-.29-.25,0-.45.06-.62.19s-.28.29-.35.49h-1.18v-3.78h3.99v1.09Z"/>
          <path class="cls-2" d="M62.68,78.16c.38.2.67.47.88.84s.31.78.31,1.26-.1.89-.31,1.25c-.21.36-.5.63-.88.83-.38.2-.82.29-1.32.29h-1.66v-4.76h1.66c.5,0,.94.1,1.32.29ZM62.48,81.4c.27-.27.41-.66.41-1.15s-.14-.88-.41-1.16-.66-.42-1.16-.42h-.68v3.14h.68c.5,0,.89-.14,1.16-.41Z"/>
          <path class="cls-2" d="M64.23,79.7c.15-.3.36-.52.62-.68.26-.16.55-.24.88-.24.28,0,.53.06.74.17.21.11.38.26.51.43v-.54h.96v3.78h-.96v-.55c-.12.18-.29.32-.51.44-.22.12-.46.17-.75.17-.32,0-.61-.08-.87-.25s-.47-.39-.62-.69c-.15-.3-.23-.64-.23-1.03s.08-.72.23-1.02ZM66.84,80.14c-.09-.17-.21-.29-.37-.38-.15-.09-.32-.13-.5-.13s-.34.04-.49.13c-.15.09-.27.21-.37.38s-.14.36-.14.59.05.43.14.6.22.3.37.39.31.14.49.14.34-.04.5-.13c.15-.09.28-.22.37-.38.09-.17.14-.37.14-.6s-.05-.43-.14-.6Z"/>
          <path class="cls-2" d="M72.14,78.84l-2.34,5.57h-1.02l.82-1.88-1.51-3.68h1.07l.98,2.64.99-2.64h1.02Z"/>
          <path class="cls-2" d="M72.93,82.52c-.25-.11-.44-.26-.58-.45-.14-.19-.22-.4-.24-.63h.96c.02.15.09.27.21.36.13.1.28.14.47.14s.32-.04.43-.11c.1-.07.15-.17.15-.28,0-.12-.06-.21-.19-.28-.13-.06-.32-.13-.6-.2-.28-.07-.51-.14-.69-.21-.18-.07-.33-.18-.46-.33-.13-.15-.19-.35-.19-.61,0-.21.06-.4.18-.57.12-.17.29-.31.52-.41.23-.1.49-.15.79-.15.45,0,.81.11,1.08.34.27.23.42.53.44.91h-.91c-.01-.15-.08-.27-.19-.36-.11-.09-.26-.13-.45-.13-.17,0-.31.03-.4.1s-.14.15-.14.27c0,.13.06.22.19.29.13.07.33.13.59.2.27.07.5.14.68.21.18.07.33.19.46.34.13.15.2.35.2.6,0,.22-.06.41-.18.59-.12.17-.29.31-.52.41-.23.1-.49.15-.79.15s-.59-.06-.83-.17Z"/>
        </g>
      </g>
    </g>
  </g>
</svg>