<?xml version="1.0" encoding="UTF-8"?>
<svg id="Layer_2" data-name="Layer 2" xmlns="http://www.w3.org/2000/svg" viewBox="0 0 189.05 21.71">
  <defs>
    <style>
      .cls-1 {
        fill: #90bf27;
      }
    </style>
  </defs>
  <g id="Layer_1-2" data-name="Layer 1">
    <g>
      <path class="cls-1" d="M15.07,10.17c.49.45.95.94,1.38,1.45.23.33.55.59.93.75.39.1.81-.02,1.09-.31.29-.46.2-1.06-.21-1.41l-6.78-6.78c-.37-.37-.98-.37-1.35,0-.97.97-1.94,1.94-2.91,2.91-1.29,1.29-2.56,2.62-3.87,3.86-.44.34-.51.97-.17,1.4.11.14.25.25.42.31.42.13.88,0,1.18-.32.46-.44.87-.92,1.31-1.38,1.15-1.2,2.35-2.37,3.53-3.54.06-.07.11-.2.26-.14v10.24c-.02.23.04.46.17.65.25.34.7.47,1.09.31.4-.12.66-.51.62-.92V6.83c1.15,1.16,2.25,2.25,3.32,3.34Z"/>
      <path class="cls-1" d="M0,10.91C0,4.94,4.84.1,10.8.1s10.8,4.84,10.8,10.8-4.84,10.8-10.8,10.8h0C4.84,21.71,0,16.87,0,10.91ZM10.8,19.88c4.96,0,8.97-4.02,8.97-8.97S15.76,1.93,10.8,1.93c-4.96,0-8.97,4.02-8.97,8.97,0,0,0,0,0,0,0,4.95,4.02,8.97,8.97,8.97,0,0,0,0,0,0Z"/>
      <path class="cls-1" d="M62.83,21.52c-.38-.12-.77-.16-1.15-.29-1.14-.39-2.09-1.21-2.65-2.28-.41-.77-.64-1.62-.69-2.49,0-.52-.04-.52.46-.52h2.29c.15,0,.2,0,.22.19.03.75.32,1.46.81,2.02.37.38.87.61,1.4.64.64.08,1.29-.08,1.82-.44.45-.3.74-.79.8-1.32.11-.9-.41-1.77-1.25-2.11-.64-.31-1.29-.57-1.97-.78-.78-.24-1.53-.59-2.21-1.05-.93-.62-1.54-1.62-1.67-2.74-.18-1.31.2-2.64,1.05-3.66.7-.89,1.71-1.49,2.83-1.67,1.23-.27,2.51-.08,3.61.52.67.37,1.23.91,1.61,1.57.38.63.6,1.35.63,2.09,0,.06.02.11.04.16,0,.09,0,.15-.12.15h-2.75c-.13,0-.11-.07-.13-.15-.05-.69-.47-1.31-1.1-1.61-.97-.43-2.43.03-2.66,1.21-.18.73.2,1.48.89,1.76.55.26,1.13.46,1.72.61,1,.29,1.94.77,2.76,1.4.89.69,1.48,1.7,1.65,2.82.19,1.09,0,2.21-.52,3.19-.45.83-1.12,1.52-1.94,1.99-.65.39-1.37.65-2.12.74v.04h-1.65Z"/>
      <path class="cls-1" d="M28.72,5.3h2.54c.19,0,.24.05.23.24v1.15c.28-.38.64-.71,1.05-.96.58-.38,1.23-.63,1.92-.72.29-.05.59-.08.89-.1.15,0,.2.03.2.19v2.66c0,.2-.1.25-.25.26-.54.04-1.07.17-1.57.39-.79.32-1.4.96-1.69,1.76-.24.66-.36,1.36-.35,2.07v8.64c0,.2-.04.26-.25.26h-2.71V5.3Z"/>
      <path class="cls-1" d="M103.62,6.85c.77-1,1.89-1.67,3.14-1.85.65-.1,1.3-.13,1.95-.08,1.3.06,2.56.52,3.59,1.32,1.08.87,1.81,2.1,2.04,3.47.11.54.16,1.09.15,1.64v9.51c0,.23-.06.27-.27.26h-2.49c-.2,0-.26-.05-.26-.25v-9.34c.02-.9-.23-1.79-.72-2.55-.46-.67-1.17-1.13-1.98-1.26-.83-.18-1.69-.13-2.49.13-1.26.41-2.21,1.46-2.49,2.76-.15.57-.22,1.16-.2,1.75v8.5c0,.19-.04.26-.25.26h-2.46c-.21,0-.25-.05-.25-.26V.28c0-.18.03-.25.24-.25h2.49c.2,0,.24.06.24.25v6.38l.02.19Z"/>
      <path class="cls-1" d="M97.06,14.58v6.28c0,.2-.04.26-.25.26h-2.52c-.21,0-.25-.06-.25-.26v-12.5c0-.26-.06-.33-.32-.32h-1.62c-.14,0-.19,0-.18-.17v-2.42c0-.15.05-.18.18-.17h1.72c.17,0,.22-.05.22-.22V.26c0-.2.04-.26.25-.26h2.52c.21,0,.25.06.25.26v4.78c0,.19.05.25.24.24h2.12c.16,0,.21.04.21.2v2.37c0,.17-.05.2-.21.2h-2.12c-.19,0-.24.05-.24.24,0,2.1,0,4.19,0,6.29Z"/>
      <path class="cls-1" d="M178.77,6.66c.32-.36.68-.68,1.08-.96.56-.35,1.18-.59,1.84-.69.31-.06.63-.09.94-.1.16,0,.19.05.18.2v2.66c0,.18-.07.24-.24.25-.78.03-1.53.29-2.17.74-.56.41-.97.99-1.16,1.66-.22.79-.31,1.61-.29,2.42v8.03c0,.23-.06.27-.27.26h-2.49c-.16,0-.21-.04-.21-.2V5.5c0-.17.06-.2.21-.2h2.37c.15,0,.2.04.19.19,0,.37.01.74.01,1.17Z"/>
      <path class="cls-1" d="M54.01,13.21v-7.64c0-.21.04-.28.27-.27h2.46c.2,0,.24.06.24.25v15.35c0,.17-.03.24-.23.23h-2.51c-.19,0-.23-.05-.23-.23,0-2.56,0-5.13,0-7.69Z"/>
      <path class="cls-1" d="M56.97,1.82v1.57c0,.15,0,.22-.19.21h-2.59c-.14,0-.18-.03-.18-.18,0-1.07,0-2.14,0-3.2,0-.14.05-.17.18-.17h2.59c.17,0,.19.07.19.21v1.55Z"/>
      <path class="cls-1" d="M147.32,21.52c-.27-.05-.52-.09-.82-.15-1.06-.2-2.04-.68-2.84-1.4-.33-.3-.6-.65-.93-1v1.9c0,.21-.05.26-.25.26h-2.29c-.17,0-.24-.03-.23-.21s0-.52,0-.74V.31c0-.24.06-.3.29-.29h2.46c.2,0,.26.04.26.26v7.15c.62-.83,1.44-1.5,2.37-1.95.64-.3,1.31-.49,2.01-.58.58-.06,1.16-.07,1.74-.03.81.06,1.61.26,2.35.59,1.05.45,2,1.13,2.76,1.98.66.71,1.19,1.52,1.57,2.41.28.68.48,1.38.62,2.09.04.17.06.35.05.52,0,.38.04.75.03,1.14-.03.98-.23,1.94-.59,2.85-.3.77-.72,1.49-1.24,2.14-.55.69-1.21,1.29-1.96,1.75-.8.51-1.69.87-2.62,1.05-.25.04-.5.09-.74.15l-2.01-.02ZM142.98,14.28c.16,1.02.62,1.98,1.31,2.75.88,1.03,2.13,1.66,3.47,1.77.86.08,1.73-.08,2.5-.46.98-.46,1.8-1.21,2.35-2.14.7-1.13.98-2.47.8-3.78-.1-.71-.32-1.4-.67-2.03-.51-.98-1.3-1.77-2.28-2.28-.99-.52-2.13-.68-3.22-.46-1.23.22-2.33.89-3.09,1.88-.86,1.1-1.32,2.46-1.29,3.86.01.3.05.59.12.88Z"/>
      <path class="cls-1" d="M164.08,21.52c-.32-.07-.64-.13-.96-.2-1.13-.25-2.18-.76-3.08-1.48-.82-.66-1.5-1.48-2-2.41-.49-.89-.81-1.87-.95-2.88-.09-.76-.09-1.53,0-2.3.1-1.11.42-2.19.95-3.17.67-1.26,1.67-2.31,2.89-3.05.85-.51,1.79-.85,2.76-1.02.78-.13,1.57-.16,2.36-.07,1.02.09,2.01.39,2.92.87.74.39,1.38.94,1.87,1.62.08,0,.04-.09.04-.14v-1.79c0-.16.04-.21.2-.21h2.34c.2,0,.23.07.23.24v15.33c0,.23-.06.27-.27.26h-2.29c-.16,0-.21-.04-.2-.2v-2.15c-.21.34-.46.65-.73.94-.89.81-1.99,1.37-3.17,1.62-.32.08-.66.09-.98.19h-1.93ZM160.14,14.46c.26,1.19.89,2.26,1.81,3.06.49.41,1.04.74,1.63.97.83.32,1.74.41,2.62.25.91-.16,1.76-.55,2.46-1.14,1.39-1.15,2.14-2.91,2.01-4.71-.02-.5-.12-.99-.28-1.47-.3-.93-.84-1.78-1.57-2.44-.46-.42-.99-.76-1.57-.99-.92-.37-1.93-.46-2.9-.25-1.39.28-2.59,1.12-3.34,2.32-.64.98-.96,2.14-.94,3.31-.03.36,0,.73.07,1.08Z"/>
      <path class="cls-1" d="M42.09,21.52c-.32-.07-.65-.12-.98-.2-1.13-.27-2.19-.79-3.09-1.52-1.24-1-2.15-2.35-2.62-3.87-.17-.58-.29-1.17-.34-1.77-.04-.46-.04-.93,0-1.39.05-1.07.29-2.12.72-3.1.42-.96,1.03-1.82,1.78-2.55.99-.95,2.21-1.62,3.54-1.95.89-.23,1.81-.31,2.73-.24.93.07,1.85.3,2.7.68.62.28,1.2.66,1.71,1.11.24.24.46.49.66.75v-1.82q0-.33.32-.33h2.22c.16,0,.23,0,.23.21,0,5.14,0,10.28,0,15.42,0,.14,0,.2-.19.2h-2.4c-.16,0-.19-.04-.19-.19v-2.12c-.26.31-.45.62-.71.88-.75.69-1.64,1.19-2.62,1.48-.48.16-.98.26-1.49.3-.03,0-.07.01-.08.05h-1.9ZM45.49,18.34c1-.47,1.83-1.23,2.38-2.18.78-1.27,1.01-2.81.63-4.26-.27-1.18-.91-2.24-1.84-3.02-.9-.78-2.04-1.22-3.23-1.25-.61-.02-1.21.08-1.78.28-1.03.34-1.92,1-2.54,1.89-.92,1.23-1.3,2.79-1.05,4.31.18,1.23.77,2.37,1.68,3.22.96.94,2.24,1.47,3.57,1.49.75,0,1.5-.15,2.18-.48Z"/>
      <path class="cls-1" d="M122.92,21.52c-.29-.08-.59-.15-.88-.18-.93-.21-1.81-.6-2.59-1.15-1.03-.7-1.88-1.62-2.5-2.71-.53-.92-.88-1.94-1.05-2.99-.11-.67-.14-1.35-.08-2.03.12-1.68.74-3.28,1.77-4.6.98-1.28,2.32-2.23,3.86-2.72.59-.18,1.2-.3,1.82-.35,1.13-.1,2.27.06,3.33.47.87.33,1.67.81,2.37,1.43.86.74,1.55,1.66,2.04,2.68.39.8.64,1.65.74,2.53.07.43.1.86.08,1.29-.04.4,0,.81-.08,1.21,0,.08-.05.11-.13.1h-12.52c-.32,0-.31,0-.23.29.28,1.01.82,1.92,1.57,2.65.69.64,1.54,1.08,2.46,1.25,1.13.24,2.32.06,3.33-.49.83-.46,1.52-1.13,1.99-1.95.03-.08.12-.13.2-.13h2.88c-.25.7-.58,1.36-1,1.98-.67,1-1.57,1.82-2.62,2.41-.89.52-1.88.84-2.91.95,0,0-.03,0-.05.04h-1.82ZM128.52,12.2c.34,0,.39-.04.31-.38,0-.13-.03-.25-.06-.38-.27-1.17-.95-2.2-1.93-2.9-.96-.74-2.17-1.09-3.38-.99-.81.07-1.6.32-2.29.74-.76.45-1.39,1.1-1.8,1.88-.26.53-.43,1.1-.49,1.68q-.04.34.3.34h9.34Z"/>
      <path class="cls-1" d="M76.79,21.52c-.32-.07-.64-.12-.95-.2-1.16-.28-2.23-.84-3.14-1.61-1.66-1.39-2.71-3.37-2.95-5.52-.07-.59-.08-1.18-.03-1.76.11-1.48.62-2.91,1.46-4.14.83-1.24,1.99-2.22,3.35-2.84.67-.31,1.39-.51,2.12-.6.44-.07.88-.1,1.33-.09,1.57.06,3.09.59,4.36,1.52.87.64,1.6,1.44,2.16,2.37.5.82.85,1.72,1.05,2.66.1.51.15,1.02.17,1.54,0,.52-.03,1.05-.08,1.57,0,.08-.05.09-.12.09h-12.53c-.32,0-.32,0-.23.3.29,1.02.85,1.95,1.62,2.67.68.62,1.51,1.04,2.41,1.21.94.2,1.92.11,2.81-.24.76-.3,1.44-.79,1.96-1.42.2-.24.38-.5.55-.76.06-.1.17-.15.28-.14h2.54c.29,0,.3,0,.19.28-.38.91-.9,1.75-1.54,2.5-.67.76-1.49,1.38-2.39,1.83-.77.4-1.62.65-2.49.74-.03,0-.07.01-.08.05h-1.82ZM82.46,12.21c.2,0,.26-.06.24-.25-.06-.51-.2-1.01-.41-1.48-.44-.95-1.16-1.73-2.06-2.25-.95-.58-2.08-.81-3.18-.65-.71.1-1.39.34-2,.72-.76.45-1.39,1.1-1.81,1.88-.26.58-.44,1.19-.52,1.82-.03.18.05.22.21.21h4.78c1.59,0,3.17,0,4.76,0Z"/>
      <polygon class="cls-1" points="186.92 .13 186.42 2.85 186.76 2.85 187.09 1.13 187.68 2.85 187.8 2.85 188.37 1.13 188.7 2.85 189.05 2.85 188.5 .13 188.34 .13 187.74 2.11 187.09 .13 186.92 .13"/>
      <polygon class="cls-1" points="185.44 .47 185.44 2.85 185.07 2.85 185.07 .47 184.2 .47 184.2 .13 186.34 .13 186.34 .47 185.44 .47"/>
    </g>
  </g>
</svg>