<?xml version="1.0" encoding="UTF-8"?>
<svg id="Layer_2" data-name="Layer 2" xmlns="http://www.w3.org/2000/svg" viewBox="0 0 102.42 112.5">
  <defs>
    <style>
      .cls-1 {
        fill: #1c0f41;
      }

      .cls-2 {
        fill: #fff;
      }

      .cls-3 {
        fill: #e3097e;
      }

      .cls-4 {
        fill: #493e5a;
      }
    </style>
  </defs>
  <g id="Layer_1-2" data-name="Layer 1">
    <g>
      <path class="cls-3" d="M50.44,112.5l-.25-.15L0,82.5v-31.45h102.42v31.45l-.25.14-51.73,29.85ZM1,81.93l49.45,29.41,50.97-29.41v-29.87H1v29.88Z"/>
      <polygon class="cls-1" points="50.55 0 7.25 25.98 7.25 77.45 50.55 103.18 95.17 77.45 95.17 25.98 50.55 0"/>
      <polygon class="cls-4" points="50.55 103.18 7.25 77.45 95.17 25.98 95.17 77.45 50.55 103.18"/>
      <g id="_7SELyL.tif" data-name="7SELyL.tif">
        <g>
          <path class="cls-2" d="M48.55,84.9c-.67-.28-1.4-.25-2.11-.35-11.65-1.63-22.06-10.57-25.12-22.05-3.38-12.64-.17-23.54,9.53-32.36,4.41-4.01,9.71-6.34,15.62-7.24,2.82-.43,5.65-.49,8.48-.13.82.11,1.25.69,1.14,1.42-.1.66-.72,1.1-1.49,1.01-1.84-.21-3.67-.26-5.52-.12-4.13.32-8.03,1.43-11.63,3.46-7.18,4.04-11.88,10.05-14.03,18.02-2.91,10.81,1.16,22.81,10,29.68,3.69,2.87,7.78,4.84,12.38,5.67,9.05,1.63,17.16-.52,24.17-6.47,5.04-4.28,8.21-9.75,9.44-16.26,1.53-8.08-.15-15.5-4.86-22.23-.05-.08-.08-.19-.28-.16,0,.38.02.78,0,1.18-.05.67-.54,1.13-1.19,1.14-.63,0-1.22-.46-1.24-1.1-.04-1.62-.03-3.25,0-4.87.01-.63.53-1.08,1.17-1.09,1.58-.02,3.17-.02,4.75,0,.67,0,1.13.52,1.14,1.17.01.69-.45,1.22-1.13,1.25-.62.03-1.25,0-1.97,0,.96,1.28,1.82,2.51,2.56,3.83,2.21,3.93,3.55,8.12,3.94,12.62,0,.1-.02.21.12.24v5.11c-.16.06-.11.19-.12.31-.06,1.01-.21,2.01-.41,3.01-1.16,5.92-3.78,11.11-7.93,15.49-4.9,5.17-10.88,8.35-17.94,9.47-.78.12-1.59.09-2.35.35h-5.11Z"/>
          <path class="cls-2" d="M51.23,74.51c10.01,0,18.64-7.17,20.44-16.97,2.06-11.21-5.29-22.1-16.42-24.25-5.22-1.01-10.13-.11-14.71,2.6-.07.04-.14.09-.21.13-.8.47-1.51.35-1.9-.32-.37-.64-.14-1.33.61-1.79,3.12-1.9,6.5-3,10.15-3.34,10.09-.95,19.86,4.99,23.63,14.54,5.07,12.83-1.89,27.14-15.14,30.95-13.12,3.78-26.52-4.38-29.23-17.7-1.22-5.99-.16-11.61,2.98-16.85.41-.69.91-.92,1.49-.74.84.26,1.15,1.09.67,1.9-.87,1.46-1.6,2.99-2.13,4.61-3.74,11.42,3.11,23.78,14.77,26.63,1.64.4,3.31.58,4.99.6Z"/>
          <path class="cls-2" d="M51.24,57.94c-2.89.01-4.97-2.94-3.95-5.64.18-.47.09-.71-.24-1.03-1.21-1.17-2.39-2.37-3.58-3.57-.46-.46-.55-1.07-.27-1.55.31-.52.78-.68,1.35-.59.34.06.57.29.8.52,1.19,1.19,2.39,2.38,3.57,3.58.25.25.44.3.78.16.99-.43,2.02-.44,3.01-.02.43.18.64.06.92-.23,2.55-2.56,5.11-5.11,7.66-7.67.37-.37.76-.69,1.33-.56.93.21,1.3,1.22.72,1.99-.12.16-.27.3-.42.44-2.53,2.53-5.05,5.06-7.58,7.57-.28.28-.34.49-.2.88,1.06,2.74-.97,5.7-3.9,5.71ZM52.95,53.73c0-.98-.73-1.73-1.71-1.73-.98,0-1.73.73-1.73,1.71,0,.98.73,1.73,1.71,1.73.98,0,1.73-.74,1.73-1.71Z"/>
          <path class="cls-2" d="M52.46,37.18c0,.26.01.53,0,.79-.05.68-.51,1.13-1.17,1.14-.68.02-1.22-.44-1.26-1.12-.03-.56-.03-1.13,0-1.7.04-.67.59-1.13,1.27-1.11.65.02,1.12.47,1.16,1.15.02.28,0,.57,0,.85Z"/>
          <path class="cls-2" d="M34.69,52.49c.26,0,.53-.01.79,0,.67.04,1.13.51,1.14,1.16.01.68-.44,1.22-1.12,1.26-.56.03-1.13.03-1.7,0-.67-.04-1.13-.6-1.11-1.27.02-.65.48-1.12,1.15-1.16.28-.02.57,0,.85,0Z"/>
          <path class="cls-2" d="M67.78,54.95c-.26,0-.53.01-.79,0-.68-.04-1.13-.5-1.15-1.15-.02-.68.43-1.23,1.1-1.27.56-.04,1.13-.03,1.7,0,.68.04,1.14.58,1.13,1.26-.02.65-.47,1.13-1.14,1.17-.28.02-.57,0-.85,0Z"/>
          <path class="cls-2" d="M52.44,70.32c0,.28.02.57,0,.85-.07.65-.59,1.09-1.24,1.09-.66,0-1.15-.45-1.19-1.12-.03-.56-.03-1.13,0-1.7.03-.67.52-1.11,1.19-1.11.65,0,1.17.44,1.24,1.08.03.3,0,.61,0,.91Z"/>
          <path class="cls-2" d="M36.86,38.12c0,.71-.49,1.23-1.19,1.23-.7,0-1.24-.5-1.25-1.19-.01-.68.53-1.24,1.2-1.25.69-.01,1.23.51,1.24,1.2Z"/>
          <path class="cls-2" d="M60.87,24.99c0,.69-.55,1.22-1.23,1.21-.66,0-1.23-.59-1.22-1.25.01-.68.56-1.2,1.25-1.2.7,0,1.21.53,1.2,1.23Z"/>
        </g>
      </g>
    </g>
  </g>
</svg>