<?xml version="1.0" encoding="UTF-8"?>
<svg id="Layer_2" data-name="Layer 2" xmlns="http://www.w3.org/2000/svg" viewBox="0 0 46.35 46.12">
  <defs>
    <style>
      .cls-1 {
        fill: #e3097e;
      }
    </style>
  </defs>
  <g id="Layer_1-2" data-name="Layer 1">
    <g>
      <path class="cls-1" d="M13.06,35.95l8.44-9.98,6.95,9.98h8.44l-10.76-15.46,8.73-10.32h-2.66l-7.28,8.61-5.99-8.61h-8.44l9.8,14.08-9.89,11.7h2.66ZM14.57,12.31h3.25l15,21.48h-3.25L14.57,12.31Z"/>
      <path class="cls-1" d="M38.12,46.1H8.24c-4.53,0-8.24-3.67-8.24-8.19V8.19C0,3.67,3.69,0,8.24,0h29.88c4.53,0,8.24,3.67,8.24,8.19v29.73c0,4.51-3.69,8.19-8.24,8.19h0ZM8.24,1.51c-3.7,0-6.71,3-6.71,6.68v29.73c0,3.68,3.01,6.68,6.71,6.68h29.88c3.7,0,6.71-3,6.71-6.68V8.19c0-3.68-3.01-6.68-6.71-6.68H8.24Z"/>
    </g>
  </g>
</svg>