<?xml version="1.0" encoding="UTF-8"?>
<svg id="Layer_2" data-name="Layer 2" xmlns="http://www.w3.org/2000/svg" viewBox="0 0 45.64 45.41">
  <defs>
    <style>
      .cls-1 {
        fill: #fff;
      }
    </style>
  </defs>
  <g id="Layer_1-2" data-name="Layer 1">
    <g>
      <path class="cls-1" d="M37.53,45.4H8.11c-4.46,0-8.11-3.62-8.11-8.07V8.07C0,3.62,3.64,0,8.11,0h29.42c4.46,0,8.11,3.62,8.11,8.07v29.27c0,4.44-3.64,8.07-8.11,8.07h0ZM8.11,1.49c-3.64,0-6.61,2.95-6.61,6.58v29.27c0,3.63,2.97,6.58,6.61,6.58h29.42c3.65,0,6.61-2.95,6.61-6.58V8.07c0-3.63-2.97-6.58-6.61-6.58H8.11Z"/>
      <polygon class="cls-1" points="15.37 31.21 30.27 22.7 15.37 14.19 15.37 31.22 15.37 31.21"/>
    </g>
  </g>
</svg>